<?xml version="1.0" encoding="UTF-8" standalone="no"?>
<!DOCTYPE svg PUBLIC "-//W3C//DTD SVG 1.1//EN"
 "http://www.w3.org/Graphics/SVG/1.1/DTD/svg11.dtd">
<!-- Generated by graphviz version 2.40.1 (20161225.0304)
 -->
<!-- Title: nodes Pages: 1 -->
<svg width="1019pt" height="737pt"
 viewBox="0.00 0.00 1018.69 736.80" xmlns="http://www.w3.org/2000/svg" xmlns:xlink="http://www.w3.org/1999/xlink">
<g id="graph0" class="graph" transform="scale(1 1) rotate(0) translate(4 732.8)">
<title>nodes</title>
<polygon fill="#ffffff" stroke="transparent" points="-4,4 -4,-732.8 1014.695,-732.8 1014.695,4 -4,4"/>
<!-- 0 -->
<g id="node1" class="node">
<title>0</title>
<polygon fill="none" stroke="#000000" points="847.9523,-728.8 722.7427,-728.8 722.7427,-692.8 847.9523,-692.8 847.9523,-728.8"/>
<text text-anchor="middle" x="785.3475" y="-706.6" font-family="Times,serif" font-size="14.00" fill="#000000"> prestamo &lt;= 5230 </text>
</g>
<!-- 1 -->
<g id="node2" class="node">
<title>1</title>
<polygon fill="none" stroke="#000000" points="782.4531,-654 682.2419,-654 682.2419,-618 782.4531,-618 782.4531,-654"/>
<text text-anchor="middle" x="732.3475" y="-631.8" font-family="Times,serif" font-size="14.00" fill="#000000"> faltas &lt;= 0.71 </text>
</g>
<!-- 0&#45;&gt;1 -->
<g id="edge1" class="edge">
<title>0&#45;&gt;1</title>
<path fill="none" stroke="#000000" d="M772.5177,-692.693C766.1201,-683.6639 758.2587,-672.569 751.1918,-662.5954"/>
<polygon fill="#000000" stroke="#000000" points="753.8801,-660.3354 745.2429,-654.1995 748.1685,-664.3824 753.8801,-660.3354"/>
<text text-anchor="middle" x="741.0391" y="-674.6435" font-family="Times,serif" font-size="14.00" fill="#000000">True</text>
</g>
<!-- 2 -->
<g id="node3" class="node">
<title>2</title>
<polygon fill="#c1b2ff" stroke="#c1b2ff" points="875.5431,-656.6019 801.1519,-656.6019 801.1519,-615.3981 875.5431,-615.3981 875.5431,-656.6019"/>
<text text-anchor="middle" x="838.3475" y="-640.2" font-family="Times,serif" font-size="14.00" fill="#000000">leaf node &#160;</text>
<text text-anchor="middle" x="838.3475" y="-623.4" font-family="Times,serif" font-size="14.00" fill="#000000">size = &#160;14 </text>
</g>
<!-- 0&#45;&gt;2 -->
<g id="edge2" class="edge">
<title>0&#45;&gt;2</title>
<path fill="none" stroke="#000000" d="M798.1773,-692.693C804.0412,-684.4172 811.1348,-674.4058 817.7192,-665.1132"/>
<polygon fill="#000000" stroke="#000000" points="820.6474,-667.0344 823.573,-656.8515 814.9358,-662.9874 820.6474,-667.0344"/>
<text text-anchor="middle" x="827.7768" y="-677.2955" font-family="Times,serif" font-size="14.00" fill="#000000">False</text>
</g>
<!-- 3 -->
<g id="node4" class="node">
<title>3</title>
<polygon fill="none" stroke="#000000" points="733.2378,-576.4 621.4572,-576.4 621.4572,-540.4 733.2378,-540.4 733.2378,-576.4"/>
<text text-anchor="middle" x="677.3475" y="-554.2" font-family="Times,serif" font-size="14.00" fill="#000000"> num_arms &lt;= 1 </text>
</g>
<!-- 1&#45;&gt;3 -->
<g id="edge3" class="edge">
<title>1&#45;&gt;3</title>
<path fill="none" stroke="#000000" d="M719.3133,-617.6099C712.3952,-607.8491 703.7697,-595.6793 696.1409,-584.9158"/>
<polygon fill="#000000" stroke="#000000" points="698.9262,-582.7928 690.2882,-576.6581 693.2152,-586.8406 698.9262,-582.7928"/>
</g>
<!-- 4 -->
<g id="node5" class="node">
<title>4</title>
<polygon fill="#c1b2ff" stroke="#c1b2ff" points="825.5431,-579.0019 751.1519,-579.0019 751.1519,-537.7981 825.5431,-537.7981 825.5431,-579.0019"/>
<text text-anchor="middle" x="788.3475" y="-562.6" font-family="Times,serif" font-size="14.00" fill="#000000">leaf node &#160;</text>
<text text-anchor="middle" x="788.3475" y="-545.8" font-family="Times,serif" font-size="14.00" fill="#000000">size = &#160;11 </text>
</g>
<!-- 1&#45;&gt;4 -->
<g id="edge4" class="edge">
<title>1&#45;&gt;4</title>
<path fill="none" stroke="#000000" d="M745.6187,-617.6099C752.138,-608.576 760.1465,-597.4786 767.4612,-587.3424"/>
<polygon fill="#000000" stroke="#000000" points="770.3808,-589.2777 773.3946,-579.1205 764.7045,-585.1814 770.3808,-589.2777"/>
</g>
<!-- 5 -->
<g id="node6" class="node">
<title>5</title>
<polygon fill="none" stroke="#000000" points="676.9523,-501.6 551.7427,-501.6 551.7427,-465.6 676.9523,-465.6 676.9523,-501.6"/>
<text text-anchor="middle" x="614.3475" y="-479.4" font-family="Times,serif" font-size="14.00" fill="#000000"> prestamo &lt;= 3980 </text>
</g>
<!-- 3&#45;&gt;5 -->
<g id="edge5" class="edge">
<title>3&#45;&gt;5</title>
<path fill="none" stroke="#000000" d="M662.097,-540.293C654.3386,-531.0815 644.7693,-519.7199 636.2394,-509.5923"/>
<polygon fill="#000000" stroke="#000000" points="638.795,-507.1934 629.676,-501.7995 633.441,-511.7028 638.795,-507.1934"/>
</g>
<!-- 6 -->
<g id="node7" class="node">
<title>6</title>
<polygon fill="none" stroke="#000000" points="785.7266,-501.6 694.9684,-501.6 694.9684,-465.6 785.7266,-465.6 785.7266,-501.6"/>
<text text-anchor="middle" x="740.3475" y="-479.4" font-family="Times,serif" font-size="14.00" fill="#000000"> genero &lt;= 0 </text>
</g>
<!-- 3&#45;&gt;6 -->
<g id="edge6" class="edge">
<title>3&#45;&gt;6</title>
<path fill="none" stroke="#000000" d="M692.598,-540.293C700.3564,-531.0815 709.9257,-519.7199 718.4556,-509.5923"/>
<polygon fill="#000000" stroke="#000000" points="721.254,-511.7028 725.019,-501.7995 715.9,-507.1934 721.254,-511.7028"/>
</g>
<!-- 7 -->
<g id="node8" class="node">
<title>7</title>
<polygon fill="none" stroke="#000000" points="568.0082,-426.8 462.6868,-426.8 462.6868,-390.8 568.0082,-390.8 568.0082,-426.8"/>
<text text-anchor="middle" x="515.3475" y="-404.6" font-family="Times,serif" font-size="14.00" fill="#000000"> fam_pide &lt;= 0 </text>
</g>
<!-- 5&#45;&gt;7 -->
<g id="edge7" class="edge">
<title>5&#45;&gt;7</title>
<path fill="none" stroke="#000000" d="M590.3824,-465.493C577.5872,-455.8255 561.6574,-443.7897 547.771,-433.2977"/>
<polygon fill="#000000" stroke="#000000" points="549.5237,-430.2353 539.4351,-426.9995 545.3038,-435.8204 549.5237,-430.2353"/>
</g>
<!-- 8 -->
<g id="node9" class="node">
<title>8</title>
<polygon fill="#c1b2ff" stroke="#c1b2ff" points="660.5431,-429.4019 586.1519,-429.4019 586.1519,-388.1981 660.5431,-388.1981 660.5431,-429.4019"/>
<text text-anchor="middle" x="623.3475" y="-413" font-family="Times,serif" font-size="14.00" fill="#000000">leaf node &#160;</text>
<text text-anchor="middle" x="623.3475" y="-396.2" font-family="Times,serif" font-size="14.00" fill="#000000">size = &#160;5 </text>
</g>
<!-- 5&#45;&gt;8 -->
<g id="edge8" class="edge">
<title>5&#45;&gt;8</title>
<path fill="none" stroke="#000000" d="M616.5261,-465.493C617.4609,-457.7239 618.5798,-448.4252 619.6383,-439.6275"/>
<polygon fill="#000000" stroke="#000000" points="623.1189,-439.998 620.8386,-429.6515 616.169,-439.1618 623.1189,-439.998"/>
</g>
<!-- 9 -->
<g id="node36" class="node">
<title>9</title>
<polygon fill="#c1b2ff" stroke="#c1b2ff" points="769.5431,-429.4019 695.1519,-429.4019 695.1519,-388.1981 769.5431,-388.1981 769.5431,-429.4019"/>
<text text-anchor="middle" x="732.3475" y="-413" font-family="Times,serif" font-size="14.00" fill="#000000">leaf node &#160;</text>
<text text-anchor="middle" x="732.3475" y="-396.2" font-family="Times,serif" font-size="14.00" fill="#000000">size = &#160;13 </text>
</g>
<!-- 6&#45;&gt;9 -->
<g id="edge35" class="edge">
<title>6&#45;&gt;9</title>
<path fill="none" stroke="#000000" d="M738.4109,-465.493C737.58,-457.7239 736.5855,-448.4252 735.6446,-439.6275"/>
<polygon fill="#000000" stroke="#000000" points="739.1213,-439.2226 734.5776,-429.6515 732.161,-439.967 739.1213,-439.2226"/>
</g>
<!-- 10 -->
<g id="node37" class="node">
<title>10</title>
<polygon fill="none" stroke="#000000" points="873.5662,-426.8 787.1288,-426.8 787.1288,-390.8 873.5662,-390.8 873.5662,-426.8"/>
<text text-anchor="middle" x="830.3475" y="-404.6" font-family="Times,serif" font-size="14.00" fill="#000000"> edad &lt;= 36 </text>
</g>
<!-- 6&#45;&gt;10 -->
<g id="edge36" class="edge">
<title>6&#45;&gt;10</title>
<path fill="none" stroke="#000000" d="M762.134,-465.493C773.6563,-455.9167 787.9746,-444.0165 800.5138,-433.5951"/>
<polygon fill="#000000" stroke="#000000" points="802.9962,-436.083 808.4497,-426.9995 798.5219,-430.6996 802.9962,-436.083"/>
</g>
<!-- 11 -->
<g id="node10" class="node">
<title>11</title>
<polygon fill="none" stroke="#000000" points="541.9523,-349.2 416.7427,-349.2 416.7427,-313.2 541.9523,-313.2 541.9523,-349.2"/>
<text text-anchor="middle" x="479.3475" y="-327" font-family="Times,serif" font-size="14.00" fill="#000000"> prestamo &lt;= 1460 </text>
</g>
<!-- 7&#45;&gt;11 -->
<g id="edge9" class="edge">
<title>7&#45;&gt;11</title>
<path fill="none" stroke="#000000" d="M506.816,-390.4099C502.4223,-380.9391 496.9764,-369.2001 492.0953,-358.6786"/>
<polygon fill="#000000" stroke="#000000" points="495.2012,-357.0565 487.8178,-349.4581 488.8512,-360.0024 495.2012,-357.0565"/>
</g>
<!-- 12 -->
<g id="node11" class="node">
<title>12</title>
<polygon fill="none" stroke="#000000" points="686.4914,-349.2 560.2036,-349.2 560.2036,-313.2 686.4914,-313.2 686.4914,-349.2"/>
<text text-anchor="middle" x="623.3475" y="-327" font-family="Times,serif" font-size="14.00" fill="#000000"> masqueprepa &lt;= 0 </text>
</g>
<!-- 7&#45;&gt;12 -->
<g id="edge10" class="edge">
<title>7&#45;&gt;12</title>
<path fill="none" stroke="#000000" d="M540.6687,-390.6062C555.2929,-380.0985 573.8704,-366.7502 589.7096,-355.3694"/>
<polygon fill="#000000" stroke="#000000" points="592.1062,-357.9573 598.1849,-349.2798 588.0216,-352.2726 592.1062,-357.9573"/>
</g>
<!-- 15 -->
<g id="node12" class="node">
<title>15</title>
<polygon fill="none" stroke="#000000" points="421.2713,-271.6 265.4237,-271.6 265.4237,-235.6 421.2713,-235.6 421.2713,-271.6"/>
<text text-anchor="middle" x="343.3475" y="-249.4" font-family="Times,serif" font-size="14.00" fill="#000000"> estresado_seguido &lt;= 0 </text>
</g>
<!-- 11&#45;&gt;15 -->
<g id="edge11" class="edge">
<title>11&#45;&gt;15</title>
<path fill="none" stroke="#000000" d="M447.4615,-313.0062C428.4491,-302.1579 404.1305,-288.282 383.7783,-276.6693"/>
<polygon fill="#000000" stroke="#000000" points="385.4539,-273.5957 375.0337,-271.6798 381.9847,-279.6757 385.4539,-273.5957"/>
</g>
<!-- 16 -->
<g id="node13" class="node">
<title>16</title>
<polygon fill="none" stroke="#000000" points="529.7266,-271.6 438.9684,-271.6 438.9684,-235.6 529.7266,-235.6 529.7266,-271.6"/>
<text text-anchor="middle" x="484.3475" y="-249.4" font-family="Times,serif" font-size="14.00" fill="#000000"> genero &lt;= 0 </text>
</g>
<!-- 11&#45;&gt;16 -->
<g id="edge12" class="edge">
<title>11&#45;&gt;16</title>
<path fill="none" stroke="#000000" d="M480.5324,-312.8099C481.124,-303.629 481.8529,-292.3167 482.5145,-282.0482"/>
<polygon fill="#000000" stroke="#000000" points="486.0207,-282.0625 483.1711,-271.8581 479.0352,-281.6123 486.0207,-282.0625"/>
</g>
<!-- 17 -->
<g id="node30" class="node">
<title>17</title>
<polygon fill="#c1b2ff" stroke="#c1b2ff" points="651.5431,-274.2019 577.1519,-274.2019 577.1519,-232.9981 651.5431,-232.9981 651.5431,-274.2019"/>
<text text-anchor="middle" x="614.3475" y="-257.8" font-family="Times,serif" font-size="14.00" fill="#000000">leaf node &#160;</text>
<text text-anchor="middle" x="614.3475" y="-241" font-family="Times,serif" font-size="14.00" fill="#000000">size = &#160;15 </text>
</g>
<!-- 12&#45;&gt;17 -->
<g id="edge29" class="edge">
<title>12&#45;&gt;17</title>
<path fill="none" stroke="#000000" d="M621.2146,-312.8099C620.2298,-304.3181 619.0334,-294.0029 617.917,-284.3766"/>
<polygon fill="#000000" stroke="#000000" points="621.3795,-283.8507 616.7507,-274.3205 614.4261,-284.6572 621.3795,-283.8507"/>
</g>
<!-- 18 -->
<g id="node31" class="node">
<title>18</title>
<polygon fill="none" stroke="#000000" points="787.4523,-271.6 669.2427,-271.6 669.2427,-235.6 787.4523,-235.6 787.4523,-271.6"/>
<text text-anchor="middle" x="728.3475" y="-249.4" font-family="Times,serif" font-size="14.00" fill="#000000"> prestamo &lt;= 970 </text>
</g>
<!-- 12&#45;&gt;18 -->
<g id="edge30" class="edge">
<title>12&#45;&gt;18</title>
<path fill="none" stroke="#000000" d="M647.9653,-313.0062C662.1833,-302.4985 680.2448,-289.1502 695.644,-277.7694"/>
<polygon fill="#000000" stroke="#000000" points="697.922,-280.438 703.8839,-271.6798 693.7616,-274.8085 697.922,-280.438"/>
</g>
<!-- 21 -->
<g id="node14" class="node">
<title>21</title>
<polygon fill="none" stroke="#000000" points="282.5662,-194 196.1288,-194 196.1288,-158 282.5662,-158 282.5662,-194"/>
<text text-anchor="middle" x="239.3475" y="-171.8" font-family="Times,serif" font-size="14.00" fill="#000000"> edad &lt;= 42 </text>
</g>
<!-- 15&#45;&gt;21 -->
<g id="edge13" class="edge">
<title>15&#45;&gt;21</title>
<path fill="none" stroke="#000000" d="M318.9641,-235.4062C304.8815,-224.8985 286.9921,-211.5502 271.7395,-200.1694"/>
<polygon fill="#000000" stroke="#000000" points="273.686,-197.2549 263.5781,-194.0798 269.4998,-202.8652 273.686,-197.2549"/>
</g>
<!-- 22 -->
<g id="node15" class="node">
<title>22</title>
<polygon fill="none" stroke="#000000" points="404.1842,-194 300.5108,-194 300.5108,-158 404.1842,-158 404.1842,-194"/>
<text text-anchor="middle" x="352.3475" y="-171.8" font-family="Times,serif" font-size="14.00" fill="#000000"> low_cost &lt;= 0 </text>
</g>
<!-- 15&#45;&gt;22 -->
<g id="edge14" class="edge">
<title>15&#45;&gt;22</title>
<path fill="none" stroke="#000000" d="M345.4804,-235.2099C346.5452,-226.029 347.8572,-214.7167 349.0481,-204.4482"/>
<polygon fill="#000000" stroke="#000000" points="352.5545,-204.5948 350.2299,-194.2581 345.6011,-203.7883 352.5545,-204.5948"/>
</g>
<!-- 23 -->
<g id="node24" class="node">
<title>23</title>
<polygon fill="#c1b2ff" stroke="#c1b2ff" points="513.5431,-196.6019 439.1519,-196.6019 439.1519,-155.3981 513.5431,-155.3981 513.5431,-196.6019"/>
<text text-anchor="middle" x="476.3475" y="-180.2" font-family="Times,serif" font-size="14.00" fill="#000000">leaf node &#160;</text>
<text text-anchor="middle" x="476.3475" y="-163.4" font-family="Times,serif" font-size="14.00" fill="#000000">size = &#160;19 </text>
</g>
<!-- 16&#45;&gt;23 -->
<g id="edge23" class="edge">
<title>16&#45;&gt;23</title>
<path fill="none" stroke="#000000" d="M482.4516,-235.2099C481.5762,-226.7181 480.5127,-216.4029 479.5204,-206.7766"/>
<polygon fill="#000000" stroke="#000000" points="482.9908,-206.3088 478.4836,-196.7205 476.0277,-207.0267 482.9908,-206.3088"/>
</g>
<!-- 24 -->
<g id="node25" class="node">
<title>24</title>
<polygon fill="none" stroke="#000000" points="656.9523,-194 531.7427,-194 531.7427,-158 656.9523,-158 656.9523,-194"/>
<text text-anchor="middle" x="594.3475" y="-171.8" font-family="Times,serif" font-size="14.00" fill="#000000"> prestamo &lt;= 2810 </text>
</g>
<!-- 16&#45;&gt;24 -->
<g id="edge24" class="edge">
<title>16&#45;&gt;24</title>
<path fill="none" stroke="#000000" d="M510.1376,-235.4062C525.1706,-224.8012 544.3049,-211.3028 560.5341,-199.8538"/>
<polygon fill="#000000" stroke="#000000" points="562.5652,-202.7043 568.719,-194.0798 558.53,-196.9843 562.5652,-202.7043"/>
</g>
<!-- 27 -->
<g id="node16" class="node">
<title>27</title>
<polygon fill="none" stroke="#000000" points="182.4523,-116.4 64.2427,-116.4 64.2427,-80.4 182.4523,-80.4 182.4523,-116.4"/>
<text text-anchor="middle" x="123.3475" y="-94.2" font-family="Times,serif" font-size="14.00" fill="#000000"> prestamo &lt;= 500 </text>
</g>
<!-- 21&#45;&gt;27 -->
<g id="edge15" class="edge">
<title>21&#45;&gt;27</title>
<path fill="none" stroke="#000000" d="M212.1507,-157.8062C196.2977,-147.2012 176.1197,-133.7028 159.0053,-122.2538"/>
<polygon fill="#000000" stroke="#000000" points="160.6317,-119.1309 150.374,-116.4798 156.7395,-124.9491 160.6317,-119.1309"/>
</g>
<!-- 28 -->
<g id="node17" class="node">
<title>28</title>
<polygon fill="none" stroke="#000000" points="286.5662,-116.4 200.1288,-116.4 200.1288,-80.4 286.5662,-80.4 286.5662,-116.4"/>
<text text-anchor="middle" x="243.3475" y="-94.2" font-family="Times,serif" font-size="14.00" fill="#000000"> edad &lt;= 50 </text>
</g>
<!-- 21&#45;&gt;28 -->
<g id="edge16" class="edge">
<title>21&#45;&gt;28</title>
<path fill="none" stroke="#000000" d="M240.2954,-157.6099C240.7687,-148.429 241.3518,-137.1167 241.8811,-126.8482"/>
<polygon fill="#000000" stroke="#000000" points="245.3868,-126.8251 242.4064,-116.6581 238.3961,-126.4646 245.3868,-126.8251"/>
</g>
<!-- 29 -->
<g id="node22" class="node">
<title>29</title>
<polygon fill="#c1b2ff" stroke="#c1b2ff" points="385.5431,-119.0019 311.1519,-119.0019 311.1519,-77.7981 385.5431,-77.7981 385.5431,-119.0019"/>
<text text-anchor="middle" x="348.3475" y="-102.6" font-family="Times,serif" font-size="14.00" fill="#000000">leaf node &#160;</text>
<text text-anchor="middle" x="348.3475" y="-85.8" font-family="Times,serif" font-size="14.00" fill="#000000">size = &#160;13 </text>
</g>
<!-- 22&#45;&gt;29 -->
<g id="edge21" class="edge">
<title>22&#45;&gt;29</title>
<path fill="none" stroke="#000000" d="M351.3996,-157.6099C350.9618,-149.1181 350.4301,-138.8029 349.9339,-129.1766"/>
<polygon fill="#000000" stroke="#000000" points="353.4258,-128.927 349.4156,-119.1205 346.4351,-129.2874 353.4258,-128.927"/>
</g>
<!-- 30 -->
<g id="node23" class="node">
<title>30</title>
<polygon fill="#c1b2ff" stroke="#c1b2ff" points="478.5431,-119.0019 404.1519,-119.0019 404.1519,-77.7981 478.5431,-77.7981 478.5431,-119.0019"/>
<text text-anchor="middle" x="441.3475" y="-102.6" font-family="Times,serif" font-size="14.00" fill="#000000">leaf node &#160;</text>
<text text-anchor="middle" x="441.3475" y="-85.8" font-family="Times,serif" font-size="14.00" fill="#000000">size = &#160;8 </text>
</g>
<!-- 22&#45;&gt;30 -->
<g id="edge22" class="edge">
<title>22&#45;&gt;30</title>
<path fill="none" stroke="#000000" d="M373.4393,-157.6099C384.3183,-148.1243 397.8067,-136.3637 409.8883,-125.8296"/>
<polygon fill="#000000" stroke="#000000" points="412.3458,-128.3304 417.583,-119.1205 407.7455,-123.0543 412.3458,-128.3304"/>
</g>
<!-- 35 -->
<g id="node18" class="node">
<title>35</title>
<polygon fill="#c1b2ff" stroke="#c1b2ff" points="74.5431,-41.4019 .1519,-41.4019 .1519,-.1981 74.5431,-.1981 74.5431,-41.4019"/>
<text text-anchor="middle" x="37.3475" y="-25" font-family="Times,serif" font-size="14.00" fill="#000000">leaf node &#160;</text>
<text text-anchor="middle" x="37.3475" y="-8.2" font-family="Times,serif" font-size="14.00" fill="#000000">size = &#160;10 </text>
</g>
<!-- 27&#45;&gt;35 -->
<g id="edge17" class="edge">
<title>27&#45;&gt;35</title>
<path fill="none" stroke="#000000" d="M102.9667,-80.0099C92.4544,-70.5243 79.4207,-58.7637 67.7462,-48.2296"/>
<polygon fill="#000000" stroke="#000000" points="70.08,-45.6212 60.3109,-41.5205 65.3906,-50.8182 70.08,-45.6212"/>
</g>
<!-- 36 -->
<g id="node19" class="node">
<title>36</title>
<polygon fill="#c1b2ff" stroke="#c1b2ff" points="167.5431,-41.4019 93.1519,-41.4019 93.1519,-.1981 167.5431,-.1981 167.5431,-41.4019"/>
<text text-anchor="middle" x="130.3475" y="-25" font-family="Times,serif" font-size="14.00" fill="#000000">leaf node &#160;</text>
<text text-anchor="middle" x="130.3475" y="-8.2" font-family="Times,serif" font-size="14.00" fill="#000000">size = &#160;25 </text>
</g>
<!-- 27&#45;&gt;36 -->
<g id="edge18" class="edge">
<title>27&#45;&gt;36</title>
<path fill="none" stroke="#000000" d="M125.0064,-80.0099C125.7724,-71.5181 126.7029,-61.2029 127.5713,-51.5766"/>
<polygon fill="#000000" stroke="#000000" points="131.0657,-51.7945 128.4784,-41.5205 124.094,-51.1656 131.0657,-51.7945"/>
</g>
<!-- 37 -->
<g id="node20" class="node">
<title>37</title>
<polygon fill="#c1b2ff" stroke="#c1b2ff" points="273.5431,-41.4019 199.1519,-41.4019 199.1519,-.1981 273.5431,-.1981 273.5431,-41.4019"/>
<text text-anchor="middle" x="236.3475" y="-25" font-family="Times,serif" font-size="14.00" fill="#000000">leaf node &#160;</text>
<text text-anchor="middle" x="236.3475" y="-8.2" font-family="Times,serif" font-size="14.00" fill="#000000">size = &#160;11 </text>
</g>
<!-- 28&#45;&gt;37 -->
<g id="edge19" class="edge">
<title>28&#45;&gt;37</title>
<path fill="none" stroke="#000000" d="M241.6886,-80.0099C240.9226,-71.5181 239.9921,-61.2029 239.1237,-51.5766"/>
<polygon fill="#000000" stroke="#000000" points="242.601,-51.1656 238.2166,-41.5205 235.6293,-51.7945 242.601,-51.1656"/>
</g>
<!-- 38 -->
<g id="node21" class="node">
<title>38</title>
<polygon fill="#c1b2ff" stroke="#c1b2ff" points="366.5431,-41.4019 292.1519,-41.4019 292.1519,-.1981 366.5431,-.1981 366.5431,-41.4019"/>
<text text-anchor="middle" x="329.3475" y="-25" font-family="Times,serif" font-size="14.00" fill="#000000">leaf node &#160;</text>
<text text-anchor="middle" x="329.3475" y="-8.2" font-family="Times,serif" font-size="14.00" fill="#000000">size = &#160;10 </text>
</g>
<!-- 28&#45;&gt;38 -->
<g id="edge20" class="edge">
<title>28&#45;&gt;38</title>
<path fill="none" stroke="#000000" d="M263.7283,-80.0099C274.2406,-70.5243 287.2743,-58.7637 298.9488,-48.2296"/>
<polygon fill="#000000" stroke="#000000" points="301.3044,-50.8182 306.3841,-41.5205 296.615,-45.6212 301.3044,-50.8182"/>
</g>
<!-- 31 -->
<g id="node26" class="node">
<title>31</title>
<polygon fill="none" stroke="#000000" points="639.9523,-116.4 514.7427,-116.4 514.7427,-80.4 639.9523,-80.4 639.9523,-116.4"/>
<text text-anchor="middle" x="577.3475" y="-94.2" font-family="Times,serif" font-size="14.00" fill="#000000"> prestamo &lt;= 1790 </text>
</g>
<!-- 24&#45;&gt;31 -->
<g id="edge25" class="edge">
<title>24&#45;&gt;31</title>
<path fill="none" stroke="#000000" d="M590.3187,-157.6099C588.2863,-148.3323 585.777,-136.8783 583.5087,-126.5242"/>
<polygon fill="#000000" stroke="#000000" points="586.9063,-125.6774 581.3473,-116.6581 580.0685,-127.1755 586.9063,-125.6774"/>
</g>
<!-- 32 -->
<g id="node27" class="node">
<title>32</title>
<polygon fill="#c1b2ff" stroke="#c1b2ff" points="732.5431,-119.0019 658.1519,-119.0019 658.1519,-77.7981 732.5431,-77.7981 732.5431,-119.0019"/>
<text text-anchor="middle" x="695.3475" y="-102.6" font-family="Times,serif" font-size="14.00" fill="#000000">leaf node &#160;</text>
<text text-anchor="middle" x="695.3475" y="-85.8" font-family="Times,serif" font-size="14.00" fill="#000000">size = &#160;13 </text>
</g>
<!-- 24&#45;&gt;32 -->
<g id="edge26" class="edge">
<title>24&#45;&gt;32</title>
<path fill="none" stroke="#000000" d="M618.0275,-157.8062C630.6024,-148.1447 646.3029,-136.0818 660.2645,-125.3549"/>
<polygon fill="#000000" stroke="#000000" points="662.4498,-128.0897 668.2471,-119.2217 658.1849,-122.5389 662.4498,-128.0897"/>
</g>
<!-- 39 -->
<g id="node28" class="node">
<title>39</title>
<polygon fill="#c1b2ff" stroke="#c1b2ff" points="567.5431,-41.4019 493.1519,-41.4019 493.1519,-.1981 567.5431,-.1981 567.5431,-41.4019"/>
<text text-anchor="middle" x="530.3475" y="-25" font-family="Times,serif" font-size="14.00" fill="#000000">leaf node &#160;</text>
<text text-anchor="middle" x="530.3475" y="-8.2" font-family="Times,serif" font-size="14.00" fill="#000000">size = &#160;17 </text>
</g>
<!-- 31&#45;&gt;39 -->
<g id="edge27" class="edge">
<title>31&#45;&gt;39</title>
<path fill="none" stroke="#000000" d="M566.2092,-80.0099C560.8471,-71.1567 554.2846,-60.3217 548.2461,-50.3517"/>
<polygon fill="#000000" stroke="#000000" points="551.0716,-48.2608 542.8973,-41.5205 545.0842,-51.8872 551.0716,-48.2608"/>
</g>
<!-- 40 -->
<g id="node29" class="node">
<title>40</title>
<polygon fill="#c1b2ff" stroke="#c1b2ff" points="660.5431,-41.4019 586.1519,-41.4019 586.1519,-.1981 660.5431,-.1981 660.5431,-41.4019"/>
<text text-anchor="middle" x="623.3475" y="-25" font-family="Times,serif" font-size="14.00" fill="#000000">leaf node &#160;</text>
<text text-anchor="middle" x="623.3475" y="-8.2" font-family="Times,serif" font-size="14.00" fill="#000000">size = &#160;13 </text>
</g>
<!-- 31&#45;&gt;40 -->
<g id="edge28" class="edge">
<title>31&#45;&gt;40</title>
<path fill="none" stroke="#000000" d="M588.2489,-80.0099C593.4969,-71.1567 599.9197,-60.3217 605.8297,-50.3517"/>
<polygon fill="#000000" stroke="#000000" points="608.9762,-51.9075 611.0647,-41.5205 602.9547,-48.338 608.9762,-51.9075"/>
</g>
<!-- 25 -->
<g id="node32" class="node">
<title>25</title>
<polygon fill="#c1b2ff" stroke="#c1b2ff" points="760.5431,-196.6019 686.1519,-196.6019 686.1519,-155.3981 760.5431,-155.3981 760.5431,-196.6019"/>
<text text-anchor="middle" x="723.3475" y="-180.2" font-family="Times,serif" font-size="14.00" fill="#000000">leaf node &#160;</text>
<text text-anchor="middle" x="723.3475" y="-163.4" font-family="Times,serif" font-size="14.00" fill="#000000">size = &#160;12 </text>
</g>
<!-- 18&#45;&gt;25 -->
<g id="edge31" class="edge">
<title>18&#45;&gt;25</title>
<path fill="none" stroke="#000000" d="M727.1626,-235.2099C726.6154,-226.7181 725.9508,-216.4029 725.3305,-206.7766"/>
<polygon fill="#000000" stroke="#000000" points="728.8184,-206.4747 724.6826,-196.7205 721.8329,-206.9249 728.8184,-206.4747"/>
</g>
<!-- 26 -->
<g id="node33" class="node">
<title>26</title>
<polygon fill="none" stroke="#000000" points="872.3471,-194 778.3479,-194 778.3479,-158 872.3471,-158 872.3471,-194"/>
<text text-anchor="middle" x="825.3475" y="-171.8" font-family="Times,serif" font-size="14.00" fill="#000000"> tentado &lt;= 0 </text>
</g>
<!-- 18&#45;&gt;26 -->
<g id="edge32" class="edge">
<title>18&#45;&gt;26</title>
<path fill="none" stroke="#000000" d="M751.3351,-235.2099C764.2609,-224.8693 780.5664,-211.8249 794.5809,-200.6133"/>
<polygon fill="#000000" stroke="#000000" points="796.9026,-203.2381 802.5249,-194.2581 792.5297,-197.7721 796.9026,-203.2381"/>
</g>
<!-- 33 -->
<g id="node34" class="node">
<title>33</title>
<polygon fill="#c1b2ff" stroke="#c1b2ff" points="844.5431,-119.0019 770.1519,-119.0019 770.1519,-77.7981 844.5431,-77.7981 844.5431,-119.0019"/>
<text text-anchor="middle" x="807.3475" y="-102.6" font-family="Times,serif" font-size="14.00" fill="#000000">leaf node &#160;</text>
<text text-anchor="middle" x="807.3475" y="-85.8" font-family="Times,serif" font-size="14.00" fill="#000000">size = &#160;11 </text>
</g>
<!-- 26&#45;&gt;33 -->
<g id="edge33" class="edge">
<title>26&#45;&gt;33</title>
<path fill="none" stroke="#000000" d="M821.0818,-157.6099C819.091,-149.0277 816.6683,-138.5832 814.4152,-128.8697"/>
<polygon fill="#000000" stroke="#000000" points="817.823,-128.071 812.1538,-119.1205 811.004,-129.6528 817.823,-128.071"/>
</g>
<!-- 34 -->
<g id="node35" class="node">
<title>34</title>
<polygon fill="#c1b2ff" stroke="#c1b2ff" points="937.5431,-119.0019 863.1519,-119.0019 863.1519,-77.7981 937.5431,-77.7981 937.5431,-119.0019"/>
<text text-anchor="middle" x="900.3475" y="-102.6" font-family="Times,serif" font-size="14.00" fill="#000000">leaf node &#160;</text>
<text text-anchor="middle" x="900.3475" y="-85.8" font-family="Times,serif" font-size="14.00" fill="#000000">size = &#160;24 </text>
</g>
<!-- 26&#45;&gt;34 -->
<g id="edge34" class="edge">
<title>26&#45;&gt;34</title>
<path fill="none" stroke="#000000" d="M843.1215,-157.6099C852.1146,-148.305 863.2236,-136.8109 873.2539,-126.4328"/>
<polygon fill="#000000" stroke="#000000" points="875.8883,-128.7434 880.3212,-119.1205 870.8549,-123.8787 875.8883,-128.7434"/>
</g>
<!-- 13 -->
<g id="node38" class="node">
<title>13</title>
<polygon fill="#c1b2ff" stroke="#c1b2ff" points="843.5431,-351.8019 769.1519,-351.8019 769.1519,-310.5981 843.5431,-310.5981 843.5431,-351.8019"/>
<text text-anchor="middle" x="806.3475" y="-335.4" font-family="Times,serif" font-size="14.00" fill="#000000">leaf node &#160;</text>
<text text-anchor="middle" x="806.3475" y="-318.6" font-family="Times,serif" font-size="14.00" fill="#000000">size = &#160;18 </text>
</g>
<!-- 10&#45;&gt;13 -->
<g id="edge37" class="edge">
<title>10&#45;&gt;13</title>
<path fill="none" stroke="#000000" d="M824.6598,-390.4099C822.0056,-381.8277 818.7753,-371.3832 815.7711,-361.6697"/>
<polygon fill="#000000" stroke="#000000" points="819.0544,-360.4399 812.7559,-351.9205 812.3669,-362.5082 819.0544,-360.4399"/>
</g>
<!-- 14 -->
<g id="node39" class="node">
<title>14</title>
<polygon fill="none" stroke="#000000" points="947.5662,-349.2 861.1288,-349.2 861.1288,-313.2 947.5662,-313.2 947.5662,-349.2"/>
<text text-anchor="middle" x="904.3475" y="-327" font-family="Times,serif" font-size="14.00" fill="#000000"> edad &lt;= 50 </text>
</g>
<!-- 10&#45;&gt;14 -->
<g id="edge38" class="edge">
<title>10&#45;&gt;14</title>
<path fill="none" stroke="#000000" d="M847.8845,-390.4099C857.4689,-380.3592 869.4891,-367.7542 879.9728,-356.7605"/>
<polygon fill="#000000" stroke="#000000" points="882.5681,-359.1105 886.9364,-349.4581 877.5022,-354.2796 882.5681,-359.1105"/>
</g>
<!-- 19 -->
<g id="node40" class="node">
<title>19</title>
<polygon fill="#c1b2ff" stroke="#c1b2ff" points="917.5431,-274.2019 843.1519,-274.2019 843.1519,-232.9981 917.5431,-232.9981 917.5431,-274.2019"/>
<text text-anchor="middle" x="880.3475" y="-257.8" font-family="Times,serif" font-size="14.00" fill="#000000">leaf node &#160;</text>
<text text-anchor="middle" x="880.3475" y="-241" font-family="Times,serif" font-size="14.00" fill="#000000">size = &#160;20 </text>
</g>
<!-- 14&#45;&gt;19 -->
<g id="edge39" class="edge">
<title>14&#45;&gt;19</title>
<path fill="none" stroke="#000000" d="M898.6598,-312.8099C896.0056,-304.2277 892.7753,-293.7832 889.7711,-284.0697"/>
<polygon fill="#000000" stroke="#000000" points="893.0544,-282.8399 886.7559,-274.3205 886.3669,-284.9082 893.0544,-282.8399"/>
</g>
<!-- 20 -->
<g id="node41" class="node">
<title>20</title>
<polygon fill="#c1b2ff" stroke="#c1b2ff" points="1010.5431,-274.2019 936.1519,-274.2019 936.1519,-232.9981 1010.5431,-232.9981 1010.5431,-274.2019"/>
<text text-anchor="middle" x="973.3475" y="-257.8" font-family="Times,serif" font-size="14.00" fill="#000000">leaf node &#160;</text>
<text text-anchor="middle" x="973.3475" y="-241" font-family="Times,serif" font-size="14.00" fill="#000000">size = &#160;23 </text>
</g>
<!-- 14&#45;&gt;20 -->
<g id="edge40" class="edge">
<title>14&#45;&gt;20</title>
<path fill="none" stroke="#000000" d="M920.6995,-312.8099C928.8929,-303.5954 938.9952,-292.2339 948.1524,-281.9354"/>
<polygon fill="#000000" stroke="#000000" points="950.894,-284.1193 954.9233,-274.3205 945.6629,-279.4679 950.894,-284.1193"/>
</g>
</g>
</svg>
