<?xml version="1.0" encoding="UTF-8" standalone="no"?>
<!DOCTYPE svg PUBLIC "-//W3C//DTD SVG 1.1//EN"
 "http://www.w3.org/Graphics/SVG/1.1/DTD/svg11.dtd">
<!-- Generated by graphviz version 2.40.1 (20161225.0304)
 -->
<!-- Title: nodes Pages: 1 -->
<svg width="1114pt" height="659pt"
 viewBox="0.00 0.00 1113.69 659.20" xmlns="http://www.w3.org/2000/svg" xmlns:xlink="http://www.w3.org/1999/xlink">
<g id="graph0" class="graph" transform="scale(1 1) rotate(0) translate(4 655.2)">
<title>nodes</title>
<polygon fill="#ffffff" stroke="transparent" points="-4,4 -4,-655.2 1109.695,-655.2 1109.695,4 -4,4"/>
<!-- 0 -->
<g id="node1" class="node">
<title>0</title>
<polygon fill="none" stroke="#000000" points="959.5773,-651.2 831.1177,-651.2 831.1177,-615.2 959.5773,-615.2 959.5773,-651.2"/>
<text text-anchor="middle" x="895.3475" y="-629" font-family="Times,serif" font-size="14.00" fill="#000000"> dummy_suc2 &lt;= 0 </text>
</g>
<!-- 1 -->
<g id="node2" class="node">
<title>1</title>
<polygon fill="none" stroke="#000000" points="881.5662,-579.2 795.1288,-579.2 795.1288,-543.2 881.5662,-543.2 881.5662,-579.2"/>
<text text-anchor="middle" x="838.3475" y="-557" font-family="Times,serif" font-size="14.00" fill="#000000"> edad &lt;= 63 </text>
</g>
<!-- 0&#45;&gt;1 -->
<g id="edge1" class="edge">
<title>0&#45;&gt;1</title>
<path fill="none" stroke="#000000" d="M880.964,-615.0314C874.3989,-606.7386 866.4968,-596.757 859.2897,-587.6533"/>
<polygon fill="#000000" stroke="#000000" points="861.8759,-585.2813 852.9247,-579.6133 856.3876,-589.6262 861.8759,-585.2813"/>
<text text-anchor="middle" x="850.0371" y="-600.246" font-family="Times,serif" font-size="14.00" fill="#000000">True</text>
</g>
<!-- 2 -->
<g id="node3" class="node">
<title>2</title>
<polygon fill="none" stroke="#000000" points="993.0662,-579.2 913.6288,-579.2 913.6288,-543.2 993.0662,-543.2 993.0662,-579.2"/>
<text text-anchor="middle" x="953.3475" y="-557" font-family="Times,serif" font-size="14.00" fill="#000000"> agua &lt;= 0 </text>
</g>
<!-- 0&#45;&gt;2 -->
<g id="edge2" class="edge">
<title>0&#45;&gt;2</title>
<path fill="none" stroke="#000000" d="M909.9833,-615.0314C916.6636,-606.7386 924.7043,-596.757 932.0379,-587.6533"/>
<polygon fill="#000000" stroke="#000000" points="934.9669,-589.5965 938.5146,-579.6133 929.5156,-585.2052 934.9669,-589.5965"/>
<text text-anchor="middle" x="941.1914" y="-600.2695" font-family="Times,serif" font-size="14.00" fill="#000000">False</text>
</g>
<!-- 3 -->
<g id="node4" class="node">
<title>3</title>
<polygon fill="none" stroke="#000000" points="783.5662,-504.4 697.1288,-504.4 697.1288,-468.4 783.5662,-468.4 783.5662,-504.4"/>
<text text-anchor="middle" x="740.3475" y="-482.2" font-family="Times,serif" font-size="14.00" fill="#000000"> edad &lt;= 42 </text>
</g>
<!-- 1&#45;&gt;3 -->
<g id="edge3" class="edge">
<title>1&#45;&gt;3</title>
<path fill="none" stroke="#000000" d="M814.6244,-543.093C801.9585,-533.4255 786.1896,-521.3897 772.4435,-510.8977"/>
<polygon fill="#000000" stroke="#000000" points="774.2644,-507.8846 764.1918,-504.5995 770.0173,-513.449 774.2644,-507.8846"/>
</g>
<!-- 4 -->
<g id="node5" class="node">
<title>4</title>
<polygon fill="#c1b2ff" stroke="#c1b2ff" points="875.5431,-507.0019 801.1519,-507.0019 801.1519,-465.7981 875.5431,-465.7981 875.5431,-507.0019"/>
<text text-anchor="middle" x="838.3475" y="-490.6" font-family="Times,serif" font-size="14.00" fill="#000000">leaf node &#160;</text>
<text text-anchor="middle" x="838.3475" y="-473.8" font-family="Times,serif" font-size="14.00" fill="#000000">size = &#160;25 </text>
</g>
<!-- 1&#45;&gt;4 -->
<g id="edge4" class="edge">
<title>1&#45;&gt;4</title>
<path fill="none" stroke="#000000" d="M838.3475,-543.093C838.3475,-535.4083 838.3475,-526.2272 838.3475,-517.5145"/>
<polygon fill="#000000" stroke="#000000" points="841.8476,-517.2515 838.3475,-507.2515 834.8476,-517.2515 841.8476,-517.2515"/>
</g>
<!-- 5 -->
<g id="node36" class="node">
<title>5</title>
<polygon fill="none" stroke="#000000" points="1013.0082,-504.4 893.6868,-504.4 893.6868,-468.4 1013.0082,-468.4 1013.0082,-504.4"/>
<text text-anchor="middle" x="953.3475" y="-482.2" font-family="Times,serif" font-size="14.00" fill="#000000"> fam_comun &lt;= 0 </text>
</g>
<!-- 2&#45;&gt;5 -->
<g id="edge35" class="edge">
<title>2&#45;&gt;5</title>
<path fill="none" stroke="#000000" d="M953.3475,-543.093C953.3475,-534.6112 953.3475,-524.3062 953.3475,-514.8204"/>
<polygon fill="#000000" stroke="#000000" points="956.8476,-514.5995 953.3475,-504.5995 949.8476,-514.5995 956.8476,-514.5995"/>
</g>
<!-- 6 -->
<g id="node37" class="node">
<title>6</title>
<polygon fill="#c1b2ff" stroke="#c1b2ff" points="1105.5431,-507.0019 1031.1519,-507.0019 1031.1519,-465.7981 1105.5431,-465.7981 1105.5431,-507.0019"/>
<text text-anchor="middle" x="1068.3475" y="-490.6" font-family="Times,serif" font-size="14.00" fill="#000000">leaf node &#160;</text>
<text text-anchor="middle" x="1068.3475" y="-473.8" font-family="Times,serif" font-size="14.00" fill="#000000">size = &#160;9 </text>
</g>
<!-- 2&#45;&gt;6 -->
<g id="edge36" class="edge">
<title>2&#45;&gt;6</title>
<path fill="none" stroke="#000000" d="M981.1858,-543.093C995.0778,-534.0572 1012.1507,-522.9524 1027.4933,-512.973"/>
<polygon fill="#000000" stroke="#000000" points="1029.8153,-515.638 1036.2897,-507.2515 1025.9986,-509.77 1029.8153,-515.638"/>
</g>
<!-- 7 -->
<g id="node6" class="node">
<title>7</title>
<polygon fill="none" stroke="#000000" points="593.0082,-426.8 487.6868,-426.8 487.6868,-390.8 593.0082,-390.8 593.0082,-426.8"/>
<text text-anchor="middle" x="540.3475" y="-404.6" font-family="Times,serif" font-size="14.00" fill="#000000"> fam_pide &lt;= 0 </text>
</g>
<!-- 3&#45;&gt;7 -->
<g id="edge5" class="edge">
<title>3&#45;&gt;7</title>
<path fill="none" stroke="#000000" d="M696.9505,-469.562C667.4858,-458.1297 628.2455,-442.9044 596.4163,-430.5547"/>
<polygon fill="#000000" stroke="#000000" points="597.3841,-427.176 586.7952,-426.8217 594.852,-433.702 597.3841,-427.176"/>
</g>
<!-- 8 -->
<g id="node7" class="node">
<title>8</title>
<polygon fill="none" stroke="#000000" points="826.9523,-426.8 701.7427,-426.8 701.7427,-390.8 826.9523,-390.8 826.9523,-426.8"/>
<text text-anchor="middle" x="764.3475" y="-404.6" font-family="Times,serif" font-size="14.00" fill="#000000"> prestamo &lt;= 3390 </text>
</g>
<!-- 3&#45;&gt;8 -->
<g id="edge6" class="edge">
<title>3&#45;&gt;8</title>
<path fill="none" stroke="#000000" d="M746.0352,-468.0099C748.9045,-458.7323 752.447,-447.2783 755.6493,-436.9242"/>
<polygon fill="#000000" stroke="#000000" points="759.0896,-437.6458 758.7007,-427.0581 752.4022,-435.5775 759.0896,-437.6458"/>
</g>
<!-- 11 -->
<g id="node8" class="node">
<title>11</title>
<polygon fill="none" stroke="#000000" points="418.0249,-349.2 284.6701,-349.2 284.6701,-313.2 418.0249,-313.2 418.0249,-349.2"/>
<text text-anchor="middle" x="351.3475" y="-327" font-family="Times,serif" font-size="14.00" fill="#000000"> dummy_dow2 &lt;= 0 </text>
</g>
<!-- 7&#45;&gt;11 -->
<g id="edge7" class="edge">
<title>7&#45;&gt;11</title>
<path fill="none" stroke="#000000" d="M496.0354,-390.6062C468.7843,-379.4174 433.689,-365.0079 404.8877,-353.1826"/>
<polygon fill="#000000" stroke="#000000" points="405.962,-349.8402 395.382,-349.2798 403.3032,-356.3157 405.962,-349.8402"/>
</g>
<!-- 12 -->
<g id="node9" class="node">
<title>12</title>
<polygon fill="none" stroke="#000000" points="593.0208,-349.2 487.6742,-349.2 487.6742,-313.2 593.0208,-313.2 593.0208,-349.2"/>
<text text-anchor="middle" x="540.3475" y="-327" font-family="Times,serif" font-size="14.00" fill="#000000"> low_time &lt;= 0 </text>
</g>
<!-- 7&#45;&gt;12 -->
<g id="edge8" class="edge">
<title>7&#45;&gt;12</title>
<path fill="none" stroke="#000000" d="M540.3475,-390.4099C540.3475,-381.229 540.3475,-369.9167 540.3475,-359.6482"/>
<polygon fill="#000000" stroke="#000000" points="543.8476,-359.4581 540.3475,-349.4581 536.8476,-359.4581 543.8476,-359.4581"/>
</g>
<!-- 13 -->
<g id="node26" class="node">
<title>13</title>
<polygon fill="none" stroke="#000000" points="828.5773,-349.2 700.1177,-349.2 700.1177,-313.2 828.5773,-313.2 828.5773,-349.2"/>
<text text-anchor="middle" x="764.3475" y="-327" font-family="Times,serif" font-size="14.00" fill="#000000"> dummy_suc3 &lt;= 0 </text>
</g>
<!-- 8&#45;&gt;13 -->
<g id="edge25" class="edge">
<title>8&#45;&gt;13</title>
<path fill="none" stroke="#000000" d="M764.3475,-390.4099C764.3475,-381.229 764.3475,-369.9167 764.3475,-359.6482"/>
<polygon fill="#000000" stroke="#000000" points="767.8476,-359.4581 764.3475,-349.4581 760.8476,-359.4581 767.8476,-359.4581"/>
</g>
<!-- 14 -->
<g id="node27" class="node">
<title>14</title>
<polygon fill="#c1b2ff" stroke="#c1b2ff" points="920.5431,-351.8019 846.1519,-351.8019 846.1519,-310.5981 920.5431,-310.5981 920.5431,-351.8019"/>
<text text-anchor="middle" x="883.3475" y="-335.4" font-family="Times,serif" font-size="14.00" fill="#000000">leaf node &#160;</text>
<text text-anchor="middle" x="883.3475" y="-318.6" font-family="Times,serif" font-size="14.00" fill="#000000">size = &#160;18 </text>
</g>
<!-- 8&#45;&gt;14 -->
<g id="edge26" class="edge">
<title>8&#45;&gt;14</title>
<path fill="none" stroke="#000000" d="M792.2477,-390.6062C807.3406,-380.7641 826.2551,-368.43 842.9323,-357.5548"/>
<polygon fill="#000000" stroke="#000000" points="844.9527,-360.4157 851.4173,-352.0217 841.1291,-354.5522 844.9527,-360.4157"/>
</g>
<!-- 15 -->
<g id="node10" class="node">
<title>15</title>
<polygon fill="none" stroke="#000000" points="296.0208,-271.6 190.6742,-271.6 190.6742,-235.6 296.0208,-235.6 296.0208,-271.6"/>
<text text-anchor="middle" x="243.3475" y="-249.4" font-family="Times,serif" font-size="14.00" fill="#000000"> low_time &lt;= 0 </text>
</g>
<!-- 11&#45;&gt;15 -->
<g id="edge9" class="edge">
<title>11&#45;&gt;15</title>
<path fill="none" stroke="#000000" d="M326.0263,-313.0062C311.4021,-302.4985 292.8246,-289.1502 276.9854,-277.7694"/>
<polygon fill="#000000" stroke="#000000" points="278.6734,-274.6726 268.5101,-271.6798 274.5888,-280.3573 278.6734,-274.6726"/>
</g>
<!-- 16 -->
<g id="node11" class="node">
<title>16</title>
<polygon fill="#c1b2ff" stroke="#c1b2ff" points="388.5431,-274.2019 314.1519,-274.2019 314.1519,-232.9981 388.5431,-232.9981 388.5431,-274.2019"/>
<text text-anchor="middle" x="351.3475" y="-257.8" font-family="Times,serif" font-size="14.00" fill="#000000">leaf node &#160;</text>
<text text-anchor="middle" x="351.3475" y="-241" font-family="Times,serif" font-size="14.00" fill="#000000">size = &#160;9 </text>
</g>
<!-- 11&#45;&gt;16 -->
<g id="edge10" class="edge">
<title>11&#45;&gt;16</title>
<path fill="none" stroke="#000000" d="M351.3475,-312.8099C351.3475,-304.3181 351.3475,-294.0029 351.3475,-284.3766"/>
<polygon fill="#000000" stroke="#000000" points="354.8476,-284.3205 351.3475,-274.3205 347.8476,-284.3205 354.8476,-284.3205"/>
</g>
<!-- 17 -->
<g id="node20" class="node">
<title>17</title>
<polygon fill="none" stroke="#000000" points="531.9523,-271.6 406.7427,-271.6 406.7427,-235.6 531.9523,-235.6 531.9523,-271.6"/>
<text text-anchor="middle" x="469.3475" y="-249.4" font-family="Times,serif" font-size="14.00" fill="#000000"> prestamo &lt;= 1320 </text>
</g>
<!-- 12&#45;&gt;17 -->
<g id="edge19" class="edge">
<title>12&#45;&gt;17</title>
<path fill="none" stroke="#000000" d="M523.5215,-312.8099C514.4141,-302.8558 503.0143,-290.3964 493.0246,-279.4781"/>
<polygon fill="#000000" stroke="#000000" points="495.3854,-276.8734 486.0527,-271.8581 490.2209,-281.5986 495.3854,-276.8734"/>
</g>
<!-- 18 -->
<g id="node21" class="node">
<title>18</title>
<polygon fill="none" stroke="#000000" points="632.9524,-271.6 549.7426,-271.6 549.7426,-235.6 632.9524,-235.6 632.9524,-271.6"/>
<text text-anchor="middle" x="591.3475" y="-249.4" font-family="Times,serif" font-size="14.00" fill="#000000"> faltas &lt;= 0 </text>
</g>
<!-- 12&#45;&gt;18 -->
<g id="edge20" class="edge">
<title>12&#45;&gt;18</title>
<path fill="none" stroke="#000000" d="M552.4338,-312.8099C558.7852,-303.1458 566.6887,-291.1201 573.7105,-280.4359"/>
<polygon fill="#000000" stroke="#000000" points="576.7806,-282.1372 579.348,-271.8581 570.9308,-278.2926 576.7806,-282.1372"/>
</g>
<!-- 21 -->
<g id="node12" class="node">
<title>21</title>
<polygon fill="none" stroke="#000000" points="173.5662,-194 87.1288,-194 87.1288,-158 173.5662,-158 173.5662,-194"/>
<text text-anchor="middle" x="130.3475" y="-171.8" font-family="Times,serif" font-size="14.00" fill="#000000"> edad &lt;= 31 </text>
</g>
<!-- 15&#45;&gt;21 -->
<g id="edge11" class="edge">
<title>15&#45;&gt;21</title>
<path fill="none" stroke="#000000" d="M216.854,-235.4062C201.4111,-224.8012 181.7549,-211.3028 165.0831,-199.8538"/>
<polygon fill="#000000" stroke="#000000" points="166.8998,-196.8556 156.675,-194.0798 162.9371,-202.626 166.8998,-196.8556"/>
</g>
<!-- 22 -->
<g id="node13" class="node">
<title>22</title>
<polygon fill="none" stroke="#000000" points="304.5662,-194 218.1288,-194 218.1288,-158 304.5662,-158 304.5662,-194"/>
<text text-anchor="middle" x="261.3475" y="-171.8" font-family="Times,serif" font-size="14.00" fill="#000000"> edad &lt;= 33 </text>
</g>
<!-- 15&#45;&gt;22 -->
<g id="edge12" class="edge">
<title>15&#45;&gt;22</title>
<path fill="none" stroke="#000000" d="M247.6132,-235.2099C249.7653,-225.9323 252.4221,-214.4783 254.8238,-204.1242"/>
<polygon fill="#000000" stroke="#000000" points="258.2622,-204.7904 257.1124,-194.2581 251.4432,-203.2086 258.2622,-204.7904"/>
</g>
<!-- 29 -->
<g id="node14" class="node">
<title>29</title>
<polygon fill="#c1b2ff" stroke="#c1b2ff" points="74.5431,-119.0019 .1519,-119.0019 .1519,-77.7981 74.5431,-77.7981 74.5431,-119.0019"/>
<text text-anchor="middle" x="37.3475" y="-102.6" font-family="Times,serif" font-size="14.00" fill="#000000">leaf node &#160;</text>
<text text-anchor="middle" x="37.3475" y="-85.8" font-family="Times,serif" font-size="14.00" fill="#000000">size = &#160;13 </text>
</g>
<!-- 21&#45;&gt;29 -->
<g id="edge13" class="edge">
<title>21&#45;&gt;29</title>
<path fill="none" stroke="#000000" d="M108.3078,-157.6099C96.8316,-148.034 82.5765,-136.1395 69.8603,-125.5289"/>
<polygon fill="#000000" stroke="#000000" points="72.1006,-122.8399 62.1801,-119.1205 67.6159,-128.2146 72.1006,-122.8399"/>
</g>
<!-- 30 -->
<g id="node15" class="node">
<title>30</title>
<polygon fill="#c1b2ff" stroke="#c1b2ff" points="167.5431,-119.0019 93.1519,-119.0019 93.1519,-77.7981 167.5431,-77.7981 167.5431,-119.0019"/>
<text text-anchor="middle" x="130.3475" y="-102.6" font-family="Times,serif" font-size="14.00" fill="#000000">leaf node &#160;</text>
<text text-anchor="middle" x="130.3475" y="-85.8" font-family="Times,serif" font-size="14.00" fill="#000000">size = &#160;31 </text>
</g>
<!-- 21&#45;&gt;30 -->
<g id="edge14" class="edge">
<title>21&#45;&gt;30</title>
<path fill="none" stroke="#000000" d="M130.3475,-157.6099C130.3475,-149.1181 130.3475,-138.8029 130.3475,-129.1766"/>
<polygon fill="#000000" stroke="#000000" points="133.8476,-129.1205 130.3475,-119.1205 126.8476,-129.1205 133.8476,-129.1205"/>
</g>
<!-- 31 -->
<g id="node16" class="node">
<title>31</title>
<polygon fill="none" stroke="#000000" points="337.6504,-116.4 185.0446,-116.4 185.0446,-80.4 337.6504,-80.4 337.6504,-116.4"/>
<text text-anchor="middle" x="261.3475" y="-94.2" font-family="Times,serif" font-size="14.00" fill="#000000"> hace_presupuesto &lt;= 0 </text>
</g>
<!-- 22&#45;&gt;31 -->
<g id="edge15" class="edge">
<title>22&#45;&gt;31</title>
<path fill="none" stroke="#000000" d="M261.3475,-157.6099C261.3475,-148.429 261.3475,-137.1167 261.3475,-126.8482"/>
<polygon fill="#000000" stroke="#000000" points="264.8476,-126.6581 261.3475,-116.6581 257.8476,-126.6581 264.8476,-126.6581"/>
</g>
<!-- 32 -->
<g id="node17" class="node">
<title>32</title>
<polygon fill="#c1b2ff" stroke="#c1b2ff" points="429.5431,-119.0019 355.1519,-119.0019 355.1519,-77.7981 429.5431,-77.7981 429.5431,-119.0019"/>
<text text-anchor="middle" x="392.3475" y="-102.6" font-family="Times,serif" font-size="14.00" fill="#000000">leaf node &#160;</text>
<text text-anchor="middle" x="392.3475" y="-85.8" font-family="Times,serif" font-size="14.00" fill="#000000">size = &#160;14 </text>
</g>
<!-- 22&#45;&gt;32 -->
<g id="edge16" class="edge">
<title>22&#45;&gt;32</title>
<path fill="none" stroke="#000000" d="M292.0612,-157.8062C308.8285,-147.8738 329.8803,-135.4035 348.3615,-124.4559"/>
<polygon fill="#000000" stroke="#000000" points="350.3775,-127.3296 357.1975,-119.2217 346.8099,-121.307 350.3775,-127.3296"/>
</g>
<!-- 35 -->
<g id="node18" class="node">
<title>35</title>
<polygon fill="#c1b2ff" stroke="#c1b2ff" points="251.5431,-41.4019 177.1519,-41.4019 177.1519,-.1981 251.5431,-.1981 251.5431,-41.4019"/>
<text text-anchor="middle" x="214.3475" y="-25" font-family="Times,serif" font-size="14.00" fill="#000000">leaf node &#160;</text>
<text text-anchor="middle" x="214.3475" y="-8.2" font-family="Times,serif" font-size="14.00" fill="#000000">size = &#160;9 </text>
</g>
<!-- 31&#45;&gt;35 -->
<g id="edge17" class="edge">
<title>31&#45;&gt;35</title>
<path fill="none" stroke="#000000" d="M250.2092,-80.0099C244.8471,-71.1567 238.2846,-60.3217 232.2461,-50.3517"/>
<polygon fill="#000000" stroke="#000000" points="235.0716,-48.2608 226.8973,-41.5205 229.0842,-51.8872 235.0716,-48.2608"/>
</g>
<!-- 36 -->
<g id="node19" class="node">
<title>36</title>
<polygon fill="#c1b2ff" stroke="#c1b2ff" points="344.5431,-41.4019 270.1519,-41.4019 270.1519,-.1981 344.5431,-.1981 344.5431,-41.4019"/>
<text text-anchor="middle" x="307.3475" y="-25" font-family="Times,serif" font-size="14.00" fill="#000000">leaf node &#160;</text>
<text text-anchor="middle" x="307.3475" y="-8.2" font-family="Times,serif" font-size="14.00" fill="#000000">size = &#160;4 </text>
</g>
<!-- 31&#45;&gt;36 -->
<g id="edge18" class="edge">
<title>31&#45;&gt;36</title>
<path fill="none" stroke="#000000" d="M272.2489,-80.0099C277.4969,-71.1567 283.9197,-60.3217 289.8297,-50.3517"/>
<polygon fill="#000000" stroke="#000000" points="292.9762,-51.9075 295.0647,-41.5205 286.9547,-48.338 292.9762,-51.9075"/>
</g>
<!-- 23 -->
<g id="node22" class="node">
<title>23</title>
<polygon fill="#c1b2ff" stroke="#c1b2ff" points="413.5431,-196.6019 339.1519,-196.6019 339.1519,-155.3981 413.5431,-155.3981 413.5431,-196.6019"/>
<text text-anchor="middle" x="376.3475" y="-180.2" font-family="Times,serif" font-size="14.00" fill="#000000">leaf node &#160;</text>
<text text-anchor="middle" x="376.3475" y="-163.4" font-family="Times,serif" font-size="14.00" fill="#000000">size = &#160;17 </text>
</g>
<!-- 17&#45;&gt;23 -->
<g id="edge21" class="edge">
<title>17&#45;&gt;23</title>
<path fill="none" stroke="#000000" d="M447.3078,-235.2099C435.8316,-225.634 421.5765,-213.7395 408.8603,-203.1289"/>
<polygon fill="#000000" stroke="#000000" points="411.1006,-200.4399 401.1801,-196.7205 406.6159,-205.8146 411.1006,-200.4399"/>
</g>
<!-- 24 -->
<g id="node23" class="node">
<title>24</title>
<polygon fill="#c1b2ff" stroke="#c1b2ff" points="506.5431,-196.6019 432.1519,-196.6019 432.1519,-155.3981 506.5431,-155.3981 506.5431,-196.6019"/>
<text text-anchor="middle" x="469.3475" y="-180.2" font-family="Times,serif" font-size="14.00" fill="#000000">leaf node &#160;</text>
<text text-anchor="middle" x="469.3475" y="-163.4" font-family="Times,serif" font-size="14.00" fill="#000000">size = &#160;9 </text>
</g>
<!-- 17&#45;&gt;24 -->
<g id="edge22" class="edge">
<title>17&#45;&gt;24</title>
<path fill="none" stroke="#000000" d="M469.3475,-235.2099C469.3475,-226.7181 469.3475,-216.4029 469.3475,-206.7766"/>
<polygon fill="#000000" stroke="#000000" points="472.8476,-206.7205 469.3475,-196.7205 465.8476,-206.7205 472.8476,-206.7205"/>
</g>
<!-- 25 -->
<g id="node24" class="node">
<title>25</title>
<polygon fill="#c1b2ff" stroke="#c1b2ff" points="599.5431,-196.6019 525.1519,-196.6019 525.1519,-155.3981 599.5431,-155.3981 599.5431,-196.6019"/>
<text text-anchor="middle" x="562.3475" y="-180.2" font-family="Times,serif" font-size="14.00" fill="#000000">leaf node &#160;</text>
<text text-anchor="middle" x="562.3475" y="-163.4" font-family="Times,serif" font-size="14.00" fill="#000000">size = &#160;10 </text>
</g>
<!-- 18&#45;&gt;25 -->
<g id="edge23" class="edge">
<title>18&#45;&gt;25</title>
<path fill="none" stroke="#000000" d="M584.4749,-235.2099C581.2339,-226.5374 577.2822,-215.9631 573.6198,-206.1632"/>
<polygon fill="#000000" stroke="#000000" points="576.8702,-204.8625 570.091,-196.7205 570.3132,-207.313 576.8702,-204.8625"/>
</g>
<!-- 26 -->
<g id="node25" class="node">
<title>26</title>
<polygon fill="#c1b2ff" stroke="#c1b2ff" points="692.5431,-196.6019 618.1519,-196.6019 618.1519,-155.3981 692.5431,-155.3981 692.5431,-196.6019"/>
<text text-anchor="middle" x="655.3475" y="-180.2" font-family="Times,serif" font-size="14.00" fill="#000000">leaf node &#160;</text>
<text text-anchor="middle" x="655.3475" y="-163.4" font-family="Times,serif" font-size="14.00" fill="#000000">size = &#160;12 </text>
</g>
<!-- 18&#45;&gt;26 -->
<g id="edge24" class="edge">
<title>18&#45;&gt;26</title>
<path fill="none" stroke="#000000" d="M606.5146,-235.2099C614.0397,-226.0857 623.301,-214.8564 631.728,-204.6386"/>
<polygon fill="#000000" stroke="#000000" points="634.5959,-206.6622 638.2584,-196.7205 629.1956,-202.2083 634.5959,-206.6622"/>
</g>
<!-- 19 -->
<g id="node28" class="node">
<title>19</title>
<polygon fill="none" stroke="#000000" points="807.5662,-271.6 721.1288,-271.6 721.1288,-235.6 807.5662,-235.6 807.5662,-271.6"/>
<text text-anchor="middle" x="764.3475" y="-249.4" font-family="Times,serif" font-size="14.00" fill="#000000"> edad &lt;= 56 </text>
</g>
<!-- 13&#45;&gt;19 -->
<g id="edge27" class="edge">
<title>13&#45;&gt;19</title>
<path fill="none" stroke="#000000" d="M764.3475,-312.8099C764.3475,-303.629 764.3475,-292.3167 764.3475,-282.0482"/>
<polygon fill="#000000" stroke="#000000" points="767.8476,-281.8581 764.3475,-271.8581 760.8476,-281.8581 767.8476,-281.8581"/>
</g>
<!-- 20 -->
<g id="node29" class="node">
<title>20</title>
<polygon fill="#c1b2ff" stroke="#c1b2ff" points="899.5431,-274.2019 825.1519,-274.2019 825.1519,-232.9981 899.5431,-232.9981 899.5431,-274.2019"/>
<text text-anchor="middle" x="862.3475" y="-257.8" font-family="Times,serif" font-size="14.00" fill="#000000">leaf node &#160;</text>
<text text-anchor="middle" x="862.3475" y="-241" font-family="Times,serif" font-size="14.00" fill="#000000">size = &#160;18 </text>
</g>
<!-- 13&#45;&gt;20 -->
<g id="edge28" class="edge">
<title>13&#45;&gt;20</title>
<path fill="none" stroke="#000000" d="M787.5721,-312.8099C799.6654,-303.234 814.6868,-291.3395 828.0867,-280.7289"/>
<polygon fill="#000000" stroke="#000000" points="830.5128,-283.2723 836.1799,-274.3205 826.1673,-277.7844 830.5128,-283.2723"/>
</g>
<!-- 27 -->
<g id="node30" class="node">
<title>27</title>
<polygon fill="none" stroke="#000000" points="817.7772,-194 710.9178,-194 710.9178,-158 817.7772,-158 817.7772,-194"/>
<text text-anchor="middle" x="764.3475" y="-171.8" font-family="Times,serif" font-size="14.00" fill="#000000"> cta_tanda &lt;= 0 </text>
</g>
<!-- 19&#45;&gt;27 -->
<g id="edge29" class="edge">
<title>19&#45;&gt;27</title>
<path fill="none" stroke="#000000" d="M764.3475,-235.2099C764.3475,-226.029 764.3475,-214.7167 764.3475,-204.4482"/>
<polygon fill="#000000" stroke="#000000" points="767.8476,-204.2581 764.3475,-194.2581 760.8476,-204.2581 767.8476,-204.2581"/>
</g>
<!-- 28 -->
<g id="node31" class="node">
<title>28</title>
<polygon fill="#c1b2ff" stroke="#c1b2ff" points="910.5431,-196.6019 836.1519,-196.6019 836.1519,-155.3981 910.5431,-155.3981 910.5431,-196.6019"/>
<text text-anchor="middle" x="873.3475" y="-180.2" font-family="Times,serif" font-size="14.00" fill="#000000">leaf node &#160;</text>
<text text-anchor="middle" x="873.3475" y="-163.4" font-family="Times,serif" font-size="14.00" fill="#000000">size = &#160;22 </text>
</g>
<!-- 19&#45;&gt;28 -->
<g id="edge30" class="edge">
<title>19&#45;&gt;28</title>
<path fill="none" stroke="#000000" d="M789.9032,-235.4062C803.6009,-225.6544 820.7352,-213.4561 835.9076,-202.6545"/>
<polygon fill="#000000" stroke="#000000" points="837.984,-205.4726 844.1006,-196.8217 833.9242,-199.7701 837.984,-205.4726"/>
</g>
<!-- 33 -->
<g id="node32" class="node">
<title>33</title>
<polygon fill="none" stroke="#000000" points="756.9524,-116.4 673.7426,-116.4 673.7426,-80.4 756.9524,-80.4 756.9524,-116.4"/>
<text text-anchor="middle" x="715.3475" y="-94.2" font-family="Times,serif" font-size="14.00" fill="#000000"> faltas &lt;= 0 </text>
</g>
<!-- 27&#45;&gt;33 -->
<g id="edge31" class="edge">
<title>27&#45;&gt;33</title>
<path fill="none" stroke="#000000" d="M752.7352,-157.6099C746.6328,-147.9458 739.0393,-135.9201 732.2929,-125.2359"/>
<polygon fill="#000000" stroke="#000000" points="735.175,-123.2448 726.8765,-116.6581 729.2562,-126.9822 735.175,-123.2448"/>
</g>
<!-- 34 -->
<g id="node33" class="node">
<title>34</title>
<polygon fill="#c1b2ff" stroke="#c1b2ff" points="849.5431,-119.0019 775.1519,-119.0019 775.1519,-77.7981 849.5431,-77.7981 849.5431,-119.0019"/>
<text text-anchor="middle" x="812.3475" y="-102.6" font-family="Times,serif" font-size="14.00" fill="#000000">leaf node &#160;</text>
<text text-anchor="middle" x="812.3475" y="-85.8" font-family="Times,serif" font-size="14.00" fill="#000000">size = &#160;31 </text>
</g>
<!-- 27&#45;&gt;34 -->
<g id="edge32" class="edge">
<title>27&#45;&gt;34</title>
<path fill="none" stroke="#000000" d="M775.7228,-157.6099C781.2549,-148.6664 788.038,-137.7003 794.2567,-127.6468"/>
<polygon fill="#000000" stroke="#000000" points="797.2467,-129.4662 799.5307,-119.1205 791.2935,-125.7838 797.2467,-129.4662"/>
</g>
<!-- 37 -->
<g id="node34" class="node">
<title>37</title>
<polygon fill="#c1b2ff" stroke="#c1b2ff" points="705.5431,-41.4019 631.1519,-41.4019 631.1519,-.1981 705.5431,-.1981 705.5431,-41.4019"/>
<text text-anchor="middle" x="668.3475" y="-25" font-family="Times,serif" font-size="14.00" fill="#000000">leaf node &#160;</text>
<text text-anchor="middle" x="668.3475" y="-8.2" font-family="Times,serif" font-size="14.00" fill="#000000">size = &#160;16 </text>
</g>
<!-- 33&#45;&gt;37 -->
<g id="edge33" class="edge">
<title>33&#45;&gt;37</title>
<path fill="none" stroke="#000000" d="M704.2092,-80.0099C698.8471,-71.1567 692.2846,-60.3217 686.2461,-50.3517"/>
<polygon fill="#000000" stroke="#000000" points="689.0716,-48.2608 680.8973,-41.5205 683.0842,-51.8872 689.0716,-48.2608"/>
</g>
<!-- 38 -->
<g id="node35" class="node">
<title>38</title>
<polygon fill="#c1b2ff" stroke="#c1b2ff" points="798.5431,-41.4019 724.1519,-41.4019 724.1519,-.1981 798.5431,-.1981 798.5431,-41.4019"/>
<text text-anchor="middle" x="761.3475" y="-25" font-family="Times,serif" font-size="14.00" fill="#000000">leaf node &#160;</text>
<text text-anchor="middle" x="761.3475" y="-8.2" font-family="Times,serif" font-size="14.00" fill="#000000">size = &#160;10 </text>
</g>
<!-- 33&#45;&gt;38 -->
<g id="edge34" class="edge">
<title>33&#45;&gt;38</title>
<path fill="none" stroke="#000000" d="M726.2489,-80.0099C731.4969,-71.1567 737.9197,-60.3217 743.8297,-50.3517"/>
<polygon fill="#000000" stroke="#000000" points="746.9762,-51.9075 749.0647,-41.5205 740.9547,-48.338 746.9762,-51.9075"/>
</g>
<!-- 9 -->
<g id="node38" class="node">
<title>9</title>
<polygon fill="#c1b2ff" stroke="#c1b2ff" points="966.5431,-429.4019 892.1519,-429.4019 892.1519,-388.1981 966.5431,-388.1981 966.5431,-429.4019"/>
<text text-anchor="middle" x="929.3475" y="-413" font-family="Times,serif" font-size="14.00" fill="#000000">leaf node &#160;</text>
<text text-anchor="middle" x="929.3475" y="-396.2" font-family="Times,serif" font-size="14.00" fill="#000000">size = &#160;24 </text>
</g>
<!-- 5&#45;&gt;9 -->
<g id="edge37" class="edge">
<title>5&#45;&gt;9</title>
<path fill="none" stroke="#000000" d="M947.6598,-468.0099C945.0056,-459.4277 941.7753,-448.9832 938.7711,-439.2697"/>
<polygon fill="#000000" stroke="#000000" points="942.0544,-438.0399 935.7559,-429.5205 935.3669,-440.1082 942.0544,-438.0399"/>
</g>
<!-- 10 -->
<g id="node39" class="node">
<title>10</title>
<polygon fill="#c1b2ff" stroke="#c1b2ff" points="1059.5431,-429.4019 985.1519,-429.4019 985.1519,-388.1981 1059.5431,-388.1981 1059.5431,-429.4019"/>
<text text-anchor="middle" x="1022.3475" y="-413" font-family="Times,serif" font-size="14.00" fill="#000000">leaf node &#160;</text>
<text text-anchor="middle" x="1022.3475" y="-396.2" font-family="Times,serif" font-size="14.00" fill="#000000">size = &#160;15 </text>
</g>
<!-- 5&#45;&gt;10 -->
<g id="edge38" class="edge">
<title>5&#45;&gt;10</title>
<path fill="none" stroke="#000000" d="M969.6995,-468.0099C977.8929,-458.7954 987.9952,-447.4339 997.1524,-437.1354"/>
<polygon fill="#000000" stroke="#000000" points="999.894,-439.3193 1003.9233,-429.5205 994.6629,-434.6679 999.894,-439.3193"/>
</g>
</g>
</svg>
