<?xml version="1.0" encoding="UTF-8" standalone="no"?>
<!DOCTYPE svg PUBLIC "-//W3C//DTD SVG 1.1//EN"
 "http://www.w3.org/Graphics/SVG/1.1/DTD/svg11.dtd">
<!-- Generated by graphviz version 2.40.1 (20161225.0304)
 -->
<!-- Title: nodes Pages: 1 -->
<svg width="1455pt" height="566pt"
 viewBox="0.00 0.00 1455.38 565.60" xmlns="http://www.w3.org/2000/svg" xmlns:xlink="http://www.w3.org/1999/xlink">
<g id="graph0" class="graph" transform="scale(1 1) rotate(0) translate(4 561.6)">
<title>nodes</title>
<polygon fill="#ffffff" stroke="transparent" points="-4,4 -4,-561.6 1451.3764,-561.6 1451.3764,4 -4,4"/>
<!-- 0 -->
<g id="node1" class="node">
<title>0</title>
<polygon fill="none" stroke="#000000" points="856.1569,-557.6 776.7195,-557.6 776.7195,-521.6 856.1569,-521.6 856.1569,-557.6"/>
<text text-anchor="middle" x="816.4382" y="-535.4" font-family="Times,serif" font-size="14.00" fill="#000000"> age &lt;= 42 </text>
</g>
<!-- 1 -->
<g id="node2" class="node">
<title>1</title>
<polygon fill="none" stroke="#000000" points="739.1569,-485.6 659.7195,-485.6 659.7195,-449.6 739.1569,-449.6 739.1569,-485.6"/>
<text text-anchor="middle" x="699.4382" y="-463.4" font-family="Times,serif" font-size="14.00" fill="#000000"> age &lt;= 37 </text>
</g>
<!-- 0&#45;&gt;1 -->
<g id="edge1" class="edge">
<title>0&#45;&gt;1</title>
<path fill="none" stroke="#000000" d="M786.9142,-521.4314C771.9491,-512.2221 753.5996,-500.9301 737.5779,-491.0706"/>
<polygon fill="#000000" stroke="#000000" points="739.3037,-488.023 728.9528,-485.7628 735.635,-493.9847 739.3037,-488.023"/>
<text text-anchor="middle" x="734.7433" y="-505.883" font-family="Times,serif" font-size="14.00" fill="#000000">True</text>
</g>
<!-- 2 -->
<g id="node3" class="node">
<title>2</title>
<polygon fill="none" stroke="#000000" points="1026.4336,-485.6 876.4428,-485.6 876.4428,-449.6 1026.4336,-449.6 1026.4336,-485.6"/>
<text text-anchor="middle" x="951.4382" y="-463.4" font-family="Times,serif" font-size="14.00" fill="#000000"> more.high.school &lt;= 0 </text>
</g>
<!-- 0&#45;&gt;2 -->
<g id="edge2" class="edge">
<title>0&#45;&gt;2</title>
<path fill="none" stroke="#000000" d="M850.5044,-521.4314C868.0915,-512.0516 889.7298,-500.5112 908.455,-490.5244"/>
<polygon fill="#000000" stroke="#000000" points="910.2064,-493.557 917.3829,-485.7628 906.9123,-487.3805 910.2064,-493.557"/>
<text text-anchor="middle" x="910.1039" y="-505.4797" font-family="Times,serif" font-size="14.00" fill="#000000">False</text>
</g>
<!-- 3 -->
<g id="node4" class="node">
<title>3</title>
<polygon fill="none" stroke="#000000" points="570.1569,-413.6 490.7195,-413.6 490.7195,-377.6 570.1569,-377.6 570.1569,-413.6"/>
<text text-anchor="middle" x="530.4382" y="-391.4" font-family="Times,serif" font-size="14.00" fill="#000000"> age &lt;= 30 </text>
</g>
<!-- 1&#45;&gt;3 -->
<g id="edge3" class="edge">
<title>1&#45;&gt;3</title>
<path fill="none" stroke="#000000" d="M659.8152,-450.7192C635.8521,-440.5101 605.1058,-427.4111 579.5994,-416.5444"/>
<polygon fill="#000000" stroke="#000000" points="580.6771,-413.1992 570.1054,-412.4996 577.9334,-419.6391 580.6771,-413.1992"/>
</g>
<!-- 4 -->
<g id="node5" class="node">
<title>4</title>
<polygon fill="none" stroke="#000000" points="739.1569,-413.6 659.7195,-413.6 659.7195,-377.6 739.1569,-377.6 739.1569,-413.6"/>
<text text-anchor="middle" x="699.4382" y="-391.4" font-family="Times,serif" font-size="14.00" fill="#000000"> age &lt;= 39 </text>
</g>
<!-- 1&#45;&gt;4 -->
<g id="edge4" class="edge">
<title>1&#45;&gt;4</title>
<path fill="none" stroke="#000000" d="M699.4382,-449.4314C699.4382,-441.731 699.4382,-432.5743 699.4382,-424.0166"/>
<polygon fill="#000000" stroke="#000000" points="702.9383,-424.0132 699.4382,-414.0133 695.9383,-424.0133 702.9383,-424.0132"/>
</g>
<!-- 5 -->
<g id="node24" class="node">
<title>5</title>
<polygon fill="none" stroke="#000000" points="991.1569,-413.6 911.7195,-413.6 911.7195,-377.6 991.1569,-377.6 991.1569,-413.6"/>
<text text-anchor="middle" x="951.4382" y="-391.4" font-family="Times,serif" font-size="14.00" fill="#000000"> age &lt;= 57 </text>
</g>
<!-- 2&#45;&gt;5 -->
<g id="edge23" class="edge">
<title>2&#45;&gt;5</title>
<path fill="none" stroke="#000000" d="M951.4382,-449.4314C951.4382,-441.731 951.4382,-432.5743 951.4382,-424.0166"/>
<polygon fill="#000000" stroke="#000000" points="954.9383,-424.0132 951.4382,-414.0133 947.9383,-424.0133 954.9383,-424.0132"/>
</g>
<!-- 6 -->
<g id="node25" class="node">
<title>6</title>
<polygon fill="none" stroke="#000000" points="1183.1569,-413.6 1103.7195,-413.6 1103.7195,-377.6 1183.1569,-377.6 1183.1569,-413.6"/>
<text text-anchor="middle" x="1143.4382" y="-391.4" font-family="Times,serif" font-size="14.00" fill="#000000"> age &lt;= 51 </text>
</g>
<!-- 2&#45;&gt;6 -->
<g id="edge24" class="edge">
<title>2&#45;&gt;6</title>
<path fill="none" stroke="#000000" d="M999.8879,-449.4314C1028.7324,-438.6147 1065.2391,-424.9247 1094.2185,-414.0574"/>
<polygon fill="#000000" stroke="#000000" points="1095.6014,-417.2769 1103.7358,-410.4884 1093.1435,-410.7226 1095.6014,-417.2769"/>
</g>
<!-- 7 -->
<g id="node6" class="node">
<title>7</title>
<polygon fill="none" stroke="#000000" points="432.1569,-330.4 352.7195,-330.4 352.7195,-294.4 432.1569,-294.4 432.1569,-330.4"/>
<text text-anchor="middle" x="392.4382" y="-308.2" font-family="Times,serif" font-size="14.00" fill="#000000"> age &lt;= 27 </text>
</g>
<!-- 3&#45;&gt;7 -->
<g id="edge5" class="edge">
<title>3&#45;&gt;7</title>
<path fill="none" stroke="#000000" d="M500.4943,-377.5468C480.15,-365.2813 453.0515,-348.9437 431.0815,-335.698"/>
<polygon fill="#000000" stroke="#000000" points="432.6948,-332.5838 422.3237,-330.4179 429.0805,-338.5786 432.6948,-332.5838"/>
</g>
<!-- 8 -->
<g id="node7" class="node">
<title>8</title>
<polygon fill="none" stroke="#000000" points="570.1569,-330.4 490.7195,-330.4 490.7195,-294.4 570.1569,-294.4 570.1569,-330.4"/>
<text text-anchor="middle" x="530.4382" y="-308.2" font-family="Times,serif" font-size="14.00" fill="#000000"> age &lt;= 33 </text>
</g>
<!-- 3&#45;&gt;8 -->
<g id="edge6" class="edge">
<title>3&#45;&gt;8</title>
<path fill="none" stroke="#000000" d="M530.4382,-377.5468C530.4382,-366.7532 530.4382,-352.8061 530.4382,-340.5876"/>
<polygon fill="#000000" stroke="#000000" points="533.9383,-340.4179 530.4382,-330.4179 526.9383,-340.418 533.9383,-340.4179"/>
</g>
<!-- 9 -->
<g id="node20" class="node">
<title>9</title>
<polygon fill="#c1b2ff" stroke="#c1b2ff" points="710.3147,-341.8014 588.5617,-341.8014 588.5617,-282.9986 710.3147,-282.9986 710.3147,-341.8014"/>
<text text-anchor="middle" x="649.4382" y="-325" font-family="Times,serif" font-size="14.00" fill="#000000">size = &#160;26 </text>
<text text-anchor="middle" x="649.4382" y="-308.2" font-family="Times,serif" font-size="14.00" fill="#000000"> avg_Y = &#45;1240.97</text>
<text text-anchor="middle" x="649.4382" y="-291.4" font-family="Times,serif" font-size="14.00" fill="#000000">avg_W = 0.46 </text>
</g>
<!-- 4&#45;&gt;9 -->
<g id="edge19" class="edge">
<title>4&#45;&gt;9</title>
<path fill="none" stroke="#000000" d="M688.5889,-377.5468C683.8441,-369.6514 678.0852,-360.0685 672.4606,-350.7092"/>
<polygon fill="#000000" stroke="#000000" points="675.2976,-348.6352 667.1466,-341.8668 669.2977,-352.2409 675.2976,-348.6352"/>
</g>
<!-- 10 -->
<g id="node21" class="node">
<title>10</title>
<polygon fill="none" stroke="#000000" points="808.1569,-330.4 728.7195,-330.4 728.7195,-294.4 808.1569,-294.4 808.1569,-330.4"/>
<text text-anchor="middle" x="768.4382" y="-308.2" font-family="Times,serif" font-size="14.00" fill="#000000"> age &lt;= 41 </text>
</g>
<!-- 4&#45;&gt;10 -->
<g id="edge20" class="edge">
<title>4&#45;&gt;10</title>
<path fill="none" stroke="#000000" d="M714.4102,-377.5468C723.9041,-366.099 736.34,-351.1039 746.8871,-338.3862"/>
<polygon fill="#000000" stroke="#000000" points="749.8059,-340.3496 753.4954,-330.4179 744.4177,-335.881 749.8059,-340.3496"/>
</g>
<!-- 15 -->
<g id="node8" class="node">
<title>15</title>
<polygon fill="none" stroke="#000000" points="280.1569,-236 200.7195,-236 200.7195,-200 280.1569,-200 280.1569,-236"/>
<text text-anchor="middle" x="240.4382" y="-213.8" font-family="Times,serif" font-size="14.00" fill="#000000"> age &lt;= 25 </text>
</g>
<!-- 7&#45;&gt;15 -->
<g id="edge7" class="edge">
<title>7&#45;&gt;15</title>
<path fill="none" stroke="#000000" d="M363.1311,-294.1987C338.949,-279.1804 304.4696,-257.7668 278.2165,-241.4623"/>
<polygon fill="#000000" stroke="#000000" points="279.997,-238.448 269.6554,-236.1454 276.3038,-244.3946 279.997,-238.448"/>
</g>
<!-- 16 -->
<g id="node9" class="node">
<title>16</title>
<polygon fill="none" stroke="#000000" points="432.1569,-236 352.7195,-236 352.7195,-200 432.1569,-200 432.1569,-236"/>
<text text-anchor="middle" x="392.4382" y="-213.8" font-family="Times,serif" font-size="14.00" fill="#000000"> age &lt;= 29 </text>
</g>
<!-- 7&#45;&gt;16 -->
<g id="edge8" class="edge">
<title>7&#45;&gt;16</title>
<path fill="none" stroke="#000000" d="M392.4382,-294.1987C392.4382,-280.6169 392.4382,-261.8048 392.4382,-246.2711"/>
<polygon fill="#000000" stroke="#000000" points="395.9383,-246.1454 392.4382,-236.1454 388.9383,-246.1454 395.9383,-246.1454"/>
</g>
<!-- 17 -->
<g id="node16" class="node">
<title>17</title>
<polygon fill="#c1b2ff" stroke="#c1b2ff" points="591.3147,-247.4014 469.5617,-247.4014 469.5617,-188.5986 591.3147,-188.5986 591.3147,-247.4014"/>
<text text-anchor="middle" x="530.4382" y="-230.6" font-family="Times,serif" font-size="14.00" fill="#000000">size = &#160;23 </text>
<text text-anchor="middle" x="530.4382" y="-213.8" font-family="Times,serif" font-size="14.00" fill="#000000"> avg_Y = &#45;1265.91</text>
<text text-anchor="middle" x="530.4382" y="-197" font-family="Times,serif" font-size="14.00" fill="#000000">avg_W = 0.43 </text>
</g>
<!-- 8&#45;&gt;17 -->
<g id="edge15" class="edge">
<title>8&#45;&gt;17</title>
<path fill="none" stroke="#000000" d="M530.4382,-294.1987C530.4382,-283.7143 530.4382,-270.1133 530.4382,-257.3095"/>
<polygon fill="#000000" stroke="#000000" points="533.9383,-257.2867 530.4382,-247.2868 526.9383,-257.2868 533.9383,-257.2867"/>
</g>
<!-- 18 -->
<g id="node17" class="node">
<title>18</title>
<polygon fill="none" stroke="#000000" points="689.1569,-236 609.7195,-236 609.7195,-200 689.1569,-200 689.1569,-236"/>
<text text-anchor="middle" x="649.4382" y="-213.8" font-family="Times,serif" font-size="14.00" fill="#000000"> age &lt;= 35 </text>
</g>
<!-- 8&#45;&gt;18 -->
<g id="edge16" class="edge">
<title>8&#45;&gt;18</title>
<path fill="none" stroke="#000000" d="M553.3826,-294.1987C571.9031,-279.5068 598.1386,-258.6948 618.5124,-242.5328"/>
<polygon fill="#000000" stroke="#000000" points="620.9051,-245.1022 626.5642,-236.1454 616.5547,-239.6182 620.9051,-245.1022"/>
</g>
<!-- 23 -->
<g id="node10" class="node">
<title>23</title>
<polygon fill="none" stroke="#000000" points="165.1569,-141.6 85.7195,-141.6 85.7195,-105.6 165.1569,-105.6 165.1569,-141.6"/>
<text text-anchor="middle" x="125.4382" y="-119.4" font-family="Times,serif" font-size="14.00" fill="#000000"> age &lt;= 20 </text>
</g>
<!-- 15&#45;&gt;23 -->
<g id="edge9" class="edge">
<title>15&#45;&gt;23</title>
<path fill="none" stroke="#000000" d="M218.265,-199.7987C200.3671,-185.1068 175.0135,-164.2948 155.3245,-148.1328"/>
<polygon fill="#000000" stroke="#000000" points="157.4934,-145.385 147.5433,-141.7454 153.052,-150.7955 157.4934,-145.385"/>
</g>
<!-- 24 -->
<g id="node11" class="node">
<title>24</title>
<polygon fill="#c1b2ff" stroke="#c1b2ff" points="297.8147,-153.0014 183.0617,-153.0014 183.0617,-94.1986 297.8147,-94.1986 297.8147,-153.0014"/>
<text text-anchor="middle" x="240.4382" y="-136.2" font-family="Times,serif" font-size="14.00" fill="#000000">size = &#160;8 </text>
<text text-anchor="middle" x="240.4382" y="-119.4" font-family="Times,serif" font-size="14.00" fill="#000000"> avg_Y = &#45;1235.3</text>
<text text-anchor="middle" x="240.4382" y="-102.6" font-family="Times,serif" font-size="14.00" fill="#000000">avg_W = 0.88 </text>
</g>
<!-- 15&#45;&gt;24 -->
<g id="edge10" class="edge">
<title>15&#45;&gt;24</title>
<path fill="none" stroke="#000000" d="M240.4382,-199.7987C240.4382,-189.3143 240.4382,-175.7133 240.4382,-162.9095"/>
<polygon fill="#000000" stroke="#000000" points="243.9383,-162.8867 240.4382,-152.8868 236.9383,-162.8868 243.9383,-162.8867"/>
</g>
<!-- 25 -->
<g id="node14" class="node">
<title>25</title>
<polygon fill="#c1b2ff" stroke="#c1b2ff" points="430.8147,-153.0014 316.0617,-153.0014 316.0617,-94.1986 430.8147,-94.1986 430.8147,-153.0014"/>
<text text-anchor="middle" x="373.4382" y="-136.2" font-family="Times,serif" font-size="14.00" fill="#000000">size = &#160;24 </text>
<text text-anchor="middle" x="373.4382" y="-119.4" font-family="Times,serif" font-size="14.00" fill="#000000"> avg_Y = &#45;887.37</text>
<text text-anchor="middle" x="373.4382" y="-102.6" font-family="Times,serif" font-size="14.00" fill="#000000">avg_W = 0.58 </text>
</g>
<!-- 16&#45;&gt;25 -->
<g id="edge13" class="edge">
<title>16&#45;&gt;25</title>
<path fill="none" stroke="#000000" d="M388.7748,-199.7987C386.6646,-189.3143 383.9271,-175.7133 381.3501,-162.9095"/>
<polygon fill="#000000" stroke="#000000" points="384.7372,-161.9995 379.3328,-152.8868 377.8748,-163.3808 384.7372,-161.9995"/>
</g>
<!-- 26 -->
<g id="node15" class="node">
<title>26</title>
<polygon fill="#c1b2ff" stroke="#c1b2ff" points="570.3147,-153.0014 448.5617,-153.0014 448.5617,-94.1986 570.3147,-94.1986 570.3147,-153.0014"/>
<text text-anchor="middle" x="509.4382" y="-136.2" font-family="Times,serif" font-size="14.00" fill="#000000">size = &#160;13 </text>
<text text-anchor="middle" x="509.4382" y="-119.4" font-family="Times,serif" font-size="14.00" fill="#000000"> avg_Y = &#45;1699.55</text>
<text text-anchor="middle" x="509.4382" y="-102.6" font-family="Times,serif" font-size="14.00" fill="#000000">avg_W = 0.69 </text>
</g>
<!-- 16&#45;&gt;26 -->
<g id="edge14" class="edge">
<title>16&#45;&gt;26</title>
<path fill="none" stroke="#000000" d="M414.997,-199.7987C429.1493,-188.3801 447.8836,-173.2646 464.9331,-159.5084"/>
<polygon fill="#000000" stroke="#000000" points="467.5551,-161.8901 473.14,-152.8868 463.1595,-156.4422 467.5551,-161.8901"/>
</g>
<!-- 33 -->
<g id="node12" class="node">
<title>33</title>
<polygon fill="#c1b2ff" stroke="#c1b2ff" points="114.8147,-58.6014 .0617,-58.6014 .0617,.2014 114.8147,.2014 114.8147,-58.6014"/>
<text text-anchor="middle" x="57.4382" y="-41.8" font-family="Times,serif" font-size="14.00" fill="#000000">size = &#160;11 </text>
<text text-anchor="middle" x="57.4382" y="-25" font-family="Times,serif" font-size="14.00" fill="#000000"> avg_Y = &#45;822.76</text>
<text text-anchor="middle" x="57.4382" y="-8.2" font-family="Times,serif" font-size="14.00" fill="#000000">avg_W = 0.45 </text>
</g>
<!-- 23&#45;&gt;33 -->
<g id="edge11" class="edge">
<title>23&#45;&gt;33</title>
<path fill="none" stroke="#000000" d="M112.3271,-105.3987C104.4009,-94.3953 94.0019,-79.959 84.3891,-66.6142"/>
<polygon fill="#000000" stroke="#000000" points="87.2194,-64.5551 78.5346,-58.4868 81.5396,-68.6465 87.2194,-64.5551"/>
</g>
<!-- 34 -->
<g id="node13" class="node">
<title>34</title>
<polygon fill="#c1b2ff" stroke="#c1b2ff" points="254.3147,-58.6014 132.5617,-58.6014 132.5617,.2014 254.3147,.2014 254.3147,-58.6014"/>
<text text-anchor="middle" x="193.4382" y="-41.8" font-family="Times,serif" font-size="14.00" fill="#000000">size = &#160;34 </text>
<text text-anchor="middle" x="193.4382" y="-25" font-family="Times,serif" font-size="14.00" fill="#000000"> avg_Y = &#45;2049.55</text>
<text text-anchor="middle" x="193.4382" y="-8.2" font-family="Times,serif" font-size="14.00" fill="#000000">avg_W = 0.62 </text>
</g>
<!-- 23&#45;&gt;34 -->
<g id="edge12" class="edge">
<title>23&#45;&gt;34</title>
<path fill="none" stroke="#000000" d="M138.5493,-105.3987C146.4755,-94.3953 156.8745,-79.959 166.4873,-66.6142"/>
<polygon fill="#000000" stroke="#000000" points="169.3368,-68.6465 172.3418,-58.4868 163.657,-64.5551 169.3368,-68.6465"/>
</g>
<!-- 27 -->
<g id="node18" class="node">
<title>27</title>
<polygon fill="#c1b2ff" stroke="#c1b2ff" points="710.3147,-153.0014 588.5617,-153.0014 588.5617,-94.1986 710.3147,-94.1986 710.3147,-153.0014"/>
<text text-anchor="middle" x="649.4382" y="-136.2" font-family="Times,serif" font-size="14.00" fill="#000000">size = &#160;23 </text>
<text text-anchor="middle" x="649.4382" y="-119.4" font-family="Times,serif" font-size="14.00" fill="#000000"> avg_Y = &#45;1712.72</text>
<text text-anchor="middle" x="649.4382" y="-102.6" font-family="Times,serif" font-size="14.00" fill="#000000">avg_W = 0.65 </text>
</g>
<!-- 18&#45;&gt;27 -->
<g id="edge17" class="edge">
<title>18&#45;&gt;27</title>
<path fill="none" stroke="#000000" d="M649.4382,-199.7987C649.4382,-189.3143 649.4382,-175.7133 649.4382,-162.9095"/>
<polygon fill="#000000" stroke="#000000" points="652.9383,-162.8867 649.4382,-152.8868 645.9383,-162.8868 652.9383,-162.8867"/>
</g>
<!-- 28 -->
<g id="node19" class="node">
<title>28</title>
<polygon fill="#c1b2ff" stroke="#c1b2ff" points="850.3147,-153.0014 728.5617,-153.0014 728.5617,-94.1986 850.3147,-94.1986 850.3147,-153.0014"/>
<text text-anchor="middle" x="789.4382" y="-136.2" font-family="Times,serif" font-size="14.00" fill="#000000">size = &#160;20 </text>
<text text-anchor="middle" x="789.4382" y="-119.4" font-family="Times,serif" font-size="14.00" fill="#000000"> avg_Y = &#45;1235.39</text>
<text text-anchor="middle" x="789.4382" y="-102.6" font-family="Times,serif" font-size="14.00" fill="#000000">avg_W = 0.55 </text>
</g>
<!-- 18&#45;&gt;28 -->
<g id="edge18" class="edge">
<title>18&#45;&gt;28</title>
<path fill="none" stroke="#000000" d="M676.4316,-199.7987C693.7509,-188.1206 716.8049,-172.5756 737.572,-158.5727"/>
<polygon fill="#000000" stroke="#000000" points="739.6699,-161.3794 746.0044,-152.8868 735.7565,-155.5755 739.6699,-161.3794"/>
</g>
<!-- 19 -->
<g id="node22" class="node">
<title>19</title>
<polygon fill="#c1b2ff" stroke="#c1b2ff" points="829.3147,-247.4014 707.5617,-247.4014 707.5617,-188.5986 829.3147,-188.5986 829.3147,-247.4014"/>
<text text-anchor="middle" x="768.4382" y="-230.6" font-family="Times,serif" font-size="14.00" fill="#000000">size = &#160;34 </text>
<text text-anchor="middle" x="768.4382" y="-213.8" font-family="Times,serif" font-size="14.00" fill="#000000"> avg_Y = &#45;1121.07</text>
<text text-anchor="middle" x="768.4382" y="-197" font-family="Times,serif" font-size="14.00" fill="#000000">avg_W = 0.32 </text>
</g>
<!-- 10&#45;&gt;19 -->
<g id="edge21" class="edge">
<title>10&#45;&gt;19</title>
<path fill="none" stroke="#000000" d="M768.4382,-294.1987C768.4382,-283.7143 768.4382,-270.1133 768.4382,-257.3095"/>
<polygon fill="#000000" stroke="#000000" points="771.9383,-257.2867 768.4382,-247.2868 764.9383,-257.2868 771.9383,-257.2867"/>
</g>
<!-- 20 -->
<g id="node23" class="node">
<title>20</title>
<polygon fill="#c1b2ff" stroke="#c1b2ff" points="961.8147,-247.4014 847.0617,-247.4014 847.0617,-188.5986 961.8147,-188.5986 961.8147,-247.4014"/>
<text text-anchor="middle" x="904.4382" y="-230.6" font-family="Times,serif" font-size="14.00" fill="#000000">size = &#160;10 </text>
<text text-anchor="middle" x="904.4382" y="-213.8" font-family="Times,serif" font-size="14.00" fill="#000000"> avg_Y = &#45;962.15</text>
<text text-anchor="middle" x="904.4382" y="-197" font-family="Times,serif" font-size="14.00" fill="#000000">avg_W = 0.7 </text>
</g>
<!-- 10&#45;&gt;20 -->
<g id="edge22" class="edge">
<title>10&#45;&gt;20</title>
<path fill="none" stroke="#000000" d="M794.6604,-294.1987C811.4101,-282.5725 833.6812,-267.1137 853.7847,-253.1595"/>
<polygon fill="#000000" stroke="#000000" points="856.0262,-255.8642 862.2454,-247.2868 852.0347,-250.1137 856.0262,-255.8642"/>
</g>
<!-- 11 -->
<g id="node26" class="node">
<title>11</title>
<polygon fill="#c1b2ff" stroke="#c1b2ff" points="940.8147,-341.8014 826.0617,-341.8014 826.0617,-282.9986 940.8147,-282.9986 940.8147,-341.8014"/>
<text text-anchor="middle" x="883.4382" y="-325" font-family="Times,serif" font-size="14.00" fill="#000000">size = &#160;68 </text>
<text text-anchor="middle" x="883.4382" y="-308.2" font-family="Times,serif" font-size="14.00" fill="#000000"> avg_Y = &#45;870.84</text>
<text text-anchor="middle" x="883.4382" y="-291.4" font-family="Times,serif" font-size="14.00" fill="#000000">avg_W = 0.51 </text>
</g>
<!-- 5&#45;&gt;11 -->
<g id="edge25" class="edge">
<title>5&#45;&gt;11</title>
<path fill="none" stroke="#000000" d="M936.6832,-377.5468C930.0306,-369.4072 921.9123,-359.4742 914.0395,-349.8415"/>
<polygon fill="#000000" stroke="#000000" points="916.56,-347.3948 907.5216,-341.8668 911.14,-351.8246 916.56,-347.3948"/>
</g>
<!-- 12 -->
<g id="node27" class="node">
<title>12</title>
<polygon fill="#c1b2ff" stroke="#c1b2ff" points="1080.3147,-341.8014 958.5617,-341.8014 958.5617,-282.9986 1080.3147,-282.9986 1080.3147,-341.8014"/>
<text text-anchor="middle" x="1019.4382" y="-325" font-family="Times,serif" font-size="14.00" fill="#000000">size = &#160;43 </text>
<text text-anchor="middle" x="1019.4382" y="-308.2" font-family="Times,serif" font-size="14.00" fill="#000000"> avg_Y = &#45;1122.36</text>
<text text-anchor="middle" x="1019.4382" y="-291.4" font-family="Times,serif" font-size="14.00" fill="#000000">avg_W = 0.6 </text>
</g>
<!-- 5&#45;&gt;12 -->
<g id="edge26" class="edge">
<title>5&#45;&gt;12</title>
<path fill="none" stroke="#000000" d="M966.1932,-377.5468C972.8458,-369.4072 980.9641,-359.4742 988.8369,-349.8415"/>
<polygon fill="#000000" stroke="#000000" points="991.7364,-351.8246 995.3548,-341.8668 986.3164,-347.3948 991.7364,-351.8246"/>
</g>
<!-- 13 -->
<g id="node28" class="node">
<title>13</title>
<polygon fill="none" stroke="#000000" points="1188.8131,-330.4 1098.0633,-330.4 1098.0633,-294.4 1188.8131,-294.4 1188.8131,-330.4"/>
<text text-anchor="middle" x="1143.4382" y="-308.2" font-family="Times,serif" font-size="14.00" fill="#000000"> female &lt;= 0 </text>
</g>
<!-- 6&#45;&gt;13 -->
<g id="edge27" class="edge">
<title>6&#45;&gt;13</title>
<path fill="none" stroke="#000000" d="M1143.4382,-377.5468C1143.4382,-366.7532 1143.4382,-352.8061 1143.4382,-340.5876"/>
<polygon fill="#000000" stroke="#000000" points="1146.9383,-340.4179 1143.4382,-330.4179 1139.9383,-340.418 1146.9383,-340.4179"/>
</g>
<!-- 14 -->
<g id="node29" class="node">
<title>14</title>
<polygon fill="#c1b2ff" stroke="#c1b2ff" points="1328.3147,-341.8014 1206.5617,-341.8014 1206.5617,-282.9986 1328.3147,-282.9986 1328.3147,-341.8014"/>
<text text-anchor="middle" x="1267.4382" y="-325" font-family="Times,serif" font-size="14.00" fill="#000000">size = &#160;46 </text>
<text text-anchor="middle" x="1267.4382" y="-308.2" font-family="Times,serif" font-size="14.00" fill="#000000"> avg_Y = &#45;1151.61</text>
<text text-anchor="middle" x="1267.4382" y="-291.4" font-family="Times,serif" font-size="14.00" fill="#000000">avg_W = 0.59 </text>
</g>
<!-- 6&#45;&gt;14 -->
<g id="edge28" class="edge">
<title>6&#45;&gt;14</title>
<path fill="none" stroke="#000000" d="M1170.3444,-377.5468C1183.4461,-368.756 1199.6653,-357.8734 1215.0712,-347.5366"/>
<polygon fill="#000000" stroke="#000000" points="1217.1675,-350.3449 1223.5214,-341.8668 1213.2673,-344.5321 1217.1675,-350.3449"/>
</g>
<!-- 21 -->
<g id="node30" class="node">
<title>21</title>
<polygon fill="none" stroke="#000000" points="1146.1569,-236 1066.7195,-236 1066.7195,-200 1146.1569,-200 1146.1569,-236"/>
<text text-anchor="middle" x="1106.4382" y="-213.8" font-family="Times,serif" font-size="14.00" fill="#000000"> age &lt;= 46 </text>
</g>
<!-- 13&#45;&gt;21 -->
<g id="edge29" class="edge">
<title>13&#45;&gt;21</title>
<path fill="none" stroke="#000000" d="M1136.3042,-294.1987C1130.9297,-280.4863 1123.4655,-261.4426 1117.3438,-245.824"/>
<polygon fill="#000000" stroke="#000000" points="1120.4582,-244.1785 1113.5503,-236.1454 1113.9409,-246.733 1120.4582,-244.1785"/>
</g>
<!-- 22 -->
<g id="node31" class="node">
<title>22</title>
<polygon fill="none" stroke="#000000" points="1286.1569,-236 1206.7195,-236 1206.7195,-200 1286.1569,-200 1286.1569,-236"/>
<text text-anchor="middle" x="1246.4382" y="-213.8" font-family="Times,serif" font-size="14.00" fill="#000000"> age &lt;= 47 </text>
</g>
<!-- 13&#45;&gt;22 -->
<g id="edge30" class="edge">
<title>13&#45;&gt;22</title>
<path fill="none" stroke="#000000" d="M1163.2976,-294.1987C1179.1142,-279.7027 1201.4316,-259.2487 1218.9624,-243.1817"/>
<polygon fill="#000000" stroke="#000000" points="1221.6324,-245.4823 1226.6397,-236.1454 1216.9028,-240.3218 1221.6324,-245.4823"/>
</g>
<!-- 29 -->
<g id="node32" class="node">
<title>29</title>
<polygon fill="#c1b2ff" stroke="#c1b2ff" points="1027.3147,-153.0014 905.5617,-153.0014 905.5617,-94.1986 1027.3147,-94.1986 1027.3147,-153.0014"/>
<text text-anchor="middle" x="966.4382" y="-136.2" font-family="Times,serif" font-size="14.00" fill="#000000">size = &#160;16 </text>
<text text-anchor="middle" x="966.4382" y="-119.4" font-family="Times,serif" font-size="14.00" fill="#000000"> avg_Y = &#45;1778.03</text>
<text text-anchor="middle" x="966.4382" y="-102.6" font-family="Times,serif" font-size="14.00" fill="#000000">avg_W = 0.56 </text>
</g>
<!-- 21&#45;&gt;29 -->
<g id="edge31" class="edge">
<title>21&#45;&gt;29</title>
<path fill="none" stroke="#000000" d="M1079.4448,-199.7987C1062.1255,-188.1206 1039.0715,-172.5756 1018.3044,-158.5727"/>
<polygon fill="#000000" stroke="#000000" points="1020.1199,-155.5755 1009.872,-152.8868 1016.2065,-161.3794 1020.1199,-155.5755"/>
</g>
<!-- 30 -->
<g id="node33" class="node">
<title>30</title>
<polygon fill="#c1b2ff" stroke="#c1b2ff" points="1167.3147,-153.0014 1045.5617,-153.0014 1045.5617,-94.1986 1167.3147,-94.1986 1167.3147,-153.0014"/>
<text text-anchor="middle" x="1106.4382" y="-136.2" font-family="Times,serif" font-size="14.00" fill="#000000">size = &#160;6 </text>
<text text-anchor="middle" x="1106.4382" y="-119.4" font-family="Times,serif" font-size="14.00" fill="#000000"> avg_Y = &#45;1021.41</text>
<text text-anchor="middle" x="1106.4382" y="-102.6" font-family="Times,serif" font-size="14.00" fill="#000000">avg_W = 0.33 </text>
</g>
<!-- 21&#45;&gt;30 -->
<g id="edge32" class="edge">
<title>21&#45;&gt;30</title>
<path fill="none" stroke="#000000" d="M1106.4382,-199.7987C1106.4382,-189.3143 1106.4382,-175.7133 1106.4382,-162.9095"/>
<polygon fill="#000000" stroke="#000000" points="1109.9383,-162.8867 1106.4382,-152.8868 1102.9383,-162.8868 1109.9383,-162.8867"/>
</g>
<!-- 31 -->
<g id="node34" class="node">
<title>31</title>
<polygon fill="#c1b2ff" stroke="#c1b2ff" points="1307.3147,-153.0014 1185.5617,-153.0014 1185.5617,-94.1986 1307.3147,-94.1986 1307.3147,-153.0014"/>
<text text-anchor="middle" x="1246.4382" y="-136.2" font-family="Times,serif" font-size="14.00" fill="#000000">size = &#160;26 </text>
<text text-anchor="middle" x="1246.4382" y="-119.4" font-family="Times,serif" font-size="14.00" fill="#000000"> avg_Y = &#45;2415.24</text>
<text text-anchor="middle" x="1246.4382" y="-102.6" font-family="Times,serif" font-size="14.00" fill="#000000">avg_W = 0.38 </text>
</g>
<!-- 22&#45;&gt;31 -->
<g id="edge33" class="edge">
<title>22&#45;&gt;31</title>
<path fill="none" stroke="#000000" d="M1246.4382,-199.7987C1246.4382,-189.3143 1246.4382,-175.7133 1246.4382,-162.9095"/>
<polygon fill="#000000" stroke="#000000" points="1249.9383,-162.8867 1246.4382,-152.8868 1242.9383,-162.8868 1249.9383,-162.8867"/>
</g>
<!-- 32 -->
<g id="node35" class="node">
<title>32</title>
<polygon fill="#c1b2ff" stroke="#c1b2ff" points="1447.3147,-153.0014 1325.5617,-153.0014 1325.5617,-94.1986 1447.3147,-94.1986 1447.3147,-153.0014"/>
<text text-anchor="middle" x="1386.4382" y="-136.2" font-family="Times,serif" font-size="14.00" fill="#000000">size = &#160;24 </text>
<text text-anchor="middle" x="1386.4382" y="-119.4" font-family="Times,serif" font-size="14.00" fill="#000000"> avg_Y = &#45;1262.23</text>
<text text-anchor="middle" x="1386.4382" y="-102.6" font-family="Times,serif" font-size="14.00" fill="#000000">avg_W = 0.33 </text>
</g>
<!-- 22&#45;&gt;32 -->
<g id="edge34" class="edge">
<title>22&#45;&gt;32</title>
<path fill="none" stroke="#000000" d="M1273.4316,-199.7987C1290.7509,-188.1206 1313.8049,-172.5756 1334.572,-158.5727"/>
<polygon fill="#000000" stroke="#000000" points="1336.6699,-161.3794 1343.0044,-152.8868 1332.7565,-155.5755 1336.6699,-161.3794"/>
</g>
</g>
</svg>
