<?xml version="1.0" encoding="UTF-8" standalone="no"?>
<!DOCTYPE svg PUBLIC "-//W3C//DTD SVG 1.1//EN"
 "http://www.w3.org/Graphics/SVG/1.1/DTD/svg11.dtd">
<!-- Generated by graphviz version 2.40.1 (20161225.0304)
 -->
<!-- Title: nodes Pages: 1 -->
<svg width="831pt" height="731pt"
 viewBox="0.00 0.00 830.69 731.20" xmlns="http://www.w3.org/2000/svg" xmlns:xlink="http://www.w3.org/1999/xlink">
<g id="graph0" class="graph" transform="scale(1 1) rotate(0) translate(4 727.2)">
<title>nodes</title>
<polygon fill="#ffffff" stroke="transparent" points="-4,4 -4,-727.2 826.695,-727.2 826.695,4 -4,4"/>
<!-- 0 -->
<g id="node1" class="node">
<title>0</title>
<polygon fill="none" stroke="#000000" points="619.2378,-723.2 521.4572,-723.2 521.4572,-687.2 619.2378,-687.2 619.2378,-723.2"/>
<text text-anchor="middle" x="570.3475" y="-701" font-family="Times,serif" font-size="14.00" fill="#000000"> tempted &lt;= 0 </text>
</g>
<!-- 1 -->
<g id="node2" class="node">
<title>1</title>
<polygon fill="none" stroke="#000000" points="524.242,-651.2 426.453,-651.2 426.453,-615.2 524.242,-615.2 524.242,-651.2"/>
<text text-anchor="middle" x="475.3475" y="-629" font-family="Times,serif" font-size="14.00" fill="#000000"> loan &lt;= 2000 </text>
</g>
<!-- 0&#45;&gt;1 -->
<g id="edge1" class="edge">
<title>0&#45;&gt;1</title>
<path fill="none" stroke="#000000" d="M546.375,-687.0314C534.5614,-678.0779 520.1503,-667.1558 507.404,-657.4955"/>
<polygon fill="#000000" stroke="#000000" points="509.3961,-654.6137 499.3123,-651.3628 505.168,-660.1925 509.3961,-654.6137"/>
<text text-anchor="middle" x="502.7233" y="-671.929" font-family="Times,serif" font-size="14.00" fill="#000000">True</text>
</g>
<!-- 2 -->
<g id="node3" class="node">
<title>2</title>
<polygon fill="none" stroke="#000000" points="678.242,-651.2 580.453,-651.2 580.453,-615.2 678.242,-615.2 678.242,-651.2"/>
<text text-anchor="middle" x="629.3475" y="-629" font-family="Times,serif" font-size="14.00" fill="#000000"> loan &lt;= 4450 </text>
</g>
<!-- 0&#45;&gt;2 -->
<g id="edge2" class="edge">
<title>0&#45;&gt;2</title>
<path fill="none" stroke="#000000" d="M585.2357,-687.0314C592.1005,-678.654 600.3776,-668.5531 607.8986,-659.3749"/>
<polygon fill="#000000" stroke="#000000" points="610.6278,-661.5665 614.2589,-651.6133 605.2134,-657.1297 610.6278,-661.5665"/>
<text text-anchor="middle" x="616.7276" y="-672.2911" font-family="Times,serif" font-size="14.00" fill="#000000">False</text>
</g>
<!-- 3 -->
<g id="node4" class="node">
<title>3</title>
<polygon fill="none" stroke="#000000" points="380.6717,-576.4 298.0233,-576.4 298.0233,-540.4 380.6717,-540.4 380.6717,-576.4"/>
<text text-anchor="middle" x="339.3475" y="-554.2" font-family="Times,serif" font-size="14.00" fill="#000000"> rosca &lt;= 0 </text>
</g>
<!-- 1&#45;&gt;3 -->
<g id="edge3" class="edge">
<title>1&#45;&gt;3</title>
<path fill="none" stroke="#000000" d="M442.4257,-615.093C424.0193,-604.9695 400.891,-592.2489 381.2088,-581.4237"/>
<polygon fill="#000000" stroke="#000000" points="382.8864,-578.352 372.4375,-576.5995 379.5129,-584.4855 382.8864,-578.352"/>
</g>
<!-- 4 -->
<g id="node5" class="node">
<title>4</title>
<polygon fill="none" stroke="#000000" points="515.0662,-576.4 435.6288,-576.4 435.6288,-540.4 515.0662,-540.4 515.0662,-576.4"/>
<text text-anchor="middle" x="475.3475" y="-554.2" font-family="Times,serif" font-size="14.00" fill="#000000"> age &lt;= 50 </text>
</g>
<!-- 1&#45;&gt;4 -->
<g id="edge4" class="edge">
<title>1&#45;&gt;4</title>
<path fill="none" stroke="#000000" d="M475.3475,-615.093C475.3475,-606.6112 475.3475,-596.3062 475.3475,-586.8204"/>
<polygon fill="#000000" stroke="#000000" points="478.8476,-586.5995 475.3475,-576.5995 471.8476,-586.5995 478.8476,-586.5995"/>
</g>
<!-- 5 -->
<g id="node14" class="node">
<title>5</title>
<polygon fill="none" stroke="#000000" points="669.0662,-576.4 589.6288,-576.4 589.6288,-540.4 669.0662,-540.4 669.0662,-576.4"/>
<text text-anchor="middle" x="629.3475" y="-554.2" font-family="Times,serif" font-size="14.00" fill="#000000"> age &lt;= 57 </text>
</g>
<!-- 2&#45;&gt;5 -->
<g id="edge13" class="edge">
<title>2&#45;&gt;5</title>
<path fill="none" stroke="#000000" d="M629.3475,-615.093C629.3475,-606.6112 629.3475,-596.3062 629.3475,-586.8204"/>
<polygon fill="#000000" stroke="#000000" points="632.8476,-586.5995 629.3475,-576.5995 625.8476,-586.5995 632.8476,-586.5995"/>
</g>
<!-- 6 -->
<g id="node15" class="node">
<title>6</title>
<polygon fill="#c1b2ff" stroke="#c1b2ff" points="761.5431,-579.0019 687.1519,-579.0019 687.1519,-537.7981 761.5431,-537.7981 761.5431,-579.0019"/>
<text text-anchor="middle" x="724.3475" y="-562.6" font-family="Times,serif" font-size="14.00" fill="#000000">leaf node &#160;</text>
<text text-anchor="middle" x="724.3475" y="-545.8" font-family="Times,serif" font-size="14.00" fill="#000000">size = &#160;14 </text>
</g>
<!-- 2&#45;&gt;6 -->
<g id="edge14" class="edge">
<title>2&#45;&gt;6</title>
<path fill="none" stroke="#000000" d="M652.3444,-615.093C663.6058,-606.2261 677.3977,-595.3668 689.8862,-585.5338"/>
<polygon fill="#000000" stroke="#000000" points="692.1733,-588.1877 697.865,-579.2515 687.8429,-582.6879 692.1733,-588.1877"/>
</g>
<!-- 7 -->
<g id="node6" class="node">
<title>7</title>
<polygon fill="none" stroke="#000000" points="284.0662,-498.8 204.6288,-498.8 204.6288,-462.8 284.0662,-462.8 284.0662,-498.8"/>
<text text-anchor="middle" x="244.3475" y="-476.6" font-family="Times,serif" font-size="14.00" fill="#000000"> age &lt;= 59 </text>
</g>
<!-- 3&#45;&gt;7 -->
<g id="edge5" class="edge">
<title>3&#45;&gt;7</title>
<path fill="none" stroke="#000000" d="M316.8338,-540.0099C304.1746,-529.6693 288.2053,-516.6249 274.4797,-505.4133"/>
<polygon fill="#000000" stroke="#000000" points="276.6584,-502.6737 266.6996,-499.0581 272.2301,-508.0949 276.6584,-502.6737"/>
</g>
<!-- 8 -->
<g id="node7" class="node">
<title>8</title>
<polygon fill="#c1b2ff" stroke="#c1b2ff" points="376.5431,-501.4019 302.1519,-501.4019 302.1519,-460.1981 376.5431,-460.1981 376.5431,-501.4019"/>
<text text-anchor="middle" x="339.3475" y="-485" font-family="Times,serif" font-size="14.00" fill="#000000">leaf node &#160;</text>
<text text-anchor="middle" x="339.3475" y="-468.2" font-family="Times,serif" font-size="14.00" fill="#000000">size = &#160;17 </text>
</g>
<!-- 3&#45;&gt;8 -->
<g id="edge6" class="edge">
<title>3&#45;&gt;8</title>
<path fill="none" stroke="#000000" d="M339.3475,-540.0099C339.3475,-531.5181 339.3475,-521.2029 339.3475,-511.5766"/>
<polygon fill="#000000" stroke="#000000" points="342.8476,-511.5205 339.3475,-501.5205 335.8476,-511.5205 342.8476,-511.5205"/>
</g>
<!-- 9 -->
<g id="node12" class="node">
<title>9</title>
<polygon fill="#c1b2ff" stroke="#c1b2ff" points="469.5431,-501.4019 395.1519,-501.4019 395.1519,-460.1981 469.5431,-460.1981 469.5431,-501.4019"/>
<text text-anchor="middle" x="432.3475" y="-485" font-family="Times,serif" font-size="14.00" fill="#000000">leaf node &#160;</text>
<text text-anchor="middle" x="432.3475" y="-468.2" font-family="Times,serif" font-size="14.00" fill="#000000">size = &#160;14 </text>
</g>
<!-- 4&#45;&gt;9 -->
<g id="edge11" class="edge">
<title>4&#45;&gt;9</title>
<path fill="none" stroke="#000000" d="M465.1571,-540.0099C460.2513,-531.1567 454.2474,-520.3217 448.7228,-510.3517"/>
<polygon fill="#000000" stroke="#000000" points="451.7375,-508.571 443.8292,-501.5205 445.6147,-511.9638 451.7375,-508.571"/>
</g>
<!-- 10 -->
<g id="node13" class="node">
<title>10</title>
<polygon fill="#c1b2ff" stroke="#c1b2ff" points="562.5431,-501.4019 488.1519,-501.4019 488.1519,-460.1981 562.5431,-460.1981 562.5431,-501.4019"/>
<text text-anchor="middle" x="525.3475" y="-485" font-family="Times,serif" font-size="14.00" fill="#000000">leaf node &#160;</text>
<text text-anchor="middle" x="525.3475" y="-468.2" font-family="Times,serif" font-size="14.00" fill="#000000">size = &#160;10 </text>
</g>
<!-- 4&#45;&gt;10 -->
<g id="edge12" class="edge">
<title>4&#45;&gt;10</title>
<path fill="none" stroke="#000000" d="M487.1968,-540.0099C492.9594,-531.0664 500.0251,-520.1003 506.5029,-510.0468"/>
<polygon fill="#000000" stroke="#000000" points="509.5224,-511.8224 511.9967,-501.5205 503.6381,-508.0309 509.5224,-511.8224"/>
</g>
<!-- 13 -->
<g id="node8" class="node">
<title>13</title>
<polygon fill="none" stroke="#000000" points="266.3429,-421.2 116.3521,-421.2 116.3521,-385.2 266.3429,-385.2 266.3429,-421.2"/>
<text text-anchor="middle" x="191.3475" y="-399" font-family="Times,serif" font-size="14.00" fill="#000000"> more.high.school &lt;= 0 </text>
</g>
<!-- 7&#45;&gt;13 -->
<g id="edge7" class="edge">
<title>7&#45;&gt;13</title>
<path fill="none" stroke="#000000" d="M231.7872,-462.4099C225.1867,-452.7458 216.9733,-440.7201 209.6762,-430.0359"/>
<polygon fill="#000000" stroke="#000000" points="212.3478,-427.7419 203.8176,-421.4581 206.5674,-431.6899 212.3478,-427.7419"/>
</g>
<!-- 14 -->
<g id="node9" class="node">
<title>14</title>
<polygon fill="#c1b2ff" stroke="#c1b2ff" points="358.5431,-423.8019 284.1519,-423.8019 284.1519,-382.5981 358.5431,-382.5981 358.5431,-423.8019"/>
<text text-anchor="middle" x="321.3475" y="-407.4" font-family="Times,serif" font-size="14.00" fill="#000000">leaf node &#160;</text>
<text text-anchor="middle" x="321.3475" y="-390.6" font-family="Times,serif" font-size="14.00" fill="#000000">size = &#160;12 </text>
</g>
<!-- 7&#45;&gt;14 -->
<g id="edge8" class="edge">
<title>7&#45;&gt;14</title>
<path fill="none" stroke="#000000" d="M262.5954,-462.4099C271.8283,-453.105 283.2336,-441.6109 293.5314,-431.2328"/>
<polygon fill="#000000" stroke="#000000" points="296.2281,-433.4842 300.7872,-423.9205 291.2591,-428.5537 296.2281,-433.4842"/>
</g>
<!-- 17 -->
<g id="node10" class="node">
<title>17</title>
<polygon fill="#c1b2ff" stroke="#c1b2ff" points="182.5431,-346.2019 108.1519,-346.2019 108.1519,-304.9981 182.5431,-304.9981 182.5431,-346.2019"/>
<text text-anchor="middle" x="145.3475" y="-329.8" font-family="Times,serif" font-size="14.00" fill="#000000">leaf node &#160;</text>
<text text-anchor="middle" x="145.3475" y="-313" font-family="Times,serif" font-size="14.00" fill="#000000">size = &#160;6 </text>
</g>
<!-- 13&#45;&gt;17 -->
<g id="edge9" class="edge">
<title>13&#45;&gt;17</title>
<path fill="none" stroke="#000000" d="M180.4461,-384.8099C175.1981,-375.9567 168.7753,-365.1217 162.8653,-355.1517"/>
<polygon fill="#000000" stroke="#000000" points="165.7403,-353.138 157.6303,-346.3205 159.7188,-356.7075 165.7403,-353.138"/>
</g>
<!-- 18 -->
<g id="node11" class="node">
<title>18</title>
<polygon fill="#c1b2ff" stroke="#c1b2ff" points="275.5431,-346.2019 201.1519,-346.2019 201.1519,-304.9981 275.5431,-304.9981 275.5431,-346.2019"/>
<text text-anchor="middle" x="238.3475" y="-329.8" font-family="Times,serif" font-size="14.00" fill="#000000">leaf node &#160;</text>
<text text-anchor="middle" x="238.3475" y="-313" font-family="Times,serif" font-size="14.00" fill="#000000">size = &#160;32 </text>
</g>
<!-- 13&#45;&gt;18 -->
<g id="edge10" class="edge">
<title>13&#45;&gt;18</title>
<path fill="none" stroke="#000000" d="M202.4858,-384.8099C207.8479,-375.9567 214.4104,-365.1217 220.4489,-355.1517"/>
<polygon fill="#000000" stroke="#000000" points="223.6108,-356.6872 225.7977,-346.3205 217.6234,-353.0608 223.6108,-356.6872"/>
</g>
<!-- 11 -->
<g id="node16" class="node">
<title>11</title>
<polygon fill="none" stroke="#000000" points="678.242,-498.8 580.453,-498.8 580.453,-462.8 678.242,-462.8 678.242,-498.8"/>
<text text-anchor="middle" x="629.3475" y="-476.6" font-family="Times,serif" font-size="14.00" fill="#000000"> loan &lt;= 2010 </text>
</g>
<!-- 5&#45;&gt;11 -->
<g id="edge15" class="edge">
<title>5&#45;&gt;11</title>
<path fill="none" stroke="#000000" d="M629.3475,-540.0099C629.3475,-530.829 629.3475,-519.5167 629.3475,-509.2482"/>
<polygon fill="#000000" stroke="#000000" points="632.8476,-509.0581 629.3475,-499.0581 625.8476,-509.0581 632.8476,-509.0581"/>
</g>
<!-- 12 -->
<g id="node17" class="node">
<title>12</title>
<polygon fill="#c1b2ff" stroke="#c1b2ff" points="770.5431,-501.4019 696.1519,-501.4019 696.1519,-460.1981 770.5431,-460.1981 770.5431,-501.4019"/>
<text text-anchor="middle" x="733.3475" y="-485" font-family="Times,serif" font-size="14.00" fill="#000000">leaf node &#160;</text>
<text text-anchor="middle" x="733.3475" y="-468.2" font-family="Times,serif" font-size="14.00" fill="#000000">size = &#160;30 </text>
</g>
<!-- 5&#45;&gt;12 -->
<g id="edge16" class="edge">
<title>5&#45;&gt;12</title>
<path fill="none" stroke="#000000" d="M653.7309,-540.2062C666.6793,-530.5447 682.8461,-518.4818 697.2224,-507.7549"/>
<polygon fill="#000000" stroke="#000000" points="699.5205,-510.4071 705.4422,-501.6217 695.3343,-504.7968 699.5205,-510.4071"/>
</g>
<!-- 15 -->
<g id="node18" class="node">
<title>15</title>
<polygon fill="none" stroke="#000000" points="583.8471,-421.2 482.8479,-421.2 482.8479,-385.2 583.8471,-385.2 583.8471,-421.2"/>
<text text-anchor="middle" x="533.3475" y="-399" font-family="Times,serif" font-size="14.00" fill="#000000"> thurdsay &lt;= 0 </text>
</g>
<!-- 11&#45;&gt;15 -->
<g id="edge17" class="edge">
<title>11&#45;&gt;15</title>
<path fill="none" stroke="#000000" d="M606.5968,-462.4099C593.8043,-452.0693 577.667,-439.0249 563.7969,-427.8133"/>
<polygon fill="#000000" stroke="#000000" points="565.9121,-425.0226 555.9349,-421.4581 561.5116,-430.4665 565.9121,-425.0226"/>
</g>
<!-- 16 -->
<g id="node19" class="node">
<title>16</title>
<polygon fill="none" stroke="#000000" points="754.4523,-421.2 608.2427,-421.2 608.2427,-385.2 754.4523,-385.2 754.4523,-421.2"/>
<text text-anchor="middle" x="681.3475" y="-399" font-family="Times,serif" font-size="14.00" fill="#000000"> income.index &lt;= 0.14 </text>
</g>
<!-- 11&#45;&gt;16 -->
<g id="edge18" class="edge">
<title>11&#45;&gt;16</title>
<path fill="none" stroke="#000000" d="M641.6708,-462.4099C648.1467,-452.7458 656.2052,-440.7201 663.3647,-430.0359"/>
<polygon fill="#000000" stroke="#000000" points="666.4535,-431.7138 669.1127,-421.4581 660.6383,-427.8171 666.4535,-431.7138"/>
</g>
<!-- 19 -->
<g id="node20" class="node">
<title>19</title>
<polygon fill="none" stroke="#000000" points="464.4523,-343.6 318.2427,-343.6 318.2427,-307.6 464.4523,-307.6 464.4523,-343.6"/>
<text text-anchor="middle" x="391.3475" y="-321.4" font-family="Times,serif" font-size="14.00" fill="#000000"> income.index &lt;= 0.14 </text>
</g>
<!-- 15&#45;&gt;19 -->
<g id="edge19" class="edge">
<title>15&#45;&gt;19</title>
<path fill="none" stroke="#000000" d="M500.0548,-385.0062C480.1145,-374.1093 454.5842,-360.1575 433.2764,-348.5133"/>
<polygon fill="#000000" stroke="#000000" points="434.8852,-345.4039 424.4316,-343.6798 431.5284,-351.5466 434.8852,-345.4039"/>
</g>
<!-- 20 -->
<g id="node21" class="node">
<title>20</title>
<polygon fill="none" stroke="#000000" points="578.742,-343.6 487.953,-343.6 487.953,-307.6 578.742,-307.6 578.742,-343.6"/>
<text text-anchor="middle" x="533.3475" y="-321.4" font-family="Times,serif" font-size="14.00" fill="#000000"> loan &lt;= 840 </text>
</g>
<!-- 15&#45;&gt;20 -->
<g id="edge20" class="edge">
<title>15&#45;&gt;20</title>
<path fill="none" stroke="#000000" d="M533.3475,-384.8099C533.3475,-375.629 533.3475,-364.3167 533.3475,-354.0482"/>
<polygon fill="#000000" stroke="#000000" points="536.8476,-353.8581 533.3475,-343.8581 529.8476,-353.8581 536.8476,-353.8581"/>
</g>
<!-- 21 -->
<g id="node36" class="node">
<title>21</title>
<polygon fill="none" stroke="#000000" points="730.242,-343.6 632.453,-343.6 632.453,-307.6 730.242,-307.6 730.242,-343.6"/>
<text text-anchor="middle" x="681.3475" y="-321.4" font-family="Times,serif" font-size="14.00" fill="#000000"> loan &lt;= 2780 </text>
</g>
<!-- 16&#45;&gt;21 -->
<g id="edge35" class="edge">
<title>16&#45;&gt;21</title>
<path fill="none" stroke="#000000" d="M681.3475,-384.8099C681.3475,-375.629 681.3475,-364.3167 681.3475,-354.0482"/>
<polygon fill="#000000" stroke="#000000" points="684.8476,-353.8581 681.3475,-343.8581 677.8476,-353.8581 684.8476,-353.8581"/>
</g>
<!-- 22 -->
<g id="node37" class="node">
<title>22</title>
<polygon fill="#c1b2ff" stroke="#c1b2ff" points="822.5431,-346.2019 748.1519,-346.2019 748.1519,-304.9981 822.5431,-304.9981 822.5431,-346.2019"/>
<text text-anchor="middle" x="785.3475" y="-329.8" font-family="Times,serif" font-size="14.00" fill="#000000">leaf node &#160;</text>
<text text-anchor="middle" x="785.3475" y="-313" font-family="Times,serif" font-size="14.00" fill="#000000">size = &#160;13 </text>
</g>
<!-- 16&#45;&gt;22 -->
<g id="edge36" class="edge">
<title>16&#45;&gt;22</title>
<path fill="none" stroke="#000000" d="M705.7309,-385.0062C718.6793,-375.3447 734.8461,-363.2818 749.2224,-352.5549"/>
<polygon fill="#000000" stroke="#000000" points="751.5205,-355.2071 757.4422,-346.4217 747.3343,-349.5968 751.5205,-355.2071"/>
</g>
<!-- 23 -->
<g id="node22" class="node">
<title>23</title>
<polygon fill="none" stroke="#000000" points="324.242,-266 226.453,-266 226.453,-230 324.242,-230 324.242,-266"/>
<text text-anchor="middle" x="275.3475" y="-243.8" font-family="Times,serif" font-size="14.00" fill="#000000"> loan &lt;= 1460 </text>
</g>
<!-- 19&#45;&gt;23 -->
<g id="edge21" class="edge">
<title>19&#45;&gt;23</title>
<path fill="none" stroke="#000000" d="M364.1507,-307.4062C348.2977,-296.8012 328.1197,-283.3028 311.0053,-271.8538"/>
<polygon fill="#000000" stroke="#000000" points="312.6317,-268.7309 302.374,-266.0798 308.7395,-274.5491 312.6317,-268.7309"/>
</g>
<!-- 24 -->
<g id="node23" class="node">
<title>24</title>
<polygon fill="none" stroke="#000000" points="440.242,-266 342.453,-266 342.453,-230 440.242,-230 440.242,-266"/>
<text text-anchor="middle" x="391.3475" y="-243.8" font-family="Times,serif" font-size="14.00" fill="#000000"> loan &lt;= 1070 </text>
</g>
<!-- 19&#45;&gt;24 -->
<g id="edge22" class="edge">
<title>19&#45;&gt;24</title>
<path fill="none" stroke="#000000" d="M391.3475,-307.2099C391.3475,-298.029 391.3475,-286.7167 391.3475,-276.4482"/>
<polygon fill="#000000" stroke="#000000" points="394.8476,-276.2581 391.3475,-266.2581 387.8476,-276.2581 394.8476,-276.2581"/>
</g>
<!-- 25 -->
<g id="node34" class="node">
<title>25</title>
<polygon fill="#c1b2ff" stroke="#c1b2ff" points="532.5431,-268.6019 458.1519,-268.6019 458.1519,-227.3981 532.5431,-227.3981 532.5431,-268.6019"/>
<text text-anchor="middle" x="495.3475" y="-252.2" font-family="Times,serif" font-size="14.00" fill="#000000">leaf node &#160;</text>
<text text-anchor="middle" x="495.3475" y="-235.4" font-family="Times,serif" font-size="14.00" fill="#000000">size = &#160;13 </text>
</g>
<!-- 20&#45;&gt;25 -->
<g id="edge33" class="edge">
<title>20&#45;&gt;25</title>
<path fill="none" stroke="#000000" d="M524.342,-307.2099C520.051,-298.4471 514.8091,-287.7426 509.9683,-277.8572"/>
<polygon fill="#000000" stroke="#000000" points="513.0355,-276.1622 505.4941,-268.7205 506.7488,-279.2408 513.0355,-276.1622"/>
</g>
<!-- 26 -->
<g id="node35" class="node">
<title>26</title>
<polygon fill="#c1b2ff" stroke="#c1b2ff" points="625.5431,-268.6019 551.1519,-268.6019 551.1519,-227.3981 625.5431,-227.3981 625.5431,-268.6019"/>
<text text-anchor="middle" x="588.3475" y="-252.2" font-family="Times,serif" font-size="14.00" fill="#000000">leaf node &#160;</text>
<text text-anchor="middle" x="588.3475" y="-235.4" font-family="Times,serif" font-size="14.00" fill="#000000">size = &#160;20 </text>
</g>
<!-- 20&#45;&gt;26 -->
<g id="edge34" class="edge">
<title>20&#45;&gt;26</title>
<path fill="none" stroke="#000000" d="M546.3817,-307.2099C552.7846,-298.176 560.65,-287.0786 567.8342,-276.9424"/>
<polygon fill="#000000" stroke="#000000" points="570.7345,-278.903 573.6616,-268.7205 565.0235,-274.8552 570.7345,-278.903"/>
</g>
<!-- 29 -->
<g id="node24" class="node">
<title>29</title>
<polygon fill="none" stroke="#000000" points="225.6313,-188.4 131.0637,-188.4 131.0637,-152.4 225.6313,-152.4 225.6313,-188.4"/>
<text text-anchor="middle" x="178.3475" y="-166.2" font-family="Times,serif" font-size="14.00" fill="#000000"> savings &lt;= 0 </text>
</g>
<!-- 23&#45;&gt;29 -->
<g id="edge23" class="edge">
<title>23&#45;&gt;29</title>
<path fill="none" stroke="#000000" d="M252.3599,-229.6099C239.4341,-219.2693 223.1286,-206.2249 209.1141,-195.0133"/>
<polygon fill="#000000" stroke="#000000" points="211.1653,-192.1721 201.1701,-188.6581 206.7924,-197.6381 211.1653,-192.1721"/>
</g>
<!-- 30 -->
<g id="node25" class="node">
<title>30</title>
<polygon fill="#c1b2ff" stroke="#c1b2ff" points="318.5431,-191.0019 244.1519,-191.0019 244.1519,-149.7981 318.5431,-149.7981 318.5431,-191.0019"/>
<text text-anchor="middle" x="281.3475" y="-174.6" font-family="Times,serif" font-size="14.00" fill="#000000">leaf node &#160;</text>
<text text-anchor="middle" x="281.3475" y="-157.8" font-family="Times,serif" font-size="14.00" fill="#000000">size = &#160;16 </text>
</g>
<!-- 23&#45;&gt;30 -->
<g id="edge24" class="edge">
<title>23&#45;&gt;30</title>
<path fill="none" stroke="#000000" d="M276.7694,-229.6099C277.426,-221.1181 278.2236,-210.8029 278.9679,-201.1766"/>
<polygon fill="#000000" stroke="#000000" points="282.464,-201.3606 279.7454,-191.1205 275.4848,-200.8209 282.464,-201.3606"/>
</g>
<!-- 31 -->
<g id="node32" class="node">
<title>31</title>
<polygon fill="#c1b2ff" stroke="#c1b2ff" points="422.5431,-191.0019 348.1519,-191.0019 348.1519,-149.7981 422.5431,-149.7981 422.5431,-191.0019"/>
<text text-anchor="middle" x="385.3475" y="-174.6" font-family="Times,serif" font-size="14.00" fill="#000000">leaf node &#160;</text>
<text text-anchor="middle" x="385.3475" y="-157.8" font-family="Times,serif" font-size="14.00" fill="#000000">size = &#160;22 </text>
</g>
<!-- 24&#45;&gt;31 -->
<g id="edge31" class="edge">
<title>24&#45;&gt;31</title>
<path fill="none" stroke="#000000" d="M389.9256,-229.6099C389.269,-221.1181 388.4714,-210.8029 387.7271,-201.1766"/>
<polygon fill="#000000" stroke="#000000" points="391.2102,-200.8209 386.9496,-191.1205 384.231,-201.3606 391.2102,-200.8209"/>
</g>
<!-- 32 -->
<g id="node33" class="node">
<title>32</title>
<polygon fill="#c1b2ff" stroke="#c1b2ff" points="515.5431,-191.0019 441.1519,-191.0019 441.1519,-149.7981 515.5431,-149.7981 515.5431,-191.0019"/>
<text text-anchor="middle" x="478.3475" y="-174.6" font-family="Times,serif" font-size="14.00" fill="#000000">leaf node &#160;</text>
<text text-anchor="middle" x="478.3475" y="-157.8" font-family="Times,serif" font-size="14.00" fill="#000000">size = &#160;11 </text>
</g>
<!-- 24&#45;&gt;32 -->
<g id="edge32" class="edge">
<title>24&#45;&gt;32</title>
<path fill="none" stroke="#000000" d="M411.9653,-229.6099C422.5998,-220.1243 435.7851,-208.3637 447.5953,-197.8296"/>
<polygon fill="#000000" stroke="#000000" points="449.984,-200.3889 455.117,-191.1205 445.3245,-195.165 449.984,-200.3889"/>
</g>
<!-- 33 -->
<g id="node26" class="node">
<title>33</title>
<polygon fill="none" stroke="#000000" points="172.742,-113.6 81.953,-113.6 81.953,-77.6 172.742,-77.6 172.742,-113.6"/>
<text text-anchor="middle" x="127.3475" y="-91.4" font-family="Times,serif" font-size="14.00" fill="#000000"> loan &lt;= 740 </text>
</g>
<!-- 29&#45;&gt;33 -->
<g id="edge25" class="edge">
<title>29&#45;&gt;33</title>
<path fill="none" stroke="#000000" d="M166.0018,-152.293C159.8456,-143.2639 152.2809,-132.169 145.4807,-122.1954"/>
<polygon fill="#000000" stroke="#000000" points="148.2815,-120.0901 139.7563,-113.7995 142.4979,-124.0335 148.2815,-120.0901"/>
</g>
<!-- 34 -->
<g id="node27" class="node">
<title>34</title>
<polygon fill="none" stroke="#000000" points="270.0662,-113.6 190.6288,-113.6 190.6288,-77.6 270.0662,-77.6 270.0662,-113.6"/>
<text text-anchor="middle" x="230.3475" y="-91.4" font-family="Times,serif" font-size="14.00" fill="#000000"> age &lt;= 35 </text>
</g>
<!-- 29&#45;&gt;34 -->
<g id="edge26" class="edge">
<title>29&#45;&gt;34</title>
<path fill="none" stroke="#000000" d="M190.9352,-152.293C197.2121,-143.2639 204.9252,-132.169 211.8587,-122.1954"/>
<polygon fill="#000000" stroke="#000000" points="214.8611,-124.0082 217.6954,-113.7995 209.1135,-120.0125 214.8611,-124.0082"/>
</g>
<!-- 35 -->
<g id="node28" class="node">
<title>35</title>
<polygon fill="#c1b2ff" stroke="#c1b2ff" points="74.5431,-41.4019 .1519,-41.4019 .1519,-.1981 74.5431,-.1981 74.5431,-41.4019"/>
<text text-anchor="middle" x="37.3475" y="-25" font-family="Times,serif" font-size="14.00" fill="#000000">leaf node &#160;</text>
<text text-anchor="middle" x="37.3475" y="-8.2" font-family="Times,serif" font-size="14.00" fill="#000000">size = &#160;15 </text>
</g>
<!-- 33&#45;&gt;35 -->
<g id="edge27" class="edge">
<title>33&#45;&gt;35</title>
<path fill="none" stroke="#000000" d="M105.561,-77.493C94.9938,-68.7105 82.0749,-57.9734 70.3334,-48.215"/>
<polygon fill="#000000" stroke="#000000" points="72.364,-45.3516 62.4362,-41.6515 67.8897,-50.735 72.364,-45.3516"/>
</g>
<!-- 36 -->
<g id="node29" class="node">
<title>36</title>
<polygon fill="#c1b2ff" stroke="#c1b2ff" points="167.5431,-41.4019 93.1519,-41.4019 93.1519,-.1981 167.5431,-.1981 167.5431,-41.4019"/>
<text text-anchor="middle" x="130.3475" y="-25" font-family="Times,serif" font-size="14.00" fill="#000000">leaf node &#160;</text>
<text text-anchor="middle" x="130.3475" y="-8.2" font-family="Times,serif" font-size="14.00" fill="#000000">size = &#160;26 </text>
</g>
<!-- 33&#45;&gt;36 -->
<g id="edge28" class="edge">
<title>33&#45;&gt;36</title>
<path fill="none" stroke="#000000" d="M128.0737,-77.493C128.3819,-69.8083 128.7502,-60.6272 129.0996,-51.9145"/>
<polygon fill="#000000" stroke="#000000" points="132.6076,-51.7838 129.5112,-41.6515 125.6132,-51.5032 132.6076,-51.7838"/>
</g>
<!-- 37 -->
<g id="node30" class="node">
<title>37</title>
<polygon fill="#c1b2ff" stroke="#c1b2ff" points="265.5431,-41.4019 191.1519,-41.4019 191.1519,-.1981 265.5431,-.1981 265.5431,-41.4019"/>
<text text-anchor="middle" x="228.3475" y="-25" font-family="Times,serif" font-size="14.00" fill="#000000">leaf node &#160;</text>
<text text-anchor="middle" x="228.3475" y="-8.2" font-family="Times,serif" font-size="14.00" fill="#000000">size = &#160;10 </text>
</g>
<!-- 34&#45;&gt;37 -->
<g id="edge29" class="edge">
<title>34&#45;&gt;37</title>
<path fill="none" stroke="#000000" d="M229.8634,-77.493C229.6579,-69.8083 229.4124,-60.6272 229.1794,-51.9145"/>
<polygon fill="#000000" stroke="#000000" points="232.6712,-51.5543 228.905,-41.6515 225.6737,-51.7415 232.6712,-51.5543"/>
</g>
<!-- 38 -->
<g id="node31" class="node">
<title>38</title>
<polygon fill="#c1b2ff" stroke="#c1b2ff" points="358.5431,-41.4019 284.1519,-41.4019 284.1519,-.1981 358.5431,-.1981 358.5431,-41.4019"/>
<text text-anchor="middle" x="321.3475" y="-25" font-family="Times,serif" font-size="14.00" fill="#000000">leaf node &#160;</text>
<text text-anchor="middle" x="321.3475" y="-8.2" font-family="Times,serif" font-size="14.00" fill="#000000">size = &#160;9 </text>
</g>
<!-- 34&#45;&gt;38 -->
<g id="edge30" class="edge">
<title>34&#45;&gt;38</title>
<path fill="none" stroke="#000000" d="M252.3761,-77.493C263.0606,-68.7105 276.1231,-57.9734 287.9951,-48.215"/>
<polygon fill="#000000" stroke="#000000" points="290.4773,-50.7053 295.98,-41.6515 286.0323,-45.2976 290.4773,-50.7053"/>
</g>
<!-- 27 -->
<g id="node38" class="node">
<title>27</title>
<polygon fill="#c1b2ff" stroke="#c1b2ff" points="718.5431,-268.6019 644.1519,-268.6019 644.1519,-227.3981 718.5431,-227.3981 718.5431,-268.6019"/>
<text text-anchor="middle" x="681.3475" y="-252.2" font-family="Times,serif" font-size="14.00" fill="#000000">leaf node &#160;</text>
<text text-anchor="middle" x="681.3475" y="-235.4" font-family="Times,serif" font-size="14.00" fill="#000000">size = &#160;11 </text>
</g>
<!-- 21&#45;&gt;27 -->
<g id="edge37" class="edge">
<title>21&#45;&gt;27</title>
<path fill="none" stroke="#000000" d="M681.3475,-307.2099C681.3475,-298.7181 681.3475,-288.4029 681.3475,-278.7766"/>
<polygon fill="#000000" stroke="#000000" points="684.8476,-278.7205 681.3475,-268.7205 677.8476,-278.7205 684.8476,-278.7205"/>
</g>
<!-- 28 -->
<g id="node39" class="node">
<title>28</title>
<polygon fill="#c1b2ff" stroke="#c1b2ff" points="811.5431,-268.6019 737.1519,-268.6019 737.1519,-227.3981 811.5431,-227.3981 811.5431,-268.6019"/>
<text text-anchor="middle" x="774.3475" y="-252.2" font-family="Times,serif" font-size="14.00" fill="#000000">leaf node &#160;</text>
<text text-anchor="middle" x="774.3475" y="-235.4" font-family="Times,serif" font-size="14.00" fill="#000000">size = &#160;15 </text>
</g>
<!-- 21&#45;&gt;28 -->
<g id="edge38" class="edge">
<title>21&#45;&gt;28</title>
<path fill="none" stroke="#000000" d="M703.3872,-307.2099C714.8634,-297.634 729.1185,-285.7395 741.8347,-275.1289"/>
<polygon fill="#000000" stroke="#000000" points="744.0791,-277.8146 749.5149,-268.7205 739.5944,-272.4399 744.0791,-277.8146"/>
</g>
</g>
</svg>
