<?xml version="1.0" encoding="UTF-8" standalone="no"?>
<!DOCTYPE svg PUBLIC "-//W3C//DTD SVG 1.1//EN"
 "http://www.w3.org/Graphics/SVG/1.1/DTD/svg11.dtd">
<!-- Generated by graphviz version 2.40.1 (20161225.0304)
 -->
<!-- Title: nodes Pages: 1 -->
<svg width="1446pt" height="566pt"
 viewBox="0.00 0.00 1445.88 565.60" xmlns="http://www.w3.org/2000/svg" xmlns:xlink="http://www.w3.org/1999/xlink">
<g id="graph0" class="graph" transform="scale(1 1) rotate(0) translate(4 561.6)">
<title>nodes</title>
<polygon fill="#ffffff" stroke="transparent" points="-4,4 -4,-561.6 1441.8764,-561.6 1441.8764,4 -4,4"/>
<!-- 0 -->
<g id="node1" class="node">
<title>0</title>
<polygon fill="none" stroke="#000000" points="718.5394,-557.6 590.337,-557.6 590.337,-521.6 718.5394,-521.6 718.5394,-557.6"/>
<text text-anchor="middle" x="654.4382" y="-535.4" font-family="Times,serif" font-size="14.00" fill="#000000"> transport.cost &lt;= 4 </text>
</g>
<!-- 1 -->
<g id="node2" class="node">
<title>1</title>
<polygon fill="none" stroke="#000000" points="575.1569,-485.6 495.7195,-485.6 495.7195,-449.6 575.1569,-449.6 575.1569,-485.6"/>
<text text-anchor="middle" x="535.4382" y="-463.4" font-family="Times,serif" font-size="14.00" fill="#000000"> age &lt;= 44 </text>
</g>
<!-- 0&#45;&gt;1 -->
<g id="edge1" class="edge">
<title>0&#45;&gt;1</title>
<path fill="none" stroke="#000000" d="M624.4095,-521.4314C609.1886,-512.2221 590.5254,-500.9301 574.2299,-491.0706"/>
<polygon fill="#000000" stroke="#000000" points="575.825,-487.945 565.4573,-485.7628 572.2013,-493.9341 575.825,-487.945"/>
<text text-anchor="middle" x="571.431" y="-505.8387" font-family="Times,serif" font-size="14.00" fill="#000000">True</text>
</g>
<!-- 2 -->
<g id="node3" class="node">
<title>2</title>
<polygon fill="none" stroke="#000000" points="893.9926,-485.6 770.8838,-485.6 770.8838,-449.6 893.9926,-449.6 893.9926,-485.6"/>
<text text-anchor="middle" x="832.4382" y="-463.4" font-family="Times,serif" font-size="14.00" fill="#000000"> suc_x_dia &lt;= 275 </text>
</g>
<!-- 0&#45;&gt;2 -->
<g id="edge2" class="edge">
<title>0&#45;&gt;2</title>
<path fill="none" stroke="#000000" d="M699.3551,-521.4314C723.3732,-511.7162 753.1216,-499.6831 778.3974,-489.4592"/>
<polygon fill="#000000" stroke="#000000" points="779.8864,-492.6325 787.8443,-485.638 777.2615,-486.1432 779.8864,-492.6325"/>
<text text-anchor="middle" x="778.0853" y="-504.4545" font-family="Times,serif" font-size="14.00" fill="#000000">False</text>
</g>
<!-- 3 -->
<g id="node4" class="node">
<title>3</title>
<polygon fill="none" stroke="#000000" points="407.9926,-413.6 284.8838,-413.6 284.8838,-377.6 407.9926,-377.6 407.9926,-413.6"/>
<text text-anchor="middle" x="346.4382" y="-391.4" font-family="Times,serif" font-size="14.00" fill="#000000"> suc_x_dia &lt;= 360 </text>
</g>
<!-- 1&#45;&gt;3 -->
<g id="edge3" class="edge">
<title>1&#45;&gt;3</title>
<path fill="none" stroke="#000000" d="M495.8176,-452.5064C468.9575,-442.274 433.0451,-428.5931 403.1643,-417.2099"/>
<polygon fill="#000000" stroke="#000000" points="404.2846,-413.8914 393.6937,-413.6021 401.7926,-420.4328 404.2846,-413.8914"/>
</g>
<!-- 4 -->
<g id="node5" class="node">
<title>4</title>
<polygon fill="none" stroke="#000000" points="584.3285,-413.6 486.5479,-413.6 486.5479,-377.6 584.3285,-377.6 584.3285,-413.6"/>
<text text-anchor="middle" x="535.4382" y="-391.4" font-family="Times,serif" font-size="14.00" fill="#000000"> tempted &lt;= 0 </text>
</g>
<!-- 1&#45;&gt;4 -->
<g id="edge4" class="edge">
<title>1&#45;&gt;4</title>
<path fill="none" stroke="#000000" d="M535.4382,-449.4314C535.4382,-441.731 535.4382,-432.5743 535.4382,-424.0166"/>
<polygon fill="#000000" stroke="#000000" points="538.9383,-424.0132 535.4382,-414.0133 531.9383,-424.0133 538.9383,-424.0132"/>
</g>
<!-- 5 -->
<g id="node18" class="node">
<title>5</title>
<polygon fill="none" stroke="#000000" points="897.5971,-413.6 767.2793,-413.6 767.2793,-377.6 897.5971,-377.6 897.5971,-413.6"/>
<text text-anchor="middle" x="832.4382" y="-391.4" font-family="Times,serif" font-size="14.00" fill="#000000"> makes.budget &lt;= 0 </text>
</g>
<!-- 2&#45;&gt;5 -->
<g id="edge17" class="edge">
<title>2&#45;&gt;5</title>
<path fill="none" stroke="#000000" d="M832.4382,-449.4314C832.4382,-441.731 832.4382,-432.5743 832.4382,-424.0166"/>
<polygon fill="#000000" stroke="#000000" points="835.9383,-424.0132 832.4382,-414.0133 828.9383,-424.0133 835.9383,-424.0132"/>
</g>
<!-- 6 -->
<g id="node19" class="node">
<title>6</title>
<polygon fill="none" stroke="#000000" points="1104.7939,-413.6 968.0825,-413.6 968.0825,-377.6 1104.7939,-377.6 1104.7939,-413.6"/>
<text text-anchor="middle" x="1036.4382" y="-391.4" font-family="Times,serif" font-size="14.00" fill="#000000"> future.patience &lt;= 0 </text>
</g>
<!-- 2&#45;&gt;6 -->
<g id="edge18" class="edge">
<title>2&#45;&gt;6</title>
<path fill="none" stroke="#000000" d="M883.6527,-449.5243C911.5407,-439.6815 946.2288,-427.4386 975.5009,-417.1073"/>
<polygon fill="#000000" stroke="#000000" points="976.9376,-420.3119 985.2026,-413.6831 974.6078,-413.7109 976.9376,-420.3119"/>
</g>
<!-- 7 -->
<g id="node6" class="node">
<title>7</title>
<polygon fill="none" stroke="#000000" points="278.3679,-330.4 178.5085,-330.4 178.5085,-294.4 278.3679,-294.4 278.3679,-330.4"/>
<text text-anchor="middle" x="228.4382" y="-308.2" font-family="Times,serif" font-size="14.00" fill="#000000"> patience &lt;= 0 </text>
</g>
<!-- 3&#45;&gt;7 -->
<g id="edge5" class="edge">
<title>3&#45;&gt;7</title>
<path fill="none" stroke="#000000" d="M320.834,-377.5468C303.6701,-365.4449 280.8839,-349.3786 262.2348,-336.2295"/>
<polygon fill="#000000" stroke="#000000" points="264.1821,-333.32 253.9925,-330.4179 260.1484,-339.0409 264.1821,-333.32"/>
</g>
<!-- 8 -->
<g id="node7" class="node">
<title>8</title>
<polygon fill="#c1b2ff" stroke="#c1b2ff" points="396.8147,-341.8014 296.0617,-341.8014 296.0617,-282.9986 396.8147,-282.9986 396.8147,-341.8014"/>
<text text-anchor="middle" x="346.4382" y="-325" font-family="Times,serif" font-size="14.00" fill="#000000">size = &#160;31 </text>
<text text-anchor="middle" x="346.4382" y="-308.2" font-family="Times,serif" font-size="14.00" fill="#000000"> avg_Y = &#45;1.68</text>
<text text-anchor="middle" x="346.4382" y="-291.4" font-family="Times,serif" font-size="14.00" fill="#000000">avg_W = 0.32 </text>
</g>
<!-- 3&#45;&gt;8 -->
<g id="edge6" class="edge">
<title>3&#45;&gt;8</title>
<path fill="none" stroke="#000000" d="M346.4382,-377.5468C346.4382,-369.9769 346.4382,-360.856 346.4382,-351.8681"/>
<polygon fill="#000000" stroke="#000000" points="349.9383,-351.8667 346.4382,-341.8668 342.9383,-351.8668 349.9383,-351.8667"/>
</g>
<!-- 9 -->
<g id="node14" class="node">
<title>9</title>
<polygon fill="#c1b2ff" stroke="#c1b2ff" points="515.8147,-341.8014 415.0617,-341.8014 415.0617,-282.9986 515.8147,-282.9986 515.8147,-341.8014"/>
<text text-anchor="middle" x="465.4382" y="-325" font-family="Times,serif" font-size="14.00" fill="#000000">size = &#160;21 </text>
<text text-anchor="middle" x="465.4382" y="-308.2" font-family="Times,serif" font-size="14.00" fill="#000000"> avg_Y = &#45;1.43</text>
<text text-anchor="middle" x="465.4382" y="-291.4" font-family="Times,serif" font-size="14.00" fill="#000000">avg_W = 0.62 </text>
</g>
<!-- 4&#45;&gt;9 -->
<g id="edge13" class="edge">
<title>4&#45;&gt;9</title>
<path fill="none" stroke="#000000" d="M520.2492,-377.5468C513.3325,-369.3258 504.8766,-359.2753 496.6964,-349.5527"/>
<polygon fill="#000000" stroke="#000000" points="499.3461,-347.2655 490.2299,-341.8668 493.9897,-351.7721 499.3461,-347.2655"/>
</g>
<!-- 10 -->
<g id="node15" class="node">
<title>10</title>
<polygon fill="none" stroke="#000000" points="656.9926,-330.4 533.8838,-330.4 533.8838,-294.4 656.9926,-294.4 656.9926,-330.4"/>
<text text-anchor="middle" x="595.4382" y="-308.2" font-family="Times,serif" font-size="14.00" fill="#000000"> suc_x_dia &lt;= 318 </text>
</g>
<!-- 4&#45;&gt;10 -->
<g id="edge14" class="edge">
<title>4&#45;&gt;10</title>
<path fill="none" stroke="#000000" d="M548.4573,-377.5468C556.6343,-366.2081 567.321,-351.3892 576.4356,-338.7502"/>
<polygon fill="#000000" stroke="#000000" points="579.4341,-340.5761 582.4445,-330.4179 573.7564,-336.4816 579.4341,-340.5761"/>
</g>
<!-- 15 -->
<g id="node8" class="node">
<title>15</title>
<polygon fill="none" stroke="#000000" points="214.1569,-236 134.7195,-236 134.7195,-200 214.1569,-200 214.1569,-236"/>
<text text-anchor="middle" x="174.4382" y="-213.8" font-family="Times,serif" font-size="14.00" fill="#000000"> age &lt;= 32 </text>
</g>
<!-- 7&#45;&gt;15 -->
<g id="edge7" class="edge">
<title>7&#45;&gt;15</title>
<path fill="none" stroke="#000000" d="M218.0265,-294.1987C210.0331,-280.2251 198.8727,-260.7152 189.8461,-244.9353"/>
<polygon fill="#000000" stroke="#000000" points="192.8214,-243.0877 184.818,-236.1454 186.7453,-246.5635 192.8214,-243.0877"/>
</g>
<!-- 16 -->
<g id="node9" class="node">
<title>16</title>
<polygon fill="#c1b2ff" stroke="#c1b2ff" points="332.8147,-247.4014 232.0617,-247.4014 232.0617,-188.5986 332.8147,-188.5986 332.8147,-247.4014"/>
<text text-anchor="middle" x="282.4382" y="-230.6" font-family="Times,serif" font-size="14.00" fill="#000000">size = &#160;15 </text>
<text text-anchor="middle" x="282.4382" y="-213.8" font-family="Times,serif" font-size="14.00" fill="#000000"> avg_Y = &#45;1.18</text>
<text text-anchor="middle" x="282.4382" y="-197" font-family="Times,serif" font-size="14.00" fill="#000000">avg_W = 0.6 </text>
</g>
<!-- 7&#45;&gt;16 -->
<g id="edge8" class="edge">
<title>7&#45;&gt;16</title>
<path fill="none" stroke="#000000" d="M238.8499,-294.1987C245.0255,-283.4029 253.0914,-269.3025 260.6032,-256.1707"/>
<polygon fill="#000000" stroke="#000000" points="263.7578,-257.7048 265.6852,-247.2868 257.6817,-254.229 263.7578,-257.7048"/>
</g>
<!-- 25 -->
<g id="node10" class="node">
<title>25</title>
<polygon fill="none" stroke="#000000" points="170.9926,-141.6 47.8838,-141.6 47.8838,-105.6 170.9926,-105.6 170.9926,-141.6"/>
<text text-anchor="middle" x="109.4382" y="-119.4" font-family="Times,serif" font-size="14.00" fill="#000000"> suc_x_dia &lt;= 281 </text>
</g>
<!-- 15&#45;&gt;25 -->
<g id="edge9" class="edge">
<title>15&#45;&gt;25</title>
<path fill="none" stroke="#000000" d="M161.9055,-199.7987C152.194,-185.6945 138.5987,-165.95 127.6808,-150.0938"/>
<polygon fill="#000000" stroke="#000000" points="130.4864,-147.9968 121.9324,-141.7454 124.7209,-151.9667 130.4864,-147.9968"/>
</g>
<!-- 26 -->
<g id="node11" class="node">
<title>26</title>
<polygon fill="#c1b2ff" stroke="#c1b2ff" points="289.8147,-153.0014 189.0617,-153.0014 189.0617,-94.1986 289.8147,-94.1986 289.8147,-153.0014"/>
<text text-anchor="middle" x="239.4382" y="-136.2" font-family="Times,serif" font-size="14.00" fill="#000000">size = &#160;14 </text>
<text text-anchor="middle" x="239.4382" y="-119.4" font-family="Times,serif" font-size="14.00" fill="#000000"> avg_Y = &#45;1.52</text>
<text text-anchor="middle" x="239.4382" y="-102.6" font-family="Times,serif" font-size="14.00" fill="#000000">avg_W = 0.36 </text>
</g>
<!-- 15&#45;&gt;26 -->
<g id="edge10" class="edge">
<title>15&#45;&gt;26</title>
<path fill="none" stroke="#000000" d="M186.9709,-199.7987C194.4759,-188.8991 204.3003,-174.6311 213.416,-161.3922"/>
<polygon fill="#000000" stroke="#000000" points="216.484,-163.1081 219.2725,-152.8868 210.7185,-159.1382 216.484,-163.1081"/>
</g>
<!-- 31 -->
<g id="node12" class="node">
<title>31</title>
<polygon fill="#c1b2ff" stroke="#c1b2ff" points="100.8147,-58.6014 .0617,-58.6014 .0617,.2014 100.8147,.2014 100.8147,-58.6014"/>
<text text-anchor="middle" x="50.4382" y="-41.8" font-family="Times,serif" font-size="14.00" fill="#000000">size = &#160;10 </text>
<text text-anchor="middle" x="50.4382" y="-25" font-family="Times,serif" font-size="14.00" fill="#000000"> avg_Y = &#45;2.54</text>
<text text-anchor="middle" x="50.4382" y="-8.2" font-family="Times,serif" font-size="14.00" fill="#000000">avg_W = 0.8 </text>
</g>
<!-- 25&#45;&gt;31 -->
<g id="edge11" class="edge">
<title>25&#45;&gt;31</title>
<path fill="none" stroke="#000000" d="M98.0624,-105.3987C91.2501,-94.4991 82.3326,-80.2311 74.0583,-66.9922"/>
<polygon fill="#000000" stroke="#000000" points="77.0105,-65.1117 68.7424,-58.4868 71.0745,-68.8218 77.0105,-65.1117"/>
</g>
<!-- 32 -->
<g id="node13" class="node">
<title>32</title>
<polygon fill="#c1b2ff" stroke="#c1b2ff" points="219.8147,-58.6014 119.0617,-58.6014 119.0617,.2014 219.8147,.2014 219.8147,-58.6014"/>
<text text-anchor="middle" x="169.4382" y="-41.8" font-family="Times,serif" font-size="14.00" fill="#000000">size = &#160;4 </text>
<text text-anchor="middle" x="169.4382" y="-25" font-family="Times,serif" font-size="14.00" fill="#000000"> avg_Y = &#45;1.79</text>
<text text-anchor="middle" x="169.4382" y="-8.2" font-family="Times,serif" font-size="14.00" fill="#000000">avg_W = 1 </text>
</g>
<!-- 25&#45;&gt;32 -->
<g id="edge12" class="edge">
<title>25&#45;&gt;32</title>
<path fill="none" stroke="#000000" d="M121.0068,-105.3987C127.9345,-94.4991 137.0032,-80.2311 145.4177,-66.9922"/>
<polygon fill="#000000" stroke="#000000" points="148.4134,-68.8038 150.8237,-58.4868 142.5057,-65.0489 148.4134,-68.8038"/>
</g>
<!-- 17 -->
<g id="node16" class="node">
<title>17</title>
<polygon fill="#c1b2ff" stroke="#c1b2ff" points="527.3147,-247.4014 433.5617,-247.4014 433.5617,-188.5986 527.3147,-188.5986 527.3147,-247.4014"/>
<text text-anchor="middle" x="480.4382" y="-230.6" font-family="Times,serif" font-size="14.00" fill="#000000">size = &#160;10 </text>
<text text-anchor="middle" x="480.4382" y="-213.8" font-family="Times,serif" font-size="14.00" fill="#000000"> avg_Y = &#45;1.3</text>
<text text-anchor="middle" x="480.4382" y="-197" font-family="Times,serif" font-size="14.00" fill="#000000">avg_W = 0.5 </text>
</g>
<!-- 10&#45;&gt;17 -->
<g id="edge15" class="edge">
<title>10&#45;&gt;17</title>
<path fill="none" stroke="#000000" d="M573.265,-294.1987C559.3546,-282.7801 540.9406,-267.6646 524.1826,-253.9084"/>
<polygon fill="#000000" stroke="#000000" points="526.066,-250.9263 516.1159,-247.2868 521.6246,-256.3369 526.066,-250.9263"/>
</g>
<!-- 18 -->
<g id="node17" class="node">
<title>18</title>
<polygon fill="#c1b2ff" stroke="#c1b2ff" points="645.8147,-247.4014 545.0617,-247.4014 545.0617,-188.5986 645.8147,-188.5986 645.8147,-247.4014"/>
<text text-anchor="middle" x="595.4382" y="-230.6" font-family="Times,serif" font-size="14.00" fill="#000000">size = &#160;16 </text>
<text text-anchor="middle" x="595.4382" y="-213.8" font-family="Times,serif" font-size="14.00" fill="#000000"> avg_Y = &#45;1.06</text>
<text text-anchor="middle" x="595.4382" y="-197" font-family="Times,serif" font-size="14.00" fill="#000000">avg_W = 0.62 </text>
</g>
<!-- 10&#45;&gt;18 -->
<g id="edge16" class="edge">
<title>10&#45;&gt;18</title>
<path fill="none" stroke="#000000" d="M595.4382,-294.1987C595.4382,-283.7143 595.4382,-270.1133 595.4382,-257.3095"/>
<polygon fill="#000000" stroke="#000000" points="598.9383,-257.2867 595.4382,-247.2868 591.9383,-257.2868 598.9383,-257.2867"/>
</g>
<!-- 11 -->
<g id="node20" class="node">
<title>11</title>
<polygon fill="none" stroke="#000000" points="825.8131,-330.4 735.0633,-330.4 735.0633,-294.4 825.8131,-294.4 825.8131,-330.4"/>
<text text-anchor="middle" x="780.4382" y="-308.2" font-family="Times,serif" font-size="14.00" fill="#000000"> female &lt;= 0 </text>
</g>
<!-- 5&#45;&gt;11 -->
<g id="edge19" class="edge">
<title>5&#45;&gt;11</title>
<path fill="none" stroke="#000000" d="M821.155,-377.5468C814.1364,-366.3171 804.9844,-351.6739 797.1353,-339.1154"/>
<polygon fill="#000000" stroke="#000000" points="799.9674,-337.0429 791.6994,-330.4179 794.0314,-340.7529 799.9674,-337.0429"/>
</g>
<!-- 12 -->
<g id="node21" class="node">
<title>12</title>
<polygon fill="#c1b2ff" stroke="#c1b2ff" points="944.8147,-341.8014 844.0617,-341.8014 844.0617,-282.9986 944.8147,-282.9986 944.8147,-341.8014"/>
<text text-anchor="middle" x="894.4382" y="-325" font-family="Times,serif" font-size="14.00" fill="#000000">size = &#160;41 </text>
<text text-anchor="middle" x="894.4382" y="-308.2" font-family="Times,serif" font-size="14.00" fill="#000000"> avg_Y = &#45;1.97</text>
<text text-anchor="middle" x="894.4382" y="-291.4" font-family="Times,serif" font-size="14.00" fill="#000000">avg_W = 0.39 </text>
</g>
<!-- 5&#45;&gt;12 -->
<g id="edge20" class="edge">
<title>5&#45;&gt;12</title>
<path fill="none" stroke="#000000" d="M845.8913,-377.5468C851.8962,-369.4886 859.211,-359.6726 866.3216,-350.1306"/>
<polygon fill="#000000" stroke="#000000" points="869.3109,-351.9766 872.4798,-341.8668 863.698,-347.7939 869.3109,-351.9766"/>
</g>
<!-- 13 -->
<g id="node24" class="node">
<title>13</title>
<polygon fill="none" stroke="#000000" points="1076.1569,-330.4 996.7195,-330.4 996.7195,-294.4 1076.1569,-294.4 1076.1569,-330.4"/>
<text text-anchor="middle" x="1036.4382" y="-308.2" font-family="Times,serif" font-size="14.00" fill="#000000"> age &lt;= 38 </text>
</g>
<!-- 6&#45;&gt;13 -->
<g id="edge23" class="edge">
<title>6&#45;&gt;13</title>
<path fill="none" stroke="#000000" d="M1036.4382,-377.5468C1036.4382,-366.7532 1036.4382,-352.8061 1036.4382,-340.5876"/>
<polygon fill="#000000" stroke="#000000" points="1039.9383,-340.4179 1036.4382,-330.4179 1032.9383,-340.418 1039.9383,-340.4179"/>
</g>
<!-- 14 -->
<g id="node25" class="node">
<title>14</title>
<polygon fill="none" stroke="#000000" points="1257.5971,-330.4 1127.2793,-330.4 1127.2793,-294.4 1257.5971,-294.4 1257.5971,-330.4"/>
<text text-anchor="middle" x="1192.4382" y="-308.2" font-family="Times,serif" font-size="14.00" fill="#000000"> makes.budget &lt;= 0 </text>
</g>
<!-- 6&#45;&gt;14 -->
<g id="edge24" class="edge">
<title>6&#45;&gt;14</title>
<path fill="none" stroke="#000000" d="M1070.2879,-377.5468C1093.5923,-365.1178 1124.737,-348.5073 1149.7448,-335.1698"/>
<polygon fill="#000000" stroke="#000000" points="1151.4781,-338.2121 1158.6546,-330.4179 1148.184,-332.0356 1151.4781,-338.2121"/>
</g>
<!-- 19 -->
<g id="node22" class="node">
<title>19</title>
<polygon fill="#c1b2ff" stroke="#c1b2ff" points="764.8147,-247.4014 664.0617,-247.4014 664.0617,-188.5986 764.8147,-188.5986 764.8147,-247.4014"/>
<text text-anchor="middle" x="714.4382" y="-230.6" font-family="Times,serif" font-size="14.00" fill="#000000">size = &#160;8 </text>
<text text-anchor="middle" x="714.4382" y="-213.8" font-family="Times,serif" font-size="14.00" fill="#000000"> avg_Y = &#45;2.18</text>
<text text-anchor="middle" x="714.4382" y="-197" font-family="Times,serif" font-size="14.00" fill="#000000">avg_W = 0.38 </text>
</g>
<!-- 11&#45;&gt;19 -->
<g id="edge21" class="edge">
<title>11&#45;&gt;19</title>
<path fill="none" stroke="#000000" d="M767.7127,-294.1987C760.0922,-283.2991 750.1167,-269.0311 740.8607,-255.7922"/>
<polygon fill="#000000" stroke="#000000" points="743.5126,-253.4769 734.9141,-247.2868 737.7757,-257.4879 743.5126,-253.4769"/>
</g>
<!-- 20 -->
<g id="node23" class="node">
<title>20</title>
<polygon fill="#c1b2ff" stroke="#c1b2ff" points="883.8147,-247.4014 783.0617,-247.4014 783.0617,-188.5986 883.8147,-188.5986 883.8147,-247.4014"/>
<text text-anchor="middle" x="833.4382" y="-230.6" font-family="Times,serif" font-size="14.00" fill="#000000">size = &#160;18 </text>
<text text-anchor="middle" x="833.4382" y="-213.8" font-family="Times,serif" font-size="14.00" fill="#000000"> avg_Y = &#45;0.97</text>
<text text-anchor="middle" x="833.4382" y="-197" font-family="Times,serif" font-size="14.00" fill="#000000">avg_W = 0.44 </text>
</g>
<!-- 11&#45;&gt;20 -->
<g id="edge22" class="edge">
<title>11&#45;&gt;20</title>
<path fill="none" stroke="#000000" d="M790.6571,-294.1987C796.7183,-283.4029 804.6349,-269.3025 812.0076,-256.1707"/>
<polygon fill="#000000" stroke="#000000" points="815.1517,-257.7199 816.9954,-247.2868 809.0479,-254.293 815.1517,-257.7199"/>
</g>
<!-- 21 -->
<g id="node26" class="node">
<title>21</title>
<polygon fill="#c1b2ff" stroke="#c1b2ff" points="1002.8147,-247.4014 902.0617,-247.4014 902.0617,-188.5986 1002.8147,-188.5986 1002.8147,-247.4014"/>
<text text-anchor="middle" x="952.4382" y="-230.6" font-family="Times,serif" font-size="14.00" fill="#000000">size = &#160;22 </text>
<text text-anchor="middle" x="952.4382" y="-213.8" font-family="Times,serif" font-size="14.00" fill="#000000"> avg_Y = &#45;2.21</text>
<text text-anchor="middle" x="952.4382" y="-197" font-family="Times,serif" font-size="14.00" fill="#000000">avg_W = 0.32 </text>
</g>
<!-- 13&#45;&gt;21 -->
<g id="edge25" class="edge">
<title>13&#45;&gt;21</title>
<path fill="none" stroke="#000000" d="M1020.2422,-294.1987C1010.3586,-283.0915 997.3624,-268.4863 985.3947,-255.0369"/>
<polygon fill="#000000" stroke="#000000" points="987.7608,-252.4307 978.4985,-247.2868 982.5313,-257.084 987.7608,-252.4307"/>
</g>
<!-- 22 -->
<g id="node27" class="node">
<title>22</title>
<polygon fill="none" stroke="#000000" points="1123.5971,-236 1021.2793,-236 1021.2793,-200 1123.5971,-200 1123.5971,-236"/>
<text text-anchor="middle" x="1072.4382" y="-213.8" font-family="Times,serif" font-size="14.00" fill="#000000"> fam.asks &lt;= 0 </text>
</g>
<!-- 13&#45;&gt;22 -->
<g id="edge26" class="edge">
<title>13&#45;&gt;22</title>
<path fill="none" stroke="#000000" d="M1043.3794,-294.1987C1048.6087,-280.4863 1055.8711,-261.4426 1061.8274,-245.824"/>
<polygon fill="#000000" stroke="#000000" points="1065.2253,-246.7362 1065.5183,-236.1454 1058.6848,-244.2419 1065.2253,-246.7362"/>
</g>
<!-- 23 -->
<g id="node30" class="node">
<title>23</title>
<polygon fill="#c1b2ff" stroke="#c1b2ff" points="1242.8147,-247.4014 1142.0617,-247.4014 1142.0617,-188.5986 1242.8147,-188.5986 1242.8147,-247.4014"/>
<text text-anchor="middle" x="1192.4382" y="-230.6" font-family="Times,serif" font-size="14.00" fill="#000000">size = &#160;12 </text>
<text text-anchor="middle" x="1192.4382" y="-213.8" font-family="Times,serif" font-size="14.00" fill="#000000"> avg_Y = &#45;1.79</text>
<text text-anchor="middle" x="1192.4382" y="-197" font-family="Times,serif" font-size="14.00" fill="#000000">avg_W = 0.42 </text>
</g>
<!-- 14&#45;&gt;23 -->
<g id="edge29" class="edge">
<title>14&#45;&gt;23</title>
<path fill="none" stroke="#000000" d="M1192.4382,-294.1987C1192.4382,-283.7143 1192.4382,-270.1133 1192.4382,-257.3095"/>
<polygon fill="#000000" stroke="#000000" points="1195.9383,-257.2867 1192.4382,-247.2868 1188.9383,-257.2868 1195.9383,-257.2867"/>
</g>
<!-- 24 -->
<g id="node31" class="node">
<title>24</title>
<polygon fill="none" stroke="#000000" points="1396.0394,-236 1260.837,-236 1260.837,-200 1396.0394,-200 1396.0394,-236"/>
<text text-anchor="middle" x="1328.4382" y="-213.8" font-family="Times,serif" font-size="14.00" fill="#000000"> transport.cost &lt;= 10 </text>
</g>
<!-- 14&#45;&gt;24 -->
<g id="edge30" class="edge">
<title>14&#45;&gt;24</title>
<path fill="none" stroke="#000000" d="M1218.6604,-294.1987C1240.1089,-279.311 1270.6112,-258.1388 1294.0222,-241.8888"/>
<polygon fill="#000000" stroke="#000000" points="1296.0773,-244.7228 1302.2965,-236.1454 1292.0858,-238.9723 1296.0773,-244.7228"/>
</g>
<!-- 27 -->
<g id="node28" class="node">
<title>27</title>
<polygon fill="#c1b2ff" stroke="#c1b2ff" points="1041.8147,-153.0014 941.0617,-153.0014 941.0617,-94.1986 1041.8147,-94.1986 1041.8147,-153.0014"/>
<text text-anchor="middle" x="991.4382" y="-136.2" font-family="Times,serif" font-size="14.00" fill="#000000">size = &#160;15 </text>
<text text-anchor="middle" x="991.4382" y="-119.4" font-family="Times,serif" font-size="14.00" fill="#000000"> avg_Y = &#45;1.77</text>
<text text-anchor="middle" x="991.4382" y="-102.6" font-family="Times,serif" font-size="14.00" fill="#000000">avg_W = 0.33 </text>
</g>
<!-- 22&#45;&gt;27 -->
<g id="edge27" class="edge">
<title>22&#45;&gt;27</title>
<path fill="none" stroke="#000000" d="M1056.8206,-199.7987C1047.29,-188.6915 1034.758,-174.0863 1023.2177,-160.6369"/>
<polygon fill="#000000" stroke="#000000" points="1025.7359,-158.1968 1016.5677,-152.8868 1020.4234,-162.7551 1025.7359,-158.1968"/>
</g>
<!-- 28 -->
<g id="node29" class="node">
<title>28</title>
<polygon fill="#c1b2ff" stroke="#c1b2ff" points="1160.8147,-153.0014 1060.0617,-153.0014 1060.0617,-94.1986 1160.8147,-94.1986 1160.8147,-153.0014"/>
<text text-anchor="middle" x="1110.4382" y="-136.2" font-family="Times,serif" font-size="14.00" fill="#000000">size = &#160;11 </text>
<text text-anchor="middle" x="1110.4382" y="-119.4" font-family="Times,serif" font-size="14.00" fill="#000000"> avg_Y = &#45;2.17</text>
<text text-anchor="middle" x="1110.4382" y="-102.6" font-family="Times,serif" font-size="14.00" fill="#000000">avg_W = 0.27 </text>
</g>
<!-- 22&#45;&gt;28 -->
<g id="edge28" class="edge">
<title>22&#45;&gt;28</title>
<path fill="none" stroke="#000000" d="M1079.765,-199.7987C1084.0272,-189.2105 1089.5689,-175.4436 1094.7675,-162.5294"/>
<polygon fill="#000000" stroke="#000000" points="1098.1616,-163.4704 1098.649,-152.8868 1091.6679,-160.8564 1098.1616,-163.4704"/>
</g>
<!-- 29 -->
<g id="node32" class="node">
<title>29</title>
<polygon fill="#c1b2ff" stroke="#c1b2ff" points="1318.8147,-153.0014 1218.0617,-153.0014 1218.0617,-94.1986 1318.8147,-94.1986 1318.8147,-153.0014"/>
<text text-anchor="middle" x="1268.4382" y="-136.2" font-family="Times,serif" font-size="14.00" fill="#000000">size = &#160;5 </text>
<text text-anchor="middle" x="1268.4382" y="-119.4" font-family="Times,serif" font-size="14.00" fill="#000000"> avg_Y = &#45;1.55</text>
<text text-anchor="middle" x="1268.4382" y="-102.6" font-family="Times,serif" font-size="14.00" fill="#000000">avg_W = 0.4 </text>
</g>
<!-- 24&#45;&gt;29 -->
<g id="edge31" class="edge">
<title>24&#45;&gt;29</title>
<path fill="none" stroke="#000000" d="M1316.8696,-199.7987C1309.9419,-188.8991 1300.8732,-174.6311 1292.4587,-161.3922"/>
<polygon fill="#000000" stroke="#000000" points="1295.3707,-159.4489 1287.0527,-152.8868 1289.463,-163.2038 1295.3707,-159.4489"/>
</g>
<!-- 30 -->
<g id="node33" class="node">
<title>30</title>
<polygon fill="#c1b2ff" stroke="#c1b2ff" points="1437.8147,-153.0014 1337.0617,-153.0014 1337.0617,-94.1986 1437.8147,-94.1986 1437.8147,-153.0014"/>
<text text-anchor="middle" x="1387.4382" y="-136.2" font-family="Times,serif" font-size="14.00" fill="#000000">size = &#160;12 </text>
<text text-anchor="middle" x="1387.4382" y="-119.4" font-family="Times,serif" font-size="14.00" fill="#000000"> avg_Y = &#45;2.08</text>
<text text-anchor="middle" x="1387.4382" y="-102.6" font-family="Times,serif" font-size="14.00" fill="#000000">avg_W = 0.42 </text>
</g>
<!-- 24&#45;&gt;30 -->
<g id="edge32" class="edge">
<title>24&#45;&gt;30</title>
<path fill="none" stroke="#000000" d="M1339.814,-199.7987C1346.6263,-188.8991 1355.5438,-174.6311 1363.8181,-161.3922"/>
<polygon fill="#000000" stroke="#000000" points="1366.8019,-163.2218 1369.134,-152.8868 1360.8659,-159.5117 1366.8019,-163.2218"/>
</g>
</g>
</svg>
