<?xml version="1.0" encoding="UTF-8" standalone="no"?>
<!DOCTYPE svg PUBLIC "-//W3C//DTD SVG 1.1//EN"
 "http://www.w3.org/Graphics/SVG/1.1/DTD/svg11.dtd">
<!-- Generated by graphviz version 2.40.1 (20161225.0304)
 -->
<!-- Title: nodes Pages: 1 -->
<svg width="645pt" height="754pt"
 viewBox="0.00 0.00 644.88 754.40" xmlns="http://www.w3.org/2000/svg" xmlns:xlink="http://www.w3.org/1999/xlink">
<g id="graph0" class="graph" transform="scale(1 1) rotate(0) translate(4 750.4)">
<title>nodes</title>
<polygon fill="#ffffff" stroke="transparent" points="-4,4 -4,-750.4 640.8764,-750.4 640.8764,4 -4,4"/>
<!-- 0 -->
<g id="node1" class="node">
<title>0</title>
<polygon fill="none" stroke="#000000" points="469.0971,-746.4 345.7793,-746.4 345.7793,-710.4 469.0971,-710.4 469.0971,-746.4"/>
<text text-anchor="middle" x="407.4382" y="-724.2" font-family="Times,serif" font-size="14.00" fill="#000000"> loan.size &lt;= 3940 </text>
</g>
<!-- 1 -->
<g id="node2" class="node">
<title>1</title>
<polygon fill="none" stroke="#000000" points="388.1569,-674.4 308.7195,-674.4 308.7195,-638.4 388.1569,-638.4 388.1569,-674.4"/>
<text text-anchor="middle" x="348.4382" y="-652.2" font-family="Times,serif" font-size="14.00" fill="#000000"> age &lt;= 60 </text>
</g>
<!-- 0&#45;&gt;1 -->
<g id="edge1" class="edge">
<title>0&#45;&gt;1</title>
<path fill="none" stroke="#000000" d="M392.55,-710.2314C385.6852,-701.854 377.4081,-691.7531 369.8871,-682.5749"/>
<polygon fill="#000000" stroke="#000000" points="372.5723,-680.3297 363.5268,-674.8133 367.1579,-684.7665 372.5723,-680.3297"/>
<text text-anchor="middle" x="361.0581" y="-695.4911" font-family="Times,serif" font-size="14.00" fill="#000000">True</text>
</g>
<!-- 2 -->
<g id="node3" class="node">
<title>2</title>
<polygon fill="none" stroke="#000000" points="529.0971,-674.4 405.7793,-674.4 405.7793,-638.4 529.0971,-638.4 529.0971,-674.4"/>
<text text-anchor="middle" x="467.4382" y="-652.2" font-family="Times,serif" font-size="14.00" fill="#000000"> loan.size &lt;= 7580 </text>
</g>
<!-- 0&#45;&gt;2 -->
<g id="edge2" class="edge">
<title>0&#45;&gt;2</title>
<path fill="none" stroke="#000000" d="M422.5787,-710.2314C429.5599,-701.854 437.9773,-691.7531 445.6258,-682.5749"/>
<polygon fill="#000000" stroke="#000000" points="448.3807,-684.7362 452.0938,-674.8133 443.0031,-680.2548 448.3807,-684.7362"/>
<text text-anchor="middle" x="454.3572" y="-695.5106" font-family="Times,serif" font-size="14.00" fill="#000000">False</text>
</g>
<!-- 3 -->
<g id="node4" class="node">
<title>3</title>
<polygon fill="none" stroke="#000000" points="280.0971,-591.2 156.7793,-591.2 156.7793,-555.2 280.0971,-555.2 280.0971,-591.2"/>
<text text-anchor="middle" x="218.4382" y="-569" font-family="Times,serif" font-size="14.00" fill="#000000"> loan.size &lt;= 3120 </text>
</g>
<!-- 1&#45;&gt;3 -->
<g id="edge3" class="edge">
<title>1&#45;&gt;3</title>
<path fill="none" stroke="#000000" d="M320.2301,-638.3468C301.1505,-626.1358 275.7645,-609.8888 255.1176,-596.6748"/>
<polygon fill="#000000" stroke="#000000" points="256.9006,-593.6606 246.5912,-591.2179 253.1272,-599.5565 256.9006,-593.6606"/>
</g>
<!-- 4 -->
<g id="node5" class="node">
<title>4</title>
<polygon fill="#c1b2ff" stroke="#c1b2ff" points="398.8147,-602.6014 298.0617,-602.6014 298.0617,-543.7986 398.8147,-543.7986 398.8147,-602.6014"/>
<text text-anchor="middle" x="348.4382" y="-585.8" font-family="Times,serif" font-size="14.00" fill="#000000">size = &#160;57 </text>
<text text-anchor="middle" x="348.4382" y="-569" font-family="Times,serif" font-size="14.00" fill="#000000"> avg_Y = &#45;1.08</text>
<text text-anchor="middle" x="348.4382" y="-552.2" font-family="Times,serif" font-size="14.00" fill="#000000">avg_W = 0.56 </text>
</g>
<!-- 1&#45;&gt;4 -->
<g id="edge4" class="edge">
<title>1&#45;&gt;4</title>
<path fill="none" stroke="#000000" d="M348.4382,-638.3468C348.4382,-630.7769 348.4382,-621.656 348.4382,-612.6681"/>
<polygon fill="#000000" stroke="#000000" points="351.9383,-612.6667 348.4382,-602.6668 344.9383,-612.6668 351.9383,-612.6667"/>
</g>
<!-- 5 -->
<g id="node22" class="node">
<title>5</title>
<polygon fill="#c1b2ff" stroke="#c1b2ff" points="517.8147,-602.6014 417.0617,-602.6014 417.0617,-543.7986 517.8147,-543.7986 517.8147,-602.6014"/>
<text text-anchor="middle" x="467.4382" y="-585.8" font-family="Times,serif" font-size="14.00" fill="#000000">size = &#160;47 </text>
<text text-anchor="middle" x="467.4382" y="-569" font-family="Times,serif" font-size="14.00" fill="#000000"> avg_Y = &#45;1.48</text>
<text text-anchor="middle" x="467.4382" y="-552.2" font-family="Times,serif" font-size="14.00" fill="#000000">avg_W = 0.6 </text>
</g>
<!-- 2&#45;&gt;5 -->
<g id="edge21" class="edge">
<title>2&#45;&gt;5</title>
<path fill="none" stroke="#000000" d="M467.4382,-638.3468C467.4382,-630.7769 467.4382,-621.656 467.4382,-612.6681"/>
<polygon fill="#000000" stroke="#000000" points="470.9383,-612.6667 467.4382,-602.6668 463.9383,-612.6668 470.9383,-612.6667"/>
</g>
<!-- 6 -->
<g id="node23" class="node">
<title>6</title>
<polygon fill="#c1b2ff" stroke="#c1b2ff" points="636.8147,-602.6014 536.0617,-602.6014 536.0617,-543.7986 636.8147,-543.7986 636.8147,-602.6014"/>
<text text-anchor="middle" x="586.4382" y="-585.8" font-family="Times,serif" font-size="14.00" fill="#000000">size = &#160;15 </text>
<text text-anchor="middle" x="586.4382" y="-569" font-family="Times,serif" font-size="14.00" fill="#000000"> avg_Y = &#45;1.12</text>
<text text-anchor="middle" x="586.4382" y="-552.2" font-family="Times,serif" font-size="14.00" fill="#000000">avg_W = 0.47 </text>
</g>
<!-- 2&#45;&gt;6 -->
<g id="edge22" class="edge">
<title>2&#45;&gt;6</title>
<path fill="none" stroke="#000000" d="M493.2594,-638.3468C505.7164,-629.6374 521.1101,-618.8748 535.7719,-608.6238"/>
<polygon fill="#000000" stroke="#000000" points="538.1022,-611.2653 544.2922,-602.6668 534.0911,-605.5284 538.1022,-611.2653"/>
</g>
<!-- 7 -->
<g id="node6" class="node">
<title>7</title>
<polygon fill="none" stroke="#000000" points="213.5971,-496.8 97.2793,-496.8 97.2793,-460.8 213.5971,-460.8 213.5971,-496.8"/>
<text text-anchor="middle" x="155.4382" y="-474.6" font-family="Times,serif" font-size="14.00" fill="#000000"> loan.size &lt;= 330 </text>
</g>
<!-- 3&#45;&gt;7 -->
<g id="edge5" class="edge">
<title>3&#45;&gt;7</title>
<path fill="none" stroke="#000000" d="M206.2912,-554.9987C196.8784,-540.8945 183.7014,-521.15 173.1195,-505.2938"/>
<polygon fill="#000000" stroke="#000000" points="176.0103,-503.3203 167.5479,-496.9454 170.1878,-507.2061 176.0103,-503.3203"/>
</g>
<!-- 8 -->
<g id="node7" class="node">
<title>8</title>
<polygon fill="#c1b2ff" stroke="#c1b2ff" points="331.2625,-508.2014 231.6139,-508.2014 231.6139,-449.3986 331.2625,-449.3986 331.2625,-508.2014"/>
<text text-anchor="middle" x="281.4382" y="-491.4" font-family="Times,serif" font-size="14.00" fill="#000000">size = &#160;36 </text>
<text text-anchor="middle" x="281.4382" y="-474.6" font-family="Times,serif" font-size="14.00" fill="#000000"> avg_Y = &#45;1.8</text>
<text text-anchor="middle" x="281.4382" y="-457.8" font-family="Times,serif" font-size="14.00" fill="#000000">avg_W = 0.47 </text>
</g>
<!-- 3&#45;&gt;8 -->
<g id="edge6" class="edge">
<title>3&#45;&gt;8</title>
<path fill="none" stroke="#000000" d="M230.5852,-554.9987C237.8593,-544.0991 247.3815,-529.8311 256.2167,-516.5922"/>
<polygon fill="#000000" stroke="#000000" points="259.2531,-518.3475 261.893,-508.0868 253.4307,-514.4617 259.2531,-518.3475"/>
</g>
<!-- 9 -->
<g id="node8" class="node">
<title>9</title>
<polygon fill="#c1b2ff" stroke="#c1b2ff" points="148.8147,-413.8014 48.0617,-413.8014 48.0617,-354.9986 148.8147,-354.9986 148.8147,-413.8014"/>
<text text-anchor="middle" x="98.4382" y="-397" font-family="Times,serif" font-size="14.00" fill="#000000">size = &#160;26 </text>
<text text-anchor="middle" x="98.4382" y="-380.2" font-family="Times,serif" font-size="14.00" fill="#000000"> avg_Y = &#45;1.82</text>
<text text-anchor="middle" x="98.4382" y="-363.4" font-family="Times,serif" font-size="14.00" fill="#000000">avg_W = 0.42 </text>
</g>
<!-- 7&#45;&gt;9 -->
<g id="edge7" class="edge">
<title>7&#45;&gt;9</title>
<path fill="none" stroke="#000000" d="M144.448,-460.5987C137.9294,-449.8029 129.4154,-435.7025 121.4862,-422.5707"/>
<polygon fill="#000000" stroke="#000000" points="124.2871,-420.4381 116.1219,-413.6868 118.2948,-424.0564 124.2871,-420.4381"/>
</g>
<!-- 10 -->
<g id="node9" class="node">
<title>10</title>
<polygon fill="none" stroke="#000000" points="257.8131,-402.4 167.0633,-402.4 167.0633,-366.4 257.8131,-366.4 257.8131,-402.4"/>
<text text-anchor="middle" x="212.4382" y="-380.2" font-family="Times,serif" font-size="14.00" fill="#000000"> female &lt;= 0 </text>
</g>
<!-- 7&#45;&gt;10 -->
<g id="edge8" class="edge">
<title>7&#45;&gt;10</title>
<path fill="none" stroke="#000000" d="M166.4284,-460.5987C174.8658,-446.6251 186.6462,-427.1152 196.1743,-411.3353"/>
<polygon fill="#000000" stroke="#000000" points="199.309,-412.915 201.4818,-402.5454 193.3166,-409.2968 199.309,-412.915"/>
</g>
<!-- 11 -->
<g id="node10" class="node">
<title>11</title>
<polygon fill="none" stroke="#000000" points="198.1569,-319.2 118.7195,-319.2 118.7195,-283.2 198.1569,-283.2 198.1569,-319.2"/>
<text text-anchor="middle" x="158.4382" y="-297" font-family="Times,serif" font-size="14.00" fill="#000000"> age &lt;= 32 </text>
</g>
<!-- 10&#45;&gt;11 -->
<g id="edge9" class="edge">
<title>10&#45;&gt;11</title>
<path fill="none" stroke="#000000" d="M200.721,-366.3468C193.4325,-355.1171 183.9285,-340.4739 175.7775,-327.9154"/>
<polygon fill="#000000" stroke="#000000" points="178.5126,-325.7006 170.1325,-319.2179 172.6409,-329.5116 178.5126,-325.7006"/>
</g>
<!-- 12 -->
<g id="node11" class="node">
<title>12</title>
<polygon fill="none" stroke="#000000" points="306.1569,-319.2 226.7195,-319.2 226.7195,-283.2 306.1569,-283.2 306.1569,-319.2"/>
<text text-anchor="middle" x="266.4382" y="-297" font-family="Times,serif" font-size="14.00" fill="#000000"> age &lt;= 22 </text>
</g>
<!-- 10&#45;&gt;12 -->
<g id="edge10" class="edge">
<title>10&#45;&gt;12</title>
<path fill="none" stroke="#000000" d="M224.1554,-366.3468C231.4439,-355.1171 240.9479,-340.4739 249.0989,-327.9154"/>
<polygon fill="#000000" stroke="#000000" points="252.2355,-329.5116 254.7439,-319.2179 246.3638,-325.7006 252.2355,-329.5116"/>
</g>
<!-- 13 -->
<g id="node12" class="node">
<title>13</title>
<polygon fill="#c1b2ff" stroke="#c1b2ff" points="100.8147,-247.4014 .0617,-247.4014 .0617,-188.5986 100.8147,-188.5986 100.8147,-247.4014"/>
<text text-anchor="middle" x="50.4382" y="-230.6" font-family="Times,serif" font-size="14.00" fill="#000000">size = &#160;38 </text>
<text text-anchor="middle" x="50.4382" y="-213.8" font-family="Times,serif" font-size="14.00" fill="#000000"> avg_Y = &#45;1.52</text>
<text text-anchor="middle" x="50.4382" y="-197" font-family="Times,serif" font-size="14.00" fill="#000000">avg_W = 0.55 </text>
</g>
<!-- 11&#45;&gt;13 -->
<g id="edge11" class="edge">
<title>11&#45;&gt;13</title>
<path fill="none" stroke="#000000" d="M135.0038,-283.1468C123.8039,-274.5188 109.9884,-263.8757 96.7943,-253.7114"/>
<polygon fill="#000000" stroke="#000000" points="98.7462,-250.7969 88.6883,-247.4668 94.4742,-256.3422 98.7462,-250.7969"/>
</g>
<!-- 14 -->
<g id="node13" class="node">
<title>14</title>
<polygon fill="none" stroke="#000000" points="198.1569,-236 118.7195,-236 118.7195,-200 198.1569,-200 198.1569,-236"/>
<text text-anchor="middle" x="158.4382" y="-213.8" font-family="Times,serif" font-size="14.00" fill="#000000"> age &lt;= 43 </text>
</g>
<!-- 11&#45;&gt;14 -->
<g id="edge12" class="edge">
<title>11&#45;&gt;14</title>
<path fill="none" stroke="#000000" d="M158.4382,-283.1468C158.4382,-272.3532 158.4382,-258.4061 158.4382,-246.1876"/>
<polygon fill="#000000" stroke="#000000" points="161.9383,-246.0179 158.4382,-236.0179 154.9383,-246.018 161.9383,-246.0179"/>
</g>
<!-- 15 -->
<g id="node16" class="node">
<title>15</title>
<polygon fill="#c1b2ff" stroke="#c1b2ff" points="316.8147,-247.4014 216.0617,-247.4014 216.0617,-188.5986 316.8147,-188.5986 316.8147,-247.4014"/>
<text text-anchor="middle" x="266.4382" y="-230.6" font-family="Times,serif" font-size="14.00" fill="#000000">size = &#160;12 </text>
<text text-anchor="middle" x="266.4382" y="-213.8" font-family="Times,serif" font-size="14.00" fill="#000000"> avg_Y = &#45;2.14</text>
<text text-anchor="middle" x="266.4382" y="-197" font-family="Times,serif" font-size="14.00" fill="#000000">avg_W = 0.58 </text>
</g>
<!-- 12&#45;&gt;15 -->
<g id="edge15" class="edge">
<title>12&#45;&gt;15</title>
<path fill="none" stroke="#000000" d="M266.4382,-283.1468C266.4382,-275.5769 266.4382,-266.456 266.4382,-257.4681"/>
<polygon fill="#000000" stroke="#000000" points="269.9383,-257.4667 266.4382,-247.4668 262.9383,-257.4668 269.9383,-257.4667"/>
</g>
<!-- 16 -->
<g id="node17" class="node">
<title>16</title>
<polygon fill="none" stroke="#000000" points="458.0971,-236 334.7793,-236 334.7793,-200 458.0971,-200 458.0971,-236"/>
<text text-anchor="middle" x="396.4382" y="-213.8" font-family="Times,serif" font-size="14.00" fill="#000000"> loan.size &lt;= 1110 </text>
</g>
<!-- 12&#45;&gt;16 -->
<g id="edge16" class="edge">
<title>12&#45;&gt;16</title>
<path fill="none" stroke="#000000" d="M294.6463,-283.1468C313.7259,-270.9358 339.1119,-254.6888 359.7588,-241.4748"/>
<polygon fill="#000000" stroke="#000000" points="361.7492,-244.3565 368.2852,-236.0179 357.9758,-238.4606 361.7492,-244.3565"/>
</g>
<!-- 17 -->
<g id="node14" class="node">
<title>17</title>
<polygon fill="#c1b2ff" stroke="#c1b2ff" points="119.8147,-153.0014 19.0617,-153.0014 19.0617,-94.1986 119.8147,-94.1986 119.8147,-153.0014"/>
<text text-anchor="middle" x="69.4382" y="-136.2" font-family="Times,serif" font-size="14.00" fill="#000000">size = &#160;17 </text>
<text text-anchor="middle" x="69.4382" y="-119.4" font-family="Times,serif" font-size="14.00" fill="#000000"> avg_Y = &#45;2.12</text>
<text text-anchor="middle" x="69.4382" y="-102.6" font-family="Times,serif" font-size="14.00" fill="#000000">avg_W = 0.41 </text>
</g>
<!-- 14&#45;&gt;17 -->
<g id="edge13" class="edge">
<title>14&#45;&gt;17</title>
<path fill="none" stroke="#000000" d="M141.2781,-199.7987C130.7084,-188.5877 116.7788,-173.813 104.0012,-160.2601"/>
<polygon fill="#000000" stroke="#000000" points="106.4562,-157.7619 97.0497,-152.8868 101.3629,-162.5639 106.4562,-157.7619"/>
</g>
<!-- 18 -->
<g id="node15" class="node">
<title>18</title>
<polygon fill="#c1b2ff" stroke="#c1b2ff" points="238.8147,-153.0014 138.0617,-153.0014 138.0617,-94.1986 238.8147,-94.1986 238.8147,-153.0014"/>
<text text-anchor="middle" x="188.4382" y="-136.2" font-family="Times,serif" font-size="14.00" fill="#000000">size = &#160;27 </text>
<text text-anchor="middle" x="188.4382" y="-119.4" font-family="Times,serif" font-size="14.00" fill="#000000"> avg_Y = &#45;1.24</text>
<text text-anchor="middle" x="188.4382" y="-102.6" font-family="Times,serif" font-size="14.00" fill="#000000">avg_W = 0.56 </text>
</g>
<!-- 14&#45;&gt;18 -->
<g id="edge14" class="edge">
<title>14&#45;&gt;18</title>
<path fill="none" stroke="#000000" d="M164.2225,-199.7987C167.5874,-189.2105 171.9625,-175.4436 176.0666,-162.5294"/>
<polygon fill="#000000" stroke="#000000" points="179.4378,-163.4772 179.131,-152.8868 172.7666,-161.357 179.4378,-163.4772"/>
</g>
<!-- 19 -->
<g id="node18" class="node">
<title>19</title>
<polygon fill="#c1b2ff" stroke="#c1b2ff" points="416.8147,-153.0014 316.0617,-153.0014 316.0617,-94.1986 416.8147,-94.1986 416.8147,-153.0014"/>
<text text-anchor="middle" x="366.4382" y="-136.2" font-family="Times,serif" font-size="14.00" fill="#000000">size = &#160;103 </text>
<text text-anchor="middle" x="366.4382" y="-119.4" font-family="Times,serif" font-size="14.00" fill="#000000"> avg_Y = &#45;1.56</text>
<text text-anchor="middle" x="366.4382" y="-102.6" font-family="Times,serif" font-size="14.00" fill="#000000">avg_W = 0.56 </text>
</g>
<!-- 16&#45;&gt;19 -->
<g id="edge17" class="edge">
<title>16&#45;&gt;19</title>
<path fill="none" stroke="#000000" d="M390.6539,-199.7987C387.289,-189.2105 382.9139,-175.4436 378.8098,-162.5294"/>
<polygon fill="#000000" stroke="#000000" points="382.1098,-161.357 375.7454,-152.8868 375.4386,-163.4772 382.1098,-161.357"/>
</g>
<!-- 20 -->
<g id="node19" class="node">
<title>20</title>
<polygon fill="none" stroke="#000000" points="558.0971,-141.6 434.7793,-141.6 434.7793,-105.6 558.0971,-105.6 558.0971,-141.6"/>
<text text-anchor="middle" x="496.4382" y="-119.4" font-family="Times,serif" font-size="14.00" fill="#000000"> loan.size &lt;= 1420 </text>
</g>
<!-- 16&#45;&gt;20 -->
<g id="edge18" class="edge">
<title>16&#45;&gt;20</title>
<path fill="none" stroke="#000000" d="M415.7192,-199.7987C431.0751,-185.3027 452.7425,-164.8487 469.7627,-148.7817"/>
<polygon fill="#000000" stroke="#000000" points="472.3472,-151.1551 477.2164,-141.7454 467.542,-146.0648 472.3472,-151.1551"/>
</g>
<!-- 21 -->
<g id="node20" class="node">
<title>21</title>
<polygon fill="#c1b2ff" stroke="#c1b2ff" points="486.8147,-58.6014 386.0617,-58.6014 386.0617,.2014 486.8147,.2014 486.8147,-58.6014"/>
<text text-anchor="middle" x="436.4382" y="-41.8" font-family="Times,serif" font-size="14.00" fill="#000000">size = &#160;30 </text>
<text text-anchor="middle" x="436.4382" y="-25" font-family="Times,serif" font-size="14.00" fill="#000000"> avg_Y = &#45;1.41</text>
<text text-anchor="middle" x="436.4382" y="-8.2" font-family="Times,serif" font-size="14.00" fill="#000000">avg_W = 0.5 </text>
</g>
<!-- 20&#45;&gt;21 -->
<g id="edge19" class="edge">
<title>20&#45;&gt;21</title>
<path fill="none" stroke="#000000" d="M484.8696,-105.3987C477.9419,-94.4991 468.8732,-80.2311 460.4587,-66.9922"/>
<polygon fill="#000000" stroke="#000000" points="463.3707,-65.0489 455.0527,-58.4868 457.463,-68.8038 463.3707,-65.0489"/>
</g>
<!-- 22 -->
<g id="node21" class="node">
<title>22</title>
<polygon fill="#c1b2ff" stroke="#c1b2ff" points="605.8147,-58.6014 505.0617,-58.6014 505.0617,.2014 605.8147,.2014 605.8147,-58.6014"/>
<text text-anchor="middle" x="555.4382" y="-41.8" font-family="Times,serif" font-size="14.00" fill="#000000">size = &#160;99 </text>
<text text-anchor="middle" x="555.4382" y="-25" font-family="Times,serif" font-size="14.00" fill="#000000"> avg_Y = &#45;1.36</text>
<text text-anchor="middle" x="555.4382" y="-8.2" font-family="Times,serif" font-size="14.00" fill="#000000">avg_W = 0.51 </text>
</g>
<!-- 20&#45;&gt;22 -->
<g id="edge20" class="edge">
<title>20&#45;&gt;22</title>
<path fill="none" stroke="#000000" d="M507.814,-105.3987C514.6263,-94.4991 523.5438,-80.2311 531.8181,-66.9922"/>
<polygon fill="#000000" stroke="#000000" points="534.8019,-68.8218 537.134,-58.4868 528.8659,-65.1117 534.8019,-68.8218"/>
</g>
</g>
</svg>
