<?xml version="1.0" encoding="UTF-8" standalone="no"?>
<!DOCTYPE svg PUBLIC "-//W3C//DTD SVG 1.1//EN"
 "http://www.w3.org/Graphics/SVG/1.1/DTD/svg11.dtd">
<!-- Generated by graphviz version 2.40.1 (20161225.0304)
 -->
<!-- Title: nodes Pages: 1 -->
<svg width="1524pt" height="566pt"
 viewBox="0.00 0.00 1523.88 565.60" xmlns="http://www.w3.org/2000/svg" xmlns:xlink="http://www.w3.org/1999/xlink">
<g id="graph0" class="graph" transform="scale(1 1) rotate(0) translate(4 561.6)">
<title>nodes</title>
<polygon fill="#ffffff" stroke="transparent" points="-4,4 -4,-561.6 1519.8764,-561.6 1519.8764,4 -4,4"/>
<!-- 0 -->
<g id="node1" class="node">
<title>0</title>
<polygon fill="none" stroke="#000000" points="660.0971,-557.6 536.7793,-557.6 536.7793,-521.6 660.0971,-521.6 660.0971,-557.6"/>
<text text-anchor="middle" x="598.4382" y="-535.4" font-family="Times,serif" font-size="14.00" fill="#000000"> loan.size &lt;= 1090 </text>
</g>
<!-- 1 -->
<g id="node2" class="node">
<title>1</title>
<polygon fill="none" stroke="#000000" points="550.7939,-485.6 414.0825,-485.6 414.0825,-449.6 550.7939,-449.6 550.7939,-485.6"/>
<text text-anchor="middle" x="482.4382" y="-463.4" font-family="Times,serif" font-size="14.00" fill="#000000"> future.patience &lt;= 0 </text>
</g>
<!-- 0&#45;&gt;1 -->
<g id="edge1" class="edge">
<title>0&#45;&gt;1</title>
<path fill="none" stroke="#000000" d="M569.1665,-521.4314C554.3294,-512.2221 536.1367,-500.9301 520.252,-491.0706"/>
<polygon fill="#000000" stroke="#000000" points="522.0427,-488.0628 511.7005,-485.7628 518.3512,-494.0102 522.0427,-488.0628"/>
<text text-anchor="middle" x="517.3976" y="-505.905" font-family="Times,serif" font-size="14.00" fill="#000000">True</text>
</g>
<!-- 2 -->
<g id="node3" class="node">
<title>2</title>
<polygon fill="none" stroke="#000000" points="890.1569,-485.6 810.7195,-485.6 810.7195,-449.6 890.1569,-449.6 890.1569,-485.6"/>
<text text-anchor="middle" x="850.4382" y="-463.4" font-family="Times,serif" font-size="14.00" fill="#000000"> age &lt;= 41 </text>
</g>
<!-- 0&#45;&gt;2 -->
<g id="edge2" class="edge">
<title>0&#45;&gt;2</title>
<path fill="none" stroke="#000000" d="M660.0843,-521.9868C703.4295,-509.6025 760.6638,-493.2498 801.0163,-481.7205"/>
<polygon fill="#000000" stroke="#000000" points="801.9826,-485.0846 810.6362,-478.972 800.0595,-478.3539 801.9826,-485.0846"/>
<text text-anchor="middle" x="798.4952" y="-496.6259" font-family="Times,serif" font-size="14.00" fill="#000000">False</text>
</g>
<!-- 3 -->
<g id="node4" class="node">
<title>3</title>
<polygon fill="none" stroke="#000000" points="336.1569,-413.6 256.7195,-413.6 256.7195,-377.6 336.1569,-377.6 336.1569,-413.6"/>
<text text-anchor="middle" x="296.4382" y="-391.4" font-family="Times,serif" font-size="14.00" fill="#000000"> age &lt;= 50 </text>
</g>
<!-- 1&#45;&gt;3 -->
<g id="edge3" class="edge">
<title>1&#45;&gt;3</title>
<path fill="none" stroke="#000000" d="M435.5025,-449.4314C408.066,-438.8108 373.4734,-425.4201 345.6537,-414.6512"/>
<polygon fill="#000000" stroke="#000000" points="346.708,-411.3063 336.1188,-410.9603 344.181,-417.8342 346.708,-411.3063"/>
</g>
<!-- 4 -->
<g id="node5" class="node">
<title>4</title>
<polygon fill="none" stroke="#000000" points="546.5394,-413.6 418.337,-413.6 418.337,-377.6 546.5394,-377.6 546.5394,-413.6"/>
<text text-anchor="middle" x="482.4382" y="-391.4" font-family="Times,serif" font-size="14.00" fill="#000000"> transport.cost &lt;= 3 </text>
</g>
<!-- 1&#45;&gt;4 -->
<g id="edge4" class="edge">
<title>1&#45;&gt;4</title>
<path fill="none" stroke="#000000" d="M482.4382,-449.4314C482.4382,-441.731 482.4382,-432.5743 482.4382,-424.0166"/>
<polygon fill="#000000" stroke="#000000" points="485.9383,-424.0132 482.4382,-414.0133 478.9383,-424.0133 485.9383,-424.0132"/>
</g>
<!-- 5 -->
<g id="node16" class="node">
<title>5</title>
<polygon fill="none" stroke="#000000" points="915.5971,-413.6 785.2793,-413.6 785.2793,-377.6 915.5971,-377.6 915.5971,-413.6"/>
<text text-anchor="middle" x="850.4382" y="-391.4" font-family="Times,serif" font-size="14.00" fill="#000000"> makes.budget &lt;= 0 </text>
</g>
<!-- 2&#45;&gt;5 -->
<g id="edge15" class="edge">
<title>2&#45;&gt;5</title>
<path fill="none" stroke="#000000" d="M850.4382,-449.4314C850.4382,-441.731 850.4382,-432.5743 850.4382,-424.0166"/>
<polygon fill="#000000" stroke="#000000" points="853.9383,-424.0132 850.4382,-414.0133 846.9383,-424.0133 853.9383,-424.0132"/>
</g>
<!-- 6 -->
<g id="node17" class="node">
<title>6</title>
<polygon fill="none" stroke="#000000" points="1327.3179,-413.6 1225.5585,-413.6 1225.5585,-377.6 1327.3179,-377.6 1327.3179,-413.6"/>
<text text-anchor="middle" x="1276.4382" y="-391.4" font-family="Times,serif" font-size="14.00" fill="#000000"> branch.2 &lt;= 0 </text>
</g>
<!-- 2&#45;&gt;6 -->
<g id="edge16" class="edge">
<title>2&#45;&gt;6</title>
<path fill="none" stroke="#000000" d="M890.1327,-460.8911C964.9142,-448.252 1127.0978,-420.8406 1215.683,-405.8685"/>
<polygon fill="#000000" stroke="#000000" points="1216.3111,-409.3121 1225.5879,-404.1944 1215.1445,-402.4099 1216.3111,-409.3121"/>
</g>
<!-- 7 -->
<g id="node6" class="node">
<title>7</title>
<polygon fill="none" stroke="#000000" points="227.5394,-330.4 99.337,-330.4 99.337,-294.4 227.5394,-294.4 227.5394,-330.4"/>
<text text-anchor="middle" x="163.4382" y="-308.2" font-family="Times,serif" font-size="14.00" fill="#000000"> sms.reminder &lt;= 0 </text>
</g>
<!-- 3&#45;&gt;7 -->
<g id="edge5" class="edge">
<title>3&#45;&gt;7</title>
<path fill="none" stroke="#000000" d="M267.5792,-377.5468C248.0592,-365.3358 222.0874,-349.0888 200.964,-335.8748"/>
<polygon fill="#000000" stroke="#000000" points="202.575,-332.7542 192.2409,-330.4179 198.8625,-338.6886 202.575,-332.7542"/>
</g>
<!-- 8 -->
<g id="node7" class="node">
<title>8</title>
<polygon fill="#c1b2ff" stroke="#c1b2ff" points="346.8147,-341.8014 246.0617,-341.8014 246.0617,-282.9986 346.8147,-282.9986 346.8147,-341.8014"/>
<text text-anchor="middle" x="296.4382" y="-325" font-family="Times,serif" font-size="14.00" fill="#000000">size = &#160;18 </text>
<text text-anchor="middle" x="296.4382" y="-308.2" font-family="Times,serif" font-size="14.00" fill="#000000"> avg_Y = &#45;1.91</text>
<text text-anchor="middle" x="296.4382" y="-291.4" font-family="Times,serif" font-size="14.00" fill="#000000">avg_W = 0.44 </text>
</g>
<!-- 3&#45;&gt;8 -->
<g id="edge6" class="edge">
<title>3&#45;&gt;8</title>
<path fill="none" stroke="#000000" d="M296.4382,-377.5468C296.4382,-369.9769 296.4382,-360.856 296.4382,-351.8681"/>
<polygon fill="#000000" stroke="#000000" points="299.9383,-351.8667 296.4382,-341.8668 292.9383,-351.8668 299.9383,-351.8667"/>
</g>
<!-- 9 -->
<g id="node12" class="node">
<title>9</title>
<polygon fill="#c1b2ff" stroke="#c1b2ff" points="465.8147,-341.8014 365.0617,-341.8014 365.0617,-282.9986 465.8147,-282.9986 465.8147,-341.8014"/>
<text text-anchor="middle" x="415.4382" y="-325" font-family="Times,serif" font-size="14.00" fill="#000000">size = &#160;18 </text>
<text text-anchor="middle" x="415.4382" y="-308.2" font-family="Times,serif" font-size="14.00" fill="#000000"> avg_Y = &#45;1.61</text>
<text text-anchor="middle" x="415.4382" y="-291.4" font-family="Times,serif" font-size="14.00" fill="#000000">avg_W = 0.5 </text>
</g>
<!-- 4&#45;&gt;9 -->
<g id="edge11" class="edge">
<title>4&#45;&gt;9</title>
<path fill="none" stroke="#000000" d="M467.9002,-377.5468C461.3454,-369.4072 453.3465,-359.4742 445.5894,-349.8415"/>
<polygon fill="#000000" stroke="#000000" points="448.1655,-347.4601 439.1674,-341.8668 442.7135,-351.8506 448.1655,-347.4601"/>
</g>
<!-- 10 -->
<g id="node13" class="node">
<title>10</title>
<polygon fill="none" stroke="#000000" points="606.9926,-330.4 483.8838,-330.4 483.8838,-294.4 606.9926,-294.4 606.9926,-330.4"/>
<text text-anchor="middle" x="545.4382" y="-308.2" font-family="Times,serif" font-size="14.00" fill="#000000"> suc_x_dia &lt;= 334 </text>
</g>
<!-- 4&#45;&gt;10 -->
<g id="edge12" class="edge">
<title>4&#45;&gt;10</title>
<path fill="none" stroke="#000000" d="M496.1083,-377.5468C504.6941,-366.2081 515.9151,-351.3892 525.4855,-338.7502"/>
<polygon fill="#000000" stroke="#000000" points="528.5484,-340.5031 531.7948,-330.4179 522.9677,-336.2774 528.5484,-340.5031"/>
</g>
<!-- 15 -->
<g id="node8" class="node">
<title>15</title>
<polygon fill="none" stroke="#000000" points="149.1569,-236 69.7195,-236 69.7195,-200 149.1569,-200 149.1569,-236"/>
<text text-anchor="middle" x="109.4382" y="-213.8" font-family="Times,serif" font-size="14.00" fill="#000000"> age &lt;= 30 </text>
</g>
<!-- 7&#45;&gt;15 -->
<g id="edge7" class="edge">
<title>7&#45;&gt;15</title>
<path fill="none" stroke="#000000" d="M153.0265,-294.1987C145.0331,-280.2251 133.8727,-260.7152 124.8461,-244.9353"/>
<polygon fill="#000000" stroke="#000000" points="127.8214,-243.0877 119.818,-236.1454 121.7453,-246.5635 127.8214,-243.0877"/>
</g>
<!-- 16 -->
<g id="node9" class="node">
<title>16</title>
<polygon fill="#c1b2ff" stroke="#c1b2ff" points="267.8147,-247.4014 167.0617,-247.4014 167.0617,-188.5986 267.8147,-188.5986 267.8147,-247.4014"/>
<text text-anchor="middle" x="217.4382" y="-230.6" font-family="Times,serif" font-size="14.00" fill="#000000">size = &#160;20 </text>
<text text-anchor="middle" x="217.4382" y="-213.8" font-family="Times,serif" font-size="14.00" fill="#000000"> avg_Y = &#45;2.17</text>
<text text-anchor="middle" x="217.4382" y="-197" font-family="Times,serif" font-size="14.00" fill="#000000">avg_W = 0.45 </text>
</g>
<!-- 7&#45;&gt;16 -->
<g id="edge8" class="edge">
<title>7&#45;&gt;16</title>
<path fill="none" stroke="#000000" d="M173.8499,-294.1987C180.0255,-283.4029 188.0914,-269.3025 195.6032,-256.1707"/>
<polygon fill="#000000" stroke="#000000" points="198.7578,-257.7048 200.6852,-247.2868 192.6817,-254.229 198.7578,-257.7048"/>
</g>
<!-- 25 -->
<g id="node10" class="node">
<title>25</title>
<polygon fill="#c1b2ff" stroke="#c1b2ff" points="100.8147,-153.0014 .0617,-153.0014 .0617,-94.1986 100.8147,-94.1986 100.8147,-153.0014"/>
<text text-anchor="middle" x="50.4382" y="-136.2" font-family="Times,serif" font-size="14.00" fill="#000000">size = &#160;8 </text>
<text text-anchor="middle" x="50.4382" y="-119.4" font-family="Times,serif" font-size="14.00" fill="#000000"> avg_Y = &#45;1.77</text>
<text text-anchor="middle" x="50.4382" y="-102.6" font-family="Times,serif" font-size="14.00" fill="#000000">avg_W = 0.5 </text>
</g>
<!-- 15&#45;&gt;25 -->
<g id="edge9" class="edge">
<title>15&#45;&gt;25</title>
<path fill="none" stroke="#000000" d="M98.0624,-199.7987C91.2501,-188.8991 82.3326,-174.6311 74.0583,-161.3922"/>
<polygon fill="#000000" stroke="#000000" points="77.0105,-159.5117 68.7424,-152.8868 71.0745,-163.2218 77.0105,-159.5117"/>
</g>
<!-- 26 -->
<g id="node11" class="node">
<title>26</title>
<polygon fill="#c1b2ff" stroke="#c1b2ff" points="219.8147,-153.0014 119.0617,-153.0014 119.0617,-94.1986 219.8147,-94.1986 219.8147,-153.0014"/>
<text text-anchor="middle" x="169.4382" y="-136.2" font-family="Times,serif" font-size="14.00" fill="#000000">size = &#160;24 </text>
<text text-anchor="middle" x="169.4382" y="-119.4" font-family="Times,serif" font-size="14.00" fill="#000000"> avg_Y = &#45;1.82</text>
<text text-anchor="middle" x="169.4382" y="-102.6" font-family="Times,serif" font-size="14.00" fill="#000000">avg_W = 0.42 </text>
</g>
<!-- 15&#45;&gt;26 -->
<g id="edge10" class="edge">
<title>15&#45;&gt;26</title>
<path fill="none" stroke="#000000" d="M121.0068,-199.7987C127.9345,-188.8991 137.0032,-174.6311 145.4177,-161.3922"/>
<polygon fill="#000000" stroke="#000000" points="148.4134,-163.2038 150.8237,-152.8868 142.5057,-159.4489 148.4134,-163.2038"/>
</g>
<!-- 17 -->
<g id="node14" class="node">
<title>17</title>
<polygon fill="#c1b2ff" stroke="#c1b2ff" points="476.8147,-247.4014 376.0617,-247.4014 376.0617,-188.5986 476.8147,-188.5986 476.8147,-247.4014"/>
<text text-anchor="middle" x="426.4382" y="-230.6" font-family="Times,serif" font-size="14.00" fill="#000000">size = &#160;15 </text>
<text text-anchor="middle" x="426.4382" y="-213.8" font-family="Times,serif" font-size="14.00" fill="#000000"> avg_Y = &#45;1.45</text>
<text text-anchor="middle" x="426.4382" y="-197" font-family="Times,serif" font-size="14.00" fill="#000000">avg_W = 0.33 </text>
</g>
<!-- 10&#45;&gt;17 -->
<g id="edge13" class="edge">
<title>10&#45;&gt;17</title>
<path fill="none" stroke="#000000" d="M522.4938,-294.1987C507.9687,-282.6763 488.6982,-267.3894 471.2316,-253.5336"/>
<polygon fill="#000000" stroke="#000000" points="473.3664,-250.7596 463.3569,-247.2868 469.016,-256.2436 473.3664,-250.7596"/>
</g>
<!-- 18 -->
<g id="node15" class="node">
<title>18</title>
<polygon fill="#c1b2ff" stroke="#c1b2ff" points="595.8147,-247.4014 495.0617,-247.4014 495.0617,-188.5986 595.8147,-188.5986 595.8147,-247.4014"/>
<text text-anchor="middle" x="545.4382" y="-230.6" font-family="Times,serif" font-size="14.00" fill="#000000">size = &#160;10 </text>
<text text-anchor="middle" x="545.4382" y="-213.8" font-family="Times,serif" font-size="14.00" fill="#000000"> avg_Y = &#45;2.24</text>
<text text-anchor="middle" x="545.4382" y="-197" font-family="Times,serif" font-size="14.00" fill="#000000">avg_W = 0.5 </text>
</g>
<!-- 10&#45;&gt;18 -->
<g id="edge14" class="edge">
<title>10&#45;&gt;18</title>
<path fill="none" stroke="#000000" d="M545.4382,-294.1987C545.4382,-283.7143 545.4382,-270.1133 545.4382,-257.3095"/>
<polygon fill="#000000" stroke="#000000" points="548.9383,-257.2867 545.4382,-247.2868 541.9383,-257.2868 548.9383,-257.2867"/>
</g>
<!-- 11 -->
<g id="node18" class="node">
<title>11</title>
<polygon fill="none" stroke="#000000" points="841.9926,-330.4 718.8838,-330.4 718.8838,-294.4 841.9926,-294.4 841.9926,-330.4"/>
<text text-anchor="middle" x="780.4382" y="-308.2" font-family="Times,serif" font-size="14.00" fill="#000000"> suc_x_dia &lt;= 320 </text>
</g>
<!-- 5&#45;&gt;11 -->
<g id="edge17" class="edge">
<title>5&#45;&gt;11</title>
<path fill="none" stroke="#000000" d="M835.2492,-377.5468C825.6177,-366.099 813.0016,-351.1039 802.3016,-338.3862"/>
<polygon fill="#000000" stroke="#000000" points="804.7137,-335.8166 795.5975,-330.4179 799.3573,-340.3232 804.7137,-335.8166"/>
</g>
<!-- 12 -->
<g id="node19" class="node">
<title>12</title>
<polygon fill="none" stroke="#000000" points="983.0971,-330.4 859.7793,-330.4 859.7793,-294.4 983.0971,-294.4 983.0971,-330.4"/>
<text text-anchor="middle" x="921.4382" y="-308.2" font-family="Times,serif" font-size="14.00" fill="#000000"> loan.size &lt;= 2630 </text>
</g>
<!-- 5&#45;&gt;12 -->
<g id="edge18" class="edge">
<title>5&#45;&gt;12</title>
<path fill="none" stroke="#000000" d="M865.8441,-377.5468C875.6133,-366.099 888.4096,-351.1039 899.2624,-338.3862"/>
<polygon fill="#000000" stroke="#000000" points="902.2333,-340.2967 906.0623,-330.4179 896.9086,-335.7527 902.2333,-340.2967"/>
</g>
<!-- 13 -->
<g id="node28" class="node">
<title>13</title>
<polygon fill="none" stroke="#000000" points="1338.0971,-330.4 1214.7793,-330.4 1214.7793,-294.4 1338.0971,-294.4 1338.0971,-330.4"/>
<text text-anchor="middle" x="1276.4382" y="-308.2" font-family="Times,serif" font-size="14.00" fill="#000000"> loan.size &lt;= 3540 </text>
</g>
<!-- 6&#45;&gt;13 -->
<g id="edge27" class="edge">
<title>6&#45;&gt;13</title>
<path fill="none" stroke="#000000" d="M1276.4382,-377.5468C1276.4382,-366.7532 1276.4382,-352.8061 1276.4382,-340.5876"/>
<polygon fill="#000000" stroke="#000000" points="1279.9383,-340.4179 1276.4382,-330.4179 1272.9383,-340.418 1279.9383,-340.4179"/>
</g>
<!-- 14 -->
<g id="node29" class="node">
<title>14</title>
<polygon fill="#c1b2ff" stroke="#c1b2ff" points="1456.8147,-341.8014 1356.0617,-341.8014 1356.0617,-282.9986 1456.8147,-282.9986 1456.8147,-341.8014"/>
<text text-anchor="middle" x="1406.4382" y="-325" font-family="Times,serif" font-size="14.00" fill="#000000">size = &#160;10 </text>
<text text-anchor="middle" x="1406.4382" y="-308.2" font-family="Times,serif" font-size="14.00" fill="#000000"> avg_Y = &#45;2.43</text>
<text text-anchor="middle" x="1406.4382" y="-291.4" font-family="Times,serif" font-size="14.00" fill="#000000">avg_W = 0.3 </text>
</g>
<!-- 6&#45;&gt;14 -->
<g id="edge28" class="edge">
<title>6&#45;&gt;14</title>
<path fill="none" stroke="#000000" d="M1304.6463,-377.5468C1318.5727,-368.6339 1335.859,-357.5707 1352.2098,-347.1062"/>
<polygon fill="#000000" stroke="#000000" points="1354.1162,-350.0416 1360.6522,-341.703 1350.3428,-344.1457 1354.1162,-350.0416"/>
</g>
<!-- 19 -->
<g id="node20" class="node">
<title>19</title>
<polygon fill="#c1b2ff" stroke="#c1b2ff" points="714.8147,-247.4014 614.0617,-247.4014 614.0617,-188.5986 714.8147,-188.5986 714.8147,-247.4014"/>
<text text-anchor="middle" x="664.4382" y="-230.6" font-family="Times,serif" font-size="14.00" fill="#000000">size = &#160;16 </text>
<text text-anchor="middle" x="664.4382" y="-213.8" font-family="Times,serif" font-size="14.00" fill="#000000"> avg_Y = &#45;1.12</text>
<text text-anchor="middle" x="664.4382" y="-197" font-family="Times,serif" font-size="14.00" fill="#000000">avg_W = 0.56 </text>
</g>
<!-- 11&#45;&gt;19 -->
<g id="edge19" class="edge">
<title>11&#45;&gt;19</title>
<path fill="none" stroke="#000000" d="M758.0722,-294.1987C744.0408,-282.7801 725.4667,-267.6646 708.563,-253.9084"/>
<polygon fill="#000000" stroke="#000000" points="710.3916,-250.8841 700.4262,-247.2868 705.9732,-256.3134 710.3916,-250.8841"/>
</g>
<!-- 20 -->
<g id="node21" class="node">
<title>20</title>
<polygon fill="#c1b2ff" stroke="#c1b2ff" points="832.2625,-247.4014 732.6139,-247.4014 732.6139,-188.5986 832.2625,-188.5986 832.2625,-247.4014"/>
<text text-anchor="middle" x="782.4382" y="-230.6" font-family="Times,serif" font-size="14.00" fill="#000000">size = &#160;18 </text>
<text text-anchor="middle" x="782.4382" y="-213.8" font-family="Times,serif" font-size="14.00" fill="#000000"> avg_Y = &#45;2</text>
<text text-anchor="middle" x="782.4382" y="-197" font-family="Times,serif" font-size="14.00" fill="#000000">avg_W = 0.44 </text>
</g>
<!-- 11&#45;&gt;20 -->
<g id="edge20" class="edge">
<title>11&#45;&gt;20</title>
<path fill="none" stroke="#000000" d="M780.8238,-294.1987C781.0459,-283.7143 781.3341,-270.1133 781.6054,-257.3095"/>
<polygon fill="#000000" stroke="#000000" points="785.105,-257.3587 781.8177,-247.2868 778.1066,-257.2103 785.105,-257.3587"/>
</g>
<!-- 21 -->
<g id="node22" class="node">
<title>21</title>
<polygon fill="none" stroke="#000000" points="988.3754,-236 850.501,-236 850.501,-200 988.3754,-200 988.3754,-236"/>
<text text-anchor="middle" x="919.4382" y="-213.8" font-family="Times,serif" font-size="14.00" fill="#000000"> transport.time &lt;= 25 </text>
</g>
<!-- 12&#45;&gt;21 -->
<g id="edge21" class="edge">
<title>12&#45;&gt;21</title>
<path fill="none" stroke="#000000" d="M921.0526,-294.1987C920.7648,-280.6169 920.3663,-261.8048 920.0372,-246.2711"/>
<polygon fill="#000000" stroke="#000000" points="923.5338,-246.069 919.8226,-236.1454 916.5353,-246.2173 923.5338,-246.069"/>
</g>
<!-- 22 -->
<g id="node23" class="node">
<title>22</title>
<polygon fill="none" stroke="#000000" points="1088.7624,-236 1006.114,-236 1006.114,-200 1088.7624,-200 1088.7624,-236"/>
<text text-anchor="middle" x="1047.4382" y="-213.8" font-family="Times,serif" font-size="14.00" fill="#000000"> rosca &lt;= 0 </text>
</g>
<!-- 12&#45;&gt;22 -->
<g id="edge22" class="edge">
<title>12&#45;&gt;22</title>
<path fill="none" stroke="#000000" d="M945.7323,-294.1987C965.4293,-279.4416 993.368,-258.5097 1014.9805,-242.3175"/>
<polygon fill="#000000" stroke="#000000" points="1017.3142,-244.9424 1023.2187,-236.1454 1013.1171,-239.3403 1017.3142,-244.9424"/>
</g>
<!-- 27 -->
<g id="node24" class="node">
<title>27</title>
<polygon fill="#c1b2ff" stroke="#c1b2ff" points="850.8147,-153.0014 750.0617,-153.0014 750.0617,-94.1986 850.8147,-94.1986 850.8147,-153.0014"/>
<text text-anchor="middle" x="800.4382" y="-136.2" font-family="Times,serif" font-size="14.00" fill="#000000">size = &#160;12 </text>
<text text-anchor="middle" x="800.4382" y="-119.4" font-family="Times,serif" font-size="14.00" fill="#000000"> avg_Y = &#45;1.24</text>
<text text-anchor="middle" x="800.4382" y="-102.6" font-family="Times,serif" font-size="14.00" fill="#000000">avg_W = 0.5 </text>
</g>
<!-- 21&#45;&gt;27 -->
<g id="edge23" class="edge">
<title>21&#45;&gt;27</title>
<path fill="none" stroke="#000000" d="M896.4938,-199.7987C881.9687,-188.2763 862.6982,-172.9894 845.2316,-159.1336"/>
<polygon fill="#000000" stroke="#000000" points="847.3664,-156.3596 837.3569,-152.8868 843.016,-161.8436 847.3664,-156.3596"/>
</g>
<!-- 28 -->
<g id="node25" class="node">
<title>28</title>
<polygon fill="#c1b2ff" stroke="#c1b2ff" points="969.8147,-153.0014 869.0617,-153.0014 869.0617,-94.1986 969.8147,-94.1986 969.8147,-153.0014"/>
<text text-anchor="middle" x="919.4382" y="-136.2" font-family="Times,serif" font-size="14.00" fill="#000000">size = &#160;9 </text>
<text text-anchor="middle" x="919.4382" y="-119.4" font-family="Times,serif" font-size="14.00" fill="#000000"> avg_Y = &#45;2.27</text>
<text text-anchor="middle" x="919.4382" y="-102.6" font-family="Times,serif" font-size="14.00" fill="#000000">avg_W = 0.33 </text>
</g>
<!-- 21&#45;&gt;28 -->
<g id="edge24" class="edge">
<title>21&#45;&gt;28</title>
<path fill="none" stroke="#000000" d="M919.4382,-199.7987C919.4382,-189.3143 919.4382,-175.7133 919.4382,-162.9095"/>
<polygon fill="#000000" stroke="#000000" points="922.9383,-162.8867 919.4382,-152.8868 915.9383,-162.8868 922.9383,-162.8867"/>
</g>
<!-- 29 -->
<g id="node26" class="node">
<title>29</title>
<polygon fill="#c1b2ff" stroke="#c1b2ff" points="1088.8147,-153.0014 988.0617,-153.0014 988.0617,-94.1986 1088.8147,-94.1986 1088.8147,-153.0014"/>
<text text-anchor="middle" x="1038.4382" y="-136.2" font-family="Times,serif" font-size="14.00" fill="#000000">size = &#160;8 </text>
<text text-anchor="middle" x="1038.4382" y="-119.4" font-family="Times,serif" font-size="14.00" fill="#000000"> avg_Y = &#45;1.15</text>
<text text-anchor="middle" x="1038.4382" y="-102.6" font-family="Times,serif" font-size="14.00" fill="#000000">avg_W = 0.5 </text>
</g>
<!-- 22&#45;&gt;29 -->
<g id="edge25" class="edge">
<title>22&#45;&gt;29</title>
<path fill="none" stroke="#000000" d="M1045.7029,-199.7987C1044.7033,-189.3143 1043.4066,-175.7133 1042.1859,-162.9095"/>
<polygon fill="#000000" stroke="#000000" points="1045.6637,-162.5094 1041.2304,-152.8868 1038.6953,-163.1738 1045.6637,-162.5094"/>
</g>
<!-- 30 -->
<g id="node27" class="node">
<title>30</title>
<polygon fill="#c1b2ff" stroke="#c1b2ff" points="1207.8147,-153.0014 1107.0617,-153.0014 1107.0617,-94.1986 1207.8147,-94.1986 1207.8147,-153.0014"/>
<text text-anchor="middle" x="1157.4382" y="-136.2" font-family="Times,serif" font-size="14.00" fill="#000000">size = &#160;15 </text>
<text text-anchor="middle" x="1157.4382" y="-119.4" font-family="Times,serif" font-size="14.00" fill="#000000"> avg_Y = &#45;1.92</text>
<text text-anchor="middle" x="1157.4382" y="-102.6" font-family="Times,serif" font-size="14.00" fill="#000000">avg_W = 0.27 </text>
</g>
<!-- 22&#45;&gt;30 -->
<g id="edge26" class="edge">
<title>22&#45;&gt;30</title>
<path fill="none" stroke="#000000" d="M1068.6473,-199.7987C1081.9529,-188.3801 1099.5664,-173.2646 1115.5958,-159.5084"/>
<polygon fill="#000000" stroke="#000000" points="1118.0024,-162.0553 1123.3117,-152.8868 1113.4436,-156.7432 1118.0024,-162.0553"/>
</g>
<!-- 23 -->
<g id="node30" class="node">
<title>23</title>
<polygon fill="none" stroke="#000000" points="1338.0971,-236 1214.7793,-236 1214.7793,-200 1338.0971,-200 1338.0971,-236"/>
<text text-anchor="middle" x="1276.4382" y="-213.8" font-family="Times,serif" font-size="14.00" fill="#000000"> loan.size &lt;= 1640 </text>
</g>
<!-- 13&#45;&gt;23 -->
<g id="edge29" class="edge">
<title>13&#45;&gt;23</title>
<path fill="none" stroke="#000000" d="M1276.4382,-294.1987C1276.4382,-280.6169 1276.4382,-261.8048 1276.4382,-246.2711"/>
<polygon fill="#000000" stroke="#000000" points="1279.9383,-246.1454 1276.4382,-236.1454 1272.9383,-246.1454 1279.9383,-246.1454"/>
</g>
<!-- 24 -->
<g id="node31" class="node">
<title>24</title>
<polygon fill="#c1b2ff" stroke="#c1b2ff" points="1456.8147,-247.4014 1356.0617,-247.4014 1356.0617,-188.5986 1456.8147,-188.5986 1456.8147,-247.4014"/>
<text text-anchor="middle" x="1406.4382" y="-230.6" font-family="Times,serif" font-size="14.00" fill="#000000">size = &#160;13 </text>
<text text-anchor="middle" x="1406.4382" y="-213.8" font-family="Times,serif" font-size="14.00" fill="#000000"> avg_Y = &#45;2.02</text>
<text text-anchor="middle" x="1406.4382" y="-197" font-family="Times,serif" font-size="14.00" fill="#000000">avg_W = 0.62 </text>
</g>
<!-- 13&#45;&gt;24 -->
<g id="edge30" class="edge">
<title>13&#45;&gt;24</title>
<path fill="none" stroke="#000000" d="M1301.5035,-294.1987C1317.4428,-282.6244 1338.6129,-267.2516 1357.762,-253.3464"/>
<polygon fill="#000000" stroke="#000000" points="1360.0717,-255.9947 1366.1069,-247.2868 1355.9586,-250.3305 1360.0717,-255.9947"/>
</g>
<!-- 31 -->
<g id="node32" class="node">
<title>31</title>
<polygon fill="#c1b2ff" stroke="#c1b2ff" points="1326.8147,-153.0014 1226.0617,-153.0014 1226.0617,-94.1986 1326.8147,-94.1986 1326.8147,-153.0014"/>
<text text-anchor="middle" x="1276.4382" y="-136.2" font-family="Times,serif" font-size="14.00" fill="#000000">size = &#160;20 </text>
<text text-anchor="middle" x="1276.4382" y="-119.4" font-family="Times,serif" font-size="14.00" fill="#000000"> avg_Y = &#45;0.98</text>
<text text-anchor="middle" x="1276.4382" y="-102.6" font-family="Times,serif" font-size="14.00" fill="#000000">avg_W = 0.55 </text>
</g>
<!-- 23&#45;&gt;31 -->
<g id="edge31" class="edge">
<title>23&#45;&gt;31</title>
<path fill="none" stroke="#000000" d="M1276.4382,-199.7987C1276.4382,-189.3143 1276.4382,-175.7133 1276.4382,-162.9095"/>
<polygon fill="#000000" stroke="#000000" points="1279.9383,-162.8867 1276.4382,-152.8868 1272.9383,-162.8868 1279.9383,-162.8867"/>
</g>
<!-- 32 -->
<g id="node33" class="node">
<title>32</title>
<polygon fill="none" stroke="#000000" points="1467.9926,-141.6 1344.8838,-141.6 1344.8838,-105.6 1467.9926,-105.6 1467.9926,-141.6"/>
<text text-anchor="middle" x="1406.4382" y="-119.4" font-family="Times,serif" font-size="14.00" fill="#000000"> suc_x_dia &lt;= 363 </text>
</g>
<!-- 23&#45;&gt;32 -->
<g id="edge32" class="edge">
<title>23&#45;&gt;32</title>
<path fill="none" stroke="#000000" d="M1301.5035,-199.7987C1321.9158,-184.9763 1350.9068,-163.9244 1373.2457,-147.7029"/>
<polygon fill="#000000" stroke="#000000" points="1375.4147,-150.4533 1381.4498,-141.7454 1371.3016,-144.7891 1375.4147,-150.4533"/>
</g>
<!-- 33 -->
<g id="node34" class="node">
<title>33</title>
<polygon fill="#c1b2ff" stroke="#c1b2ff" points="1396.8147,-58.6014 1296.0617,-58.6014 1296.0617,.2014 1396.8147,.2014 1396.8147,-58.6014"/>
<text text-anchor="middle" x="1346.4382" y="-41.8" font-family="Times,serif" font-size="14.00" fill="#000000">size = &#160;21 </text>
<text text-anchor="middle" x="1346.4382" y="-25" font-family="Times,serif" font-size="14.00" fill="#000000"> avg_Y = &#45;1.55</text>
<text text-anchor="middle" x="1346.4382" y="-8.2" font-family="Times,serif" font-size="14.00" fill="#000000">avg_W = 0.43 </text>
</g>
<!-- 32&#45;&gt;33 -->
<g id="edge33" class="edge">
<title>32&#45;&gt;33</title>
<path fill="none" stroke="#000000" d="M1394.8696,-105.3987C1387.9419,-94.4991 1378.8732,-80.2311 1370.4587,-66.9922"/>
<polygon fill="#000000" stroke="#000000" points="1373.3707,-65.0489 1365.0527,-58.4868 1367.463,-68.8038 1373.3707,-65.0489"/>
</g>
<!-- 34 -->
<g id="node35" class="node">
<title>34</title>
<polygon fill="#c1b2ff" stroke="#c1b2ff" points="1515.8147,-58.6014 1415.0617,-58.6014 1415.0617,.2014 1515.8147,.2014 1515.8147,-58.6014"/>
<text text-anchor="middle" x="1465.4382" y="-41.8" font-family="Times,serif" font-size="14.00" fill="#000000">size = &#160;12 </text>
<text text-anchor="middle" x="1465.4382" y="-25" font-family="Times,serif" font-size="14.00" fill="#000000"> avg_Y = &#45;1.66</text>
<text text-anchor="middle" x="1465.4382" y="-8.2" font-family="Times,serif" font-size="14.00" fill="#000000">avg_W = 0.67 </text>
</g>
<!-- 32&#45;&gt;34 -->
<g id="edge34" class="edge">
<title>32&#45;&gt;34</title>
<path fill="none" stroke="#000000" d="M1417.814,-105.3987C1424.6263,-94.4991 1433.5438,-80.2311 1441.8181,-66.9922"/>
<polygon fill="#000000" stroke="#000000" points="1444.8019,-68.8218 1447.134,-58.4868 1438.8659,-65.1117 1444.8019,-68.8218"/>
</g>
</g>
</svg>
