<?xml version="1.0" encoding="UTF-8" standalone="no"?>
<!DOCTYPE svg PUBLIC "-//W3C//DTD SVG 1.1//EN"
 "http://www.w3.org/Graphics/SVG/1.1/DTD/svg11.dtd">
<!-- Generated by graphviz version 2.40.1 (20161225.0304)
 -->
<!-- Title: nodes Pages: 1 -->
<svg width="1663pt" height="849pt"
 viewBox="0.00 0.00 1663.38 848.80" xmlns="http://www.w3.org/2000/svg" xmlns:xlink="http://www.w3.org/1999/xlink">
<g id="graph0" class="graph" transform="scale(1 1) rotate(0) translate(4 844.8)">
<title>nodes</title>
<polygon fill="#ffffff" stroke="transparent" points="-4,4 -4,-844.8 1659.3764,-844.8 1659.3764,4 -4,4"/>
<!-- 0 -->
<g id="node1" class="node">
<title>0</title>
<polygon fill="none" stroke="#000000" points="1209.9876,-840.8 1054.8888,-840.8 1054.8888,-804.8 1209.9876,-804.8 1209.9876,-840.8"/>
<text text-anchor="middle" x="1132.4382" y="-818.6" font-family="Times,serif" font-size="14.00" fill="#000000"> subj.loan.value &lt;= 0.02 </text>
</g>
<!-- 1 -->
<g id="node2" class="node">
<title>1</title>
<polygon fill="none" stroke="#000000" points="1066.6485,-768.8 914.2279,-768.8 914.2279,-732.8 1066.6485,-732.8 1066.6485,-768.8"/>
<text text-anchor="middle" x="990.4382" y="-746.6" font-family="Times,serif" font-size="14.00" fill="#000000"> subj.loan.value &lt;= &#45;0.3 </text>
</g>
<!-- 0&#45;&gt;1 -->
<g id="edge1" class="edge">
<title>0&#45;&gt;1</title>
<path fill="none" stroke="#000000" d="M1096.6056,-804.6314C1078.0225,-795.2089 1055.1393,-783.6062 1035.3817,-773.5883"/>
<polygon fill="#000000" stroke="#000000" points="1036.7612,-770.3635 1026.2593,-768.9628 1033.5955,-776.6069 1036.7612,-770.3635"/>
<text text-anchor="middle" x="1034.0317" y="-788.5239" font-family="Times,serif" font-size="14.00" fill="#000000">True</text>
</g>
<!-- 2 -->
<g id="node3" class="node">
<title>2</title>
<polygon fill="none" stroke="#000000" points="1349.9876,-768.8 1194.8888,-768.8 1194.8888,-732.8 1349.9876,-732.8 1349.9876,-768.8"/>
<text text-anchor="middle" x="1272.4382" y="-746.6" font-family="Times,serif" font-size="14.00" fill="#000000"> subj.loan.value &lt;= 1.07 </text>
</g>
<!-- 0&#45;&gt;2 -->
<g id="edge2" class="edge">
<title>0&#45;&gt;2</title>
<path fill="none" stroke="#000000" d="M1167.7661,-804.6314C1186.0875,-795.2089 1208.6484,-783.6062 1228.1277,-773.5883"/>
<polygon fill="#000000" stroke="#000000" points="1229.8294,-776.6489 1237.1216,-768.9628 1226.628,-770.4239 1229.8294,-776.6489"/>
<text text-anchor="middle" x="1229.4859" y="-788.5682" font-family="Times,serif" font-size="14.00" fill="#000000">False</text>
</g>
<!-- 3 -->
<g id="node4" class="node">
<title>3</title>
<polygon fill="none" stroke="#000000" points="635.1569,-696.8 555.7195,-696.8 555.7195,-660.8 635.1569,-660.8 635.1569,-696.8"/>
<text text-anchor="middle" x="595.4382" y="-674.6" font-family="Times,serif" font-size="14.00" fill="#000000"> age &lt;= 28 </text>
</g>
<!-- 1&#45;&gt;3 -->
<g id="edge3" class="edge">
<title>1&#45;&gt;3</title>
<path fill="none" stroke="#000000" d="M913.8099,-736.8323C834.4261,-722.3624 712.7101,-700.1762 645.086,-687.8497"/>
<polygon fill="#000000" stroke="#000000" points="645.5779,-684.3818 635.1123,-686.0317 644.3225,-691.2683 645.5779,-684.3818"/>
</g>
<!-- 4 -->
<g id="node5" class="node">
<title>4</title>
<polygon fill="none" stroke="#000000" points="1030.1569,-696.8 950.7195,-696.8 950.7195,-660.8 1030.1569,-660.8 1030.1569,-696.8"/>
<text text-anchor="middle" x="990.4382" y="-674.6" font-family="Times,serif" font-size="14.00" fill="#000000"> age &lt;= 47 </text>
</g>
<!-- 1&#45;&gt;4 -->
<g id="edge4" class="edge">
<title>1&#45;&gt;4</title>
<path fill="none" stroke="#000000" d="M990.4382,-732.6314C990.4382,-724.931 990.4382,-715.7743 990.4382,-707.2166"/>
<polygon fill="#000000" stroke="#000000" points="993.9383,-707.2132 990.4382,-697.2133 986.9383,-707.2133 993.9383,-707.2132"/>
</g>
<!-- 5 -->
<g id="node36" class="node">
<title>5</title>
<polygon fill="none" stroke="#000000" points="1312.1569,-696.8 1232.7195,-696.8 1232.7195,-660.8 1312.1569,-660.8 1312.1569,-696.8"/>
<text text-anchor="middle" x="1272.4382" y="-674.6" font-family="Times,serif" font-size="14.00" fill="#000000"> age &lt;= 36 </text>
</g>
<!-- 2&#45;&gt;5 -->
<g id="edge35" class="edge">
<title>2&#45;&gt;5</title>
<path fill="none" stroke="#000000" d="M1272.4382,-732.6314C1272.4382,-724.931 1272.4382,-715.7743 1272.4382,-707.2166"/>
<polygon fill="#000000" stroke="#000000" points="1275.9383,-707.2132 1272.4382,-697.2133 1268.9383,-707.2133 1275.9383,-707.2132"/>
</g>
<!-- 6 -->
<g id="node37" class="node">
<title>6</title>
<polygon fill="none" stroke="#000000" points="1532.4876,-696.8 1384.3888,-696.8 1384.3888,-660.8 1532.4876,-660.8 1532.4876,-696.8"/>
<text text-anchor="middle" x="1458.4382" y="-674.6" font-family="Times,serif" font-size="14.00" fill="#000000"> subj.loan.value &lt;= 1.9 </text>
</g>
<!-- 2&#45;&gt;6 -->
<g id="edge36" class="edge">
<title>2&#45;&gt;6</title>
<path fill="none" stroke="#000000" d="M1319.3739,-732.6314C1344.5819,-722.8734 1375.8308,-710.777 1402.3173,-700.5242"/>
<polygon fill="#000000" stroke="#000000" points="1403.7779,-703.712 1411.8401,-696.838 1401.2509,-697.184 1403.7779,-703.712"/>
</g>
<!-- 7 -->
<g id="node6" class="node">
<title>7</title>
<polygon fill="none" stroke="#000000" points="394.2774,-613.6 308.599,-613.6 308.599,-577.6 394.2774,-577.6 394.2774,-613.6"/>
<text text-anchor="middle" x="351.4382" y="-591.4" font-family="Times,serif" font-size="14.00" fill="#000000"> p.bias &lt;= 0 </text>
</g>
<!-- 3&#45;&gt;7 -->
<g id="edge5" class="edge">
<title>3&#45;&gt;7</title>
<path fill="none" stroke="#000000" d="M555.6923,-665.2473C514.4272,-651.1766 449.6617,-629.0926 404.1463,-613.5726"/>
<polygon fill="#000000" stroke="#000000" points="405.0496,-610.1828 394.4551,-610.268 402.7904,-616.8082 405.0496,-610.1828"/>
</g>
<!-- 8 -->
<g id="node7" class="node">
<title>8</title>
<polygon fill="none" stroke="#000000" points="635.1569,-613.6 555.7195,-613.6 555.7195,-577.6 635.1569,-577.6 635.1569,-613.6"/>
<text text-anchor="middle" x="595.4382" y="-591.4" font-family="Times,serif" font-size="14.00" fill="#000000"> age &lt;= 50 </text>
</g>
<!-- 3&#45;&gt;8 -->
<g id="edge6" class="edge">
<title>3&#45;&gt;8</title>
<path fill="none" stroke="#000000" d="M595.4382,-660.7468C595.4382,-649.9532 595.4382,-636.0061 595.4382,-623.7876"/>
<polygon fill="#000000" stroke="#000000" points="598.9383,-623.6179 595.4382,-613.6179 591.9383,-623.618 598.9383,-623.6179"/>
</g>
<!-- 9 -->
<g id="node30" class="node">
<title>9</title>
<polygon fill="none" stroke="#000000" points="1007.543,-613.6 861.3334,-613.6 861.3334,-577.6 1007.543,-577.6 1007.543,-613.6"/>
<text text-anchor="middle" x="934.4382" y="-591.4" font-family="Times,serif" font-size="14.00" fill="#000000"> income.index &lt;= 0.14 </text>
</g>
<!-- 4&#45;&gt;9 -->
<g id="edge29" class="edge">
<title>4&#45;&gt;9</title>
<path fill="none" stroke="#000000" d="M978.287,-660.7468C970.6552,-649.4081 960.681,-634.5892 952.1739,-621.9502"/>
<polygon fill="#000000" stroke="#000000" points="955.053,-619.9595 946.5657,-613.6179 949.2459,-623.8682 955.053,-619.9595"/>
</g>
<!-- 10 -->
<g id="node31" class="node">
<title>10</title>
<polygon fill="#c1b2ff" stroke="#c1b2ff" points="1139.8147,-625.0014 1025.0617,-625.0014 1025.0617,-566.1986 1139.8147,-566.1986 1139.8147,-625.0014"/>
<text text-anchor="middle" x="1082.4382" y="-608.2" font-family="Times,serif" font-size="14.00" fill="#000000">size = &#160;29 </text>
<text text-anchor="middle" x="1082.4382" y="-591.4" font-family="Times,serif" font-size="14.00" fill="#000000"> avg_Y = &#45;1398.3</text>
<text text-anchor="middle" x="1082.4382" y="-574.6" font-family="Times,serif" font-size="14.00" fill="#000000">avg_W = 0.45 </text>
</g>
<!-- 4&#45;&gt;10 -->
<g id="edge30" class="edge">
<title>4&#45;&gt;10</title>
<path fill="none" stroke="#000000" d="M1010.4008,-660.7468C1019.7614,-652.2816 1031.2669,-641.8766 1042.3129,-631.8872"/>
<polygon fill="#000000" stroke="#000000" points="1044.7855,-634.3702 1049.8548,-625.0668 1040.0902,-629.1783 1044.7855,-634.3702"/>
</g>
<!-- 15 -->
<g id="node8" class="node">
<title>15</title>
<polygon fill="none" stroke="#000000" points="266.5436,-519.2 138.3328,-519.2 138.3328,-483.2 266.5436,-483.2 266.5436,-519.2"/>
<text text-anchor="middle" x="202.4382" y="-497" font-family="Times,serif" font-size="14.00" fill="#000000"> income.index &lt;= 0 </text>
</g>
<!-- 7&#45;&gt;15 -->
<g id="edge7" class="edge">
<title>7&#45;&gt;15</title>
<path fill="none" stroke="#000000" d="M322.7095,-577.3987C299.1077,-562.4457 265.4995,-541.1529 239.807,-524.8752"/>
<polygon fill="#000000" stroke="#000000" points="241.3992,-521.7407 231.0787,-519.3454 237.6529,-527.6539 241.3992,-521.7407"/>
</g>
<!-- 16 -->
<g id="node9" class="node">
<title>16</title>
<polygon fill="#c1b2ff" stroke="#c1b2ff" points="408.8147,-530.6014 294.0617,-530.6014 294.0617,-471.7986 408.8147,-471.7986 408.8147,-530.6014"/>
<text text-anchor="middle" x="351.4382" y="-513.8" font-family="Times,serif" font-size="14.00" fill="#000000">size = &#160;15 </text>
<text text-anchor="middle" x="351.4382" y="-497" font-family="Times,serif" font-size="14.00" fill="#000000"> avg_Y = &#45;627.71</text>
<text text-anchor="middle" x="351.4382" y="-480.2" font-family="Times,serif" font-size="14.00" fill="#000000">avg_W = 0.6 </text>
</g>
<!-- 7&#45;&gt;16 -->
<g id="edge8" class="edge">
<title>7&#45;&gt;16</title>
<path fill="none" stroke="#000000" d="M351.4382,-577.3987C351.4382,-566.9143 351.4382,-553.3133 351.4382,-540.5095"/>
<polygon fill="#000000" stroke="#000000" points="354.9383,-540.4867 351.4382,-530.4868 347.9383,-540.4868 354.9383,-540.4867"/>
</g>
<!-- 17 -->
<g id="node12" class="node">
<title>17</title>
<polygon fill="none" stroke="#000000" points="594.1485,-519.2 434.7279,-519.2 434.7279,-483.2 594.1485,-483.2 594.1485,-519.2"/>
<text text-anchor="middle" x="514.4382" y="-497" font-family="Times,serif" font-size="14.00" fill="#000000"> subj.loan.value &lt;= &#45;0.47 </text>
</g>
<!-- 8&#45;&gt;17 -->
<g id="edge11" class="edge">
<title>8&#45;&gt;17</title>
<path fill="none" stroke="#000000" d="M579.8206,-577.3987C567.6064,-563.1639 550.4625,-543.1839 536.7942,-527.2544"/>
<polygon fill="#000000" stroke="#000000" points="539.176,-524.6554 530.0079,-519.3454 533.8636,-529.2137 539.176,-524.6554"/>
</g>
<!-- 18 -->
<g id="node13" class="node">
<title>18</title>
<polygon fill="none" stroke="#000000" points="740.5436,-519.2 612.3328,-519.2 612.3328,-483.2 740.5436,-483.2 740.5436,-519.2"/>
<text text-anchor="middle" x="676.4382" y="-497" font-family="Times,serif" font-size="14.00" fill="#000000"> income.index &lt;= 0 </text>
</g>
<!-- 8&#45;&gt;18 -->
<g id="edge12" class="edge">
<title>8&#45;&gt;18</title>
<path fill="none" stroke="#000000" d="M611.0558,-577.3987C623.27,-563.1639 640.4139,-543.1839 654.0822,-527.2544"/>
<polygon fill="#000000" stroke="#000000" points="657.0128,-529.2137 660.8685,-519.3454 651.7004,-524.6554 657.0128,-529.2137"/>
</g>
<!-- 23 -->
<g id="node10" class="node">
<title>23</title>
<polygon fill="#c1b2ff" stroke="#c1b2ff" points="130.8147,-436.2014 16.0617,-436.2014 16.0617,-377.3986 130.8147,-377.3986 130.8147,-436.2014"/>
<text text-anchor="middle" x="73.4382" y="-419.4" font-family="Times,serif" font-size="14.00" fill="#000000">size = &#160;19 </text>
<text text-anchor="middle" x="73.4382" y="-402.6" font-family="Times,serif" font-size="14.00" fill="#000000"> avg_Y = &#45;739.28</text>
<text text-anchor="middle" x="73.4382" y="-385.8" font-family="Times,serif" font-size="14.00" fill="#000000">avg_W = 0.32 </text>
</g>
<!-- 15&#45;&gt;23 -->
<g id="edge9" class="edge">
<title>15&#45;&gt;23</title>
<path fill="none" stroke="#000000" d="M177.5657,-482.9987C161.7491,-471.4244 140.7418,-456.0516 121.74,-442.1464"/>
<polygon fill="#000000" stroke="#000000" points="123.5963,-439.1678 113.4593,-436.0868 119.4624,-444.8168 123.5963,-439.1678"/>
</g>
<!-- 24 -->
<g id="node11" class="node">
<title>24</title>
<polygon fill="#c1b2ff" stroke="#c1b2ff" points="256.3147,-436.2014 148.5617,-436.2014 148.5617,-377.3986 256.3147,-377.3986 256.3147,-436.2014"/>
<text text-anchor="middle" x="202.4382" y="-419.4" font-family="Times,serif" font-size="14.00" fill="#000000">size = &#160;15 </text>
<text text-anchor="middle" x="202.4382" y="-402.6" font-family="Times,serif" font-size="14.00" fill="#000000"> avg_Y = &#45;731.5</text>
<text text-anchor="middle" x="202.4382" y="-385.8" font-family="Times,serif" font-size="14.00" fill="#000000">avg_W = 0.47 </text>
</g>
<!-- 15&#45;&gt;24 -->
<g id="edge10" class="edge">
<title>15&#45;&gt;24</title>
<path fill="none" stroke="#000000" d="M202.4382,-482.9987C202.4382,-472.5143 202.4382,-458.9133 202.4382,-446.1095"/>
<polygon fill="#000000" stroke="#000000" points="205.9383,-446.0867 202.4382,-436.0868 198.9383,-446.0868 205.9383,-446.0867"/>
</g>
<!-- 25 -->
<g id="node14" class="node">
<title>25</title>
<polygon fill="none" stroke="#000000" points="434.1485,-424.8 274.7279,-424.8 274.7279,-388.8 434.1485,-388.8 434.1485,-424.8"/>
<text text-anchor="middle" x="354.4382" y="-402.6" font-family="Times,serif" font-size="14.00" fill="#000000"> subj.loan.value &lt;= &#45;0.53 </text>
</g>
<!-- 17&#45;&gt;25 -->
<g id="edge13" class="edge">
<title>17&#45;&gt;25</title>
<path fill="none" stroke="#000000" d="M483.5886,-482.9987C458.0231,-467.9151 421.5238,-446.3805 393.8448,-430.0499"/>
<polygon fill="#000000" stroke="#000000" points="395.5843,-427.0125 385.1931,-424.9454 392.0273,-433.0414 395.5843,-427.0125"/>
</g>
<!-- 26 -->
<g id="node15" class="node">
<title>26</title>
<polygon fill="none" stroke="#000000" points="592.9568,-424.8 451.9196,-424.8 451.9196,-388.8 592.9568,-388.8 592.9568,-424.8"/>
<text text-anchor="middle" x="522.4382" y="-402.6" font-family="Times,serif" font-size="14.00" fill="#000000"> sure.confidence &lt;= 0 </text>
</g>
<!-- 17&#45;&gt;26 -->
<g id="edge14" class="edge">
<title>17&#45;&gt;26</title>
<path fill="none" stroke="#000000" d="M515.9807,-482.9987C517.1317,-469.4169 518.7259,-450.6048 520.0423,-435.0711"/>
<polygon fill="#000000" stroke="#000000" points="523.5434,-435.2053 520.9005,-424.9454 516.5684,-434.6141 523.5434,-435.2053"/>
</g>
<!-- 27 -->
<g id="node28" class="node">
<title>27</title>
<polygon fill="#c1b2ff" stroke="#c1b2ff" points="725.8147,-436.2014 611.0617,-436.2014 611.0617,-377.3986 725.8147,-377.3986 725.8147,-436.2014"/>
<text text-anchor="middle" x="668.4382" y="-419.4" font-family="Times,serif" font-size="14.00" fill="#000000">size = &#160;31 </text>
<text text-anchor="middle" x="668.4382" y="-402.6" font-family="Times,serif" font-size="14.00" fill="#000000"> avg_Y = &#45;487.51</text>
<text text-anchor="middle" x="668.4382" y="-385.8" font-family="Times,serif" font-size="14.00" fill="#000000">avg_W = 0.58 </text>
</g>
<!-- 18&#45;&gt;27 -->
<g id="edge27" class="edge">
<title>18&#45;&gt;27</title>
<path fill="none" stroke="#000000" d="M674.8957,-482.9987C674.0072,-472.5143 672.8546,-458.9133 671.7695,-446.1095"/>
<polygon fill="#000000" stroke="#000000" points="675.2521,-445.7555 670.9201,-436.0868 668.2772,-446.3466 675.2521,-445.7555"/>
</g>
<!-- 28 -->
<g id="node29" class="node">
<title>28</title>
<polygon fill="#c1b2ff" stroke="#c1b2ff" points="858.8147,-436.2014 744.0617,-436.2014 744.0617,-377.3986 858.8147,-377.3986 858.8147,-436.2014"/>
<text text-anchor="middle" x="801.4382" y="-419.4" font-family="Times,serif" font-size="14.00" fill="#000000">size = &#160;28 </text>
<text text-anchor="middle" x="801.4382" y="-402.6" font-family="Times,serif" font-size="14.00" fill="#000000"> avg_Y = &#45;523.41</text>
<text text-anchor="middle" x="801.4382" y="-385.8" font-family="Times,serif" font-size="14.00" fill="#000000">avg_W = 0.46 </text>
</g>
<!-- 18&#45;&gt;28 -->
<g id="edge28" class="edge">
<title>18&#45;&gt;28</title>
<path fill="none" stroke="#000000" d="M700.5395,-482.9987C715.7969,-471.4763 736.0391,-456.1894 754.3863,-442.3336"/>
<polygon fill="#000000" stroke="#000000" points="756.7873,-444.9063 762.6581,-436.0868 752.5687,-439.3203 756.7873,-444.9063"/>
</g>
<!-- 33 -->
<g id="node16" class="node">
<title>33</title>
<polygon fill="none" stroke="#000000" points="292.1485,-330.4 132.7279,-330.4 132.7279,-294.4 292.1485,-294.4 292.1485,-330.4"/>
<text text-anchor="middle" x="212.4382" y="-308.2" font-family="Times,serif" font-size="14.00" fill="#000000"> subj.loan.value &lt;= &#45;0.67 </text>
</g>
<!-- 25&#45;&gt;33 -->
<g id="edge15" class="edge">
<title>25&#45;&gt;33</title>
<path fill="none" stroke="#000000" d="M327.0592,-388.5987C304.6644,-373.711 272.8164,-352.5388 248.3726,-336.2888"/>
<polygon fill="#000000" stroke="#000000" points="249.9986,-333.1669 239.7332,-330.5454 246.1232,-338.9963 249.9986,-333.1669"/>
</g>
<!-- 34 -->
<g id="node17" class="node">
<title>34</title>
<polygon fill="none" stroke="#000000" points="407.1569,-330.4 327.7195,-330.4 327.7195,-294.4 407.1569,-294.4 407.1569,-330.4"/>
<text text-anchor="middle" x="367.4382" y="-308.2" font-family="Times,serif" font-size="14.00" fill="#000000"> age &lt;= 40 </text>
</g>
<!-- 25&#45;&gt;34 -->
<g id="edge16" class="edge">
<title>25&#45;&gt;34</title>
<path fill="none" stroke="#000000" d="M356.9447,-388.5987C358.8151,-375.0169 361.4058,-356.2048 363.5449,-340.6711"/>
<polygon fill="#000000" stroke="#000000" points="367.0423,-340.9294 364.9394,-330.5454 360.1078,-339.9744 367.0423,-340.9294"/>
</g>
<!-- 35 -->
<g id="node26" class="node">
<title>35</title>
<polygon fill="#c1b2ff" stroke="#c1b2ff" points="565.8147,-341.8014 451.0617,-341.8014 451.0617,-282.9986 565.8147,-282.9986 565.8147,-341.8014"/>
<text text-anchor="middle" x="508.4382" y="-325" font-family="Times,serif" font-size="14.00" fill="#000000">size = &#160;18 </text>
<text text-anchor="middle" x="508.4382" y="-308.2" font-family="Times,serif" font-size="14.00" fill="#000000"> avg_Y = &#45;866.85</text>
<text text-anchor="middle" x="508.4382" y="-291.4" font-family="Times,serif" font-size="14.00" fill="#000000">avg_W = 0.22 </text>
</g>
<!-- 26&#45;&gt;35 -->
<g id="edge25" class="edge">
<title>26&#45;&gt;35</title>
<path fill="none" stroke="#000000" d="M519.7389,-388.5987C518.184,-378.1143 516.1669,-364.5133 514.268,-351.7095"/>
<polygon fill="#000000" stroke="#000000" points="517.7108,-351.0651 512.7816,-341.6868 510.7865,-352.0921 517.7108,-351.0651"/>
</g>
<!-- 36 -->
<g id="node27" class="node">
<title>36</title>
<polygon fill="#c1b2ff" stroke="#c1b2ff" points="705.3147,-341.8014 583.5617,-341.8014 583.5617,-282.9986 705.3147,-282.9986 705.3147,-341.8014"/>
<text text-anchor="middle" x="644.4382" y="-325" font-family="Times,serif" font-size="14.00" fill="#000000">size = &#160;21 </text>
<text text-anchor="middle" x="644.4382" y="-308.2" font-family="Times,serif" font-size="14.00" fill="#000000"> avg_Y = &#45;1163.07</text>
<text text-anchor="middle" x="644.4382" y="-291.4" font-family="Times,serif" font-size="14.00" fill="#000000">avg_W = 0.38 </text>
</g>
<!-- 26&#45;&gt;36 -->
<g id="edge26" class="edge">
<title>26&#45;&gt;36</title>
<path fill="none" stroke="#000000" d="M545.961,-388.5987C560.8523,-377.0763 580.6086,-361.7894 598.5155,-347.9336"/>
<polygon fill="#000000" stroke="#000000" points="600.8218,-350.5745 606.5888,-341.6868 596.538,-345.0383 600.8218,-350.5745"/>
</g>
<!-- 37 -->
<g id="node18" class="node">
<title>37</title>
<polygon fill="#c1b2ff" stroke="#c1b2ff" points="114.8147,-247.4014 .0617,-247.4014 .0617,-188.5986 114.8147,-188.5986 114.8147,-247.4014"/>
<text text-anchor="middle" x="57.4382" y="-230.6" font-family="Times,serif" font-size="14.00" fill="#000000">size = &#160;25 </text>
<text text-anchor="middle" x="57.4382" y="-213.8" font-family="Times,serif" font-size="14.00" fill="#000000"> avg_Y = &#45;234.82</text>
<text text-anchor="middle" x="57.4382" y="-197" font-family="Times,serif" font-size="14.00" fill="#000000">avg_W = 0.44 </text>
</g>
<!-- 33&#45;&gt;37 -->
<g id="edge17" class="edge">
<title>33&#45;&gt;37</title>
<path fill="none" stroke="#000000" d="M182.5526,-294.1987C163.2072,-282.4168 137.3994,-266.6989 114.249,-252.5996"/>
<polygon fill="#000000" stroke="#000000" points="115.8869,-249.4991 105.5256,-247.2868 112.2457,-255.4776 115.8869,-249.4991"/>
</g>
<!-- 38 -->
<g id="node19" class="node">
<title>38</title>
<polygon fill="none" stroke="#000000" points="292.1485,-236 132.7279,-236 132.7279,-200 292.1485,-200 292.1485,-236"/>
<text text-anchor="middle" x="212.4382" y="-213.8" font-family="Times,serif" font-size="14.00" fill="#000000"> subj.loan.value &lt;= &#45;0.59 </text>
</g>
<!-- 33&#45;&gt;38 -->
<g id="edge18" class="edge">
<title>33&#45;&gt;38</title>
<path fill="none" stroke="#000000" d="M212.4382,-294.1987C212.4382,-280.6169 212.4382,-261.8048 212.4382,-246.2711"/>
<polygon fill="#000000" stroke="#000000" points="215.9383,-246.1454 212.4382,-236.1454 208.9383,-246.1454 215.9383,-246.1454"/>
</g>
<!-- 39 -->
<g id="node24" class="node">
<title>39</title>
<polygon fill="#c1b2ff" stroke="#c1b2ff" points="424.8147,-247.4014 310.0617,-247.4014 310.0617,-188.5986 424.8147,-188.5986 424.8147,-247.4014"/>
<text text-anchor="middle" x="367.4382" y="-230.6" font-family="Times,serif" font-size="14.00" fill="#000000">size = &#160;7 </text>
<text text-anchor="middle" x="367.4382" y="-213.8" font-family="Times,serif" font-size="14.00" fill="#000000"> avg_Y = &#45;630.28</text>
<text text-anchor="middle" x="367.4382" y="-197" font-family="Times,serif" font-size="14.00" fill="#000000">avg_W = 0.43 </text>
</g>
<!-- 34&#45;&gt;39 -->
<g id="edge23" class="edge">
<title>34&#45;&gt;39</title>
<path fill="none" stroke="#000000" d="M367.4382,-294.1987C367.4382,-283.7143 367.4382,-270.1133 367.4382,-257.3095"/>
<polygon fill="#000000" stroke="#000000" points="370.9383,-257.2867 367.4382,-247.2868 363.9383,-257.2868 370.9383,-257.2867"/>
</g>
<!-- 40 -->
<g id="node25" class="node">
<title>40</title>
<polygon fill="#c1b2ff" stroke="#c1b2ff" points="557.8147,-247.4014 443.0617,-247.4014 443.0617,-188.5986 557.8147,-188.5986 557.8147,-247.4014"/>
<text text-anchor="middle" x="500.4382" y="-230.6" font-family="Times,serif" font-size="14.00" fill="#000000">size = &#160;4 </text>
<text text-anchor="middle" x="500.4382" y="-213.8" font-family="Times,serif" font-size="14.00" fill="#000000"> avg_Y = &#45;728.79</text>
<text text-anchor="middle" x="500.4382" y="-197" font-family="Times,serif" font-size="14.00" fill="#000000">avg_W = 0.25 </text>
</g>
<!-- 34&#45;&gt;40 -->
<g id="edge24" class="edge">
<title>34&#45;&gt;40</title>
<path fill="none" stroke="#000000" d="M393.0819,-294.1987C409.4622,-282.5725 431.242,-267.1137 450.9021,-253.1595"/>
<polygon fill="#000000" stroke="#000000" points="453.0472,-255.9289 459.1761,-247.2868 448.9956,-250.2206 453.0472,-255.9289"/>
</g>
<!-- 41 -->
<g id="node20" class="node">
<title>41</title>
<polygon fill="none" stroke="#000000" points="214.1485,-141.6 54.7279,-141.6 54.7279,-105.6 214.1485,-105.6 214.1485,-141.6"/>
<text text-anchor="middle" x="134.4382" y="-119.4" font-family="Times,serif" font-size="14.00" fill="#000000"> subj.loan.value &lt;= &#45;0.63 </text>
</g>
<!-- 38&#45;&gt;41 -->
<g id="edge19" class="edge">
<title>38&#45;&gt;41</title>
<path fill="none" stroke="#000000" d="M197.399,-199.7987C185.6372,-185.5639 169.1283,-165.5839 155.9662,-149.6544"/>
<polygon fill="#000000" stroke="#000000" points="158.499,-147.2249 149.4312,-141.7454 153.1028,-151.6837 158.499,-147.2249"/>
</g>
<!-- 42 -->
<g id="node21" class="node">
<title>42</title>
<polygon fill="#c1b2ff" stroke="#c1b2ff" points="346.8147,-153.0014 232.0617,-153.0014 232.0617,-94.1986 346.8147,-94.1986 346.8147,-153.0014"/>
<text text-anchor="middle" x="289.4382" y="-136.2" font-family="Times,serif" font-size="14.00" fill="#000000">size = &#160;9 </text>
<text text-anchor="middle" x="289.4382" y="-119.4" font-family="Times,serif" font-size="14.00" fill="#000000"> avg_Y = &#45;764.29</text>
<text text-anchor="middle" x="289.4382" y="-102.6" font-family="Times,serif" font-size="14.00" fill="#000000">avg_W = 0.56 </text>
</g>
<!-- 38&#45;&gt;42 -->
<g id="edge20" class="edge">
<title>38&#45;&gt;42</title>
<path fill="none" stroke="#000000" d="M227.2846,-199.7987C236.3445,-188.6915 248.2576,-174.0863 259.2281,-160.6369"/>
<polygon fill="#000000" stroke="#000000" points="261.941,-162.8481 265.5496,-152.8868 256.5167,-158.4236 261.941,-162.8481"/>
</g>
<!-- 43 -->
<g id="node22" class="node">
<title>43</title>
<polygon fill="#c1b2ff" stroke="#c1b2ff" points="125.8147,-58.6014 11.0617,-58.6014 11.0617,.2014 125.8147,.2014 125.8147,-58.6014"/>
<text text-anchor="middle" x="68.4382" y="-41.8" font-family="Times,serif" font-size="14.00" fill="#000000">size = &#160;16 </text>
<text text-anchor="middle" x="68.4382" y="-25" font-family="Times,serif" font-size="14.00" fill="#000000"> avg_Y = &#45;416.34</text>
<text text-anchor="middle" x="68.4382" y="-8.2" font-family="Times,serif" font-size="14.00" fill="#000000">avg_W = 0.5 </text>
</g>
<!-- 41&#45;&gt;43 -->
<g id="edge21" class="edge">
<title>41&#45;&gt;43</title>
<path fill="none" stroke="#000000" d="M121.7127,-105.3987C114.0922,-94.4991 104.1167,-80.2311 94.8607,-66.9922"/>
<polygon fill="#000000" stroke="#000000" points="97.5126,-64.6769 88.9141,-58.4868 91.7757,-68.6879 97.5126,-64.6769"/>
</g>
<!-- 44 -->
<g id="node23" class="node">
<title>44</title>
<polygon fill="#c1b2ff" stroke="#c1b2ff" points="258.8147,-58.6014 144.0617,-58.6014 144.0617,.2014 258.8147,.2014 258.8147,-58.6014"/>
<text text-anchor="middle" x="201.4382" y="-41.8" font-family="Times,serif" font-size="14.00" fill="#000000">size = &#160;14 </text>
<text text-anchor="middle" x="201.4382" y="-25" font-family="Times,serif" font-size="14.00" fill="#000000"> avg_Y = &#45;582.44</text>
<text text-anchor="middle" x="201.4382" y="-8.2" font-family="Times,serif" font-size="14.00" fill="#000000">avg_W = 0.21 </text>
</g>
<!-- 41&#45;&gt;44 -->
<g id="edge22" class="edge">
<title>41&#45;&gt;44</title>
<path fill="none" stroke="#000000" d="M147.3565,-105.3987C155.0924,-94.4991 165.2191,-80.2311 174.6153,-66.9922"/>
<polygon fill="#000000" stroke="#000000" points="177.7184,-68.6673 180.652,-58.4868 172.01,-64.6158 177.7184,-68.6673"/>
</g>
<!-- 19 -->
<g id="node32" class="node">
<title>19</title>
<polygon fill="none" stroke="#000000" points="1014.1485,-519.2 854.7279,-519.2 854.7279,-483.2 1014.1485,-483.2 1014.1485,-519.2"/>
<text text-anchor="middle" x="934.4382" y="-497" font-family="Times,serif" font-size="14.00" fill="#000000"> subj.loan.value &lt;= &#45;0.18 </text>
</g>
<!-- 9&#45;&gt;19 -->
<g id="edge31" class="edge">
<title>9&#45;&gt;19</title>
<path fill="none" stroke="#000000" d="M934.4382,-577.3987C934.4382,-563.8169 934.4382,-545.0048 934.4382,-529.4711"/>
<polygon fill="#000000" stroke="#000000" points="937.9383,-529.3454 934.4382,-519.3454 930.9383,-529.3454 937.9383,-529.3454"/>
</g>
<!-- 20 -->
<g id="node33" class="node">
<title>20</title>
<polygon fill="#c1b2ff" stroke="#c1b2ff" points="1154.3147,-530.6014 1032.5617,-530.6014 1032.5617,-471.7986 1154.3147,-471.7986 1154.3147,-530.6014"/>
<text text-anchor="middle" x="1093.4382" y="-513.8" font-family="Times,serif" font-size="14.00" fill="#000000">size = &#160;15 </text>
<text text-anchor="middle" x="1093.4382" y="-497" font-family="Times,serif" font-size="14.00" fill="#000000"> avg_Y = &#45;1569.34</text>
<text text-anchor="middle" x="1093.4382" y="-480.2" font-family="Times,serif" font-size="14.00" fill="#000000">avg_W = 0.4 </text>
</g>
<!-- 9&#45;&gt;20 -->
<g id="edge32" class="edge">
<title>9&#45;&gt;20</title>
<path fill="none" stroke="#000000" d="M965.095,-577.3987C985.027,-565.5649 1011.6469,-549.7604 1035.475,-535.6134"/>
<polygon fill="#000000" stroke="#000000" points="1037.298,-538.6015 1044.1099,-530.4868 1033.7243,-532.5824 1037.298,-538.6015"/>
</g>
<!-- 29 -->
<g id="node34" class="node">
<title>29</title>
<polygon fill="#c1b2ff" stroke="#c1b2ff" points="991.8147,-436.2014 877.0617,-436.2014 877.0617,-377.3986 991.8147,-377.3986 991.8147,-436.2014"/>
<text text-anchor="middle" x="934.4382" y="-419.4" font-family="Times,serif" font-size="14.00" fill="#000000">size = &#160;19 </text>
<text text-anchor="middle" x="934.4382" y="-402.6" font-family="Times,serif" font-size="14.00" fill="#000000"> avg_Y = &#45;1590.3</text>
<text text-anchor="middle" x="934.4382" y="-385.8" font-family="Times,serif" font-size="14.00" fill="#000000">avg_W = 0.21 </text>
</g>
<!-- 19&#45;&gt;29 -->
<g id="edge33" class="edge">
<title>19&#45;&gt;29</title>
<path fill="none" stroke="#000000" d="M934.4382,-482.9987C934.4382,-472.5143 934.4382,-458.9133 934.4382,-446.1095"/>
<polygon fill="#000000" stroke="#000000" points="937.9383,-446.0867 934.4382,-436.0868 930.9383,-446.0868 937.9383,-446.0867"/>
</g>
<!-- 30 -->
<g id="node35" class="node">
<title>30</title>
<polygon fill="#c1b2ff" stroke="#c1b2ff" points="1131.3147,-436.2014 1009.5617,-436.2014 1009.5617,-377.3986 1131.3147,-377.3986 1131.3147,-436.2014"/>
<text text-anchor="middle" x="1070.4382" y="-419.4" font-family="Times,serif" font-size="14.00" fill="#000000">size = &#160;28 </text>
<text text-anchor="middle" x="1070.4382" y="-402.6" font-family="Times,serif" font-size="14.00" fill="#000000"> avg_Y = &#45;1783.57</text>
<text text-anchor="middle" x="1070.4382" y="-385.8" font-family="Times,serif" font-size="14.00" fill="#000000">avg_W = 0.39 </text>
</g>
<!-- 19&#45;&gt;30 -->
<g id="edge34" class="edge">
<title>19&#45;&gt;30</title>
<path fill="none" stroke="#000000" d="M960.6604,-482.9987C977.4101,-471.3725 999.6812,-455.9137 1019.7847,-441.9595"/>
<polygon fill="#000000" stroke="#000000" points="1022.0262,-444.6642 1028.2454,-436.0868 1018.0347,-438.9137 1022.0262,-444.6642"/>
</g>
<!-- 11 -->
<g id="node38" class="node">
<title>11</title>
<polygon fill="#c1b2ff" stroke="#c1b2ff" points="1279.3147,-625.0014 1157.5617,-625.0014 1157.5617,-566.1986 1279.3147,-566.1986 1279.3147,-625.0014"/>
<text text-anchor="middle" x="1218.4382" y="-608.2" font-family="Times,serif" font-size="14.00" fill="#000000">size = &#160;18 </text>
<text text-anchor="middle" x="1218.4382" y="-591.4" font-family="Times,serif" font-size="14.00" fill="#000000"> avg_Y = &#45;3395.97</text>
<text text-anchor="middle" x="1218.4382" y="-574.6" font-family="Times,serif" font-size="14.00" fill="#000000">avg_W = 0.44 </text>
</g>
<!-- 5&#45;&gt;11 -->
<g id="edge37" class="edge">
<title>5&#45;&gt;11</title>
<path fill="none" stroke="#000000" d="M1260.721,-660.7468C1255.5437,-652.77 1249.2486,-643.0708 1243.1145,-633.6198"/>
<polygon fill="#000000" stroke="#000000" points="1245.9434,-631.5494 1237.5633,-625.0668 1240.0717,-635.3604 1245.9434,-631.5494"/>
</g>
<!-- 12 -->
<g id="node39" class="node">
<title>12</title>
<polygon fill="none" stroke="#000000" points="1383.2774,-613.6 1297.599,-613.6 1297.599,-577.6 1383.2774,-577.6 1383.2774,-613.6"/>
<text text-anchor="middle" x="1340.4382" y="-591.4" font-family="Times,serif" font-size="14.00" fill="#000000"> p.bias &lt;= 0 </text>
</g>
<!-- 5&#45;&gt;12 -->
<g id="edge38" class="edge">
<title>5&#45;&gt;12</title>
<path fill="none" stroke="#000000" d="M1287.1932,-660.7468C1296.5496,-649.299 1308.8052,-634.3039 1319.1994,-621.5862"/>
<polygon fill="#000000" stroke="#000000" points="1322.0937,-623.5758 1325.712,-613.6179 1316.6736,-619.1459 1322.0937,-623.5758"/>
</g>
<!-- 13 -->
<g id="node44" class="node">
<title>13</title>
<polygon fill="#c1b2ff" stroke="#c1b2ff" points="1515.8147,-625.0014 1401.0617,-625.0014 1401.0617,-566.1986 1515.8147,-566.1986 1515.8147,-625.0014"/>
<text text-anchor="middle" x="1458.4382" y="-608.2" font-family="Times,serif" font-size="14.00" fill="#000000">size = &#160;8 </text>
<text text-anchor="middle" x="1458.4382" y="-591.4" font-family="Times,serif" font-size="14.00" fill="#000000"> avg_Y = &#45;3248.1</text>
<text text-anchor="middle" x="1458.4382" y="-574.6" font-family="Times,serif" font-size="14.00" fill="#000000">avg_W = 0.38 </text>
</g>
<!-- 6&#45;&gt;13 -->
<g id="edge43" class="edge">
<title>6&#45;&gt;13</title>
<path fill="none" stroke="#000000" d="M1458.4382,-660.7468C1458.4382,-653.1769 1458.4382,-644.056 1458.4382,-635.0681"/>
<polygon fill="#000000" stroke="#000000" points="1461.9383,-635.0667 1458.4382,-625.0668 1454.9383,-635.0668 1461.9383,-635.0667"/>
</g>
<!-- 14 -->
<g id="node45" class="node">
<title>14</title>
<polygon fill="#c1b2ff" stroke="#c1b2ff" points="1655.3147,-625.0014 1533.5617,-625.0014 1533.5617,-566.1986 1655.3147,-566.1986 1655.3147,-625.0014"/>
<text text-anchor="middle" x="1594.4382" y="-608.2" font-family="Times,serif" font-size="14.00" fill="#000000">size = &#160;3 </text>
<text text-anchor="middle" x="1594.4382" y="-591.4" font-family="Times,serif" font-size="14.00" fill="#000000"> avg_Y = &#45;7458.31</text>
<text text-anchor="middle" x="1594.4382" y="-574.6" font-family="Times,serif" font-size="14.00" fill="#000000">avg_W = 1 </text>
</g>
<!-- 6&#45;&gt;14 -->
<g id="edge44" class="edge">
<title>6&#45;&gt;14</title>
<path fill="none" stroke="#000000" d="M1487.9482,-660.7468C1502.5174,-651.8339 1520.6015,-640.7707 1537.7069,-630.3062"/>
<polygon fill="#000000" stroke="#000000" points="1539.8352,-633.1073 1546.539,-624.903 1536.1821,-627.136 1539.8352,-633.1073"/>
</g>
<!-- 21 -->
<g id="node40" class="node">
<title>21</title>
<polygon fill="none" stroke="#000000" points="1372.9876,-519.2 1217.8888,-519.2 1217.8888,-483.2 1372.9876,-483.2 1372.9876,-519.2"/>
<text text-anchor="middle" x="1295.4382" y="-497" font-family="Times,serif" font-size="14.00" fill="#000000"> subj.loan.value &lt;= 0.38 </text>
</g>
<!-- 12&#45;&gt;21 -->
<g id="edge39" class="edge">
<title>12&#45;&gt;21</title>
<path fill="none" stroke="#000000" d="M1331.7617,-577.3987C1325.1629,-563.5557 1315.9739,-544.2794 1308.4895,-528.5787"/>
<polygon fill="#000000" stroke="#000000" points="1311.5505,-526.8662 1304.088,-519.3454 1305.2317,-529.8783 1311.5505,-526.8662"/>
</g>
<!-- 22 -->
<g id="node41" class="node">
<title>22</title>
<polygon fill="#c1b2ff" stroke="#c1b2ff" points="1512.3147,-530.6014 1390.5617,-530.6014 1390.5617,-471.7986 1512.3147,-471.7986 1512.3147,-530.6014"/>
<text text-anchor="middle" x="1451.4382" y="-513.8" font-family="Times,serif" font-size="14.00" fill="#000000">size = &#160;18 </text>
<text text-anchor="middle" x="1451.4382" y="-497" font-family="Times,serif" font-size="14.00" fill="#000000"> avg_Y = &#45;2268.55</text>
<text text-anchor="middle" x="1451.4382" y="-480.2" font-family="Times,serif" font-size="14.00" fill="#000000">avg_W = 0.22 </text>
</g>
<!-- 12&#45;&gt;22 -->
<g id="edge40" class="edge">
<title>12&#45;&gt;22</title>
<path fill="none" stroke="#000000" d="M1361.8401,-577.3987C1375.2667,-565.9801 1393.0403,-550.8646 1409.2154,-537.1084"/>
<polygon fill="#000000" stroke="#000000" points="1411.6512,-539.6315 1417.0014,-530.4868 1407.1162,-534.2991 1411.6512,-539.6315"/>
</g>
<!-- 31 -->
<g id="node42" class="node">
<title>31</title>
<polygon fill="#c1b2ff" stroke="#c1b2ff" points="1314.3147,-436.2014 1192.5617,-436.2014 1192.5617,-377.3986 1314.3147,-377.3986 1314.3147,-436.2014"/>
<text text-anchor="middle" x="1253.4382" y="-419.4" font-family="Times,serif" font-size="14.00" fill="#000000">size = &#160;27 </text>
<text text-anchor="middle" x="1253.4382" y="-402.6" font-family="Times,serif" font-size="14.00" fill="#000000"> avg_Y = &#45;2112.51</text>
<text text-anchor="middle" x="1253.4382" y="-385.8" font-family="Times,serif" font-size="14.00" fill="#000000">avg_W = 0.48 </text>
</g>
<!-- 21&#45;&gt;31 -->
<g id="edge41" class="edge">
<title>21&#45;&gt;31</title>
<path fill="none" stroke="#000000" d="M1287.3402,-482.9987C1282.5831,-472.3067 1276.384,-458.3734 1270.5896,-445.3498"/>
<polygon fill="#000000" stroke="#000000" points="1273.7311,-443.8005 1266.4683,-436.0868 1267.3356,-446.646 1273.7311,-443.8005"/>
</g>
<!-- 32 -->
<g id="node43" class="node">
<title>32</title>
<polygon fill="#c1b2ff" stroke="#c1b2ff" points="1454.3147,-436.2014 1332.5617,-436.2014 1332.5617,-377.3986 1454.3147,-377.3986 1454.3147,-436.2014"/>
<text text-anchor="middle" x="1393.4382" y="-419.4" font-family="Times,serif" font-size="14.00" fill="#000000">size = &#160;19 </text>
<text text-anchor="middle" x="1393.4382" y="-402.6" font-family="Times,serif" font-size="14.00" fill="#000000"> avg_Y = &#45;3225.95</text>
<text text-anchor="middle" x="1393.4382" y="-385.8" font-family="Times,serif" font-size="14.00" fill="#000000">avg_W = 0.42 </text>
</g>
<!-- 21&#45;&gt;32 -->
<g id="edge42" class="edge">
<title>21&#45;&gt;32</title>
<path fill="none" stroke="#000000" d="M1314.3336,-482.9987C1326.0799,-471.6839 1341.5947,-456.7391 1355.7706,-443.0839"/>
<polygon fill="#000000" stroke="#000000" points="1358.2606,-445.5451 1363.0346,-436.0868 1353.4043,-440.5036 1358.2606,-445.5451"/>
</g>
</g>
</svg>
