<?xml version="1.0" encoding="UTF-8" standalone="no"?>
<!DOCTYPE svg PUBLIC "-//W3C//DTD SVG 1.1//EN"
 "http://www.w3.org/Graphics/SVG/1.1/DTD/svg11.dtd">
<!-- Generated by graphviz version 2.40.1 (20161225.0304)
 -->
<!-- Title: nodes Pages: 1 -->
<svg width="1343pt" height="566pt"
 viewBox="0.00 0.00 1343.32 565.60" xmlns="http://www.w3.org/2000/svg" xmlns:xlink="http://www.w3.org/1999/xlink">
<g id="graph0" class="graph" transform="scale(1 1) rotate(0) translate(4 561.6)">
<title>nodes</title>
<polygon fill="#ffffff" stroke="transparent" points="-4,4 -4,-561.6 1339.3238,-561.6 1339.3238,4 -4,4"/>
<!-- 0 -->
<g id="node1" class="node">
<title>0</title>
<polygon fill="none" stroke="#000000" points="726.1805,-557.6 585.1433,-557.6 585.1433,-521.6 726.1805,-521.6 726.1805,-557.6"/>
<text text-anchor="middle" x="655.6619" y="-535.4" font-family="Times,serif" font-size="14.00" fill="#000000"> sure.confidence &lt;= 0 </text>
</g>
<!-- 1 -->
<g id="node2" class="node">
<title>1</title>
<polygon fill="none" stroke="#000000" points="625.5416,-485.6 523.7822,-485.6 523.7822,-449.6 625.5416,-449.6 625.5416,-485.6"/>
<text text-anchor="middle" x="574.6619" y="-463.4" font-family="Times,serif" font-size="14.00" fill="#000000"> branch.4 &lt;= 0 </text>
</g>
<!-- 0&#45;&gt;1 -->
<g id="edge1" class="edge">
<title>0&#45;&gt;1</title>
<path fill="none" stroke="#000000" d="M635.2222,-521.4314C625.3414,-512.6485 613.3295,-501.9712 602.6169,-492.4489"/>
<polygon fill="#000000" stroke="#000000" points="604.8945,-489.7906 595.0951,-485.7628 600.2439,-495.0224 604.8945,-489.7906"/>
<text text-anchor="middle" x="596.5631" y="-506.5197" font-family="Times,serif" font-size="14.00" fill="#000000">True</text>
</g>
<!-- 2 -->
<g id="node3" class="node">
<title>2</title>
<polygon fill="none" stroke="#000000" points="798.5916,-485.6 698.7322,-485.6 698.7322,-449.6 798.5916,-449.6 798.5916,-485.6"/>
<text text-anchor="middle" x="748.6619" y="-463.4" font-family="Times,serif" font-size="14.00" fill="#000000"> patience &lt;= 0 </text>
</g>
<!-- 0&#45;&gt;2 -->
<g id="edge2" class="edge">
<title>0&#45;&gt;2</title>
<path fill="none" stroke="#000000" d="M679.1297,-521.4314C690.6946,-512.4779 704.8023,-501.5558 717.2802,-491.8955"/>
<polygon fill="#000000" stroke="#000000" points="719.4369,-494.6521 725.2016,-485.7628 715.1517,-489.1171 719.4369,-494.6521"/>
<text text-anchor="middle" x="722.0452" y="-506.3628" font-family="Times,serif" font-size="14.00" fill="#000000">False</text>
</g>
<!-- 3 -->
<g id="node4" class="node">
<title>3</title>
<polygon fill="none" stroke="#000000" points="427.5991,-413.6 289.7247,-413.6 289.7247,-377.6 427.5991,-377.6 427.5991,-413.6"/>
<text text-anchor="middle" x="358.6619" y="-391.4" font-family="Times,serif" font-size="14.00" fill="#000000"> transport.time &lt;= 25 </text>
</g>
<!-- 1&#45;&gt;3 -->
<g id="edge3" class="edge">
<title>1&#45;&gt;3</title>
<path fill="none" stroke="#000000" d="M523.7464,-450.6282C493.567,-440.5684 455.0418,-427.7266 422.7997,-416.9793"/>
<polygon fill="#000000" stroke="#000000" points="423.6051,-413.5585 413.0115,-413.7165 421.3915,-420.1993 423.6051,-413.5585"/>
</g>
<!-- 4 -->
<g id="node5" class="node">
<title>4</title>
<polygon fill="none" stroke="#000000" points="655.3294,-413.6 493.9944,-413.6 493.9944,-377.6 655.3294,-377.6 655.3294,-413.6"/>
<text text-anchor="middle" x="574.6619" y="-391.4" font-family="Times,serif" font-size="14.00" fill="#000000"> trouble.paying.bills &lt;= 0 </text>
</g>
<!-- 1&#45;&gt;4 -->
<g id="edge4" class="edge">
<title>1&#45;&gt;4</title>
<path fill="none" stroke="#000000" d="M574.6619,-449.4314C574.6619,-441.731 574.6619,-432.5743 574.6619,-424.0166"/>
<polygon fill="#000000" stroke="#000000" points="578.162,-424.0132 574.6619,-414.0133 571.162,-424.0133 578.162,-424.0132"/>
</g>
<!-- 5 -->
<g id="node16" class="node">
<title>5</title>
<polygon fill="none" stroke="#000000" points="812.7631,-413.6 684.5607,-413.6 684.5607,-377.6 812.7631,-377.6 812.7631,-413.6"/>
<text text-anchor="middle" x="748.6619" y="-391.4" font-family="Times,serif" font-size="14.00" fill="#000000"> transport.cost &lt;= 9 </text>
</g>
<!-- 2&#45;&gt;5 -->
<g id="edge15" class="edge">
<title>2&#45;&gt;5</title>
<path fill="none" stroke="#000000" d="M748.6619,-449.4314C748.6619,-441.731 748.6619,-432.5743 748.6619,-424.0166"/>
<polygon fill="#000000" stroke="#000000" points="752.162,-424.0132 748.6619,-414.0133 745.162,-424.0133 752.162,-424.0132"/>
</g>
<!-- 6 -->
<g id="node17" class="node">
<title>6</title>
<polygon fill="none" stroke="#000000" points="1212.7631,-413.6 1084.5607,-413.6 1084.5607,-377.6 1212.7631,-377.6 1212.7631,-413.6"/>
<text text-anchor="middle" x="1148.6619" y="-391.4" font-family="Times,serif" font-size="14.00" fill="#000000"> sms.reminder &lt;= 0 </text>
</g>
<!-- 2&#45;&gt;6 -->
<g id="edge16" class="edge">
<title>2&#45;&gt;6</title>
<path fill="none" stroke="#000000" d="M798.5134,-458.6267C867.8025,-446.1547 993.7525,-423.4837 1074.2034,-409.0025"/>
<polygon fill="#000000" stroke="#000000" points="1075.0466,-412.4071 1084.2683,-407.1908 1073.8064,-405.5178 1075.0466,-412.4071"/>
</g>
<!-- 7 -->
<g id="node6" class="node">
<title>7</title>
<polygon fill="none" stroke="#000000" points="287.8208,-330.4 185.503,-330.4 185.503,-294.4 287.8208,-294.4 287.8208,-330.4"/>
<text text-anchor="middle" x="236.6619" y="-308.2" font-family="Times,serif" font-size="14.00" fill="#000000"> fam.asks &lt;= 0 </text>
</g>
<!-- 3&#45;&gt;7 -->
<g id="edge5" class="edge">
<title>3&#45;&gt;7</title>
<path fill="none" stroke="#000000" d="M332.1897,-377.5468C314.444,-365.4449 290.8854,-349.3786 271.6041,-336.2295"/>
<polygon fill="#000000" stroke="#000000" points="273.3161,-333.1606 263.0824,-330.4179 269.3721,-338.9438 273.3161,-333.1606"/>
</g>
<!-- 8 -->
<g id="node7" class="node">
<title>8</title>
<polygon fill="none" stroke="#000000" points="398.3806,-330.4 318.9432,-330.4 318.9432,-294.4 398.3806,-294.4 398.3806,-330.4"/>
<text text-anchor="middle" x="358.6619" y="-308.2" font-family="Times,serif" font-size="14.00" fill="#000000"> age &lt;= 45 </text>
</g>
<!-- 3&#45;&gt;8 -->
<g id="edge6" class="edge">
<title>3&#45;&gt;8</title>
<path fill="none" stroke="#000000" d="M358.6619,-377.5468C358.6619,-366.7532 358.6619,-352.8061 358.6619,-340.5876"/>
<polygon fill="#000000" stroke="#000000" points="362.162,-340.4179 358.6619,-330.4179 355.162,-340.418 362.162,-340.4179"/>
</g>
<!-- 9 -->
<g id="node14" class="node">
<title>9</title>
<polygon fill="#c1b2ff" stroke="#c1b2ff" points="522.4862,-341.8014 422.8376,-341.8014 422.8376,-282.9986 522.4862,-282.9986 522.4862,-341.8014"/>
<text text-anchor="middle" x="472.6619" y="-325" font-family="Times,serif" font-size="14.00" fill="#000000">size = &#160;9 </text>
<text text-anchor="middle" x="472.6619" y="-308.2" font-family="Times,serif" font-size="14.00" fill="#000000"> avg_Y = 0.67</text>
<text text-anchor="middle" x="472.6619" y="-291.4" font-family="Times,serif" font-size="14.00" fill="#000000">avg_W = 0.67 </text>
</g>
<!-- 4&#45;&gt;9 -->
<g id="edge13" class="edge">
<title>4&#45;&gt;9</title>
<path fill="none" stroke="#000000" d="M552.5294,-377.5468C542.0516,-369.0002 529.1498,-358.4764 516.7955,-348.3992"/>
<polygon fill="#000000" stroke="#000000" points="518.7484,-345.4754 508.787,-341.8668 514.3238,-350.8998 518.7484,-345.4754"/>
</g>
<!-- 10 -->
<g id="node15" class="node">
<title>10</title>
<polygon fill="#c1b2ff" stroke="#c1b2ff" points="639.4862,-341.8014 539.8376,-341.8014 539.8376,-282.9986 639.4862,-282.9986 639.4862,-341.8014"/>
<text text-anchor="middle" x="589.6619" y="-325" font-family="Times,serif" font-size="14.00" fill="#000000">size = &#160;13 </text>
<text text-anchor="middle" x="589.6619" y="-308.2" font-family="Times,serif" font-size="14.00" fill="#000000"> avg_Y = 0.46</text>
<text text-anchor="middle" x="589.6619" y="-291.4" font-family="Times,serif" font-size="14.00" fill="#000000">avg_W = 0.46 </text>
</g>
<!-- 4&#45;&gt;10 -->
<g id="edge14" class="edge">
<title>4&#45;&gt;10</title>
<path fill="none" stroke="#000000" d="M577.9167,-377.5468C579.2814,-369.9769 580.9258,-360.856 582.5463,-351.8681"/>
<polygon fill="#000000" stroke="#000000" points="586.0195,-352.3291 584.3494,-341.8668 579.1306,-351.0871 586.0195,-352.3291"/>
</g>
<!-- 15 -->
<g id="node8" class="node">
<title>15</title>
<polygon fill="none" stroke="#000000" points="172.8208,-236 42.503,-236 42.503,-200 172.8208,-200 172.8208,-236"/>
<text text-anchor="middle" x="107.6619" y="-213.8" font-family="Times,serif" font-size="14.00" fill="#000000"> makes.budget &lt;= 0 </text>
</g>
<!-- 7&#45;&gt;15 -->
<g id="edge7" class="edge">
<title>7&#45;&gt;15</title>
<path fill="none" stroke="#000000" d="M211.7894,-294.1987C191.5341,-279.3763 162.7662,-258.3244 140.5991,-242.1029"/>
<polygon fill="#000000" stroke="#000000" points="142.595,-239.2264 132.458,-236.1454 138.4611,-244.8754 142.595,-239.2264"/>
</g>
<!-- 16 -->
<g id="node9" class="node">
<title>16</title>
<polygon fill="#c1b2ff" stroke="#c1b2ff" points="282.9863,-247.4014 190.3375,-247.4014 190.3375,-188.5986 282.9863,-188.5986 282.9863,-247.4014"/>
<text text-anchor="middle" x="236.6619" y="-230.6" font-family="Times,serif" font-size="14.00" fill="#000000">size = &#160;10 </text>
<text text-anchor="middle" x="236.6619" y="-213.8" font-family="Times,serif" font-size="14.00" fill="#000000"> avg_Y = 0.5</text>
<text text-anchor="middle" x="236.6619" y="-197" font-family="Times,serif" font-size="14.00" fill="#000000">avg_W = 0.4 </text>
</g>
<!-- 7&#45;&gt;16 -->
<g id="edge8" class="edge">
<title>7&#45;&gt;16</title>
<path fill="none" stroke="#000000" d="M236.6619,-294.1987C236.6619,-283.7143 236.6619,-270.1133 236.6619,-257.3095"/>
<polygon fill="#000000" stroke="#000000" points="240.162,-257.2867 236.6619,-247.2868 233.162,-257.2868 240.162,-257.2867"/>
</g>
<!-- 17 -->
<g id="node12" class="node">
<title>17</title>
<polygon fill="#c1b2ff" stroke="#c1b2ff" points="400.4862,-247.4014 300.8376,-247.4014 300.8376,-188.5986 400.4862,-188.5986 400.4862,-247.4014"/>
<text text-anchor="middle" x="350.6619" y="-230.6" font-family="Times,serif" font-size="14.00" fill="#000000">size = &#160;7 </text>
<text text-anchor="middle" x="350.6619" y="-213.8" font-family="Times,serif" font-size="14.00" fill="#000000"> avg_Y = 0.57</text>
<text text-anchor="middle" x="350.6619" y="-197" font-family="Times,serif" font-size="14.00" fill="#000000">avg_W = 0.57 </text>
</g>
<!-- 8&#45;&gt;17 -->
<g id="edge11" class="edge">
<title>8&#45;&gt;17</title>
<path fill="none" stroke="#000000" d="M357.1194,-294.1987C356.2309,-283.7143 355.0783,-270.1133 353.9932,-257.3095"/>
<polygon fill="#000000" stroke="#000000" points="357.4758,-256.9555 353.1438,-247.2868 350.5009,-257.5466 357.4758,-256.9555"/>
</g>
<!-- 18 -->
<g id="node13" class="node">
<title>18</title>
<polygon fill="#c1b2ff" stroke="#c1b2ff" points="517.4862,-247.4014 417.8376,-247.4014 417.8376,-188.5986 517.4862,-188.5986 517.4862,-247.4014"/>
<text text-anchor="middle" x="467.6619" y="-230.6" font-family="Times,serif" font-size="14.00" fill="#000000">size = &#160;7 </text>
<text text-anchor="middle" x="467.6619" y="-213.8" font-family="Times,serif" font-size="14.00" fill="#000000"> avg_Y = 0.29</text>
<text text-anchor="middle" x="467.6619" y="-197" font-family="Times,serif" font-size="14.00" fill="#000000">avg_W = 0.43 </text>
</g>
<!-- 8&#45;&gt;18 -->
<g id="edge12" class="edge">
<title>8&#45;&gt;18</title>
<path fill="none" stroke="#000000" d="M379.6782,-294.1987C392.8629,-282.7801 410.3162,-267.6646 426.1998,-253.9084"/>
<polygon fill="#000000" stroke="#000000" points="428.5778,-256.4792 433.8456,-247.2868 423.9951,-251.1877 428.5778,-256.4792"/>
</g>
<!-- 25 -->
<g id="node10" class="node">
<title>25</title>
<polygon fill="#c1b2ff" stroke="#c1b2ff" points="99.4862,-153.0014 -.1624,-153.0014 -.1624,-94.1986 99.4862,-94.1986 99.4862,-153.0014"/>
<text text-anchor="middle" x="49.6619" y="-136.2" font-family="Times,serif" font-size="14.00" fill="#000000">size = &#160;16 </text>
<text text-anchor="middle" x="49.6619" y="-119.4" font-family="Times,serif" font-size="14.00" fill="#000000"> avg_Y = 0.12</text>
<text text-anchor="middle" x="49.6619" y="-102.6" font-family="Times,serif" font-size="14.00" fill="#000000">avg_W = 0.44 </text>
</g>
<!-- 15&#45;&gt;25 -->
<g id="edge9" class="edge">
<title>15&#45;&gt;25</title>
<path fill="none" stroke="#000000" d="M96.4789,-199.7987C89.8459,-189.0029 81.1825,-174.9025 73.1143,-161.7707"/>
<polygon fill="#000000" stroke="#000000" points="75.873,-159.5748 67.6559,-152.8868 69.9087,-163.2393 75.873,-159.5748"/>
</g>
<!-- 26 -->
<g id="node11" class="node">
<title>26</title>
<polygon fill="#c1b2ff" stroke="#c1b2ff" points="216.4862,-153.0014 116.8376,-153.0014 116.8376,-94.1986 216.4862,-94.1986 216.4862,-153.0014"/>
<text text-anchor="middle" x="166.6619" y="-136.2" font-family="Times,serif" font-size="14.00" fill="#000000">size = &#160;12 </text>
<text text-anchor="middle" x="166.6619" y="-119.4" font-family="Times,serif" font-size="14.00" fill="#000000"> avg_Y = 0.67</text>
<text text-anchor="middle" x="166.6619" y="-102.6" font-family="Times,serif" font-size="14.00" fill="#000000">avg_W = 0.42 </text>
</g>
<!-- 15&#45;&gt;26 -->
<g id="edge10" class="edge">
<title>15&#45;&gt;26</title>
<path fill="none" stroke="#000000" d="M119.0377,-199.7987C125.85,-188.8991 134.7675,-174.6311 143.0418,-161.3922"/>
<polygon fill="#000000" stroke="#000000" points="146.0256,-163.2218 148.3577,-152.8868 140.0896,-159.5117 146.0256,-163.2218"/>
</g>
<!-- 11 -->
<g id="node18" class="node">
<title>11</title>
<polygon fill="none" stroke="#000000" points="795.2163,-330.4 672.1075,-330.4 672.1075,-294.4 795.2163,-294.4 795.2163,-330.4"/>
<text text-anchor="middle" x="733.6619" y="-308.2" font-family="Times,serif" font-size="14.00" fill="#000000"> suc_x_dia &lt;= 346 </text>
</g>
<!-- 5&#45;&gt;11 -->
<g id="edge17" class="edge">
<title>5&#45;&gt;11</title>
<path fill="none" stroke="#000000" d="M745.4071,-377.5468C743.4612,-366.7532 740.9467,-352.8061 738.7438,-340.5876"/>
<polygon fill="#000000" stroke="#000000" points="742.1292,-339.6382 736.9103,-330.4179 735.2402,-340.8803 742.1292,-339.6382"/>
</g>
<!-- 12 -->
<g id="node19" class="node">
<title>12</title>
<polygon fill="none" stroke="#000000" points="952.3208,-330.4 829.003,-330.4 829.003,-294.4 952.3208,-294.4 952.3208,-330.4"/>
<text text-anchor="middle" x="890.6619" y="-308.2" font-family="Times,serif" font-size="14.00" fill="#000000"> loan.size &lt;= 1310 </text>
</g>
<!-- 5&#45;&gt;12 -->
<g id="edge18" class="edge">
<title>5&#45;&gt;12</title>
<path fill="none" stroke="#000000" d="M779.4738,-377.5468C800.5008,-365.2268 828.5396,-348.7984 851.1996,-335.5216"/>
<polygon fill="#000000" stroke="#000000" points="853.0514,-338.4931 859.9101,-330.4179 849.5127,-332.4535 853.0514,-338.4931"/>
</g>
<!-- 13 -->
<g id="node32" class="node">
<title>13</title>
<polygon fill="none" stroke="#000000" points="1217.5991,-330.4 1079.7247,-330.4 1079.7247,-294.4 1217.5991,-294.4 1217.5991,-330.4"/>
<text text-anchor="middle" x="1148.6619" y="-308.2" font-family="Times,serif" font-size="14.00" fill="#000000"> transport.time &lt;= 10 </text>
</g>
<!-- 6&#45;&gt;13 -->
<g id="edge31" class="edge">
<title>6&#45;&gt;13</title>
<path fill="none" stroke="#000000" d="M1148.6619,-377.5468C1148.6619,-366.7532 1148.6619,-352.8061 1148.6619,-340.5876"/>
<polygon fill="#000000" stroke="#000000" points="1152.162,-340.4179 1148.6619,-330.4179 1145.162,-340.418 1152.162,-340.4179"/>
</g>
<!-- 14 -->
<g id="node33" class="node">
<title>14</title>
<polygon fill="#c1b2ff" stroke="#c1b2ff" points="1335.4862,-341.8014 1235.8376,-341.8014 1235.8376,-282.9986 1335.4862,-282.9986 1335.4862,-341.8014"/>
<text text-anchor="middle" x="1285.6619" y="-325" font-family="Times,serif" font-size="14.00" fill="#000000">size = &#160;29 </text>
<text text-anchor="middle" x="1285.6619" y="-308.2" font-family="Times,serif" font-size="14.00" fill="#000000"> avg_Y = 0.34</text>
<text text-anchor="middle" x="1285.6619" y="-291.4" font-family="Times,serif" font-size="14.00" fill="#000000">avg_W = 0.52 </text>
</g>
<!-- 6&#45;&gt;14 -->
<g id="edge32" class="edge">
<title>6&#45;&gt;14</title>
<path fill="none" stroke="#000000" d="M1178.3889,-377.5468C1193.0652,-368.6339 1211.2823,-357.5707 1228.5135,-347.1062"/>
<polygon fill="#000000" stroke="#000000" points="1230.68,-349.8854 1237.4105,-341.703 1227.0464,-343.9023 1230.68,-349.8854"/>
</g>
<!-- 19 -->
<g id="node20" class="node">
<title>19</title>
<polygon fill="none" stroke="#000000" points="626.0368,-236 535.287,-236 535.287,-200 626.0368,-200 626.0368,-236"/>
<text text-anchor="middle" x="580.6619" y="-213.8" font-family="Times,serif" font-size="14.00" fill="#000000"> female &lt;= 0 </text>
</g>
<!-- 11&#45;&gt;19 -->
<g id="edge19" class="edge">
<title>11&#45;&gt;19</title>
<path fill="none" stroke="#000000" d="M704.162,-294.1987C679.8208,-279.1804 645.1145,-257.7668 618.6887,-241.4623"/>
<polygon fill="#000000" stroke="#000000" points="620.4196,-238.4177 610.0713,-236.1454 616.7439,-244.375 620.4196,-238.4177"/>
</g>
<!-- 20 -->
<g id="node21" class="node">
<title>20</title>
<polygon fill="none" stroke="#000000" points="823.3292,-236 643.9946,-236 643.9946,-200 823.3292,-200 823.3292,-236"/>
<text text-anchor="middle" x="733.6619" y="-213.8" font-family="Times,serif" font-size="14.00" fill="#000000"> trouble.paying.bills &lt;= 0.14 </text>
</g>
<!-- 11&#45;&gt;20 -->
<g id="edge20" class="edge">
<title>11&#45;&gt;20</title>
<path fill="none" stroke="#000000" d="M733.6619,-294.1987C733.6619,-280.6169 733.6619,-261.8048 733.6619,-246.2711"/>
<polygon fill="#000000" stroke="#000000" points="737.162,-246.1454 733.6619,-236.1454 730.162,-246.1454 737.162,-246.1454"/>
</g>
<!-- 21 -->
<g id="node28" class="node">
<title>21</title>
<polygon fill="#c1b2ff" stroke="#c1b2ff" points="940.4862,-247.4014 840.8376,-247.4014 840.8376,-188.5986 940.4862,-188.5986 940.4862,-247.4014"/>
<text text-anchor="middle" x="890.6619" y="-230.6" font-family="Times,serif" font-size="14.00" fill="#000000">size = &#160;19 </text>
<text text-anchor="middle" x="890.6619" y="-213.8" font-family="Times,serif" font-size="14.00" fill="#000000"> avg_Y = 0.53</text>
<text text-anchor="middle" x="890.6619" y="-197" font-family="Times,serif" font-size="14.00" fill="#000000">avg_W = 0.53 </text>
</g>
<!-- 12&#45;&gt;21 -->
<g id="edge27" class="edge">
<title>12&#45;&gt;21</title>
<path fill="none" stroke="#000000" d="M890.6619,-294.1987C890.6619,-283.7143 890.6619,-270.1133 890.6619,-257.3095"/>
<polygon fill="#000000" stroke="#000000" points="894.162,-257.2867 890.6619,-247.2868 887.162,-257.2868 894.162,-257.2867"/>
</g>
<!-- 22 -->
<g id="node29" class="node">
<title>22</title>
<polygon fill="none" stroke="#000000" points="1081.2163,-236 958.1075,-236 958.1075,-200 1081.2163,-200 1081.2163,-236"/>
<text text-anchor="middle" x="1019.6619" y="-213.8" font-family="Times,serif" font-size="14.00" fill="#000000"> suc_x_dia &lt;= 289 </text>
</g>
<!-- 12&#45;&gt;22 -->
<g id="edge28" class="edge">
<title>12&#45;&gt;22</title>
<path fill="none" stroke="#000000" d="M915.5344,-294.1987C935.7897,-279.3763 964.5576,-258.3244 986.7247,-242.1029"/>
<polygon fill="#000000" stroke="#000000" points="988.8627,-244.8754 994.8658,-236.1454 984.7288,-239.2264 988.8627,-244.8754"/>
</g>
<!-- 27 -->
<g id="node22" class="node">
<title>27</title>
<polygon fill="#c1b2ff" stroke="#c1b2ff" points="507.4862,-153.0014 407.8376,-153.0014 407.8376,-94.1986 507.4862,-94.1986 507.4862,-153.0014"/>
<text text-anchor="middle" x="457.6619" y="-136.2" font-family="Times,serif" font-size="14.00" fill="#000000">size = &#160;7 </text>
<text text-anchor="middle" x="457.6619" y="-119.4" font-family="Times,serif" font-size="14.00" fill="#000000"> avg_Y = 0</text>
<text text-anchor="middle" x="457.6619" y="-102.6" font-family="Times,serif" font-size="14.00" fill="#000000">avg_W = 0.71 </text>
</g>
<!-- 19&#45;&gt;27 -->
<g id="edge21" class="edge">
<title>19&#45;&gt;27</title>
<path fill="none" stroke="#000000" d="M556.9463,-199.7987C541.9329,-188.2763 522.0147,-172.9894 503.961,-159.1336"/>
<polygon fill="#000000" stroke="#000000" points="505.8855,-156.1986 495.8216,-152.8868 501.6236,-161.7517 505.8855,-156.1986"/>
</g>
<!-- 28 -->
<g id="node23" class="node">
<title>28</title>
<polygon fill="none" stroke="#000000" points="648.2163,-141.6 525.1075,-141.6 525.1075,-105.6 648.2163,-105.6 648.2163,-141.6"/>
<text text-anchor="middle" x="586.6619" y="-119.4" font-family="Times,serif" font-size="14.00" fill="#000000"> suc_x_dia &lt;= 267 </text>
</g>
<!-- 19&#45;&gt;28 -->
<g id="edge22" class="edge">
<title>19&#45;&gt;28</title>
<path fill="none" stroke="#000000" d="M581.8188,-199.7987C582.682,-186.2169 583.8777,-167.4048 584.865,-151.8711"/>
<polygon fill="#000000" stroke="#000000" points="588.3671,-151.9473 585.5086,-141.7454 581.3812,-151.5032 588.3671,-151.9473"/>
</g>
<!-- 29 -->
<g id="node26" class="node">
<title>29</title>
<polygon fill="#c1b2ff" stroke="#c1b2ff" points="777.4862,-153.0014 677.8376,-153.0014 677.8376,-94.1986 777.4862,-94.1986 777.4862,-153.0014"/>
<text text-anchor="middle" x="727.6619" y="-136.2" font-family="Times,serif" font-size="14.00" fill="#000000">size = &#160;19 </text>
<text text-anchor="middle" x="727.6619" y="-119.4" font-family="Times,serif" font-size="14.00" fill="#000000"> avg_Y = 0.32</text>
<text text-anchor="middle" x="727.6619" y="-102.6" font-family="Times,serif" font-size="14.00" fill="#000000">avg_W = 0.47 </text>
</g>
<!-- 20&#45;&gt;29 -->
<g id="edge25" class="edge">
<title>20&#45;&gt;29</title>
<path fill="none" stroke="#000000" d="M732.505,-199.7987C731.8387,-189.3143 730.9742,-175.7133 730.1604,-162.9095"/>
<polygon fill="#000000" stroke="#000000" points="733.6507,-162.6446 729.5233,-152.8868 726.6648,-163.0887 733.6507,-162.6446"/>
</g>
<!-- 30 -->
<g id="node27" class="node">
<title>30</title>
<polygon fill="#c1b2ff" stroke="#c1b2ff" points="894.4862,-153.0014 794.8376,-153.0014 794.8376,-94.1986 894.4862,-94.1986 894.4862,-153.0014"/>
<text text-anchor="middle" x="844.6619" y="-136.2" font-family="Times,serif" font-size="14.00" fill="#000000">size = &#160;9 </text>
<text text-anchor="middle" x="844.6619" y="-119.4" font-family="Times,serif" font-size="14.00" fill="#000000"> avg_Y = 0.56</text>
<text text-anchor="middle" x="844.6619" y="-102.6" font-family="Times,serif" font-size="14.00" fill="#000000">avg_W = 0.44 </text>
</g>
<!-- 20&#45;&gt;30 -->
<g id="edge26" class="edge">
<title>20&#45;&gt;30</title>
<path fill="none" stroke="#000000" d="M755.0638,-199.7987C768.4904,-188.3801 786.264,-173.2646 802.4391,-159.5084"/>
<polygon fill="#000000" stroke="#000000" points="804.8749,-162.0315 810.2251,-152.8868 800.3399,-156.6991 804.8749,-162.0315"/>
</g>
<!-- 33 -->
<g id="node24" class="node">
<title>33</title>
<polygon fill="#c1b2ff" stroke="#c1b2ff" points="578.8779,-58.6014 482.4459,-58.6014 482.4459,.2014 578.8779,.2014 578.8779,-58.6014"/>
<text text-anchor="middle" x="530.6619" y="-41.8" font-family="Times,serif" font-size="14.00" fill="#000000">size = &#160;26 </text>
<text text-anchor="middle" x="530.6619" y="-25" font-family="Times,serif" font-size="14.00" fill="#000000"> avg_Y = 0.38</text>
<text text-anchor="middle" x="530.6619" y="-8.2" font-family="Times,serif" font-size="14.00" fill="#000000">avg_W = 0.5 </text>
</g>
<!-- 28&#45;&gt;33 -->
<g id="edge23" class="edge">
<title>28&#45;&gt;33</title>
<path fill="none" stroke="#000000" d="M575.8645,-105.3987C569.4602,-94.6029 561.0956,-80.5025 553.3056,-67.3707"/>
<polygon fill="#000000" stroke="#000000" points="556.1477,-65.3016 548.0354,-58.4868 550.1273,-68.873 556.1477,-65.3016"/>
</g>
<!-- 34 -->
<g id="node25" class="node">
<title>34</title>
<polygon fill="#c1b2ff" stroke="#c1b2ff" points="688.9863,-58.6014 596.3375,-58.6014 596.3375,.2014 688.9863,.2014 688.9863,-58.6014"/>
<text text-anchor="middle" x="642.6619" y="-41.8" font-family="Times,serif" font-size="14.00" fill="#000000">size = &#160;10 </text>
<text text-anchor="middle" x="642.6619" y="-25" font-family="Times,serif" font-size="14.00" fill="#000000"> avg_Y = 0.3</text>
<text text-anchor="middle" x="642.6619" y="-8.2" font-family="Times,serif" font-size="14.00" fill="#000000">avg_W = 0.5 </text>
</g>
<!-- 28&#45;&gt;34 -->
<g id="edge24" class="edge">
<title>28&#45;&gt;34</title>
<path fill="none" stroke="#000000" d="M597.4593,-105.3987C603.8636,-94.6029 612.2282,-80.5025 620.0182,-67.3707"/>
<polygon fill="#000000" stroke="#000000" points="623.1965,-68.873 625.2884,-58.4868 617.1761,-65.3016 623.1965,-68.873"/>
</g>
<!-- 31 -->
<g id="node30" class="node">
<title>31</title>
<polygon fill="#c1b2ff" stroke="#c1b2ff" points="1043.4862,-153.0014 943.8376,-153.0014 943.8376,-94.1986 1043.4862,-94.1986 1043.4862,-153.0014"/>
<text text-anchor="middle" x="993.6619" y="-136.2" font-family="Times,serif" font-size="14.00" fill="#000000">size = &#160;16 </text>
<text text-anchor="middle" x="993.6619" y="-119.4" font-family="Times,serif" font-size="14.00" fill="#000000"> avg_Y = 0.38</text>
<text text-anchor="middle" x="993.6619" y="-102.6" font-family="Times,serif" font-size="14.00" fill="#000000">avg_W = 0.25 </text>
</g>
<!-- 22&#45;&gt;31 -->
<g id="edge29" class="edge">
<title>22&#45;&gt;31</title>
<path fill="none" stroke="#000000" d="M1014.6488,-199.7987C1011.7326,-189.2105 1007.9409,-175.4436 1004.384,-162.5294"/>
<polygon fill="#000000" stroke="#000000" points="1007.758,-161.5984 1001.7282,-152.8868 1001.0093,-163.4572 1007.758,-161.5984"/>
</g>
<!-- 32 -->
<g id="node31" class="node">
<title>32</title>
<polygon fill="#c1b2ff" stroke="#c1b2ff" points="1160.4862,-153.0014 1060.8376,-153.0014 1060.8376,-94.1986 1160.4862,-94.1986 1160.4862,-153.0014"/>
<text text-anchor="middle" x="1110.6619" y="-136.2" font-family="Times,serif" font-size="14.00" fill="#000000">size = &#160;17 </text>
<text text-anchor="middle" x="1110.6619" y="-119.4" font-family="Times,serif" font-size="14.00" fill="#000000"> avg_Y = 0.24</text>
<text text-anchor="middle" x="1110.6619" y="-102.6" font-family="Times,serif" font-size="14.00" fill="#000000">avg_W = 0.53 </text>
</g>
<!-- 22&#45;&gt;32 -->
<g id="edge30" class="edge">
<title>22&#45;&gt;32</title>
<path fill="none" stroke="#000000" d="M1037.2076,-199.7987C1048.0149,-188.5877 1062.2574,-173.813 1075.3222,-160.2601"/>
<polygon fill="#000000" stroke="#000000" points="1078.0095,-162.5154 1082.43,-152.8868 1072.9699,-157.6572 1078.0095,-162.5154"/>
</g>
<!-- 23 -->
<g id="node34" class="node">
<title>23</title>
<polygon fill="#c1b2ff" stroke="#c1b2ff" points="1198.4862,-247.4014 1098.8376,-247.4014 1098.8376,-188.5986 1198.4862,-188.5986 1198.4862,-247.4014"/>
<text text-anchor="middle" x="1148.6619" y="-230.6" font-family="Times,serif" font-size="14.00" fill="#000000">size = &#160;14 </text>
<text text-anchor="middle" x="1148.6619" y="-213.8" font-family="Times,serif" font-size="14.00" fill="#000000"> avg_Y = 0.07</text>
<text text-anchor="middle" x="1148.6619" y="-197" font-family="Times,serif" font-size="14.00" fill="#000000">avg_W = 0.71 </text>
</g>
<!-- 13&#45;&gt;23 -->
<g id="edge33" class="edge">
<title>13&#45;&gt;23</title>
<path fill="none" stroke="#000000" d="M1148.6619,-294.1987C1148.6619,-283.7143 1148.6619,-270.1133 1148.6619,-257.3095"/>
<polygon fill="#000000" stroke="#000000" points="1152.162,-257.2867 1148.6619,-247.2868 1145.162,-257.2868 1152.162,-257.2867"/>
</g>
<!-- 24 -->
<g id="node35" class="node">
<title>24</title>
<polygon fill="#c1b2ff" stroke="#c1b2ff" points="1315.4862,-247.4014 1215.8376,-247.4014 1215.8376,-188.5986 1315.4862,-188.5986 1315.4862,-247.4014"/>
<text text-anchor="middle" x="1265.6619" y="-230.6" font-family="Times,serif" font-size="14.00" fill="#000000">size = &#160;26 </text>
<text text-anchor="middle" x="1265.6619" y="-213.8" font-family="Times,serif" font-size="14.00" fill="#000000"> avg_Y = 0.38</text>
<text text-anchor="middle" x="1265.6619" y="-197" font-family="Times,serif" font-size="14.00" fill="#000000">avg_W = 0.62 </text>
</g>
<!-- 13&#45;&gt;24 -->
<g id="edge34" class="edge">
<title>13&#45;&gt;24</title>
<path fill="none" stroke="#000000" d="M1171.2207,-294.1987C1185.373,-282.7801 1204.1073,-267.6646 1221.1568,-253.9084"/>
<polygon fill="#000000" stroke="#000000" points="1223.7788,-256.2901 1229.3637,-247.2868 1219.3832,-250.8422 1223.7788,-256.2901"/>
</g>
</g>
</svg>
