<?xml version="1.0" encoding="UTF-8" standalone="no"?>
<!DOCTYPE svg PUBLIC "-//W3C//DTD SVG 1.1//EN"
 "http://www.w3.org/Graphics/SVG/1.1/DTD/svg11.dtd">
<!-- Generated by graphviz version 2.40.1 (20161225.0304)
 -->
<!-- Title: nodes Pages: 1 -->
<svg width="1269pt" height="1110pt"
 viewBox="0.00 0.00 1269.22 1109.60" xmlns="http://www.w3.org/2000/svg" xmlns:xlink="http://www.w3.org/1999/xlink">
<g id="graph0" class="graph" transform="scale(1 1) rotate(0) translate(4 1105.6)">
<title>nodes</title>
<polygon fill="#ffffff" stroke="transparent" points="-4,4 -4,-1105.6 1265.2158,-1105.6 1265.2158,4 -4,4"/>
<!-- 0 -->
<g id="node1" class="node">
<title>0</title>
<polygon fill="none" stroke="#000000" points="1077.7127,-1101.6 931.5031,-1101.6 931.5031,-1065.6 1077.7127,-1065.6 1077.7127,-1101.6"/>
<text text-anchor="middle" x="1004.6079" y="-1079.4" font-family="Times,serif" font-size="14.00" fill="#000000"> income.index &lt;= 0.57 </text>
</g>
<!-- 1 -->
<g id="node2" class="node">
<title>1</title>
<polygon fill="none" stroke="#000000" points="978.3266,-1029.6 898.8892,-1029.6 898.8892,-993.6 978.3266,-993.6 978.3266,-1029.6"/>
<text text-anchor="middle" x="938.6079" y="-1007.4" font-family="Times,serif" font-size="14.00" fill="#000000"> age &lt;= 63 </text>
</g>
<!-- 0&#45;&gt;1 -->
<g id="edge1" class="edge">
<title>0&#45;&gt;1</title>
<path fill="none" stroke="#000000" d="M987.9533,-1065.4314C980.1965,-1056.9694 970.8277,-1046.7489 962.3469,-1037.4971"/>
<polygon fill="#000000" stroke="#000000" points="964.8241,-1035.0198 955.4867,-1030.0133 959.664,-1039.7499 964.8241,-1035.0198"/>
<text text-anchor="middle" x="954.4008" y="-1050.7897" font-family="Times,serif" font-size="14.00" fill="#000000">True</text>
</g>
<!-- 2 -->
<g id="node3" class="node">
<title>2</title>
<polygon fill="none" stroke="#000000" points="1119.8933,-1029.6 1021.3225,-1029.6 1021.3225,-993.6 1119.8933,-993.6 1119.8933,-1029.6"/>
<text text-anchor="middle" x="1070.6079" y="-1007.4" font-family="Times,serif" font-size="14.00" fill="#000000"> subj.pr &lt;= 70 </text>
</g>
<!-- 0&#45;&gt;2 -->
<g id="edge2" class="edge">
<title>0&#45;&gt;2</title>
<path fill="none" stroke="#000000" d="M1021.2625,-1065.4314C1029.0193,-1056.9694 1038.3881,-1046.7489 1046.8689,-1037.4971"/>
<polygon fill="#000000" stroke="#000000" points="1049.5518,-1039.7499 1053.7291,-1030.0133 1044.3917,-1035.0198 1049.5518,-1039.7499"/>
<text text-anchor="middle" x="1054.815" y="-1050.7897" font-family="Times,serif" font-size="14.00" fill="#000000">False</text>
</g>
<!-- 3 -->
<g id="node4" class="node">
<title>3</title>
<polygon fill="none" stroke="#000000" points="862.1625,-946.4 767.0533,-946.4 767.0533,-910.4 862.1625,-910.4 862.1625,-946.4"/>
<text text-anchor="middle" x="814.6079" y="-924.2" font-family="Times,serif" font-size="14.00" fill="#000000"> tuesday &lt;= 0 </text>
</g>
<!-- 1&#45;&gt;3 -->
<g id="edge3" class="edge">
<title>1&#45;&gt;3</title>
<path fill="none" stroke="#000000" d="M911.7017,-993.5468C893.5839,-981.3904 869.5045,-965.2338 849.8584,-952.0519"/>
<polygon fill="#000000" stroke="#000000" points="851.7157,-949.0833 841.4615,-946.4179 847.8154,-954.8961 851.7157,-949.0833"/>
</g>
<!-- 4 -->
<g id="node5" class="node">
<title>4</title>
<polygon fill="#c1b2ff" stroke="#c1b2ff" points="997.3239,-957.8014 879.8919,-957.8014 879.8919,-898.9986 997.3239,-898.9986 997.3239,-957.8014"/>
<text text-anchor="middle" x="938.6079" y="-941" font-family="Times,serif" font-size="14.00" fill="#000000">size = &#160;24 </text>
<text text-anchor="middle" x="938.6079" y="-924.2" font-family="Times,serif" font-size="14.00" fill="#000000"> avg_Y = 2012.21</text>
<text text-anchor="middle" x="938.6079" y="-907.4" font-family="Times,serif" font-size="14.00" fill="#000000">avg_W = 0.46 </text>
</g>
<!-- 1&#45;&gt;4 -->
<g id="edge4" class="edge">
<title>1&#45;&gt;4</title>
<path fill="none" stroke="#000000" d="M938.6079,-993.5468C938.6079,-985.9769 938.6079,-976.856 938.6079,-967.8681"/>
<polygon fill="#000000" stroke="#000000" points="942.108,-967.8667 938.6079,-957.8668 935.108,-967.8668 942.108,-967.8667"/>
</g>
<!-- 5 -->
<g id="node40" class="node">
<title>5</title>
<polygon fill="#c1b2ff" stroke="#c1b2ff" points="1125.8239,-957.8014 1015.3919,-957.8014 1015.3919,-898.9986 1125.8239,-898.9986 1125.8239,-957.8014"/>
<text text-anchor="middle" x="1070.6079" y="-941" font-family="Times,serif" font-size="14.00" fill="#000000">size = &#160;12 </text>
<text text-anchor="middle" x="1070.6079" y="-924.2" font-family="Times,serif" font-size="14.00" fill="#000000"> avg_Y = 970.48</text>
<text text-anchor="middle" x="1070.6079" y="-907.4" font-family="Times,serif" font-size="14.00" fill="#000000">avg_W = 0.67 </text>
</g>
<!-- 2&#45;&gt;5 -->
<g id="edge39" class="edge">
<title>2&#45;&gt;5</title>
<path fill="none" stroke="#000000" d="M1070.6079,-993.5468C1070.6079,-985.9769 1070.6079,-976.856 1070.6079,-967.8681"/>
<polygon fill="#000000" stroke="#000000" points="1074.108,-967.8667 1070.6079,-957.8668 1067.108,-967.8668 1074.108,-967.8667"/>
</g>
<!-- 6 -->
<g id="node41" class="node">
<title>6</title>
<polygon fill="#c1b2ff" stroke="#c1b2ff" points="1261.3239,-957.8014 1143.8919,-957.8014 1143.8919,-898.9986 1261.3239,-898.9986 1261.3239,-957.8014"/>
<text text-anchor="middle" x="1202.6079" y="-941" font-family="Times,serif" font-size="14.00" fill="#000000">size = &#160;14 </text>
<text text-anchor="middle" x="1202.6079" y="-924.2" font-family="Times,serif" font-size="14.00" fill="#000000"> avg_Y = 2036.98</text>
<text text-anchor="middle" x="1202.6079" y="-907.4" font-family="Times,serif" font-size="14.00" fill="#000000">avg_W = 0.64 </text>
</g>
<!-- 2&#45;&gt;6 -->
<g id="edge40" class="edge">
<title>2&#45;&gt;6</title>
<path fill="none" stroke="#000000" d="M1099.2499,-993.5468C1113.3907,-984.6339 1130.9428,-973.5707 1147.5452,-963.1062"/>
<polygon fill="#000000" stroke="#000000" points="1149.524,-965.9962 1156.1175,-957.703 1145.7914,-960.0744 1149.524,-965.9962"/>
</g>
<!-- 7 -->
<g id="node6" class="node">
<title>7</title>
<polygon fill="none" stroke="#000000" points="802.1075,-863.2 701.1083,-863.2 701.1083,-827.2 802.1075,-827.2 802.1075,-863.2"/>
<text text-anchor="middle" x="751.6079" y="-841" font-family="Times,serif" font-size="14.00" fill="#000000"> thurdsay &lt;= 0 </text>
</g>
<!-- 3&#45;&gt;7 -->
<g id="edge5" class="edge">
<title>3&#45;&gt;7</title>
<path fill="none" stroke="#000000" d="M800.9378,-910.3468C792.352,-899.0081 781.131,-884.1892 771.5606,-871.5502"/>
<polygon fill="#000000" stroke="#000000" points="774.0784,-869.0774 765.2513,-863.2179 768.4977,-873.3031 774.0784,-869.0774"/>
</g>
<!-- 8 -->
<g id="node7" class="node">
<title>8</title>
<polygon fill="none" stroke="#000000" points="926.5024,-863.2 828.7134,-863.2 828.7134,-827.2 926.5024,-827.2 926.5024,-863.2"/>
<text text-anchor="middle" x="877.6079" y="-841" font-family="Times,serif" font-size="14.00" fill="#000000"> loan &lt;= 1500 </text>
</g>
<!-- 3&#45;&gt;8 -->
<g id="edge6" class="edge">
<title>3&#45;&gt;8</title>
<path fill="none" stroke="#000000" d="M828.278,-910.3468C836.8638,-899.0081 848.0848,-884.1892 857.6552,-871.5502"/>
<polygon fill="#000000" stroke="#000000" points="860.7181,-873.3031 863.9645,-863.2179 855.1374,-869.0774 860.7181,-873.3031"/>
</g>
<!-- 9 -->
<g id="node8" class="node">
<title>9</title>
<polygon fill="none" stroke="#000000" points="635.6033,-780 485.6125,-780 485.6125,-744 635.6033,-744 635.6033,-780"/>
<text text-anchor="middle" x="560.6079" y="-757.8" font-family="Times,serif" font-size="14.00" fill="#000000"> more.high.school &lt;= 0 </text>
</g>
<!-- 7&#45;&gt;9 -->
<g id="edge7" class="edge">
<title>7&#45;&gt;9</title>
<path fill="none" stroke="#000000" d="M710.1637,-827.1468C681.1301,-814.4997 642.1575,-797.5232 611.2755,-784.0709"/>
<polygon fill="#000000" stroke="#000000" points="612.5369,-780.8028 601.9712,-780.0179 609.7414,-787.2204 612.5369,-780.8028"/>
</g>
<!-- 10 -->
<g id="node9" class="node">
<title>10</title>
<polygon fill="none" stroke="#000000" points="800.5024,-780 702.7134,-780 702.7134,-744 800.5024,-744 800.5024,-780"/>
<text text-anchor="middle" x="751.6079" y="-757.8" font-family="Times,serif" font-size="14.00" fill="#000000"> loan &lt;= 1680 </text>
</g>
<!-- 7&#45;&gt;10 -->
<g id="edge8" class="edge">
<title>7&#45;&gt;10</title>
<path fill="none" stroke="#000000" d="M751.6079,-827.1468C751.6079,-816.3532 751.6079,-802.4061 751.6079,-790.1876"/>
<polygon fill="#000000" stroke="#000000" points="755.108,-790.0179 751.6079,-780.0179 748.108,-790.018 755.108,-790.0179"/>
</g>
<!-- 11 -->
<g id="node38" class="node">
<title>11</title>
<polygon fill="#c1b2ff" stroke="#c1b2ff" points="936.3239,-791.4014 818.8919,-791.4014 818.8919,-732.5986 936.3239,-732.5986 936.3239,-791.4014"/>
<text text-anchor="middle" x="877.6079" y="-774.6" font-family="Times,serif" font-size="14.00" fill="#000000">size = &#160;18 </text>
<text text-anchor="middle" x="877.6079" y="-757.8" font-family="Times,serif" font-size="14.00" fill="#000000"> avg_Y = 1217.95</text>
<text text-anchor="middle" x="877.6079" y="-741" font-family="Times,serif" font-size="14.00" fill="#000000">avg_W = 0.5 </text>
</g>
<!-- 8&#45;&gt;11 -->
<g id="edge37" class="edge">
<title>8&#45;&gt;11</title>
<path fill="none" stroke="#000000" d="M877.6079,-827.1468C877.6079,-819.5769 877.6079,-810.456 877.6079,-801.4681"/>
<polygon fill="#000000" stroke="#000000" points="881.108,-801.4667 877.6079,-791.4668 874.108,-801.4668 881.108,-801.4667"/>
</g>
<!-- 12 -->
<g id="node39" class="node">
<title>12</title>
<polygon fill="#c1b2ff" stroke="#c1b2ff" points="1071.3239,-791.4014 953.8919,-791.4014 953.8919,-732.5986 1071.3239,-732.5986 1071.3239,-791.4014"/>
<text text-anchor="middle" x="1012.6079" y="-774.6" font-family="Times,serif" font-size="14.00" fill="#000000">size = &#160;15 </text>
<text text-anchor="middle" x="1012.6079" y="-757.8" font-family="Times,serif" font-size="14.00" fill="#000000"> avg_Y = 5586.95</text>
<text text-anchor="middle" x="1012.6079" y="-741" font-family="Times,serif" font-size="14.00" fill="#000000">avg_W = 0.47 </text>
</g>
<!-- 8&#45;&gt;12 -->
<g id="edge38" class="edge">
<title>8&#45;&gt;12</title>
<path fill="none" stroke="#000000" d="M906.9009,-827.1468C921.363,-818.2339 939.3141,-807.1707 956.2938,-796.7062"/>
<polygon fill="#000000" stroke="#000000" points="958.3841,-799.5293 965.0609,-791.303 954.7114,-793.5701 958.3841,-799.5293"/>
</g>
<!-- 13 -->
<g id="node10" class="node">
<title>13</title>
<polygon fill="none" stroke="#000000" points="453.7127,-685.6 307.5031,-685.6 307.5031,-649.6 453.7127,-649.6 453.7127,-685.6"/>
<text text-anchor="middle" x="380.6079" y="-663.4" font-family="Times,serif" font-size="14.00" fill="#000000"> income.index &lt;= 0.14 </text>
</g>
<!-- 9&#45;&gt;13 -->
<g id="edge9" class="edge">
<title>9&#45;&gt;13</title>
<path fill="none" stroke="#000000" d="M525.9021,-743.7987C496.8918,-728.5845 455.3673,-706.8071 424.1338,-690.4269"/>
<polygon fill="#000000" stroke="#000000" points="425.6888,-687.2903 415.2072,-685.7454 422.4376,-693.4895 425.6888,-687.2903"/>
</g>
<!-- 14 -->
<g id="node11" class="node">
<title>14</title>
<polygon fill="none" stroke="#000000" points="611.4876,-685.6 509.7282,-685.6 509.7282,-649.6 611.4876,-649.6 611.4876,-685.6"/>
<text text-anchor="middle" x="560.6079" y="-663.4" font-family="Times,serif" font-size="14.00" fill="#000000"> branch.1 &lt;= 0 </text>
</g>
<!-- 9&#45;&gt;14 -->
<g id="edge10" class="edge">
<title>9&#45;&gt;14</title>
<path fill="none" stroke="#000000" d="M560.6079,-743.7987C560.6079,-730.2169 560.6079,-711.4048 560.6079,-695.8711"/>
<polygon fill="#000000" stroke="#000000" points="564.108,-695.7454 560.6079,-685.7454 557.108,-695.7454 564.108,-695.7454"/>
</g>
<!-- 15 -->
<g id="node34" class="node">
<title>15</title>
<polygon fill="none" stroke="#000000" points="797.0024,-685.6 706.2134,-685.6 706.2134,-649.6 797.0024,-649.6 797.0024,-685.6"/>
<text text-anchor="middle" x="751.6079" y="-663.4" font-family="Times,serif" font-size="14.00" fill="#000000"> loan &lt;= 990 </text>
</g>
<!-- 10&#45;&gt;15 -->
<g id="edge33" class="edge">
<title>10&#45;&gt;15</title>
<path fill="none" stroke="#000000" d="M751.6079,-743.7987C751.6079,-730.2169 751.6079,-711.4048 751.6079,-695.8711"/>
<polygon fill="#000000" stroke="#000000" points="755.108,-695.7454 751.6079,-685.7454 748.108,-695.7454 755.108,-695.7454"/>
</g>
<!-- 16 -->
<g id="node35" class="node">
<title>16</title>
<polygon fill="#c1b2ff" stroke="#c1b2ff" points="932.3239,-697.0014 814.8919,-697.0014 814.8919,-638.1986 932.3239,-638.1986 932.3239,-697.0014"/>
<text text-anchor="middle" x="873.6079" y="-680.2" font-family="Times,serif" font-size="14.00" fill="#000000">size = &#160;26 </text>
<text text-anchor="middle" x="873.6079" y="-663.4" font-family="Times,serif" font-size="14.00" fill="#000000"> avg_Y = 4536.25</text>
<text text-anchor="middle" x="873.6079" y="-646.6" font-family="Times,serif" font-size="14.00" fill="#000000">avg_W = 0.58 </text>
</g>
<!-- 10&#45;&gt;16 -->
<g id="edge34" class="edge">
<title>10&#45;&gt;16</title>
<path fill="none" stroke="#000000" d="M775.1307,-743.7987C790.022,-732.2763 809.7783,-716.9894 827.6852,-703.1336"/>
<polygon fill="#000000" stroke="#000000" points="829.9915,-705.7745 835.7585,-696.8868 825.7077,-700.2383 829.9915,-705.7745"/>
</g>
<!-- 17 -->
<g id="node12" class="node">
<title>17</title>
<polygon fill="none" stroke="#000000" points="302.5024,-591.2 204.7134,-591.2 204.7134,-555.2 302.5024,-555.2 302.5024,-591.2"/>
<text text-anchor="middle" x="253.6079" y="-569" font-family="Times,serif" font-size="14.00" fill="#000000"> loan &lt;= 1500 </text>
</g>
<!-- 13&#45;&gt;17 -->
<g id="edge11" class="edge">
<title>13&#45;&gt;17</title>
<path fill="none" stroke="#000000" d="M356.121,-649.3987C336.2676,-634.6416 308.1072,-613.7097 286.3232,-597.5175"/>
<polygon fill="#000000" stroke="#000000" points="288.1333,-594.502 278.0196,-591.3454 283.9574,-600.12 288.1333,-594.502"/>
</g>
<!-- 18 -->
<g id="node13" class="node">
<title>18</title>
<polygon fill="#c1b2ff" stroke="#c1b2ff" points="439.3239,-602.6014 321.8919,-602.6014 321.8919,-543.7986 439.3239,-543.7986 439.3239,-602.6014"/>
<text text-anchor="middle" x="380.6079" y="-585.8" font-family="Times,serif" font-size="14.00" fill="#000000">size = &#160;16 </text>
<text text-anchor="middle" x="380.6079" y="-569" font-family="Times,serif" font-size="14.00" fill="#000000"> avg_Y = 2534.85</text>
<text text-anchor="middle" x="380.6079" y="-552.2" font-family="Times,serif" font-size="14.00" fill="#000000">avg_W = 0.75 </text>
</g>
<!-- 13&#45;&gt;18 -->
<g id="edge12" class="edge">
<title>13&#45;&gt;18</title>
<path fill="none" stroke="#000000" d="M380.6079,-649.3987C380.6079,-638.9143 380.6079,-625.3133 380.6079,-612.5095"/>
<polygon fill="#000000" stroke="#000000" points="384.108,-612.4867 380.6079,-602.4868 377.108,-612.4868 384.108,-612.4867"/>
</g>
<!-- 19 -->
<g id="node16" class="node">
<title>19</title>
<polygon fill="none" stroke="#000000" points="556.5024,-591.2 458.7134,-591.2 458.7134,-555.2 556.5024,-555.2 556.5024,-591.2"/>
<text text-anchor="middle" x="507.6079" y="-569" font-family="Times,serif" font-size="14.00" fill="#000000"> loan &lt;= 3510 </text>
</g>
<!-- 14&#45;&gt;19 -->
<g id="edge15" class="edge">
<title>14&#45;&gt;19</title>
<path fill="none" stroke="#000000" d="M550.389,-649.3987C542.5436,-635.4251 531.5899,-615.9152 522.7305,-600.1353"/>
<polygon fill="#000000" stroke="#000000" points="525.743,-598.3516 517.7955,-591.3454 519.6392,-601.7786 525.743,-598.3516"/>
</g>
<!-- 20 -->
<g id="node17" class="node">
<title>20</title>
<polygon fill="none" stroke="#000000" points="681.5024,-591.2 583.7134,-591.2 583.7134,-555.2 681.5024,-555.2 681.5024,-591.2"/>
<text text-anchor="middle" x="632.6079" y="-569" font-family="Times,serif" font-size="14.00" fill="#000000"> loan &lt;= 1420 </text>
</g>
<!-- 14&#45;&gt;20 -->
<g id="edge16" class="edge">
<title>14&#45;&gt;20</title>
<path fill="none" stroke="#000000" d="M574.4902,-649.3987C585.2477,-635.2945 600.307,-615.55 612.4007,-599.6938"/>
<polygon fill="#000000" stroke="#000000" points="615.4866,-601.4192 618.7682,-591.3454 609.9207,-597.174 615.4866,-601.4192"/>
</g>
<!-- 23 -->
<g id="node14" class="node">
<title>23</title>
<polygon fill="#c1b2ff" stroke="#c1b2ff" points="176.8239,-508.2014 66.3919,-508.2014 66.3919,-449.3986 176.8239,-449.3986 176.8239,-508.2014"/>
<text text-anchor="middle" x="121.6079" y="-491.4" font-family="Times,serif" font-size="14.00" fill="#000000">size = &#160;20 </text>
<text text-anchor="middle" x="121.6079" y="-474.6" font-family="Times,serif" font-size="14.00" fill="#000000"> avg_Y = 929.82</text>
<text text-anchor="middle" x="121.6079" y="-457.8" font-family="Times,serif" font-size="14.00" fill="#000000">avg_W = 0.6 </text>
</g>
<!-- 17&#45;&gt;23 -->
<g id="edge13" class="edge">
<title>17&#45;&gt;23</title>
<path fill="none" stroke="#000000" d="M228.157,-554.9987C211.8999,-543.3725 190.2838,-527.9137 170.7716,-513.9595"/>
<polygon fill="#000000" stroke="#000000" points="172.7297,-511.0569 162.5597,-508.0868 168.6578,-516.7508 172.7297,-511.0569"/>
</g>
<!-- 24 -->
<g id="node15" class="node">
<title>24</title>
<polygon fill="#c1b2ff" stroke="#c1b2ff" points="312.3239,-508.2014 194.8919,-508.2014 194.8919,-449.3986 312.3239,-449.3986 312.3239,-508.2014"/>
<text text-anchor="middle" x="253.6079" y="-491.4" font-family="Times,serif" font-size="14.00" fill="#000000">size = &#160;9 </text>
<text text-anchor="middle" x="253.6079" y="-474.6" font-family="Times,serif" font-size="14.00" fill="#000000"> avg_Y = 5408.24</text>
<text text-anchor="middle" x="253.6079" y="-457.8" font-family="Times,serif" font-size="14.00" fill="#000000">avg_W = 0.56 </text>
</g>
<!-- 17&#45;&gt;24 -->
<g id="edge14" class="edge">
<title>17&#45;&gt;24</title>
<path fill="none" stroke="#000000" d="M253.6079,-554.9987C253.6079,-544.5143 253.6079,-530.9133 253.6079,-518.1095"/>
<polygon fill="#000000" stroke="#000000" points="257.108,-518.0867 253.6079,-508.0868 250.108,-518.0868 257.108,-518.0867"/>
</g>
<!-- 25 -->
<g id="node18" class="node">
<title>25</title>
<polygon fill="none" stroke="#000000" points="431.4876,-496.8 329.7282,-496.8 329.7282,-460.8 431.4876,-460.8 431.4876,-496.8"/>
<text text-anchor="middle" x="380.6079" y="-474.6" font-family="Times,serif" font-size="14.00" fill="#000000"> branch.6 &lt;= 0 </text>
</g>
<!-- 19&#45;&gt;25 -->
<g id="edge17" class="edge">
<title>19&#45;&gt;25</title>
<path fill="none" stroke="#000000" d="M483.121,-554.9987C463.2676,-540.2416 435.1072,-519.3097 413.3232,-503.1175"/>
<polygon fill="#000000" stroke="#000000" points="415.1333,-500.102 405.0196,-496.9454 410.9574,-505.72 415.1333,-500.102"/>
</g>
<!-- 26 -->
<g id="node19" class="node">
<title>26</title>
<polygon fill="#c1b2ff" stroke="#c1b2ff" points="566.3239,-508.2014 448.8919,-508.2014 448.8919,-449.3986 566.3239,-449.3986 566.3239,-508.2014"/>
<text text-anchor="middle" x="507.6079" y="-491.4" font-family="Times,serif" font-size="14.00" fill="#000000">size = &#160;15 </text>
<text text-anchor="middle" x="507.6079" y="-474.6" font-family="Times,serif" font-size="14.00" fill="#000000"> avg_Y = 7227.05</text>
<text text-anchor="middle" x="507.6079" y="-457.8" font-family="Times,serif" font-size="14.00" fill="#000000">avg_W = 0.33 </text>
</g>
<!-- 19&#45;&gt;26 -->
<g id="edge18" class="edge">
<title>19&#45;&gt;26</title>
<path fill="none" stroke="#000000" d="M507.6079,-554.9987C507.6079,-544.5143 507.6079,-530.9133 507.6079,-518.1095"/>
<polygon fill="#000000" stroke="#000000" points="511.108,-518.0867 507.6079,-508.0868 504.108,-518.0868 511.108,-518.0867"/>
</g>
<!-- 27 -->
<g id="node32" class="node">
<title>27</title>
<polygon fill="#c1b2ff" stroke="#c1b2ff" points="701.3239,-508.2014 583.8919,-508.2014 583.8919,-449.3986 701.3239,-449.3986 701.3239,-508.2014"/>
<text text-anchor="middle" x="642.6079" y="-491.4" font-family="Times,serif" font-size="14.00" fill="#000000">size = &#160;16 </text>
<text text-anchor="middle" x="642.6079" y="-474.6" font-family="Times,serif" font-size="14.00" fill="#000000"> avg_Y = 1141.32</text>
<text text-anchor="middle" x="642.6079" y="-457.8" font-family="Times,serif" font-size="14.00" fill="#000000">avg_W = 0.31 </text>
</g>
<!-- 20&#45;&gt;27 -->
<g id="edge31" class="edge">
<title>20&#45;&gt;27</title>
<path fill="none" stroke="#000000" d="M634.536,-554.9987C635.6466,-544.5143 637.0874,-530.9133 638.4438,-518.1095"/>
<polygon fill="#000000" stroke="#000000" points="641.9325,-518.3999 639.5055,-508.0868 634.9714,-517.6624 641.9325,-518.3999"/>
</g>
<!-- 28 -->
<g id="node33" class="node">
<title>28</title>
<polygon fill="#c1b2ff" stroke="#c1b2ff" points="836.3239,-508.2014 718.8919,-508.2014 718.8919,-449.3986 836.3239,-449.3986 836.3239,-508.2014"/>
<text text-anchor="middle" x="777.6079" y="-491.4" font-family="Times,serif" font-size="14.00" fill="#000000">size = &#160;15 </text>
<text text-anchor="middle" x="777.6079" y="-474.6" font-family="Times,serif" font-size="14.00" fill="#000000"> avg_Y = 5038.01</text>
<text text-anchor="middle" x="777.6079" y="-457.8" font-family="Times,serif" font-size="14.00" fill="#000000">avg_W = 0.4 </text>
</g>
<!-- 20&#45;&gt;28 -->
<g id="edge32" class="edge">
<title>20&#45;&gt;28</title>
<path fill="none" stroke="#000000" d="M660.5654,-554.9987C678.5829,-543.2687 702.5929,-527.6373 724.1759,-513.5861"/>
<polygon fill="#000000" stroke="#000000" points="726.1521,-516.476 732.6229,-508.0868 722.3328,-510.6096 726.1521,-516.476"/>
</g>
<!-- 29 -->
<g id="node20" class="node">
<title>29</title>
<polygon fill="none" stroke="#000000" points="362.9321,-402.4 280.2837,-402.4 280.2837,-366.4 362.9321,-366.4 362.9321,-402.4"/>
<text text-anchor="middle" x="321.6079" y="-380.2" font-family="Times,serif" font-size="14.00" fill="#000000"> rosca &lt;= 0 </text>
</g>
<!-- 25&#45;&gt;29 -->
<g id="edge19" class="edge">
<title>25&#45;&gt;29</title>
<path fill="none" stroke="#000000" d="M369.2321,-460.5987C360.4986,-446.6251 348.3049,-427.1152 338.4424,-411.3353"/>
<polygon fill="#000000" stroke="#000000" points="341.2168,-409.1704 332.9488,-402.5454 335.2808,-412.8804 341.2168,-409.1704"/>
</g>
<!-- 30 -->
<g id="node21" class="node">
<title>30</title>
<polygon fill="#c1b2ff" stroke="#c1b2ff" points="498.3239,-413.8014 380.8919,-413.8014 380.8919,-354.9986 498.3239,-354.9986 498.3239,-413.8014"/>
<text text-anchor="middle" x="439.6079" y="-397" font-family="Times,serif" font-size="14.00" fill="#000000">size = &#160;10 </text>
<text text-anchor="middle" x="439.6079" y="-380.2" font-family="Times,serif" font-size="14.00" fill="#000000"> avg_Y = 2422.12</text>
<text text-anchor="middle" x="439.6079" y="-363.4" font-family="Times,serif" font-size="14.00" fill="#000000">avg_W = 0.5 </text>
</g>
<!-- 25&#45;&gt;30 -->
<g id="edge20" class="edge">
<title>25&#45;&gt;30</title>
<path fill="none" stroke="#000000" d="M391.9837,-460.5987C398.796,-449.6991 407.7135,-435.4311 415.9878,-422.1922"/>
<polygon fill="#000000" stroke="#000000" points="418.9716,-424.0218 421.3037,-413.6868 413.0356,-420.3117 418.9716,-424.0218"/>
</g>
<!-- 31 -->
<g id="node22" class="node">
<title>31</title>
<polygon fill="none" stroke="#000000" points="303.5024,-319.2 205.7134,-319.2 205.7134,-283.2 303.5024,-283.2 303.5024,-319.2"/>
<text text-anchor="middle" x="254.6079" y="-297" font-family="Times,serif" font-size="14.00" fill="#000000"> loan &lt;= 1990 </text>
</g>
<!-- 29&#45;&gt;31 -->
<g id="edge21" class="edge">
<title>29&#45;&gt;31</title>
<path fill="none" stroke="#000000" d="M307.0699,-366.3468C297.8511,-354.899 285.7757,-339.9039 275.5343,-327.1862"/>
<polygon fill="#000000" stroke="#000000" points="278.1156,-324.8113 269.1175,-319.2179 272.6636,-329.2017 278.1156,-324.8113"/>
</g>
<!-- 32 -->
<g id="node23" class="node">
<title>32</title>
<polygon fill="none" stroke="#000000" points="438.5024,-319.2 340.7134,-319.2 340.7134,-283.2 438.5024,-283.2 438.5024,-319.2"/>
<text text-anchor="middle" x="389.6079" y="-297" font-family="Times,serif" font-size="14.00" fill="#000000"> loan &lt;= 1300 </text>
</g>
<!-- 29&#45;&gt;32 -->
<g id="edge22" class="edge">
<title>29&#45;&gt;32</title>
<path fill="none" stroke="#000000" d="M336.3629,-366.3468C345.7193,-354.899 357.9749,-339.9039 368.3691,-327.1862"/>
<polygon fill="#000000" stroke="#000000" points="371.2634,-329.1758 374.8817,-319.2179 365.8433,-324.7459 371.2634,-329.1758"/>
</g>
<!-- 33 -->
<g id="node24" class="node">
<title>33</title>
<polygon fill="none" stroke="#000000" points="177.8933,-236 79.3225,-236 79.3225,-200 177.8933,-200 177.8933,-236"/>
<text text-anchor="middle" x="128.6079" y="-213.8" font-family="Times,serif" font-size="14.00" fill="#000000"> subj.pr &lt;= 90 </text>
</g>
<!-- 31&#45;&gt;33 -->
<g id="edge23" class="edge">
<title>31&#45;&gt;33</title>
<path fill="none" stroke="#000000" d="M227.2678,-283.1468C208.8577,-270.9904 184.3899,-254.8338 164.427,-241.6519"/>
<polygon fill="#000000" stroke="#000000" points="166.1682,-238.6075 155.8947,-236.0179 162.3109,-244.449 166.1682,-238.6075"/>
</g>
<!-- 34 -->
<g id="node25" class="node">
<title>34</title>
<polygon fill="#c1b2ff" stroke="#c1b2ff" points="313.3239,-247.4014 195.8919,-247.4014 195.8919,-188.5986 313.3239,-188.5986 313.3239,-247.4014"/>
<text text-anchor="middle" x="254.6079" y="-230.6" font-family="Times,serif" font-size="14.00" fill="#000000">size = &#160;11 </text>
<text text-anchor="middle" x="254.6079" y="-213.8" font-family="Times,serif" font-size="14.00" fill="#000000"> avg_Y = 3477.78</text>
<text text-anchor="middle" x="254.6079" y="-197" font-family="Times,serif" font-size="14.00" fill="#000000">avg_W = 0.64 </text>
</g>
<!-- 31&#45;&gt;34 -->
<g id="edge24" class="edge">
<title>31&#45;&gt;34</title>
<path fill="none" stroke="#000000" d="M254.6079,-283.1468C254.6079,-275.5769 254.6079,-266.456 254.6079,-257.4681"/>
<polygon fill="#000000" stroke="#000000" points="258.108,-257.4667 254.6079,-247.4668 251.108,-257.4668 258.108,-257.4667"/>
</g>
<!-- 35 -->
<g id="node30" class="node">
<title>35</title>
<polygon fill="#c1b2ff" stroke="#c1b2ff" points="448.3239,-247.4014 330.8919,-247.4014 330.8919,-188.5986 448.3239,-188.5986 448.3239,-247.4014"/>
<text text-anchor="middle" x="389.6079" y="-230.6" font-family="Times,serif" font-size="14.00" fill="#000000">size = &#160;19 </text>
<text text-anchor="middle" x="389.6079" y="-213.8" font-family="Times,serif" font-size="14.00" fill="#000000"> avg_Y = 1147.08</text>
<text text-anchor="middle" x="389.6079" y="-197" font-family="Times,serif" font-size="14.00" fill="#000000">avg_W = 0.63 </text>
</g>
<!-- 32&#45;&gt;35 -->
<g id="edge29" class="edge">
<title>32&#45;&gt;35</title>
<path fill="none" stroke="#000000" d="M389.6079,-283.1468C389.6079,-275.5769 389.6079,-266.456 389.6079,-257.4681"/>
<polygon fill="#000000" stroke="#000000" points="393.108,-257.4667 389.6079,-247.4668 386.108,-257.4668 393.108,-257.4667"/>
</g>
<!-- 36 -->
<g id="node31" class="node">
<title>36</title>
<polygon fill="#c1b2ff" stroke="#c1b2ff" points="583.3239,-247.4014 465.8919,-247.4014 465.8919,-188.5986 583.3239,-188.5986 583.3239,-247.4014"/>
<text text-anchor="middle" x="524.6079" y="-230.6" font-family="Times,serif" font-size="14.00" fill="#000000">size = &#160;16 </text>
<text text-anchor="middle" x="524.6079" y="-213.8" font-family="Times,serif" font-size="14.00" fill="#000000"> avg_Y = 3166.27</text>
<text text-anchor="middle" x="524.6079" y="-197" font-family="Times,serif" font-size="14.00" fill="#000000">avg_W = 0.69 </text>
</g>
<!-- 32&#45;&gt;36 -->
<g id="edge30" class="edge">
<title>32&#45;&gt;36</title>
<path fill="none" stroke="#000000" d="M418.9009,-283.1468C433.363,-274.2339 451.3141,-263.1707 468.2938,-252.7062"/>
<polygon fill="#000000" stroke="#000000" points="470.3841,-255.5293 477.0609,-247.303 466.7114,-249.5701 470.3841,-255.5293"/>
</g>
<!-- 37 -->
<g id="node26" class="node">
<title>37</title>
<polygon fill="#c1b2ff" stroke="#c1b2ff" points="117.3239,-153.0014 -.1081,-153.0014 -.1081,-94.1986 117.3239,-94.1986 117.3239,-153.0014"/>
<text text-anchor="middle" x="58.6079" y="-136.2" font-family="Times,serif" font-size="14.00" fill="#000000">size = &#160;15 </text>
<text text-anchor="middle" x="58.6079" y="-119.4" font-family="Times,serif" font-size="14.00" fill="#000000"> avg_Y = 1509.42</text>
<text text-anchor="middle" x="58.6079" y="-102.6" font-family="Times,serif" font-size="14.00" fill="#000000">avg_W = 0.53 </text>
</g>
<!-- 33&#45;&gt;37 -->
<g id="edge25" class="edge">
<title>33&#45;&gt;37</title>
<path fill="none" stroke="#000000" d="M115.1112,-199.7987C106.9519,-188.7953 96.247,-174.359 86.3515,-161.0142"/>
<polygon fill="#000000" stroke="#000000" points="89.0926,-158.8346 80.3248,-152.8868 83.4698,-163.0041 89.0926,-158.8346"/>
</g>
<!-- 38 -->
<g id="node27" class="node">
<title>38</title>
<polygon fill="none" stroke="#000000" points="263.7133,-141.6 135.5025,-141.6 135.5025,-105.6 263.7133,-105.6 263.7133,-141.6"/>
<text text-anchor="middle" x="199.6079" y="-119.4" font-family="Times,serif" font-size="14.00" fill="#000000"> income.index &lt;= 0 </text>
</g>
<!-- 33&#45;&gt;38 -->
<g id="edge26" class="edge">
<title>33&#45;&gt;38</title>
<path fill="none" stroke="#000000" d="M142.2974,-199.7987C152.9055,-185.6945 167.7557,-165.95 179.6814,-150.0938"/>
<polygon fill="#000000" stroke="#000000" points="182.7467,-151.8411 185.9604,-141.7454 177.1524,-147.6335 182.7467,-151.8411"/>
</g>
<!-- 39 -->
<g id="node28" class="node">
<title>39</title>
<polygon fill="#c1b2ff" stroke="#c1b2ff" points="192.3239,-58.6014 74.8919,-58.6014 74.8919,.2014 192.3239,.2014 192.3239,-58.6014"/>
<text text-anchor="middle" x="133.6079" y="-41.8" font-family="Times,serif" font-size="14.00" fill="#000000">size = &#160;8 </text>
<text text-anchor="middle" x="133.6079" y="-25" font-family="Times,serif" font-size="14.00" fill="#000000"> avg_Y = 1761.72</text>
<text text-anchor="middle" x="133.6079" y="-8.2" font-family="Times,serif" font-size="14.00" fill="#000000">avg_W = 0.5 </text>
</g>
<!-- 38&#45;&gt;39 -->
<g id="edge27" class="edge">
<title>38&#45;&gt;39</title>
<path fill="none" stroke="#000000" d="M186.8824,-105.3987C179.2619,-94.4991 169.2864,-80.2311 160.0304,-66.9922"/>
<polygon fill="#000000" stroke="#000000" points="162.6823,-64.6769 154.0838,-58.4868 156.9454,-68.6879 162.6823,-64.6769"/>
</g>
<!-- 40 -->
<g id="node29" class="node">
<title>40</title>
<polygon fill="#c1b2ff" stroke="#c1b2ff" points="320.8239,-58.6014 210.3919,-58.6014 210.3919,.2014 320.8239,.2014 320.8239,-58.6014"/>
<text text-anchor="middle" x="265.6079" y="-41.8" font-family="Times,serif" font-size="14.00" fill="#000000">size = &#160;4 </text>
<text text-anchor="middle" x="265.6079" y="-25" font-family="Times,serif" font-size="14.00" fill="#000000"> avg_Y = 946.66</text>
<text text-anchor="middle" x="265.6079" y="-8.2" font-family="Times,serif" font-size="14.00" fill="#000000">avg_W = 0.75 </text>
</g>
<!-- 38&#45;&gt;40 -->
<g id="edge28" class="edge">
<title>38&#45;&gt;40</title>
<path fill="none" stroke="#000000" d="M212.3334,-105.3987C219.9539,-94.4991 229.9294,-80.2311 239.1854,-66.9922"/>
<polygon fill="#000000" stroke="#000000" points="242.2704,-68.6879 245.132,-58.4868 236.5335,-64.6769 242.2704,-68.6879"/>
</g>
<!-- 21 -->
<g id="node36" class="node">
<title>21</title>
<polygon fill="#c1b2ff" stroke="#c1b2ff" points="803.3239,-602.6014 699.8919,-602.6014 699.8919,-543.7986 803.3239,-543.7986 803.3239,-602.6014"/>
<text text-anchor="middle" x="751.6079" y="-585.8" font-family="Times,serif" font-size="14.00" fill="#000000">size = &#160;19 </text>
<text text-anchor="middle" x="751.6079" y="-569" font-family="Times,serif" font-size="14.00" fill="#000000"> avg_Y = 795.6</text>
<text text-anchor="middle" x="751.6079" y="-552.2" font-family="Times,serif" font-size="14.00" fill="#000000">avg_W = 0.79 </text>
</g>
<!-- 15&#45;&gt;21 -->
<g id="edge35" class="edge">
<title>15&#45;&gt;21</title>
<path fill="none" stroke="#000000" d="M751.6079,-649.3987C751.6079,-638.9143 751.6079,-625.3133 751.6079,-612.5095"/>
<polygon fill="#000000" stroke="#000000" points="755.108,-612.4867 751.6079,-602.4868 748.108,-612.4868 755.108,-612.4867"/>
</g>
<!-- 22 -->
<g id="node37" class="node">
<title>22</title>
<polygon fill="#c1b2ff" stroke="#c1b2ff" points="938.3239,-602.6014 820.8919,-602.6014 820.8919,-543.7986 938.3239,-543.7986 938.3239,-602.6014"/>
<text text-anchor="middle" x="879.6079" y="-585.8" font-family="Times,serif" font-size="14.00" fill="#000000">size = &#160;14 </text>
<text text-anchor="middle" x="879.6079" y="-569" font-family="Times,serif" font-size="14.00" fill="#000000"> avg_Y = 2038.82</text>
<text text-anchor="middle" x="879.6079" y="-552.2" font-family="Times,serif" font-size="14.00" fill="#000000">avg_W = 0.57 </text>
</g>
<!-- 15&#45;&gt;22 -->
<g id="edge36" class="edge">
<title>15&#45;&gt;22</title>
<path fill="none" stroke="#000000" d="M776.2876,-649.3987C791.9816,-637.8244 812.826,-622.4516 831.6805,-608.5464"/>
<polygon fill="#000000" stroke="#000000" points="833.9264,-611.239 839.897,-602.4868 829.7716,-605.6054 833.9264,-611.239"/>
</g>
</g>
</svg>
