<?xml version="1.0" encoding="UTF-8" standalone="no"?>
<!DOCTYPE svg PUBLIC "-//W3C//DTD SVG 1.1//EN"
 "http://www.w3.org/Graphics/SVG/1.1/DTD/svg11.dtd">
<!-- Generated by graphviz version 2.40.1 (20161225.0304)
 -->
<!-- Title: nodes Pages: 1 -->
<svg width="599pt" height="871pt"
 viewBox="0.00 0.00 599.10 871.20" xmlns="http://www.w3.org/2000/svg" xmlns:xlink="http://www.w3.org/1999/xlink">
<g id="graph0" class="graph" transform="scale(1 1) rotate(0) translate(4 867.2)">
<title>nodes</title>
<polygon fill="#ffffff" stroke="transparent" points="-4,4 -4,-867.2 595.1001,-867.2 595.1001,4 -4,4"/>
<!-- 0 -->
<g id="node1" class="node">
<title>0</title>
<polygon fill="none" stroke="#000000" points="456.0368,-863.2 365.287,-863.2 365.287,-827.2 456.0368,-827.2 456.0368,-863.2"/>
<text text-anchor="middle" x="410.6619" y="-841" font-family="Times,serif" font-size="14.00" fill="#000000"> female &lt;= 0 </text>
</g>
<!-- 1 -->
<g id="node2" class="node">
<title>1</title>
<polygon fill="#c1b2ff" stroke="#c1b2ff" points="396.0384,-791.4014 295.2854,-791.4014 295.2854,-732.5986 396.0384,-732.5986 396.0384,-791.4014"/>
<text text-anchor="middle" x="345.6619" y="-774.6" font-family="Times,serif" font-size="14.00" fill="#000000">size = &#160;137 </text>
<text text-anchor="middle" x="345.6619" y="-757.8" font-family="Times,serif" font-size="14.00" fill="#000000"> avg_Y = &#45;0.48</text>
<text text-anchor="middle" x="345.6619" y="-741" font-family="Times,serif" font-size="14.00" fill="#000000">avg_W = 0.58 </text>
</g>
<!-- 0&#45;&gt;1 -->
<g id="edge1" class="edge">
<title>0&#45;&gt;1</title>
<path fill="none" stroke="#000000" d="M396.5579,-827.1468C390.1988,-819.0072 382.4386,-809.0742 374.9131,-799.4415"/>
<polygon fill="#000000" stroke="#000000" points="377.5974,-797.1923 368.6828,-791.4668 372.0812,-801.5018 377.5974,-797.1923"/>
<text text-anchor="middle" x="365.6355" y="-812.0804" font-family="Times,serif" font-size="14.00" fill="#000000">True</text>
</g>
<!-- 2 -->
<g id="node3" class="node">
<title>2</title>
<polygon fill="none" stroke="#000000" points="537.3208,-780 414.003,-780 414.003,-744 537.3208,-744 537.3208,-780"/>
<text text-anchor="middle" x="475.6619" y="-757.8" font-family="Times,serif" font-size="14.00" fill="#000000"> loan.size &lt;= 3750 </text>
</g>
<!-- 0&#45;&gt;2 -->
<g id="edge2" class="edge">
<title>0&#45;&gt;2</title>
<path fill="none" stroke="#000000" d="M424.7659,-827.1468C433.7095,-815.699 445.4244,-800.7039 455.3601,-787.9862"/>
<polygon fill="#000000" stroke="#000000" points="458.187,-790.053 461.5854,-780.0179 452.6708,-785.7434 458.187,-790.053"/>
<text text-anchor="middle" x="464.6327" y="-800.6315" font-family="Times,serif" font-size="14.00" fill="#000000">False</text>
</g>
<!-- 3 -->
<g id="node4" class="node">
<title>3</title>
<polygon fill="none" stroke="#000000" points="472.3208,-685.6 349.003,-685.6 349.003,-649.6 472.3208,-649.6 472.3208,-685.6"/>
<text text-anchor="middle" x="410.6619" y="-663.4" font-family="Times,serif" font-size="14.00" fill="#000000"> loan.size &lt;= 2410 </text>
</g>
<!-- 2&#45;&gt;3 -->
<g id="edge3" class="edge">
<title>2&#45;&gt;3</title>
<path fill="none" stroke="#000000" d="M463.1292,-743.7987C453.4177,-729.6945 439.8224,-709.95 428.9045,-694.0938"/>
<polygon fill="#000000" stroke="#000000" points="431.7101,-691.9968 423.1561,-685.7454 425.9446,-695.9667 431.7101,-691.9968"/>
</g>
<!-- 4 -->
<g id="node5" class="node">
<title>4</title>
<polygon fill="#c1b2ff" stroke="#c1b2ff" points="591.0384,-697.0014 490.2854,-697.0014 490.2854,-638.1986 591.0384,-638.1986 591.0384,-697.0014"/>
<text text-anchor="middle" x="540.6619" y="-680.2" font-family="Times,serif" font-size="14.00" fill="#000000">size = &#160;62 </text>
<text text-anchor="middle" x="540.6619" y="-663.4" font-family="Times,serif" font-size="14.00" fill="#000000"> avg_Y = &#45;0.55</text>
<text text-anchor="middle" x="540.6619" y="-646.6" font-family="Times,serif" font-size="14.00" fill="#000000">avg_W = 0.52 </text>
</g>
<!-- 2&#45;&gt;4 -->
<g id="edge4" class="edge">
<title>2&#45;&gt;4</title>
<path fill="none" stroke="#000000" d="M488.1946,-743.7987C495.6996,-732.8991 505.524,-718.6311 514.6397,-705.3922"/>
<polygon fill="#000000" stroke="#000000" points="517.7077,-707.1081 520.4962,-696.8868 511.9422,-703.1382 517.7077,-707.1081"/>
</g>
<!-- 5 -->
<g id="node6" class="node">
<title>5</title>
<polygon fill="none" stroke="#000000" points="397.3806,-591.2 317.9432,-591.2 317.9432,-555.2 397.3806,-555.2 397.3806,-591.2"/>
<text text-anchor="middle" x="357.6619" y="-569" font-family="Times,serif" font-size="14.00" fill="#000000"> age &lt;= 52 </text>
</g>
<!-- 3&#45;&gt;5 -->
<g id="edge5" class="edge">
<title>3&#45;&gt;5</title>
<path fill="none" stroke="#000000" d="M400.443,-649.3987C392.5976,-635.4251 381.6439,-615.9152 372.7845,-600.1353"/>
<polygon fill="#000000" stroke="#000000" points="375.797,-598.3516 367.8495,-591.3454 369.6932,-601.7786 375.797,-598.3516"/>
</g>
<!-- 6 -->
<g id="node7" class="node">
<title>6</title>
<polygon fill="#c1b2ff" stroke="#c1b2ff" points="514.4862,-602.6014 414.8376,-602.6014 414.8376,-543.7986 514.4862,-543.7986 514.4862,-602.6014"/>
<text text-anchor="middle" x="464.6619" y="-585.8" font-family="Times,serif" font-size="14.00" fill="#000000">size = &#160;32 </text>
<text text-anchor="middle" x="464.6619" y="-569" font-family="Times,serif" font-size="14.00" fill="#000000"> avg_Y = &#45;0.5</text>
<text text-anchor="middle" x="464.6619" y="-552.2" font-family="Times,serif" font-size="14.00" fill="#000000">avg_W = 0.25 </text>
</g>
<!-- 3&#45;&gt;6 -->
<g id="edge6" class="edge">
<title>3&#45;&gt;6</title>
<path fill="none" stroke="#000000" d="M421.0736,-649.3987C427.2492,-638.6029 435.3151,-624.5025 442.8269,-611.3707"/>
<polygon fill="#000000" stroke="#000000" points="445.9815,-612.9048 447.9089,-602.4868 439.9054,-609.429 445.9815,-612.9048"/>
</g>
<!-- 7 -->
<g id="node8" class="node">
<title>7</title>
<polygon fill="none" stroke="#000000" points="338.3806,-508 258.9432,-508 258.9432,-472 338.3806,-472 338.3806,-508"/>
<text text-anchor="middle" x="298.6619" y="-485.8" font-family="Times,serif" font-size="14.00" fill="#000000"> age &lt;= 46 </text>
</g>
<!-- 5&#45;&gt;7 -->
<g id="edge7" class="edge">
<title>5&#45;&gt;7</title>
<path fill="none" stroke="#000000" d="M344.8598,-555.1468C336.8191,-543.8081 326.3105,-528.9892 317.3478,-516.3502"/>
<polygon fill="#000000" stroke="#000000" points="320.0786,-514.1505 311.439,-508.0179 314.3686,-518.1997 320.0786,-514.1505"/>
</g>
<!-- 8 -->
<g id="node9" class="node">
<title>8</title>
<polygon fill="none" stroke="#000000" points="479.3208,-508 356.003,-508 356.003,-472 479.3208,-472 479.3208,-508"/>
<text text-anchor="middle" x="417.6619" y="-485.8" font-family="Times,serif" font-size="14.00" fill="#000000"> loan.size &lt;= 1380 </text>
</g>
<!-- 5&#45;&gt;8 -->
<g id="edge8" class="edge">
<title>5&#45;&gt;8</title>
<path fill="none" stroke="#000000" d="M370.681,-555.1468C378.858,-543.8081 389.5447,-528.9892 398.6593,-516.3502"/>
<polygon fill="#000000" stroke="#000000" points="401.6578,-518.1761 404.6682,-508.0179 395.9801,-514.0816 401.6578,-518.1761"/>
</g>
<!-- 9 -->
<g id="node10" class="node">
<title>9</title>
<polygon fill="none" stroke="#000000" points="231.3806,-424.8 151.9432,-424.8 151.9432,-388.8 231.3806,-388.8 231.3806,-424.8"/>
<text text-anchor="middle" x="191.6619" y="-402.6" font-family="Times,serif" font-size="14.00" fill="#000000"> age &lt;= 44 </text>
</g>
<!-- 7&#45;&gt;9 -->
<g id="edge9" class="edge">
<title>7&#45;&gt;9</title>
<path fill="none" stroke="#000000" d="M275.4445,-471.9468C260.0209,-459.9539 239.5904,-444.0678 222.7659,-430.9855"/>
<polygon fill="#000000" stroke="#000000" points="224.8768,-428.1933 214.834,-424.8179 220.5799,-433.7194 224.8768,-428.1933"/>
</g>
<!-- 10 -->
<g id="node11" class="node">
<title>10</title>
<polygon fill="#c1b2ff" stroke="#c1b2ff" points="350.0384,-436.2014 249.2854,-436.2014 249.2854,-377.3986 350.0384,-377.3986 350.0384,-436.2014"/>
<text text-anchor="middle" x="299.6619" y="-419.4" font-family="Times,serif" font-size="14.00" fill="#000000">size = &#160;38 </text>
<text text-anchor="middle" x="299.6619" y="-402.6" font-family="Times,serif" font-size="14.00" fill="#000000"> avg_Y = &#45;0.49</text>
<text text-anchor="middle" x="299.6619" y="-385.8" font-family="Times,serif" font-size="14.00" fill="#000000">avg_W = 0.39 </text>
</g>
<!-- 7&#45;&gt;10 -->
<g id="edge10" class="edge">
<title>7&#45;&gt;10</title>
<path fill="none" stroke="#000000" d="M298.8789,-471.9468C298.9699,-464.3769 299.0795,-455.256 299.1875,-446.2681"/>
<polygon fill="#000000" stroke="#000000" points="302.6872,-446.3081 299.3077,-436.2668 295.6877,-446.2239 302.6872,-446.3081"/>
</g>
<!-- 11 -->
<g id="node20" class="node">
<title>11</title>
<polygon fill="#c1b2ff" stroke="#c1b2ff" points="467.4862,-436.2014 367.8376,-436.2014 367.8376,-377.3986 467.4862,-377.3986 467.4862,-436.2014"/>
<text text-anchor="middle" x="417.6619" y="-419.4" font-family="Times,serif" font-size="14.00" fill="#000000">size = &#160;50 </text>
<text text-anchor="middle" x="417.6619" y="-402.6" font-family="Times,serif" font-size="14.00" fill="#000000"> avg_Y = &#45;0.4</text>
<text text-anchor="middle" x="417.6619" y="-385.8" font-family="Times,serif" font-size="14.00" fill="#000000">avg_W = 0.58 </text>
</g>
<!-- 8&#45;&gt;11 -->
<g id="edge19" class="edge">
<title>8&#45;&gt;11</title>
<path fill="none" stroke="#000000" d="M417.6619,-471.9468C417.6619,-464.3769 417.6619,-455.256 417.6619,-446.2681"/>
<polygon fill="#000000" stroke="#000000" points="421.162,-446.2667 417.6619,-436.2668 414.162,-446.2668 421.162,-446.2667"/>
</g>
<!-- 12 -->
<g id="node21" class="node">
<title>12</title>
<polygon fill="#c1b2ff" stroke="#c1b2ff" points="586.0384,-436.2014 485.2854,-436.2014 485.2854,-377.3986 586.0384,-377.3986 586.0384,-436.2014"/>
<text text-anchor="middle" x="535.6619" y="-419.4" font-family="Times,serif" font-size="14.00" fill="#000000">size = &#160;25 </text>
<text text-anchor="middle" x="535.6619" y="-402.6" font-family="Times,serif" font-size="14.00" fill="#000000"> avg_Y = &#45;0.43</text>
<text text-anchor="middle" x="535.6619" y="-385.8" font-family="Times,serif" font-size="14.00" fill="#000000">avg_W = 0.6 </text>
</g>
<!-- 8&#45;&gt;12 -->
<g id="edge20" class="edge">
<title>8&#45;&gt;12</title>
<path fill="none" stroke="#000000" d="M443.2661,-471.9468C455.6185,-463.2374 470.8828,-452.4748 485.4214,-442.2238"/>
<polygon fill="#000000" stroke="#000000" points="487.7142,-444.8898 493.8701,-436.2668 483.6804,-439.1688 487.7142,-444.8898"/>
</g>
<!-- 13 -->
<g id="node12" class="node">
<title>13</title>
<polygon fill="none" stroke="#000000" points="195.6573,-330.4 45.6665,-330.4 45.6665,-294.4 195.6573,-294.4 195.6573,-330.4"/>
<text text-anchor="middle" x="120.6619" y="-308.2" font-family="Times,serif" font-size="14.00" fill="#000000"> more.high.school &lt;= 0 </text>
</g>
<!-- 9&#45;&gt;13 -->
<g id="edge11" class="edge">
<title>9&#45;&gt;13</title>
<path fill="none" stroke="#000000" d="M177.9724,-388.5987C167.3643,-374.4945 152.5141,-354.75 140.5884,-338.8938"/>
<polygon fill="#000000" stroke="#000000" points="143.1174,-336.4335 134.3094,-330.5454 137.5231,-340.6411 143.1174,-336.4335"/>
</g>
<!-- 14 -->
<g id="node13" class="node">
<title>14</title>
<polygon fill="#c1b2ff" stroke="#c1b2ff" points="314.0384,-341.8014 213.2854,-341.8014 213.2854,-282.9986 314.0384,-282.9986 314.0384,-341.8014"/>
<text text-anchor="middle" x="263.6619" y="-325" font-family="Times,serif" font-size="14.00" fill="#000000">size = &#160;23 </text>
<text text-anchor="middle" x="263.6619" y="-308.2" font-family="Times,serif" font-size="14.00" fill="#000000"> avg_Y = &#45;0.62</text>
<text text-anchor="middle" x="263.6619" y="-291.4" font-family="Times,serif" font-size="14.00" fill="#000000">avg_W = 0.39 </text>
</g>
<!-- 9&#45;&gt;14 -->
<g id="edge12" class="edge">
<title>9&#45;&gt;14</title>
<path fill="none" stroke="#000000" d="M205.5442,-388.5987C213.9367,-377.5953 224.9474,-363.159 235.1256,-349.8142"/>
<polygon fill="#000000" stroke="#000000" points="238.0429,-351.7606 241.3245,-341.6868 232.4771,-347.5154 238.0429,-351.7606"/>
</g>
<!-- 15 -->
<g id="node14" class="node">
<title>15</title>
<polygon fill="#c1b2ff" stroke="#c1b2ff" points="99.4862,-247.4014 -.1624,-247.4014 -.1624,-188.5986 99.4862,-188.5986 99.4862,-247.4014"/>
<text text-anchor="middle" x="49.6619" y="-230.6" font-family="Times,serif" font-size="14.00" fill="#000000">size = &#160;25 </text>
<text text-anchor="middle" x="49.6619" y="-213.8" font-family="Times,serif" font-size="14.00" fill="#000000"> avg_Y = &#45;0.5</text>
<text text-anchor="middle" x="49.6619" y="-197" font-family="Times,serif" font-size="14.00" fill="#000000">avg_W = 0.48 </text>
</g>
<!-- 13&#45;&gt;15 -->
<g id="edge13" class="edge">
<title>13&#45;&gt;15</title>
<path fill="none" stroke="#000000" d="M106.9724,-294.1987C98.6965,-283.1953 87.8387,-268.759 77.8018,-255.4142"/>
<polygon fill="#000000" stroke="#000000" points="80.497,-253.1748 71.689,-247.2868 74.9027,-257.3824 80.497,-253.1748"/>
</g>
<!-- 16 -->
<g id="node15" class="node">
<title>16</title>
<polygon fill="none" stroke="#000000" points="267.6573,-236 117.6665,-236 117.6665,-200 267.6573,-200 267.6573,-236"/>
<text text-anchor="middle" x="192.6619" y="-213.8" font-family="Times,serif" font-size="14.00" fill="#000000"> more.high.school &lt;= 1 </text>
</g>
<!-- 13&#45;&gt;16 -->
<g id="edge14" class="edge">
<title>13&#45;&gt;16</title>
<path fill="none" stroke="#000000" d="M134.5442,-294.1987C145.3017,-280.0945 160.361,-260.35 172.4547,-244.4938"/>
<polygon fill="#000000" stroke="#000000" points="175.5406,-246.2192 178.8222,-236.1454 169.9747,-241.974 175.5406,-246.2192"/>
</g>
<!-- 17 -->
<g id="node16" class="node">
<title>17</title>
<polygon fill="none" stroke="#000000" points="189.3208,-141.6 66.003,-141.6 66.003,-105.6 189.3208,-105.6 189.3208,-141.6"/>
<text text-anchor="middle" x="127.6619" y="-119.4" font-family="Times,serif" font-size="14.00" fill="#000000"> loan.size &lt;= 1400 </text>
</g>
<!-- 16&#45;&gt;17 -->
<g id="edge15" class="edge">
<title>16&#45;&gt;17</title>
<path fill="none" stroke="#000000" d="M180.1292,-199.7987C170.4177,-185.6945 156.8224,-165.95 145.9045,-150.0938"/>
<polygon fill="#000000" stroke="#000000" points="148.7101,-147.9968 140.1561,-141.7454 142.9446,-151.9667 148.7101,-147.9968"/>
</g>
<!-- 18 -->
<g id="node17" class="node">
<title>18</title>
<polygon fill="#c1b2ff" stroke="#c1b2ff" points="308.0384,-153.0014 207.2854,-153.0014 207.2854,-94.1986 308.0384,-94.1986 308.0384,-153.0014"/>
<text text-anchor="middle" x="257.6619" y="-136.2" font-family="Times,serif" font-size="14.00" fill="#000000">size = &#160;11 </text>
<text text-anchor="middle" x="257.6619" y="-119.4" font-family="Times,serif" font-size="14.00" fill="#000000"> avg_Y = &#45;0.53</text>
<text text-anchor="middle" x="257.6619" y="-102.6" font-family="Times,serif" font-size="14.00" fill="#000000">avg_W = 0.36 </text>
</g>
<!-- 16&#45;&gt;18 -->
<g id="edge16" class="edge">
<title>16&#45;&gt;18</title>
<path fill="none" stroke="#000000" d="M205.1946,-199.7987C212.6996,-188.8991 222.524,-174.6311 231.6397,-161.3922"/>
<polygon fill="#000000" stroke="#000000" points="234.7077,-163.1081 237.4962,-152.8868 228.9422,-159.1382 234.7077,-163.1081"/>
</g>
<!-- 19 -->
<g id="node18" class="node">
<title>19</title>
<polygon fill="#c1b2ff" stroke="#c1b2ff" points="118.4862,-58.6014 18.8376,-58.6014 18.8376,.2014 118.4862,.2014 118.4862,-58.6014"/>
<text text-anchor="middle" x="68.6619" y="-41.8" font-family="Times,serif" font-size="14.00" fill="#000000">size = &#160;72 </text>
<text text-anchor="middle" x="68.6619" y="-25" font-family="Times,serif" font-size="14.00" fill="#000000"> avg_Y = &#45;0.5</text>
<text text-anchor="middle" x="68.6619" y="-8.2" font-family="Times,serif" font-size="14.00" fill="#000000">avg_W = 0.49 </text>
</g>
<!-- 17&#45;&gt;19 -->
<g id="edge17" class="edge">
<title>17&#45;&gt;19</title>
<path fill="none" stroke="#000000" d="M116.2861,-105.3987C109.4738,-94.4991 100.5563,-80.2311 92.282,-66.9922"/>
<polygon fill="#000000" stroke="#000000" points="95.2342,-65.1117 86.9661,-58.4868 89.2982,-68.8218 95.2342,-65.1117"/>
</g>
<!-- 20 -->
<g id="node19" class="node">
<title>20</title>
<polygon fill="#c1b2ff" stroke="#c1b2ff" points="237.0384,-58.6014 136.2854,-58.6014 136.2854,.2014 237.0384,.2014 237.0384,-58.6014"/>
<text text-anchor="middle" x="186.6619" y="-41.8" font-family="Times,serif" font-size="14.00" fill="#000000">size = &#160;32 </text>
<text text-anchor="middle" x="186.6619" y="-25" font-family="Times,serif" font-size="14.00" fill="#000000"> avg_Y = &#45;0.45</text>
<text text-anchor="middle" x="186.6619" y="-8.2" font-family="Times,serif" font-size="14.00" fill="#000000">avg_W = 0.59 </text>
</g>
<!-- 17&#45;&gt;20 -->
<g id="edge18" class="edge">
<title>17&#45;&gt;20</title>
<path fill="none" stroke="#000000" d="M139.0377,-105.3987C145.85,-94.4991 154.7675,-80.2311 163.0418,-66.9922"/>
<polygon fill="#000000" stroke="#000000" points="166.0256,-68.8218 168.3577,-58.4868 160.0896,-65.1117 166.0256,-68.8218"/>
</g>
</g>
</svg>
