<?xml version="1.0" encoding="UTF-8" standalone="no"?>
<!DOCTYPE svg PUBLIC "-//W3C//DTD SVG 1.1//EN"
 "http://www.w3.org/Graphics/SVG/1.1/DTD/svg11.dtd">
<!-- Generated by graphviz version 2.40.1 (20161225.0304)
 -->
<!-- Title: nodes Pages: 1 -->
<svg width="1787pt" height="871pt"
 viewBox="0.00 0.00 1787.10 871.20" xmlns="http://www.w3.org/2000/svg" xmlns:xlink="http://www.w3.org/1999/xlink">
<g id="graph0" class="graph" transform="scale(1 1) rotate(0) translate(4 867.2)">
<title>nodes</title>
<polygon fill="#ffffff" stroke="transparent" points="-4,4 -4,-867.2 1783.1001,-867.2 1783.1001,4 -4,4"/>
<!-- 0 -->
<g id="node1" class="node">
<title>0</title>
<polygon fill="none" stroke="#000000" points="1533.1569,-863.2 1453.7195,-863.2 1453.7195,-827.2 1533.1569,-827.2 1533.1569,-863.2"/>
<text text-anchor="middle" x="1493.4382" y="-841" font-family="Times,serif" font-size="14.00" fill="#000000"> age &lt;= 58 </text>
</g>
<!-- 1 -->
<g id="node2" class="node">
<title>1</title>
<polygon fill="none" stroke="#000000" points="1403.2774,-791.2 1317.599,-791.2 1317.599,-755.2 1403.2774,-755.2 1403.2774,-791.2"/>
<text text-anchor="middle" x="1360.4382" y="-769" font-family="Times,serif" font-size="14.00" fill="#000000"> p.bias &lt;= 0 </text>
</g>
<!-- 0&#45;&gt;1 -->
<g id="edge1" class="edge">
<title>0&#45;&gt;1</title>
<path fill="none" stroke="#000000" d="M1459.8767,-827.0314C1442.5501,-817.6516 1421.2324,-806.1112 1402.7846,-796.1244"/>
<polygon fill="#000000" stroke="#000000" points="1404.4493,-793.0457 1393.989,-791.3628 1401.1168,-799.2015 1404.4493,-793.0457"/>
<text text-anchor="middle" x="1401.119" y="-811.1245" font-family="Times,serif" font-size="14.00" fill="#000000">True</text>
</g>
<!-- 2 -->
<g id="node3" class="node">
<title>2</title>
<polygon fill="none" stroke="#000000" points="1621.1569,-791.2 1541.7195,-791.2 1541.7195,-755.2 1621.1569,-755.2 1621.1569,-791.2"/>
<text text-anchor="middle" x="1581.4382" y="-769" font-family="Times,serif" font-size="14.00" fill="#000000"> age &lt;= 65 </text>
</g>
<!-- 0&#45;&gt;2 -->
<g id="edge2" class="edge">
<title>0&#45;&gt;2</title>
<path fill="none" stroke="#000000" d="M1515.6443,-827.0314C1526.4832,-818.1632 1539.6826,-807.3637 1551.406,-797.7718"/>
<polygon fill="#000000" stroke="#000000" points="1553.7159,-800.4041 1559.2392,-791.3628 1549.2832,-794.9864 1553.7159,-800.4041"/>
<text text-anchor="middle" x="1556.7516" y="-812.0388" font-family="Times,serif" font-size="14.00" fill="#000000">False</text>
</g>
<!-- 3 -->
<g id="node4" class="node">
<title>3</title>
<polygon fill="none" stroke="#000000" points="1192.543,-708 1046.3334,-708 1046.3334,-672 1192.543,-672 1192.543,-708"/>
<text text-anchor="middle" x="1119.4382" y="-685.8" font-family="Times,serif" font-size="14.00" fill="#000000"> income.index &lt;= 0.71 </text>
</g>
<!-- 1&#45;&gt;3 -->
<g id="edge3" class="edge">
<title>1&#45;&gt;3</title>
<path fill="none" stroke="#000000" d="M1317.3522,-758.3255C1279.5446,-745.2732 1224.1049,-726.1339 1181.513,-711.43"/>
<polygon fill="#000000" stroke="#000000" points="1182.4029,-708.0346 1171.8082,-708.0796 1180.1186,-714.6514 1182.4029,-708.0346"/>
</g>
<!-- 4 -->
<g id="node5" class="node">
<title>4</title>
<polygon fill="none" stroke="#000000" points="1437.9876,-708 1282.8888,-708 1282.8888,-672 1437.9876,-672 1437.9876,-708"/>
<text text-anchor="middle" x="1360.4382" y="-685.8" font-family="Times,serif" font-size="14.00" fill="#000000"> subj.loan.value &lt;= 0.18 </text>
</g>
<!-- 1&#45;&gt;4 -->
<g id="edge4" class="edge">
<title>1&#45;&gt;4</title>
<path fill="none" stroke="#000000" d="M1360.4382,-755.1468C1360.4382,-744.3532 1360.4382,-730.4061 1360.4382,-718.1876"/>
<polygon fill="#000000" stroke="#000000" points="1363.9383,-718.0179 1360.4382,-708.0179 1356.9383,-718.018 1363.9383,-718.0179"/>
</g>
<!-- 5 -->
<g id="node50" class="node">
<title>5</title>
<polygon fill="none" stroke="#000000" points="1661.1485,-708 1501.7279,-708 1501.7279,-672 1661.1485,-672 1661.1485,-708"/>
<text text-anchor="middle" x="1581.4382" y="-685.8" font-family="Times,serif" font-size="14.00" fill="#000000"> subj.loan.value &lt;= &#45;0.14 </text>
</g>
<!-- 2&#45;&gt;5 -->
<g id="edge49" class="edge">
<title>2&#45;&gt;5</title>
<path fill="none" stroke="#000000" d="M1581.4382,-755.1468C1581.4382,-744.3532 1581.4382,-730.4061 1581.4382,-718.1876"/>
<polygon fill="#000000" stroke="#000000" points="1584.9383,-718.0179 1581.4382,-708.0179 1577.9383,-718.018 1584.9383,-718.0179"/>
</g>
<!-- 6 -->
<g id="node51" class="node">
<title>6</title>
<polygon fill="#c1b2ff" stroke="#c1b2ff" points="1779.2625,-719.4014 1679.6139,-719.4014 1679.6139,-660.5986 1779.2625,-660.5986 1779.2625,-719.4014"/>
<text text-anchor="middle" x="1729.4382" y="-702.6" font-family="Times,serif" font-size="14.00" fill="#000000">size = &#160;23 </text>
<text text-anchor="middle" x="1729.4382" y="-685.8" font-family="Times,serif" font-size="14.00" fill="#000000"> avg_Y = &#45;0.5</text>
<text text-anchor="middle" x="1729.4382" y="-669" font-family="Times,serif" font-size="14.00" fill="#000000">avg_W = 0.57 </text>
</g>
<!-- 2&#45;&gt;6 -->
<g id="edge50" class="edge">
<title>2&#45;&gt;6</title>
<path fill="none" stroke="#000000" d="M1613.552,-755.1468C1630.2875,-745.7388 1651.2846,-733.935 1670.7926,-722.9683"/>
<polygon fill="#000000" stroke="#000000" points="1672.6284,-725.9515 1679.6303,-718.0001 1669.1981,-719.8496 1672.6284,-725.9515"/>
</g>
<!-- 7 -->
<g id="node6" class="node">
<title>7</title>
<polygon fill="none" stroke="#000000" points="980.1485,-613.6 820.7279,-613.6 820.7279,-577.6 980.1485,-577.6 980.1485,-613.6"/>
<text text-anchor="middle" x="900.4382" y="-591.4" font-family="Times,serif" font-size="14.00" fill="#000000"> subj.loan.value &lt;= &#45;0.39 </text>
</g>
<!-- 3&#45;&gt;7 -->
<g id="edge5" class="edge">
<title>3&#45;&gt;7</title>
<path fill="none" stroke="#000000" d="M1077.4719,-671.9104C1041.6344,-656.4627 989.9632,-634.1898 951.6873,-617.6909"/>
<polygon fill="#000000" stroke="#000000" points="952.8312,-614.3727 942.2625,-613.6284 950.0602,-620.801 952.8312,-614.3727"/>
</g>
<!-- 8 -->
<g id="node7" class="node">
<title>8</title>
<polygon fill="#c1b2ff" stroke="#c1b2ff" points="1169.8147,-625.0014 1069.0617,-625.0014 1069.0617,-566.1986 1169.8147,-566.1986 1169.8147,-625.0014"/>
<text text-anchor="middle" x="1119.4382" y="-608.2" font-family="Times,serif" font-size="14.00" fill="#000000">size = &#160;20 </text>
<text text-anchor="middle" x="1119.4382" y="-591.4" font-family="Times,serif" font-size="14.00" fill="#000000"> avg_Y = &#45;0.75</text>
<text text-anchor="middle" x="1119.4382" y="-574.6" font-family="Times,serif" font-size="14.00" fill="#000000">avg_W = 0.8 </text>
</g>
<!-- 3&#45;&gt;8 -->
<g id="edge6" class="edge">
<title>3&#45;&gt;8</title>
<path fill="none" stroke="#000000" d="M1119.4382,-671.7987C1119.4382,-661.3143 1119.4382,-647.7133 1119.4382,-634.9095"/>
<polygon fill="#000000" stroke="#000000" points="1122.9383,-634.8867 1119.4382,-624.8868 1115.9383,-634.8868 1122.9383,-634.8867"/>
</g>
<!-- 9 -->
<g id="node40" class="node">
<title>9</title>
<polygon fill="none" stroke="#000000" points="1394.1485,-613.6 1234.7279,-613.6 1234.7279,-577.6 1394.1485,-577.6 1394.1485,-613.6"/>
<text text-anchor="middle" x="1314.4382" y="-591.4" font-family="Times,serif" font-size="14.00" fill="#000000"> subj.loan.value &lt;= &#45;0.04 </text>
</g>
<!-- 4&#45;&gt;9 -->
<g id="edge39" class="edge">
<title>4&#45;&gt;9</title>
<path fill="none" stroke="#000000" d="M1351.5689,-671.7987C1344.8234,-657.9557 1335.4303,-638.6794 1327.7795,-622.9787"/>
<polygon fill="#000000" stroke="#000000" points="1330.8071,-621.2017 1323.2802,-613.7454 1324.5144,-624.2681 1330.8071,-621.2017"/>
</g>
<!-- 10 -->
<g id="node41" class="node">
<title>10</title>
<polygon fill="#c1b2ff" stroke="#c1b2ff" points="1512.8147,-625.0014 1412.0617,-625.0014 1412.0617,-566.1986 1512.8147,-566.1986 1512.8147,-625.0014"/>
<text text-anchor="middle" x="1462.4382" y="-608.2" font-family="Times,serif" font-size="14.00" fill="#000000">size = &#160;17 </text>
<text text-anchor="middle" x="1462.4382" y="-591.4" font-family="Times,serif" font-size="14.00" fill="#000000"> avg_Y = &#45;0.73</text>
<text text-anchor="middle" x="1462.4382" y="-574.6" font-family="Times,serif" font-size="14.00" fill="#000000">avg_W = 0.29 </text>
</g>
<!-- 4&#45;&gt;10 -->
<g id="edge40" class="edge">
<title>4&#45;&gt;10</title>
<path fill="none" stroke="#000000" d="M1380.1048,-671.7987C1392.3306,-660.4839 1408.4786,-645.5391 1423.2331,-631.8839"/>
<polygon fill="#000000" stroke="#000000" points="1425.8317,-634.2479 1430.7936,-624.8868 1421.077,-629.1104 1425.8317,-634.2479"/>
</g>
<!-- 13 -->
<g id="node8" class="node">
<title>13</title>
<polygon fill="none" stroke="#000000" points="658.6541,-519.2 572.2223,-519.2 572.2223,-483.2 658.6541,-483.2 658.6541,-519.2"/>
<text text-anchor="middle" x="615.4382" y="-497" font-family="Times,serif" font-size="14.00" fill="#000000"> friday &lt;= 0 </text>
</g>
<!-- 7&#45;&gt;13 -->
<g id="edge7" class="edge">
<title>7&#45;&gt;13</title>
<path fill="none" stroke="#000000" d="M845.8245,-577.5104C794.7596,-560.5963 718.9913,-535.4997 668.4508,-518.7593"/>
<polygon fill="#000000" stroke="#000000" points="669.2873,-515.3494 658.6939,-515.5275 667.0862,-521.9943 669.2873,-515.3494"/>
</g>
<!-- 14 -->
<g id="node9" class="node">
<title>14</title>
<polygon fill="none" stroke="#000000" points="940.1569,-519.2 860.7195,-519.2 860.7195,-483.2 940.1569,-483.2 940.1569,-519.2"/>
<text text-anchor="middle" x="900.4382" y="-497" font-family="Times,serif" font-size="14.00" fill="#000000"> age &lt;= 40 </text>
</g>
<!-- 7&#45;&gt;14 -->
<g id="edge8" class="edge">
<title>7&#45;&gt;14</title>
<path fill="none" stroke="#000000" d="M900.4382,-577.3987C900.4382,-563.8169 900.4382,-545.0048 900.4382,-529.4711"/>
<polygon fill="#000000" stroke="#000000" points="903.9383,-529.3454 900.4382,-519.3454 896.9383,-529.3454 903.9383,-529.3454"/>
</g>
<!-- 17 -->
<g id="node10" class="node">
<title>17</title>
<polygon fill="none" stroke="#000000" points="487.1485,-424.8 327.7279,-424.8 327.7279,-388.8 487.1485,-388.8 487.1485,-424.8"/>
<text text-anchor="middle" x="407.4382" y="-402.6" font-family="Times,serif" font-size="14.00" fill="#000000"> subj.loan.value &lt;= &#45;0.46 </text>
</g>
<!-- 13&#45;&gt;17 -->
<g id="edge9" class="edge">
<title>13&#45;&gt;17</title>
<path fill="none" stroke="#000000" d="M575.3337,-482.9987C541.523,-467.6539 493.002,-445.6328 456.808,-429.2063"/>
<polygon fill="#000000" stroke="#000000" points="457.9721,-425.8911 447.4196,-424.9454 455.0792,-432.2653 457.9721,-425.8911"/>
</g>
<!-- 18 -->
<g id="node11" class="node">
<title>18</title>
<polygon fill="none" stroke="#000000" points="695.1485,-424.8 535.7279,-424.8 535.7279,-388.8 695.1485,-388.8 695.1485,-424.8"/>
<text text-anchor="middle" x="615.4382" y="-402.6" font-family="Times,serif" font-size="14.00" fill="#000000"> subj.loan.value &lt;= &#45;0.59 </text>
</g>
<!-- 13&#45;&gt;18 -->
<g id="edge10" class="edge">
<title>13&#45;&gt;18</title>
<path fill="none" stroke="#000000" d="M615.4382,-482.9987C615.4382,-469.4169 615.4382,-450.6048 615.4382,-435.0711"/>
<polygon fill="#000000" stroke="#000000" points="618.9383,-434.9454 615.4382,-424.9454 611.9383,-434.9454 618.9383,-434.9454"/>
</g>
<!-- 19 -->
<g id="node24" class="node">
<title>19</title>
<polygon fill="none" stroke="#000000" points="954.9876,-424.8 799.8888,-424.8 799.8888,-388.8 954.9876,-388.8 954.9876,-424.8"/>
<text text-anchor="middle" x="877.4382" y="-402.6" font-family="Times,serif" font-size="14.00" fill="#000000"> subj.loan.value &lt;= 0.07 </text>
</g>
<!-- 14&#45;&gt;19 -->
<g id="edge23" class="edge">
<title>14&#45;&gt;19</title>
<path fill="none" stroke="#000000" d="M896.0036,-482.9987C892.6944,-469.4169 888.111,-450.6048 884.3263,-435.0711"/>
<polygon fill="#000000" stroke="#000000" points="887.627,-433.8326 881.8592,-424.9454 880.826,-435.4897 887.627,-433.8326"/>
</g>
<!-- 20 -->
<g id="node25" class="node">
<title>20</title>
<polygon fill="none" stroke="#000000" points="1171.1569,-424.8 1091.7195,-424.8 1091.7195,-388.8 1171.1569,-388.8 1171.1569,-424.8"/>
<text text-anchor="middle" x="1131.4382" y="-402.6" font-family="Times,serif" font-size="14.00" fill="#000000"> age &lt;= 50 </text>
</g>
<!-- 14&#45;&gt;20 -->
<g id="edge24" class="edge">
<title>14&#45;&gt;20</title>
<path fill="none" stroke="#000000" d="M940.1485,-484.9721C979.4844,-468.8971 1039.8186,-444.2411 1082.1855,-426.9275"/>
<polygon fill="#000000" stroke="#000000" points="1083.5402,-430.155 1091.473,-423.1321 1080.8921,-423.6751 1083.5402,-430.155"/>
</g>
<!-- 23 -->
<g id="node12" class="node">
<title>23</title>
<polygon fill="none" stroke="#000000" points="339.1569,-330.4 259.7195,-330.4 259.7195,-294.4 339.1569,-294.4 339.1569,-330.4"/>
<text text-anchor="middle" x="299.4382" y="-308.2" font-family="Times,serif" font-size="14.00" fill="#000000"> age &lt;= 35 </text>
</g>
<!-- 17&#45;&gt;23 -->
<g id="edge11" class="edge">
<title>17&#45;&gt;23</title>
<path fill="none" stroke="#000000" d="M386.6147,-388.5987C369.8809,-373.9721 346.2074,-353.2797 327.7522,-337.1485"/>
<polygon fill="#000000" stroke="#000000" points="330.0304,-334.4913 320.1978,-330.5454 325.4236,-339.7618 330.0304,-334.4913"/>
</g>
<!-- 24 -->
<g id="node13" class="node">
<title>24</title>
<polygon fill="#c1b2ff" stroke="#c1b2ff" points="457.8147,-341.8014 357.0617,-341.8014 357.0617,-282.9986 457.8147,-282.9986 457.8147,-341.8014"/>
<text text-anchor="middle" x="407.4382" y="-325" font-family="Times,serif" font-size="14.00" fill="#000000">size = &#160;12 </text>
<text text-anchor="middle" x="407.4382" y="-308.2" font-family="Times,serif" font-size="14.00" fill="#000000"> avg_Y = &#45;0.99</text>
<text text-anchor="middle" x="407.4382" y="-291.4" font-family="Times,serif" font-size="14.00" fill="#000000">avg_W = 0.33 </text>
</g>
<!-- 17&#45;&gt;24 -->
<g id="edge12" class="edge">
<title>17&#45;&gt;24</title>
<path fill="none" stroke="#000000" d="M407.4382,-388.5987C407.4382,-378.1143 407.4382,-364.5133 407.4382,-351.7095"/>
<polygon fill="#000000" stroke="#000000" points="410.9383,-351.6867 407.4382,-341.6868 403.9383,-351.6868 410.9383,-351.6867"/>
</g>
<!-- 25 -->
<g id="node22" class="node">
<title>25</title>
<polygon fill="#c1b2ff" stroke="#c1b2ff" points="576.8147,-341.8014 476.0617,-341.8014 476.0617,-282.9986 576.8147,-282.9986 576.8147,-341.8014"/>
<text text-anchor="middle" x="526.4382" y="-325" font-family="Times,serif" font-size="14.00" fill="#000000">size = &#160;9 </text>
<text text-anchor="middle" x="526.4382" y="-308.2" font-family="Times,serif" font-size="14.00" fill="#000000"> avg_Y = &#45;0.92</text>
<text text-anchor="middle" x="526.4382" y="-291.4" font-family="Times,serif" font-size="14.00" fill="#000000">avg_W = 0.44 </text>
</g>
<!-- 18&#45;&gt;25 -->
<g id="edge21" class="edge">
<title>18&#45;&gt;25</title>
<path fill="none" stroke="#000000" d="M598.2781,-388.5987C587.7084,-377.3877 573.7788,-362.613 561.0012,-349.0601"/>
<polygon fill="#000000" stroke="#000000" points="563.4562,-346.5619 554.0497,-341.6868 558.3629,-351.3639 563.4562,-346.5619"/>
</g>
<!-- 26 -->
<g id="node23" class="node">
<title>26</title>
<polygon fill="#c1b2ff" stroke="#c1b2ff" points="695.8147,-341.8014 595.0617,-341.8014 595.0617,-282.9986 695.8147,-282.9986 695.8147,-341.8014"/>
<text text-anchor="middle" x="645.4382" y="-325" font-family="Times,serif" font-size="14.00" fill="#000000">size = &#160;8 </text>
<text text-anchor="middle" x="645.4382" y="-308.2" font-family="Times,serif" font-size="14.00" fill="#000000"> avg_Y = &#45;0.68</text>
<text text-anchor="middle" x="645.4382" y="-291.4" font-family="Times,serif" font-size="14.00" fill="#000000">avg_W = 0.88 </text>
</g>
<!-- 18&#45;&gt;26 -->
<g id="edge22" class="edge">
<title>18&#45;&gt;26</title>
<path fill="none" stroke="#000000" d="M621.2225,-388.5987C624.5874,-378.0105 628.9625,-364.2436 633.0666,-351.3294"/>
<polygon fill="#000000" stroke="#000000" points="636.4378,-352.2772 636.131,-341.6868 629.7666,-350.157 636.4378,-352.2772"/>
</g>
<!-- 33 -->
<g id="node14" class="node">
<title>33</title>
<polygon fill="none" stroke="#000000" points="265.9224,-236 150.954,-236 150.954,-200 265.9224,-200 265.9224,-236"/>
<text text-anchor="middle" x="208.4382" y="-213.8" font-family="Times,serif" font-size="14.00" fill="#000000"> wednesday &lt;= 0 </text>
</g>
<!-- 23&#45;&gt;33 -->
<g id="edge13" class="edge">
<title>23&#45;&gt;33</title>
<path fill="none" stroke="#000000" d="M281.8925,-294.1987C268.0445,-279.8333 248.5561,-259.6168 233.1325,-243.617"/>
<polygon fill="#000000" stroke="#000000" points="235.3902,-240.9159 225.9301,-236.1454 230.3505,-245.774 235.3902,-240.9159"/>
</g>
<!-- 34 -->
<g id="node15" class="node">
<title>34</title>
<polygon fill="none" stroke="#000000" points="443.1485,-236 283.7279,-236 283.7279,-200 443.1485,-200 443.1485,-236"/>
<text text-anchor="middle" x="363.4382" y="-213.8" font-family="Times,serif" font-size="14.00" fill="#000000"> subj.loan.value &lt;= &#45;0.63 </text>
</g>
<!-- 23&#45;&gt;34 -->
<g id="edge14" class="edge">
<title>23&#45;&gt;34</title>
<path fill="none" stroke="#000000" d="M311.778,-294.1987C321.3402,-280.0945 334.7263,-260.35 345.4763,-244.4938"/>
<polygon fill="#000000" stroke="#000000" points="348.4216,-246.3866 351.1362,-236.1454 342.6276,-242.4584 348.4216,-246.3866"/>
</g>
<!-- 45 -->
<g id="node16" class="node">
<title>45</title>
<polygon fill="none" stroke="#000000" points="149.1569,-141.6 69.7195,-141.6 69.7195,-105.6 149.1569,-105.6 149.1569,-141.6"/>
<text text-anchor="middle" x="109.4382" y="-119.4" font-family="Times,serif" font-size="14.00" fill="#000000"> age &lt;= 28 </text>
</g>
<!-- 33&#45;&gt;45 -->
<g id="edge15" class="edge">
<title>33&#45;&gt;45</title>
<path fill="none" stroke="#000000" d="M189.35,-199.7987C174.1476,-185.3027 152.6969,-164.8487 135.847,-148.7817"/>
<polygon fill="#000000" stroke="#000000" points="138.1204,-146.1133 128.4678,-141.7454 133.2897,-151.1794 138.1204,-146.1133"/>
</g>
<!-- 46 -->
<g id="node17" class="node">
<title>46</title>
<polygon fill="#c1b2ff" stroke="#c1b2ff" points="267.8147,-153.0014 167.0617,-153.0014 167.0617,-94.1986 267.8147,-94.1986 267.8147,-153.0014"/>
<text text-anchor="middle" x="217.4382" y="-136.2" font-family="Times,serif" font-size="14.00" fill="#000000">size = &#160;5 </text>
<text text-anchor="middle" x="217.4382" y="-119.4" font-family="Times,serif" font-size="14.00" fill="#000000"> avg_Y = &#45;1.43</text>
<text text-anchor="middle" x="217.4382" y="-102.6" font-family="Times,serif" font-size="14.00" fill="#000000">avg_W = 0.8 </text>
</g>
<!-- 33&#45;&gt;46 -->
<g id="edge16" class="edge">
<title>33&#45;&gt;46</title>
<path fill="none" stroke="#000000" d="M210.1735,-199.7987C211.1731,-189.3143 212.4698,-175.7133 213.6905,-162.9095"/>
<polygon fill="#000000" stroke="#000000" points="217.1811,-163.1738 214.646,-152.8868 210.2127,-162.5094 217.1811,-163.1738"/>
</g>
<!-- 47 -->
<g id="node20" class="node">
<title>47</title>
<polygon fill="#c1b2ff" stroke="#c1b2ff" points="404.8147,-153.0014 304.0617,-153.0014 304.0617,-94.1986 404.8147,-94.1986 404.8147,-153.0014"/>
<text text-anchor="middle" x="354.4382" y="-136.2" font-family="Times,serif" font-size="14.00" fill="#000000">size = &#160;14 </text>
<text text-anchor="middle" x="354.4382" y="-119.4" font-family="Times,serif" font-size="14.00" fill="#000000"> avg_Y = &#45;0.76</text>
<text text-anchor="middle" x="354.4382" y="-102.6" font-family="Times,serif" font-size="14.00" fill="#000000">avg_W = 0.43 </text>
</g>
<!-- 34&#45;&gt;47 -->
<g id="edge19" class="edge">
<title>34&#45;&gt;47</title>
<path fill="none" stroke="#000000" d="M361.7029,-199.7987C360.7033,-189.3143 359.4066,-175.7133 358.1859,-162.9095"/>
<polygon fill="#000000" stroke="#000000" points="361.6637,-162.5094 357.2304,-152.8868 354.6953,-163.1738 361.6637,-162.5094"/>
</g>
<!-- 48 -->
<g id="node21" class="node">
<title>48</title>
<polygon fill="#c1b2ff" stroke="#c1b2ff" points="523.8147,-153.0014 423.0617,-153.0014 423.0617,-94.1986 523.8147,-94.1986 523.8147,-153.0014"/>
<text text-anchor="middle" x="473.4382" y="-136.2" font-family="Times,serif" font-size="14.00" fill="#000000">size = &#160;23 </text>
<text text-anchor="middle" x="473.4382" y="-119.4" font-family="Times,serif" font-size="14.00" fill="#000000"> avg_Y = &#45;0.72</text>
<text text-anchor="middle" x="473.4382" y="-102.6" font-family="Times,serif" font-size="14.00" fill="#000000">avg_W = 0.35 </text>
</g>
<!-- 34&#45;&gt;48 -->
<g id="edge20" class="edge">
<title>34&#45;&gt;48</title>
<path fill="none" stroke="#000000" d="M384.6473,-199.7987C397.9529,-188.3801 415.5664,-173.2646 431.5958,-159.5084"/>
<polygon fill="#000000" stroke="#000000" points="434.0024,-162.0553 439.3117,-152.8868 429.4436,-156.7432 434.0024,-162.0553"/>
</g>
<!-- 51 -->
<g id="node18" class="node">
<title>51</title>
<polygon fill="#c1b2ff" stroke="#c1b2ff" points="100.8147,-58.6014 .0617,-58.6014 .0617,.2014 100.8147,.2014 100.8147,-58.6014"/>
<text text-anchor="middle" x="50.4382" y="-41.8" font-family="Times,serif" font-size="14.00" fill="#000000">size = &#160;7 </text>
<text text-anchor="middle" x="50.4382" y="-25" font-family="Times,serif" font-size="14.00" fill="#000000"> avg_Y = &#45;0.72</text>
<text text-anchor="middle" x="50.4382" y="-8.2" font-family="Times,serif" font-size="14.00" fill="#000000">avg_W = 0.57 </text>
</g>
<!-- 45&#45;&gt;51 -->
<g id="edge17" class="edge">
<title>45&#45;&gt;51</title>
<path fill="none" stroke="#000000" d="M98.0624,-105.3987C91.2501,-94.4991 82.3326,-80.2311 74.0583,-66.9922"/>
<polygon fill="#000000" stroke="#000000" points="77.0105,-65.1117 68.7424,-58.4868 71.0745,-68.8218 77.0105,-65.1117"/>
</g>
<!-- 52 -->
<g id="node19" class="node">
<title>52</title>
<polygon fill="#c1b2ff" stroke="#c1b2ff" points="219.8147,-58.6014 119.0617,-58.6014 119.0617,.2014 219.8147,.2014 219.8147,-58.6014"/>
<text text-anchor="middle" x="169.4382" y="-41.8" font-family="Times,serif" font-size="14.00" fill="#000000">size = &#160;13 </text>
<text text-anchor="middle" x="169.4382" y="-25" font-family="Times,serif" font-size="14.00" fill="#000000"> avg_Y = &#45;1.14</text>
<text text-anchor="middle" x="169.4382" y="-8.2" font-family="Times,serif" font-size="14.00" fill="#000000">avg_W = 0.46 </text>
</g>
<!-- 45&#45;&gt;52 -->
<g id="edge18" class="edge">
<title>45&#45;&gt;52</title>
<path fill="none" stroke="#000000" d="M121.0068,-105.3987C127.9345,-94.4991 137.0032,-80.2311 145.4177,-66.9922"/>
<polygon fill="#000000" stroke="#000000" points="148.4134,-68.8038 150.8237,-58.4868 142.5057,-65.0489 148.4134,-68.8038"/>
</g>
<!-- 27 -->
<g id="node26" class="node">
<title>27</title>
<polygon fill="none" stroke="#000000" points="793.1569,-330.4 713.7195,-330.4 713.7195,-294.4 793.1569,-294.4 793.1569,-330.4"/>
<text text-anchor="middle" x="753.4382" y="-308.2" font-family="Times,serif" font-size="14.00" fill="#000000"> age &lt;= 35 </text>
</g>
<!-- 19&#45;&gt;27 -->
<g id="edge25" class="edge">
<title>19&#45;&gt;27</title>
<path fill="none" stroke="#000000" d="M853.5298,-388.5987C834.1453,-373.8416 806.6501,-352.9097 785.3807,-336.7175"/>
<polygon fill="#000000" stroke="#000000" points="787.35,-333.8179 777.2732,-330.5454 783.1099,-339.3876 787.35,-333.8179"/>
</g>
<!-- 28 -->
<g id="node27" class="node">
<title>28</title>
<polygon fill="none" stroke="#000000" points="917.1569,-330.4 837.7195,-330.4 837.7195,-294.4 917.1569,-294.4 917.1569,-330.4"/>
<text text-anchor="middle" x="877.4382" y="-308.2" font-family="Times,serif" font-size="14.00" fill="#000000"> age &lt;= 31 </text>
</g>
<!-- 19&#45;&gt;28 -->
<g id="edge26" class="edge">
<title>19&#45;&gt;28</title>
<path fill="none" stroke="#000000" d="M877.4382,-388.5987C877.4382,-375.0169 877.4382,-356.2048 877.4382,-340.6711"/>
<polygon fill="#000000" stroke="#000000" points="880.9383,-340.5454 877.4382,-330.5454 873.9383,-340.5454 880.9383,-340.5454"/>
</g>
<!-- 29 -->
<g id="node32" class="node">
<title>29</title>
<polygon fill="none" stroke="#000000" points="1208.9876,-330.4 1053.8888,-330.4 1053.8888,-294.4 1208.9876,-294.4 1208.9876,-330.4"/>
<text text-anchor="middle" x="1131.4382" y="-308.2" font-family="Times,serif" font-size="14.00" fill="#000000"> subj.loan.value &lt;= 0.52 </text>
</g>
<!-- 20&#45;&gt;29 -->
<g id="edge31" class="edge">
<title>20&#45;&gt;29</title>
<path fill="none" stroke="#000000" d="M1131.4382,-388.5987C1131.4382,-375.0169 1131.4382,-356.2048 1131.4382,-340.6711"/>
<polygon fill="#000000" stroke="#000000" points="1134.9383,-340.5454 1131.4382,-330.5454 1127.9383,-340.5454 1134.9383,-340.5454"/>
</g>
<!-- 30 -->
<g id="node33" class="node">
<title>30</title>
<polygon fill="none" stroke="#000000" points="1413.9568,-330.4 1272.9196,-330.4 1272.9196,-294.4 1413.9568,-294.4 1413.9568,-330.4"/>
<text text-anchor="middle" x="1343.4382" y="-308.2" font-family="Times,serif" font-size="14.00" fill="#000000"> sure.confidence &lt;= 0 </text>
</g>
<!-- 20&#45;&gt;30 -->
<g id="edge32" class="edge">
<title>20&#45;&gt;30</title>
<path fill="none" stroke="#000000" d="M1171.3138,-389.0441C1205.9232,-373.6331 1256.1913,-351.2495 1293.4765,-334.6471"/>
<polygon fill="#000000" stroke="#000000" points="1294.947,-337.8237 1302.6586,-330.5585 1292.0995,-331.429 1294.947,-337.8237"/>
</g>
<!-- 35 -->
<g id="node28" class="node">
<title>35</title>
<polygon fill="#c1b2ff" stroke="#c1b2ff" points="625.8147,-247.4014 525.0617,-247.4014 525.0617,-188.5986 625.8147,-188.5986 625.8147,-247.4014"/>
<text text-anchor="middle" x="575.4382" y="-230.6" font-family="Times,serif" font-size="14.00" fill="#000000">size = &#160;27 </text>
<text text-anchor="middle" x="575.4382" y="-213.8" font-family="Times,serif" font-size="14.00" fill="#000000"> avg_Y = &#45;0.97</text>
<text text-anchor="middle" x="575.4382" y="-197" font-family="Times,serif" font-size="14.00" fill="#000000">avg_W = 0.56 </text>
</g>
<!-- 27&#45;&gt;35 -->
<g id="edge27" class="edge">
<title>27&#45;&gt;35</title>
<path fill="none" stroke="#000000" d="M723.8303,-294.3083C717.4793,-290.5538 710.773,-286.6829 704.4382,-283.2 682.1189,-270.9287 657.2193,-258.1387 635.2942,-247.1704"/>
<polygon fill="#000000" stroke="#000000" points="636.6074,-243.9144 626.096,-242.588 633.4861,-250.18 636.6074,-243.9144"/>
</g>
<!-- 36 -->
<g id="node29" class="node">
<title>36</title>
<polygon fill="#c1b2ff" stroke="#c1b2ff" points="744.8147,-247.4014 644.0617,-247.4014 644.0617,-188.5986 744.8147,-188.5986 744.8147,-247.4014"/>
<text text-anchor="middle" x="694.4382" y="-230.6" font-family="Times,serif" font-size="14.00" fill="#000000">size = &#160;13 </text>
<text text-anchor="middle" x="694.4382" y="-213.8" font-family="Times,serif" font-size="14.00" fill="#000000"> avg_Y = &#45;1.12</text>
<text text-anchor="middle" x="694.4382" y="-197" font-family="Times,serif" font-size="14.00" fill="#000000">avg_W = 0.38 </text>
</g>
<!-- 27&#45;&gt;36 -->
<g id="edge28" class="edge">
<title>27&#45;&gt;36</title>
<path fill="none" stroke="#000000" d="M742.0624,-294.1987C735.2501,-283.2991 726.3326,-269.0311 718.0583,-255.7922"/>
<polygon fill="#000000" stroke="#000000" points="721.0105,-253.9117 712.7424,-247.2868 715.0745,-257.6218 721.0105,-253.9117"/>
</g>
<!-- 37 -->
<g id="node30" class="node">
<title>37</title>
<polygon fill="#c1b2ff" stroke="#c1b2ff" points="863.8147,-247.4014 763.0617,-247.4014 763.0617,-188.5986 863.8147,-188.5986 863.8147,-247.4014"/>
<text text-anchor="middle" x="813.4382" y="-230.6" font-family="Times,serif" font-size="14.00" fill="#000000">size = &#160;18 </text>
<text text-anchor="middle" x="813.4382" y="-213.8" font-family="Times,serif" font-size="14.00" fill="#000000"> avg_Y = &#45;0.95</text>
<text text-anchor="middle" x="813.4382" y="-197" font-family="Times,serif" font-size="14.00" fill="#000000">avg_W = 0.33 </text>
</g>
<!-- 28&#45;&gt;37 -->
<g id="edge29" class="edge">
<title>28&#45;&gt;37</title>
<path fill="none" stroke="#000000" d="M865.0984,-294.1987C857.7088,-283.2991 848.0355,-269.0311 839.06,-255.7922"/>
<polygon fill="#000000" stroke="#000000" points="841.8022,-253.5998 833.2936,-247.2868 836.0083,-257.5279 841.8022,-253.5998"/>
</g>
<!-- 38 -->
<g id="node31" class="node">
<title>38</title>
<polygon fill="#c1b2ff" stroke="#c1b2ff" points="981.2625,-247.4014 881.6139,-247.4014 881.6139,-188.5986 981.2625,-188.5986 981.2625,-247.4014"/>
<text text-anchor="middle" x="931.4382" y="-230.6" font-family="Times,serif" font-size="14.00" fill="#000000">size = &#160;14 </text>
<text text-anchor="middle" x="931.4382" y="-213.8" font-family="Times,serif" font-size="14.00" fill="#000000"> avg_Y = &#45;0.5</text>
<text text-anchor="middle" x="931.4382" y="-197" font-family="Times,serif" font-size="14.00" fill="#000000">avg_W = 0.57 </text>
</g>
<!-- 28&#45;&gt;38 -->
<g id="edge30" class="edge">
<title>28&#45;&gt;38</title>
<path fill="none" stroke="#000000" d="M887.8499,-294.1987C894.0255,-283.4029 902.0914,-269.3025 909.6032,-256.1707"/>
<polygon fill="#000000" stroke="#000000" points="912.7578,-257.7048 914.6852,-247.2868 906.6817,-254.229 912.7578,-257.7048"/>
</g>
<!-- 39 -->
<g id="node34" class="node">
<title>39</title>
<polygon fill="none" stroke="#000000" points="1159.1485,-236 999.7279,-236 999.7279,-200 1159.1485,-200 1159.1485,-236"/>
<text text-anchor="middle" x="1079.4382" y="-213.8" font-family="Times,serif" font-size="14.00" fill="#000000"> subj.loan.value &lt;= &#45;0.05 </text>
</g>
<!-- 29&#45;&gt;39 -->
<g id="edge33" class="edge">
<title>29&#45;&gt;39</title>
<path fill="none" stroke="#000000" d="M1121.4121,-294.1987C1113.7147,-280.2251 1102.9677,-260.7152 1094.2754,-244.9353"/>
<polygon fill="#000000" stroke="#000000" points="1097.3241,-243.2157 1089.4335,-236.1454 1091.1928,-246.5932 1097.3241,-243.2157"/>
</g>
<!-- 40 -->
<g id="node35" class="node">
<title>40</title>
<polygon fill="#c1b2ff" stroke="#c1b2ff" points="1277.8147,-247.4014 1177.0617,-247.4014 1177.0617,-188.5986 1277.8147,-188.5986 1277.8147,-247.4014"/>
<text text-anchor="middle" x="1227.4382" y="-230.6" font-family="Times,serif" font-size="14.00" fill="#000000">size = &#160;11 </text>
<text text-anchor="middle" x="1227.4382" y="-213.8" font-family="Times,serif" font-size="14.00" fill="#000000"> avg_Y = &#45;0.66</text>
<text text-anchor="middle" x="1227.4382" y="-197" font-family="Times,serif" font-size="14.00" fill="#000000">avg_W = 0.73 </text>
</g>
<!-- 29&#45;&gt;40 -->
<g id="edge34" class="edge">
<title>29&#45;&gt;40</title>
<path fill="none" stroke="#000000" d="M1149.948,-294.1987C1161.349,-282.9877 1176.3741,-268.213 1190.1568,-254.6601"/>
<polygon fill="#000000" stroke="#000000" points="1192.9788,-256.7938 1197.6551,-247.2868 1188.0708,-251.8026 1192.9788,-256.7938"/>
</g>
<!-- 41 -->
<g id="node38" class="node">
<title>41</title>
<polygon fill="#c1b2ff" stroke="#c1b2ff" points="1396.8147,-247.4014 1296.0617,-247.4014 1296.0617,-188.5986 1396.8147,-188.5986 1396.8147,-247.4014"/>
<text text-anchor="middle" x="1346.4382" y="-230.6" font-family="Times,serif" font-size="14.00" fill="#000000">size = &#160;6 </text>
<text text-anchor="middle" x="1346.4382" y="-213.8" font-family="Times,serif" font-size="14.00" fill="#000000"> avg_Y = &#45;0.57</text>
<text text-anchor="middle" x="1346.4382" y="-197" font-family="Times,serif" font-size="14.00" fill="#000000">avg_W = 0.5 </text>
</g>
<!-- 30&#45;&gt;41 -->
<g id="edge37" class="edge">
<title>30&#45;&gt;41</title>
<path fill="none" stroke="#000000" d="M1344.0166,-294.1987C1344.3498,-283.7143 1344.7821,-270.1133 1345.189,-257.3095"/>
<polygon fill="#000000" stroke="#000000" points="1348.688,-257.3929 1345.5075,-247.2868 1341.6915,-257.1705 1348.688,-257.3929"/>
</g>
<!-- 42 -->
<g id="node39" class="node">
<title>42</title>
<polygon fill="#c1b2ff" stroke="#c1b2ff" points="1515.8147,-247.4014 1415.0617,-247.4014 1415.0617,-188.5986 1515.8147,-188.5986 1515.8147,-247.4014"/>
<text text-anchor="middle" x="1465.4382" y="-230.6" font-family="Times,serif" font-size="14.00" fill="#000000">size = &#160;19 </text>
<text text-anchor="middle" x="1465.4382" y="-213.8" font-family="Times,serif" font-size="14.00" fill="#000000"> avg_Y = &#45;0.35</text>
<text text-anchor="middle" x="1465.4382" y="-197" font-family="Times,serif" font-size="14.00" fill="#000000">avg_W = 0.58 </text>
</g>
<!-- 30&#45;&gt;42 -->
<g id="edge38" class="edge">
<title>30&#45;&gt;42</title>
<path fill="none" stroke="#000000" d="M1366.961,-294.1987C1381.8523,-282.6763 1401.6086,-267.3894 1419.5155,-253.5336"/>
<polygon fill="#000000" stroke="#000000" points="1421.8218,-256.1745 1427.5888,-247.2868 1417.538,-250.6383 1421.8218,-256.1745"/>
</g>
<!-- 49 -->
<g id="node36" class="node">
<title>49</title>
<polygon fill="#c1b2ff" stroke="#c1b2ff" points="1069.8147,-153.0014 969.0617,-153.0014 969.0617,-94.1986 1069.8147,-94.1986 1069.8147,-153.0014"/>
<text text-anchor="middle" x="1019.4382" y="-136.2" font-family="Times,serif" font-size="14.00" fill="#000000">size = &#160;19 </text>
<text text-anchor="middle" x="1019.4382" y="-119.4" font-family="Times,serif" font-size="14.00" fill="#000000"> avg_Y = &#45;0.83</text>
<text text-anchor="middle" x="1019.4382" y="-102.6" font-family="Times,serif" font-size="14.00" fill="#000000">avg_W = 0.37 </text>
</g>
<!-- 39&#45;&gt;49 -->
<g id="edge35" class="edge">
<title>39&#45;&gt;49</title>
<path fill="none" stroke="#000000" d="M1067.8696,-199.7987C1060.9419,-188.8991 1051.8732,-174.6311 1043.4587,-161.3922"/>
<polygon fill="#000000" stroke="#000000" points="1046.3707,-159.4489 1038.0527,-152.8868 1040.463,-163.2038 1046.3707,-159.4489"/>
</g>
<!-- 50 -->
<g id="node37" class="node">
<title>50</title>
<polygon fill="#c1b2ff" stroke="#c1b2ff" points="1188.8147,-153.0014 1088.0617,-153.0014 1088.0617,-94.1986 1188.8147,-94.1986 1188.8147,-153.0014"/>
<text text-anchor="middle" x="1138.4382" y="-136.2" font-family="Times,serif" font-size="14.00" fill="#000000">size = &#160;15 </text>
<text text-anchor="middle" x="1138.4382" y="-119.4" font-family="Times,serif" font-size="14.00" fill="#000000"> avg_Y = &#45;0.97</text>
<text text-anchor="middle" x="1138.4382" y="-102.6" font-family="Times,serif" font-size="14.00" fill="#000000">avg_W = 0.2 </text>
</g>
<!-- 39&#45;&gt;50 -->
<g id="edge36" class="edge">
<title>39&#45;&gt;50</title>
<path fill="none" stroke="#000000" d="M1090.814,-199.7987C1097.6263,-188.8991 1106.5438,-174.6311 1114.8181,-161.3922"/>
<polygon fill="#000000" stroke="#000000" points="1117.8019,-163.2218 1120.134,-152.8868 1111.8659,-159.5117 1117.8019,-163.2218"/>
</g>
<!-- 15 -->
<g id="node42" class="node">
<title>15</title>
<polygon fill="none" stroke="#000000" points="1359.8131,-519.2 1269.0633,-519.2 1269.0633,-483.2 1359.8131,-483.2 1359.8131,-519.2"/>
<text text-anchor="middle" x="1314.4382" y="-497" font-family="Times,serif" font-size="14.00" fill="#000000"> female &lt;= 0 </text>
</g>
<!-- 9&#45;&gt;15 -->
<g id="edge41" class="edge">
<title>9&#45;&gt;15</title>
<path fill="none" stroke="#000000" d="M1314.4382,-577.3987C1314.4382,-563.8169 1314.4382,-545.0048 1314.4382,-529.4711"/>
<polygon fill="#000000" stroke="#000000" points="1317.9383,-529.3454 1314.4382,-519.3454 1310.9383,-529.3454 1317.9383,-529.3454"/>
</g>
<!-- 16 -->
<g id="node43" class="node">
<title>16</title>
<polygon fill="#c1b2ff" stroke="#c1b2ff" points="1478.8147,-530.6014 1378.0617,-530.6014 1378.0617,-471.7986 1478.8147,-471.7986 1478.8147,-530.6014"/>
<text text-anchor="middle" x="1428.4382" y="-513.8" font-family="Times,serif" font-size="14.00" fill="#000000">size = &#160;9 </text>
<text text-anchor="middle" x="1428.4382" y="-497" font-family="Times,serif" font-size="14.00" fill="#000000"> avg_Y = &#45;0.73</text>
<text text-anchor="middle" x="1428.4382" y="-480.2" font-family="Times,serif" font-size="14.00" fill="#000000">avg_W = 0.33 </text>
</g>
<!-- 9&#45;&gt;16 -->
<g id="edge42" class="edge">
<title>9&#45;&gt;16</title>
<path fill="none" stroke="#000000" d="M1336.4185,-577.3987C1350.208,-565.9801 1368.4619,-550.8646 1385.0742,-537.1084"/>
<polygon fill="#000000" stroke="#000000" points="1387.6009,-539.5604 1393.0707,-530.4868 1383.1363,-534.1689 1387.6009,-539.5604"/>
</g>
<!-- 21 -->
<g id="node44" class="node">
<title>21</title>
<polygon fill="#c1b2ff" stroke="#c1b2ff" points="1364.8147,-436.2014 1264.0617,-436.2014 1264.0617,-377.3986 1364.8147,-377.3986 1364.8147,-436.2014"/>
<text text-anchor="middle" x="1314.4382" y="-419.4" font-family="Times,serif" font-size="14.00" fill="#000000">size = &#160;13 </text>
<text text-anchor="middle" x="1314.4382" y="-402.6" font-family="Times,serif" font-size="14.00" fill="#000000"> avg_Y = &#45;0.87</text>
<text text-anchor="middle" x="1314.4382" y="-385.8" font-family="Times,serif" font-size="14.00" fill="#000000">avg_W = 0.46 </text>
</g>
<!-- 15&#45;&gt;21 -->
<g id="edge43" class="edge">
<title>15&#45;&gt;21</title>
<path fill="none" stroke="#000000" d="M1314.4382,-482.9987C1314.4382,-472.5143 1314.4382,-458.9133 1314.4382,-446.1095"/>
<polygon fill="#000000" stroke="#000000" points="1317.9383,-446.0867 1314.4382,-436.0868 1310.9383,-446.0868 1317.9383,-446.0867"/>
</g>
<!-- 22 -->
<g id="node45" class="node">
<title>22</title>
<polygon fill="none" stroke="#000000" points="1552.9568,-424.8 1411.9196,-424.8 1411.9196,-388.8 1552.9568,-388.8 1552.9568,-424.8"/>
<text text-anchor="middle" x="1482.4382" y="-402.6" font-family="Times,serif" font-size="14.00" fill="#000000"> sure.confidence &lt;= 0 </text>
</g>
<!-- 15&#45;&gt;22 -->
<g id="edge44" class="edge">
<title>15&#45;&gt;22</title>
<path fill="none" stroke="#000000" d="M1346.8303,-482.9987C1373.6741,-467.9151 1411.9983,-446.3805 1441.0612,-430.0499"/>
<polygon fill="#000000" stroke="#000000" points="1443.1421,-432.8954 1450.1456,-424.9454 1439.713,-426.7928 1443.1421,-432.8954"/>
</g>
<!-- 31 -->
<g id="node46" class="node">
<title>31</title>
<polygon fill="#c1b2ff" stroke="#c1b2ff" points="1532.8147,-341.8014 1432.0617,-341.8014 1432.0617,-282.9986 1532.8147,-282.9986 1532.8147,-341.8014"/>
<text text-anchor="middle" x="1482.4382" y="-325" font-family="Times,serif" font-size="14.00" fill="#000000">size = &#160;14 </text>
<text text-anchor="middle" x="1482.4382" y="-308.2" font-family="Times,serif" font-size="14.00" fill="#000000"> avg_Y = &#45;0.98</text>
<text text-anchor="middle" x="1482.4382" y="-291.4" font-family="Times,serif" font-size="14.00" fill="#000000">avg_W = 0.29 </text>
</g>
<!-- 22&#45;&gt;31 -->
<g id="edge45" class="edge">
<title>22&#45;&gt;31</title>
<path fill="none" stroke="#000000" d="M1482.4382,-388.5987C1482.4382,-378.1143 1482.4382,-364.5133 1482.4382,-351.7095"/>
<polygon fill="#000000" stroke="#000000" points="1485.9383,-351.6867 1482.4382,-341.6868 1478.9383,-351.6868 1485.9383,-351.6867"/>
</g>
<!-- 32 -->
<g id="node47" class="node">
<title>32</title>
<polygon fill="none" stroke="#000000" points="1630.1569,-330.4 1550.7195,-330.4 1550.7195,-294.4 1630.1569,-294.4 1630.1569,-330.4"/>
<text text-anchor="middle" x="1590.4382" y="-308.2" font-family="Times,serif" font-size="14.00" fill="#000000"> age &lt;= 36 </text>
</g>
<!-- 22&#45;&gt;32 -->
<g id="edge46" class="edge">
<title>22&#45;&gt;32</title>
<path fill="none" stroke="#000000" d="M1503.2617,-388.5987C1519.9955,-373.9721 1543.669,-353.2797 1562.1242,-337.1485"/>
<polygon fill="#000000" stroke="#000000" points="1564.4528,-339.7618 1569.6786,-330.5454 1559.846,-334.4913 1564.4528,-339.7618"/>
</g>
<!-- 43 -->
<g id="node48" class="node">
<title>43</title>
<polygon fill="#c1b2ff" stroke="#c1b2ff" points="1638.8147,-247.4014 1538.0617,-247.4014 1538.0617,-188.5986 1638.8147,-188.5986 1638.8147,-247.4014"/>
<text text-anchor="middle" x="1588.4382" y="-230.6" font-family="Times,serif" font-size="14.00" fill="#000000">size = &#160;16 </text>
<text text-anchor="middle" x="1588.4382" y="-213.8" font-family="Times,serif" font-size="14.00" fill="#000000"> avg_Y = &#45;0.96</text>
<text text-anchor="middle" x="1588.4382" y="-197" font-family="Times,serif" font-size="14.00" fill="#000000">avg_W = 0.38 </text>
</g>
<!-- 32&#45;&gt;43 -->
<g id="edge47" class="edge">
<title>32&#45;&gt;43</title>
<path fill="none" stroke="#000000" d="M1590.0526,-294.1987C1589.8305,-283.7143 1589.5423,-270.1133 1589.271,-257.3095"/>
<polygon fill="#000000" stroke="#000000" points="1592.7698,-257.2103 1589.0587,-247.2868 1585.7714,-257.3587 1592.7698,-257.2103"/>
</g>
<!-- 44 -->
<g id="node49" class="node">
<title>44</title>
<polygon fill="#c1b2ff" stroke="#c1b2ff" points="1757.8147,-247.4014 1657.0617,-247.4014 1657.0617,-188.5986 1757.8147,-188.5986 1757.8147,-247.4014"/>
<text text-anchor="middle" x="1707.4382" y="-230.6" font-family="Times,serif" font-size="14.00" fill="#000000">size = &#160;24 </text>
<text text-anchor="middle" x="1707.4382" y="-213.8" font-family="Times,serif" font-size="14.00" fill="#000000"> avg_Y = &#45;0.61</text>
<text text-anchor="middle" x="1707.4382" y="-197" font-family="Times,serif" font-size="14.00" fill="#000000">avg_W = 0.33 </text>
</g>
<!-- 32&#45;&gt;44 -->
<g id="edge48" class="edge">
<title>32&#45;&gt;44</title>
<path fill="none" stroke="#000000" d="M1612.997,-294.1987C1627.1493,-282.7801 1645.8836,-267.6646 1662.9331,-253.9084"/>
<polygon fill="#000000" stroke="#000000" points="1665.5551,-256.2901 1671.14,-247.2868 1661.1595,-250.8422 1665.5551,-256.2901"/>
</g>
<!-- 11 -->
<g id="node52" class="node">
<title>11</title>
<polygon fill="#c1b2ff" stroke="#c1b2ff" points="1631.8147,-625.0014 1531.0617,-625.0014 1531.0617,-566.1986 1631.8147,-566.1986 1631.8147,-625.0014"/>
<text text-anchor="middle" x="1581.4382" y="-608.2" font-family="Times,serif" font-size="14.00" fill="#000000">size = &#160;22 </text>
<text text-anchor="middle" x="1581.4382" y="-591.4" font-family="Times,serif" font-size="14.00" fill="#000000"> avg_Y = &#45;0.86</text>
<text text-anchor="middle" x="1581.4382" y="-574.6" font-family="Times,serif" font-size="14.00" fill="#000000">avg_W = 0.5 </text>
</g>
<!-- 5&#45;&gt;11 -->
<g id="edge51" class="edge">
<title>5&#45;&gt;11</title>
<path fill="none" stroke="#000000" d="M1581.4382,-671.7987C1581.4382,-661.3143 1581.4382,-647.7133 1581.4382,-634.9095"/>
<polygon fill="#000000" stroke="#000000" points="1584.9383,-634.8867 1581.4382,-624.8868 1577.9383,-634.8868 1584.9383,-634.8867"/>
</g>
<!-- 12 -->
<g id="node53" class="node">
<title>12</title>
<polygon fill="#c1b2ff" stroke="#c1b2ff" points="1750.8147,-625.0014 1650.0617,-625.0014 1650.0617,-566.1986 1750.8147,-566.1986 1750.8147,-625.0014"/>
<text text-anchor="middle" x="1700.4382" y="-608.2" font-family="Times,serif" font-size="14.00" fill="#000000">size = &#160;14 </text>
<text text-anchor="middle" x="1700.4382" y="-591.4" font-family="Times,serif" font-size="14.00" fill="#000000"> avg_Y = &#45;0.59</text>
<text text-anchor="middle" x="1700.4382" y="-574.6" font-family="Times,serif" font-size="14.00" fill="#000000">avg_W = 0.71 </text>
</g>
<!-- 5&#45;&gt;12 -->
<g id="edge52" class="edge">
<title>5&#45;&gt;12</title>
<path fill="none" stroke="#000000" d="M1604.3826,-671.7987C1618.9077,-660.2763 1638.1782,-644.9894 1655.6448,-631.1336"/>
<polygon fill="#000000" stroke="#000000" points="1657.8604,-633.8436 1663.5195,-624.8868 1653.51,-628.3596 1657.8604,-633.8436"/>
</g>
</g>
</svg>
