<?xml version="1.0" encoding="UTF-8" standalone="no"?>
<!DOCTYPE svg PUBLIC "-//W3C//DTD SVG 1.1//EN"
 "http://www.w3.org/Graphics/SVG/1.1/DTD/svg11.dtd">
<!-- Generated by graphviz version 2.40.1 (20161225.0304)
 -->
<!-- Title: nodes Pages: 1 -->
<svg width="516pt" height="494pt"
 viewBox="0.00 0.00 516.10 493.60" xmlns="http://www.w3.org/2000/svg" xmlns:xlink="http://www.w3.org/1999/xlink">
<g id="graph0" class="graph" transform="scale(1 1) rotate(0) translate(4 489.6)">
<title>nodes</title>
<polygon fill="#ffffff" stroke="transparent" points="-4,4 -4,-489.6 512.1001,-489.6 512.1001,4 -4,4"/>
<!-- 0 -->
<g id="node1" class="node">
<title>0</title>
<polygon fill="none" stroke="#000000" points="342.0971,-485.6 218.7793,-485.6 218.7793,-449.6 342.0971,-449.6 342.0971,-485.6"/>
<text text-anchor="middle" x="280.4382" y="-463.4" font-family="Times,serif" font-size="14.00" fill="#000000"> loan.size &lt;= 3940 </text>
</g>
<!-- 1 -->
<g id="node2" class="node">
<title>1</title>
<polygon fill="none" stroke="#000000" points="283.0971,-413.6 159.7793,-413.6 159.7793,-377.6 283.0971,-377.6 283.0971,-413.6"/>
<text text-anchor="middle" x="221.4382" y="-391.4" font-family="Times,serif" font-size="14.00" fill="#000000"> loan.size &lt;= 3080 </text>
</g>
<!-- 0&#45;&gt;1 -->
<g id="edge1" class="edge">
<title>0&#45;&gt;1</title>
<path fill="none" stroke="#000000" d="M265.55,-449.4314C258.6852,-441.054 250.4081,-430.9531 242.8871,-421.7749"/>
<polygon fill="#000000" stroke="#000000" points="245.5723,-419.5297 236.5268,-414.0133 240.1579,-423.9665 245.5723,-419.5297"/>
<text text-anchor="middle" x="234.0581" y="-434.6911" font-family="Times,serif" font-size="14.00" fill="#000000">True</text>
</g>
<!-- 2 -->
<g id="node3" class="node">
<title>2</title>
<polygon fill="none" stroke="#000000" points="380.1569,-413.6 300.7195,-413.6 300.7195,-377.6 380.1569,-377.6 380.1569,-413.6"/>
<text text-anchor="middle" x="340.4382" y="-391.4" font-family="Times,serif" font-size="14.00" fill="#000000"> age &lt;= 45 </text>
</g>
<!-- 0&#45;&gt;2 -->
<g id="edge2" class="edge">
<title>0&#45;&gt;2</title>
<path fill="none" stroke="#000000" d="M295.5787,-449.4314C302.5599,-441.054 310.9773,-430.9531 318.6258,-421.7749"/>
<polygon fill="#000000" stroke="#000000" points="321.3807,-423.9362 325.0938,-414.0133 316.0031,-419.4548 321.3807,-423.9362"/>
<text text-anchor="middle" x="327.3572" y="-434.7106" font-family="Times,serif" font-size="14.00" fill="#000000">False</text>
</g>
<!-- 3 -->
<g id="node4" class="node">
<title>3</title>
<polygon fill="none" stroke="#000000" points="153.1569,-330.4 73.7195,-330.4 73.7195,-294.4 153.1569,-294.4 153.1569,-330.4"/>
<text text-anchor="middle" x="113.4382" y="-308.2" font-family="Times,serif" font-size="14.00" fill="#000000"> age &lt;= 46 </text>
</g>
<!-- 1&#45;&gt;3 -->
<g id="edge3" class="edge">
<title>1&#45;&gt;3</title>
<path fill="none" stroke="#000000" d="M198.0038,-377.5468C182.436,-365.5539 161.8147,-349.6678 144.8329,-336.5855"/>
<polygon fill="#000000" stroke="#000000" points="146.8847,-333.7481 136.8269,-330.4179 142.6128,-339.2934 146.8847,-333.7481"/>
</g>
<!-- 4 -->
<g id="node5" class="node">
<title>4</title>
<polygon fill="#c1b2ff" stroke="#c1b2ff" points="271.8147,-341.8014 171.0617,-341.8014 171.0617,-282.9986 271.8147,-282.9986 271.8147,-341.8014"/>
<text text-anchor="middle" x="221.4382" y="-325" font-family="Times,serif" font-size="14.00" fill="#000000">size = &#160;35 </text>
<text text-anchor="middle" x="221.4382" y="-308.2" font-family="Times,serif" font-size="14.00" fill="#000000"> avg_Y = &#45;0.48</text>
<text text-anchor="middle" x="221.4382" y="-291.4" font-family="Times,serif" font-size="14.00" fill="#000000">avg_W = 0.57 </text>
</g>
<!-- 1&#45;&gt;4 -->
<g id="edge4" class="edge">
<title>1&#45;&gt;4</title>
<path fill="none" stroke="#000000" d="M221.4382,-377.5468C221.4382,-369.9769 221.4382,-360.856 221.4382,-351.8681"/>
<polygon fill="#000000" stroke="#000000" points="224.9383,-351.8667 221.4382,-341.8668 217.9383,-351.8668 224.9383,-351.8667"/>
</g>
<!-- 5 -->
<g id="node12" class="node">
<title>5</title>
<polygon fill="#c1b2ff" stroke="#c1b2ff" points="390.8147,-341.8014 290.0617,-341.8014 290.0617,-282.9986 390.8147,-282.9986 390.8147,-341.8014"/>
<text text-anchor="middle" x="340.4382" y="-325" font-family="Times,serif" font-size="14.00" fill="#000000">size = &#160;40 </text>
<text text-anchor="middle" x="340.4382" y="-308.2" font-family="Times,serif" font-size="14.00" fill="#000000"> avg_Y = &#45;0.41</text>
<text text-anchor="middle" x="340.4382" y="-291.4" font-family="Times,serif" font-size="14.00" fill="#000000">avg_W = 0.68 </text>
</g>
<!-- 2&#45;&gt;5 -->
<g id="edge11" class="edge">
<title>2&#45;&gt;5</title>
<path fill="none" stroke="#000000" d="M340.4382,-377.5468C340.4382,-369.9769 340.4382,-360.856 340.4382,-351.8681"/>
<polygon fill="#000000" stroke="#000000" points="343.9383,-351.8667 340.4382,-341.8668 336.9383,-351.8668 343.9383,-351.8667"/>
</g>
<!-- 6 -->
<g id="node13" class="node">
<title>6</title>
<polygon fill="#c1b2ff" stroke="#c1b2ff" points="508.2625,-341.8014 408.6139,-341.8014 408.6139,-282.9986 508.2625,-282.9986 508.2625,-341.8014"/>
<text text-anchor="middle" x="458.4382" y="-325" font-family="Times,serif" font-size="14.00" fill="#000000">size = &#160;33 </text>
<text text-anchor="middle" x="458.4382" y="-308.2" font-family="Times,serif" font-size="14.00" fill="#000000"> avg_Y = &#45;0.6</text>
<text text-anchor="middle" x="458.4382" y="-291.4" font-family="Times,serif" font-size="14.00" fill="#000000">avg_W = 0.39 </text>
</g>
<!-- 2&#45;&gt;6 -->
<g id="edge12" class="edge">
<title>2&#45;&gt;6</title>
<path fill="none" stroke="#000000" d="M366.0424,-377.5468C378.3948,-368.8374 393.6591,-358.0748 408.1977,-347.8238"/>
<polygon fill="#000000" stroke="#000000" points="410.4905,-350.4898 416.6464,-341.8668 406.4567,-344.7688 410.4905,-350.4898"/>
</g>
<!-- 7 -->
<g id="node6" class="node">
<title>7</title>
<polygon fill="#c1b2ff" stroke="#c1b2ff" points="100.8147,-247.4014 .0617,-247.4014 .0617,-188.5986 100.8147,-188.5986 100.8147,-247.4014"/>
<text text-anchor="middle" x="50.4382" y="-230.6" font-family="Times,serif" font-size="14.00" fill="#000000">size = &#160;237 </text>
<text text-anchor="middle" x="50.4382" y="-213.8" font-family="Times,serif" font-size="14.00" fill="#000000"> avg_Y = &#45;0.52</text>
<text text-anchor="middle" x="50.4382" y="-197" font-family="Times,serif" font-size="14.00" fill="#000000">avg_W = 0.54 </text>
</g>
<!-- 3&#45;&gt;7 -->
<g id="edge5" class="edge">
<title>3&#45;&gt;7</title>
<path fill="none" stroke="#000000" d="M101.2912,-294.1987C94.0171,-283.2991 84.4949,-269.0311 75.6597,-255.7922"/>
<polygon fill="#000000" stroke="#000000" points="78.4457,-253.6617 69.9834,-247.2868 72.6233,-257.5475 78.4457,-253.6617"/>
</g>
<!-- 8 -->
<g id="node7" class="node">
<title>8</title>
<polygon fill="none" stroke="#000000" points="235.5971,-236 119.2793,-236 119.2793,-200 235.5971,-200 235.5971,-236"/>
<text text-anchor="middle" x="177.4382" y="-213.8" font-family="Times,serif" font-size="14.00" fill="#000000"> loan.size &lt;= 970 </text>
</g>
<!-- 3&#45;&gt;8 -->
<g id="edge6" class="edge">
<title>3&#45;&gt;8</title>
<path fill="none" stroke="#000000" d="M125.778,-294.1987C135.3402,-280.0945 148.7263,-260.35 159.4763,-244.4938"/>
<polygon fill="#000000" stroke="#000000" points="162.4216,-246.3866 165.1362,-236.1454 156.6276,-242.4584 162.4216,-246.3866"/>
</g>
<!-- 9 -->
<g id="node8" class="node">
<title>9</title>
<polygon fill="#c1b2ff" stroke="#c1b2ff" points="162.8147,-153.0014 62.0617,-153.0014 62.0617,-94.1986 162.8147,-94.1986 162.8147,-153.0014"/>
<text text-anchor="middle" x="112.4382" y="-136.2" font-family="Times,serif" font-size="14.00" fill="#000000">size = &#160;71 </text>
<text text-anchor="middle" x="112.4382" y="-119.4" font-family="Times,serif" font-size="14.00" fill="#000000"> avg_Y = &#45;0.44</text>
<text text-anchor="middle" x="112.4382" y="-102.6" font-family="Times,serif" font-size="14.00" fill="#000000">avg_W = 0.56 </text>
</g>
<!-- 8&#45;&gt;9 -->
<g id="edge7" class="edge">
<title>8&#45;&gt;9</title>
<path fill="none" stroke="#000000" d="M164.9055,-199.7987C157.4005,-188.8991 147.5761,-174.6311 138.4604,-161.3922"/>
<polygon fill="#000000" stroke="#000000" points="141.1579,-159.1382 132.6039,-152.8868 135.3924,-163.1081 141.1579,-159.1382"/>
</g>
<!-- 10 -->
<g id="node9" class="node">
<title>10</title>
<polygon fill="none" stroke="#000000" points="304.0971,-141.6 180.7793,-141.6 180.7793,-105.6 304.0971,-105.6 304.0971,-141.6"/>
<text text-anchor="middle" x="242.4382" y="-119.4" font-family="Times,serif" font-size="14.00" fill="#000000"> loan.size &lt;= 1810 </text>
</g>
<!-- 8&#45;&gt;10 -->
<g id="edge8" class="edge">
<title>8&#45;&gt;10</title>
<path fill="none" stroke="#000000" d="M189.9709,-199.7987C199.6824,-185.6945 213.2777,-165.95 224.1956,-150.0938"/>
<polygon fill="#000000" stroke="#000000" points="227.1555,-151.9667 229.944,-141.7454 221.39,-147.9968 227.1555,-151.9667"/>
</g>
<!-- 11 -->
<g id="node10" class="node">
<title>11</title>
<polygon fill="#c1b2ff" stroke="#c1b2ff" points="232.8147,-58.6014 132.0617,-58.6014 132.0617,.2014 232.8147,.2014 232.8147,-58.6014"/>
<text text-anchor="middle" x="182.4382" y="-41.8" font-family="Times,serif" font-size="14.00" fill="#000000">size = &#160;52 </text>
<text text-anchor="middle" x="182.4382" y="-25" font-family="Times,serif" font-size="14.00" fill="#000000"> avg_Y = &#45;0.44</text>
<text text-anchor="middle" x="182.4382" y="-8.2" font-family="Times,serif" font-size="14.00" fill="#000000">avg_W = 0.5 </text>
</g>
<!-- 10&#45;&gt;11 -->
<g id="edge9" class="edge">
<title>10&#45;&gt;11</title>
<path fill="none" stroke="#000000" d="M230.8696,-105.3987C223.9419,-94.4991 214.8732,-80.2311 206.4587,-66.9922"/>
<polygon fill="#000000" stroke="#000000" points="209.3707,-65.0489 201.0527,-58.4868 203.463,-68.8038 209.3707,-65.0489"/>
</g>
<!-- 12 -->
<g id="node11" class="node">
<title>12</title>
<polygon fill="#c1b2ff" stroke="#c1b2ff" points="351.8147,-58.6014 251.0617,-58.6014 251.0617,.2014 351.8147,.2014 351.8147,-58.6014"/>
<text text-anchor="middle" x="301.4382" y="-41.8" font-family="Times,serif" font-size="14.00" fill="#000000">size = &#160;40 </text>
<text text-anchor="middle" x="301.4382" y="-25" font-family="Times,serif" font-size="14.00" fill="#000000"> avg_Y = &#45;0.44</text>
<text text-anchor="middle" x="301.4382" y="-8.2" font-family="Times,serif" font-size="14.00" fill="#000000">avg_W = 0.55 </text>
</g>
<!-- 10&#45;&gt;12 -->
<g id="edge10" class="edge">
<title>10&#45;&gt;12</title>
<path fill="none" stroke="#000000" d="M253.814,-105.3987C260.6263,-94.4991 269.5438,-80.2311 277.8181,-66.9922"/>
<polygon fill="#000000" stroke="#000000" points="280.8019,-68.8218 283.134,-58.4868 274.8659,-65.1117 280.8019,-68.8218"/>
</g>
</g>
</svg>
