<?xml version="1.0" encoding="UTF-8" standalone="no"?>
<!DOCTYPE svg PUBLIC "-//W3C//DTD SVG 1.1//EN"
 "http://www.w3.org/Graphics/SVG/1.1/DTD/svg11.dtd">
<!-- Generated by graphviz version 2.40.1 (20161225.0304)
 -->
<!-- Title: nodes Pages: 1 -->
<svg width="1053pt" height="659pt"
 viewBox="0.00 0.00 1052.69 659.20" xmlns="http://www.w3.org/2000/svg" xmlns:xlink="http://www.w3.org/1999/xlink">
<g id="graph0" class="graph" transform="scale(1 1) rotate(0) translate(4 655.2)">
<title>nodes</title>
<polygon fill="#ffffff" stroke="transparent" points="-4,4 -4,-655.2 1048.695,-655.2 1048.695,4 -4,4"/>
<!-- 0 -->
<g id="node1" class="node">
<title>0</title>
<polygon fill="none" stroke="#000000" points="915.9523,-651.2 790.7427,-651.2 790.7427,-615.2 915.9523,-615.2 915.9523,-651.2"/>
<text text-anchor="middle" x="853.3475" y="-629" font-family="Times,serif" font-size="14.00" fill="#000000"> prestamo &lt;= 4820 </text>
</g>
<!-- 1 -->
<g id="node2" class="node">
<title>1</title>
<polygon fill="none" stroke="#000000" points="856.0249,-579.2 722.6701,-579.2 722.6701,-543.2 856.0249,-543.2 856.0249,-579.2"/>
<text text-anchor="middle" x="789.3475" y="-557" font-family="Times,serif" font-size="14.00" fill="#000000"> dummy_dow1 &lt;= 0 </text>
</g>
<!-- 0&#45;&gt;1 -->
<g id="edge1" class="edge">
<title>0&#45;&gt;1</title>
<path fill="none" stroke="#000000" d="M837.1976,-615.0314C829.6758,-606.5694 820.591,-596.3489 812.3671,-587.0971"/>
<polygon fill="#000000" stroke="#000000" points="814.9745,-584.7621 805.7148,-579.6133 809.7426,-589.4127 814.9745,-584.7621"/>
<text text-anchor="middle" x="804.2468" y="-600.3701" font-family="Times,serif" font-size="14.00" fill="#000000">True</text>
</g>
<!-- 2 -->
<g id="node3" class="node">
<title>2</title>
<polygon fill="none" stroke="#000000" points="960.5662,-579.2 874.1288,-579.2 874.1288,-543.2 960.5662,-543.2 960.5662,-579.2"/>
<text text-anchor="middle" x="917.3475" y="-557" font-family="Times,serif" font-size="14.00" fill="#000000"> edad &lt;= 35 </text>
</g>
<!-- 0&#45;&gt;2 -->
<g id="edge2" class="edge">
<title>0&#45;&gt;2</title>
<path fill="none" stroke="#000000" d="M869.4974,-615.0314C877.0192,-606.5694 886.104,-596.3489 894.3279,-587.0971"/>
<polygon fill="#000000" stroke="#000000" points="896.9524,-589.4127 900.9802,-579.6133 891.7205,-584.7621 896.9524,-589.4127"/>
<text text-anchor="middle" x="902.4482" y="-600.3701" font-family="Times,serif" font-size="14.00" fill="#000000">False</text>
</g>
<!-- 3 -->
<g id="node4" class="node">
<title>3</title>
<polygon fill="none" stroke="#000000" points="708.5662,-504.4 622.1288,-504.4 622.1288,-468.4 708.5662,-468.4 708.5662,-504.4"/>
<text text-anchor="middle" x="665.3475" y="-482.2" font-family="Times,serif" font-size="14.00" fill="#000000"> edad &lt;= 42 </text>
</g>
<!-- 1&#45;&gt;3 -->
<g id="edge3" class="edge">
<title>1&#45;&gt;3</title>
<path fill="none" stroke="#000000" d="M759.3306,-543.093C742.8507,-533.1519 722.2192,-520.7065 704.4882,-510.0107"/>
<polygon fill="#000000" stroke="#000000" points="705.8884,-506.7678 695.5178,-504.5995 702.2727,-512.7618 705.8884,-506.7678"/>
</g>
<!-- 4 -->
<g id="node5" class="node">
<title>4</title>
<polygon fill="none" stroke="#000000" points="852.4523,-504.4 734.2427,-504.4 734.2427,-468.4 852.4523,-468.4 852.4523,-504.4"/>
<text text-anchor="middle" x="793.3475" y="-482.2" font-family="Times,serif" font-size="14.00" fill="#000000"> prestamo &lt;= 840 </text>
</g>
<!-- 1&#45;&gt;4 -->
<g id="edge4" class="edge">
<title>1&#45;&gt;4</title>
<path fill="none" stroke="#000000" d="M790.3158,-543.093C790.7694,-534.6112 791.3204,-524.3062 791.8277,-514.8204"/>
<polygon fill="#000000" stroke="#000000" points="795.3352,-514.7722 792.3743,-504.5995 788.3452,-514.3983 795.3352,-514.7722"/>
</g>
<!-- 5 -->
<g id="node40" class="node">
<title>5</title>
<polygon fill="#c1b2ff" stroke="#c1b2ff" points="951.5431,-507.0019 877.1519,-507.0019 877.1519,-465.7981 951.5431,-465.7981 951.5431,-507.0019"/>
<text text-anchor="middle" x="914.3475" y="-490.6" font-family="Times,serif" font-size="14.00" fill="#000000">leaf node &#160;</text>
<text text-anchor="middle" x="914.3475" y="-473.8" font-family="Times,serif" font-size="14.00" fill="#000000">size = &#160;13 </text>
</g>
<!-- 2&#45;&gt;5 -->
<g id="edge39" class="edge">
<title>2&#45;&gt;5</title>
<path fill="none" stroke="#000000" d="M916.6213,-543.093C916.3131,-535.4083 915.9448,-526.2272 915.5954,-517.5145"/>
<polygon fill="#000000" stroke="#000000" points="919.0818,-517.1032 915.1838,-507.2515 912.0874,-517.3838 919.0818,-517.1032"/>
</g>
<!-- 6 -->
<g id="node41" class="node">
<title>6</title>
<polygon fill="#c1b2ff" stroke="#c1b2ff" points="1044.5431,-507.0019 970.1519,-507.0019 970.1519,-465.7981 1044.5431,-465.7981 1044.5431,-507.0019"/>
<text text-anchor="middle" x="1007.3475" y="-490.6" font-family="Times,serif" font-size="14.00" fill="#000000">leaf node &#160;</text>
<text text-anchor="middle" x="1007.3475" y="-473.8" font-family="Times,serif" font-size="14.00" fill="#000000">size = &#160;19 </text>
</g>
<!-- 2&#45;&gt;6 -->
<g id="edge40" class="edge">
<title>2&#45;&gt;6</title>
<path fill="none" stroke="#000000" d="M939.134,-543.093C949.7012,-534.3105 962.6201,-523.5734 974.3616,-513.815"/>
<polygon fill="#000000" stroke="#000000" points="976.8053,-516.335 982.2588,-507.2515 972.331,-510.9516 976.8053,-516.335"/>
</g>
<!-- 7 -->
<g id="node6" class="node">
<title>7</title>
<polygon fill="none" stroke="#000000" points="429.9523,-426.8 304.7427,-426.8 304.7427,-390.8 429.9523,-390.8 429.9523,-426.8"/>
<text text-anchor="middle" x="367.3475" y="-404.6" font-family="Times,serif" font-size="14.00" fill="#000000"> prestamo &lt;= 1540 </text>
</g>
<!-- 3&#45;&gt;7 -->
<g id="edge5" class="edge">
<title>3&#45;&gt;7</title>
<path fill="none" stroke="#000000" d="M622.0157,-475.1163C574.2529,-462.6787 496.6439,-442.4691 439.6359,-427.6241"/>
<polygon fill="#000000" stroke="#000000" points="440.5178,-424.2371 429.9585,-425.1041 438.7538,-431.0112 440.5178,-424.2371"/>
</g>
<!-- 8 -->
<g id="node7" class="node">
<title>8</title>
<polygon fill="none" stroke="#000000" points="732.0249,-426.8 598.6701,-426.8 598.6701,-390.8 732.0249,-390.8 732.0249,-426.8"/>
<text text-anchor="middle" x="665.3475" y="-404.6" font-family="Times,serif" font-size="14.00" fill="#000000"> dummy_dow2 &lt;= 0 </text>
</g>
<!-- 3&#45;&gt;8 -->
<g id="edge6" class="edge">
<title>3&#45;&gt;8</title>
<path fill="none" stroke="#000000" d="M665.3475,-468.0099C665.3475,-458.829 665.3475,-447.5167 665.3475,-437.2482"/>
<polygon fill="#000000" stroke="#000000" points="668.8476,-437.0581 665.3475,-427.0581 661.8476,-437.0581 668.8476,-437.0581"/>
</g>
<!-- 9 -->
<g id="node36" class="node">
<title>9</title>
<polygon fill="#c1b2ff" stroke="#c1b2ff" points="830.5431,-429.4019 756.1519,-429.4019 756.1519,-388.1981 830.5431,-388.1981 830.5431,-429.4019"/>
<text text-anchor="middle" x="793.3475" y="-413" font-family="Times,serif" font-size="14.00" fill="#000000">leaf node &#160;</text>
<text text-anchor="middle" x="793.3475" y="-396.2" font-family="Times,serif" font-size="14.00" fill="#000000">size = &#160;13 </text>
</g>
<!-- 4&#45;&gt;9 -->
<g id="edge35" class="edge">
<title>4&#45;&gt;9</title>
<path fill="none" stroke="#000000" d="M793.3475,-468.0099C793.3475,-459.5181 793.3475,-449.2029 793.3475,-439.5766"/>
<polygon fill="#000000" stroke="#000000" points="796.8476,-439.5205 793.3475,-429.5205 789.8476,-439.5205 796.8476,-439.5205"/>
</g>
<!-- 10 -->
<g id="node37" class="node">
<title>10</title>
<polygon fill="none" stroke="#000000" points="945.5662,-426.8 859.1288,-426.8 859.1288,-390.8 945.5662,-390.8 945.5662,-426.8"/>
<text text-anchor="middle" x="902.3475" y="-404.6" font-family="Times,serif" font-size="14.00" fill="#000000"> edad &lt;= 42 </text>
</g>
<!-- 4&#45;&gt;10 -->
<g id="edge36" class="edge">
<title>4&#45;&gt;10</title>
<path fill="none" stroke="#000000" d="M818.9032,-468.2062C833.6628,-457.6985 852.4123,-444.3502 868.3981,-432.9694"/>
<polygon fill="#000000" stroke="#000000" points="870.8354,-435.5307 876.952,-426.8798 866.7756,-429.8282 870.8354,-435.5307"/>
</g>
<!-- 11 -->
<g id="node8" class="node">
<title>11</title>
<polygon fill="none" stroke="#000000" points="235.8881,-349.2 126.8069,-349.2 126.8069,-313.2 235.8881,-313.2 235.8881,-349.2"/>
<text text-anchor="middle" x="181.3475" y="-327" font-family="Times,serif" font-size="14.00" fill="#000000"> pr_recup &lt;= 70 </text>
</g>
<!-- 7&#45;&gt;11 -->
<g id="edge7" class="edge">
<title>7&#45;&gt;11</title>
<path fill="none" stroke="#000000" d="M323.7388,-390.6062C296.9202,-379.4174 262.382,-365.0079 234.0378,-353.1826"/>
<polygon fill="#000000" stroke="#000000" points="235.2597,-349.9001 224.683,-349.2798 232.5644,-356.3604 235.2597,-349.9001"/>
</g>
<!-- 12 -->
<g id="node9" class="node">
<title>12</title>
<polygon fill="none" stroke="#000000" points="412.7266,-349.2 321.9684,-349.2 321.9684,-313.2 412.7266,-313.2 412.7266,-349.2"/>
<text text-anchor="middle" x="367.3475" y="-327" font-family="Times,serif" font-size="14.00" fill="#000000"> genero &lt;= 0 </text>
</g>
<!-- 7&#45;&gt;12 -->
<g id="edge8" class="edge">
<title>7&#45;&gt;12</title>
<path fill="none" stroke="#000000" d="M367.3475,-390.4099C367.3475,-381.229 367.3475,-369.9167 367.3475,-359.6482"/>
<polygon fill="#000000" stroke="#000000" points="370.8476,-359.4581 367.3475,-349.4581 363.8476,-359.4581 370.8476,-359.4581"/>
</g>
<!-- 13 -->
<g id="node22" class="node">
<title>13</title>
<polygon fill="none" stroke="#000000" points="723.5773,-349.2 595.1177,-349.2 595.1177,-313.2 723.5773,-313.2 723.5773,-349.2"/>
<text text-anchor="middle" x="659.3475" y="-327" font-family="Times,serif" font-size="14.00" fill="#000000"> dummy_suc4 &lt;= 0 </text>
</g>
<!-- 8&#45;&gt;13 -->
<g id="edge21" class="edge">
<title>8&#45;&gt;13</title>
<path fill="none" stroke="#000000" d="M663.9256,-390.4099C663.2157,-381.229 662.3411,-369.9167 661.5471,-359.6482"/>
<polygon fill="#000000" stroke="#000000" points="665.0198,-359.1585 660.7592,-349.4581 658.0406,-359.6982 665.0198,-359.1585"/>
</g>
<!-- 14 -->
<g id="node23" class="node">
<title>14</title>
<polygon fill="none" stroke="#000000" points="847.0208,-349.2 741.6742,-349.2 741.6742,-313.2 847.0208,-313.2 847.0208,-349.2"/>
<text text-anchor="middle" x="794.3475" y="-327" font-family="Times,serif" font-size="14.00" fill="#000000"> low_time &lt;= 0 </text>
</g>
<!-- 8&#45;&gt;14 -->
<g id="edge22" class="edge">
<title>8&#45;&gt;14</title>
<path fill="none" stroke="#000000" d="M695.5923,-390.6062C713.4644,-379.8552 736.2797,-366.1307 755.4774,-354.5823"/>
<polygon fill="#000000" stroke="#000000" points="757.5273,-357.4337 764.2922,-349.2798 753.919,-351.4354 757.5273,-357.4337"/>
</g>
<!-- 17 -->
<g id="node10" class="node">
<title>17</title>
<polygon fill="#c1b2ff" stroke="#c1b2ff" points="85.5431,-274.2019 11.1519,-274.2019 11.1519,-232.9981 85.5431,-232.9981 85.5431,-274.2019"/>
<text text-anchor="middle" x="48.3475" y="-257.8" font-family="Times,serif" font-size="14.00" fill="#000000">leaf node &#160;</text>
<text text-anchor="middle" x="48.3475" y="-241" font-family="Times,serif" font-size="14.00" fill="#000000">size = &#160;5 </text>
</g>
<!-- 11&#45;&gt;17 -->
<g id="edge9" class="edge">
<title>11&#45;&gt;17</title>
<path fill="none" stroke="#000000" d="M150.1649,-313.0062C133.0642,-303.0287 111.574,-290.4901 92.7494,-279.5067"/>
<polygon fill="#000000" stroke="#000000" points="94.4353,-276.4382 84.0341,-274.4217 90.9076,-282.4843 94.4353,-276.4382"/>
</g>
<!-- 18 -->
<g id="node11" class="node">
<title>18</title>
<polygon fill="none" stroke="#000000" points="259.2713,-271.6 103.4237,-271.6 103.4237,-235.6 259.2713,-235.6 259.2713,-271.6"/>
<text text-anchor="middle" x="181.3475" y="-249.4" font-family="Times,serif" font-size="14.00" fill="#000000"> estresado_seguido &lt;= 0 </text>
</g>
<!-- 11&#45;&gt;18 -->
<g id="edge10" class="edge">
<title>11&#45;&gt;18</title>
<path fill="none" stroke="#000000" d="M181.3475,-312.8099C181.3475,-303.629 181.3475,-292.3167 181.3475,-282.0482"/>
<polygon fill="#000000" stroke="#000000" points="184.8476,-281.8581 181.3475,-271.8581 177.8476,-281.8581 184.8476,-281.8581"/>
</g>
<!-- 19 -->
<g id="node16" class="node">
<title>19</title>
<polygon fill="#c1b2ff" stroke="#c1b2ff" points="351.5431,-274.2019 277.1519,-274.2019 277.1519,-232.9981 351.5431,-232.9981 351.5431,-274.2019"/>
<text text-anchor="middle" x="314.3475" y="-257.8" font-family="Times,serif" font-size="14.00" fill="#000000">leaf node &#160;</text>
<text text-anchor="middle" x="314.3475" y="-241" font-family="Times,serif" font-size="14.00" fill="#000000">size = &#160;23 </text>
</g>
<!-- 12&#45;&gt;19 -->
<g id="edge15" class="edge">
<title>12&#45;&gt;19</title>
<path fill="none" stroke="#000000" d="M354.7872,-312.8099C348.6789,-303.8664 341.1892,-292.9003 334.3227,-282.8468"/>
<polygon fill="#000000" stroke="#000000" points="337.0296,-280.6043 328.4994,-274.3205 331.2492,-284.5523 337.0296,-280.6043"/>
</g>
<!-- 20 -->
<g id="node17" class="node">
<title>20</title>
<polygon fill="none" stroke="#000000" points="473.1842,-271.6 369.5108,-271.6 369.5108,-235.6 473.1842,-235.6 473.1842,-271.6"/>
<text text-anchor="middle" x="421.3475" y="-249.4" font-family="Times,serif" font-size="14.00" fill="#000000"> low_cost &lt;= 0 </text>
</g>
<!-- 12&#45;&gt;20 -->
<g id="edge16" class="edge">
<title>12&#45;&gt;20</title>
<path fill="none" stroke="#000000" d="M380.1447,-312.8099C386.937,-303.0491 395.4057,-290.8793 402.8958,-280.1158"/>
<polygon fill="#000000" stroke="#000000" points="405.8031,-282.0655 408.6421,-271.8581 400.0573,-278.0671 405.8031,-282.0655"/>
</g>
<!-- 25 -->
<g id="node12" class="node">
<title>25</title>
<polygon fill="none" stroke="#000000" points="138.4523,-194 20.2427,-194 20.2427,-158 138.4523,-158 138.4523,-194"/>
<text text-anchor="middle" x="79.3475" y="-171.8" font-family="Times,serif" font-size="14.00" fill="#000000"> prestamo &lt;= 750 </text>
</g>
<!-- 18&#45;&gt;25 -->
<g id="edge11" class="edge">
<title>18&#45;&gt;25</title>
<path fill="none" stroke="#000000" d="M157.433,-235.4062C143.6213,-224.8985 126.0758,-211.5502 111.1166,-200.1694"/>
<polygon fill="#000000" stroke="#000000" points="113.19,-197.3491 103.1121,-194.0798 108.9516,-202.9201 113.19,-197.3491"/>
</g>
<!-- 26 -->
<g id="node13" class="node">
<title>26</title>
<polygon fill="#c1b2ff" stroke="#c1b2ff" points="230.5431,-196.6019 156.1519,-196.6019 156.1519,-155.3981 230.5431,-155.3981 230.5431,-196.6019"/>
<text text-anchor="middle" x="193.3475" y="-180.2" font-family="Times,serif" font-size="14.00" fill="#000000">leaf node &#160;</text>
<text text-anchor="middle" x="193.3475" y="-163.4" font-family="Times,serif" font-size="14.00" fill="#000000">size = &#160;17 </text>
</g>
<!-- 18&#45;&gt;26 -->
<g id="edge12" class="edge">
<title>18&#45;&gt;26</title>
<path fill="none" stroke="#000000" d="M184.1913,-235.2099C185.5045,-226.7181 187.0996,-216.4029 188.5882,-206.7766"/>
<polygon fill="#000000" stroke="#000000" points="192.0739,-207.1379 190.1433,-196.7205 185.1561,-206.0681 192.0739,-207.1379"/>
</g>
<!-- 31 -->
<g id="node14" class="node">
<title>31</title>
<polygon fill="#c1b2ff" stroke="#c1b2ff" points="74.5431,-119.0019 .1519,-119.0019 .1519,-77.7981 74.5431,-77.7981 74.5431,-119.0019"/>
<text text-anchor="middle" x="37.3475" y="-102.6" font-family="Times,serif" font-size="14.00" fill="#000000">leaf node &#160;</text>
<text text-anchor="middle" x="37.3475" y="-85.8" font-family="Times,serif" font-size="14.00" fill="#000000">size = &#160;29 </text>
</g>
<!-- 25&#45;&gt;31 -->
<g id="edge13" class="edge">
<title>25&#45;&gt;31</title>
<path fill="none" stroke="#000000" d="M69.3941,-157.6099C64.6024,-148.7567 58.7381,-137.9217 53.342,-127.9517"/>
<polygon fill="#000000" stroke="#000000" points="56.4002,-126.249 48.5622,-119.1205 50.2441,-129.581 56.4002,-126.249"/>
</g>
<!-- 32 -->
<g id="node15" class="node">
<title>32</title>
<polygon fill="#c1b2ff" stroke="#c1b2ff" points="167.5431,-119.0019 93.1519,-119.0019 93.1519,-77.7981 167.5431,-77.7981 167.5431,-119.0019"/>
<text text-anchor="middle" x="130.3475" y="-102.6" font-family="Times,serif" font-size="14.00" fill="#000000">leaf node &#160;</text>
<text text-anchor="middle" x="130.3475" y="-85.8" font-family="Times,serif" font-size="14.00" fill="#000000">size = &#160;27 </text>
</g>
<!-- 25&#45;&gt;32 -->
<g id="edge14" class="edge">
<title>25&#45;&gt;32</title>
<path fill="none" stroke="#000000" d="M91.4338,-157.6099C97.3116,-148.6664 104.5187,-137.7003 111.126,-127.6468"/>
<polygon fill="#000000" stroke="#000000" points="114.1623,-129.3996 116.7296,-119.1205 108.3125,-125.555 114.1623,-129.3996"/>
</g>
<!-- 27 -->
<g id="node18" class="node">
<title>27</title>
<polygon fill="none" stroke="#000000" points="374.0465,-194 280.6485,-194 280.6485,-158 374.0465,-158 374.0465,-194"/>
<text text-anchor="middle" x="327.3475" y="-171.8" font-family="Times,serif" font-size="14.00" fill="#000000"> rec_cel &lt;= 0 </text>
</g>
<!-- 20&#45;&gt;27 -->
<g id="edge17" class="edge">
<title>20&#45;&gt;27</title>
<path fill="none" stroke="#000000" d="M399.0708,-235.2099C386.6619,-224.9659 371.0387,-212.0685 357.5439,-200.9281"/>
<polygon fill="#000000" stroke="#000000" points="359.4042,-197.9253 349.4643,-194.2581 354.9478,-203.3235 359.4042,-197.9253"/>
</g>
<!-- 28 -->
<g id="node19" class="node">
<title>28</title>
<polygon fill="#c1b2ff" stroke="#c1b2ff" points="466.5431,-196.6019 392.1519,-196.6019 392.1519,-155.3981 466.5431,-155.3981 466.5431,-196.6019"/>
<text text-anchor="middle" x="429.3475" y="-180.2" font-family="Times,serif" font-size="14.00" fill="#000000">leaf node &#160;</text>
<text text-anchor="middle" x="429.3475" y="-163.4" font-family="Times,serif" font-size="14.00" fill="#000000">size = &#160;13 </text>
</g>
<!-- 20&#45;&gt;28 -->
<g id="edge18" class="edge">
<title>20&#45;&gt;28</title>
<path fill="none" stroke="#000000" d="M423.2434,-235.2099C424.1188,-226.7181 425.1823,-216.4029 426.1746,-206.7766"/>
<polygon fill="#000000" stroke="#000000" points="429.6673,-207.0267 427.2114,-196.7205 422.7042,-206.3088 429.6673,-207.0267"/>
</g>
<!-- 33 -->
<g id="node20" class="node">
<title>33</title>
<polygon fill="#c1b2ff" stroke="#c1b2ff" points="287.5431,-119.0019 213.1519,-119.0019 213.1519,-77.7981 287.5431,-77.7981 287.5431,-119.0019"/>
<text text-anchor="middle" x="250.3475" y="-102.6" font-family="Times,serif" font-size="14.00" fill="#000000">leaf node &#160;</text>
<text text-anchor="middle" x="250.3475" y="-85.8" font-family="Times,serif" font-size="14.00" fill="#000000">size = &#160;12 </text>
</g>
<!-- 27&#45;&gt;33 -->
<g id="edge19" class="edge">
<title>27&#45;&gt;33</title>
<path fill="none" stroke="#000000" d="M309.0996,-157.6099C299.8667,-148.305 288.4614,-136.8109 278.1636,-126.4328"/>
<polygon fill="#000000" stroke="#000000" points="280.4359,-123.7537 270.9078,-119.1205 275.4669,-128.6842 280.4359,-123.7537"/>
</g>
<!-- 34 -->
<g id="node21" class="node">
<title>34</title>
<polygon fill="#c1b2ff" stroke="#c1b2ff" points="380.5431,-119.0019 306.1519,-119.0019 306.1519,-77.7981 380.5431,-77.7981 380.5431,-119.0019"/>
<text text-anchor="middle" x="343.3475" y="-102.6" font-family="Times,serif" font-size="14.00" fill="#000000">leaf node &#160;</text>
<text text-anchor="middle" x="343.3475" y="-85.8" font-family="Times,serif" font-size="14.00" fill="#000000">size = &#160;5 </text>
</g>
<!-- 27&#45;&gt;34 -->
<g id="edge20" class="edge">
<title>27&#45;&gt;34</title>
<path fill="none" stroke="#000000" d="M331.1393,-157.6099C332.8902,-149.1181 335.017,-138.8029 337.0018,-129.1766"/>
<polygon fill="#000000" stroke="#000000" points="340.4837,-129.6213 339.0752,-119.1205 333.6279,-128.2077 340.4837,-129.6213"/>
</g>
<!-- 21 -->
<g id="node24" class="node">
<title>21</title>
<polygon fill="none" stroke="#000000" points="646.2713,-271.6 490.4237,-271.6 490.4237,-235.6 646.2713,-235.6 646.2713,-271.6"/>
<text text-anchor="middle" x="568.3475" y="-249.4" font-family="Times,serif" font-size="14.00" fill="#000000"> estresado_seguido &lt;= 0 </text>
</g>
<!-- 13&#45;&gt;21 -->
<g id="edge23" class="edge">
<title>13&#45;&gt;21</title>
<path fill="none" stroke="#000000" d="M637.7818,-312.8099C625.7689,-302.5659 610.6443,-289.6685 597.5802,-278.5281"/>
<polygon fill="#000000" stroke="#000000" points="599.6385,-275.6836 589.7584,-271.8581 595.0965,-281.0099 599.6385,-275.6836"/>
</g>
<!-- 22 -->
<g id="node25" class="node">
<title>22</title>
<polygon fill="#c1b2ff" stroke="#c1b2ff" points="738.5431,-274.2019 664.1519,-274.2019 664.1519,-232.9981 738.5431,-232.9981 738.5431,-274.2019"/>
<text text-anchor="middle" x="701.3475" y="-257.8" font-family="Times,serif" font-size="14.00" fill="#000000">leaf node &#160;</text>
<text text-anchor="middle" x="701.3475" y="-241" font-family="Times,serif" font-size="14.00" fill="#000000">size = &#160;16 </text>
</g>
<!-- 13&#45;&gt;22 -->
<g id="edge24" class="edge">
<title>13&#45;&gt;22</title>
<path fill="none" stroke="#000000" d="M669.3009,-312.8099C674.0926,-303.9567 679.9569,-293.1217 685.353,-283.1517"/>
<polygon fill="#000000" stroke="#000000" points="688.4509,-284.781 690.1328,-274.3205 682.2948,-281.449 688.4509,-284.781"/>
</g>
<!-- 23 -->
<g id="node34" class="node">
<title>23</title>
<polygon fill="#c1b2ff" stroke="#c1b2ff" points="831.5431,-274.2019 757.1519,-274.2019 757.1519,-232.9981 831.5431,-232.9981 831.5431,-274.2019"/>
<text text-anchor="middle" x="794.3475" y="-257.8" font-family="Times,serif" font-size="14.00" fill="#000000">leaf node &#160;</text>
<text text-anchor="middle" x="794.3475" y="-241" font-family="Times,serif" font-size="14.00" fill="#000000">size = &#160;10 </text>
</g>
<!-- 14&#45;&gt;23 -->
<g id="edge33" class="edge">
<title>14&#45;&gt;23</title>
<path fill="none" stroke="#000000" d="M794.3475,-312.8099C794.3475,-304.3181 794.3475,-294.0029 794.3475,-284.3766"/>
<polygon fill="#000000" stroke="#000000" points="797.8476,-284.3205 794.3475,-274.3205 790.8476,-284.3205 797.8476,-284.3205"/>
</g>
<!-- 24 -->
<g id="node35" class="node">
<title>24</title>
<polygon fill="#c1b2ff" stroke="#c1b2ff" points="924.5431,-274.2019 850.1519,-274.2019 850.1519,-232.9981 924.5431,-232.9981 924.5431,-274.2019"/>
<text text-anchor="middle" x="887.3475" y="-257.8" font-family="Times,serif" font-size="14.00" fill="#000000">leaf node &#160;</text>
<text text-anchor="middle" x="887.3475" y="-241" font-family="Times,serif" font-size="14.00" fill="#000000">size = &#160;9 </text>
</g>
<!-- 14&#45;&gt;24 -->
<g id="edge34" class="edge">
<title>14&#45;&gt;24</title>
<path fill="none" stroke="#000000" d="M816.3872,-312.8099C827.8634,-303.234 842.1185,-291.3395 854.8347,-280.7289"/>
<polygon fill="#000000" stroke="#000000" points="857.0791,-283.4146 862.5149,-274.3205 852.5944,-278.0399 857.0791,-283.4146"/>
</g>
<!-- 29 -->
<g id="node26" class="node">
<title>29</title>
<polygon fill="none" stroke="#000000" points="623.9523,-194 498.7427,-194 498.7427,-158 623.9523,-158 623.9523,-194"/>
<text text-anchor="middle" x="561.3475" y="-171.8" font-family="Times,serif" font-size="14.00" fill="#000000"> prestamo &lt;= 1050 </text>
</g>
<!-- 21&#45;&gt;29 -->
<g id="edge25" class="edge">
<title>21&#45;&gt;29</title>
<path fill="none" stroke="#000000" d="M566.6886,-235.2099C565.8604,-226.029 564.84,-214.7167 563.9137,-204.4482"/>
<polygon fill="#000000" stroke="#000000" points="567.3788,-203.9032 562.9945,-194.2581 560.4072,-204.5321 567.3788,-203.9032"/>
</g>
<!-- 30 -->
<g id="node27" class="node">
<title>30</title>
<polygon fill="none" stroke="#000000" points="747.0208,-194 641.6742,-194 641.6742,-158 747.0208,-158 747.0208,-194"/>
<text text-anchor="middle" x="694.3475" y="-171.8" font-family="Times,serif" font-size="14.00" fill="#000000"> low_time &lt;= 0 </text>
</g>
<!-- 21&#45;&gt;30 -->
<g id="edge26" class="edge">
<title>21&#45;&gt;30</title>
<path fill="none" stroke="#000000" d="M597.8889,-235.4062C615.3454,-224.6552 637.6301,-210.9307 656.3813,-199.3823"/>
<polygon fill="#000000" stroke="#000000" points="658.3119,-202.304 664.9912,-194.0798 654.641,-196.3436 658.3119,-202.304"/>
</g>
<!-- 35 -->
<g id="node28" class="node">
<title>35</title>
<polygon fill="#c1b2ff" stroke="#c1b2ff" points="485.5431,-119.0019 411.1519,-119.0019 411.1519,-77.7981 485.5431,-77.7981 485.5431,-119.0019"/>
<text text-anchor="middle" x="448.3475" y="-102.6" font-family="Times,serif" font-size="14.00" fill="#000000">leaf node &#160;</text>
<text text-anchor="middle" x="448.3475" y="-85.8" font-family="Times,serif" font-size="14.00" fill="#000000">size = &#160;25 </text>
</g>
<!-- 29&#45;&gt;35 -->
<g id="edge27" class="edge">
<title>29&#45;&gt;35</title>
<path fill="none" stroke="#000000" d="M534.854,-157.8062C520.6536,-148.0544 502.8905,-135.8561 487.1614,-125.0545"/>
<polygon fill="#000000" stroke="#000000" points="488.8925,-121.9975 478.6677,-119.2217 484.9298,-127.7679 488.8925,-121.9975"/>
</g>
<!-- 36 -->
<g id="node29" class="node">
<title>36</title>
<polygon fill="none" stroke="#000000" points="628.9523,-116.4 503.7427,-116.4 503.7427,-80.4 628.9523,-80.4 628.9523,-116.4"/>
<text text-anchor="middle" x="566.3475" y="-94.2" font-family="Times,serif" font-size="14.00" fill="#000000"> prestamo &lt;= 2750 </text>
</g>
<!-- 29&#45;&gt;36 -->
<g id="edge28" class="edge">
<title>29&#45;&gt;36</title>
<path fill="none" stroke="#000000" d="M562.5324,-157.6099C563.124,-148.429 563.8529,-137.1167 564.5145,-126.8482"/>
<polygon fill="#000000" stroke="#000000" points="568.0207,-126.8625 565.1711,-116.6581 561.0352,-126.4123 568.0207,-126.8625"/>
</g>
<!-- 37 -->
<g id="node32" class="node">
<title>37</title>
<polygon fill="#c1b2ff" stroke="#c1b2ff" points="727.5431,-119.0019 653.1519,-119.0019 653.1519,-77.7981 727.5431,-77.7981 727.5431,-119.0019"/>
<text text-anchor="middle" x="690.3475" y="-102.6" font-family="Times,serif" font-size="14.00" fill="#000000">leaf node &#160;</text>
<text text-anchor="middle" x="690.3475" y="-85.8" font-family="Times,serif" font-size="14.00" fill="#000000">size = &#160;15 </text>
</g>
<!-- 30&#45;&gt;37 -->
<g id="edge31" class="edge">
<title>30&#45;&gt;37</title>
<path fill="none" stroke="#000000" d="M693.3996,-157.6099C692.9618,-149.1181 692.4301,-138.8029 691.9339,-129.1766"/>
<polygon fill="#000000" stroke="#000000" points="695.4258,-128.927 691.4156,-119.1205 688.4351,-129.2874 695.4258,-128.927"/>
</g>
<!-- 38 -->
<g id="node33" class="node">
<title>38</title>
<polygon fill="#c1b2ff" stroke="#c1b2ff" points="820.5431,-119.0019 746.1519,-119.0019 746.1519,-77.7981 820.5431,-77.7981 820.5431,-119.0019"/>
<text text-anchor="middle" x="783.3475" y="-102.6" font-family="Times,serif" font-size="14.00" fill="#000000">leaf node &#160;</text>
<text text-anchor="middle" x="783.3475" y="-85.8" font-family="Times,serif" font-size="14.00" fill="#000000">size = &#160;10 </text>
</g>
<!-- 30&#45;&gt;38 -->
<g id="edge32" class="edge">
<title>30&#45;&gt;38</title>
<path fill="none" stroke="#000000" d="M715.4393,-157.6099C726.3183,-148.1243 739.8067,-136.3637 751.8883,-125.8296"/>
<polygon fill="#000000" stroke="#000000" points="754.3458,-128.3304 759.583,-119.1205 749.7455,-123.0543 754.3458,-128.3304"/>
</g>
<!-- 39 -->
<g id="node30" class="node">
<title>39</title>
<polygon fill="#c1b2ff" stroke="#c1b2ff" points="556.5431,-41.4019 482.1519,-41.4019 482.1519,-.1981 556.5431,-.1981 556.5431,-41.4019"/>
<text text-anchor="middle" x="519.3475" y="-25" font-family="Times,serif" font-size="14.00" fill="#000000">leaf node &#160;</text>
<text text-anchor="middle" x="519.3475" y="-8.2" font-family="Times,serif" font-size="14.00" fill="#000000">size = &#160;24 </text>
</g>
<!-- 36&#45;&gt;39 -->
<g id="edge29" class="edge">
<title>36&#45;&gt;39</title>
<path fill="none" stroke="#000000" d="M555.2092,-80.0099C549.8471,-71.1567 543.2846,-60.3217 537.2461,-50.3517"/>
<polygon fill="#000000" stroke="#000000" points="540.0716,-48.2608 531.8973,-41.5205 534.0842,-51.8872 540.0716,-48.2608"/>
</g>
<!-- 40 -->
<g id="node31" class="node">
<title>40</title>
<polygon fill="#c1b2ff" stroke="#c1b2ff" points="649.5431,-41.4019 575.1519,-41.4019 575.1519,-.1981 649.5431,-.1981 649.5431,-41.4019"/>
<text text-anchor="middle" x="612.3475" y="-25" font-family="Times,serif" font-size="14.00" fill="#000000">leaf node &#160;</text>
<text text-anchor="middle" x="612.3475" y="-8.2" font-family="Times,serif" font-size="14.00" fill="#000000">size = &#160;8 </text>
</g>
<!-- 36&#45;&gt;40 -->
<g id="edge30" class="edge">
<title>36&#45;&gt;40</title>
<path fill="none" stroke="#000000" d="M577.2489,-80.0099C582.4969,-71.1567 588.9197,-60.3217 594.8297,-50.3517"/>
<polygon fill="#000000" stroke="#000000" points="597.9762,-51.9075 600.0647,-41.5205 591.9547,-48.338 597.9762,-51.9075"/>
</g>
<!-- 15 -->
<g id="node38" class="node">
<title>15</title>
<polygon fill="#c1b2ff" stroke="#c1b2ff" points="939.5431,-351.8019 865.1519,-351.8019 865.1519,-310.5981 939.5431,-310.5981 939.5431,-351.8019"/>
<text text-anchor="middle" x="902.3475" y="-335.4" font-family="Times,serif" font-size="14.00" fill="#000000">leaf node &#160;</text>
<text text-anchor="middle" x="902.3475" y="-318.6" font-family="Times,serif" font-size="14.00" fill="#000000">size = &#160;17 </text>
</g>
<!-- 10&#45;&gt;15 -->
<g id="edge37" class="edge">
<title>10&#45;&gt;15</title>
<path fill="none" stroke="#000000" d="M902.3475,-390.4099C902.3475,-381.9181 902.3475,-371.6029 902.3475,-361.9766"/>
<polygon fill="#000000" stroke="#000000" points="905.8476,-361.9205 902.3475,-351.9205 898.8476,-361.9205 905.8476,-361.9205"/>
</g>
<!-- 16 -->
<g id="node39" class="node">
<title>16</title>
<polygon fill="#c1b2ff" stroke="#c1b2ff" points="1032.5431,-351.8019 958.1519,-351.8019 958.1519,-310.5981 1032.5431,-310.5981 1032.5431,-351.8019"/>
<text text-anchor="middle" x="995.3475" y="-335.4" font-family="Times,serif" font-size="14.00" fill="#000000">leaf node &#160;</text>
<text text-anchor="middle" x="995.3475" y="-318.6" font-family="Times,serif" font-size="14.00" fill="#000000">size = &#160;9 </text>
</g>
<!-- 10&#45;&gt;16 -->
<g id="edge38" class="edge">
<title>10&#45;&gt;16</title>
<path fill="none" stroke="#000000" d="M924.3872,-390.4099C935.8634,-380.834 950.1185,-368.9395 962.8347,-358.3289"/>
<polygon fill="#000000" stroke="#000000" points="965.0791,-361.0146 970.5149,-351.9205 960.5944,-355.6399 965.0791,-361.0146"/>
</g>
</g>
</svg>
