<?xml version="1.0" encoding="UTF-8" standalone="no"?>
<!DOCTYPE svg PUBLIC "-//W3C//DTD SVG 1.1//EN"
 "http://www.w3.org/Graphics/SVG/1.1/DTD/svg11.dtd">
<!-- Generated by graphviz version 2.40.1 (20161225.0304)
 -->
<!-- Title: nodes Pages: 1 -->
<svg width="1059pt" height="659pt"
 viewBox="0.00 0.00 1058.69 659.20" xmlns="http://www.w3.org/2000/svg" xmlns:xlink="http://www.w3.org/1999/xlink">
<g id="graph0" class="graph" transform="scale(1 1) rotate(0) translate(4 655.2)">
<title>nodes</title>
<polygon fill="#ffffff" stroke="transparent" points="-4,4 -4,-655.2 1054.695,-655.2 1054.695,4 -4,4"/>
<!-- 0 -->
<g id="node1" class="node">
<title>0</title>
<polygon fill="none" stroke="#000000" points="607.5662,-651.2 521.1288,-651.2 521.1288,-615.2 607.5662,-615.2 607.5662,-651.2"/>
<text text-anchor="middle" x="564.3475" y="-629" font-family="Times,serif" font-size="14.00" fill="#000000"> edad &lt;= 63 </text>
</g>
<!-- 1 -->
<g id="node2" class="node">
<title>1</title>
<polygon fill="none" stroke="#000000" points="558.5662,-576.4 472.1288,-576.4 472.1288,-540.4 558.5662,-540.4 558.5662,-576.4"/>
<text text-anchor="middle" x="515.3475" y="-554.2" font-family="Times,serif" font-size="14.00" fill="#000000"> edad &lt;= 41 </text>
</g>
<!-- 0&#45;&gt;1 -->
<g id="edge1" class="edge">
<title>0&#45;&gt;1</title>
<path fill="none" stroke="#000000" d="M552.486,-615.093C546.5712,-606.0639 539.3031,-594.969 532.7696,-584.9954"/>
<polygon fill="#000000" stroke="#000000" points="535.6771,-583.0466 527.2696,-576.5995 529.8217,-586.8824 535.6771,-583.0466"/>
<text text-anchor="middle" x="522.1692" y="-596.8737" font-family="Times,serif" font-size="14.00" fill="#000000">True</text>
</g>
<!-- 2 -->
<g id="node3" class="node">
<title>2</title>
<polygon fill="#c1b2ff" stroke="#c1b2ff" points="650.5431,-579.0019 576.1519,-579.0019 576.1519,-537.7981 650.5431,-537.7981 650.5431,-579.0019"/>
<text text-anchor="middle" x="613.3475" y="-562.6" font-family="Times,serif" font-size="14.00" fill="#000000">leaf node &#160;</text>
<text text-anchor="middle" x="613.3475" y="-545.8" font-family="Times,serif" font-size="14.00" fill="#000000">size = &#160;16 </text>
</g>
<!-- 0&#45;&gt;2 -->
<g id="edge2" class="edge">
<title>0&#45;&gt;2</title>
<path fill="none" stroke="#000000" d="M576.209,-615.093C581.575,-606.9016 588.0549,-597.01 594.0896,-587.7978"/>
<polygon fill="#000000" stroke="#000000" points="597.1361,-589.5344 599.6881,-579.2515 591.2806,-585.6986 597.1361,-589.5344"/>
<text text-anchor="middle" x="604.7885" y="-599.5257" font-family="Times,serif" font-size="14.00" fill="#000000">False</text>
</g>
<!-- 3 -->
<g id="node4" class="node">
<title>3</title>
<polygon fill="none" stroke="#000000" points="509.9523,-501.6 384.7427,-501.6 384.7427,-465.6 509.9523,-465.6 509.9523,-501.6"/>
<text text-anchor="middle" x="447.3475" y="-479.4" font-family="Times,serif" font-size="14.00" fill="#000000"> prestamo &lt;= 1500 </text>
</g>
<!-- 1&#45;&gt;3 -->
<g id="edge3" class="edge">
<title>1&#45;&gt;3</title>
<path fill="none" stroke="#000000" d="M498.8866,-540.293C490.4296,-530.9903 479.979,-519.4947 470.7038,-509.2919"/>
<polygon fill="#000000" stroke="#000000" points="473.2091,-506.8446 463.8925,-501.7995 468.0295,-511.5533 473.2091,-506.8446"/>
</g>
<!-- 4 -->
<g id="node5" class="node">
<title>4</title>
<polygon fill="none" stroke="#000000" points="639.221,-501.6 527.474,-501.6 527.474,-465.6 639.221,-465.6 639.221,-501.6"/>
<text text-anchor="middle" x="583.3475" y="-479.4" font-family="Times,serif" font-size="14.00" fill="#000000"> pres_antes &lt;= 0 </text>
</g>
<!-- 1&#45;&gt;4 -->
<g id="edge4" class="edge">
<title>1&#45;&gt;4</title>
<path fill="none" stroke="#000000" d="M531.8084,-540.293C540.2654,-530.9903 550.716,-519.4947 559.9912,-509.2919"/>
<polygon fill="#000000" stroke="#000000" points="562.6655,-511.5533 566.8025,-501.7995 557.4859,-506.8446 562.6655,-511.5533"/>
</g>
<!-- 5 -->
<g id="node6" class="node">
<title>5</title>
<polygon fill="none" stroke="#000000" points="380.0249,-426.8 246.6701,-426.8 246.6701,-390.8 380.0249,-390.8 380.0249,-426.8"/>
<text text-anchor="middle" x="313.3475" y="-404.6" font-family="Times,serif" font-size="14.00" fill="#000000"> dummy_dow4 &lt;= 0 </text>
</g>
<!-- 3&#45;&gt;5 -->
<g id="edge5" class="edge">
<title>3&#45;&gt;5</title>
<path fill="none" stroke="#000000" d="M414.9098,-465.493C396.8558,-455.4151 374.1912,-442.7635 354.8555,-431.9701"/>
<polygon fill="#000000" stroke="#000000" points="356.3886,-428.8176 345.9509,-426.9995 352.9767,-434.9298 356.3886,-428.8176"/>
</g>
<!-- 6 -->
<g id="node7" class="node">
<title>6</title>
<polygon fill="none" stroke="#000000" points="518.0082,-426.8 398.6868,-426.8 398.6868,-390.8 518.0082,-390.8 518.0082,-426.8"/>
<text text-anchor="middle" x="458.3475" y="-404.6" font-family="Times,serif" font-size="14.00" fill="#000000"> fam_comun &lt;= 0 </text>
</g>
<!-- 3&#45;&gt;6 -->
<g id="edge6" class="edge">
<title>3&#45;&gt;6</title>
<path fill="none" stroke="#000000" d="M450.0103,-465.493C451.271,-456.9199 452.8057,-446.4844 454.213,-436.9147"/>
<polygon fill="#000000" stroke="#000000" points="457.6788,-437.4024 455.6711,-426.9995 450.7533,-436.3838 457.6788,-437.4024"/>
</g>
<!-- 7 -->
<g id="node22" class="node">
<title>7</title>
<polygon fill="#c1b2ff" stroke="#c1b2ff" points="610.5431,-429.4019 536.1519,-429.4019 536.1519,-388.1981 610.5431,-388.1981 610.5431,-429.4019"/>
<text text-anchor="middle" x="573.3475" y="-413" font-family="Times,serif" font-size="14.00" fill="#000000">leaf node &#160;</text>
<text text-anchor="middle" x="573.3475" y="-396.2" font-family="Times,serif" font-size="14.00" fill="#000000">size = &#160;18 </text>
</g>
<!-- 4&#45;&gt;7 -->
<g id="edge21" class="edge">
<title>4&#45;&gt;7</title>
<path fill="none" stroke="#000000" d="M580.9268,-465.493C579.8881,-457.7239 578.645,-448.4252 577.4688,-439.6275"/>
<polygon fill="#000000" stroke="#000000" points="580.9295,-439.0995 576.1351,-429.6515 573.9912,-440.0271 580.9295,-439.0995"/>
</g>
<!-- 8 -->
<g id="node23" class="node">
<title>8</title>
<polygon fill="none" stroke="#000000" points="746.4523,-426.8 628.2427,-426.8 628.2427,-390.8 746.4523,-390.8 746.4523,-426.8"/>
<text text-anchor="middle" x="687.3475" y="-404.6" font-family="Times,serif" font-size="14.00" fill="#000000"> prestamo &lt;= 460 </text>
</g>
<!-- 4&#45;&gt;8 -->
<g id="edge22" class="edge">
<title>4&#45;&gt;8</title>
<path fill="none" stroke="#000000" d="M608.523,-465.493C622.0912,-455.7343 639.0148,-443.5624 653.6988,-433.0012"/>
<polygon fill="#000000" stroke="#000000" points="655.9687,-435.6799 662.0434,-426.9995 651.8814,-429.9971 655.9687,-435.6799"/>
</g>
<!-- 9 -->
<g id="node8" class="node">
<title>9</title>
<polygon fill="none" stroke="#000000" points="279.9524,-349.2 196.7426,-349.2 196.7426,-313.2 279.9524,-313.2 279.9524,-349.2"/>
<text text-anchor="middle" x="238.3475" y="-327" font-family="Times,serif" font-size="14.00" fill="#000000"> faltas &lt;= 0 </text>
</g>
<!-- 5&#45;&gt;9 -->
<g id="edge7" class="edge">
<title>5&#45;&gt;9</title>
<path fill="none" stroke="#000000" d="M295.5735,-390.4099C285.8596,-380.3592 273.677,-367.7542 263.0516,-356.7605"/>
<polygon fill="#000000" stroke="#000000" points="265.4602,-354.2163 255.9939,-349.4581 260.4268,-359.081 265.4602,-354.2163"/>
</g>
<!-- 10 -->
<g id="node9" class="node">
<title>10</title>
<polygon fill="#c1b2ff" stroke="#c1b2ff" points="372.5431,-351.8019 298.1519,-351.8019 298.1519,-310.5981 372.5431,-310.5981 372.5431,-351.8019"/>
<text text-anchor="middle" x="335.3475" y="-335.4" font-family="Times,serif" font-size="14.00" fill="#000000">leaf node &#160;</text>
<text text-anchor="middle" x="335.3475" y="-318.6" font-family="Times,serif" font-size="14.00" fill="#000000">size = &#160;12 </text>
</g>
<!-- 5&#45;&gt;10 -->
<g id="edge8" class="edge">
<title>5&#45;&gt;10</title>
<path fill="none" stroke="#000000" d="M318.5612,-390.4099C320.9943,-381.8277 323.9554,-371.3832 326.7092,-361.6697"/>
<polygon fill="#000000" stroke="#000000" points="330.1128,-362.496 329.4731,-351.9205 323.3782,-360.5867 330.1128,-362.496"/>
</g>
<!-- 11 -->
<g id="node16" class="node">
<title>11</title>
<polygon fill="none" stroke="#000000" points="481.7266,-349.2 390.9684,-349.2 390.9684,-313.2 481.7266,-313.2 481.7266,-349.2"/>
<text text-anchor="middle" x="436.3475" y="-327" font-family="Times,serif" font-size="14.00" fill="#000000"> genero &lt;= 0 </text>
</g>
<!-- 6&#45;&gt;11 -->
<g id="edge15" class="edge">
<title>6&#45;&gt;11</title>
<path fill="none" stroke="#000000" d="M453.1338,-390.4099C450.5036,-381.1323 447.2563,-369.6783 444.3209,-359.3242"/>
<polygon fill="#000000" stroke="#000000" points="447.6187,-358.1243 441.5238,-349.4581 440.8841,-360.0336 447.6187,-358.1243"/>
</g>
<!-- 12 -->
<g id="node17" class="node">
<title>12</title>
<polygon fill="#c1b2ff" stroke="#c1b2ff" points="574.5431,-351.8019 500.1519,-351.8019 500.1519,-310.5981 574.5431,-310.5981 574.5431,-351.8019"/>
<text text-anchor="middle" x="537.3475" y="-335.4" font-family="Times,serif" font-size="14.00" fill="#000000">leaf node &#160;</text>
<text text-anchor="middle" x="537.3475" y="-318.6" font-family="Times,serif" font-size="14.00" fill="#000000">size = &#160;16 </text>
</g>
<!-- 6&#45;&gt;12 -->
<g id="edge16" class="edge">
<title>6&#45;&gt;12</title>
<path fill="none" stroke="#000000" d="M477.0694,-390.4099C486.6341,-381.0147 498.4711,-369.3875 509.1163,-358.9309"/>
<polygon fill="#000000" stroke="#000000" points="511.5718,-361.425 516.2532,-351.9205 506.6665,-356.4312 511.5718,-361.425"/>
</g>
<!-- 15 -->
<g id="node10" class="node">
<title>15</title>
<polygon fill="none" stroke="#000000" points="187.0465,-271.6 93.6485,-271.6 93.6485,-235.6 187.0465,-235.6 187.0465,-271.6"/>
<text text-anchor="middle" x="140.3475" y="-249.4" font-family="Times,serif" font-size="14.00" fill="#000000"> rec_cel &lt;= 0 </text>
</g>
<!-- 9&#45;&gt;15 -->
<g id="edge9" class="edge">
<title>9&#45;&gt;15</title>
<path fill="none" stroke="#000000" d="M215.1229,-312.8099C202.0639,-302.4693 185.5903,-289.4249 171.4313,-278.2133"/>
<polygon fill="#000000" stroke="#000000" points="173.418,-275.3221 163.4054,-271.8581 169.0725,-280.8099 173.418,-275.3221"/>
</g>
<!-- 16 -->
<g id="node11" class="node">
<title>16</title>
<polygon fill="#c1b2ff" stroke="#c1b2ff" points="279.5431,-274.2019 205.1519,-274.2019 205.1519,-232.9981 279.5431,-232.9981 279.5431,-274.2019"/>
<text text-anchor="middle" x="242.3475" y="-257.8" font-family="Times,serif" font-size="14.00" fill="#000000">leaf node &#160;</text>
<text text-anchor="middle" x="242.3475" y="-241" font-family="Times,serif" font-size="14.00" fill="#000000">size = &#160;19 </text>
</g>
<!-- 9&#45;&gt;16 -->
<g id="edge10" class="edge">
<title>9&#45;&gt;16</title>
<path fill="none" stroke="#000000" d="M239.2954,-312.8099C239.7332,-304.3181 240.2649,-294.0029 240.7611,-284.3766"/>
<polygon fill="#000000" stroke="#000000" points="244.2599,-284.4874 241.2794,-274.3205 237.2692,-284.127 244.2599,-284.4874"/>
</g>
<!-- 21 -->
<g id="node12" class="node">
<title>21</title>
<polygon fill="none" stroke="#000000" points="142.4523,-194 24.2427,-194 24.2427,-158 142.4523,-158 142.4523,-194"/>
<text text-anchor="middle" x="83.3475" y="-171.8" font-family="Times,serif" font-size="14.00" fill="#000000"> prestamo &lt;= 490 </text>
</g>
<!-- 15&#45;&gt;21 -->
<g id="edge11" class="edge">
<title>15&#45;&gt;21</title>
<path fill="none" stroke="#000000" d="M126.8393,-235.2099C119.6697,-225.4491 110.7305,-213.2793 102.8243,-202.5158"/>
<polygon fill="#000000" stroke="#000000" points="105.4995,-200.2456 96.7587,-194.2581 99.8579,-204.3895 105.4995,-200.2456"/>
</g>
<!-- 22 -->
<g id="node13" class="node">
<title>22</title>
<polygon fill="#c1b2ff" stroke="#c1b2ff" points="234.5431,-196.6019 160.1519,-196.6019 160.1519,-155.3981 234.5431,-155.3981 234.5431,-196.6019"/>
<text text-anchor="middle" x="197.3475" y="-180.2" font-family="Times,serif" font-size="14.00" fill="#000000">leaf node &#160;</text>
<text text-anchor="middle" x="197.3475" y="-163.4" font-family="Times,serif" font-size="14.00" fill="#000000">size = &#160;13 </text>
</g>
<!-- 15&#45;&gt;22 -->
<g id="edge12" class="edge">
<title>15&#45;&gt;22</title>
<path fill="none" stroke="#000000" d="M153.8557,-235.2099C160.4914,-226.176 168.6429,-215.0786 176.0883,-204.9424"/>
<polygon fill="#000000" stroke="#000000" points="179.0284,-206.8519 182.1275,-196.7205 173.3868,-202.708 179.0284,-206.8519"/>
</g>
<!-- 29 -->
<g id="node14" class="node">
<title>29</title>
<polygon fill="#c1b2ff" stroke="#c1b2ff" points="74.5431,-119.0019 .1519,-119.0019 .1519,-77.7981 74.5431,-77.7981 74.5431,-119.0019"/>
<text text-anchor="middle" x="37.3475" y="-102.6" font-family="Times,serif" font-size="14.00" fill="#000000">leaf node &#160;</text>
<text text-anchor="middle" x="37.3475" y="-85.8" font-family="Times,serif" font-size="14.00" fill="#000000">size = &#160;10 </text>
</g>
<!-- 21&#45;&gt;29 -->
<g id="edge13" class="edge">
<title>21&#45;&gt;29</title>
<path fill="none" stroke="#000000" d="M72.4461,-157.6099C67.1981,-148.7567 60.7753,-137.9217 54.8653,-127.9517"/>
<polygon fill="#000000" stroke="#000000" points="57.7403,-125.938 49.6303,-119.1205 51.7188,-129.5075 57.7403,-125.938"/>
</g>
<!-- 30 -->
<g id="node15" class="node">
<title>30</title>
<polygon fill="#c1b2ff" stroke="#c1b2ff" points="167.5431,-119.0019 93.1519,-119.0019 93.1519,-77.7981 167.5431,-77.7981 167.5431,-119.0019"/>
<text text-anchor="middle" x="130.3475" y="-102.6" font-family="Times,serif" font-size="14.00" fill="#000000">leaf node &#160;</text>
<text text-anchor="middle" x="130.3475" y="-85.8" font-family="Times,serif" font-size="14.00" fill="#000000">size = &#160;21 </text>
</g>
<!-- 21&#45;&gt;30 -->
<g id="edge14" class="edge">
<title>21&#45;&gt;30</title>
<path fill="none" stroke="#000000" d="M94.4858,-157.6099C99.8479,-148.7567 106.4104,-137.9217 112.4489,-127.9517"/>
<polygon fill="#000000" stroke="#000000" points="115.6108,-129.4872 117.7977,-119.1205 109.6234,-125.8608 115.6108,-129.4872"/>
</g>
<!-- 17 -->
<g id="node18" class="node">
<title>17</title>
<polygon fill="#c1b2ff" stroke="#c1b2ff" points="422.5431,-274.2019 348.1519,-274.2019 348.1519,-232.9981 422.5431,-232.9981 422.5431,-274.2019"/>
<text text-anchor="middle" x="385.3475" y="-257.8" font-family="Times,serif" font-size="14.00" fill="#000000">leaf node &#160;</text>
<text text-anchor="middle" x="385.3475" y="-241" font-family="Times,serif" font-size="14.00" fill="#000000">size = &#160;11 </text>
</g>
<!-- 11&#45;&gt;17 -->
<g id="edge17" class="edge">
<title>11&#45;&gt;17</title>
<path fill="none" stroke="#000000" d="M424.2612,-312.8099C418.3834,-303.8664 411.1763,-292.9003 404.569,-282.8468"/>
<polygon fill="#000000" stroke="#000000" points="407.3825,-280.755 398.9654,-274.3205 401.5327,-284.5996 407.3825,-280.755"/>
</g>
<!-- 18 -->
<g id="node19" class="node">
<title>18</title>
<polygon fill="none" stroke="#000000" points="565.9523,-271.6 440.7427,-271.6 440.7427,-235.6 565.9523,-235.6 565.9523,-271.6"/>
<text text-anchor="middle" x="503.3475" y="-249.4" font-family="Times,serif" font-size="14.00" fill="#000000"> prestamo &lt;= 2480 </text>
</g>
<!-- 11&#45;&gt;18 -->
<g id="edge18" class="edge">
<title>11&#45;&gt;18</title>
<path fill="none" stroke="#000000" d="M452.2256,-312.8099C460.8199,-302.8558 471.5774,-290.3964 481.0043,-279.4781"/>
<polygon fill="#000000" stroke="#000000" points="483.6974,-281.7146 487.5834,-271.8581 478.399,-277.1399 483.6974,-281.7146"/>
</g>
<!-- 23 -->
<g id="node20" class="node">
<title>23</title>
<polygon fill="#c1b2ff" stroke="#c1b2ff" points="461.5431,-196.6019 387.1519,-196.6019 387.1519,-155.3981 461.5431,-155.3981 461.5431,-196.6019"/>
<text text-anchor="middle" x="424.3475" y="-180.2" font-family="Times,serif" font-size="14.00" fill="#000000">leaf node &#160;</text>
<text text-anchor="middle" x="424.3475" y="-163.4" font-family="Times,serif" font-size="14.00" fill="#000000">size = &#160;16 </text>
</g>
<!-- 18&#45;&gt;23 -->
<g id="edge19" class="edge">
<title>18&#45;&gt;23</title>
<path fill="none" stroke="#000000" d="M484.6256,-235.2099C475.0609,-225.8147 463.2239,-214.1875 452.5787,-203.7309"/>
<polygon fill="#000000" stroke="#000000" points="455.0285,-201.2312 445.4418,-196.7205 450.1232,-206.225 455.0285,-201.2312"/>
</g>
<!-- 24 -->
<g id="node21" class="node">
<title>24</title>
<polygon fill="#c1b2ff" stroke="#c1b2ff" points="554.5431,-196.6019 480.1519,-196.6019 480.1519,-155.3981 554.5431,-155.3981 554.5431,-196.6019"/>
<text text-anchor="middle" x="517.3475" y="-180.2" font-family="Times,serif" font-size="14.00" fill="#000000">leaf node &#160;</text>
<text text-anchor="middle" x="517.3475" y="-163.4" font-family="Times,serif" font-size="14.00" fill="#000000">size = &#160;18 </text>
</g>
<!-- 18&#45;&gt;24 -->
<g id="edge20" class="edge">
<title>18&#45;&gt;24</title>
<path fill="none" stroke="#000000" d="M506.6653,-235.2099C508.1973,-226.7181 510.0583,-216.4029 511.795,-206.7766"/>
<polygon fill="#000000" stroke="#000000" points="515.2781,-207.1831 513.6093,-196.7205 508.3893,-205.9402 515.2781,-207.1831"/>
</g>
<!-- 13 -->
<g id="node24" class="node">
<title>13</title>
<polygon fill="#c1b2ff" stroke="#c1b2ff" points="717.5431,-351.8019 643.1519,-351.8019 643.1519,-310.5981 717.5431,-310.5981 717.5431,-351.8019"/>
<text text-anchor="middle" x="680.3475" y="-335.4" font-family="Times,serif" font-size="14.00" fill="#000000">leaf node &#160;</text>
<text text-anchor="middle" x="680.3475" y="-318.6" font-family="Times,serif" font-size="14.00" fill="#000000">size = &#160;13 </text>
</g>
<!-- 8&#45;&gt;13 -->
<g id="edge23" class="edge">
<title>8&#45;&gt;13</title>
<path fill="none" stroke="#000000" d="M685.6886,-390.4099C684.9226,-381.9181 683.9921,-371.6029 683.1237,-361.9766"/>
<polygon fill="#000000" stroke="#000000" points="686.601,-361.5656 682.2166,-351.9205 679.6293,-362.1945 686.601,-361.5656"/>
</g>
<!-- 14 -->
<g id="node25" class="node">
<title>14</title>
<polygon fill="none" stroke="#000000" points="839.1842,-349.2 735.5108,-349.2 735.5108,-313.2 839.1842,-313.2 839.1842,-349.2"/>
<text text-anchor="middle" x="787.3475" y="-327" font-family="Times,serif" font-size="14.00" fill="#000000"> low_cost &lt;= 0 </text>
</g>
<!-- 8&#45;&gt;14 -->
<g id="edge24" class="edge">
<title>8&#45;&gt;14</title>
<path fill="none" stroke="#000000" d="M710.7931,-390.6062C724.2086,-380.1958 741.2172,-366.9971 755.7933,-355.6861"/>
<polygon fill="#000000" stroke="#000000" points="758.2942,-358.1756 764.0488,-349.2798 754.0027,-352.6453 758.2942,-358.1756"/>
</g>
<!-- 19 -->
<g id="node26" class="node">
<title>19</title>
<polygon fill="none" stroke="#000000" points="798.2973,-271.6 726.3977,-271.6 726.3977,-235.6 798.2973,-235.6 798.2973,-271.6"/>
<text text-anchor="middle" x="762.3475" y="-249.4" font-family="Times,serif" font-size="14.00" fill="#000000"> gas &lt;= 0 </text>
</g>
<!-- 14&#45;&gt;19 -->
<g id="edge25" class="edge">
<title>14&#45;&gt;19</title>
<path fill="none" stroke="#000000" d="M781.4228,-312.8099C778.4028,-303.4357 774.6669,-291.8395 771.304,-281.401"/>
<polygon fill="#000000" stroke="#000000" points="774.6275,-280.3031 768.2296,-271.8581 767.9648,-282.4496 774.6275,-280.3031"/>
</g>
<!-- 20 -->
<g id="node27" class="node">
<title>20</title>
<polygon fill="none" stroke="#000000" points="922.7772,-271.6 815.9178,-271.6 815.9178,-235.6 922.7772,-235.6 922.7772,-271.6"/>
<text text-anchor="middle" x="869.3475" y="-249.4" font-family="Times,serif" font-size="14.00" fill="#000000"> cta_tanda &lt;= 0 </text>
</g>
<!-- 14&#45;&gt;20 -->
<g id="edge26" class="edge">
<title>14&#45;&gt;20</title>
<path fill="none" stroke="#000000" d="M806.7804,-312.8099C817.503,-302.6626 830.977,-289.9116 842.6723,-278.8438"/>
<polygon fill="#000000" stroke="#000000" points="845.1966,-281.2738 850.0541,-271.8581 840.3851,-276.1895 845.1966,-281.2738"/>
</g>
<!-- 25 -->
<g id="node28" class="node">
<title>25</title>
<polygon fill="none" stroke="#000000" points="710.9523,-194 585.7427,-194 585.7427,-158 710.9523,-158 710.9523,-194"/>
<text text-anchor="middle" x="648.3475" y="-171.8" font-family="Times,serif" font-size="14.00" fill="#000000"> prestamo &lt;= 2010 </text>
</g>
<!-- 19&#45;&gt;25 -->
<g id="edge27" class="edge">
<title>19&#45;&gt;25</title>
<path fill="none" stroke="#000000" d="M735.6196,-235.4062C720.04,-224.8012 700.2098,-211.3028 683.3905,-199.8538"/>
<polygon fill="#000000" stroke="#000000" points="685.1441,-196.8136 674.908,-194.0798 681.2051,-202.6002 685.1441,-196.8136"/>
</g>
<!-- 26 -->
<g id="node29" class="node">
<title>26</title>
<polygon fill="#c1b2ff" stroke="#c1b2ff" points="803.5431,-196.6019 729.1519,-196.6019 729.1519,-155.3981 803.5431,-155.3981 803.5431,-196.6019"/>
<text text-anchor="middle" x="766.3475" y="-180.2" font-family="Times,serif" font-size="14.00" fill="#000000">leaf node &#160;</text>
<text text-anchor="middle" x="766.3475" y="-163.4" font-family="Times,serif" font-size="14.00" fill="#000000">size = &#160;9 </text>
</g>
<!-- 19&#45;&gt;26 -->
<g id="edge28" class="edge">
<title>19&#45;&gt;26</title>
<path fill="none" stroke="#000000" d="M763.2954,-235.2099C763.7332,-226.7181 764.2649,-216.4029 764.7611,-206.7766"/>
<polygon fill="#000000" stroke="#000000" points="768.2599,-206.8874 765.2794,-196.7205 761.2692,-206.527 768.2599,-206.8874"/>
</g>
<!-- 27 -->
<g id="node34" class="node">
<title>27</title>
<polygon fill="#c1b2ff" stroke="#c1b2ff" points="902.5431,-196.6019 828.1519,-196.6019 828.1519,-155.3981 902.5431,-155.3981 902.5431,-196.6019"/>
<text text-anchor="middle" x="865.3475" y="-180.2" font-family="Times,serif" font-size="14.00" fill="#000000">leaf node &#160;</text>
<text text-anchor="middle" x="865.3475" y="-163.4" font-family="Times,serif" font-size="14.00" fill="#000000">size = &#160;38 </text>
</g>
<!-- 20&#45;&gt;27 -->
<g id="edge33" class="edge">
<title>20&#45;&gt;27</title>
<path fill="none" stroke="#000000" d="M868.3996,-235.2099C867.9618,-226.7181 867.4301,-216.4029 866.9339,-206.7766"/>
<polygon fill="#000000" stroke="#000000" points="870.4258,-206.527 866.4156,-196.7205 863.4351,-206.8874 870.4258,-206.527"/>
</g>
<!-- 28 -->
<g id="node35" class="node">
<title>28</title>
<polygon fill="none" stroke="#000000" points="1014.3471,-194 920.3479,-194 920.3479,-158 1014.3471,-158 1014.3471,-194"/>
<text text-anchor="middle" x="967.3475" y="-171.8" font-family="Times,serif" font-size="14.00" fill="#000000"> tentado &lt;= 0 </text>
</g>
<!-- 20&#45;&gt;28 -->
<g id="edge34" class="edge">
<title>20&#45;&gt;28</title>
<path fill="none" stroke="#000000" d="M892.5721,-235.2099C905.6311,-224.8693 922.1047,-211.8249 936.2637,-200.6133"/>
<polygon fill="#000000" stroke="#000000" points="938.6225,-203.2099 944.2896,-194.2581 934.277,-197.7221 938.6225,-203.2099"/>
</g>
<!-- 31 -->
<g id="node30" class="node">
<title>31</title>
<polygon fill="#c1b2ff" stroke="#c1b2ff" points="626.5431,-119.0019 552.1519,-119.0019 552.1519,-77.7981 626.5431,-77.7981 626.5431,-119.0019"/>
<text text-anchor="middle" x="589.3475" y="-102.6" font-family="Times,serif" font-size="14.00" fill="#000000">leaf node &#160;</text>
<text text-anchor="middle" x="589.3475" y="-85.8" font-family="Times,serif" font-size="14.00" fill="#000000">size = &#160;31 </text>
</g>
<!-- 25&#45;&gt;31 -->
<g id="edge29" class="edge">
<title>25&#45;&gt;31</title>
<path fill="none" stroke="#000000" d="M634.3653,-157.6099C627.4968,-148.576 619.0593,-137.4786 611.3527,-127.3424"/>
<polygon fill="#000000" stroke="#000000" points="613.9401,-124.9626 605.1015,-119.1205 608.3678,-129.1993 613.9401,-124.9626"/>
</g>
<!-- 32 -->
<g id="node31" class="node">
<title>32</title>
<polygon fill="none" stroke="#000000" points="769.9523,-116.4 644.7427,-116.4 644.7427,-80.4 769.9523,-80.4 769.9523,-116.4"/>
<text text-anchor="middle" x="707.3475" y="-94.2" font-family="Times,serif" font-size="14.00" fill="#000000"> prestamo &lt;= 4230 </text>
</g>
<!-- 25&#45;&gt;32 -->
<g id="edge30" class="edge">
<title>25&#45;&gt;32</title>
<path fill="none" stroke="#000000" d="M662.3297,-157.6099C669.7509,-147.8491 679.0037,-135.6793 687.1873,-124.9158"/>
<polygon fill="#000000" stroke="#000000" points="690.1994,-126.7369 693.4657,-116.6581 684.6271,-122.5002 690.1994,-126.7369"/>
</g>
<!-- 35 -->
<g id="node32" class="node">
<title>35</title>
<polygon fill="#c1b2ff" stroke="#c1b2ff" points="698.5431,-41.4019 624.1519,-41.4019 624.1519,-.1981 698.5431,-.1981 698.5431,-41.4019"/>
<text text-anchor="middle" x="661.3475" y="-25" font-family="Times,serif" font-size="14.00" fill="#000000">leaf node &#160;</text>
<text text-anchor="middle" x="661.3475" y="-8.2" font-family="Times,serif" font-size="14.00" fill="#000000">size = &#160;11 </text>
</g>
<!-- 32&#45;&gt;35 -->
<g id="edge31" class="edge">
<title>32&#45;&gt;35</title>
<path fill="none" stroke="#000000" d="M696.4461,-80.0099C691.1981,-71.1567 684.7753,-60.3217 678.8653,-50.3517"/>
<polygon fill="#000000" stroke="#000000" points="681.7403,-48.338 673.6303,-41.5205 675.7188,-51.9075 681.7403,-48.338"/>
</g>
<!-- 36 -->
<g id="node33" class="node">
<title>36</title>
<polygon fill="#c1b2ff" stroke="#c1b2ff" points="791.5431,-41.4019 717.1519,-41.4019 717.1519,-.1981 791.5431,-.1981 791.5431,-41.4019"/>
<text text-anchor="middle" x="754.3475" y="-25" font-family="Times,serif" font-size="14.00" fill="#000000">leaf node &#160;</text>
<text text-anchor="middle" x="754.3475" y="-8.2" font-family="Times,serif" font-size="14.00" fill="#000000">size = &#160;9 </text>
</g>
<!-- 32&#45;&gt;36 -->
<g id="edge32" class="edge">
<title>32&#45;&gt;36</title>
<path fill="none" stroke="#000000" d="M718.4858,-80.0099C723.8479,-71.1567 730.4104,-60.3217 736.4489,-50.3517"/>
<polygon fill="#000000" stroke="#000000" points="739.6108,-51.8872 741.7977,-41.5205 733.6234,-48.2608 739.6108,-51.8872"/>
</g>
<!-- 33 -->
<g id="node36" class="node">
<title>33</title>
<polygon fill="#c1b2ff" stroke="#c1b2ff" points="957.5431,-119.0019 883.1519,-119.0019 883.1519,-77.7981 957.5431,-77.7981 957.5431,-119.0019"/>
<text text-anchor="middle" x="920.3475" y="-102.6" font-family="Times,serif" font-size="14.00" fill="#000000">leaf node &#160;</text>
<text text-anchor="middle" x="920.3475" y="-85.8" font-family="Times,serif" font-size="14.00" fill="#000000">size = &#160;10 </text>
</g>
<!-- 28&#45;&gt;33 -->
<g id="edge35" class="edge">
<title>28&#45;&gt;33</title>
<path fill="none" stroke="#000000" d="M956.2092,-157.6099C950.8471,-148.7567 944.2846,-137.9217 938.2461,-127.9517"/>
<polygon fill="#000000" stroke="#000000" points="941.0716,-125.8608 932.8973,-119.1205 935.0842,-129.4872 941.0716,-125.8608"/>
</g>
<!-- 34 -->
<g id="node37" class="node">
<title>34</title>
<polygon fill="#c1b2ff" stroke="#c1b2ff" points="1050.5431,-119.0019 976.1519,-119.0019 976.1519,-77.7981 1050.5431,-77.7981 1050.5431,-119.0019"/>
<text text-anchor="middle" x="1013.3475" y="-102.6" font-family="Times,serif" font-size="14.00" fill="#000000">leaf node &#160;</text>
<text text-anchor="middle" x="1013.3475" y="-85.8" font-family="Times,serif" font-size="14.00" fill="#000000">size = &#160;16 </text>
</g>
<!-- 28&#45;&gt;34 -->
<g id="edge36" class="edge">
<title>28&#45;&gt;34</title>
<path fill="none" stroke="#000000" d="M978.2489,-157.6099C983.4969,-148.7567 989.9197,-137.9217 995.8297,-127.9517"/>
<polygon fill="#000000" stroke="#000000" points="998.9762,-129.5075 1001.0647,-119.1205 992.9547,-125.938 998.9762,-129.5075"/>
</g>
</g>
</svg>
