<?xml version="1.0" encoding="UTF-8" standalone="no"?>
<!DOCTYPE svg PUBLIC "-//W3C//DTD SVG 1.1//EN"
 "http://www.w3.org/Graphics/SVG/1.1/DTD/svg11.dtd">
<!-- Generated by graphviz version 2.40.1 (20161225.0304)
 -->
<!-- Title: nodes Pages: 1 -->
<svg width="1082pt" height="660pt"
 viewBox="0.00 0.00 1082.32 660.00" xmlns="http://www.w3.org/2000/svg" xmlns:xlink="http://www.w3.org/1999/xlink">
<g id="graph0" class="graph" transform="scale(1 1) rotate(0) translate(4 656)">
<title>nodes</title>
<polygon fill="#ffffff" stroke="transparent" points="-4,4 -4,-656 1078.3238,-656 1078.3238,4 -4,4"/>
<!-- 0 -->
<g id="node1" class="node">
<title>0</title>
<polygon fill="none" stroke="#000000" points="711.8778,-652 625.446,-652 625.446,-616 711.8778,-616 711.8778,-652"/>
<text text-anchor="middle" x="668.6619" y="-629.8" font-family="Times,serif" font-size="14.00" fill="#000000"> friday &lt;= 0 </text>
</g>
<!-- 1 -->
<g id="node2" class="node">
<title>1</title>
<polygon fill="none" stroke="#000000" points="654.6573,-580 504.6665,-580 504.6665,-544 654.6573,-544 654.6573,-580"/>
<text text-anchor="middle" x="579.6619" y="-557.8" font-family="Times,serif" font-size="14.00" fill="#000000"> more.high.school &lt;= 0 </text>
</g>
<!-- 0&#45;&gt;1 -->
<g id="edge1" class="edge">
<title>0&#45;&gt;1</title>
<path fill="none" stroke="#000000" d="M646.2034,-615.8314C635.2414,-606.9632 621.892,-596.1637 610.0354,-586.5718"/>
<polygon fill="#000000" stroke="#000000" points="612.089,-583.7313 602.1132,-580.1628 607.6864,-589.1734 612.089,-583.7313"/>
<text text-anchor="middle" x="604.7383" y="-600.8246" font-family="Times,serif" font-size="14.00" fill="#000000">True</text>
</g>
<!-- 2 -->
<g id="node3" class="node">
<title>2</title>
<polygon fill="none" stroke="#000000" points="807.8208,-580 677.503,-580 677.503,-544 807.8208,-544 807.8208,-580"/>
<text text-anchor="middle" x="742.6619" y="-557.8" font-family="Times,serif" font-size="14.00" fill="#000000"> makes.budget &lt;= 0 </text>
</g>
<!-- 0&#45;&gt;2 -->
<g id="edge2" class="edge">
<title>0&#45;&gt;2</title>
<path fill="none" stroke="#000000" d="M687.3352,-615.8314C696.1868,-607.219 706.9105,-596.7851 716.5514,-587.4048"/>
<polygon fill="#000000" stroke="#000000" points="719.268,-589.645 723.9945,-580.1628 714.3865,-584.6279 719.268,-589.645"/>
<text text-anchor="middle" x="723.6521" y="-600.9605" font-family="Times,serif" font-size="14.00" fill="#000000">False</text>
</g>
<!-- 3 -->
<g id="node4" class="node">
<title>3</title>
<polygon fill="none" stroke="#000000" points="410.8722,-496.8 258.4516,-496.8 258.4516,-460.8 410.8722,-460.8 410.8722,-496.8"/>
<text text-anchor="middle" x="334.6619" y="-474.6" font-family="Times,serif" font-size="14.00" fill="#000000"> subj.loan.value &lt;= &#45;0.3 </text>
</g>
<!-- 1&#45;&gt;3 -->
<g id="edge3" class="edge">
<title>1&#45;&gt;3</title>
<path fill="none" stroke="#000000" d="M526.5005,-543.9468C488.5361,-531.0544 437.3233,-513.663 397.3612,-500.0922"/>
<polygon fill="#000000" stroke="#000000" points="398.3139,-496.7194 387.7195,-496.8179 396.0629,-503.3477 398.3139,-496.7194"/>
</g>
<!-- 4 -->
<g id="node5" class="node">
<title>4</title>
<polygon fill="none" stroke="#000000" points="650.1805,-496.8 509.1433,-496.8 509.1433,-460.8 650.1805,-460.8 650.1805,-496.8"/>
<text text-anchor="middle" x="579.6619" y="-474.6" font-family="Times,serif" font-size="14.00" fill="#000000"> sure.confidence &lt;= 0 </text>
</g>
<!-- 1&#45;&gt;4 -->
<g id="edge4" class="edge">
<title>1&#45;&gt;4</title>
<path fill="none" stroke="#000000" d="M579.6619,-543.9468C579.6619,-533.1532 579.6619,-519.2061 579.6619,-506.9876"/>
<polygon fill="#000000" stroke="#000000" points="583.162,-506.8179 579.6619,-496.8179 576.162,-506.818 583.162,-506.8179"/>
</g>
<!-- 5 -->
<g id="node30" class="node">
<title>5</title>
<polygon fill="#c1b2ff" stroke="#c1b2ff" points="792.4862,-508.2014 692.8376,-508.2014 692.8376,-449.3986 792.4862,-449.3986 792.4862,-508.2014"/>
<text text-anchor="middle" x="742.6619" y="-491.4" font-family="Times,serif" font-size="14.00" fill="#000000">size = &#160;18 </text>
<text text-anchor="middle" x="742.6619" y="-474.6" font-family="Times,serif" font-size="14.00" fill="#000000"> avg_Y = 2.33</text>
<text text-anchor="middle" x="742.6619" y="-457.8" font-family="Times,serif" font-size="14.00" fill="#000000">avg_W = 0.56 </text>
</g>
<!-- 2&#45;&gt;5 -->
<g id="edge29" class="edge">
<title>2&#45;&gt;5</title>
<path fill="none" stroke="#000000" d="M742.6619,-543.9468C742.6619,-536.3769 742.6619,-527.256 742.6619,-518.2681"/>
<polygon fill="#000000" stroke="#000000" points="746.162,-518.2667 742.6619,-508.2668 739.162,-518.2668 746.162,-518.2667"/>
</g>
<!-- 6 -->
<g id="node31" class="node">
<title>6</title>
<polygon fill="none" stroke="#000000" points="980.3722,-496.8 820.9516,-496.8 820.9516,-460.8 980.3722,-460.8 980.3722,-496.8"/>
<text text-anchor="middle" x="900.6619" y="-474.6" font-family="Times,serif" font-size="14.00" fill="#000000"> subj.loan.value &lt;= &#45;0.36 </text>
</g>
<!-- 2&#45;&gt;6 -->
<g id="edge30" class="edge">
<title>2&#45;&gt;6</title>
<path fill="none" stroke="#000000" d="M776.9455,-543.9468C800.5488,-531.5178 832.0927,-514.9073 857.4211,-501.5698"/>
<polygon fill="#000000" stroke="#000000" points="859.2277,-504.5742 866.4452,-496.8179 855.9662,-498.3804 859.2277,-504.5742"/>
</g>
<!-- 7 -->
<g id="node6" class="node">
<title>7</title>
<polygon fill="none" stroke="#000000" points="196.3806,-402.4 116.9432,-402.4 116.9432,-366.4 196.3806,-366.4 196.3806,-402.4"/>
<text text-anchor="middle" x="156.6619" y="-380.2" font-family="Times,serif" font-size="14.00" fill="#000000"> age &lt;= 35 </text>
</g>
<!-- 3&#45;&gt;7 -->
<g id="edge5" class="edge">
<title>3&#45;&gt;7</title>
<path fill="none" stroke="#000000" d="M300.3417,-460.5987C271.7769,-445.4498 230.9429,-423.794 200.1024,-407.4381"/>
<polygon fill="#000000" stroke="#000000" points="201.3511,-404.1386 190.8767,-402.5454 198.0714,-410.3228 201.3511,-404.1386"/>
</g>
<!-- 8 -->
<g id="node7" class="node">
<title>8</title>
<polygon fill="none" stroke="#000000" points="412.2113,-402.4 257.1125,-402.4 257.1125,-366.4 412.2113,-366.4 412.2113,-402.4"/>
<text text-anchor="middle" x="334.6619" y="-380.2" font-family="Times,serif" font-size="14.00" fill="#000000"> subj.loan.value &lt;= 0.15 </text>
</g>
<!-- 3&#45;&gt;8 -->
<g id="edge6" class="edge">
<title>3&#45;&gt;8</title>
<path fill="none" stroke="#000000" d="M334.6619,-460.5987C334.6619,-447.0169 334.6619,-428.2048 334.6619,-412.6711"/>
<polygon fill="#000000" stroke="#000000" points="338.162,-412.5454 334.6619,-402.5454 331.162,-412.5454 338.162,-412.5454"/>
</g>
<!-- 9 -->
<g id="node14" class="node">
<title>9</title>
<polygon fill="none" stroke="#000000" points="654.3722,-402.4 494.9516,-402.4 494.9516,-366.4 654.3722,-366.4 654.3722,-402.4"/>
<text text-anchor="middle" x="574.6619" y="-380.2" font-family="Times,serif" font-size="14.00" fill="#000000"> subj.loan.value &lt;= &#45;0.55 </text>
</g>
<!-- 4&#45;&gt;9 -->
<g id="edge13" class="edge">
<title>4&#45;&gt;9</title>
<path fill="none" stroke="#000000" d="M578.6978,-460.5987C577.9785,-447.0169 576.9821,-428.2048 576.1593,-412.6711"/>
<polygon fill="#000000" stroke="#000000" points="579.6471,-412.3462 575.623,-402.5454 572.6569,-412.7165 579.6471,-412.3462"/>
</g>
<!-- 10 -->
<g id="node15" class="node">
<title>10</title>
<polygon fill="none" stroke="#000000" points="832.3722,-402.4 672.9516,-402.4 672.9516,-366.4 832.3722,-366.4 832.3722,-402.4"/>
<text text-anchor="middle" x="752.6619" y="-380.2" font-family="Times,serif" font-size="14.00" fill="#000000"> subj.loan.value &lt;= &#45;0.63 </text>
</g>
<!-- 4&#45;&gt;10 -->
<g id="edge14" class="edge">
<title>4&#45;&gt;10</title>
<path fill="none" stroke="#000000" d="M613.018,-460.5987C640.7804,-445.4498 680.4675,-423.794 710.4416,-407.4381"/>
<polygon fill="#000000" stroke="#000000" points="712.3065,-410.4078 719.4082,-402.5454 708.9535,-404.263 712.3065,-410.4078"/>
</g>
<!-- 13 -->
<g id="node8" class="node">
<title>13</title>
<polygon fill="#c1b2ff" stroke="#c1b2ff" points="99.4862,-319.4014 -.1624,-319.4014 -.1624,-260.5986 99.4862,-260.5986 99.4862,-319.4014"/>
<text text-anchor="middle" x="49.6619" y="-302.6" font-family="Times,serif" font-size="14.00" fill="#000000">size = &#160;6 </text>
<text text-anchor="middle" x="49.6619" y="-285.8" font-family="Times,serif" font-size="14.00" fill="#000000"> avg_Y = 2.81</text>
<text text-anchor="middle" x="49.6619" y="-269" font-family="Times,serif" font-size="14.00" fill="#000000">avg_W = 0.83 </text>
</g>
<!-- 7&#45;&gt;13 -->
<g id="edge7" class="edge">
<title>7&#45;&gt;13</title>
<path fill="none" stroke="#000000" d="M136.0312,-366.1987C123.0885,-354.7801 105.9554,-339.6646 90.3632,-325.9084"/>
<polygon fill="#000000" stroke="#000000" points="92.672,-323.278 82.8577,-319.2868 88.041,-328.5271 92.672,-323.278"/>
</g>
<!-- 14 -->
<g id="node9" class="node">
<title>14</title>
<polygon fill="none" stroke="#000000" points="196.3806,-308 116.9432,-308 116.9432,-272 196.3806,-272 196.3806,-308"/>
<text text-anchor="middle" x="156.6619" y="-285.8" font-family="Times,serif" font-size="14.00" fill="#000000"> age &lt;= 57 </text>
</g>
<!-- 7&#45;&gt;14 -->
<g id="edge8" class="edge">
<title>7&#45;&gt;14</title>
<path fill="none" stroke="#000000" d="M156.6619,-366.1987C156.6619,-352.6169 156.6619,-333.8048 156.6619,-318.2711"/>
<polygon fill="#000000" stroke="#000000" points="160.162,-318.1454 156.6619,-308.1454 153.162,-318.1454 160.162,-318.1454"/>
</g>
<!-- 15 -->
<g id="node12" class="node">
<title>15</title>
<polygon fill="#c1b2ff" stroke="#c1b2ff" points="310.8779,-319.4014 214.4459,-319.4014 214.4459,-260.5986 310.8779,-260.5986 310.8779,-319.4014"/>
<text text-anchor="middle" x="262.6619" y="-302.6" font-family="Times,serif" font-size="14.00" fill="#000000">size = &#160;15 </text>
<text text-anchor="middle" x="262.6619" y="-285.8" font-family="Times,serif" font-size="14.00" fill="#000000"> avg_Y = 1.58</text>
<text text-anchor="middle" x="262.6619" y="-269" font-family="Times,serif" font-size="14.00" fill="#000000">avg_W = 0.2 </text>
</g>
<!-- 8&#45;&gt;15 -->
<g id="edge11" class="edge">
<title>8&#45;&gt;15</title>
<path fill="none" stroke="#000000" d="M320.7796,-366.1987C312.3871,-355.1953 301.3764,-340.759 291.1982,-327.4142"/>
<polygon fill="#000000" stroke="#000000" points="293.8467,-325.1154 284.9993,-319.2868 288.2809,-329.3606 293.8467,-325.1154"/>
</g>
<!-- 16 -->
<g id="node13" class="node">
<title>16</title>
<polygon fill="#c1b2ff" stroke="#c1b2ff" points="424.8779,-319.4014 328.4459,-319.4014 328.4459,-260.5986 424.8779,-260.5986 424.8779,-319.4014"/>
<text text-anchor="middle" x="376.6619" y="-302.6" font-family="Times,serif" font-size="14.00" fill="#000000">size = &#160;12 </text>
<text text-anchor="middle" x="376.6619" y="-285.8" font-family="Times,serif" font-size="14.00" fill="#000000"> avg_Y = 1.52</text>
<text text-anchor="middle" x="376.6619" y="-269" font-family="Times,serif" font-size="14.00" fill="#000000">avg_W = 0.5 </text>
</g>
<!-- 8&#45;&gt;16 -->
<g id="edge12" class="edge">
<title>8&#45;&gt;16</title>
<path fill="none" stroke="#000000" d="M342.7599,-366.1987C347.517,-355.5067 353.7161,-341.5734 359.5105,-328.5498"/>
<polygon fill="#000000" stroke="#000000" points="362.7645,-329.846 363.6318,-319.2868 356.369,-327.0005 362.7645,-329.846"/>
</g>
<!-- 21 -->
<g id="node10" class="node">
<title>21</title>
<polygon fill="#c1b2ff" stroke="#c1b2ff" points="148.4862,-225.0014 48.8376,-225.0014 48.8376,-166.1986 148.4862,-166.1986 148.4862,-225.0014"/>
<text text-anchor="middle" x="98.6619" y="-208.2" font-family="Times,serif" font-size="14.00" fill="#000000">size = &#160;23 </text>
<text text-anchor="middle" x="98.6619" y="-191.4" font-family="Times,serif" font-size="14.00" fill="#000000"> avg_Y = 1.75</text>
<text text-anchor="middle" x="98.6619" y="-174.6" font-family="Times,serif" font-size="14.00" fill="#000000">avg_W = 0.83 </text>
</g>
<!-- 14&#45;&gt;21 -->
<g id="edge9" class="edge">
<title>14&#45;&gt;21</title>
<path fill="none" stroke="#000000" d="M145.4789,-271.7987C138.8459,-261.0029 130.1825,-246.9025 122.1143,-233.7707"/>
<polygon fill="#000000" stroke="#000000" points="124.873,-231.5748 116.6559,-224.8868 118.9087,-235.2393 124.873,-231.5748"/>
</g>
<!-- 22 -->
<g id="node11" class="node">
<title>22</title>
<polygon fill="#c1b2ff" stroke="#c1b2ff" points="265.4862,-225.0014 165.8376,-225.0014 165.8376,-166.1986 265.4862,-166.1986 265.4862,-225.0014"/>
<text text-anchor="middle" x="215.6619" y="-208.2" font-family="Times,serif" font-size="14.00" fill="#000000">size = &#160;17 </text>
<text text-anchor="middle" x="215.6619" y="-191.4" font-family="Times,serif" font-size="14.00" fill="#000000"> avg_Y = 1.23</text>
<text text-anchor="middle" x="215.6619" y="-174.6" font-family="Times,serif" font-size="14.00" fill="#000000">avg_W = 0.59 </text>
</g>
<!-- 14&#45;&gt;22 -->
<g id="edge10" class="edge">
<title>14&#45;&gt;22</title>
<path fill="none" stroke="#000000" d="M168.0377,-271.7987C174.85,-260.8991 183.7675,-246.6311 192.0418,-233.3922"/>
<polygon fill="#000000" stroke="#000000" points="195.0256,-235.2218 197.3577,-224.8868 189.0896,-231.5117 195.0256,-235.2218"/>
</g>
<!-- 17 -->
<g id="node16" class="node">
<title>17</title>
<polygon fill="#c1b2ff" stroke="#c1b2ff" points="538.8779,-319.4014 442.4459,-319.4014 442.4459,-260.5986 538.8779,-260.5986 538.8779,-319.4014"/>
<text text-anchor="middle" x="490.6619" y="-302.6" font-family="Times,serif" font-size="14.00" fill="#000000">size = &#160;10 </text>
<text text-anchor="middle" x="490.6619" y="-285.8" font-family="Times,serif" font-size="14.00" fill="#000000"> avg_Y = 2.36</text>
<text text-anchor="middle" x="490.6619" y="-269" font-family="Times,serif" font-size="14.00" fill="#000000">avg_W = 0.2 </text>
</g>
<!-- 9&#45;&gt;17 -->
<g id="edge15" class="edge">
<title>9&#45;&gt;17</title>
<path fill="none" stroke="#000000" d="M558.4659,-366.1987C548.5823,-355.0915 535.5861,-340.4863 523.6184,-327.0369"/>
<polygon fill="#000000" stroke="#000000" points="525.9845,-324.4307 516.7222,-319.2868 520.755,-329.084 525.9845,-324.4307"/>
</g>
<!-- 18 -->
<g id="node17" class="node">
<title>18</title>
<polygon fill="none" stroke="#000000" points="684.7673,-308 556.5565,-308 556.5565,-272 684.7673,-272 684.7673,-308"/>
<text text-anchor="middle" x="620.6619" y="-285.8" font-family="Times,serif" font-size="14.00" fill="#000000"> income.index &lt;= 0 </text>
</g>
<!-- 9&#45;&gt;18 -->
<g id="edge16" class="edge">
<title>9&#45;&gt;18</title>
<path fill="none" stroke="#000000" d="M583.5312,-366.1987C590.2767,-352.3557 599.6698,-333.0794 607.3206,-317.3787"/>
<polygon fill="#000000" stroke="#000000" points="610.5857,-318.6681 611.8199,-308.1454 604.293,-315.6017 610.5857,-318.6681"/>
</g>
<!-- 19 -->
<g id="node20" class="node">
<title>19</title>
<polygon fill="#c1b2ff" stroke="#c1b2ff" points="802.4862,-319.4014 702.8376,-319.4014 702.8376,-260.5986 802.4862,-260.5986 802.4862,-319.4014"/>
<text text-anchor="middle" x="752.6619" y="-302.6" font-family="Times,serif" font-size="14.00" fill="#000000">size = &#160;17 </text>
<text text-anchor="middle" x="752.6619" y="-285.8" font-family="Times,serif" font-size="14.00" fill="#000000"> avg_Y = 1.57</text>
<text text-anchor="middle" x="752.6619" y="-269" font-family="Times,serif" font-size="14.00" fill="#000000">avg_W = 0.47 </text>
</g>
<!-- 10&#45;&gt;19 -->
<g id="edge19" class="edge">
<title>10&#45;&gt;19</title>
<path fill="none" stroke="#000000" d="M752.6619,-366.1987C752.6619,-355.7143 752.6619,-342.1133 752.6619,-329.3095"/>
<polygon fill="#000000" stroke="#000000" points="756.162,-329.2867 752.6619,-319.2868 749.162,-329.2868 756.162,-329.2867"/>
</g>
<!-- 20 -->
<g id="node21" class="node">
<title>20</title>
<polygon fill="none" stroke="#000000" points="935.1461,-308 820.1777,-308 820.1777,-272 935.1461,-272 935.1461,-308"/>
<text text-anchor="middle" x="877.6619" y="-285.8" font-family="Times,serif" font-size="14.00" fill="#000000"> wednesday &lt;= 0 </text>
</g>
<!-- 10&#45;&gt;20 -->
<g id="edge20" class="edge">
<title>10&#45;&gt;20</title>
<path fill="none" stroke="#000000" d="M776.7632,-366.1987C796.3039,-351.4416 824.0208,-330.5097 845.4618,-314.3175"/>
<polygon fill="#000000" stroke="#000000" points="847.7639,-316.965 853.6346,-308.1454 843.5453,-311.3789 847.7639,-316.965"/>
</g>
<!-- 23 -->
<g id="node18" class="node">
<title>23</title>
<polygon fill="#c1b2ff" stroke="#c1b2ff" points="580.4862,-225.0014 480.8376,-225.0014 480.8376,-166.1986 580.4862,-166.1986 580.4862,-225.0014"/>
<text text-anchor="middle" x="530.6619" y="-208.2" font-family="Times,serif" font-size="14.00" fill="#000000">size = &#160;26 </text>
<text text-anchor="middle" x="530.6619" y="-191.4" font-family="Times,serif" font-size="14.00" fill="#000000"> avg_Y = 2.2</text>
<text text-anchor="middle" x="530.6619" y="-174.6" font-family="Times,serif" font-size="14.00" fill="#000000">avg_W = 0.38 </text>
</g>
<!-- 18&#45;&gt;23 -->
<g id="edge17" class="edge">
<title>18&#45;&gt;23</title>
<path fill="none" stroke="#000000" d="M603.309,-271.7987C592.6205,-260.5877 578.5345,-245.813 565.6132,-232.2601"/>
<polygon fill="#000000" stroke="#000000" points="568.0172,-229.7094 558.5836,-224.8868 562.9508,-234.5397 568.0172,-229.7094"/>
</g>
<!-- 24 -->
<g id="node19" class="node">
<title>24</title>
<polygon fill="#c1b2ff" stroke="#c1b2ff" points="697.4862,-225.0014 597.8376,-225.0014 597.8376,-166.1986 697.4862,-166.1986 697.4862,-225.0014"/>
<text text-anchor="middle" x="647.6619" y="-208.2" font-family="Times,serif" font-size="14.00" fill="#000000">size = &#160;16 </text>
<text text-anchor="middle" x="647.6619" y="-191.4" font-family="Times,serif" font-size="14.00" fill="#000000"> avg_Y = 1.39</text>
<text text-anchor="middle" x="647.6619" y="-174.6" font-family="Times,serif" font-size="14.00" fill="#000000">avg_W = 0.44 </text>
</g>
<!-- 18&#45;&gt;24 -->
<g id="edge18" class="edge">
<title>18&#45;&gt;24</title>
<path fill="none" stroke="#000000" d="M625.8678,-271.7987C628.8962,-261.2105 632.8337,-247.4436 636.5274,-234.5294"/>
<polygon fill="#000000" stroke="#000000" points="639.9005,-235.4637 639.2854,-224.8868 633.1704,-233.5387 639.9005,-235.4637"/>
</g>
<!-- 25 -->
<g id="node22" class="node">
<title>25</title>
<polygon fill="none" stroke="#000000" points="929.3722,-213.6 769.9516,-213.6 769.9516,-177.6 929.3722,-177.6 929.3722,-213.6"/>
<text text-anchor="middle" x="849.6619" y="-191.4" font-family="Times,serif" font-size="14.00" fill="#000000"> subj.loan.value &lt;= &#45;0.09 </text>
</g>
<!-- 20&#45;&gt;25 -->
<g id="edge21" class="edge">
<title>20&#45;&gt;25</title>
<path fill="none" stroke="#000000" d="M872.2632,-271.7987C868.196,-258.0863 862.5474,-239.0426 857.9148,-223.424"/>
<polygon fill="#000000" stroke="#000000" points="861.2432,-222.3373 855.044,-213.7454 854.5322,-224.3279 861.2432,-222.3373"/>
</g>
<!-- 26 -->
<g id="node23" class="node">
<title>26</title>
<polygon fill="#c1b2ff" stroke="#c1b2ff" points="1047.4862,-225.0014 947.8376,-225.0014 947.8376,-166.1986 1047.4862,-166.1986 1047.4862,-225.0014"/>
<text text-anchor="middle" x="997.6619" y="-208.2" font-family="Times,serif" font-size="14.00" fill="#000000">size = &#160;27 </text>
<text text-anchor="middle" x="997.6619" y="-191.4" font-family="Times,serif" font-size="14.00" fill="#000000"> avg_Y = 1.49</text>
<text text-anchor="middle" x="997.6619" y="-174.6" font-family="Times,serif" font-size="14.00" fill="#000000">avg_W = 0.59 </text>
</g>
<!-- 20&#45;&gt;26 -->
<g id="edge22" class="edge">
<title>20&#45;&gt;26</title>
<path fill="none" stroke="#000000" d="M900.7991,-271.7987C915.4463,-260.2763 934.8787,-244.9894 952.4921,-231.1336"/>
<polygon fill="#000000" stroke="#000000" points="954.7374,-233.8205 960.433,-224.8868 950.4094,-228.3188 954.7374,-233.8205"/>
</g>
<!-- 27 -->
<g id="node24" class="node">
<title>27</title>
<polygon fill="none" stroke="#000000" points="830.3806,-130.4 750.9432,-130.4 750.9432,-94.4 830.3806,-94.4 830.3806,-130.4"/>
<text text-anchor="middle" x="790.6619" y="-108.2" font-family="Times,serif" font-size="14.00" fill="#000000"> age &lt;= 32 </text>
</g>
<!-- 25&#45;&gt;27 -->
<g id="edge23" class="edge">
<title>25&#45;&gt;27</title>
<path fill="none" stroke="#000000" d="M836.8598,-177.5468C828.8191,-166.2081 818.3105,-151.3892 809.3478,-138.7502"/>
<polygon fill="#000000" stroke="#000000" points="812.0786,-136.5505 803.439,-130.4179 806.3686,-140.5997 812.0786,-136.5505"/>
</g>
<!-- 28 -->
<g id="node25" class="node">
<title>28</title>
<polygon fill="none" stroke="#000000" points="947.3806,-130.4 867.9432,-130.4 867.9432,-94.4 947.3806,-94.4 947.3806,-130.4"/>
<text text-anchor="middle" x="907.6619" y="-108.2" font-family="Times,serif" font-size="14.00" fill="#000000"> age &lt;= 39 </text>
</g>
<!-- 25&#45;&gt;28 -->
<g id="edge24" class="edge">
<title>25&#45;&gt;28</title>
<path fill="none" stroke="#000000" d="M862.247,-177.5468C870.1515,-166.2081 880.4819,-151.3892 889.2928,-138.7502"/>
<polygon fill="#000000" stroke="#000000" points="892.2538,-140.6229 895.1013,-130.4179 886.5113,-136.6198 892.2538,-140.6229"/>
</g>
<!-- 29 -->
<g id="node26" class="node">
<title>29</title>
<polygon fill="#c1b2ff" stroke="#c1b2ff" points="723.4862,-58.6014 623.8376,-58.6014 623.8376,.2014 723.4862,.2014 723.4862,-58.6014"/>
<text text-anchor="middle" x="673.6619" y="-41.8" font-family="Times,serif" font-size="14.00" fill="#000000">size = &#160;8 </text>
<text text-anchor="middle" x="673.6619" y="-25" font-family="Times,serif" font-size="14.00" fill="#000000"> avg_Y = 0.84</text>
<text text-anchor="middle" x="673.6619" y="-8.2" font-family="Times,serif" font-size="14.00" fill="#000000">avg_W = 0.62 </text>
</g>
<!-- 27&#45;&gt;29 -->
<g id="edge25" class="edge">
<title>27&#45;&gt;29</title>
<path fill="none" stroke="#000000" d="M765.2746,-94.3468C753.027,-85.6374 737.892,-74.8748 723.4767,-64.6238"/>
<polygon fill="#000000" stroke="#000000" points="725.2775,-61.6097 715.0995,-58.6668 721.2208,-67.3144 725.2775,-61.6097"/>
</g>
<!-- 30 -->
<g id="node27" class="node">
<title>30</title>
<polygon fill="#c1b2ff" stroke="#c1b2ff" points="840.4862,-58.6014 740.8376,-58.6014 740.8376,.2014 840.4862,.2014 840.4862,-58.6014"/>
<text text-anchor="middle" x="790.6619" y="-41.8" font-family="Times,serif" font-size="14.00" fill="#000000">size = &#160;29 </text>
<text text-anchor="middle" x="790.6619" y="-25" font-family="Times,serif" font-size="14.00" fill="#000000"> avg_Y = 1.11</text>
<text text-anchor="middle" x="790.6619" y="-8.2" font-family="Times,serif" font-size="14.00" fill="#000000">avg_W = 0.48 </text>
</g>
<!-- 27&#45;&gt;30 -->
<g id="edge26" class="edge">
<title>27&#45;&gt;30</title>
<path fill="none" stroke="#000000" d="M790.6619,-94.3468C790.6619,-86.7769 790.6619,-77.656 790.6619,-68.6681"/>
<polygon fill="#000000" stroke="#000000" points="794.162,-68.6667 790.6619,-58.6668 787.162,-68.6668 794.162,-68.6667"/>
</g>
<!-- 31 -->
<g id="node28" class="node">
<title>31</title>
<polygon fill="#c1b2ff" stroke="#c1b2ff" points="957.4862,-58.6014 857.8376,-58.6014 857.8376,.2014 957.4862,.2014 957.4862,-58.6014"/>
<text text-anchor="middle" x="907.6619" y="-41.8" font-family="Times,serif" font-size="14.00" fill="#000000">size = &#160;22 </text>
<text text-anchor="middle" x="907.6619" y="-25" font-family="Times,serif" font-size="14.00" fill="#000000"> avg_Y = 1.01</text>
<text text-anchor="middle" x="907.6619" y="-8.2" font-family="Times,serif" font-size="14.00" fill="#000000">avg_W = 0.45 </text>
</g>
<!-- 28&#45;&gt;31 -->
<g id="edge27" class="edge">
<title>28&#45;&gt;31</title>
<path fill="none" stroke="#000000" d="M907.6619,-94.3468C907.6619,-86.7769 907.6619,-77.656 907.6619,-68.6681"/>
<polygon fill="#000000" stroke="#000000" points="911.162,-68.6667 907.6619,-58.6668 904.162,-68.6668 911.162,-68.6667"/>
</g>
<!-- 32 -->
<g id="node29" class="node">
<title>32</title>
<polygon fill="#c1b2ff" stroke="#c1b2ff" points="1074.4862,-58.6014 974.8376,-58.6014 974.8376,.2014 1074.4862,.2014 1074.4862,-58.6014"/>
<text text-anchor="middle" x="1024.6619" y="-41.8" font-family="Times,serif" font-size="14.00" fill="#000000">size = &#160;18 </text>
<text text-anchor="middle" x="1024.6619" y="-25" font-family="Times,serif" font-size="14.00" fill="#000000"> avg_Y = 0.68</text>
<text text-anchor="middle" x="1024.6619" y="-8.2" font-family="Times,serif" font-size="14.00" fill="#000000">avg_W = 0.56 </text>
</g>
<!-- 28&#45;&gt;32 -->
<g id="edge28" class="edge">
<title>28&#45;&gt;32</title>
<path fill="none" stroke="#000000" d="M933.0492,-94.3468C945.2968,-85.6374 960.4318,-74.8748 974.8471,-64.6238"/>
<polygon fill="#000000" stroke="#000000" points="977.103,-67.3144 983.2243,-58.6668 973.0463,-61.6097 977.103,-67.3144"/>
</g>
<!-- 11 -->
<g id="node32" class="node">
<title>11</title>
<polygon fill="#c1b2ff" stroke="#c1b2ff" points="950.4862,-413.8014 850.8376,-413.8014 850.8376,-354.9986 950.4862,-354.9986 950.4862,-413.8014"/>
<text text-anchor="middle" x="900.6619" y="-397" font-family="Times,serif" font-size="14.00" fill="#000000">size = &#160;26 </text>
<text text-anchor="middle" x="900.6619" y="-380.2" font-family="Times,serif" font-size="14.00" fill="#000000"> avg_Y = 1.56</text>
<text text-anchor="middle" x="900.6619" y="-363.4" font-family="Times,serif" font-size="14.00" fill="#000000">avg_W = 0.54 </text>
</g>
<!-- 6&#45;&gt;11 -->
<g id="edge31" class="edge">
<title>6&#45;&gt;11</title>
<path fill="none" stroke="#000000" d="M900.6619,-460.5987C900.6619,-450.1143 900.6619,-436.5133 900.6619,-423.7095"/>
<polygon fill="#000000" stroke="#000000" points="904.162,-423.6867 900.6619,-413.6868 897.162,-423.6868 904.162,-423.6867"/>
</g>
<!-- 12 -->
<g id="node33" class="node">
<title>12</title>
<polygon fill="#c1b2ff" stroke="#c1b2ff" points="1067.4862,-413.8014 967.8376,-413.8014 967.8376,-354.9986 1067.4862,-354.9986 1067.4862,-413.8014"/>
<text text-anchor="middle" x="1017.6619" y="-397" font-family="Times,serif" font-size="14.00" fill="#000000">size = &#160;21 </text>
<text text-anchor="middle" x="1017.6619" y="-380.2" font-family="Times,serif" font-size="14.00" fill="#000000"> avg_Y = 1.23</text>
<text text-anchor="middle" x="1017.6619" y="-363.4" font-family="Times,serif" font-size="14.00" fill="#000000">avg_W = 0.52 </text>
</g>
<!-- 6&#45;&gt;12 -->
<g id="edge32" class="edge">
<title>6&#45;&gt;12</title>
<path fill="none" stroke="#000000" d="M923.2207,-460.5987C937.373,-449.1801 956.1073,-434.0646 973.1568,-420.3084"/>
<polygon fill="#000000" stroke="#000000" points="975.7788,-422.6901 981.3637,-413.6868 971.3832,-417.2422 975.7788,-422.6901"/>
</g>
</g>
</svg>
