<?xml version="1.0" encoding="UTF-8" standalone="no"?>
<!DOCTYPE svg PUBLIC "-//W3C//DTD SVG 1.1//EN"
 "http://www.w3.org/Graphics/SVG/1.1/DTD/svg11.dtd">
<!-- Generated by graphviz version 2.40.1 (20161225.0304)
 -->
<!-- Title: nodes Pages: 1 -->
<svg width="1189pt" height="886pt"
 viewBox="0.00 0.00 1188.70 886.40" xmlns="http://www.w3.org/2000/svg" xmlns:xlink="http://www.w3.org/1999/xlink">
<g id="graph0" class="graph" transform="scale(1 1) rotate(0) translate(4 882.4)">
<title>nodes</title>
<polygon fill="#ffffff" stroke="transparent" points="-4,4 -4,-882.4 1184.695,-882.4 1184.695,4 -4,4"/>
<!-- 0 -->
<g id="node1" class="node">
<title>0</title>
<polygon fill="none" stroke="#000000" points="1033.5662,-878.4 947.1288,-878.4 947.1288,-842.4 1033.5662,-842.4 1033.5662,-878.4"/>
<text text-anchor="middle" x="990.3475" y="-856.2" font-family="Times,serif" font-size="14.00" fill="#000000"> edad &lt;= 56 </text>
</g>
<!-- 1 -->
<g id="node2" class="node">
<title>1</title>
<polygon fill="none" stroke="#000000" points="981.9523,-806.4 856.7427,-806.4 856.7427,-770.4 981.9523,-770.4 981.9523,-806.4"/>
<text text-anchor="middle" x="919.3475" y="-784.2" font-family="Times,serif" font-size="14.00" fill="#000000"> prestamo &lt;= 4840 </text>
</g>
<!-- 0&#45;&gt;1 -->
<g id="edge1" class="edge">
<title>0&#45;&gt;1</title>
<path fill="none" stroke="#000000" d="M972.4312,-842.2314C964.0033,-833.6848 953.8065,-823.3443 944.6115,-814.0198"/>
<polygon fill="#000000" stroke="#000000" points="947.0186,-811.4761 937.505,-806.8133 942.0344,-816.3912 947.0186,-811.4761"/>
<text text-anchor="middle" x="937.3302" y="-827.6127" font-family="Times,serif" font-size="14.00" fill="#000000">True</text>
</g>
<!-- 2 -->
<g id="node3" class="node">
<title>2</title>
<polygon fill="none" stroke="#000000" points="1124.9523,-806.4 999.7427,-806.4 999.7427,-770.4 1124.9523,-770.4 1124.9523,-806.4"/>
<text text-anchor="middle" x="1062.3475" y="-784.2" font-family="Times,serif" font-size="14.00" fill="#000000"> prestamo &lt;= 2330 </text>
</g>
<!-- 0&#45;&gt;2 -->
<g id="edge2" class="edge">
<title>0&#45;&gt;2</title>
<path fill="none" stroke="#000000" d="M1008.5161,-842.2314C1017.0627,-833.6848 1027.4032,-823.3443 1036.7277,-814.0198"/>
<polygon fill="#000000" stroke="#000000" points="1039.338,-816.3592 1043.9342,-806.8133 1034.3883,-811.4095 1039.338,-816.3592"/>
<text text-anchor="middle" x="1043.9342" y="-827.6133" font-family="Times,serif" font-size="14.00" fill="#000000">False</text>
</g>
<!-- 3 -->
<g id="node4" class="node">
<title>3</title>
<polygon fill="none" stroke="#000000" points="876.5193,-731.6 750.1757,-731.6 750.1757,-695.6 876.5193,-695.6 876.5193,-731.6"/>
<text text-anchor="middle" x="813.3475" y="-709.4" font-family="Times,serif" font-size="14.00" fill="#000000"> visit_number &lt;= 1 </text>
</g>
<!-- 1&#45;&gt;3 -->
<g id="edge3" class="edge">
<title>1&#45;&gt;3</title>
<path fill="none" stroke="#000000" d="M893.6879,-770.293C879.8587,-760.5343 862.6097,-748.3624 847.6433,-737.8012"/>
<polygon fill="#000000" stroke="#000000" points="849.3268,-734.7055 839.1382,-731.7995 845.2908,-740.4249 849.3268,-734.7055"/>
</g>
<!-- 4 -->
<g id="node5" class="node">
<title>4</title>
<polygon fill="#c1b2ff" stroke="#c1b2ff" points="969.5431,-734.2019 895.1519,-734.2019 895.1519,-692.9981 969.5431,-692.9981 969.5431,-734.2019"/>
<text text-anchor="middle" x="932.3475" y="-717.8" font-family="Times,serif" font-size="14.00" fill="#000000">leaf node &#160;</text>
<text text-anchor="middle" x="932.3475" y="-701" font-family="Times,serif" font-size="14.00" fill="#000000">size = &#160;22 </text>
</g>
<!-- 1&#45;&gt;4 -->
<g id="edge4" class="edge">
<title>1&#45;&gt;4</title>
<path fill="none" stroke="#000000" d="M922.4944,-770.293C923.8447,-762.5239 925.4608,-753.2252 926.9898,-744.4275"/>
<polygon fill="#000000" stroke="#000000" points="930.4595,-744.9031 928.7236,-734.4515 923.5629,-743.7045 930.4595,-744.9031"/>
</g>
<!-- 5 -->
<g id="node40" class="node">
<title>5</title>
<polygon fill="#c1b2ff" stroke="#c1b2ff" points="1087.5431,-734.2019 1013.1519,-734.2019 1013.1519,-692.9981 1087.5431,-692.9981 1087.5431,-734.2019"/>
<text text-anchor="middle" x="1050.3475" y="-717.8" font-family="Times,serif" font-size="14.00" fill="#000000">leaf node &#160;</text>
<text text-anchor="middle" x="1050.3475" y="-701" font-family="Times,serif" font-size="14.00" fill="#000000">size = &#160;25 </text>
</g>
<!-- 2&#45;&gt;5 -->
<g id="edge39" class="edge">
<title>2&#45;&gt;5</title>
<path fill="none" stroke="#000000" d="M1059.4426,-770.293C1058.1963,-762.5239 1056.7045,-753.2252 1055.2931,-744.4275"/>
<polygon fill="#000000" stroke="#000000" points="1058.7326,-743.7708 1053.6927,-734.4515 1051.821,-744.8797 1058.7326,-743.7708"/>
</g>
<!-- 6 -->
<g id="node41" class="node">
<title>6</title>
<polygon fill="#c1b2ff" stroke="#c1b2ff" points="1180.5431,-734.2019 1106.1519,-734.2019 1106.1519,-692.9981 1180.5431,-692.9981 1180.5431,-734.2019"/>
<text text-anchor="middle" x="1143.3475" y="-717.8" font-family="Times,serif" font-size="14.00" fill="#000000">leaf node &#160;</text>
<text text-anchor="middle" x="1143.3475" y="-701" font-family="Times,serif" font-size="14.00" fill="#000000">size = &#160;21 </text>
</g>
<!-- 2&#45;&gt;6 -->
<g id="edge40" class="edge">
<title>2&#45;&gt;6</title>
<path fill="none" stroke="#000000" d="M1081.9553,-770.293C1091.3743,-761.595 1102.8694,-750.9797 1113.355,-741.2967"/>
<polygon fill="#000000" stroke="#000000" points="1115.7955,-743.8072 1120.7677,-734.4515 1111.0465,-738.6645 1115.7955,-743.8072"/>
</g>
<!-- 7 -->
<g id="node6" class="node">
<title>7</title>
<polygon fill="none" stroke="#000000" points="782.9523,-656.8 657.7427,-656.8 657.7427,-620.8 782.9523,-620.8 782.9523,-656.8"/>
<text text-anchor="middle" x="720.3475" y="-634.6" font-family="Times,serif" font-size="14.00" fill="#000000"> prestamo &lt;= 2680 </text>
</g>
<!-- 3&#45;&gt;7 -->
<g id="edge5" class="edge">
<title>3&#45;&gt;7</title>
<path fill="none" stroke="#000000" d="M790.8348,-695.493C778.8151,-685.8255 763.8507,-673.7897 750.8059,-663.2977"/>
<polygon fill="#000000" stroke="#000000" points="752.9611,-660.5396 742.9752,-656.9995 748.574,-665.9942 752.9611,-660.5396"/>
</g>
<!-- 8 -->
<g id="node7" class="node">
<title>8</title>
<polygon fill="none" stroke="#000000" points="947.9523,-656.8 822.7427,-656.8 822.7427,-620.8 947.9523,-620.8 947.9523,-656.8"/>
<text text-anchor="middle" x="885.3475" y="-634.6" font-family="Times,serif" font-size="14.00" fill="#000000"> prestamo &lt;= 1500 </text>
</g>
<!-- 3&#45;&gt;8 -->
<g id="edge6" class="edge">
<title>3&#45;&gt;8</title>
<path fill="none" stroke="#000000" d="M830.7767,-695.493C839.7311,-686.1903 850.7965,-674.6947 860.6173,-664.4919"/>
<polygon fill="#000000" stroke="#000000" points="863.4159,-666.6314 867.8293,-656.9995 858.3727,-661.7769 863.4159,-666.6314"/>
</g>
<!-- 9 -->
<g id="node8" class="node">
<title>9</title>
<polygon fill="none" stroke="#000000" points="631.4531,-582 531.2419,-582 531.2419,-546 631.4531,-546 631.4531,-582"/>
<text text-anchor="middle" x="581.3475" y="-559.8" font-family="Times,serif" font-size="14.00" fill="#000000"> faltas &lt;= 0.14 </text>
</g>
<!-- 7&#45;&gt;9 -->
<g id="edge7" class="edge">
<title>7&#45;&gt;9</title>
<path fill="none" stroke="#000000" d="M686.6995,-620.693C667.8871,-610.5695 644.2486,-597.8489 624.1322,-587.0237"/>
<polygon fill="#000000" stroke="#000000" points="625.6319,-583.8562 615.1674,-582.1995 622.3148,-590.0204 625.6319,-583.8562"/>
</g>
<!-- 10 -->
<g id="node9" class="node">
<title>10</title>
<polygon fill="none" stroke="#000000" points="763.5662,-582 677.1288,-582 677.1288,-546 763.5662,-546 763.5662,-582"/>
<text text-anchor="middle" x="720.3475" y="-559.8" font-family="Times,serif" font-size="14.00" fill="#000000"> edad &lt;= 44 </text>
</g>
<!-- 7&#45;&gt;10 -->
<g id="edge8" class="edge">
<title>7&#45;&gt;10</title>
<path fill="none" stroke="#000000" d="M720.3475,-620.693C720.3475,-612.2112 720.3475,-601.9062 720.3475,-592.4204"/>
<polygon fill="#000000" stroke="#000000" points="723.8476,-592.1995 720.3475,-582.1995 716.8476,-592.1995 723.8476,-592.1995"/>
</g>
<!-- 11 -->
<g id="node36" class="node">
<title>11</title>
<polygon fill="none" stroke="#000000" points="928.5662,-582 842.1288,-582 842.1288,-546 928.5662,-546 928.5662,-582"/>
<text text-anchor="middle" x="885.3475" y="-559.8" font-family="Times,serif" font-size="14.00" fill="#000000"> edad &lt;= 46 </text>
</g>
<!-- 8&#45;&gt;11 -->
<g id="edge35" class="edge">
<title>8&#45;&gt;11</title>
<path fill="none" stroke="#000000" d="M885.3475,-620.693C885.3475,-612.2112 885.3475,-601.9062 885.3475,-592.4204"/>
<polygon fill="#000000" stroke="#000000" points="888.8476,-592.1995 885.3475,-582.1995 881.8476,-592.1995 888.8476,-592.1995"/>
</g>
<!-- 12 -->
<g id="node37" class="node">
<title>12</title>
<polygon fill="#c1b2ff" stroke="#c1b2ff" points="1020.5431,-584.6019 946.1519,-584.6019 946.1519,-543.3981 1020.5431,-543.3981 1020.5431,-584.6019"/>
<text text-anchor="middle" x="983.3475" y="-568.2" font-family="Times,serif" font-size="14.00" fill="#000000">leaf node &#160;</text>
<text text-anchor="middle" x="983.3475" y="-551.4" font-family="Times,serif" font-size="14.00" fill="#000000">size = &#160;10 </text>
</g>
<!-- 8&#45;&gt;12 -->
<g id="edge36" class="edge">
<title>8&#45;&gt;12</title>
<path fill="none" stroke="#000000" d="M909.0706,-620.693C920.6877,-611.8261 934.9151,-600.9668 947.7979,-591.1338"/>
<polygon fill="#000000" stroke="#000000" points="950.2031,-593.701 956.0287,-584.8515 945.956,-588.1366 950.2031,-593.701"/>
</g>
<!-- 13 -->
<g id="node10" class="node">
<title>13</title>
<polygon fill="none" stroke="#000000" points="500.9523,-504.4 375.7427,-504.4 375.7427,-468.4 500.9523,-468.4 500.9523,-504.4"/>
<text text-anchor="middle" x="438.3475" y="-482.2" font-family="Times,serif" font-size="14.00" fill="#000000"> prestamo &lt;= 2380 </text>
</g>
<!-- 9&#45;&gt;13 -->
<g id="edge9" class="edge">
<title>9&#45;&gt;13</title>
<path fill="none" stroke="#000000" d="M547.8204,-545.8062C527.7396,-534.9093 502.0296,-520.9575 480.5717,-509.3133"/>
<polygon fill="#000000" stroke="#000000" points="482.1232,-506.1731 471.6646,-504.4798 478.7845,-512.3256 482.1232,-506.1731"/>
</g>
<!-- 14 -->
<g id="node11" class="node">
<title>14</title>
<polygon fill="none" stroke="#000000" points="643.9523,-504.4 518.7427,-504.4 518.7427,-468.4 643.9523,-468.4 643.9523,-504.4"/>
<text text-anchor="middle" x="581.3475" y="-482.2" font-family="Times,serif" font-size="14.00" fill="#000000"> prestamo &lt;= 1170 </text>
</g>
<!-- 9&#45;&gt;14 -->
<g id="edge10" class="edge">
<title>9&#45;&gt;14</title>
<path fill="none" stroke="#000000" d="M581.3475,-545.6099C581.3475,-536.429 581.3475,-525.1167 581.3475,-514.8482"/>
<polygon fill="#000000" stroke="#000000" points="584.8476,-514.6581 581.3475,-504.6581 577.8476,-514.6581 584.8476,-514.6581"/>
</g>
<!-- 15 -->
<g id="node34" class="node">
<title>15</title>
<polygon fill="#c1b2ff" stroke="#c1b2ff" points="736.5431,-507.0019 662.1519,-507.0019 662.1519,-465.7981 736.5431,-465.7981 736.5431,-507.0019"/>
<text text-anchor="middle" x="699.3475" y="-490.6" font-family="Times,serif" font-size="14.00" fill="#000000">leaf node &#160;</text>
<text text-anchor="middle" x="699.3475" y="-473.8" font-family="Times,serif" font-size="14.00" fill="#000000">size = &#160;31 </text>
</g>
<!-- 10&#45;&gt;15 -->
<g id="edge33" class="edge">
<title>10&#45;&gt;15</title>
<path fill="none" stroke="#000000" d="M715.3708,-545.6099C713.0483,-537.0277 710.2218,-526.5832 707.5932,-516.8697"/>
<polygon fill="#000000" stroke="#000000" points="710.9456,-515.859 704.9549,-507.1205 704.1887,-517.6876 710.9456,-515.859"/>
</g>
<!-- 16 -->
<g id="node35" class="node">
<title>16</title>
<polygon fill="#c1b2ff" stroke="#c1b2ff" points="829.5431,-507.0019 755.1519,-507.0019 755.1519,-465.7981 829.5431,-465.7981 829.5431,-507.0019"/>
<text text-anchor="middle" x="792.3475" y="-490.6" font-family="Times,serif" font-size="14.00" fill="#000000">leaf node &#160;</text>
<text text-anchor="middle" x="792.3475" y="-473.8" font-family="Times,serif" font-size="14.00" fill="#000000">size = &#160;13 </text>
</g>
<!-- 10&#45;&gt;16 -->
<g id="edge34" class="edge">
<title>10&#45;&gt;16</title>
<path fill="none" stroke="#000000" d="M737.4105,-545.6099C745.9601,-536.3954 756.5016,-525.0339 766.0569,-514.7354"/>
<polygon fill="#000000" stroke="#000000" points="768.8864,-516.8317 773.1223,-507.1205 763.7549,-512.0706 768.8864,-516.8317"/>
</g>
<!-- 19 -->
<g id="node12" class="node">
<title>19</title>
<polygon fill="none" stroke="#000000" points="396.7772,-426.8 289.9178,-426.8 289.9178,-390.8 396.7772,-390.8 396.7772,-426.8"/>
<text text-anchor="middle" x="343.3475" y="-404.6" font-family="Times,serif" font-size="14.00" fill="#000000"> cta_tanda &lt;= 0 </text>
</g>
<!-- 13&#45;&gt;19 -->
<g id="edge11" class="edge">
<title>13&#45;&gt;19</title>
<path fill="none" stroke="#000000" d="M415.8338,-468.0099C403.1746,-457.6693 387.2053,-444.6249 373.4797,-433.4133"/>
<polygon fill="#000000" stroke="#000000" points="375.6584,-430.6737 365.6996,-427.0581 371.2301,-436.0949 375.6584,-430.6737"/>
</g>
<!-- 20 -->
<g id="node13" class="node">
<title>20</title>
<polygon fill="#c1b2ff" stroke="#c1b2ff" points="489.5431,-429.4019 415.1519,-429.4019 415.1519,-388.1981 489.5431,-388.1981 489.5431,-429.4019"/>
<text text-anchor="middle" x="452.3475" y="-413" font-family="Times,serif" font-size="14.00" fill="#000000">leaf node &#160;</text>
<text text-anchor="middle" x="452.3475" y="-396.2" font-family="Times,serif" font-size="14.00" fill="#000000">size = &#160;5 </text>
</g>
<!-- 13&#45;&gt;20 -->
<g id="edge12" class="edge">
<title>13&#45;&gt;20</title>
<path fill="none" stroke="#000000" d="M441.6653,-468.0099C443.1973,-459.5181 445.0583,-449.2029 446.795,-439.5766"/>
<polygon fill="#000000" stroke="#000000" points="450.2781,-439.9831 448.6093,-429.5205 443.3893,-438.7402 450.2781,-439.9831"/>
</g>
<!-- 21 -->
<g id="node28" class="node">
<title>21</title>
<polygon fill="none" stroke="#000000" points="603.242,-426.8 533.453,-426.8 533.453,-390.8 603.242,-390.8 603.242,-426.8"/>
<text text-anchor="middle" x="568.3475" y="-404.6" font-family="Times,serif" font-size="14.00" fill="#000000"> luz &lt;= 0 </text>
</g>
<!-- 14&#45;&gt;21 -->
<g id="edge27" class="edge">
<title>14&#45;&gt;21</title>
<path fill="none" stroke="#000000" d="M578.2667,-468.0099C576.7125,-458.7323 574.7936,-447.2783 573.059,-436.9242"/>
<polygon fill="#000000" stroke="#000000" points="576.5104,-436.3424 571.4062,-427.0581 569.6066,-437.499 576.5104,-436.3424"/>
</g>
<!-- 22 -->
<g id="node29" class="node">
<title>22</title>
<polygon fill="none" stroke="#000000" points="773.6504,-426.8 621.0446,-426.8 621.0446,-390.8 773.6504,-390.8 773.6504,-426.8"/>
<text text-anchor="middle" x="697.3475" y="-404.6" font-family="Times,serif" font-size="14.00" fill="#000000"> hace_presupuesto &lt;= 0 </text>
</g>
<!-- 14&#45;&gt;22 -->
<g id="edge28" class="edge">
<title>14&#45;&gt;22</title>
<path fill="none" stroke="#000000" d="M608.5443,-468.2062C624.3973,-457.6012 644.5753,-444.1028 661.6897,-432.6538"/>
<polygon fill="#000000" stroke="#000000" points="663.9555,-435.3491 670.321,-426.8798 660.0633,-429.5309 663.9555,-435.3491"/>
</g>
<!-- 23 -->
<g id="node14" class="node">
<title>23</title>
<polygon fill="none" stroke="#000000" points="269.7266,-349.2 178.9684,-349.2 178.9684,-313.2 269.7266,-313.2 269.7266,-349.2"/>
<text text-anchor="middle" x="224.3475" y="-327" font-family="Times,serif" font-size="14.00" fill="#000000"> genero &lt;= 0 </text>
</g>
<!-- 19&#45;&gt;23 -->
<g id="edge13" class="edge">
<title>19&#45;&gt;23</title>
<path fill="none" stroke="#000000" d="M315.4473,-390.6062C299.1844,-380.0012 278.4845,-366.5028 260.9275,-355.0538"/>
<polygon fill="#000000" stroke="#000000" points="262.3611,-351.8103 252.0729,-349.2798 258.5375,-357.6738 262.3611,-351.8103"/>
</g>
<!-- 24 -->
<g id="node15" class="node">
<title>24</title>
<polygon fill="none" stroke="#000000" points="412.9523,-349.2 287.7427,-349.2 287.7427,-313.2 412.9523,-313.2 412.9523,-349.2"/>
<text text-anchor="middle" x="350.3475" y="-327" font-family="Times,serif" font-size="14.00" fill="#000000"> prestamo &lt;= 1020 </text>
</g>
<!-- 19&#45;&gt;24 -->
<g id="edge14" class="edge">
<title>19&#45;&gt;24</title>
<path fill="none" stroke="#000000" d="M345.0064,-390.4099C345.8346,-381.229 346.855,-369.9167 347.7813,-359.6482"/>
<polygon fill="#000000" stroke="#000000" points="351.2878,-359.7321 348.7005,-349.4581 344.3162,-359.1032 351.2878,-359.7321"/>
</g>
<!-- 29 -->
<g id="node16" class="node">
<title>29</title>
<polygon fill="none" stroke="#000000" points="170.5662,-271.6 84.1288,-271.6 84.1288,-235.6 170.5662,-235.6 170.5662,-271.6"/>
<text text-anchor="middle" x="127.3475" y="-249.4" font-family="Times,serif" font-size="14.00" fill="#000000"> edad &lt;= 35 </text>
</g>
<!-- 23&#45;&gt;29 -->
<g id="edge15" class="edge">
<title>23&#45;&gt;29</title>
<path fill="none" stroke="#000000" d="M201.3599,-312.8099C188.4341,-302.4693 172.1286,-289.4249 158.1141,-278.2133"/>
<polygon fill="#000000" stroke="#000000" points="160.1653,-275.3721 150.1701,-271.8581 155.7924,-280.8381 160.1653,-275.3721"/>
</g>
<!-- 30 -->
<g id="node17" class="node">
<title>30</title>
<polygon fill="none" stroke="#000000" points="274.5662,-271.6 188.1288,-271.6 188.1288,-235.6 274.5662,-235.6 274.5662,-271.6"/>
<text text-anchor="middle" x="231.3475" y="-249.4" font-family="Times,serif" font-size="14.00" fill="#000000"> edad &lt;= 30 </text>
</g>
<!-- 23&#45;&gt;30 -->
<g id="edge16" class="edge">
<title>23&#45;&gt;30</title>
<path fill="none" stroke="#000000" d="M226.0064,-312.8099C226.8346,-303.629 227.855,-292.3167 228.7813,-282.0482"/>
<polygon fill="#000000" stroke="#000000" points="232.2878,-282.1321 229.7005,-271.8581 225.3162,-281.5032 232.2878,-282.1321"/>
</g>
<!-- 31 -->
<g id="node26" class="node">
<title>31</title>
<polygon fill="#c1b2ff" stroke="#c1b2ff" points="380.5431,-274.2019 306.1519,-274.2019 306.1519,-232.9981 380.5431,-232.9981 380.5431,-274.2019"/>
<text text-anchor="middle" x="343.3475" y="-257.8" font-family="Times,serif" font-size="14.00" fill="#000000">leaf node &#160;</text>
<text text-anchor="middle" x="343.3475" y="-241" font-family="Times,serif" font-size="14.00" fill="#000000">size = &#160;31 </text>
</g>
<!-- 24&#45;&gt;31 -->
<g id="edge25" class="edge">
<title>24&#45;&gt;31</title>
<path fill="none" stroke="#000000" d="M348.6886,-312.8099C347.9226,-304.3181 346.9921,-294.0029 346.1237,-284.3766"/>
<polygon fill="#000000" stroke="#000000" points="349.601,-283.9656 345.2166,-274.3205 342.6293,-284.5945 349.601,-283.9656"/>
</g>
<!-- 32 -->
<g id="node27" class="node">
<title>32</title>
<polygon fill="#c1b2ff" stroke="#c1b2ff" points="473.5431,-274.2019 399.1519,-274.2019 399.1519,-232.9981 473.5431,-232.9981 473.5431,-274.2019"/>
<text text-anchor="middle" x="436.3475" y="-257.8" font-family="Times,serif" font-size="14.00" fill="#000000">leaf node &#160;</text>
<text text-anchor="middle" x="436.3475" y="-241" font-family="Times,serif" font-size="14.00" fill="#000000">size = &#160;25 </text>
</g>
<!-- 24&#45;&gt;32 -->
<g id="edge26" class="edge">
<title>24&#45;&gt;32</title>
<path fill="none" stroke="#000000" d="M370.7283,-312.8099C381.2406,-303.3243 394.2743,-291.5637 405.9488,-281.0296"/>
<polygon fill="#000000" stroke="#000000" points="408.3044,-283.6182 413.3841,-274.3205 403.615,-278.4212 408.3044,-283.6182"/>
</g>
<!-- 33 -->
<g id="node18" class="node">
<title>33</title>
<polygon fill="#c1b2ff" stroke="#c1b2ff" points="74.5431,-196.6019 .1519,-196.6019 .1519,-155.3981 74.5431,-155.3981 74.5431,-196.6019"/>
<text text-anchor="middle" x="37.3475" y="-180.2" font-family="Times,serif" font-size="14.00" fill="#000000">leaf node &#160;</text>
<text text-anchor="middle" x="37.3475" y="-163.4" font-family="Times,serif" font-size="14.00" fill="#000000">size = &#160;11 </text>
</g>
<!-- 29&#45;&gt;33 -->
<g id="edge17" class="edge">
<title>29&#45;&gt;33</title>
<path fill="none" stroke="#000000" d="M106.0188,-235.2099C95.0175,-225.7243 81.3775,-213.9637 69.1601,-203.4296"/>
<polygon fill="#000000" stroke="#000000" points="71.2381,-200.5999 61.379,-196.7205 66.667,-205.9013 71.2381,-200.5999"/>
</g>
<!-- 34 -->
<g id="node19" class="node">
<title>34</title>
<polygon fill="#c1b2ff" stroke="#c1b2ff" points="167.5431,-196.6019 93.1519,-196.6019 93.1519,-155.3981 167.5431,-155.3981 167.5431,-196.6019"/>
<text text-anchor="middle" x="130.3475" y="-180.2" font-family="Times,serif" font-size="14.00" fill="#000000">leaf node &#160;</text>
<text text-anchor="middle" x="130.3475" y="-163.4" font-family="Times,serif" font-size="14.00" fill="#000000">size = &#160;12 </text>
</g>
<!-- 29&#45;&gt;34 -->
<g id="edge18" class="edge">
<title>29&#45;&gt;34</title>
<path fill="none" stroke="#000000" d="M128.0585,-235.2099C128.3867,-226.7181 128.7855,-216.4029 129.1577,-206.7766"/>
<polygon fill="#000000" stroke="#000000" points="132.6574,-206.8483 129.5464,-196.7205 125.6627,-206.5778 132.6574,-206.8483"/>
</g>
<!-- 35 -->
<g id="node20" class="node">
<title>35</title>
<polygon fill="#c1b2ff" stroke="#c1b2ff" points="265.5431,-196.6019 191.1519,-196.6019 191.1519,-155.3981 265.5431,-155.3981 265.5431,-196.6019"/>
<text text-anchor="middle" x="228.3475" y="-180.2" font-family="Times,serif" font-size="14.00" fill="#000000">leaf node &#160;</text>
<text text-anchor="middle" x="228.3475" y="-163.4" font-family="Times,serif" font-size="14.00" fill="#000000">size = &#160;10 </text>
</g>
<!-- 30&#45;&gt;35 -->
<g id="edge19" class="edge">
<title>30&#45;&gt;35</title>
<path fill="none" stroke="#000000" d="M230.6365,-235.2099C230.3083,-226.7181 229.9095,-216.4029 229.5373,-206.7766"/>
<polygon fill="#000000" stroke="#000000" points="233.0323,-206.5778 229.1486,-196.7205 226.0376,-206.8483 233.0323,-206.5778"/>
</g>
<!-- 36 -->
<g id="node21" class="node">
<title>36</title>
<polygon fill="none" stroke="#000000" points="377.3471,-194 283.3479,-194 283.3479,-158 377.3471,-158 377.3471,-194"/>
<text text-anchor="middle" x="330.3475" y="-171.8" font-family="Times,serif" font-size="14.00" fill="#000000"> tentado &lt;= 0 </text>
</g>
<!-- 30&#45;&gt;36 -->
<g id="edge20" class="edge">
<title>30&#45;&gt;36</title>
<path fill="none" stroke="#000000" d="M254.5586,-235.4062C267.84,-224.9958 284.6785,-211.7971 299.1088,-200.4861"/>
<polygon fill="#000000" stroke="#000000" points="301.5706,-203.0035 307.2818,-194.0798 297.2523,-197.4943 301.5706,-203.0035"/>
</g>
<!-- 37 -->
<g id="node22" class="node">
<title>37</title>
<polygon fill="none" stroke="#000000" points="329.0208,-116.4 223.6742,-116.4 223.6742,-80.4 329.0208,-80.4 329.0208,-116.4"/>
<text text-anchor="middle" x="276.3475" y="-94.2" font-family="Times,serif" font-size="14.00" fill="#000000"> low_time &lt;= 0 </text>
</g>
<!-- 36&#45;&gt;37 -->
<g id="edge21" class="edge">
<title>36&#45;&gt;37</title>
<path fill="none" stroke="#000000" d="M317.5503,-157.6099C310.758,-147.8491 302.2893,-135.6793 294.7992,-124.9158"/>
<polygon fill="#000000" stroke="#000000" points="297.6377,-122.8671 289.0529,-116.6581 291.8919,-126.8655 297.6377,-122.8671"/>
</g>
<!-- 38 -->
<g id="node23" class="node">
<title>38</title>
<polygon fill="#c1b2ff" stroke="#c1b2ff" points="421.5431,-119.0019 347.1519,-119.0019 347.1519,-77.7981 421.5431,-77.7981 421.5431,-119.0019"/>
<text text-anchor="middle" x="384.3475" y="-102.6" font-family="Times,serif" font-size="14.00" fill="#000000">leaf node &#160;</text>
<text text-anchor="middle" x="384.3475" y="-85.8" font-family="Times,serif" font-size="14.00" fill="#000000">size = &#160;17 </text>
</g>
<!-- 36&#45;&gt;38 -->
<g id="edge22" class="edge">
<title>36&#45;&gt;38</title>
<path fill="none" stroke="#000000" d="M343.1447,-157.6099C349.4312,-148.576 357.1536,-137.4786 364.2072,-127.3424"/>
<polygon fill="#000000" stroke="#000000" points="367.0895,-129.3279 369.9286,-119.1205 361.3438,-125.3295 367.0895,-129.3279"/>
</g>
<!-- 39 -->
<g id="node24" class="node">
<title>39</title>
<polygon fill="#c1b2ff" stroke="#c1b2ff" points="267.5431,-41.4019 193.1519,-41.4019 193.1519,-.1981 267.5431,-.1981 267.5431,-41.4019"/>
<text text-anchor="middle" x="230.3475" y="-25" font-family="Times,serif" font-size="14.00" fill="#000000">leaf node &#160;</text>
<text text-anchor="middle" x="230.3475" y="-8.2" font-family="Times,serif" font-size="14.00" fill="#000000">size = &#160;12 </text>
</g>
<!-- 37&#45;&gt;39 -->
<g id="edge23" class="edge">
<title>37&#45;&gt;39</title>
<path fill="none" stroke="#000000" d="M265.4461,-80.0099C260.1981,-71.1567 253.7753,-60.3217 247.8653,-50.3517"/>
<polygon fill="#000000" stroke="#000000" points="250.7403,-48.338 242.6303,-41.5205 244.7188,-51.9075 250.7403,-48.338"/>
</g>
<!-- 40 -->
<g id="node25" class="node">
<title>40</title>
<polygon fill="#c1b2ff" stroke="#c1b2ff" points="360.5431,-41.4019 286.1519,-41.4019 286.1519,-.1981 360.5431,-.1981 360.5431,-41.4019"/>
<text text-anchor="middle" x="323.3475" y="-25" font-family="Times,serif" font-size="14.00" fill="#000000">leaf node &#160;</text>
<text text-anchor="middle" x="323.3475" y="-8.2" font-family="Times,serif" font-size="14.00" fill="#000000">size = &#160;8 </text>
</g>
<!-- 37&#45;&gt;40 -->
<g id="edge24" class="edge">
<title>37&#45;&gt;40</title>
<path fill="none" stroke="#000000" d="M287.4858,-80.0099C292.8479,-71.1567 299.4104,-60.3217 305.4489,-50.3517"/>
<polygon fill="#000000" stroke="#000000" points="308.6108,-51.8872 310.7977,-41.5205 302.6234,-48.2608 308.6108,-51.8872"/>
</g>
<!-- 25 -->
<g id="node30" class="node">
<title>25</title>
<polygon fill="#c1b2ff" stroke="#c1b2ff" points="530.5431,-351.8019 456.1519,-351.8019 456.1519,-310.5981 530.5431,-310.5981 530.5431,-351.8019"/>
<text text-anchor="middle" x="493.3475" y="-335.4" font-family="Times,serif" font-size="14.00" fill="#000000">leaf node &#160;</text>
<text text-anchor="middle" x="493.3475" y="-318.6" font-family="Times,serif" font-size="14.00" fill="#000000">size = &#160;12 </text>
</g>
<!-- 21&#45;&gt;25 -->
<g id="edge29" class="edge">
<title>21&#45;&gt;25</title>
<path fill="none" stroke="#000000" d="M550.5735,-390.4099C541.5804,-381.105 530.4714,-369.6109 520.4411,-359.2328"/>
<polygon fill="#000000" stroke="#000000" points="522.8401,-356.6787 513.3738,-351.9205 517.8067,-361.5434 522.8401,-356.6787"/>
</g>
<!-- 26 -->
<g id="node31" class="node">
<title>26</title>
<polygon fill="#c1b2ff" stroke="#c1b2ff" points="623.5431,-351.8019 549.1519,-351.8019 549.1519,-310.5981 623.5431,-310.5981 623.5431,-351.8019"/>
<text text-anchor="middle" x="586.3475" y="-335.4" font-family="Times,serif" font-size="14.00" fill="#000000">leaf node &#160;</text>
<text text-anchor="middle" x="586.3475" y="-318.6" font-family="Times,serif" font-size="14.00" fill="#000000">size = &#160;12 </text>
</g>
<!-- 21&#45;&gt;26 -->
<g id="edge30" class="edge">
<title>21&#45;&gt;26</title>
<path fill="none" stroke="#000000" d="M572.6132,-390.4099C574.604,-381.8277 577.0267,-371.3832 579.2798,-361.6697"/>
<polygon fill="#000000" stroke="#000000" points="582.691,-362.4528 581.5412,-351.9205 575.872,-360.871 582.691,-362.4528"/>
</g>
<!-- 27 -->
<g id="node32" class="node">
<title>27</title>
<polygon fill="#c1b2ff" stroke="#c1b2ff" points="728.5431,-351.8019 654.1519,-351.8019 654.1519,-310.5981 728.5431,-310.5981 728.5431,-351.8019"/>
<text text-anchor="middle" x="691.3475" y="-335.4" font-family="Times,serif" font-size="14.00" fill="#000000">leaf node &#160;</text>
<text text-anchor="middle" x="691.3475" y="-318.6" font-family="Times,serif" font-size="14.00" fill="#000000">size = &#160;8 </text>
</g>
<!-- 22&#45;&gt;27 -->
<g id="edge31" class="edge">
<title>22&#45;&gt;27</title>
<path fill="none" stroke="#000000" d="M695.9256,-390.4099C695.269,-381.9181 694.4714,-371.6029 693.7271,-361.9766"/>
<polygon fill="#000000" stroke="#000000" points="697.2102,-361.6209 692.9496,-351.9205 690.231,-362.1606 697.2102,-361.6209"/>
</g>
<!-- 28 -->
<g id="node33" class="node">
<title>28</title>
<polygon fill="#c1b2ff" stroke="#c1b2ff" points="821.5431,-351.8019 747.1519,-351.8019 747.1519,-310.5981 821.5431,-310.5981 821.5431,-351.8019"/>
<text text-anchor="middle" x="784.3475" y="-335.4" font-family="Times,serif" font-size="14.00" fill="#000000">leaf node &#160;</text>
<text text-anchor="middle" x="784.3475" y="-318.6" font-family="Times,serif" font-size="14.00" fill="#000000">size = &#160;15 </text>
</g>
<!-- 22&#45;&gt;28 -->
<g id="edge32" class="edge">
<title>22&#45;&gt;28</title>
<path fill="none" stroke="#000000" d="M717.9653,-390.4099C728.5998,-380.9243 741.7851,-369.1637 753.5953,-358.6296"/>
<polygon fill="#000000" stroke="#000000" points="755.984,-361.1889 761.117,-351.9205 751.3245,-355.965 755.984,-361.1889"/>
</g>
<!-- 17 -->
<g id="node38" class="node">
<title>17</title>
<polygon fill="#c1b2ff" stroke="#c1b2ff" points="922.5431,-507.0019 848.1519,-507.0019 848.1519,-465.7981 922.5431,-465.7981 922.5431,-507.0019"/>
<text text-anchor="middle" x="885.3475" y="-490.6" font-family="Times,serif" font-size="14.00" fill="#000000">leaf node &#160;</text>
<text text-anchor="middle" x="885.3475" y="-473.8" font-family="Times,serif" font-size="14.00" fill="#000000">size = &#160;16 </text>
</g>
<!-- 11&#45;&gt;17 -->
<g id="edge37" class="edge">
<title>11&#45;&gt;17</title>
<path fill="none" stroke="#000000" d="M885.3475,-545.6099C885.3475,-537.1181 885.3475,-526.8029 885.3475,-517.1766"/>
<polygon fill="#000000" stroke="#000000" points="888.8476,-517.1205 885.3475,-507.1205 881.8476,-517.1205 888.8476,-517.1205"/>
</g>
<!-- 18 -->
<g id="node39" class="node">
<title>18</title>
<polygon fill="#c1b2ff" stroke="#c1b2ff" points="1015.5431,-507.0019 941.1519,-507.0019 941.1519,-465.7981 1015.5431,-465.7981 1015.5431,-507.0019"/>
<text text-anchor="middle" x="978.3475" y="-490.6" font-family="Times,serif" font-size="14.00" fill="#000000">leaf node &#160;</text>
<text text-anchor="middle" x="978.3475" y="-473.8" font-family="Times,serif" font-size="14.00" fill="#000000">size = &#160;11 </text>
</g>
<!-- 11&#45;&gt;18 -->
<g id="edge38" class="edge">
<title>11&#45;&gt;18</title>
<path fill="none" stroke="#000000" d="M907.3872,-545.6099C918.8634,-536.034 933.1185,-524.1395 945.8347,-513.5289"/>
<polygon fill="#000000" stroke="#000000" points="948.0791,-516.2146 953.5149,-507.1205 943.5944,-510.8399 948.0791,-516.2146"/>
</g>
</g>
</svg>
