<?xml version="1.0" encoding="UTF-8" standalone="no"?>
<!DOCTYPE svg PUBLIC "-//W3C//DTD SVG 1.1//EN"
 "http://www.w3.org/Graphics/SVG/1.1/DTD/svg11.dtd">
<!-- Generated by graphviz version 2.40.1 (20161225.0304)
 -->
<!-- Title: nodes Pages: 1 -->
<svg width="889pt" height="737pt"
 viewBox="0.00 0.00 888.69 736.80" xmlns="http://www.w3.org/2000/svg" xmlns:xlink="http://www.w3.org/1999/xlink">
<g id="graph0" class="graph" transform="scale(1 1) rotate(0) translate(4 732.8)">
<title>nodes</title>
<polygon fill="#ffffff" stroke="transparent" points="-4,4 -4,-732.8 884.695,-732.8 884.695,4 -4,4"/>
<!-- 0 -->
<g id="node1" class="node">
<title>0</title>
<polygon fill="none" stroke="#000000" points="806.9523,-728.8 681.7427,-728.8 681.7427,-692.8 806.9523,-692.8 806.9523,-728.8"/>
<text text-anchor="middle" x="744.3475" y="-706.6" font-family="Times,serif" font-size="14.00" fill="#000000"> prestamo &lt;= 3620 </text>
</g>
<!-- 1 -->
<g id="node2" class="node">
<title>1</title>
<polygon fill="none" stroke="#000000" points="747.9523,-654 622.7427,-654 622.7427,-618 747.9523,-618 747.9523,-654"/>
<text text-anchor="middle" x="685.3475" y="-631.8" font-family="Times,serif" font-size="14.00" fill="#000000"> prestamo &lt;= 2400 </text>
</g>
<!-- 0&#45;&gt;1 -->
<g id="edge1" class="edge">
<title>0&#45;&gt;1</title>
<path fill="none" stroke="#000000" d="M730.0652,-692.693C722.8714,-683.5727 714.0151,-672.3446 706.087,-662.2935"/>
<polygon fill="#000000" stroke="#000000" points="708.6438,-659.8835 699.7027,-654.1995 703.1478,-664.2186 708.6438,-659.8835"/>
<text text-anchor="middle" x="696.7709" y="-674.827" font-family="Times,serif" font-size="14.00" fill="#000000">True</text>
</g>
<!-- 2 -->
<g id="node3" class="node">
<title>2</title>
<polygon fill="#c1b2ff" stroke="#c1b2ff" points="840.5431,-656.6019 766.1519,-656.6019 766.1519,-615.3981 840.5431,-615.3981 840.5431,-656.6019"/>
<text text-anchor="middle" x="803.3475" y="-640.2" font-family="Times,serif" font-size="14.00" fill="#000000">leaf node &#160;</text>
<text text-anchor="middle" x="803.3475" y="-623.4" font-family="Times,serif" font-size="14.00" fill="#000000">size = &#160;37 </text>
</g>
<!-- 0&#45;&gt;2 -->
<g id="edge2" class="edge">
<title>0&#45;&gt;2</title>
<path fill="none" stroke="#000000" d="M758.6298,-692.693C765.2241,-684.3328 773.2154,-674.2013 780.6081,-664.8289"/>
<polygon fill="#000000" stroke="#000000" points="783.4554,-666.8706 786.9005,-656.8515 777.9593,-662.5355 783.4554,-666.8706"/>
<text text-anchor="middle" x="789.8323" y="-677.479" font-family="Times,serif" font-size="14.00" fill="#000000">False</text>
</g>
<!-- 3 -->
<g id="node4" class="node">
<title>3</title>
<polygon fill="none" stroke="#000000" points="637.7772,-579.2 530.9178,-579.2 530.9178,-543.2 637.7772,-543.2 637.7772,-579.2"/>
<text text-anchor="middle" x="584.3475" y="-557" font-family="Times,serif" font-size="14.00" fill="#000000"> cta_tanda &lt;= 0 </text>
</g>
<!-- 1&#45;&gt;3 -->
<g id="edge3" class="edge">
<title>1&#45;&gt;3</title>
<path fill="none" stroke="#000000" d="M660.8982,-617.893C647.7214,-608.1343 631.286,-595.9624 617.0256,-585.4012"/>
<polygon fill="#000000" stroke="#000000" points="619.0409,-582.5384 608.9217,-579.3995 614.8748,-588.1637 619.0409,-582.5384"/>
</g>
<!-- 4 -->
<g id="node5" class="node">
<title>4</title>
<polygon fill="none" stroke="#000000" points="792.6174,-579.2 698.0776,-579.2 698.0776,-543.2 792.6174,-543.2 792.6174,-579.2"/>
<text text-anchor="middle" x="745.3475" y="-557" font-family="Times,serif" font-size="14.00" fill="#000000"> ahorros &lt;= 0 </text>
</g>
<!-- 1&#45;&gt;4 -->
<g id="edge4" class="edge">
<title>1&#45;&gt;4</title>
<path fill="none" stroke="#000000" d="M699.8718,-617.893C707.1876,-608.7727 716.1941,-597.5446 724.2565,-587.4935"/>
<polygon fill="#000000" stroke="#000000" points="727.222,-589.3901 730.749,-579.3995 721.7616,-585.0101 727.222,-589.3901"/>
</g>
<!-- 5 -->
<g id="node6" class="node">
<title>5</title>
<polygon fill="none" stroke="#000000" points="484.9523,-504.4 359.7427,-504.4 359.7427,-468.4 484.9523,-468.4 484.9523,-504.4"/>
<text text-anchor="middle" x="422.3475" y="-482.2" font-family="Times,serif" font-size="14.00" fill="#000000"> prestamo &lt;= 1790 </text>
</g>
<!-- 3&#45;&gt;5 -->
<g id="edge5" class="edge">
<title>3&#45;&gt;5</title>
<path fill="none" stroke="#000000" d="M545.1318,-543.093C522.7289,-532.7489 494.4535,-519.6934 470.6852,-508.7189"/>
<polygon fill="#000000" stroke="#000000" points="472.0286,-505.4842 461.4825,-504.4697 469.0942,-511.8394 472.0286,-505.4842"/>
</g>
<!-- 6 -->
<g id="node7" class="node">
<title>6</title>
<polygon fill="none" stroke="#000000" points="624.6174,-504.4 544.0776,-504.4 544.0776,-468.4 624.6174,-468.4 624.6174,-504.4"/>
<text text-anchor="middle" x="584.3475" y="-482.2" font-family="Times,serif" font-size="14.00" fill="#000000"> renta &lt;= 0 </text>
</g>
<!-- 3&#45;&gt;6 -->
<g id="edge6" class="edge">
<title>3&#45;&gt;6</title>
<path fill="none" stroke="#000000" d="M584.3475,-543.093C584.3475,-534.6112 584.3475,-524.3062 584.3475,-514.8204"/>
<polygon fill="#000000" stroke="#000000" points="587.8476,-514.5995 584.3475,-504.5995 580.8476,-514.5995 587.8476,-514.5995"/>
</g>
<!-- 7 -->
<g id="node26" class="node">
<title>7</title>
<polygon fill="none" stroke="#000000" points="788.5662,-504.4 702.1288,-504.4 702.1288,-468.4 788.5662,-468.4 788.5662,-504.4"/>
<text text-anchor="middle" x="745.3475" y="-482.2" font-family="Times,serif" font-size="14.00" fill="#000000"> edad &lt;= 42 </text>
</g>
<!-- 4&#45;&gt;7 -->
<g id="edge25" class="edge">
<title>4&#45;&gt;7</title>
<path fill="none" stroke="#000000" d="M745.3475,-543.093C745.3475,-534.6112 745.3475,-524.3062 745.3475,-514.8204"/>
<polygon fill="#000000" stroke="#000000" points="748.8476,-514.5995 745.3475,-504.5995 741.8476,-514.5995 748.8476,-514.5995"/>
</g>
<!-- 8 -->
<g id="node27" class="node">
<title>8</title>
<polygon fill="#c1b2ff" stroke="#c1b2ff" points="880.5431,-507.0019 806.1519,-507.0019 806.1519,-465.7981 880.5431,-465.7981 880.5431,-507.0019"/>
<text text-anchor="middle" x="843.3475" y="-490.6" font-family="Times,serif" font-size="14.00" fill="#000000">leaf node &#160;</text>
<text text-anchor="middle" x="843.3475" y="-473.8" font-family="Times,serif" font-size="14.00" fill="#000000">size = &#160;15 </text>
</g>
<!-- 4&#45;&gt;8 -->
<g id="edge26" class="edge">
<title>4&#45;&gt;8</title>
<path fill="none" stroke="#000000" d="M769.0706,-543.093C780.6877,-534.2261 794.9151,-523.3668 807.7979,-513.5338"/>
<polygon fill="#000000" stroke="#000000" points="810.2031,-516.101 816.0287,-507.2515 805.956,-510.5366 810.2031,-516.101"/>
</g>
<!-- 9 -->
<g id="node8" class="node">
<title>9</title>
<polygon fill="none" stroke="#000000" points="367.0249,-426.8 233.6701,-426.8 233.6701,-390.8 367.0249,-390.8 367.0249,-426.8"/>
<text text-anchor="middle" x="300.3475" y="-404.6" font-family="Times,serif" font-size="14.00" fill="#000000"> dummy_dow5 &lt;= 0 </text>
</g>
<!-- 5&#45;&gt;9 -->
<g id="edge7" class="edge">
<title>5&#45;&gt;9</title>
<path fill="none" stroke="#000000" d="M393.7439,-468.2062C376.918,-457.5039 355.4595,-443.8548 337.3551,-432.3392"/>
<polygon fill="#000000" stroke="#000000" points="339.0881,-429.2936 328.7719,-426.8798 335.3312,-435.2 339.0881,-429.2936"/>
</g>
<!-- 10 -->
<g id="node9" class="node">
<title>10</title>
<polygon fill="#c1b2ff" stroke="#c1b2ff" points="459.5431,-429.4019 385.1519,-429.4019 385.1519,-388.1981 459.5431,-388.1981 459.5431,-429.4019"/>
<text text-anchor="middle" x="422.3475" y="-413" font-family="Times,serif" font-size="14.00" fill="#000000">leaf node &#160;</text>
<text text-anchor="middle" x="422.3475" y="-396.2" font-family="Times,serif" font-size="14.00" fill="#000000">size = &#160;21 </text>
</g>
<!-- 5&#45;&gt;10 -->
<g id="edge8" class="edge">
<title>5&#45;&gt;10</title>
<path fill="none" stroke="#000000" d="M422.3475,-468.0099C422.3475,-459.5181 422.3475,-449.2029 422.3475,-439.5766"/>
<polygon fill="#000000" stroke="#000000" points="425.8476,-439.5205 422.3475,-429.5205 418.8476,-439.5205 425.8476,-439.5205"/>
</g>
<!-- 11 -->
<g id="node20" class="node">
<title>11</title>
<polygon fill="none" stroke="#000000" points="597.0082,-426.8 477.6868,-426.8 477.6868,-390.8 597.0082,-390.8 597.0082,-426.8"/>
<text text-anchor="middle" x="537.3475" y="-404.6" font-family="Times,serif" font-size="14.00" fill="#000000"> fam_comun &lt;= 0 </text>
</g>
<!-- 6&#45;&gt;11 -->
<g id="edge19" class="edge">
<title>6&#45;&gt;11</title>
<path fill="none" stroke="#000000" d="M573.2092,-468.0099C567.3559,-458.3458 560.0723,-446.3201 553.6012,-435.6359"/>
<polygon fill="#000000" stroke="#000000" points="556.5802,-433.7984 548.4059,-427.0581 550.5928,-437.4248 556.5802,-433.7984"/>
</g>
<!-- 12 -->
<g id="node21" class="node">
<title>12</title>
<polygon fill="#c1b2ff" stroke="#c1b2ff" points="689.5431,-429.4019 615.1519,-429.4019 615.1519,-388.1981 689.5431,-388.1981 689.5431,-429.4019"/>
<text text-anchor="middle" x="652.3475" y="-413" font-family="Times,serif" font-size="14.00" fill="#000000">leaf node &#160;</text>
<text text-anchor="middle" x="652.3475" y="-396.2" font-family="Times,serif" font-size="14.00" fill="#000000">size = &#160;5 </text>
</g>
<!-- 6&#45;&gt;12 -->
<g id="edge20" class="edge">
<title>6&#45;&gt;12</title>
<path fill="none" stroke="#000000" d="M600.4626,-468.0099C608.5371,-458.7954 618.4931,-447.4339 627.5175,-437.1354"/>
<polygon fill="#000000" stroke="#000000" points="630.2321,-439.3482 634.1904,-429.5205 624.9674,-434.7348 630.2321,-439.3482"/>
</g>
<!-- 15 -->
<g id="node10" class="node">
<title>15</title>
<polygon fill="none" stroke="#000000" points="313.0662,-349.2 233.6288,-349.2 233.6288,-313.2 313.0662,-313.2 313.0662,-349.2"/>
<text text-anchor="middle" x="273.3475" y="-327" font-family="Times,serif" font-size="14.00" fill="#000000"> agua &lt;= 0 </text>
</g>
<!-- 9&#45;&gt;15 -->
<g id="edge9" class="edge">
<title>9&#45;&gt;15</title>
<path fill="none" stroke="#000000" d="M293.9489,-390.4099C290.6872,-381.0357 286.6525,-369.4395 283.0205,-359.001"/>
<polygon fill="#000000" stroke="#000000" points="286.292,-357.7526 279.7002,-349.4581 279.6808,-360.0529 286.292,-357.7526"/>
</g>
<!-- 16 -->
<g id="node11" class="node">
<title>16</title>
<polygon fill="#c1b2ff" stroke="#c1b2ff" points="405.5431,-351.8019 331.1519,-351.8019 331.1519,-310.5981 405.5431,-310.5981 405.5431,-351.8019"/>
<text text-anchor="middle" x="368.3475" y="-335.4" font-family="Times,serif" font-size="14.00" fill="#000000">leaf node &#160;</text>
<text text-anchor="middle" x="368.3475" y="-318.6" font-family="Times,serif" font-size="14.00" fill="#000000">size = &#160;12 </text>
</g>
<!-- 9&#45;&gt;16 -->
<g id="edge10" class="edge">
<title>9&#45;&gt;16</title>
<path fill="none" stroke="#000000" d="M316.4626,-390.4099C324.5371,-381.1954 334.4931,-369.8339 343.5175,-359.5354"/>
<polygon fill="#000000" stroke="#000000" points="346.2321,-361.7482 350.1904,-351.9205 340.9674,-357.1348 346.2321,-361.7482"/>
</g>
<!-- 19 -->
<g id="node12" class="node">
<title>19</title>
<polygon fill="none" stroke="#000000" points="243.6174,-271.6 149.0776,-271.6 149.0776,-235.6 243.6174,-235.6 243.6174,-271.6"/>
<text text-anchor="middle" x="196.3475" y="-249.4" font-family="Times,serif" font-size="14.00" fill="#000000"> ahorros &lt;= 0 </text>
</g>
<!-- 15&#45;&gt;19 -->
<g id="edge11" class="edge">
<title>15&#45;&gt;19</title>
<path fill="none" stroke="#000000" d="M255.0996,-312.8099C245.1266,-302.7592 232.6191,-290.1542 221.7104,-279.1605"/>
<polygon fill="#000000" stroke="#000000" points="223.9925,-276.4913 214.4644,-271.8581 219.0236,-281.4219 223.9925,-276.4913"/>
</g>
<!-- 20 -->
<g id="node13" class="node">
<title>20</title>
<polygon fill="#c1b2ff" stroke="#c1b2ff" points="336.5431,-274.2019 262.1519,-274.2019 262.1519,-232.9981 336.5431,-232.9981 336.5431,-274.2019"/>
<text text-anchor="middle" x="299.3475" y="-257.8" font-family="Times,serif" font-size="14.00" fill="#000000">leaf node &#160;</text>
<text text-anchor="middle" x="299.3475" y="-241" font-family="Times,serif" font-size="14.00" fill="#000000">size = &#160;12 </text>
</g>
<!-- 15&#45;&gt;20 -->
<g id="edge12" class="edge">
<title>15&#45;&gt;20</title>
<path fill="none" stroke="#000000" d="M279.5091,-312.8099C282.3846,-304.2277 285.8841,-293.7832 289.1386,-284.0697"/>
<polygon fill="#000000" stroke="#000000" points="292.5467,-284.9144 292.4051,-274.3205 285.9094,-282.6905 292.5467,-284.9144"/>
</g>
<!-- 23 -->
<g id="node14" class="node">
<title>23</title>
<polygon fill="none" stroke="#000000" points="189.9524,-194 106.7426,-194 106.7426,-158 189.9524,-158 189.9524,-194"/>
<text text-anchor="middle" x="148.3475" y="-171.8" font-family="Times,serif" font-size="14.00" fill="#000000"> faltas &lt;= 0 </text>
</g>
<!-- 19&#45;&gt;23 -->
<g id="edge13" class="edge">
<title>19&#45;&gt;23</title>
<path fill="none" stroke="#000000" d="M184.9722,-235.2099C178.9944,-225.5458 171.5558,-213.5201 164.9471,-202.8359"/>
<polygon fill="#000000" stroke="#000000" points="167.8783,-200.9214 159.6412,-194.2581 161.9252,-204.6038 167.8783,-200.9214"/>
</g>
<!-- 24 -->
<g id="node15" class="node">
<title>24</title>
<polygon fill="#c1b2ff" stroke="#c1b2ff" points="282.5431,-196.6019 208.1519,-196.6019 208.1519,-155.3981 282.5431,-155.3981 282.5431,-196.6019"/>
<text text-anchor="middle" x="245.3475" y="-180.2" font-family="Times,serif" font-size="14.00" fill="#000000">leaf node &#160;</text>
<text text-anchor="middle" x="245.3475" y="-163.4" font-family="Times,serif" font-size="14.00" fill="#000000">size = &#160;24 </text>
</g>
<!-- 19&#45;&gt;24 -->
<g id="edge14" class="edge">
<title>19&#45;&gt;24</title>
<path fill="none" stroke="#000000" d="M207.9598,-235.2099C213.6071,-226.2664 220.5316,-215.3003 226.8798,-205.2468"/>
<polygon fill="#000000" stroke="#000000" points="229.8839,-207.0446 232.2637,-196.7205 223.9651,-203.3072 229.8839,-207.0446"/>
</g>
<!-- 25 -->
<g id="node16" class="node">
<title>25</title>
<polygon fill="none" stroke="#000000" points="159.6504,-116.4 7.0446,-116.4 7.0446,-80.4 159.6504,-80.4 159.6504,-116.4"/>
<text text-anchor="middle" x="83.3475" y="-94.2" font-family="Times,serif" font-size="14.00" fill="#000000"> hace_presupuesto &lt;= 0 </text>
</g>
<!-- 23&#45;&gt;25 -->
<g id="edge15" class="edge">
<title>23&#45;&gt;25</title>
<path fill="none" stroke="#000000" d="M132.9434,-157.6099C124.6866,-147.7525 114.3717,-135.4381 105.2905,-124.5965"/>
<polygon fill="#000000" stroke="#000000" points="107.7454,-122.0767 98.641,-116.6581 102.3792,-126.5716 107.7454,-122.0767"/>
</g>
<!-- 26 -->
<g id="node17" class="node">
<title>26</title>
<polygon fill="#c1b2ff" stroke="#c1b2ff" points="251.5431,-119.0019 177.1519,-119.0019 177.1519,-77.7981 251.5431,-77.7981 251.5431,-119.0019"/>
<text text-anchor="middle" x="214.3475" y="-102.6" font-family="Times,serif" font-size="14.00" fill="#000000">leaf node &#160;</text>
<text text-anchor="middle" x="214.3475" y="-85.8" font-family="Times,serif" font-size="14.00" fill="#000000">size = &#160;14 </text>
</g>
<!-- 23&#45;&gt;26 -->
<g id="edge16" class="edge">
<title>23&#45;&gt;26</title>
<path fill="none" stroke="#000000" d="M163.9886,-157.6099C171.7488,-148.4857 181.2995,-137.2564 189.9899,-127.0386"/>
<polygon fill="#000000" stroke="#000000" points="192.9117,-129.0056 196.7244,-119.1205 187.5795,-124.4704 192.9117,-129.0056"/>
</g>
<!-- 27 -->
<g id="node18" class="node">
<title>27</title>
<polygon fill="#c1b2ff" stroke="#c1b2ff" points="74.5431,-41.4019 .1519,-41.4019 .1519,-.1981 74.5431,-.1981 74.5431,-41.4019"/>
<text text-anchor="middle" x="37.3475" y="-25" font-family="Times,serif" font-size="14.00" fill="#000000">leaf node &#160;</text>
<text text-anchor="middle" x="37.3475" y="-8.2" font-family="Times,serif" font-size="14.00" fill="#000000">size = &#160;18 </text>
</g>
<!-- 25&#45;&gt;27 -->
<g id="edge17" class="edge">
<title>25&#45;&gt;27</title>
<path fill="none" stroke="#000000" d="M72.4461,-80.0099C67.1981,-71.1567 60.7753,-60.3217 54.8653,-50.3517"/>
<polygon fill="#000000" stroke="#000000" points="57.7403,-48.338 49.6303,-41.5205 51.7188,-51.9075 57.7403,-48.338"/>
</g>
<!-- 28 -->
<g id="node19" class="node">
<title>28</title>
<polygon fill="#c1b2ff" stroke="#c1b2ff" points="167.5431,-41.4019 93.1519,-41.4019 93.1519,-.1981 167.5431,-.1981 167.5431,-41.4019"/>
<text text-anchor="middle" x="130.3475" y="-25" font-family="Times,serif" font-size="14.00" fill="#000000">leaf node &#160;</text>
<text text-anchor="middle" x="130.3475" y="-8.2" font-family="Times,serif" font-size="14.00" fill="#000000">size = &#160;19 </text>
</g>
<!-- 25&#45;&gt;28 -->
<g id="edge18" class="edge">
<title>25&#45;&gt;28</title>
<path fill="none" stroke="#000000" d="M94.4858,-80.0099C99.8479,-71.1567 106.4104,-60.3217 112.4489,-50.3517"/>
<polygon fill="#000000" stroke="#000000" points="115.6108,-51.8872 117.7977,-41.5205 109.6234,-48.2608 115.6108,-51.8872"/>
</g>
<!-- 17 -->
<g id="node22" class="node">
<title>17</title>
<polygon fill="none" stroke="#000000" points="510.5662,-349.2 424.1288,-349.2 424.1288,-313.2 510.5662,-313.2 510.5662,-349.2"/>
<text text-anchor="middle" x="467.3475" y="-327" font-family="Times,serif" font-size="14.00" fill="#000000"> edad &lt;= 35 </text>
</g>
<!-- 11&#45;&gt;17 -->
<g id="edge21" class="edge">
<title>11&#45;&gt;17</title>
<path fill="none" stroke="#000000" d="M520.7585,-390.4099C511.7793,-380.4558 500.5401,-367.9964 490.6911,-357.0781"/>
<polygon fill="#000000" stroke="#000000" points="493.1145,-354.5391 483.8174,-349.4581 487.9167,-359.2278 493.1145,-354.5391"/>
</g>
<!-- 18 -->
<g id="node23" class="node">
<title>18</title>
<polygon fill="#c1b2ff" stroke="#c1b2ff" points="602.5431,-351.8019 528.1519,-351.8019 528.1519,-310.5981 602.5431,-310.5981 602.5431,-351.8019"/>
<text text-anchor="middle" x="565.3475" y="-335.4" font-family="Times,serif" font-size="14.00" fill="#000000">leaf node &#160;</text>
<text text-anchor="middle" x="565.3475" y="-318.6" font-family="Times,serif" font-size="14.00" fill="#000000">size = &#160;37 </text>
</g>
<!-- 11&#45;&gt;18 -->
<g id="edge22" class="edge">
<title>11&#45;&gt;18</title>
<path fill="none" stroke="#000000" d="M543.9831,-390.4099C547.1124,-381.7374 550.9278,-371.1631 554.4639,-361.3632"/>
<polygon fill="#000000" stroke="#000000" points="557.7691,-362.5149 557.871,-351.9205 551.1847,-360.139 557.7691,-362.5149"/>
</g>
<!-- 21 -->
<g id="node24" class="node">
<title>21</title>
<polygon fill="#c1b2ff" stroke="#c1b2ff" points="479.5431,-274.2019 405.1519,-274.2019 405.1519,-232.9981 479.5431,-232.9981 479.5431,-274.2019"/>
<text text-anchor="middle" x="442.3475" y="-257.8" font-family="Times,serif" font-size="14.00" fill="#000000">leaf node &#160;</text>
<text text-anchor="middle" x="442.3475" y="-241" font-family="Times,serif" font-size="14.00" fill="#000000">size = &#160;9 </text>
</g>
<!-- 17&#45;&gt;21 -->
<g id="edge23" class="edge">
<title>17&#45;&gt;21</title>
<path fill="none" stroke="#000000" d="M461.4228,-312.8099C458.658,-304.2277 455.2931,-293.7832 452.1638,-284.0697"/>
<polygon fill="#000000" stroke="#000000" points="455.4208,-282.7655 449.0229,-274.3205 448.758,-284.912 455.4208,-282.7655"/>
</g>
<!-- 22 -->
<g id="node25" class="node">
<title>22</title>
<polygon fill="#c1b2ff" stroke="#c1b2ff" points="572.5431,-274.2019 498.1519,-274.2019 498.1519,-232.9981 572.5431,-232.9981 572.5431,-274.2019"/>
<text text-anchor="middle" x="535.3475" y="-257.8" font-family="Times,serif" font-size="14.00" fill="#000000">leaf node &#160;</text>
<text text-anchor="middle" x="535.3475" y="-241" font-family="Times,serif" font-size="14.00" fill="#000000">size = &#160;19 </text>
</g>
<!-- 17&#45;&gt;22 -->
<g id="edge24" class="edge">
<title>17&#45;&gt;22</title>
<path fill="none" stroke="#000000" d="M483.4626,-312.8099C491.5371,-303.5954 501.4931,-292.2339 510.5175,-281.9354"/>
<polygon fill="#000000" stroke="#000000" points="513.2321,-284.1482 517.1904,-274.3205 507.9674,-279.5348 513.2321,-284.1482"/>
</g>
<!-- 13 -->
<g id="node28" class="node">
<title>13</title>
<polygon fill="#c1b2ff" stroke="#c1b2ff" points="782.5431,-429.4019 708.1519,-429.4019 708.1519,-388.1981 782.5431,-388.1981 782.5431,-429.4019"/>
<text text-anchor="middle" x="745.3475" y="-413" font-family="Times,serif" font-size="14.00" fill="#000000">leaf node &#160;</text>
<text text-anchor="middle" x="745.3475" y="-396.2" font-family="Times,serif" font-size="14.00" fill="#000000">size = &#160;5 </text>
</g>
<!-- 7&#45;&gt;13 -->
<g id="edge27" class="edge">
<title>7&#45;&gt;13</title>
<path fill="none" stroke="#000000" d="M745.3475,-468.0099C745.3475,-459.5181 745.3475,-449.2029 745.3475,-439.5766"/>
<polygon fill="#000000" stroke="#000000" points="748.8476,-439.5205 745.3475,-429.5205 741.8476,-439.5205 748.8476,-439.5205"/>
</g>
<!-- 14 -->
<g id="node29" class="node">
<title>14</title>
<polygon fill="#c1b2ff" stroke="#c1b2ff" points="875.5431,-429.4019 801.1519,-429.4019 801.1519,-388.1981 875.5431,-388.1981 875.5431,-429.4019"/>
<text text-anchor="middle" x="838.3475" y="-413" font-family="Times,serif" font-size="14.00" fill="#000000">leaf node &#160;</text>
<text text-anchor="middle" x="838.3475" y="-396.2" font-family="Times,serif" font-size="14.00" fill="#000000">size = &#160;13 </text>
</g>
<!-- 7&#45;&gt;14 -->
<g id="edge28" class="edge">
<title>7&#45;&gt;14</title>
<path fill="none" stroke="#000000" d="M767.3872,-468.0099C778.8634,-458.434 793.1185,-446.5395 805.8347,-435.9289"/>
<polygon fill="#000000" stroke="#000000" points="808.0791,-438.6146 813.5149,-429.5205 803.5944,-433.2399 808.0791,-438.6146"/>
</g>
</g>
</svg>
