<?xml version="1.0" encoding="UTF-8" standalone="no"?>
<!DOCTYPE svg PUBLIC "-//W3C//DTD SVG 1.1//EN"
 "http://www.w3.org/Graphics/SVG/1.1/DTD/svg11.dtd">
<!-- Generated by graphviz version 2.40.1 (20161225.0304)
 -->
<!-- Title: nodes Pages: 1 -->
<svg width="1054pt" height="871pt"
 viewBox="0.00 0.00 1054.32 871.20" xmlns="http://www.w3.org/2000/svg" xmlns:xlink="http://www.w3.org/1999/xlink">
<g id="graph0" class="graph" transform="scale(1 1) rotate(0) translate(4 867.2)">
<title>nodes</title>
<polygon fill="#ffffff" stroke="transparent" points="-4,4 -4,-867.2 1050.3238,-867.2 1050.3238,4 -4,4"/>
<!-- 0 -->
<g id="node1" class="node">
<title>0</title>
<polygon fill="none" stroke="#000000" points="746.4832,-863.2 642.8406,-863.2 642.8406,-827.2 746.4832,-827.2 746.4832,-863.2"/>
<text text-anchor="middle" x="694.6619" y="-841" font-family="Times,serif" font-size="14.00" fill="#000000"> reminder &lt;= 0 </text>
</g>
<!-- 1 -->
<g id="node2" class="node">
<title>1</title>
<polygon fill="none" stroke="#000000" points="685.8763,-791.2 585.4475,-791.2 585.4475,-755.2 685.8763,-755.2 685.8763,-791.2"/>
<text text-anchor="middle" x="635.6619" y="-769" font-family="Times,serif" font-size="14.00" fill="#000000"> saturday &lt;= 0 </text>
</g>
<!-- 0&#45;&gt;1 -->
<g id="edge1" class="edge">
<title>0&#45;&gt;1</title>
<path fill="none" stroke="#000000" d="M679.7737,-827.0314C672.9089,-818.654 664.6318,-808.5531 657.1108,-799.3749"/>
<polygon fill="#000000" stroke="#000000" points="659.796,-797.1297 650.7505,-791.6133 654.3816,-801.5665 659.796,-797.1297"/>
<text text-anchor="middle" x="648.2818" y="-812.2911" font-family="Times,serif" font-size="14.00" fill="#000000">True</text>
</g>
<!-- 2 -->
<g id="node3" class="node">
<title>2</title>
<polygon fill="none" stroke="#000000" points="796.3806,-791.2 716.9432,-791.2 716.9432,-755.2 796.3806,-755.2 796.3806,-791.2"/>
<text text-anchor="middle" x="756.6619" y="-769" font-family="Times,serif" font-size="14.00" fill="#000000"> age &lt;= 35 </text>
</g>
<!-- 0&#45;&gt;2 -->
<g id="edge2" class="edge">
<title>0&#45;&gt;2</title>
<path fill="none" stroke="#000000" d="M710.3071,-827.0314C717.521,-818.654 726.2189,-808.5531 734.1224,-799.3749"/>
<polygon fill="#000000" stroke="#000000" points="736.933,-801.4748 740.806,-791.6133 731.6286,-796.9071 736.933,-801.4748"/>
<text text-anchor="middle" x="742.6665" y="-812.3439" font-family="Times,serif" font-size="14.00" fill="#000000">False</text>
</g>
<!-- 3 -->
<g id="node4" class="node">
<title>3</title>
<polygon fill="none" stroke="#000000" points="566.3806,-708 486.9432,-708 486.9432,-672 566.3806,-672 566.3806,-708"/>
<text text-anchor="middle" x="526.6619" y="-685.8" font-family="Times,serif" font-size="14.00" fill="#000000"> age &lt;= 57 </text>
</g>
<!-- 1&#45;&gt;3 -->
<g id="edge3" class="edge">
<title>1&#45;&gt;3</title>
<path fill="none" stroke="#000000" d="M612.0105,-755.1468C596.2986,-743.1539 575.4863,-727.2678 558.3473,-714.1855"/>
<polygon fill="#000000" stroke="#000000" points="560.3397,-711.3033 550.2671,-708.0179 556.0925,-716.8676 560.3397,-711.3033"/>
</g>
<!-- 4 -->
<g id="node5" class="node">
<title>4</title>
<polygon fill="#c1b2ff" stroke="#c1b2ff" points="685.4862,-719.4014 585.8376,-719.4014 585.8376,-660.5986 685.4862,-660.5986 685.4862,-719.4014"/>
<text text-anchor="middle" x="635.6619" y="-702.6" font-family="Times,serif" font-size="14.00" fill="#000000">size = &#160;19 </text>
<text text-anchor="middle" x="635.6619" y="-685.8" font-family="Times,serif" font-size="14.00" fill="#000000"> avg_Y = 1.37</text>
<text text-anchor="middle" x="635.6619" y="-669" font-family="Times,serif" font-size="14.00" fill="#000000">avg_W = 0.47 </text>
</g>
<!-- 1&#45;&gt;4 -->
<g id="edge4" class="edge">
<title>1&#45;&gt;4</title>
<path fill="none" stroke="#000000" d="M635.6619,-755.1468C635.6619,-747.5769 635.6619,-738.456 635.6619,-729.4681"/>
<polygon fill="#000000" stroke="#000000" points="639.162,-729.4667 635.6619,-719.4668 632.162,-729.4668 639.162,-729.4667"/>
</g>
<!-- 5 -->
<g id="node30" class="node">
<title>5</title>
<polygon fill="none" stroke="#000000" points="807.8348,-708 705.489,-708 705.489,-672 807.8348,-672 807.8348,-708"/>
<text text-anchor="middle" x="756.6619" y="-685.8" font-family="Times,serif" font-size="14.00" fill="#000000"> low.time &lt;= 0 </text>
</g>
<!-- 2&#45;&gt;5 -->
<g id="edge29" class="edge">
<title>2&#45;&gt;5</title>
<path fill="none" stroke="#000000" d="M756.6619,-755.1468C756.6619,-744.3532 756.6619,-730.4061 756.6619,-718.1876"/>
<polygon fill="#000000" stroke="#000000" points="760.162,-718.0179 756.6619,-708.0179 753.162,-718.018 760.162,-718.0179"/>
</g>
<!-- 6 -->
<g id="node31" class="node">
<title>6</title>
<polygon fill="none" stroke="#000000" points="920.5382,-708 836.7856,-708 836.7856,-672 920.5382,-672 920.5382,-708"/>
<text text-anchor="middle" x="878.6619" y="-685.8" font-family="Times,serif" font-size="14.00" fill="#000000"> water &lt;= 0 </text>
</g>
<!-- 2&#45;&gt;6 -->
<g id="edge30" class="edge">
<title>2&#45;&gt;6</title>
<path fill="none" stroke="#000000" d="M783.1341,-755.1468C800.8798,-743.0449 824.4384,-726.9786 843.7197,-713.8295"/>
<polygon fill="#000000" stroke="#000000" points="845.9517,-716.5438 852.2414,-708.0179 842.0077,-710.7606 845.9517,-716.5438"/>
</g>
<!-- 7 -->
<g id="node6" class="node">
<title>7</title>
<polygon fill="none" stroke="#000000" points="449.3806,-613.6 369.9432,-613.6 369.9432,-577.6 449.3806,-577.6 449.3806,-613.6"/>
<text text-anchor="middle" x="409.6619" y="-591.4" font-family="Times,serif" font-size="14.00" fill="#000000"> age &lt;= 35 </text>
</g>
<!-- 3&#45;&gt;7 -->
<g id="edge5" class="edge">
<title>3&#45;&gt;7</title>
<path fill="none" stroke="#000000" d="M504.1031,-671.7987C485.8939,-657.1068 460.0994,-636.2948 440.068,-620.1328"/>
<polygon fill="#000000" stroke="#000000" points="442.1319,-617.3008 432.1514,-613.7454 437.7363,-622.7487 442.1319,-617.3008"/>
</g>
<!-- 8 -->
<g id="node7" class="node">
<title>8</title>
<polygon fill="none" stroke="#000000" points="575.5564,-613.6 477.7674,-613.6 477.7674,-577.6 575.5564,-577.6 575.5564,-613.6"/>
<text text-anchor="middle" x="526.6619" y="-591.4" font-family="Times,serif" font-size="14.00" fill="#000000"> loan &lt;= 2180 </text>
</g>
<!-- 3&#45;&gt;8 -->
<g id="edge6" class="edge">
<title>3&#45;&gt;8</title>
<path fill="none" stroke="#000000" d="M526.6619,-671.7987C526.6619,-658.2169 526.6619,-639.4048 526.6619,-623.8711"/>
<polygon fill="#000000" stroke="#000000" points="530.162,-623.7454 526.6619,-613.7454 523.162,-623.7454 530.162,-623.7454"/>
</g>
<!-- 13 -->
<g id="node8" class="node">
<title>13</title>
<polygon fill="none" stroke="#000000" points="335.8778,-519.2 249.446,-519.2 249.446,-483.2 335.8778,-483.2 335.8778,-519.2"/>
<text text-anchor="middle" x="292.6619" y="-497" font-family="Times,serif" font-size="14.00" fill="#000000"> friday &lt;= 0 </text>
</g>
<!-- 7&#45;&gt;13 -->
<g id="edge7" class="edge">
<title>7&#45;&gt;13</title>
<path fill="none" stroke="#000000" d="M387.1031,-577.3987C368.8939,-562.7068 343.0994,-541.8948 323.068,-525.7328"/>
<polygon fill="#000000" stroke="#000000" points="325.1319,-522.9008 315.1514,-519.3454 320.7363,-528.3487 325.1319,-522.9008"/>
</g>
<!-- 14 -->
<g id="node9" class="node">
<title>14</title>
<polygon fill="none" stroke="#000000" points="458.9473,-519.2 360.3765,-519.2 360.3765,-483.2 458.9473,-483.2 458.9473,-519.2"/>
<text text-anchor="middle" x="409.6619" y="-497" font-family="Times,serif" font-size="14.00" fill="#000000"> subj.pr &lt;= 85 </text>
</g>
<!-- 7&#45;&gt;14 -->
<g id="edge8" class="edge">
<title>7&#45;&gt;14</title>
<path fill="none" stroke="#000000" d="M409.6619,-577.3987C409.6619,-563.8169 409.6619,-545.0048 409.6619,-529.4711"/>
<polygon fill="#000000" stroke="#000000" points="413.162,-529.3454 409.6619,-519.3454 406.162,-529.3454 413.162,-529.3454"/>
</g>
<!-- 15 -->
<g id="node28" class="node">
<title>15</title>
<polygon fill="#c1b2ff" stroke="#c1b2ff" points="576.4862,-530.6014 476.8376,-530.6014 476.8376,-471.7986 576.4862,-471.7986 576.4862,-530.6014"/>
<text text-anchor="middle" x="526.6619" y="-513.8" font-family="Times,serif" font-size="14.00" fill="#000000">size = &#160;27 </text>
<text text-anchor="middle" x="526.6619" y="-497" font-family="Times,serif" font-size="14.00" fill="#000000"> avg_Y = 1.3</text>
<text text-anchor="middle" x="526.6619" y="-480.2" font-family="Times,serif" font-size="14.00" fill="#000000">avg_W = 0.56 </text>
</g>
<!-- 8&#45;&gt;15 -->
<g id="edge27" class="edge">
<title>8&#45;&gt;15</title>
<path fill="none" stroke="#000000" d="M526.6619,-577.3987C526.6619,-566.9143 526.6619,-553.3133 526.6619,-540.5095"/>
<polygon fill="#000000" stroke="#000000" points="530.162,-540.4867 526.6619,-530.4868 523.162,-540.4868 530.162,-540.4867"/>
</g>
<!-- 16 -->
<g id="node29" class="node">
<title>16</title>
<polygon fill="#c1b2ff" stroke="#c1b2ff" points="693.4862,-530.6014 593.8376,-530.6014 593.8376,-471.7986 693.4862,-471.7986 693.4862,-530.6014"/>
<text text-anchor="middle" x="643.6619" y="-513.8" font-family="Times,serif" font-size="14.00" fill="#000000">size = &#160;17 </text>
<text text-anchor="middle" x="643.6619" y="-497" font-family="Times,serif" font-size="14.00" fill="#000000"> avg_Y = 1.33</text>
<text text-anchor="middle" x="643.6619" y="-480.2" font-family="Times,serif" font-size="14.00" fill="#000000">avg_W = 0.41 </text>
</g>
<!-- 8&#45;&gt;16 -->
<g id="edge28" class="edge">
<title>8&#45;&gt;16</title>
<path fill="none" stroke="#000000" d="M549.2207,-577.3987C563.373,-565.9801 582.1073,-550.8646 599.1568,-537.1084"/>
<polygon fill="#000000" stroke="#000000" points="601.7788,-539.4901 607.3637,-530.4868 597.3832,-534.0422 601.7788,-539.4901"/>
</g>
<!-- 19 -->
<g id="node10" class="node">
<title>19</title>
<polygon fill="none" stroke="#000000" points="224.5564,-424.8 126.7674,-424.8 126.7674,-388.8 224.5564,-388.8 224.5564,-424.8"/>
<text text-anchor="middle" x="175.6619" y="-402.6" font-family="Times,serif" font-size="14.00" fill="#000000"> loan &lt;= 2330 </text>
</g>
<!-- 13&#45;&gt;19 -->
<g id="edge9" class="edge">
<title>13&#45;&gt;19</title>
<path fill="none" stroke="#000000" d="M270.1031,-482.9987C251.8939,-468.3068 226.0994,-447.4948 206.068,-431.3328"/>
<polygon fill="#000000" stroke="#000000" points="208.1319,-428.5008 198.1514,-424.9454 203.7363,-433.9487 208.1319,-428.5008"/>
</g>
<!-- 20 -->
<g id="node11" class="node">
<title>20</title>
<polygon fill="#c1b2ff" stroke="#c1b2ff" points="342.4862,-436.2014 242.8376,-436.2014 242.8376,-377.3986 342.4862,-377.3986 342.4862,-436.2014"/>
<text text-anchor="middle" x="292.6619" y="-419.4" font-family="Times,serif" font-size="14.00" fill="#000000">size = &#160;6 </text>
<text text-anchor="middle" x="292.6619" y="-402.6" font-family="Times,serif" font-size="14.00" fill="#000000"> avg_Y = 1.31</text>
<text text-anchor="middle" x="292.6619" y="-385.8" font-family="Times,serif" font-size="14.00" fill="#000000">avg_W = 0.67 </text>
</g>
<!-- 13&#45;&gt;20 -->
<g id="edge10" class="edge">
<title>13&#45;&gt;20</title>
<path fill="none" stroke="#000000" d="M292.6619,-482.9987C292.6619,-472.5143 292.6619,-458.9133 292.6619,-446.1095"/>
<polygon fill="#000000" stroke="#000000" points="296.162,-446.0867 292.6619,-436.0868 289.162,-446.0868 296.162,-446.0867"/>
</g>
<!-- 21 -->
<g id="node16" class="node">
<title>21</title>
<polygon fill="#c1b2ff" stroke="#c1b2ff" points="459.4862,-436.2014 359.8376,-436.2014 359.8376,-377.3986 459.4862,-377.3986 459.4862,-436.2014"/>
<text text-anchor="middle" x="409.6619" y="-419.4" font-family="Times,serif" font-size="14.00" fill="#000000">size = &#160;12 </text>
<text text-anchor="middle" x="409.6619" y="-402.6" font-family="Times,serif" font-size="14.00" fill="#000000"> avg_Y = 1.39</text>
<text text-anchor="middle" x="409.6619" y="-385.8" font-family="Times,serif" font-size="14.00" fill="#000000">avg_W = 0.58 </text>
</g>
<!-- 14&#45;&gt;21 -->
<g id="edge15" class="edge">
<title>14&#45;&gt;21</title>
<path fill="none" stroke="#000000" d="M409.6619,-482.9987C409.6619,-472.5143 409.6619,-458.9133 409.6619,-446.1095"/>
<polygon fill="#000000" stroke="#000000" points="413.162,-446.0867 409.6619,-436.0868 406.162,-446.0868 413.162,-446.0867"/>
</g>
<!-- 22 -->
<g id="node17" class="node">
<title>22</title>
<polygon fill="none" stroke="#000000" points="578.5416,-424.8 476.7822,-424.8 476.7822,-388.8 578.5416,-388.8 578.5416,-424.8"/>
<text text-anchor="middle" x="527.6619" y="-402.6" font-family="Times,serif" font-size="14.00" fill="#000000"> branch.4 &lt;= 0 </text>
</g>
<!-- 14&#45;&gt;22 -->
<g id="edge16" class="edge">
<title>14&#45;&gt;22</title>
<path fill="none" stroke="#000000" d="M432.4135,-482.9987C450.7783,-468.3068 476.7933,-447.4948 496.996,-431.3328"/>
<polygon fill="#000000" stroke="#000000" points="499.3579,-433.9254 504.9802,-424.9454 494.985,-428.4593 499.3579,-433.9254"/>
</g>
<!-- 25 -->
<g id="node12" class="node">
<title>25</title>
<polygon fill="none" stroke="#000000" points="139.0564,-330.4 48.2674,-330.4 48.2674,-294.4 139.0564,-294.4 139.0564,-330.4"/>
<text text-anchor="middle" x="93.6619" y="-308.2" font-family="Times,serif" font-size="14.00" fill="#000000"> loan &lt;= 880 </text>
</g>
<!-- 19&#45;&gt;25 -->
<g id="edge11" class="edge">
<title>19&#45;&gt;25</title>
<path fill="none" stroke="#000000" d="M159.8515,-388.5987C147.4865,-374.3639 130.131,-354.3839 116.2939,-338.4544"/>
<polygon fill="#000000" stroke="#000000" points="118.624,-335.7997 109.4238,-330.5454 113.3393,-340.3902 118.624,-335.7997"/>
</g>
<!-- 26 -->
<g id="node13" class="node">
<title>26</title>
<polygon fill="#c1b2ff" stroke="#c1b2ff" points="249.9863,-341.8014 157.3375,-341.8014 157.3375,-282.9986 249.9863,-282.9986 249.9863,-341.8014"/>
<text text-anchor="middle" x="203.6619" y="-325" font-family="Times,serif" font-size="14.00" fill="#000000">size = &#160;20 </text>
<text text-anchor="middle" x="203.6619" y="-308.2" font-family="Times,serif" font-size="14.00" fill="#000000"> avg_Y = 1.4</text>
<text text-anchor="middle" x="203.6619" y="-291.4" font-family="Times,serif" font-size="14.00" fill="#000000">avg_W = 0.6 </text>
</g>
<!-- 19&#45;&gt;26 -->
<g id="edge12" class="edge">
<title>19&#45;&gt;26</title>
<path fill="none" stroke="#000000" d="M181.0606,-388.5987C184.2011,-378.0105 188.2846,-364.2436 192.115,-351.3294"/>
<polygon fill="#000000" stroke="#000000" points="195.4869,-352.2692 194.9751,-341.6868 188.7759,-350.2786 195.4869,-352.2692"/>
</g>
<!-- 31 -->
<g id="node14" class="node">
<title>31</title>
<polygon fill="#c1b2ff" stroke="#c1b2ff" points="99.4862,-247.4014 -.1624,-247.4014 -.1624,-188.5986 99.4862,-188.5986 99.4862,-247.4014"/>
<text text-anchor="middle" x="49.6619" y="-230.6" font-family="Times,serif" font-size="14.00" fill="#000000">size = &#160;21 </text>
<text text-anchor="middle" x="49.6619" y="-213.8" font-family="Times,serif" font-size="14.00" fill="#000000"> avg_Y = 1.39</text>
<text text-anchor="middle" x="49.6619" y="-197" font-family="Times,serif" font-size="14.00" fill="#000000">avg_W = 0.67 </text>
</g>
<!-- 25&#45;&gt;31 -->
<g id="edge13" class="edge">
<title>25&#45;&gt;31</title>
<path fill="none" stroke="#000000" d="M85.1783,-294.1987C80.1947,-283.5067 73.7003,-269.5734 67.63,-256.5498"/>
<polygon fill="#000000" stroke="#000000" points="70.7095,-254.8719 63.3125,-247.2868 64.3649,-257.8292 70.7095,-254.8719"/>
</g>
<!-- 32 -->
<g id="node15" class="node">
<title>32</title>
<polygon fill="#c1b2ff" stroke="#c1b2ff" points="213.8779,-247.4014 117.4459,-247.4014 117.4459,-188.5986 213.8779,-188.5986 213.8779,-247.4014"/>
<text text-anchor="middle" x="165.6619" y="-230.6" font-family="Times,serif" font-size="14.00" fill="#000000">size = &#160;14 </text>
<text text-anchor="middle" x="165.6619" y="-213.8" font-family="Times,serif" font-size="14.00" fill="#000000"> avg_Y = 1.46</text>
<text text-anchor="middle" x="165.6619" y="-197" font-family="Times,serif" font-size="14.00" fill="#000000">avg_W = 0.5 </text>
</g>
<!-- 25&#45;&gt;32 -->
<g id="edge14" class="edge">
<title>25&#45;&gt;32</title>
<path fill="none" stroke="#000000" d="M107.5442,-294.1987C115.9367,-283.1953 126.9474,-268.759 137.1256,-255.4142"/>
<polygon fill="#000000" stroke="#000000" points="140.0429,-257.3606 143.3245,-247.2868 134.4771,-253.1154 140.0429,-257.3606"/>
</g>
<!-- 27 -->
<g id="node18" class="node">
<title>27</title>
<polygon fill="none" stroke="#000000" points="504.8208,-330.4 402.503,-330.4 402.503,-294.4 504.8208,-294.4 504.8208,-330.4"/>
<text text-anchor="middle" x="453.6619" y="-308.2" font-family="Times,serif" font-size="14.00" fill="#000000"> fam.asks &lt;= 0 </text>
</g>
<!-- 22&#45;&gt;27 -->
<g id="edge17" class="edge">
<title>22&#45;&gt;27</title>
<path fill="none" stroke="#000000" d="M513.394,-388.5987C502.2353,-374.3639 486.573,-354.3839 474.0859,-338.4544"/>
<polygon fill="#000000" stroke="#000000" points="476.81,-336.2562 467.886,-330.5454 471.3009,-340.5748 476.81,-336.2562"/>
</g>
<!-- 28 -->
<g id="node19" class="node">
<title>28</title>
<polygon fill="none" stroke="#000000" points="610.3806,-330.4 530.9432,-330.4 530.9432,-294.4 610.3806,-294.4 610.3806,-330.4"/>
<text text-anchor="middle" x="570.6619" y="-308.2" font-family="Times,serif" font-size="14.00" fill="#000000"> age &lt;= 50 </text>
</g>
<!-- 22&#45;&gt;28 -->
<g id="edge18" class="edge">
<title>22&#45;&gt;28</title>
<path fill="none" stroke="#000000" d="M535.9527,-388.5987C542.2583,-374.7557 551.0389,-355.4794 558.1907,-339.7787"/>
<polygon fill="#000000" stroke="#000000" points="561.4363,-341.0966 562.3965,-330.5454 555.066,-338.1949 561.4363,-341.0966"/>
</g>
<!-- 33 -->
<g id="node20" class="node">
<title>33</title>
<polygon fill="none" stroke="#000000" points="385.5564,-236 287.7674,-236 287.7674,-200 385.5564,-200 385.5564,-236"/>
<text text-anchor="middle" x="336.6619" y="-213.8" font-family="Times,serif" font-size="14.00" fill="#000000"> loan &lt;= 1610 </text>
</g>
<!-- 27&#45;&gt;33 -->
<g id="edge19" class="edge">
<title>27&#45;&gt;33</title>
<path fill="none" stroke="#000000" d="M431.1031,-294.1987C412.8939,-279.5068 387.0994,-258.6948 367.068,-242.5328"/>
<polygon fill="#000000" stroke="#000000" points="369.1319,-239.7008 359.1514,-236.1454 364.7363,-245.1487 369.1319,-239.7008"/>
</g>
<!-- 34 -->
<g id="node21" class="node">
<title>34</title>
<polygon fill="#c1b2ff" stroke="#c1b2ff" points="503.4862,-247.4014 403.8376,-247.4014 403.8376,-188.5986 503.4862,-188.5986 503.4862,-247.4014"/>
<text text-anchor="middle" x="453.6619" y="-230.6" font-family="Times,serif" font-size="14.00" fill="#000000">size = &#160;27 </text>
<text text-anchor="middle" x="453.6619" y="-213.8" font-family="Times,serif" font-size="14.00" fill="#000000"> avg_Y = 1.35</text>
<text text-anchor="middle" x="453.6619" y="-197" font-family="Times,serif" font-size="14.00" fill="#000000">avg_W = 0.37 </text>
</g>
<!-- 27&#45;&gt;34 -->
<g id="edge20" class="edge">
<title>27&#45;&gt;34</title>
<path fill="none" stroke="#000000" d="M453.6619,-294.1987C453.6619,-283.7143 453.6619,-270.1133 453.6619,-257.3095"/>
<polygon fill="#000000" stroke="#000000" points="457.162,-257.2867 453.6619,-247.2868 450.162,-257.2868 457.162,-257.2867"/>
</g>
<!-- 35 -->
<g id="node26" class="node">
<title>35</title>
<polygon fill="#c1b2ff" stroke="#c1b2ff" points="620.4862,-247.4014 520.8376,-247.4014 520.8376,-188.5986 620.4862,-188.5986 620.4862,-247.4014"/>
<text text-anchor="middle" x="570.6619" y="-230.6" font-family="Times,serif" font-size="14.00" fill="#000000">size = &#160;9 </text>
<text text-anchor="middle" x="570.6619" y="-213.8" font-family="Times,serif" font-size="14.00" fill="#000000"> avg_Y = 1.59</text>
<text text-anchor="middle" x="570.6619" y="-197" font-family="Times,serif" font-size="14.00" fill="#000000">avg_W = 0.56 </text>
</g>
<!-- 28&#45;&gt;35 -->
<g id="edge25" class="edge">
<title>28&#45;&gt;35</title>
<path fill="none" stroke="#000000" d="M570.6619,-294.1987C570.6619,-283.7143 570.6619,-270.1133 570.6619,-257.3095"/>
<polygon fill="#000000" stroke="#000000" points="574.162,-257.2867 570.6619,-247.2868 567.162,-257.2868 574.162,-257.2867"/>
</g>
<!-- 36 -->
<g id="node27" class="node">
<title>36</title>
<polygon fill="#c1b2ff" stroke="#c1b2ff" points="734.8779,-247.4014 638.4459,-247.4014 638.4459,-188.5986 734.8779,-188.5986 734.8779,-247.4014"/>
<text text-anchor="middle" x="686.6619" y="-230.6" font-family="Times,serif" font-size="14.00" fill="#000000">size = &#160;4 </text>
<text text-anchor="middle" x="686.6619" y="-213.8" font-family="Times,serif" font-size="14.00" fill="#000000"> avg_Y = 1.43</text>
<text text-anchor="middle" x="686.6619" y="-197" font-family="Times,serif" font-size="14.00" fill="#000000">avg_W = 0.5 </text>
</g>
<!-- 28&#45;&gt;36 -->
<g id="edge26" class="edge">
<title>28&#45;&gt;36</title>
<path fill="none" stroke="#000000" d="M593.0279,-294.1987C607.0593,-282.7801 625.6334,-267.6646 642.5371,-253.9084"/>
<polygon fill="#000000" stroke="#000000" points="645.1269,-256.3134 650.6739,-247.2868 640.7085,-250.8841 645.1269,-256.3134"/>
</g>
<!-- 37 -->
<g id="node22" class="node">
<title>37</title>
<polygon fill="none" stroke="#000000" points="322.3806,-141.6 242.9432,-141.6 242.9432,-105.6 322.3806,-105.6 322.3806,-141.6"/>
<text text-anchor="middle" x="282.6619" y="-119.4" font-family="Times,serif" font-size="14.00" fill="#000000"> age &lt;= 41 </text>
</g>
<!-- 33&#45;&gt;37 -->
<g id="edge21" class="edge">
<title>33&#45;&gt;37</title>
<path fill="none" stroke="#000000" d="M326.2502,-199.7987C318.2568,-185.8251 307.0964,-166.3152 298.0698,-150.5353"/>
<polygon fill="#000000" stroke="#000000" points="301.0451,-148.6877 293.0417,-141.7454 294.969,-152.1635 301.0451,-148.6877"/>
</g>
<!-- 38 -->
<g id="node23" class="node">
<title>38</title>
<polygon fill="#c1b2ff" stroke="#c1b2ff" points="439.4862,-153.0014 339.8376,-153.0014 339.8376,-94.1986 439.4862,-94.1986 439.4862,-153.0014"/>
<text text-anchor="middle" x="389.6619" y="-136.2" font-family="Times,serif" font-size="14.00" fill="#000000">size = &#160;15 </text>
<text text-anchor="middle" x="389.6619" y="-119.4" font-family="Times,serif" font-size="14.00" fill="#000000"> avg_Y = 1.29</text>
<text text-anchor="middle" x="389.6619" y="-102.6" font-family="Times,serif" font-size="14.00" fill="#000000">avg_W = 0.53 </text>
</g>
<!-- 33&#45;&gt;38 -->
<g id="edge22" class="edge">
<title>33&#45;&gt;38</title>
<path fill="none" stroke="#000000" d="M346.8808,-199.7987C352.942,-189.0029 360.8586,-174.9025 368.2313,-161.7707"/>
<polygon fill="#000000" stroke="#000000" points="371.3754,-163.3199 373.2191,-152.8868 365.2716,-159.893 371.3754,-163.3199"/>
</g>
<!-- 39 -->
<g id="node24" class="node">
<title>39</title>
<polygon fill="#c1b2ff" stroke="#c1b2ff" points="272.8779,-58.6014 176.4459,-58.6014 176.4459,.2014 272.8779,.2014 272.8779,-58.6014"/>
<text text-anchor="middle" x="224.6619" y="-41.8" font-family="Times,serif" font-size="14.00" fill="#000000">size = &#160;8 </text>
<text text-anchor="middle" x="224.6619" y="-25" font-family="Times,serif" font-size="14.00" fill="#000000"> avg_Y = 1.29</text>
<text text-anchor="middle" x="224.6619" y="-8.2" font-family="Times,serif" font-size="14.00" fill="#000000">avg_W = 0 </text>
</g>
<!-- 37&#45;&gt;39 -->
<g id="edge23" class="edge">
<title>37&#45;&gt;39</title>
<path fill="none" stroke="#000000" d="M271.4789,-105.3987C264.8459,-94.6029 256.1825,-80.5025 248.1143,-67.3707"/>
<polygon fill="#000000" stroke="#000000" points="250.873,-65.1748 242.6559,-58.4868 244.9087,-68.8393 250.873,-65.1748"/>
</g>
<!-- 40 -->
<g id="node25" class="node">
<title>40</title>
<polygon fill="#c1b2ff" stroke="#c1b2ff" points="390.4862,-58.6014 290.8376,-58.6014 290.8376,.2014 390.4862,.2014 390.4862,-58.6014"/>
<text text-anchor="middle" x="340.6619" y="-41.8" font-family="Times,serif" font-size="14.00" fill="#000000">size = &#160;13 </text>
<text text-anchor="middle" x="340.6619" y="-25" font-family="Times,serif" font-size="14.00" fill="#000000"> avg_Y = 1.33</text>
<text text-anchor="middle" x="340.6619" y="-8.2" font-family="Times,serif" font-size="14.00" fill="#000000">avg_W = 0.54 </text>
</g>
<!-- 37&#45;&gt;40 -->
<g id="edge24" class="edge">
<title>37&#45;&gt;40</title>
<path fill="none" stroke="#000000" d="M293.8449,-105.3987C300.4779,-94.6029 309.1413,-80.5025 317.2095,-67.3707"/>
<polygon fill="#000000" stroke="#000000" points="320.4151,-68.8393 322.6679,-58.4868 314.4508,-65.1748 320.4151,-68.8393"/>
</g>
<!-- 9 -->
<g id="node32" class="node">
<title>9</title>
<polygon fill="#c1b2ff" stroke="#c1b2ff" points="693.4862,-625.0014 593.8376,-625.0014 593.8376,-566.1986 693.4862,-566.1986 693.4862,-625.0014"/>
<text text-anchor="middle" x="643.6619" y="-608.2" font-family="Times,serif" font-size="14.00" fill="#000000">size = &#160;21 </text>
<text text-anchor="middle" x="643.6619" y="-591.4" font-family="Times,serif" font-size="14.00" fill="#000000"> avg_Y = 1.48</text>
<text text-anchor="middle" x="643.6619" y="-574.6" font-family="Times,serif" font-size="14.00" fill="#000000">avg_W = 0.43 </text>
</g>
<!-- 5&#45;&gt;9 -->
<g id="edge31" class="edge">
<title>5&#45;&gt;9</title>
<path fill="none" stroke="#000000" d="M734.8744,-671.7987C721.2059,-660.3801 703.1121,-645.2646 686.6455,-631.5084"/>
<polygon fill="#000000" stroke="#000000" points="688.6375,-628.6119 678.7191,-624.8868 684.1497,-633.984 688.6375,-628.6119"/>
</g>
<!-- 10 -->
<g id="node33" class="node">
<title>10</title>
<polygon fill="#c1b2ff" stroke="#c1b2ff" points="810.4862,-625.0014 710.8376,-625.0014 710.8376,-566.1986 810.4862,-566.1986 810.4862,-625.0014"/>
<text text-anchor="middle" x="760.6619" y="-608.2" font-family="Times,serif" font-size="14.00" fill="#000000">size = &#160;18 </text>
<text text-anchor="middle" x="760.6619" y="-591.4" font-family="Times,serif" font-size="14.00" fill="#000000"> avg_Y = 1.39</text>
<text text-anchor="middle" x="760.6619" y="-574.6" font-family="Times,serif" font-size="14.00" fill="#000000">avg_W = 0.61 </text>
</g>
<!-- 5&#45;&gt;10 -->
<g id="edge32" class="edge">
<title>5&#45;&gt;10</title>
<path fill="none" stroke="#000000" d="M757.4331,-671.7987C757.8774,-661.3143 758.4537,-647.7133 758.9962,-634.9095"/>
<polygon fill="#000000" stroke="#000000" points="762.4944,-635.026 759.4209,-624.8868 755.5006,-634.7296 762.4944,-635.026"/>
</g>
<!-- 11 -->
<g id="node34" class="node">
<title>11</title>
<polygon fill="none" stroke="#000000" points="929.5416,-613.6 827.7822,-613.6 827.7822,-577.6 929.5416,-577.6 929.5416,-613.6"/>
<text text-anchor="middle" x="878.6619" y="-591.4" font-family="Times,serif" font-size="14.00" fill="#000000"> branch.1 &lt;= 0 </text>
</g>
<!-- 6&#45;&gt;11 -->
<g id="edge33" class="edge">
<title>6&#45;&gt;11</title>
<path fill="none" stroke="#000000" d="M878.6619,-671.7987C878.6619,-658.2169 878.6619,-639.4048 878.6619,-623.8711"/>
<polygon fill="#000000" stroke="#000000" points="882.162,-623.7454 878.6619,-613.7454 875.162,-623.7454 882.162,-623.7454"/>
</g>
<!-- 12 -->
<g id="node35" class="node">
<title>12</title>
<polygon fill="#c1b2ff" stroke="#c1b2ff" points="1046.4862,-625.0014 946.8376,-625.0014 946.8376,-566.1986 1046.4862,-566.1986 1046.4862,-625.0014"/>
<text text-anchor="middle" x="996.6619" y="-608.2" font-family="Times,serif" font-size="14.00" fill="#000000">size = &#160;17 </text>
<text text-anchor="middle" x="996.6619" y="-591.4" font-family="Times,serif" font-size="14.00" fill="#000000"> avg_Y = 1.45</text>
<text text-anchor="middle" x="996.6619" y="-574.6" font-family="Times,serif" font-size="14.00" fill="#000000">avg_W = 0.59 </text>
</g>
<!-- 6&#45;&gt;12 -->
<g id="edge34" class="edge">
<title>6&#45;&gt;12</title>
<path fill="none" stroke="#000000" d="M901.4135,-671.7987C915.6868,-660.3801 934.5812,-645.2646 951.7764,-631.5084"/>
<polygon fill="#000000" stroke="#000000" points="954.4312,-633.8668 960.0535,-624.8868 950.0583,-628.4007 954.4312,-633.8668"/>
</g>
<!-- 17 -->
<g id="node36" class="node">
<title>17</title>
<polygon fill="none" stroke="#000000" points="869.5564,-519.2 771.7674,-519.2 771.7674,-483.2 869.5564,-483.2 869.5564,-519.2"/>
<text text-anchor="middle" x="820.6619" y="-497" font-family="Times,serif" font-size="14.00" fill="#000000"> loan &lt;= 2370 </text>
</g>
<!-- 11&#45;&gt;17 -->
<g id="edge35" class="edge">
<title>11&#45;&gt;17</title>
<path fill="none" stroke="#000000" d="M867.4789,-577.3987C858.8934,-563.4251 846.9064,-543.9152 837.2111,-528.1353"/>
<polygon fill="#000000" stroke="#000000" points="840.0276,-526.0335 831.8106,-519.3454 834.0634,-529.6979 840.0276,-526.0335"/>
</g>
<!-- 18 -->
<g id="node37" class="node">
<title>18</title>
<polygon fill="#c1b2ff" stroke="#c1b2ff" points="987.4862,-530.6014 887.8376,-530.6014 887.8376,-471.7986 987.4862,-471.7986 987.4862,-530.6014"/>
<text text-anchor="middle" x="937.6619" y="-513.8" font-family="Times,serif" font-size="14.00" fill="#000000">size = &#160;9 </text>
<text text-anchor="middle" x="937.6619" y="-497" font-family="Times,serif" font-size="14.00" fill="#000000"> avg_Y = 1.43</text>
<text text-anchor="middle" x="937.6619" y="-480.2" font-family="Times,serif" font-size="14.00" fill="#000000">avg_W = 0.33 </text>
</g>
<!-- 11&#45;&gt;18 -->
<g id="edge36" class="edge">
<title>11&#45;&gt;18</title>
<path fill="none" stroke="#000000" d="M890.0377,-577.3987C896.85,-566.4991 905.7675,-552.2311 914.0418,-538.9922"/>
<polygon fill="#000000" stroke="#000000" points="917.0256,-540.8218 919.3577,-530.4868 911.0896,-537.1117 917.0256,-540.8218"/>
</g>
<!-- 23 -->
<g id="node38" class="node">
<title>23</title>
<polygon fill="none" stroke="#000000" points="842.7673,-424.8 714.5565,-424.8 714.5565,-388.8 842.7673,-388.8 842.7673,-424.8"/>
<text text-anchor="middle" x="778.6619" y="-402.6" font-family="Times,serif" font-size="14.00" fill="#000000"> income.index &lt;= 0 </text>
</g>
<!-- 17&#45;&gt;23 -->
<g id="edge37" class="edge">
<title>17&#45;&gt;23</title>
<path fill="none" stroke="#000000" d="M812.5639,-482.9987C806.4049,-469.1557 797.8286,-449.8794 790.8431,-434.1787"/>
<polygon fill="#000000" stroke="#000000" points="793.9979,-432.6592 786.7351,-424.9454 787.6023,-435.5047 793.9979,-432.6592"/>
</g>
<!-- 24 -->
<g id="node39" class="node">
<title>24</title>
<polygon fill="#c1b2ff" stroke="#c1b2ff" points="960.4862,-436.2014 860.8376,-436.2014 860.8376,-377.3986 960.4862,-377.3986 960.4862,-436.2014"/>
<text text-anchor="middle" x="910.6619" y="-419.4" font-family="Times,serif" font-size="14.00" fill="#000000">size = &#160;12 </text>
<text text-anchor="middle" x="910.6619" y="-402.6" font-family="Times,serif" font-size="14.00" fill="#000000"> avg_Y = 1.44</text>
<text text-anchor="middle" x="910.6619" y="-385.8" font-family="Times,serif" font-size="14.00" fill="#000000">avg_W = 0.33 </text>
</g>
<!-- 17&#45;&gt;24 -->
<g id="edge38" class="edge">
<title>17&#45;&gt;24</title>
<path fill="none" stroke="#000000" d="M838.0148,-482.9987C848.7033,-471.7877 862.7893,-457.013 875.7106,-443.4601"/>
<polygon fill="#000000" stroke="#000000" points="878.373,-445.7397 882.7402,-436.0868 873.3066,-440.9094 878.373,-445.7397"/>
</g>
<!-- 29 -->
<g id="node40" class="node">
<title>29</title>
<polygon fill="#c1b2ff" stroke="#c1b2ff" points="769.4862,-341.8014 669.8376,-341.8014 669.8376,-282.9986 769.4862,-282.9986 769.4862,-341.8014"/>
<text text-anchor="middle" x="719.6619" y="-325" font-family="Times,serif" font-size="14.00" fill="#000000">size = &#160;12 </text>
<text text-anchor="middle" x="719.6619" y="-308.2" font-family="Times,serif" font-size="14.00" fill="#000000"> avg_Y = 1.46</text>
<text text-anchor="middle" x="719.6619" y="-291.4" font-family="Times,serif" font-size="14.00" fill="#000000">avg_W = 0.83 </text>
</g>
<!-- 23&#45;&gt;29 -->
<g id="edge39" class="edge">
<title>23&#45;&gt;29</title>
<path fill="none" stroke="#000000" d="M767.2861,-388.5987C760.4738,-377.6991 751.5563,-363.4311 743.282,-350.1922"/>
<polygon fill="#000000" stroke="#000000" points="746.2342,-348.3117 737.9661,-341.6868 740.2982,-352.0218 746.2342,-348.3117"/>
</g>
<!-- 30 -->
<g id="node41" class="node">
<title>30</title>
<polygon fill="#c1b2ff" stroke="#c1b2ff" points="886.4862,-341.8014 786.8376,-341.8014 786.8376,-282.9986 886.4862,-282.9986 886.4862,-341.8014"/>
<text text-anchor="middle" x="836.6619" y="-325" font-family="Times,serif" font-size="14.00" fill="#000000">size = &#160;17 </text>
<text text-anchor="middle" x="836.6619" y="-308.2" font-family="Times,serif" font-size="14.00" fill="#000000"> avg_Y = 1.43</text>
<text text-anchor="middle" x="836.6619" y="-291.4" font-family="Times,serif" font-size="14.00" fill="#000000">avg_W = 0.53 </text>
</g>
<!-- 23&#45;&gt;30 -->
<g id="edge40" class="edge">
<title>23&#45;&gt;30</title>
<path fill="none" stroke="#000000" d="M789.8449,-388.5987C796.4779,-377.8029 805.1413,-363.7025 813.2095,-350.5707"/>
<polygon fill="#000000" stroke="#000000" points="816.4151,-352.0393 818.6679,-341.6868 810.4508,-348.3748 816.4151,-352.0393"/>
</g>
</g>
</svg>
