<?xml version="1.0" encoding="UTF-8" standalone="no"?>
<!DOCTYPE svg PUBLIC "-//W3C//DTD SVG 1.1//EN"
 "http://www.w3.org/Graphics/SVG/1.1/DTD/svg11.dtd">
<!-- Generated by graphviz version 2.40.1 (20161225.0304)
 -->
<!-- Title: nodes Pages: 1 -->
<svg width="613pt" height="494pt"
 viewBox="0.00 0.00 612.88 493.60" xmlns="http://www.w3.org/2000/svg" xmlns:xlink="http://www.w3.org/1999/xlink">
<g id="graph0" class="graph" transform="scale(1 1) rotate(0) translate(4 489.6)">
<title>nodes</title>
<polygon fill="#ffffff" stroke="transparent" points="-4,4 -4,-489.6 608.8764,-489.6 608.8764,4 -4,4"/>
<!-- 0 -->
<g id="node1" class="node">
<title>0</title>
<polygon fill="none" stroke="#000000" points="422.0971,-485.6 298.7793,-485.6 298.7793,-449.6 422.0971,-449.6 422.0971,-485.6"/>
<text text-anchor="middle" x="360.4382" y="-463.4" font-family="Times,serif" font-size="14.00" fill="#000000"> loan.size &lt;= 3860 </text>
</g>
<!-- 1 -->
<g id="node2" class="node">
<title>1</title>
<polygon fill="none" stroke="#000000" points="349.5971,-413.6 233.2793,-413.6 233.2793,-377.6 349.5971,-377.6 349.5971,-413.6"/>
<text text-anchor="middle" x="291.4382" y="-391.4" font-family="Times,serif" font-size="14.00" fill="#000000"> loan.size &lt;= 900 </text>
</g>
<!-- 0&#45;&gt;1 -->
<g id="edge1" class="edge">
<title>0&#45;&gt;1</title>
<path fill="none" stroke="#000000" d="M343.0266,-449.4314C334.9172,-440.9694 325.1226,-430.7489 316.2562,-421.4971"/>
<polygon fill="#000000" stroke="#000000" points="318.5303,-418.8115 309.0842,-414.0133 313.4764,-423.6549 318.5303,-418.8115"/>
<text text-anchor="middle" x="308.5525" y="-434.8076" font-family="Times,serif" font-size="14.00" fill="#000000">True</text>
</g>
<!-- 2 -->
<g id="node3" class="node">
<title>2</title>
<polygon fill="none" stroke="#000000" points="491.0971,-413.6 367.7793,-413.6 367.7793,-377.6 491.0971,-377.6 491.0971,-413.6"/>
<text text-anchor="middle" x="429.4382" y="-391.4" font-family="Times,serif" font-size="14.00" fill="#000000"> loan.size &lt;= 4180 </text>
</g>
<!-- 0&#45;&gt;2 -->
<g id="edge2" class="edge">
<title>0&#45;&gt;2</title>
<path fill="none" stroke="#000000" d="M377.8498,-449.4314C385.9592,-440.9694 395.7538,-430.7489 404.6202,-421.4971"/>
<polygon fill="#000000" stroke="#000000" points="407.4,-423.6549 411.7922,-414.0133 402.3461,-418.8115 407.4,-423.6549"/>
<text text-anchor="middle" x="412.3239" y="-434.8076" font-family="Times,serif" font-size="14.00" fill="#000000">False</text>
</g>
<!-- 3 -->
<g id="node4" class="node">
<title>3</title>
<polygon fill="none" stroke="#000000" points="227.5971,-330.4 111.2793,-330.4 111.2793,-294.4 227.5971,-294.4 227.5971,-330.4"/>
<text text-anchor="middle" x="169.4382" y="-308.2" font-family="Times,serif" font-size="14.00" fill="#000000"> loan.size &lt;= 480 </text>
</g>
<!-- 1&#45;&gt;3 -->
<g id="edge3" class="edge">
<title>1&#45;&gt;3</title>
<path fill="none" stroke="#000000" d="M264.966,-377.5468C247.2203,-365.4449 223.6617,-349.3786 204.3804,-336.2295"/>
<polygon fill="#000000" stroke="#000000" points="206.0924,-333.1606 195.8587,-330.4179 202.1484,-338.9438 206.0924,-333.1606"/>
</g>
<!-- 4 -->
<g id="node5" class="node">
<title>4</title>
<polygon fill="none" stroke="#000000" points="339.1569,-330.4 259.7195,-330.4 259.7195,-294.4 339.1569,-294.4 339.1569,-330.4"/>
<text text-anchor="middle" x="299.4382" y="-308.2" font-family="Times,serif" font-size="14.00" fill="#000000"> age &lt;= 60 </text>
</g>
<!-- 1&#45;&gt;4 -->
<g id="edge4" class="edge">
<title>1&#45;&gt;4</title>
<path fill="none" stroke="#000000" d="M293.1741,-377.5468C294.2119,-366.7532 295.553,-352.8061 296.7278,-340.5876"/>
<polygon fill="#000000" stroke="#000000" points="300.2324,-340.707 297.7057,-330.4179 293.2646,-340.037 300.2324,-340.707"/>
</g>
<!-- 5 -->
<g id="node16" class="node">
<title>5</title>
<polygon fill="#c1b2ff" stroke="#c1b2ff" points="472.8147,-341.8014 372.0617,-341.8014 372.0617,-282.9986 472.8147,-282.9986 472.8147,-341.8014"/>
<text text-anchor="middle" x="422.4382" y="-325" font-family="Times,serif" font-size="14.00" fill="#000000">size = &#160;9 </text>
<text text-anchor="middle" x="422.4382" y="-308.2" font-family="Times,serif" font-size="14.00" fill="#000000"> avg_Y = &#45;0.45</text>
<text text-anchor="middle" x="422.4382" y="-291.4" font-family="Times,serif" font-size="14.00" fill="#000000">avg_W = 0.67 </text>
</g>
<!-- 2&#45;&gt;5 -->
<g id="edge15" class="edge">
<title>2&#45;&gt;5</title>
<path fill="none" stroke="#000000" d="M427.9193,-377.5468C427.2824,-369.9769 426.515,-360.856 425.7588,-351.8681"/>
<polygon fill="#000000" stroke="#000000" points="429.2435,-351.5381 424.9174,-341.8668 422.2682,-352.125 429.2435,-351.5381"/>
</g>
<!-- 6 -->
<g id="node17" class="node">
<title>6</title>
<polygon fill="#c1b2ff" stroke="#c1b2ff" points="591.8147,-341.8014 491.0617,-341.8014 491.0617,-282.9986 591.8147,-282.9986 591.8147,-341.8014"/>
<text text-anchor="middle" x="541.4382" y="-325" font-family="Times,serif" font-size="14.00" fill="#000000">size = &#160;63 </text>
<text text-anchor="middle" x="541.4382" y="-308.2" font-family="Times,serif" font-size="14.00" fill="#000000"> avg_Y = &#45;0.46</text>
<text text-anchor="middle" x="541.4382" y="-291.4" font-family="Times,serif" font-size="14.00" fill="#000000">avg_W = 0.43 </text>
</g>
<!-- 2&#45;&gt;6 -->
<g id="edge16" class="edge">
<title>2&#45;&gt;6</title>
<path fill="none" stroke="#000000" d="M453.7405,-377.5468C465.3552,-368.9188 479.6824,-358.2757 493.3652,-348.1114"/>
<polygon fill="#000000" stroke="#000000" points="495.8311,-350.6397 501.7714,-341.8668 491.6568,-345.0204 495.8311,-350.6397"/>
</g>
<!-- 7 -->
<g id="node6" class="node">
<title>7</title>
<polygon fill="#c1b2ff" stroke="#c1b2ff" points="100.8147,-247.4014 .0617,-247.4014 .0617,-188.5986 100.8147,-188.5986 100.8147,-247.4014"/>
<text text-anchor="middle" x="50.4382" y="-230.6" font-family="Times,serif" font-size="14.00" fill="#000000">size = &#160;60 </text>
<text text-anchor="middle" x="50.4382" y="-213.8" font-family="Times,serif" font-size="14.00" fill="#000000"> avg_Y = &#45;0.52</text>
<text text-anchor="middle" x="50.4382" y="-197" font-family="Times,serif" font-size="14.00" fill="#000000">avg_W = 0.52 </text>
</g>
<!-- 3&#45;&gt;7 -->
<g id="edge5" class="edge">
<title>3&#45;&gt;7</title>
<path fill="none" stroke="#000000" d="M146.4938,-294.1987C131.9687,-282.6763 112.6982,-267.3894 95.2316,-253.5336"/>
<polygon fill="#000000" stroke="#000000" points="97.3664,-250.7596 87.3569,-247.2868 93.016,-256.2436 97.3664,-250.7596"/>
</g>
<!-- 8 -->
<g id="node7" class="node">
<title>8</title>
<polygon fill="#c1b2ff" stroke="#c1b2ff" points="219.8147,-247.4014 119.0617,-247.4014 119.0617,-188.5986 219.8147,-188.5986 219.8147,-247.4014"/>
<text text-anchor="middle" x="169.4382" y="-230.6" font-family="Times,serif" font-size="14.00" fill="#000000">size = &#160;104 </text>
<text text-anchor="middle" x="169.4382" y="-213.8" font-family="Times,serif" font-size="14.00" fill="#000000"> avg_Y = &#45;0.44</text>
<text text-anchor="middle" x="169.4382" y="-197" font-family="Times,serif" font-size="14.00" fill="#000000">avg_W = 0.5 </text>
</g>
<!-- 3&#45;&gt;8 -->
<g id="edge6" class="edge">
<title>3&#45;&gt;8</title>
<path fill="none" stroke="#000000" d="M169.4382,-294.1987C169.4382,-283.7143 169.4382,-270.1133 169.4382,-257.3095"/>
<polygon fill="#000000" stroke="#000000" points="172.9383,-257.2867 169.4382,-247.2868 165.9383,-257.2868 172.9383,-257.2867"/>
</g>
<!-- 9 -->
<g id="node8" class="node">
<title>9</title>
<polygon fill="none" stroke="#000000" points="361.0971,-236 237.7793,-236 237.7793,-200 361.0971,-200 361.0971,-236"/>
<text text-anchor="middle" x="299.4382" y="-213.8" font-family="Times,serif" font-size="14.00" fill="#000000"> loan.size &lt;= 2300 </text>
</g>
<!-- 4&#45;&gt;9 -->
<g id="edge7" class="edge">
<title>4&#45;&gt;9</title>
<path fill="none" stroke="#000000" d="M299.4382,-294.1987C299.4382,-280.6169 299.4382,-261.8048 299.4382,-246.2711"/>
<polygon fill="#000000" stroke="#000000" points="302.9383,-246.1454 299.4382,-236.1454 295.9383,-246.1454 302.9383,-246.1454"/>
</g>
<!-- 10 -->
<g id="node9" class="node">
<title>10</title>
<polygon fill="none" stroke="#000000" points="502.0971,-236 378.7793,-236 378.7793,-200 502.0971,-200 502.0971,-236"/>
<text text-anchor="middle" x="440.4382" y="-213.8" font-family="Times,serif" font-size="14.00" fill="#000000"> loan.size &lt;= 1790 </text>
</g>
<!-- 4&#45;&gt;10 -->
<g id="edge8" class="edge">
<title>4&#45;&gt;10</title>
<path fill="none" stroke="#000000" d="M326.6244,-294.1987C348.8615,-279.311 380.4852,-258.1388 404.7569,-241.8888"/>
<polygon fill="#000000" stroke="#000000" points="406.973,-244.6171 413.3354,-236.1454 403.0786,-238.8004 406.973,-244.6171"/>
</g>
<!-- 11 -->
<g id="node10" class="node">
<title>11</title>
<polygon fill="none" stroke="#000000" points="237.4336,-141.6 87.4428,-141.6 87.4428,-105.6 237.4336,-105.6 237.4336,-141.6"/>
<text text-anchor="middle" x="162.4382" y="-119.4" font-family="Times,serif" font-size="14.00" fill="#000000"> more.high.school &lt;= 1 </text>
</g>
<!-- 9&#45;&gt;11 -->
<g id="edge9" class="edge">
<title>9&#45;&gt;11</title>
<path fill="none" stroke="#000000" d="M273.0232,-199.7987C251.417,-184.911 220.6904,-163.7388 197.1073,-147.4888"/>
<polygon fill="#000000" stroke="#000000" points="198.9925,-144.5373 188.7721,-141.7454 195.0207,-150.3015 198.9925,-144.5373"/>
</g>
<!-- 12 -->
<g id="node11" class="node">
<title>12</title>
<polygon fill="#c1b2ff" stroke="#c1b2ff" points="355.8147,-153.0014 255.0617,-153.0014 255.0617,-94.1986 355.8147,-94.1986 355.8147,-153.0014"/>
<text text-anchor="middle" x="305.4382" y="-136.2" font-family="Times,serif" font-size="14.00" fill="#000000">size = &#160;58 </text>
<text text-anchor="middle" x="305.4382" y="-119.4" font-family="Times,serif" font-size="14.00" fill="#000000"> avg_Y = &#45;0.56</text>
<text text-anchor="middle" x="305.4382" y="-102.6" font-family="Times,serif" font-size="14.00" fill="#000000">avg_W = 0.36 </text>
</g>
<!-- 9&#45;&gt;12 -->
<g id="edge10" class="edge">
<title>9&#45;&gt;12</title>
<path fill="none" stroke="#000000" d="M300.5951,-199.7987C301.2614,-189.3143 302.1259,-175.7133 302.9397,-162.9095"/>
<polygon fill="#000000" stroke="#000000" points="306.4353,-163.0887 303.5768,-152.8868 299.4494,-162.6446 306.4353,-163.0887"/>
</g>
<!-- 13 -->
<g id="node14" class="node">
<title>13</title>
<polygon fill="#c1b2ff" stroke="#c1b2ff" points="485.8147,-153.0014 385.0617,-153.0014 385.0617,-94.1986 485.8147,-94.1986 485.8147,-153.0014"/>
<text text-anchor="middle" x="435.4382" y="-136.2" font-family="Times,serif" font-size="14.00" fill="#000000">size = &#160;20 </text>
<text text-anchor="middle" x="435.4382" y="-119.4" font-family="Times,serif" font-size="14.00" fill="#000000"> avg_Y = &#45;0.56</text>
<text text-anchor="middle" x="435.4382" y="-102.6" font-family="Times,serif" font-size="14.00" fill="#000000">avg_W = 0.5 </text>
</g>
<!-- 10&#45;&gt;13 -->
<g id="edge13" class="edge">
<title>10&#45;&gt;13</title>
<path fill="none" stroke="#000000" d="M439.4741,-199.7987C438.9188,-189.3143 438.1984,-175.7133 437.5203,-162.9095"/>
<polygon fill="#000000" stroke="#000000" points="441.0135,-162.6876 436.9894,-152.8868 434.0233,-163.0579 441.0135,-162.6876"/>
</g>
<!-- 14 -->
<g id="node15" class="node">
<title>14</title>
<polygon fill="#c1b2ff" stroke="#c1b2ff" points="604.8147,-153.0014 504.0617,-153.0014 504.0617,-94.1986 604.8147,-94.1986 604.8147,-153.0014"/>
<text text-anchor="middle" x="554.4382" y="-136.2" font-family="Times,serif" font-size="14.00" fill="#000000">size = &#160;15 </text>
<text text-anchor="middle" x="554.4382" y="-119.4" font-family="Times,serif" font-size="14.00" fill="#000000"> avg_Y = &#45;0.44</text>
<text text-anchor="middle" x="554.4382" y="-102.6" font-family="Times,serif" font-size="14.00" fill="#000000">avg_W = 0.4 </text>
</g>
<!-- 10&#45;&gt;14 -->
<g id="edge14" class="edge">
<title>10&#45;&gt;14</title>
<path fill="none" stroke="#000000" d="M462.4185,-199.7987C476.208,-188.3801 494.4619,-173.2646 511.0742,-159.5084"/>
<polygon fill="#000000" stroke="#000000" points="513.6009,-161.9604 519.0707,-152.8868 509.1363,-156.5689 513.6009,-161.9604"/>
</g>
<!-- 15 -->
<g id="node12" class="node">
<title>15</title>
<polygon fill="#c1b2ff" stroke="#c1b2ff" points="153.8147,-58.6014 53.0617,-58.6014 53.0617,.2014 153.8147,.2014 153.8147,-58.6014"/>
<text text-anchor="middle" x="103.4382" y="-41.8" font-family="Times,serif" font-size="14.00" fill="#000000">size = &#160;165 </text>
<text text-anchor="middle" x="103.4382" y="-25" font-family="Times,serif" font-size="14.00" fill="#000000"> avg_Y = &#45;0.53</text>
<text text-anchor="middle" x="103.4382" y="-8.2" font-family="Times,serif" font-size="14.00" fill="#000000">avg_W = 0.52 </text>
</g>
<!-- 11&#45;&gt;15 -->
<g id="edge11" class="edge">
<title>11&#45;&gt;15</title>
<path fill="none" stroke="#000000" d="M151.0624,-105.3987C144.2501,-94.4991 135.3326,-80.2311 127.0583,-66.9922"/>
<polygon fill="#000000" stroke="#000000" points="130.0105,-65.1117 121.7424,-58.4868 124.0745,-68.8218 130.0105,-65.1117"/>
</g>
<!-- 16 -->
<g id="node13" class="node">
<title>16</title>
<polygon fill="#c1b2ff" stroke="#c1b2ff" points="272.8147,-58.6014 172.0617,-58.6014 172.0617,.2014 272.8147,.2014 272.8147,-58.6014"/>
<text text-anchor="middle" x="222.4382" y="-41.8" font-family="Times,serif" font-size="14.00" fill="#000000">size = &#160;13 </text>
<text text-anchor="middle" x="222.4382" y="-25" font-family="Times,serif" font-size="14.00" fill="#000000"> avg_Y = &#45;0.39</text>
<text text-anchor="middle" x="222.4382" y="-8.2" font-family="Times,serif" font-size="14.00" fill="#000000">avg_W = 0.46 </text>
</g>
<!-- 11&#45;&gt;16 -->
<g id="edge12" class="edge">
<title>11&#45;&gt;16</title>
<path fill="none" stroke="#000000" d="M174.0068,-105.3987C180.9345,-94.4991 190.0032,-80.2311 198.4177,-66.9922"/>
<polygon fill="#000000" stroke="#000000" points="201.4134,-68.8038 203.8237,-58.4868 195.5057,-65.0489 201.4134,-68.8038"/>
</g>
</g>
</svg>
