<?xml version="1.0" encoding="UTF-8" standalone="no"?>
<!DOCTYPE svg PUBLIC "-//W3C//DTD SVG 1.1//EN"
 "http://www.w3.org/Graphics/SVG/1.1/DTD/svg11.dtd">
<!-- Generated by graphviz version 2.40.1 (20161225.0304)
 -->
<!-- Title: nodes Pages: 1 -->
<svg width="1277pt" height="660pt"
 viewBox="0.00 0.00 1277.38 660.00" xmlns="http://www.w3.org/2000/svg" xmlns:xlink="http://www.w3.org/1999/xlink">
<g id="graph0" class="graph" transform="scale(1 1) rotate(0) translate(4 656)">
<title>nodes</title>
<polygon fill="#ffffff" stroke="transparent" points="-4,4 -4,-656 1273.3764,-656 1273.3764,4 -4,4"/>
<!-- 0 -->
<g id="node1" class="node">
<title>0</title>
<polygon fill="none" stroke="#000000" points="642.8131,-652 552.0633,-652 552.0633,-616 642.8131,-616 642.8131,-652"/>
<text text-anchor="middle" x="597.4382" y="-629.8" font-family="Times,serif" font-size="14.00" fill="#000000"> female &lt;= 0 </text>
</g>
<!-- 1 -->
<g id="node2" class="node">
<title>1</title>
<polygon fill="none" stroke="#000000" points="508.7624,-580 426.114,-580 426.114,-544 508.7624,-544 508.7624,-580"/>
<text text-anchor="middle" x="467.4382" y="-557.8" font-family="Times,serif" font-size="14.00" fill="#000000"> rosca &lt;= 0 </text>
</g>
<!-- 0&#45;&gt;1 -->
<g id="edge1" class="edge">
<title>0&#45;&gt;1</title>
<path fill="none" stroke="#000000" d="M564.6337,-615.8314C547.852,-606.5368 527.2397,-595.1208 509.3219,-585.1971"/>
<polygon fill="#000000" stroke="#000000" points="510.6759,-581.9461 500.2322,-580.1628 507.2844,-588.0696 510.6759,-581.9461"/>
<text text-anchor="middle" x="507.1316" y="-599.9919" font-family="Times,serif" font-size="14.00" fill="#000000">True</text>
</g>
<!-- 2 -->
<g id="node3" class="node">
<title>2</title>
<polygon fill="none" stroke="#000000" points="791.0971,-580 667.7793,-580 667.7793,-544 791.0971,-544 791.0971,-580"/>
<text text-anchor="middle" x="729.4382" y="-557.8" font-family="Times,serif" font-size="14.00" fill="#000000"> loan.size &lt;= 2800 </text>
</g>
<!-- 0&#45;&gt;2 -->
<g id="edge2" class="edge">
<title>0&#45;&gt;2</title>
<path fill="none" stroke="#000000" d="M630.7474,-615.8314C647.8655,-606.4942 668.9088,-595.016 687.1604,-585.0606"/>
<polygon fill="#000000" stroke="#000000" points="689.0367,-588.024 696.1397,-580.1628 685.6847,-581.8788 689.0367,-588.024"/>
<text text-anchor="middle" x="689.0855" y="-599.947" font-family="Times,serif" font-size="14.00" fill="#000000">False</text>
</g>
<!-- 3 -->
<g id="node4" class="node">
<title>3</title>
<polygon fill="none" stroke="#000000" points="324.0971,-508 200.7793,-508 200.7793,-472 324.0971,-472 324.0971,-508"/>
<text text-anchor="middle" x="262.4382" y="-485.8" font-family="Times,serif" font-size="14.00" fill="#000000"> loan.size &lt;= 1680 </text>
</g>
<!-- 1&#45;&gt;3 -->
<g id="edge3" class="edge">
<title>1&#45;&gt;3</title>
<path fill="none" stroke="#000000" d="M425.9534,-547.4297C396.5638,-537.1075 356.6519,-523.0897 323.6175,-511.4874"/>
<polygon fill="#000000" stroke="#000000" points="324.6474,-508.1395 314.0525,-508.128 322.3277,-514.744 324.6474,-508.1395"/>
</g>
<!-- 4 -->
<g id="node5" class="node">
<title>4</title>
<polygon fill="none" stroke="#000000" points="507.1569,-508 427.7195,-508 427.7195,-472 507.1569,-472 507.1569,-508"/>
<text text-anchor="middle" x="467.4382" y="-485.8" font-family="Times,serif" font-size="14.00" fill="#000000"> age &lt;= 42 </text>
</g>
<!-- 1&#45;&gt;4 -->
<g id="edge4" class="edge">
<title>1&#45;&gt;4</title>
<path fill="none" stroke="#000000" d="M467.4382,-543.8314C467.4382,-536.131 467.4382,-526.9743 467.4382,-518.4166"/>
<polygon fill="#000000" stroke="#000000" points="470.9383,-518.4132 467.4382,-508.4133 463.9383,-518.4133 470.9383,-518.4132"/>
</g>
<!-- 5 -->
<g id="node12" class="node">
<title>5</title>
<polygon fill="none" stroke="#000000" points="793.5394,-508 665.337,-508 665.337,-472 793.5394,-472 793.5394,-508"/>
<text text-anchor="middle" x="729.4382" y="-485.8" font-family="Times,serif" font-size="14.00" fill="#000000"> transport.cost &lt;= 2 </text>
</g>
<!-- 2&#45;&gt;5 -->
<g id="edge11" class="edge">
<title>2&#45;&gt;5</title>
<path fill="none" stroke="#000000" d="M729.4382,-543.8314C729.4382,-536.131 729.4382,-526.9743 729.4382,-518.4166"/>
<polygon fill="#000000" stroke="#000000" points="732.9383,-518.4132 729.4382,-508.4133 725.9383,-518.4133 732.9383,-518.4132"/>
</g>
<!-- 6 -->
<g id="node13" class="node">
<title>6</title>
<polygon fill="none" stroke="#000000" points="1117.3679,-508 1017.5085,-508 1017.5085,-472 1117.3679,-472 1117.3679,-508"/>
<text text-anchor="middle" x="1067.4382" y="-485.8" font-family="Times,serif" font-size="14.00" fill="#000000"> patience &lt;= 0 </text>
</g>
<!-- 2&#45;&gt;6 -->
<g id="edge12" class="edge">
<title>2&#45;&gt;6</title>
<path fill="none" stroke="#000000" d="M791.0396,-548.8778C852.6361,-535.7567 946.7339,-515.7122 1007.6741,-502.7308"/>
<polygon fill="#000000" stroke="#000000" points="1008.4808,-506.1376 1017.5321,-500.6309 1007.0223,-499.2912 1008.4808,-506.1376"/>
</g>
<!-- 7 -->
<g id="node6" class="node">
<title>7</title>
<polygon fill="none" stroke="#000000" points="183.5971,-424.8 67.2793,-424.8 67.2793,-388.8 183.5971,-388.8 183.5971,-424.8"/>
<text text-anchor="middle" x="125.4382" y="-402.6" font-family="Times,serif" font-size="14.00" fill="#000000"> loan.size &lt;= 940 </text>
</g>
<!-- 3&#45;&gt;7 -->
<g id="edge5" class="edge">
<title>3&#45;&gt;7</title>
<path fill="none" stroke="#000000" d="M232.7112,-471.9468C212.5144,-459.6813 185.6123,-443.3437 163.8015,-430.098"/>
<polygon fill="#000000" stroke="#000000" points="165.4712,-427.0172 155.1071,-424.8179 161.8377,-433.0003 165.4712,-427.0172"/>
</g>
<!-- 8 -->
<g id="node7" class="node">
<title>8</title>
<polygon fill="#c1b2ff" stroke="#c1b2ff" points="323.3147,-436.2014 201.5617,-436.2014 201.5617,-377.3986 323.3147,-377.3986 323.3147,-436.2014"/>
<text text-anchor="middle" x="262.4382" y="-419.4" font-family="Times,serif" font-size="14.00" fill="#000000">size = &#160;19 </text>
<text text-anchor="middle" x="262.4382" y="-402.6" font-family="Times,serif" font-size="14.00" fill="#000000"> avg_Y = &#45;3141.17</text>
<text text-anchor="middle" x="262.4382" y="-385.8" font-family="Times,serif" font-size="14.00" fill="#000000">avg_W = 0.37 </text>
</g>
<!-- 3&#45;&gt;8 -->
<g id="edge6" class="edge">
<title>3&#45;&gt;8</title>
<path fill="none" stroke="#000000" d="M262.4382,-471.9468C262.4382,-464.3769 262.4382,-455.256 262.4382,-446.2681"/>
<polygon fill="#000000" stroke="#000000" points="265.9383,-446.2667 262.4382,-436.2668 258.9383,-446.2668 265.9383,-446.2667"/>
</g>
<!-- 9 -->
<g id="node10" class="node">
<title>9</title>
<polygon fill="#c1b2ff" stroke="#c1b2ff" points="463.3147,-436.2014 341.5617,-436.2014 341.5617,-377.3986 463.3147,-377.3986 463.3147,-436.2014"/>
<text text-anchor="middle" x="402.4382" y="-419.4" font-family="Times,serif" font-size="14.00" fill="#000000">size = &#160;13 </text>
<text text-anchor="middle" x="402.4382" y="-402.6" font-family="Times,serif" font-size="14.00" fill="#000000"> avg_Y = &#45;1284.94</text>
<text text-anchor="middle" x="402.4382" y="-385.8" font-family="Times,serif" font-size="14.00" fill="#000000">avg_W = 0.23 </text>
</g>
<!-- 4&#45;&gt;9 -->
<g id="edge9" class="edge">
<title>4&#45;&gt;9</title>
<path fill="none" stroke="#000000" d="M453.3342,-471.9468C446.9751,-463.8072 439.2149,-453.8742 431.6894,-444.2415"/>
<polygon fill="#000000" stroke="#000000" points="434.3737,-441.9923 425.4591,-436.2668 428.8575,-446.3018 434.3737,-441.9923"/>
</g>
<!-- 10 -->
<g id="node11" class="node">
<title>10</title>
<polygon fill="#c1b2ff" stroke="#c1b2ff" points="603.3147,-436.2014 481.5617,-436.2014 481.5617,-377.3986 603.3147,-377.3986 603.3147,-436.2014"/>
<text text-anchor="middle" x="542.4382" y="-419.4" font-family="Times,serif" font-size="14.00" fill="#000000">size = &#160;9 </text>
<text text-anchor="middle" x="542.4382" y="-402.6" font-family="Times,serif" font-size="14.00" fill="#000000"> avg_Y = &#45;2173.72</text>
<text text-anchor="middle" x="542.4382" y="-385.8" font-family="Times,serif" font-size="14.00" fill="#000000">avg_W = 0.33 </text>
</g>
<!-- 4&#45;&gt;10 -->
<g id="edge10" class="edge">
<title>4&#45;&gt;10</title>
<path fill="none" stroke="#000000" d="M483.7121,-471.9468C491.1229,-463.7258 500.1828,-453.6753 508.9472,-443.9527"/>
<polygon fill="#000000" stroke="#000000" points="511.7797,-446.0379 515.8756,-436.2668 506.5803,-441.3509 511.7797,-446.0379"/>
</g>
<!-- 15 -->
<g id="node8" class="node">
<title>15</title>
<polygon fill="#c1b2ff" stroke="#c1b2ff" points="114.8147,-341.8014 .0617,-341.8014 .0617,-282.9986 114.8147,-282.9986 114.8147,-341.8014"/>
<text text-anchor="middle" x="57.4382" y="-325" font-family="Times,serif" font-size="14.00" fill="#000000">size = &#160;15 </text>
<text text-anchor="middle" x="57.4382" y="-308.2" font-family="Times,serif" font-size="14.00" fill="#000000"> avg_Y = &#45;681.04</text>
<text text-anchor="middle" x="57.4382" y="-291.4" font-family="Times,serif" font-size="14.00" fill="#000000">avg_W = 0.33 </text>
</g>
<!-- 7&#45;&gt;15 -->
<g id="edge7" class="edge">
<title>7&#45;&gt;15</title>
<path fill="none" stroke="#000000" d="M112.3271,-388.5987C104.4009,-377.5953 94.0019,-363.159 84.3891,-349.8142"/>
<polygon fill="#000000" stroke="#000000" points="87.2194,-347.7551 78.5346,-341.6868 81.5396,-351.8465 87.2194,-347.7551"/>
</g>
<!-- 16 -->
<g id="node9" class="node">
<title>16</title>
<polygon fill="#c1b2ff" stroke="#c1b2ff" points="254.3147,-341.8014 132.5617,-341.8014 132.5617,-282.9986 254.3147,-282.9986 254.3147,-341.8014"/>
<text text-anchor="middle" x="193.4382" y="-325" font-family="Times,serif" font-size="14.00" fill="#000000">size = &#160;10 </text>
<text text-anchor="middle" x="193.4382" y="-308.2" font-family="Times,serif" font-size="14.00" fill="#000000"> avg_Y = &#45;1284.04</text>
<text text-anchor="middle" x="193.4382" y="-291.4" font-family="Times,serif" font-size="14.00" fill="#000000">avg_W = 0.7 </text>
</g>
<!-- 7&#45;&gt;16 -->
<g id="edge8" class="edge">
<title>7&#45;&gt;16</title>
<path fill="none" stroke="#000000" d="M138.5493,-388.5987C146.4755,-377.5953 156.8745,-363.159 166.4873,-349.8142"/>
<polygon fill="#000000" stroke="#000000" points="169.3368,-351.8465 172.3418,-341.6868 163.657,-347.7551 169.3368,-351.8465"/>
</g>
<!-- 11 -->
<g id="node14" class="node">
<title>11</title>
<polygon fill="none" stroke="#000000" points="703.7624,-424.8 621.114,-424.8 621.114,-388.8 703.7624,-388.8 703.7624,-424.8"/>
<text text-anchor="middle" x="662.4382" y="-402.6" font-family="Times,serif" font-size="14.00" fill="#000000"> rosca &lt;= 0 </text>
</g>
<!-- 5&#45;&gt;11 -->
<g id="edge13" class="edge">
<title>5&#45;&gt;11</title>
<path fill="none" stroke="#000000" d="M714.9002,-471.9468C705.6814,-460.499 693.606,-445.5039 683.3646,-432.7862"/>
<polygon fill="#000000" stroke="#000000" points="685.9459,-430.4113 676.9478,-424.8179 680.4939,-434.8017 685.9459,-430.4113"/>
</g>
<!-- 12 -->
<g id="node15" class="node">
<title>12</title>
<polygon fill="none" stroke="#000000" points="859.0971,-424.8 735.7793,-424.8 735.7793,-388.8 859.0971,-388.8 859.0971,-424.8"/>
<text text-anchor="middle" x="797.4382" y="-402.6" font-family="Times,serif" font-size="14.00" fill="#000000"> loan.size &lt;= 1340 </text>
</g>
<!-- 5&#45;&gt;12 -->
<g id="edge14" class="edge">
<title>5&#45;&gt;12</title>
<path fill="none" stroke="#000000" d="M744.1932,-471.9468C753.5496,-460.499 765.8052,-445.5039 776.1994,-432.7862"/>
<polygon fill="#000000" stroke="#000000" points="779.0937,-434.7758 782.712,-424.8179 773.6736,-430.3459 779.0937,-434.7758"/>
</g>
<!-- 13 -->
<g id="node30" class="node">
<title>13</title>
<polygon fill="none" stroke="#000000" points="1129.0971,-424.8 1005.7793,-424.8 1005.7793,-388.8 1129.0971,-388.8 1129.0971,-424.8"/>
<text text-anchor="middle" x="1067.4382" y="-402.6" font-family="Times,serif" font-size="14.00" fill="#000000"> loan.size &lt;= 4100 </text>
</g>
<!-- 6&#45;&gt;13 -->
<g id="edge29" class="edge">
<title>6&#45;&gt;13</title>
<path fill="none" stroke="#000000" d="M1067.4382,-471.9468C1067.4382,-461.1532 1067.4382,-447.2061 1067.4382,-434.9876"/>
<polygon fill="#000000" stroke="#000000" points="1070.9383,-434.8179 1067.4382,-424.8179 1063.9383,-434.818 1070.9383,-434.8179"/>
</g>
<!-- 14 -->
<g id="node31" class="node">
<title>14</title>
<polygon fill="#c1b2ff" stroke="#c1b2ff" points="1269.3147,-436.2014 1147.5617,-436.2014 1147.5617,-377.3986 1269.3147,-377.3986 1269.3147,-436.2014"/>
<text text-anchor="middle" x="1208.4382" y="-419.4" font-family="Times,serif" font-size="14.00" fill="#000000">size = &#160;12 </text>
<text text-anchor="middle" x="1208.4382" y="-402.6" font-family="Times,serif" font-size="14.00" fill="#000000"> avg_Y = &#45;3545.49</text>
<text text-anchor="middle" x="1208.4382" y="-385.8" font-family="Times,serif" font-size="14.00" fill="#000000">avg_W = 0.5 </text>
</g>
<!-- 6&#45;&gt;14 -->
<g id="edge30" class="edge">
<title>6&#45;&gt;14</title>
<path fill="none" stroke="#000000" d="M1098.0331,-471.9468C1113.2765,-462.9521 1132.2312,-451.7675 1150.1091,-441.2183"/>
<polygon fill="#000000" stroke="#000000" points="1151.9443,-444.1994 1158.778,-436.103 1148.3869,-438.1707 1151.9443,-444.1994"/>
</g>
<!-- 17 -->
<g id="node16" class="node">
<title>17</title>
<polygon fill="none" stroke="#000000" points="569.0971,-330.4 445.7793,-330.4 445.7793,-294.4 569.0971,-294.4 569.0971,-330.4"/>
<text text-anchor="middle" x="507.4382" y="-308.2" font-family="Times,serif" font-size="14.00" fill="#000000"> loan.size &lt;= 1160 </text>
</g>
<!-- 11&#45;&gt;17 -->
<g id="edge15" class="edge">
<title>11&#45;&gt;17</title>
<path fill="none" stroke="#000000" d="M632.5526,-388.5987C607.8932,-373.5804 572.7333,-352.1668 545.9621,-335.8623"/>
<polygon fill="#000000" stroke="#000000" points="547.5933,-332.7578 537.232,-330.5454 543.9522,-338.7363 547.5933,-332.7578"/>
</g>
<!-- 18 -->
<g id="node17" class="node">
<title>18</title>
<polygon fill="#c1b2ff" stroke="#c1b2ff" points="709.3147,-341.8014 587.5617,-341.8014 587.5617,-282.9986 709.3147,-282.9986 709.3147,-341.8014"/>
<text text-anchor="middle" x="648.4382" y="-325" font-family="Times,serif" font-size="14.00" fill="#000000">size = &#160;23 </text>
<text text-anchor="middle" x="648.4382" y="-308.2" font-family="Times,serif" font-size="14.00" fill="#000000"> avg_Y = &#45;1151.99</text>
<text text-anchor="middle" x="648.4382" y="-291.4" font-family="Times,serif" font-size="14.00" fill="#000000">avg_W = 0.7 </text>
</g>
<!-- 11&#45;&gt;18 -->
<g id="edge16" class="edge">
<title>11&#45;&gt;18</title>
<path fill="none" stroke="#000000" d="M659.7389,-388.5987C658.184,-378.1143 656.1669,-364.5133 654.268,-351.7095"/>
<polygon fill="#000000" stroke="#000000" points="657.7108,-351.0651 652.7816,-341.6868 650.7865,-352.0921 657.7108,-351.0651"/>
</g>
<!-- 19 -->
<g id="node20" class="node">
<title>19</title>
<polygon fill="none" stroke="#000000" points="867.9568,-330.4 726.9196,-330.4 726.9196,-294.4 867.9568,-294.4 867.9568,-330.4"/>
<text text-anchor="middle" x="797.4382" y="-308.2" font-family="Times,serif" font-size="14.00" fill="#000000"> sure.confidence &lt;= 0 </text>
</g>
<!-- 12&#45;&gt;19 -->
<g id="edge19" class="edge">
<title>12&#45;&gt;19</title>
<path fill="none" stroke="#000000" d="M797.4382,-388.5987C797.4382,-375.0169 797.4382,-356.2048 797.4382,-340.6711"/>
<polygon fill="#000000" stroke="#000000" points="800.9383,-340.5454 797.4382,-330.5454 793.9383,-340.5454 800.9383,-340.5454"/>
</g>
<!-- 20 -->
<g id="node21" class="node">
<title>20</title>
<polygon fill="none" stroke="#000000" points="988.5971,-330.4 886.2793,-330.4 886.2793,-294.4 988.5971,-294.4 988.5971,-330.4"/>
<text text-anchor="middle" x="937.4382" y="-308.2" font-family="Times,serif" font-size="14.00" fill="#000000"> fam.asks &lt;= 0 </text>
</g>
<!-- 12&#45;&gt;20 -->
<g id="edge20" class="edge">
<title>12&#45;&gt;20</title>
<path fill="none" stroke="#000000" d="M824.4316,-388.5987C846.5109,-373.711 877.9104,-352.5388 902.0099,-336.2888"/>
<polygon fill="#000000" stroke="#000000" points="904.1932,-339.038 910.5277,-330.5454 900.2797,-333.2342 904.1932,-339.038"/>
</g>
<!-- 23 -->
<g id="node18" class="node">
<title>23</title>
<polygon fill="#c1b2ff" stroke="#c1b2ff" points="438.8147,-247.4014 324.0617,-247.4014 324.0617,-188.5986 438.8147,-188.5986 438.8147,-247.4014"/>
<text text-anchor="middle" x="381.4382" y="-230.6" font-family="Times,serif" font-size="14.00" fill="#000000">size = &#160;21 </text>
<text text-anchor="middle" x="381.4382" y="-213.8" font-family="Times,serif" font-size="14.00" fill="#000000"> avg_Y = &#45;490.01</text>
<text text-anchor="middle" x="381.4382" y="-197" font-family="Times,serif" font-size="14.00" fill="#000000">avg_W = 0.52 </text>
</g>
<!-- 17&#45;&gt;23 -->
<g id="edge17" class="edge">
<title>17&#45;&gt;23</title>
<path fill="none" stroke="#000000" d="M483.1441,-294.1987C467.6953,-282.6244 447.1766,-267.2516 428.6167,-253.3464"/>
<polygon fill="#000000" stroke="#000000" points="430.6302,-250.4817 420.5286,-247.2868 426.4331,-256.0838 430.6302,-250.4817"/>
</g>
<!-- 24 -->
<g id="node19" class="node">
<title>24</title>
<polygon fill="#c1b2ff" stroke="#c1b2ff" points="578.3147,-247.4014 456.5617,-247.4014 456.5617,-188.5986 578.3147,-188.5986 578.3147,-247.4014"/>
<text text-anchor="middle" x="517.4382" y="-230.6" font-family="Times,serif" font-size="14.00" fill="#000000">size = &#160;11 </text>
<text text-anchor="middle" x="517.4382" y="-213.8" font-family="Times,serif" font-size="14.00" fill="#000000"> avg_Y = &#45;1618.43</text>
<text text-anchor="middle" x="517.4382" y="-197" font-family="Times,serif" font-size="14.00" fill="#000000">avg_W = 0.73 </text>
</g>
<!-- 17&#45;&gt;24 -->
<g id="edge18" class="edge">
<title>17&#45;&gt;24</title>
<path fill="none" stroke="#000000" d="M509.3663,-294.1987C510.4769,-283.7143 511.9177,-270.1133 513.2741,-257.3095"/>
<polygon fill="#000000" stroke="#000000" points="516.7628,-257.5999 514.3358,-247.2868 509.8017,-256.8624 516.7628,-257.5999"/>
</g>
<!-- 25 -->
<g id="node22" class="node">
<title>25</title>
<polygon fill="#c1b2ff" stroke="#c1b2ff" points="721.8147,-247.4014 607.0617,-247.4014 607.0617,-188.5986 721.8147,-188.5986 721.8147,-247.4014"/>
<text text-anchor="middle" x="664.4382" y="-230.6" font-family="Times,serif" font-size="14.00" fill="#000000">size = &#160;21 </text>
<text text-anchor="middle" x="664.4382" y="-213.8" font-family="Times,serif" font-size="14.00" fill="#000000"> avg_Y = &#45;489.04</text>
<text text-anchor="middle" x="664.4382" y="-197" font-family="Times,serif" font-size="14.00" fill="#000000">avg_W = 0.33 </text>
</g>
<!-- 19&#45;&gt;25 -->
<g id="edge21" class="edge">
<title>19&#45;&gt;25</title>
<path fill="none" stroke="#000000" d="M771.7945,-294.1987C755.4142,-282.5725 733.6344,-267.1137 713.9743,-253.1595"/>
<polygon fill="#000000" stroke="#000000" points="715.8808,-250.2206 705.7003,-247.2868 711.8292,-255.9289 715.8808,-250.2206"/>
</g>
<!-- 26 -->
<g id="node23" class="node">
<title>26</title>
<polygon fill="none" stroke="#000000" points="856.5971,-236 740.2793,-236 740.2793,-200 856.5971,-200 856.5971,-236"/>
<text text-anchor="middle" x="798.4382" y="-213.8" font-family="Times,serif" font-size="14.00" fill="#000000"> loan.size &lt;= 880 </text>
</g>
<!-- 19&#45;&gt;26 -->
<g id="edge22" class="edge">
<title>19&#45;&gt;26</title>
<path fill="none" stroke="#000000" d="M797.631,-294.1987C797.7749,-280.6169 797.9742,-261.8048 798.1387,-246.2711"/>
<polygon fill="#000000" stroke="#000000" points="801.6398,-246.1819 798.246,-236.1454 794.6402,-246.1077 801.6398,-246.1819"/>
</g>
<!-- 27 -->
<g id="node28" class="node">
<title>27</title>
<polygon fill="#c1b2ff" stroke="#c1b2ff" points="997.3147,-247.4014 875.5617,-247.4014 875.5617,-188.5986 997.3147,-188.5986 997.3147,-247.4014"/>
<text text-anchor="middle" x="936.4382" y="-230.6" font-family="Times,serif" font-size="14.00" fill="#000000">size = &#160;27 </text>
<text text-anchor="middle" x="936.4382" y="-213.8" font-family="Times,serif" font-size="14.00" fill="#000000"> avg_Y = &#45;1990.29</text>
<text text-anchor="middle" x="936.4382" y="-197" font-family="Times,serif" font-size="14.00" fill="#000000">avg_W = 0.3 </text>
</g>
<!-- 20&#45;&gt;27 -->
<g id="edge27" class="edge">
<title>20&#45;&gt;27</title>
<path fill="none" stroke="#000000" d="M937.2454,-294.1987C937.1343,-283.7143 936.9902,-270.1133 936.8546,-257.3095"/>
<polygon fill="#000000" stroke="#000000" points="940.3543,-257.2491 936.7484,-247.2868 933.3547,-257.3233 940.3543,-257.2491"/>
</g>
<!-- 28 -->
<g id="node29" class="node">
<title>28</title>
<polygon fill="#c1b2ff" stroke="#c1b2ff" points="1137.3147,-247.4014 1015.5617,-247.4014 1015.5617,-188.5986 1137.3147,-188.5986 1137.3147,-247.4014"/>
<text text-anchor="middle" x="1076.4382" y="-230.6" font-family="Times,serif" font-size="14.00" fill="#000000">size = &#160;11 </text>
<text text-anchor="middle" x="1076.4382" y="-213.8" font-family="Times,serif" font-size="14.00" fill="#000000"> avg_Y = &#45;1633.69</text>
<text text-anchor="middle" x="1076.4382" y="-197" font-family="Times,serif" font-size="14.00" fill="#000000">avg_W = 0.73 </text>
</g>
<!-- 20&#45;&gt;28 -->
<g id="edge28" class="edge">
<title>20&#45;&gt;28</title>
<path fill="none" stroke="#000000" d="M964.2388,-294.1987C981.4344,-282.5206 1004.3237,-266.9756 1024.9424,-252.9727"/>
<polygon fill="#000000" stroke="#000000" points="1027.0085,-255.8004 1033.3147,-247.2868 1023.0757,-250.0096 1027.0085,-255.8004"/>
</g>
<!-- 29 -->
<g id="node24" class="node">
<title>29</title>
<polygon fill="none" stroke="#000000" points="793.3754,-141.6 655.501,-141.6 655.501,-105.6 793.3754,-105.6 793.3754,-141.6"/>
<text text-anchor="middle" x="724.4382" y="-119.4" font-family="Times,serif" font-size="14.00" fill="#000000"> transport.time &lt;= 20 </text>
</g>
<!-- 26&#45;&gt;29 -->
<g id="edge23" class="edge">
<title>26&#45;&gt;29</title>
<path fill="none" stroke="#000000" d="M784.1703,-199.7987C773.0116,-185.5639 757.3493,-165.5839 744.8622,-149.6544"/>
<polygon fill="#000000" stroke="#000000" points="747.5863,-147.4562 738.6623,-141.7454 742.0772,-151.7748 747.5863,-147.4562"/>
</g>
<!-- 30 -->
<g id="node25" class="node">
<title>30</title>
<polygon fill="#c1b2ff" stroke="#c1b2ff" points="933.3147,-153.0014 811.5617,-153.0014 811.5617,-94.1986 933.3147,-94.1986 933.3147,-153.0014"/>
<text text-anchor="middle" x="872.4382" y="-136.2" font-family="Times,serif" font-size="14.00" fill="#000000">size = &#160;10 </text>
<text text-anchor="middle" x="872.4382" y="-119.4" font-family="Times,serif" font-size="14.00" fill="#000000"> avg_Y = &#45;1156.56</text>
<text text-anchor="middle" x="872.4382" y="-102.6" font-family="Times,serif" font-size="14.00" fill="#000000">avg_W = 0.4 </text>
</g>
<!-- 26&#45;&gt;30 -->
<g id="edge24" class="edge">
<title>26&#45;&gt;30</title>
<path fill="none" stroke="#000000" d="M812.7061,-199.7987C821.3317,-188.7953 832.6483,-174.359 843.1092,-161.0142"/>
<polygon fill="#000000" stroke="#000000" points="846.0655,-162.9162 849.4804,-152.8868 840.5564,-158.5976 846.0655,-162.9162"/>
</g>
<!-- 31 -->
<g id="node26" class="node">
<title>31</title>
<polygon fill="#c1b2ff" stroke="#c1b2ff" points="715.8147,-58.6014 601.0617,-58.6014 601.0617,.2014 715.8147,.2014 715.8147,-58.6014"/>
<text text-anchor="middle" x="658.4382" y="-41.8" font-family="Times,serif" font-size="14.00" fill="#000000">size = &#160;17 </text>
<text text-anchor="middle" x="658.4382" y="-25" font-family="Times,serif" font-size="14.00" fill="#000000"> avg_Y = &#45;410.96</text>
<text text-anchor="middle" x="658.4382" y="-8.2" font-family="Times,serif" font-size="14.00" fill="#000000">avg_W = 0.53 </text>
</g>
<!-- 29&#45;&gt;31 -->
<g id="edge25" class="edge">
<title>29&#45;&gt;31</title>
<path fill="none" stroke="#000000" d="M711.7127,-105.3987C704.0922,-94.4991 694.1167,-80.2311 684.8607,-66.9922"/>
<polygon fill="#000000" stroke="#000000" points="687.5126,-64.6769 678.9141,-58.4868 681.7757,-68.6879 687.5126,-64.6769"/>
</g>
<!-- 32 -->
<g id="node27" class="node">
<title>32</title>
<polygon fill="#c1b2ff" stroke="#c1b2ff" points="848.8147,-58.6014 734.0617,-58.6014 734.0617,.2014 848.8147,.2014 848.8147,-58.6014"/>
<text text-anchor="middle" x="791.4382" y="-41.8" font-family="Times,serif" font-size="14.00" fill="#000000">size = &#160;21 </text>
<text text-anchor="middle" x="791.4382" y="-25" font-family="Times,serif" font-size="14.00" fill="#000000"> avg_Y = &#45;522.88</text>
<text text-anchor="middle" x="791.4382" y="-8.2" font-family="Times,serif" font-size="14.00" fill="#000000">avg_W = 0.24 </text>
</g>
<!-- 29&#45;&gt;32 -->
<g id="edge26" class="edge">
<title>29&#45;&gt;32</title>
<path fill="none" stroke="#000000" d="M737.3565,-105.3987C745.0924,-94.4991 755.2191,-80.2311 764.6153,-66.9922"/>
<polygon fill="#000000" stroke="#000000" points="767.7184,-68.6673 770.652,-58.4868 762.01,-64.6158 767.7184,-68.6673"/>
</g>
<!-- 21 -->
<g id="node32" class="node">
<title>21</title>
<polygon fill="#c1b2ff" stroke="#c1b2ff" points="1128.3147,-341.8014 1006.5617,-341.8014 1006.5617,-282.9986 1128.3147,-282.9986 1128.3147,-341.8014"/>
<text text-anchor="middle" x="1067.4382" y="-325" font-family="Times,serif" font-size="14.00" fill="#000000">size = &#160;15 </text>
<text text-anchor="middle" x="1067.4382" y="-308.2" font-family="Times,serif" font-size="14.00" fill="#000000"> avg_Y = &#45;2533.67</text>
<text text-anchor="middle" x="1067.4382" y="-291.4" font-family="Times,serif" font-size="14.00" fill="#000000">avg_W = 0.33 </text>
</g>
<!-- 13&#45;&gt;21 -->
<g id="edge31" class="edge">
<title>13&#45;&gt;21</title>
<path fill="none" stroke="#000000" d="M1067.4382,-388.5987C1067.4382,-378.1143 1067.4382,-364.5133 1067.4382,-351.7095"/>
<polygon fill="#000000" stroke="#000000" points="1070.9383,-351.6867 1067.4382,-341.6868 1063.9383,-351.6868 1070.9383,-351.6867"/>
</g>
<!-- 22 -->
<g id="node33" class="node">
<title>22</title>
<polygon fill="#c1b2ff" stroke="#c1b2ff" points="1268.3147,-341.8014 1146.5617,-341.8014 1146.5617,-282.9986 1268.3147,-282.9986 1268.3147,-341.8014"/>
<text text-anchor="middle" x="1207.4382" y="-325" font-family="Times,serif" font-size="14.00" fill="#000000">size = &#160;12 </text>
<text text-anchor="middle" x="1207.4382" y="-308.2" font-family="Times,serif" font-size="14.00" fill="#000000"> avg_Y = &#45;4645.29</text>
<text text-anchor="middle" x="1207.4382" y="-291.4" font-family="Times,serif" font-size="14.00" fill="#000000">avg_W = 0.58 </text>
</g>
<!-- 13&#45;&gt;22 -->
<g id="edge32" class="edge">
<title>13&#45;&gt;22</title>
<path fill="none" stroke="#000000" d="M1094.4316,-388.5987C1111.7509,-376.9206 1134.8049,-361.3756 1155.572,-347.3727"/>
<polygon fill="#000000" stroke="#000000" points="1157.6699,-350.1794 1164.0044,-341.6868 1153.7565,-344.3755 1157.6699,-350.1794"/>
</g>
</g>
</svg>
