<?xml version="1.0" encoding="UTF-8" standalone="no"?>
<!DOCTYPE svg PUBLIC "-//W3C//DTD SVG 1.1//EN"
 "http://www.w3.org/Graphics/SVG/1.1/DTD/svg11.dtd">
<!-- Generated by graphviz version 2.40.1 (20161225.0304)
 -->
<!-- Title: nodes Pages: 1 -->
<svg width="943pt" height="588pt"
 viewBox="0.00 0.00 942.88 588.00" xmlns="http://www.w3.org/2000/svg" xmlns:xlink="http://www.w3.org/1999/xlink">
<g id="graph0" class="graph" transform="scale(1 1) rotate(0) translate(4 584)">
<title>nodes</title>
<polygon fill="#ffffff" stroke="transparent" points="-4,4 -4,-584 938.8764,-584 938.8764,4 -4,4"/>
<!-- 0 -->
<g id="node1" class="node">
<title>0</title>
<polygon fill="none" stroke="#000000" points="282.1569,-580 202.7195,-580 202.7195,-544 282.1569,-544 282.1569,-580"/>
<text text-anchor="middle" x="242.4382" y="-557.8" font-family="Times,serif" font-size="14.00" fill="#000000"> age &lt;= 29 </text>
</g>
<!-- 1 -->
<g id="node2" class="node">
<title>1</title>
<polygon fill="none" stroke="#000000" points="249.1485,-508 89.7279,-508 89.7279,-472 249.1485,-472 249.1485,-508"/>
<text text-anchor="middle" x="169.4382" y="-485.8" font-family="Times,serif" font-size="14.00" fill="#000000"> subj.loan.value &lt;= &#45;0.39 </text>
</g>
<!-- 0&#45;&gt;1 -->
<g id="edge1" class="edge">
<title>0&#45;&gt;1</title>
<path fill="none" stroke="#000000" d="M224.0172,-543.8314C215.2853,-535.219 204.7065,-524.7851 195.1959,-515.4048"/>
<polygon fill="#000000" stroke="#000000" points="197.4307,-512.6931 187.8533,-508.1628 192.5152,-517.6769 197.4307,-512.6931"/>
<text text-anchor="middle" x="188.0257" y="-528.9622" font-family="Times,serif" font-size="14.00" fill="#000000">True</text>
</g>
<!-- 2 -->
<g id="node3" class="node">
<title>2</title>
<polygon fill="none" stroke="#000000" points="355.1569,-508 275.7195,-508 275.7195,-472 355.1569,-472 355.1569,-508"/>
<text text-anchor="middle" x="315.4382" y="-485.8" font-family="Times,serif" font-size="14.00" fill="#000000"> age &lt;= 39 </text>
</g>
<!-- 0&#45;&gt;2 -->
<g id="edge2" class="edge">
<title>0&#45;&gt;2</title>
<path fill="none" stroke="#000000" d="M260.8592,-543.8314C269.5911,-535.219 280.1699,-524.7851 289.6805,-515.4048"/>
<polygon fill="#000000" stroke="#000000" points="292.3612,-517.6769 297.0231,-508.1628 287.4457,-512.6931 292.3612,-517.6769"/>
<text text-anchor="middle" x="296.8507" y="-528.9622" font-family="Times,serif" font-size="14.00" fill="#000000">False</text>
</g>
<!-- 3 -->
<g id="node4" class="node">
<title>3</title>
<polygon fill="#c1b2ff" stroke="#c1b2ff" points="100.8147,-436.2014 .0617,-436.2014 .0617,-377.3986 100.8147,-377.3986 100.8147,-436.2014"/>
<text text-anchor="middle" x="50.4382" y="-419.4" font-family="Times,serif" font-size="14.00" fill="#000000">size = &#160;44 </text>
<text text-anchor="middle" x="50.4382" y="-402.6" font-family="Times,serif" font-size="14.00" fill="#000000"> avg_Y = &#45;0.97</text>
<text text-anchor="middle" x="50.4382" y="-385.8" font-family="Times,serif" font-size="14.00" fill="#000000">avg_W = 0.41 </text>
</g>
<!-- 1&#45;&gt;3 -->
<g id="edge3" class="edge">
<title>1&#45;&gt;3</title>
<path fill="none" stroke="#000000" d="M143.617,-471.9468C131.16,-463.2374 115.7663,-452.4748 101.1045,-442.2238"/>
<polygon fill="#000000" stroke="#000000" points="102.7853,-439.1284 92.5842,-436.2668 98.7742,-444.8653 102.7853,-439.1284"/>
</g>
<!-- 4 -->
<g id="node5" class="node">
<title>4</title>
<polygon fill="#c1b2ff" stroke="#c1b2ff" points="219.8147,-436.2014 119.0617,-436.2014 119.0617,-377.3986 219.8147,-377.3986 219.8147,-436.2014"/>
<text text-anchor="middle" x="169.4382" y="-419.4" font-family="Times,serif" font-size="14.00" fill="#000000">size = &#160;38 </text>
<text text-anchor="middle" x="169.4382" y="-402.6" font-family="Times,serif" font-size="14.00" fill="#000000"> avg_Y = &#45;0.76</text>
<text text-anchor="middle" x="169.4382" y="-385.8" font-family="Times,serif" font-size="14.00" fill="#000000">avg_W = 0.47 </text>
</g>
<!-- 1&#45;&gt;4 -->
<g id="edge4" class="edge">
<title>1&#45;&gt;4</title>
<path fill="none" stroke="#000000" d="M169.4382,-471.9468C169.4382,-464.3769 169.4382,-455.256 169.4382,-446.2681"/>
<polygon fill="#000000" stroke="#000000" points="172.9383,-446.2667 169.4382,-436.2668 165.9383,-446.2668 172.9383,-446.2667"/>
</g>
<!-- 5 -->
<g id="node6" class="node">
<title>5</title>
<polygon fill="none" stroke="#000000" points="392.9876,-424.8 237.8888,-424.8 237.8888,-388.8 392.9876,-388.8 392.9876,-424.8"/>
<text text-anchor="middle" x="315.4382" y="-402.6" font-family="Times,serif" font-size="14.00" fill="#000000"> subj.loan.value &lt;= 0.03 </text>
</g>
<!-- 2&#45;&gt;5 -->
<g id="edge5" class="edge">
<title>2&#45;&gt;5</title>
<path fill="none" stroke="#000000" d="M315.4382,-471.9468C315.4382,-461.1532 315.4382,-447.2061 315.4382,-434.9876"/>
<polygon fill="#000000" stroke="#000000" points="318.9383,-434.8179 315.4382,-424.8179 311.9383,-434.818 318.9383,-434.8179"/>
</g>
<!-- 6 -->
<g id="node7" class="node">
<title>6</title>
<polygon fill="none" stroke="#000000" points="541.5971,-424.8 411.2793,-424.8 411.2793,-388.8 541.5971,-388.8 541.5971,-424.8"/>
<text text-anchor="middle" x="476.4382" y="-402.6" font-family="Times,serif" font-size="14.00" fill="#000000"> makes.budget &lt;= 0 </text>
</g>
<!-- 2&#45;&gt;6 -->
<g id="edge6" class="edge">
<title>2&#45;&gt;6</title>
<path fill="none" stroke="#000000" d="M350.3728,-471.9468C374.4242,-459.5178 406.5671,-442.9073 432.3764,-429.5698"/>
<polygon fill="#000000" stroke="#000000" points="434.2947,-432.5183 441.5718,-424.8179 431.081,-426.2995 434.2947,-432.5183"/>
</g>
<!-- 7 -->
<g id="node8" class="node">
<title>7</title>
<polygon fill="#c1b2ff" stroke="#c1b2ff" points="250.8147,-341.8014 150.0617,-341.8014 150.0617,-282.9986 250.8147,-282.9986 250.8147,-341.8014"/>
<text text-anchor="middle" x="200.4382" y="-325" font-family="Times,serif" font-size="14.00" fill="#000000">size = &#160;66 </text>
<text text-anchor="middle" x="200.4382" y="-308.2" font-family="Times,serif" font-size="14.00" fill="#000000"> avg_Y = &#45;0.79</text>
<text text-anchor="middle" x="200.4382" y="-291.4" font-family="Times,serif" font-size="14.00" fill="#000000">avg_W = 0.47 </text>
</g>
<!-- 5&#45;&gt;7 -->
<g id="edge7" class="edge">
<title>5&#45;&gt;7</title>
<path fill="none" stroke="#000000" d="M293.265,-388.5987C279.3546,-377.1801 260.9406,-362.0646 244.1826,-348.3084"/>
<polygon fill="#000000" stroke="#000000" points="246.066,-345.3263 236.1159,-341.6868 241.6246,-350.7369 246.066,-345.3263"/>
</g>
<!-- 8 -->
<g id="node9" class="node">
<title>8</title>
<polygon fill="#c1b2ff" stroke="#c1b2ff" points="369.8147,-341.8014 269.0617,-341.8014 269.0617,-282.9986 369.8147,-282.9986 369.8147,-341.8014"/>
<text text-anchor="middle" x="319.4382" y="-325" font-family="Times,serif" font-size="14.00" fill="#000000">size = &#160;27 </text>
<text text-anchor="middle" x="319.4382" y="-308.2" font-family="Times,serif" font-size="14.00" fill="#000000"> avg_Y = &#45;0.72</text>
<text text-anchor="middle" x="319.4382" y="-291.4" font-family="Times,serif" font-size="14.00" fill="#000000">avg_W = 0.59 </text>
</g>
<!-- 5&#45;&gt;8 -->
<g id="edge8" class="edge">
<title>5&#45;&gt;8</title>
<path fill="none" stroke="#000000" d="M316.2094,-388.5987C316.6537,-378.1143 317.23,-364.5133 317.7725,-351.7095"/>
<polygon fill="#000000" stroke="#000000" points="321.2707,-351.826 318.1972,-341.6868 314.2769,-351.5296 321.2707,-351.826"/>
</g>
<!-- 9 -->
<g id="node10" class="node">
<title>9</title>
<polygon fill="none" stroke="#000000" points="553.1485,-330.4 393.7279,-330.4 393.7279,-294.4 553.1485,-294.4 553.1485,-330.4"/>
<text text-anchor="middle" x="473.4382" y="-308.2" font-family="Times,serif" font-size="14.00" fill="#000000"> subj.loan.value &lt;= &#45;0.44 </text>
</g>
<!-- 6&#45;&gt;9 -->
<g id="edge9" class="edge">
<title>6&#45;&gt;9</title>
<path fill="none" stroke="#000000" d="M475.8598,-388.5987C475.4281,-375.0169 474.8303,-356.2048 474.3366,-340.6711"/>
<polygon fill="#000000" stroke="#000000" points="477.8308,-340.4291 474.0149,-330.5454 470.8344,-340.6516 477.8308,-340.4291"/>
</g>
<!-- 10 -->
<g id="node11" class="node">
<title>10</title>
<polygon fill="none" stroke="#000000" points="731.1485,-330.4 571.7279,-330.4 571.7279,-294.4 731.1485,-294.4 731.1485,-330.4"/>
<text text-anchor="middle" x="651.4382" y="-308.2" font-family="Times,serif" font-size="14.00" fill="#000000"> subj.loan.value &lt;= &#45;0.01 </text>
</g>
<!-- 6&#45;&gt;10 -->
<g id="edge10" class="edge">
<title>6&#45;&gt;10</title>
<path fill="none" stroke="#000000" d="M510.18,-388.5987C538.2633,-373.4498 578.4092,-351.794 608.7298,-335.4381"/>
<polygon fill="#000000" stroke="#000000" points="610.6605,-338.3734 617.8,-330.5454 607.3372,-332.2126 610.6605,-338.3734"/>
</g>
<!-- 11 -->
<g id="node12" class="node">
<title>11</title>
<polygon fill="#c1b2ff" stroke="#c1b2ff" points="422.8147,-247.4014 322.0617,-247.4014 322.0617,-188.5986 422.8147,-188.5986 422.8147,-247.4014"/>
<text text-anchor="middle" x="372.4382" y="-230.6" font-family="Times,serif" font-size="14.00" fill="#000000">size = &#160;26 </text>
<text text-anchor="middle" x="372.4382" y="-213.8" font-family="Times,serif" font-size="14.00" fill="#000000"> avg_Y = &#45;0.77</text>
<text text-anchor="middle" x="372.4382" y="-197" font-family="Times,serif" font-size="14.00" fill="#000000">avg_W = 0.62 </text>
</g>
<!-- 9&#45;&gt;11 -->
<g id="edge11" class="edge">
<title>9&#45;&gt;11</title>
<path fill="none" stroke="#000000" d="M453.9644,-294.1987C441.8585,-282.8839 425.8688,-267.9391 411.2589,-254.2839"/>
<polygon fill="#000000" stroke="#000000" points="413.4682,-251.5581 403.7726,-247.2868 408.6884,-256.6721 413.4682,-251.5581"/>
</g>
<!-- 12 -->
<g id="node13" class="node">
<title>12</title>
<polygon fill="#c1b2ff" stroke="#c1b2ff" points="541.8147,-247.4014 441.0617,-247.4014 441.0617,-188.5986 541.8147,-188.5986 541.8147,-247.4014"/>
<text text-anchor="middle" x="491.4382" y="-230.6" font-family="Times,serif" font-size="14.00" fill="#000000">size = &#160;28 </text>
<text text-anchor="middle" x="491.4382" y="-213.8" font-family="Times,serif" font-size="14.00" fill="#000000"> avg_Y = &#45;0.46</text>
<text text-anchor="middle" x="491.4382" y="-197" font-family="Times,serif" font-size="14.00" fill="#000000">avg_W = 0.43 </text>
</g>
<!-- 9&#45;&gt;12 -->
<g id="edge12" class="edge">
<title>9&#45;&gt;12</title>
<path fill="none" stroke="#000000" d="M476.9088,-294.1987C478.9079,-283.7143 481.5013,-270.1133 483.9428,-257.3095"/>
<polygon fill="#000000" stroke="#000000" points="487.4188,-257.7654 485.8539,-247.2868 480.5427,-256.4542 487.4188,-257.7654"/>
</g>
<!-- 13 -->
<g id="node14" class="node">
<title>13</title>
<polygon fill="none" stroke="#000000" points="674.1569,-236 594.7195,-236 594.7195,-200 674.1569,-200 674.1569,-236"/>
<text text-anchor="middle" x="634.4382" y="-213.8" font-family="Times,serif" font-size="14.00" fill="#000000"> age &lt;= 46 </text>
</g>
<!-- 10&#45;&gt;13 -->
<g id="edge13" class="edge">
<title>10&#45;&gt;13</title>
<path fill="none" stroke="#000000" d="M648.1604,-294.1987C645.7145,-280.6169 642.3268,-261.8048 639.5294,-246.2711"/>
<polygon fill="#000000" stroke="#000000" points="642.9229,-245.3667 637.7059,-236.1454 636.0337,-246.6074 642.9229,-245.3667"/>
</g>
<!-- 14 -->
<g id="node15" class="node">
<title>14</title>
<polygon fill="none" stroke="#000000" points="846.9876,-236 691.8888,-236 691.8888,-200 846.9876,-200 846.9876,-236"/>
<text text-anchor="middle" x="769.4382" y="-213.8" font-family="Times,serif" font-size="14.00" fill="#000000"> subj.loan.value &lt;= 0.84 </text>
</g>
<!-- 10&#45;&gt;14 -->
<g id="edge14" class="edge">
<title>10&#45;&gt;14</title>
<path fill="none" stroke="#000000" d="M674.1898,-294.1987C692.5546,-279.5068 718.5696,-258.6948 738.7723,-242.5328"/>
<polygon fill="#000000" stroke="#000000" points="741.1342,-245.1254 746.7565,-236.1454 736.7613,-239.6593 741.1342,-245.1254"/>
</g>
<!-- 15 -->
<g id="node16" class="node">
<title>15</title>
<polygon fill="none" stroke="#000000" points="570.4336,-141.6 420.4428,-141.6 420.4428,-105.6 570.4336,-105.6 570.4336,-141.6"/>
<text text-anchor="middle" x="495.4382" y="-119.4" font-family="Times,serif" font-size="14.00" fill="#000000"> more.high.school &lt;= 0 </text>
</g>
<!-- 13&#45;&gt;15 -->
<g id="edge15" class="edge">
<title>13&#45;&gt;15</title>
<path fill="none" stroke="#000000" d="M607.6376,-199.7987C585.716,-184.911 554.5408,-163.7388 530.6134,-147.4888"/>
<polygon fill="#000000" stroke="#000000" points="532.3955,-144.4682 522.1565,-141.7454 528.4627,-150.2591 532.3955,-144.4682"/>
</g>
<!-- 16 -->
<g id="node17" class="node">
<title>16</title>
<polygon fill="#c1b2ff" stroke="#c1b2ff" points="688.8147,-153.0014 588.0617,-153.0014 588.0617,-94.1986 688.8147,-94.1986 688.8147,-153.0014"/>
<text text-anchor="middle" x="638.4382" y="-136.2" font-family="Times,serif" font-size="14.00" fill="#000000">size = &#160;77 </text>
<text text-anchor="middle" x="638.4382" y="-119.4" font-family="Times,serif" font-size="14.00" fill="#000000"> avg_Y = &#45;0.67</text>
<text text-anchor="middle" x="638.4382" y="-102.6" font-family="Times,serif" font-size="14.00" fill="#000000">avg_W = 0.39 </text>
</g>
<!-- 13&#45;&gt;16 -->
<g id="edge16" class="edge">
<title>13&#45;&gt;16</title>
<path fill="none" stroke="#000000" d="M635.2094,-199.7987C635.6537,-189.3143 636.23,-175.7133 636.7725,-162.9095"/>
<polygon fill="#000000" stroke="#000000" points="640.2707,-163.026 637.1972,-152.8868 633.2769,-162.7296 640.2707,-163.026"/>
</g>
<!-- 17 -->
<g id="node20" class="node">
<title>17</title>
<polygon fill="#c1b2ff" stroke="#c1b2ff" points="815.8147,-153.0014 715.0617,-153.0014 715.0617,-94.1986 815.8147,-94.1986 815.8147,-153.0014"/>
<text text-anchor="middle" x="765.4382" y="-136.2" font-family="Times,serif" font-size="14.00" fill="#000000">size = &#160;40 </text>
<text text-anchor="middle" x="765.4382" y="-119.4" font-family="Times,serif" font-size="14.00" fill="#000000"> avg_Y = &#45;0.62</text>
<text text-anchor="middle" x="765.4382" y="-102.6" font-family="Times,serif" font-size="14.00" fill="#000000">avg_W = 0.28 </text>
</g>
<!-- 14&#45;&gt;17 -->
<g id="edge19" class="edge">
<title>14&#45;&gt;17</title>
<path fill="none" stroke="#000000" d="M768.667,-199.7987C768.2227,-189.3143 767.6464,-175.7133 767.1039,-162.9095"/>
<polygon fill="#000000" stroke="#000000" points="770.5995,-162.7296 766.6792,-152.8868 763.6057,-163.026 770.5995,-162.7296"/>
</g>
<!-- 18 -->
<g id="node21" class="node">
<title>18</title>
<polygon fill="#c1b2ff" stroke="#c1b2ff" points="934.8147,-153.0014 834.0617,-153.0014 834.0617,-94.1986 934.8147,-94.1986 934.8147,-153.0014"/>
<text text-anchor="middle" x="884.4382" y="-136.2" font-family="Times,serif" font-size="14.00" fill="#000000">size = &#160;24 </text>
<text text-anchor="middle" x="884.4382" y="-119.4" font-family="Times,serif" font-size="14.00" fill="#000000"> avg_Y = &#45;0.51</text>
<text text-anchor="middle" x="884.4382" y="-102.6" font-family="Times,serif" font-size="14.00" fill="#000000">avg_W = 0.38 </text>
</g>
<!-- 14&#45;&gt;18 -->
<g id="edge20" class="edge">
<title>14&#45;&gt;18</title>
<path fill="none" stroke="#000000" d="M791.6114,-199.7987C805.5218,-188.3801 823.9358,-173.2646 840.6938,-159.5084"/>
<polygon fill="#000000" stroke="#000000" points="843.2518,-161.9369 848.7605,-152.8868 838.8104,-156.5263 843.2518,-161.9369"/>
</g>
<!-- 19 -->
<g id="node18" class="node">
<title>19</title>
<polygon fill="#c1b2ff" stroke="#c1b2ff" points="486.8147,-58.6014 386.0617,-58.6014 386.0617,.2014 486.8147,.2014 486.8147,-58.6014"/>
<text text-anchor="middle" x="436.4382" y="-41.8" font-family="Times,serif" font-size="14.00" fill="#000000">size = &#160;15 </text>
<text text-anchor="middle" x="436.4382" y="-25" font-family="Times,serif" font-size="14.00" fill="#000000"> avg_Y = &#45;0.69</text>
<text text-anchor="middle" x="436.4382" y="-8.2" font-family="Times,serif" font-size="14.00" fill="#000000">avg_W = 0.53 </text>
</g>
<!-- 15&#45;&gt;19 -->
<g id="edge17" class="edge">
<title>15&#45;&gt;19</title>
<path fill="none" stroke="#000000" d="M484.0624,-105.3987C477.2501,-94.4991 468.3326,-80.2311 460.0583,-66.9922"/>
<polygon fill="#000000" stroke="#000000" points="463.0105,-65.1117 454.7424,-58.4868 457.0745,-68.8218 463.0105,-65.1117"/>
</g>
<!-- 20 -->
<g id="node19" class="node">
<title>20</title>
<polygon fill="#c1b2ff" stroke="#c1b2ff" points="605.8147,-58.6014 505.0617,-58.6014 505.0617,.2014 605.8147,.2014 605.8147,-58.6014"/>
<text text-anchor="middle" x="555.4382" y="-41.8" font-family="Times,serif" font-size="14.00" fill="#000000">size = &#160;25 </text>
<text text-anchor="middle" x="555.4382" y="-25" font-family="Times,serif" font-size="14.00" fill="#000000"> avg_Y = &#45;0.72</text>
<text text-anchor="middle" x="555.4382" y="-8.2" font-family="Times,serif" font-size="14.00" fill="#000000">avg_W = 0.44 </text>
</g>
<!-- 15&#45;&gt;20 -->
<g id="edge18" class="edge">
<title>15&#45;&gt;20</title>
<path fill="none" stroke="#000000" d="M507.0068,-105.3987C513.9345,-94.4991 523.0032,-80.2311 531.4177,-66.9922"/>
<polygon fill="#000000" stroke="#000000" points="534.4134,-68.8038 536.8237,-58.4868 528.5057,-65.0489 534.4134,-68.8038"/>
</g>
</g>
</svg>
