<?xml version="1.0" encoding="UTF-8" standalone="no"?>
<!DOCTYPE svg PUBLIC "-//W3C//DTD SVG 1.1//EN"
 "http://www.w3.org/Graphics/SVG/1.1/DTD/svg11.dtd">
<!-- Generated by graphviz version 2.40.1 (20161225.0304)
 -->
<!-- Title: nodes Pages: 1 -->
<svg width="658pt" height="654pt"
 viewBox="0.00 0.00 658.46 653.60" xmlns="http://www.w3.org/2000/svg" xmlns:xlink="http://www.w3.org/1999/xlink">
<g id="graph0" class="graph" transform="scale(1 1) rotate(0) translate(4 649.6)">
<title>nodes</title>
<polygon fill="#ffffff" stroke="transparent" points="-4,4 -4,-649.6 654.4567,-649.6 654.4567,4 -4,4"/>
<!-- 0 -->
<g id="node1" class="node">
<title>0</title>
<polygon fill="none" stroke="#000000" points="344.1088,-645.6 250.1096,-645.6 250.1096,-609.6 344.1088,-609.6 344.1088,-645.6"/>
<text text-anchor="middle" x="297.1092" y="-623.4" font-family="Times,serif" font-size="14.00" fill="#000000"> tentado &lt;= 0 </text>
</g>
<!-- 1 -->
<g id="node2" class="node">
<title>1</title>
<polygon fill="none" stroke="#000000" points="291.7866,-573.6 158.4318,-573.6 158.4318,-537.6 291.7866,-537.6 291.7866,-573.6"/>
<text text-anchor="middle" x="225.1092" y="-551.4" font-family="Times,serif" font-size="14.00" fill="#000000"> dummy_dow1 &lt;= 0 </text>
</g>
<!-- 0&#45;&gt;1 -->
<g id="edge1" class="edge">
<title>0&#45;&gt;1</title>
<path fill="none" stroke="#000000" d="M278.9406,-609.4314C270.394,-600.8848 260.0535,-590.5443 250.729,-581.2198"/>
<polygon fill="#000000" stroke="#000000" points="253.0684,-578.6095 243.5225,-574.0133 248.1187,-583.5592 253.0684,-578.6095"/>
<text text-anchor="middle" x="243.5225" y="-594.8133" font-family="Times,serif" font-size="14.00" fill="#000000">True</text>
</g>
<!-- 2 -->
<g id="node3" class="node">
<title>2</title>
<polygon fill="none" stroke="#000000" points="428.214,-573.6 310.0044,-573.6 310.0044,-537.6 428.214,-537.6 428.214,-573.6"/>
<text text-anchor="middle" x="369.1092" y="-551.4" font-family="Times,serif" font-size="14.00" fill="#000000"> prestamo &lt;= 800 </text>
</g>
<!-- 0&#45;&gt;2 -->
<g id="edge2" class="edge">
<title>0&#45;&gt;2</title>
<path fill="none" stroke="#000000" d="M315.2778,-609.4314C323.8244,-600.8848 334.1649,-590.5443 343.4894,-581.2198"/>
<polygon fill="#000000" stroke="#000000" points="346.0997,-583.5592 350.6959,-574.0133 341.15,-578.6095 346.0997,-583.5592"/>
<text text-anchor="middle" x="350.6959" y="-594.8133" font-family="Times,serif" font-size="14.00" fill="#000000">False</text>
</g>
<!-- 3 -->
<g id="node4" class="node">
<title>3</title>
<polygon fill="none" stroke="#000000" points="178.3279,-498.8 91.8905,-498.8 91.8905,-462.8 178.3279,-462.8 178.3279,-498.8"/>
<text text-anchor="middle" x="135.1092" y="-476.6" font-family="Times,serif" font-size="14.00" fill="#000000"> edad &lt;= 61 </text>
</g>
<!-- 1&#45;&gt;3 -->
<g id="edge3" class="edge">
<title>1&#45;&gt;3</title>
<path fill="none" stroke="#000000" d="M203.3227,-537.493C191.8004,-527.9167 177.4821,-516.0165 164.9429,-505.5951"/>
<polygon fill="#000000" stroke="#000000" points="166.9348,-502.6996 157.007,-498.9995 162.4605,-508.083 166.9348,-502.6996"/>
</g>
<!-- 4 -->
<g id="node5" class="node">
<title>4</title>
<polygon fill="#c1b2ff" stroke="#c1b2ff" points="270.3048,-501.4019 195.9136,-501.4019 195.9136,-460.1981 270.3048,-460.1981 270.3048,-501.4019"/>
<text text-anchor="middle" x="233.1092" y="-485" font-family="Times,serif" font-size="14.00" fill="#000000">leaf node &#160;</text>
<text text-anchor="middle" x="233.1092" y="-468.2" font-family="Times,serif" font-size="14.00" fill="#000000">size = &#160;12 </text>
</g>
<!-- 1&#45;&gt;4 -->
<g id="edge4" class="edge">
<title>1&#45;&gt;4</title>
<path fill="none" stroke="#000000" d="M227.0458,-537.493C227.8767,-529.7239 228.8712,-520.4252 229.8121,-511.6275"/>
<polygon fill="#000000" stroke="#000000" points="233.2957,-511.967 230.8791,-501.6515 226.3354,-511.2226 233.2957,-511.967"/>
</g>
<!-- 5 -->
<g id="node12" class="node">
<title>5</title>
<polygon fill="none" stroke="#000000" points="421.7699,-498.8 302.4485,-498.8 302.4485,-462.8 421.7699,-462.8 421.7699,-498.8"/>
<text text-anchor="middle" x="362.1092" y="-476.6" font-family="Times,serif" font-size="14.00" fill="#000000"> fam_comun &lt;= 0 </text>
</g>
<!-- 2&#45;&gt;5 -->
<g id="edge11" class="edge">
<title>2&#45;&gt;5</title>
<path fill="none" stroke="#000000" d="M367.4147,-537.493C366.6209,-529.0112 365.6566,-518.7062 364.7689,-509.2204"/>
<polygon fill="#000000" stroke="#000000" points="368.229,-508.6299 363.8124,-498.9995 361.2594,-509.2821 368.229,-508.6299"/>
</g>
<!-- 6 -->
<g id="node13" class="node">
<title>6</title>
<polygon fill="none" stroke="#000000" points="566.281,-498.8 439.9374,-498.8 439.9374,-462.8 566.281,-462.8 566.281,-498.8"/>
<text text-anchor="middle" x="503.1092" y="-476.6" font-family="Times,serif" font-size="14.00" fill="#000000"> visit_number &lt;= 1 </text>
</g>
<!-- 2&#45;&gt;6 -->
<g id="edge12" class="edge">
<title>2&#45;&gt;6</title>
<path fill="none" stroke="#000000" d="M401.5469,-537.493C419.6009,-527.4151 442.2655,-514.7635 461.6012,-503.9701"/>
<polygon fill="#000000" stroke="#000000" points="463.48,-506.9298 470.5058,-498.9995 460.0681,-500.8176 463.48,-506.9298"/>
</g>
<!-- 7 -->
<g id="node6" class="node">
<title>7</title>
<polygon fill="none" stroke="#000000" points="115.8082,-421.2 22.4102,-421.2 22.4102,-385.2 115.8082,-385.2 115.8082,-421.2"/>
<text text-anchor="middle" x="69.1092" y="-399" font-family="Times,serif" font-size="14.00" fill="#000000"> rec_cel &lt;= 0 </text>
</g>
<!-- 3&#45;&gt;7 -->
<g id="edge5" class="edge">
<title>3&#45;&gt;7</title>
<path fill="none" stroke="#000000" d="M119.4681,-462.4099C111.0021,-452.4558 100.4051,-439.9964 91.1189,-429.0781"/>
<polygon fill="#000000" stroke="#000000" points="93.7829,-426.808 84.638,-421.4581 88.4507,-431.3432 93.7829,-426.808"/>
</g>
<!-- 8 -->
<g id="node7" class="node">
<title>8</title>
<polygon fill="#c1b2ff" stroke="#c1b2ff" points="208.3048,-423.8019 133.9136,-423.8019 133.9136,-382.5981 208.3048,-382.5981 208.3048,-423.8019"/>
<text text-anchor="middle" x="171.1092" y="-407.4" font-family="Times,serif" font-size="14.00" fill="#000000">leaf node &#160;</text>
<text text-anchor="middle" x="171.1092" y="-390.6" font-family="Times,serif" font-size="14.00" fill="#000000">size = &#160;13 </text>
</g>
<!-- 3&#45;&gt;8 -->
<g id="edge6" class="edge">
<title>3&#45;&gt;8</title>
<path fill="none" stroke="#000000" d="M143.6407,-462.4099C147.7059,-453.6471 152.6719,-442.9426 157.2579,-433.0572"/>
<polygon fill="#000000" stroke="#000000" points="160.4632,-434.4648 161.4966,-423.9205 154.1132,-431.5189 160.4632,-434.4648"/>
</g>
<!-- 13 -->
<g id="node8" class="node">
<title>13</title>
<polygon fill="none" stroke="#000000" points="86.3279,-343.6 -.1095,-343.6 -.1095,-307.6 86.3279,-307.6 86.3279,-343.6"/>
<text text-anchor="middle" x="43.1092" y="-321.4" font-family="Times,serif" font-size="14.00" fill="#000000"> edad &lt;= 43 </text>
</g>
<!-- 7&#45;&gt;13 -->
<g id="edge7" class="edge">
<title>7&#45;&gt;13</title>
<path fill="none" stroke="#000000" d="M62.9476,-384.8099C59.8067,-375.4357 55.9214,-363.8395 52.424,-353.401"/>
<polygon fill="#000000" stroke="#000000" points="55.7223,-352.2281 49.2266,-343.8581 49.0849,-354.452 55.7223,-352.2281"/>
</g>
<!-- 14 -->
<g id="node9" class="node">
<title>14</title>
<polygon fill="#c1b2ff" stroke="#c1b2ff" points="178.3048,-346.2019 103.9136,-346.2019 103.9136,-304.9981 178.3048,-304.9981 178.3048,-346.2019"/>
<text text-anchor="middle" x="141.1092" y="-329.8" font-family="Times,serif" font-size="14.00" fill="#000000">leaf node &#160;</text>
<text text-anchor="middle" x="141.1092" y="-313" font-family="Times,serif" font-size="14.00" fill="#000000">size = &#160;12 </text>
</g>
<!-- 7&#45;&gt;14 -->
<g id="edge8" class="edge">
<title>7&#45;&gt;14</title>
<path fill="none" stroke="#000000" d="M86.1722,-384.8099C94.7218,-375.5954 105.2633,-364.2339 114.8186,-353.9354"/>
<polygon fill="#000000" stroke="#000000" points="117.6481,-356.0317 121.884,-346.3205 112.5166,-351.2706 117.6481,-356.0317"/>
</g>
<!-- 17 -->
<g id="node10" class="node">
<title>17</title>
<polygon fill="#c1b2ff" stroke="#c1b2ff" points="77.3048,-268.6019 2.9136,-268.6019 2.9136,-227.3981 77.3048,-227.3981 77.3048,-268.6019"/>
<text text-anchor="middle" x="40.1092" y="-252.2" font-family="Times,serif" font-size="14.00" fill="#000000">leaf node &#160;</text>
<text text-anchor="middle" x="40.1092" y="-235.4" font-family="Times,serif" font-size="14.00" fill="#000000">size = &#160;26 </text>
</g>
<!-- 13&#45;&gt;17 -->
<g id="edge9" class="edge">
<title>13&#45;&gt;17</title>
<path fill="none" stroke="#000000" d="M42.3982,-307.2099C42.07,-298.7181 41.6712,-288.4029 41.299,-278.7766"/>
<polygon fill="#000000" stroke="#000000" points="44.794,-278.5778 40.9103,-268.7205 37.7993,-278.8483 44.794,-278.5778"/>
</g>
<!-- 18 -->
<g id="node11" class="node">
<title>18</title>
<polygon fill="#c1b2ff" stroke="#c1b2ff" points="170.3048,-268.6019 95.9136,-268.6019 95.9136,-227.3981 170.3048,-227.3981 170.3048,-268.6019"/>
<text text-anchor="middle" x="133.1092" y="-252.2" font-family="Times,serif" font-size="14.00" fill="#000000">leaf node &#160;</text>
<text text-anchor="middle" x="133.1092" y="-235.4" font-family="Times,serif" font-size="14.00" fill="#000000">size = &#160;15 </text>
</g>
<!-- 13&#45;&gt;18 -->
<g id="edge10" class="edge">
<title>13&#45;&gt;18</title>
<path fill="none" stroke="#000000" d="M64.4379,-307.2099C75.4392,-297.7243 89.0792,-285.9637 101.2966,-275.4296"/>
<polygon fill="#000000" stroke="#000000" points="103.7897,-277.9013 109.0777,-268.7205 99.2186,-272.5999 103.7897,-277.9013"/>
</g>
<!-- 9 -->
<g id="node14" class="node">
<title>9</title>
<polygon fill="#c1b2ff" stroke="#c1b2ff" points="314.3048,-423.8019 239.9136,-423.8019 239.9136,-382.5981 314.3048,-382.5981 314.3048,-423.8019"/>
<text text-anchor="middle" x="277.1092" y="-407.4" font-family="Times,serif" font-size="14.00" fill="#000000">leaf node &#160;</text>
<text text-anchor="middle" x="277.1092" y="-390.6" font-family="Times,serif" font-size="14.00" fill="#000000">size = &#160;34 </text>
</g>
<!-- 5&#45;&gt;9 -->
<g id="edge13" class="edge">
<title>5&#45;&gt;9</title>
<path fill="none" stroke="#000000" d="M341.9654,-462.4099C331.6743,-453.0147 318.9383,-441.3875 307.4845,-430.9309"/>
<polygon fill="#000000" stroke="#000000" points="309.5507,-428.078 299.8056,-423.9205 304.8311,-433.2477 309.5507,-428.078"/>
</g>
<!-- 10 -->
<g id="node15" class="node">
<title>10</title>
<polygon fill="#c1b2ff" stroke="#c1b2ff" points="407.3048,-423.8019 332.9136,-423.8019 332.9136,-382.5981 407.3048,-382.5981 407.3048,-423.8019"/>
<text text-anchor="middle" x="370.1092" y="-407.4" font-family="Times,serif" font-size="14.00" fill="#000000">leaf node &#160;</text>
<text text-anchor="middle" x="370.1092" y="-390.6" font-family="Times,serif" font-size="14.00" fill="#000000">size = &#160;21 </text>
</g>
<!-- 5&#45;&gt;10 -->
<g id="edge14" class="edge">
<title>5&#45;&gt;10</title>
<path fill="none" stroke="#000000" d="M364.0051,-462.4099C364.8805,-453.9181 365.944,-443.6029 366.9363,-433.9766"/>
<polygon fill="#000000" stroke="#000000" points="370.429,-434.2267 367.9731,-423.9205 363.4659,-433.5088 370.429,-434.2267"/>
</g>
<!-- 11 -->
<g id="node16" class="node">
<title>11</title>
<polygon fill="none" stroke="#000000" points="557.714,-421.2 432.5044,-421.2 432.5044,-385.2 557.714,-385.2 557.714,-421.2"/>
<text text-anchor="middle" x="495.1092" y="-399" font-family="Times,serif" font-size="14.00" fill="#000000"> prestamo &lt;= 5220 </text>
</g>
<!-- 6&#45;&gt;11 -->
<g id="edge15" class="edge">
<title>6&#45;&gt;11</title>
<path fill="none" stroke="#000000" d="M501.2133,-462.4099C500.2668,-453.229 499.1006,-441.9167 498.042,-431.6482"/>
<polygon fill="#000000" stroke="#000000" points="501.4986,-431.0464 496.9915,-421.4581 494.5355,-431.7643 501.4986,-431.0464"/>
</g>
<!-- 12 -->
<g id="node17" class="node">
<title>12</title>
<polygon fill="#c1b2ff" stroke="#c1b2ff" points="650.3048,-423.8019 575.9136,-423.8019 575.9136,-382.5981 650.3048,-382.5981 650.3048,-423.8019"/>
<text text-anchor="middle" x="613.1092" y="-407.4" font-family="Times,serif" font-size="14.00" fill="#000000">leaf node &#160;</text>
<text text-anchor="middle" x="613.1092" y="-390.6" font-family="Times,serif" font-size="14.00" fill="#000000">size = &#160;15 </text>
</g>
<!-- 6&#45;&gt;12 -->
<g id="edge16" class="edge">
<title>6&#45;&gt;12</title>
<path fill="none" stroke="#000000" d="M528.8993,-462.6062C542.7228,-452.8544 560.0142,-440.6561 575.3258,-429.8545"/>
<polygon fill="#000000" stroke="#000000" points="577.4402,-432.6462 583.5939,-424.0217 573.405,-426.9263 577.4402,-432.6462"/>
</g>
<!-- 15 -->
<g id="node18" class="node">
<title>15</title>
<polygon fill="none" stroke="#000000" points="470.7866,-343.6 337.4318,-343.6 337.4318,-307.6 470.7866,-307.6 470.7866,-343.6"/>
<text text-anchor="middle" x="404.1092" y="-321.4" font-family="Times,serif" font-size="14.00" fill="#000000"> dummy_dow1 &lt;= 0 </text>
</g>
<!-- 11&#45;&gt;15 -->
<g id="edge17" class="edge">
<title>11&#45;&gt;15</title>
<path fill="none" stroke="#000000" d="M473.5435,-384.8099C461.5306,-374.5659 446.406,-361.6685 433.3419,-350.5281"/>
<polygon fill="#000000" stroke="#000000" points="435.4002,-347.6836 425.5201,-343.8581 430.8582,-353.0099 435.4002,-347.6836"/>
</g>
<!-- 16 -->
<g id="node19" class="node">
<title>16</title>
<polygon fill="#c1b2ff" stroke="#c1b2ff" points="563.3048,-346.2019 488.9136,-346.2019 488.9136,-304.9981 563.3048,-304.9981 563.3048,-346.2019"/>
<text text-anchor="middle" x="526.1092" y="-329.8" font-family="Times,serif" font-size="14.00" fill="#000000">leaf node &#160;</text>
<text text-anchor="middle" x="526.1092" y="-313" font-family="Times,serif" font-size="14.00" fill="#000000">size = &#160;15 </text>
</g>
<!-- 11&#45;&gt;16 -->
<g id="edge18" class="edge">
<title>11&#45;&gt;16</title>
<path fill="none" stroke="#000000" d="M502.4558,-384.8099C505.9203,-376.1374 510.1446,-365.5631 514.0595,-355.7632"/>
<polygon fill="#000000" stroke="#000000" points="517.3721,-356.9054 517.8317,-346.3205 510.8716,-354.3085 517.3721,-356.9054"/>
</g>
<!-- 19 -->
<g id="node20" class="node">
<title>19</title>
<polygon fill="none" stroke="#000000" points="380.7866,-266 247.4318,-266 247.4318,-230 380.7866,-230 380.7866,-266"/>
<text text-anchor="middle" x="314.1092" y="-243.8" font-family="Times,serif" font-size="14.00" fill="#000000"> dummy_dow4 &lt;= 0 </text>
</g>
<!-- 15&#45;&gt;19 -->
<g id="edge19" class="edge">
<title>15&#45;&gt;19</title>
<path fill="none" stroke="#000000" d="M382.7805,-307.2099C370.8996,-296.9659 355.9412,-284.0685 343.0206,-272.9281"/>
<polygon fill="#000000" stroke="#000000" points="345.1439,-270.1375 335.2848,-266.2581 340.5729,-275.439 345.1439,-270.1375"/>
</g>
<!-- 20 -->
<g id="node21" class="node">
<title>20</title>
<polygon fill="#c1b2ff" stroke="#c1b2ff" points="473.3048,-268.6019 398.9136,-268.6019 398.9136,-227.3981 473.3048,-227.3981 473.3048,-268.6019"/>
<text text-anchor="middle" x="436.1092" y="-252.2" font-family="Times,serif" font-size="14.00" fill="#000000">leaf node &#160;</text>
<text text-anchor="middle" x="436.1092" y="-235.4" font-family="Times,serif" font-size="14.00" fill="#000000">size = &#160;12 </text>
</g>
<!-- 15&#45;&gt;20 -->
<g id="edge20" class="edge">
<title>15&#45;&gt;20</title>
<path fill="none" stroke="#000000" d="M411.6928,-307.2099C415.269,-298.5374 419.6296,-287.9631 423.6708,-278.1632"/>
<polygon fill="#000000" stroke="#000000" points="426.988,-279.2996 427.5647,-268.7205 420.5166,-276.631 426.988,-279.2996"/>
</g>
<!-- 21 -->
<g id="node22" class="node">
<title>21</title>
<polygon fill="none" stroke="#000000" points="313.5389,-188.4 206.6795,-188.4 206.6795,-152.4 313.5389,-152.4 313.5389,-188.4"/>
<text text-anchor="middle" x="260.1092" y="-166.2" font-family="Times,serif" font-size="14.00" fill="#000000"> cta_tanda &lt;= 0 </text>
</g>
<!-- 19&#45;&gt;21 -->
<g id="edge21" class="edge">
<title>19&#45;&gt;21</title>
<path fill="none" stroke="#000000" d="M301.312,-229.6099C294.5197,-219.8491 286.051,-207.6793 278.5609,-196.9158"/>
<polygon fill="#000000" stroke="#000000" points="281.3994,-194.8671 272.8146,-188.6581 275.6536,-198.8655 281.3994,-194.8671"/>
</g>
<!-- 22 -->
<g id="node23" class="node">
<title>22</title>
<polygon fill="#c1b2ff" stroke="#c1b2ff" points="406.3048,-191.0019 331.9136,-191.0019 331.9136,-149.7981 406.3048,-149.7981 406.3048,-191.0019"/>
<text text-anchor="middle" x="369.1092" y="-174.6" font-family="Times,serif" font-size="14.00" fill="#000000">leaf node &#160;</text>
<text text-anchor="middle" x="369.1092" y="-157.8" font-family="Times,serif" font-size="14.00" fill="#000000">size = &#160;16 </text>
</g>
<!-- 19&#45;&gt;22 -->
<g id="edge22" class="edge">
<title>19&#45;&gt;22</title>
<path fill="none" stroke="#000000" d="M327.1434,-229.6099C333.5463,-220.576 341.4117,-209.4786 348.5959,-199.3424"/>
<polygon fill="#000000" stroke="#000000" points="351.4962,-201.303 354.4233,-191.1205 345.7852,-197.2552 351.4962,-201.303"/>
</g>
<!-- 23 -->
<g id="node24" class="node">
<title>23</title>
<polygon fill="none" stroke="#000000" points="249.3279,-113.6 162.8905,-113.6 162.8905,-77.6 249.3279,-77.6 249.3279,-113.6"/>
<text text-anchor="middle" x="206.1092" y="-91.4" font-family="Times,serif" font-size="14.00" fill="#000000"> edad &lt;= 46 </text>
</g>
<!-- 21&#45;&gt;23 -->
<g id="edge23" class="edge">
<title>21&#45;&gt;23</title>
<path fill="none" stroke="#000000" d="M247.0373,-152.293C240.519,-143.2639 232.5093,-132.169 225.3091,-122.1954"/>
<polygon fill="#000000" stroke="#000000" points="227.939,-119.8588 219.2479,-113.7995 222.2635,-123.9561 227.939,-119.8588"/>
</g>
<!-- 24 -->
<g id="node25" class="node">
<title>24</title>
<polygon fill="none" stroke="#000000" points="361.3791,-113.6 266.8393,-113.6 266.8393,-77.6 361.3791,-77.6 361.3791,-113.6"/>
<text text-anchor="middle" x="314.1092" y="-91.4" font-family="Times,serif" font-size="14.00" fill="#000000"> ahorros &lt;= 0 </text>
</g>
<!-- 21&#45;&gt;24 -->
<g id="edge24" class="edge">
<title>21&#45;&gt;24</title>
<path fill="none" stroke="#000000" d="M273.1811,-152.293C279.6994,-143.2639 287.7091,-132.169 294.9093,-122.1954"/>
<polygon fill="#000000" stroke="#000000" points="297.9549,-123.9561 300.9705,-113.7995 292.2794,-119.8588 297.9549,-123.9561"/>
</g>
<!-- 25 -->
<g id="node26" class="node">
<title>25</title>
<polygon fill="#c1b2ff" stroke="#c1b2ff" points="154.3048,-41.4019 79.9136,-41.4019 79.9136,-.1981 154.3048,-.1981 154.3048,-41.4019"/>
<text text-anchor="middle" x="117.1092" y="-25" font-family="Times,serif" font-size="14.00" fill="#000000">leaf node &#160;</text>
<text text-anchor="middle" x="117.1092" y="-8.2" font-family="Times,serif" font-size="14.00" fill="#000000">size = &#160;29 </text>
</g>
<!-- 23&#45;&gt;25 -->
<g id="edge25" class="edge">
<title>23&#45;&gt;25</title>
<path fill="none" stroke="#000000" d="M184.5648,-77.493C174.115,-68.7105 161.3396,-57.9734 149.7286,-48.215"/>
<polygon fill="#000000" stroke="#000000" points="151.8264,-45.4061 141.9191,-41.6515 147.3226,-50.7649 151.8264,-45.4061"/>
</g>
<!-- 26 -->
<g id="node27" class="node">
<title>26</title>
<polygon fill="#c1b2ff" stroke="#c1b2ff" points="247.3048,-41.4019 172.9136,-41.4019 172.9136,-.1981 247.3048,-.1981 247.3048,-41.4019"/>
<text text-anchor="middle" x="210.1092" y="-25" font-family="Times,serif" font-size="14.00" fill="#000000">leaf node &#160;</text>
<text text-anchor="middle" x="210.1092" y="-8.2" font-family="Times,serif" font-size="14.00" fill="#000000">size = &#160;13 </text>
</g>
<!-- 23&#45;&gt;26 -->
<g id="edge26" class="edge">
<title>23&#45;&gt;26</title>
<path fill="none" stroke="#000000" d="M207.0775,-77.493C207.4884,-69.8083 207.9794,-60.6272 208.4453,-51.9145"/>
<polygon fill="#000000" stroke="#000000" points="211.9551,-51.8242 208.9941,-41.6515 204.9651,-51.4503 211.9551,-51.8242"/>
</g>
<!-- 27 -->
<g id="node28" class="node">
<title>27</title>
<polygon fill="#c1b2ff" stroke="#c1b2ff" points="347.3048,-41.4019 272.9136,-41.4019 272.9136,-.1981 347.3048,-.1981 347.3048,-41.4019"/>
<text text-anchor="middle" x="310.1092" y="-25" font-family="Times,serif" font-size="14.00" fill="#000000">leaf node &#160;</text>
<text text-anchor="middle" x="310.1092" y="-8.2" font-family="Times,serif" font-size="14.00" fill="#000000">size = &#160;21 </text>
</g>
<!-- 24&#45;&gt;27 -->
<g id="edge27" class="edge">
<title>24&#45;&gt;27</title>
<path fill="none" stroke="#000000" d="M313.1409,-77.493C312.73,-69.8083 312.239,-60.6272 311.7731,-51.9145"/>
<polygon fill="#000000" stroke="#000000" points="315.2533,-51.4503 311.2243,-41.6515 308.2633,-51.8242 315.2533,-51.4503"/>
</g>
<!-- 28 -->
<g id="node29" class="node">
<title>28</title>
<polygon fill="#c1b2ff" stroke="#c1b2ff" points="440.3048,-41.4019 365.9136,-41.4019 365.9136,-.1981 440.3048,-.1981 440.3048,-41.4019"/>
<text text-anchor="middle" x="403.1092" y="-25" font-family="Times,serif" font-size="14.00" fill="#000000">leaf node &#160;</text>
<text text-anchor="middle" x="403.1092" y="-8.2" font-family="Times,serif" font-size="14.00" fill="#000000">size = &#160;9 </text>
</g>
<!-- 24&#45;&gt;28 -->
<g id="edge28" class="edge">
<title>24&#45;&gt;28</title>
<path fill="none" stroke="#000000" d="M335.6536,-77.493C346.1034,-68.7105 358.8788,-57.9734 370.4898,-48.215"/>
<polygon fill="#000000" stroke="#000000" points="372.8958,-50.7649 378.2993,-41.6515 368.392,-45.4061 372.8958,-50.7649"/>
</g>
</g>
</svg>
