<?xml version="1.0" encoding="UTF-8" standalone="no"?>
<!DOCTYPE svg PUBLIC "-//W3C//DTD SVG 1.1//EN"
 "http://www.w3.org/Graphics/SVG/1.1/DTD/svg11.dtd">
<!-- Generated by graphviz version 2.40.1 (20161225.0304)
 -->
<!-- Title: nodes Pages: 1 -->
<svg width="328pt" height="327pt"
 viewBox="0.00 0.00 328.10 327.20" xmlns="http://www.w3.org/2000/svg" xmlns:xlink="http://www.w3.org/1999/xlink">
<g id="graph0" class="graph" transform="scale(1 1) rotate(0) translate(4 323.2)">
<title>nodes</title>
<polygon fill="#ffffff" stroke="transparent" points="-4,4 -4,-323.2 324.1001,-323.2 324.1001,4 -4,4"/>
<!-- 0 -->
<g id="node1" class="node">
<title>0</title>
<polygon fill="none" stroke="#000000" points="142.3806,-319.2 62.9432,-319.2 62.9432,-283.2 142.3806,-283.2 142.3806,-319.2"/>
<text text-anchor="middle" x="102.6619" y="-297" font-family="Times,serif" font-size="14.00" fill="#000000"> age &lt;= 42 </text>
</g>
<!-- 1 -->
<g id="node2" class="node">
<title>1</title>
<polygon fill="#c1b2ff" stroke="#c1b2ff" points="99.4862,-247.4014 -.1624,-247.4014 -.1624,-188.5986 99.4862,-188.5986 99.4862,-247.4014"/>
<text text-anchor="middle" x="49.6619" y="-230.6" font-family="Times,serif" font-size="14.00" fill="#000000">size = &#160;246 </text>
<text text-anchor="middle" x="49.6619" y="-213.8" font-family="Times,serif" font-size="14.00" fill="#000000"> avg_Y = &#45;1.7</text>
<text text-anchor="middle" x="49.6619" y="-197" font-family="Times,serif" font-size="14.00" fill="#000000">avg_W = 0.59 </text>
</g>
<!-- 0&#45;&gt;1 -->
<g id="edge1" class="edge">
<title>0&#45;&gt;1</title>
<path fill="none" stroke="#000000" d="M91.1617,-283.1468C86.0803,-275.17 79.9017,-265.4708 73.8813,-256.0198"/>
<polygon fill="#000000" stroke="#000000" points="76.7575,-254.0204 68.4328,-247.4668 70.8536,-257.7813 76.7575,-254.0204"/>
<text text-anchor="middle" x="63.0209" y="-267.674" font-family="Times,serif" font-size="14.00" fill="#000000">True</text>
</g>
<!-- 2 -->
<g id="node3" class="node">
<title>2</title>
<polygon fill="none" stroke="#000000" points="196.3806,-236 116.9432,-236 116.9432,-200 196.3806,-200 196.3806,-236"/>
<text text-anchor="middle" x="156.6619" y="-213.8" font-family="Times,serif" font-size="14.00" fill="#000000"> age &lt;= 51 </text>
</g>
<!-- 0&#45;&gt;2 -->
<g id="edge2" class="edge">
<title>0&#45;&gt;2</title>
<path fill="none" stroke="#000000" d="M114.3791,-283.1468C121.6676,-271.9171 131.1716,-257.2739 139.3226,-244.7154"/>
<polygon fill="#000000" stroke="#000000" points="142.4592,-246.3116 144.9676,-236.0179 136.5875,-242.5006 142.4592,-246.3116"/>
<text text-anchor="middle" x="150.1717" y="-256.2703" font-family="Times,serif" font-size="14.00" fill="#000000">False</text>
</g>
<!-- 3 -->
<g id="node4" class="node">
<title>3</title>
<polygon fill="#c1b2ff" stroke="#c1b2ff" points="153.0384,-153.0014 52.2854,-153.0014 52.2854,-94.1986 153.0384,-94.1986 153.0384,-153.0014"/>
<text text-anchor="middle" x="102.6619" y="-136.2" font-family="Times,serif" font-size="14.00" fill="#000000">size = &#160;121 </text>
<text text-anchor="middle" x="102.6619" y="-119.4" font-family="Times,serif" font-size="14.00" fill="#000000"> avg_Y = &#45;1.44</text>
<text text-anchor="middle" x="102.6619" y="-102.6" font-family="Times,serif" font-size="14.00" fill="#000000">avg_W = 0.51 </text>
</g>
<!-- 2&#45;&gt;3 -->
<g id="edge3" class="edge">
<title>2&#45;&gt;3</title>
<path fill="none" stroke="#000000" d="M146.2502,-199.7987C140.0746,-189.0029 132.0087,-174.9025 124.4969,-161.7707"/>
<polygon fill="#000000" stroke="#000000" points="127.4184,-159.829 119.4149,-152.8868 121.3423,-163.3048 127.4184,-159.829"/>
</g>
<!-- 4 -->
<g id="node5" class="node">
<title>4</title>
<polygon fill="none" stroke="#000000" points="250.3806,-141.6 170.9432,-141.6 170.9432,-105.6 250.3806,-105.6 250.3806,-141.6"/>
<text text-anchor="middle" x="210.6619" y="-119.4" font-family="Times,serif" font-size="14.00" fill="#000000"> age &lt;= 60 </text>
</g>
<!-- 2&#45;&gt;4 -->
<g id="edge4" class="edge">
<title>2&#45;&gt;4</title>
<path fill="none" stroke="#000000" d="M167.0736,-199.7987C175.067,-185.8251 186.2274,-166.3152 195.254,-150.5353"/>
<polygon fill="#000000" stroke="#000000" points="198.3548,-152.1635 200.2821,-141.7454 192.2787,-148.6877 198.3548,-152.1635"/>
</g>
<!-- 5 -->
<g id="node6" class="node">
<title>5</title>
<polygon fill="#c1b2ff" stroke="#c1b2ff" points="201.0384,-58.6014 100.2854,-58.6014 100.2854,.2014 201.0384,.2014 201.0384,-58.6014"/>
<text text-anchor="middle" x="150.6619" y="-41.8" font-family="Times,serif" font-size="14.00" fill="#000000">size = &#160;80 </text>
<text text-anchor="middle" x="150.6619" y="-25" font-family="Times,serif" font-size="14.00" fill="#000000"> avg_Y = &#45;1.23</text>
<text text-anchor="middle" x="150.6619" y="-8.2" font-family="Times,serif" font-size="14.00" fill="#000000">avg_W = 0.51 </text>
</g>
<!-- 4&#45;&gt;5 -->
<g id="edge5" class="edge">
<title>4&#45;&gt;5</title>
<path fill="none" stroke="#000000" d="M199.0933,-105.3987C192.1656,-94.4991 183.0969,-80.2311 174.6824,-66.9922"/>
<polygon fill="#000000" stroke="#000000" points="177.5944,-65.0489 169.2764,-58.4868 171.6867,-68.8038 177.5944,-65.0489"/>
</g>
<!-- 6 -->
<g id="node7" class="node">
<title>6</title>
<polygon fill="#c1b2ff" stroke="#c1b2ff" points="320.0384,-58.6014 219.2854,-58.6014 219.2854,.2014 320.0384,.2014 320.0384,-58.6014"/>
<text text-anchor="middle" x="269.6619" y="-41.8" font-family="Times,serif" font-size="14.00" fill="#000000">size = &#160;52 </text>
<text text-anchor="middle" x="269.6619" y="-25" font-family="Times,serif" font-size="14.00" fill="#000000"> avg_Y = &#45;1.01</text>
<text text-anchor="middle" x="269.6619" y="-8.2" font-family="Times,serif" font-size="14.00" fill="#000000">avg_W = 0.5 </text>
</g>
<!-- 4&#45;&gt;6 -->
<g id="edge6" class="edge">
<title>4&#45;&gt;6</title>
<path fill="none" stroke="#000000" d="M222.0377,-105.3987C228.85,-94.4991 237.7675,-80.2311 246.0418,-66.9922"/>
<polygon fill="#000000" stroke="#000000" points="249.0256,-68.8218 251.3577,-58.4868 243.0896,-65.1117 249.0256,-68.8218"/>
</g>
</g>
</svg>
