<?xml version="1.0" encoding="UTF-8" standalone="no"?>
<!DOCTYPE svg PUBLIC "-//W3C//DTD SVG 1.1//EN"
 "http://www.w3.org/Graphics/SVG/1.1/DTD/svg11.dtd">
<!-- Generated by graphviz version 2.40.1 (20161225.0304)
 -->
<!-- Title: nodes Pages: 1 -->
<svg width="1806pt" height="777pt"
 viewBox="0.00 0.00 1805.88 776.80" xmlns="http://www.w3.org/2000/svg" xmlns:xlink="http://www.w3.org/1999/xlink">
<g id="graph0" class="graph" transform="scale(1 1) rotate(0) translate(4 772.8)">
<title>nodes</title>
<polygon fill="#ffffff" stroke="transparent" points="-4,4 -4,-772.8 1801.8764,-772.8 1801.8764,4 -4,4"/>
<!-- 0 -->
<g id="node1" class="node">
<title>0</title>
<polygon fill="none" stroke="#000000" points="1077.3131,-768.8 986.5633,-768.8 986.5633,-732.8 1077.3131,-732.8 1077.3131,-768.8"/>
<text text-anchor="middle" x="1031.9382" y="-746.6" font-family="Times,serif" font-size="14.00" fill="#000000"> female &lt;= 0 </text>
</g>
<!-- 1 -->
<g id="node2" class="node">
<title>1</title>
<polygon fill="none" stroke="#000000" points="1012.4224,-696.8 897.454,-696.8 897.454,-660.8 1012.4224,-660.8 1012.4224,-696.8"/>
<text text-anchor="middle" x="954.9382" y="-674.6" font-family="Times,serif" font-size="14.00" fill="#000000"> wednesday &lt;= 0 </text>
</g>
<!-- 0&#45;&gt;1 -->
<g id="edge1" class="edge">
<title>0&#45;&gt;1</title>
<path fill="none" stroke="#000000" d="M1012.5078,-732.6314C1003.2062,-723.9337 991.9178,-713.3783 981.8096,-703.9265"/>
<polygon fill="#000000" stroke="#000000" points="984.0571,-701.2363 974.3623,-696.9628 979.2761,-706.3493 984.0571,-701.2363"/>
<text text-anchor="middle" x="975.2008" y="-717.7488" font-family="Times,serif" font-size="14.00" fill="#000000">True</text>
</g>
<!-- 2 -->
<g id="node3" class="node">
<title>2</title>
<polygon fill="none" stroke="#000000" points="1249.4876,-696.8 1094.3888,-696.8 1094.3888,-660.8 1249.4876,-660.8 1249.4876,-696.8"/>
<text text-anchor="middle" x="1171.9382" y="-674.6" font-family="Times,serif" font-size="14.00" fill="#000000"> subj.loan.value &lt;= 0.15 </text>
</g>
<!-- 0&#45;&gt;2 -->
<g id="edge2" class="edge">
<title>0&#45;&gt;2</title>
<path fill="none" stroke="#000000" d="M1067.2661,-732.6314C1085.5875,-723.2089 1108.1484,-711.6062 1127.6277,-701.5883"/>
<polygon fill="#000000" stroke="#000000" points="1129.3294,-704.6489 1136.6216,-696.9628 1126.128,-698.4239 1129.3294,-704.6489"/>
<text text-anchor="middle" x="1128.9859" y="-716.5682" font-family="Times,serif" font-size="14.00" fill="#000000">False</text>
</g>
<!-- 3 -->
<g id="node4" class="node">
<title>3</title>
<polygon fill="none" stroke="#000000" points="724.1526,-613.6 623.7238,-613.6 623.7238,-577.6 724.1526,-577.6 724.1526,-613.6"/>
<text text-anchor="middle" x="673.9382" y="-591.4" font-family="Times,serif" font-size="14.00" fill="#000000"> saturday &lt;= 0 </text>
</g>
<!-- 1&#45;&gt;3 -->
<g id="edge3" class="edge">
<title>1&#45;&gt;3</title>
<path fill="none" stroke="#000000" d="M897.3956,-661.7625C849.7765,-647.6632 782.3498,-627.6991 734.0388,-613.3949"/>
<polygon fill="#000000" stroke="#000000" points="734.921,-610.006 724.3388,-610.5229 732.9337,-616.718 734.921,-610.006"/>
</g>
<!-- 4 -->
<g id="node5" class="node">
<title>4</title>
<polygon fill="#c1b2ff" stroke="#c1b2ff" points="1012.3147,-625.0014 897.5617,-625.0014 897.5617,-566.1986 1012.3147,-566.1986 1012.3147,-625.0014"/>
<text text-anchor="middle" x="954.9382" y="-608.2" font-family="Times,serif" font-size="14.00" fill="#000000">size = &#160;17 </text>
<text text-anchor="middle" x="954.9382" y="-591.4" font-family="Times,serif" font-size="14.00" fill="#000000"> avg_Y = &#45;2134.8</text>
<text text-anchor="middle" x="954.9382" y="-574.6" font-family="Times,serif" font-size="14.00" fill="#000000">avg_W = 0.88 </text>
</g>
<!-- 1&#45;&gt;4 -->
<g id="edge4" class="edge">
<title>1&#45;&gt;4</title>
<path fill="none" stroke="#000000" d="M954.9382,-660.7468C954.9382,-653.1769 954.9382,-644.056 954.9382,-635.0681"/>
<polygon fill="#000000" stroke="#000000" points="958.4383,-635.0667 954.9382,-625.0668 951.4383,-635.0668 958.4383,-635.0667"/>
</g>
<!-- 5 -->
<g id="node16" class="node">
<title>5</title>
<polygon fill="none" stroke="#000000" points="1251.6485,-613.6 1092.2279,-613.6 1092.2279,-577.6 1251.6485,-577.6 1251.6485,-613.6"/>
<text text-anchor="middle" x="1171.9382" y="-591.4" font-family="Times,serif" font-size="14.00" fill="#000000"> subj.loan.value &lt;= &#45;0.26 </text>
</g>
<!-- 2&#45;&gt;5 -->
<g id="edge15" class="edge">
<title>2&#45;&gt;5</title>
<path fill="none" stroke="#000000" d="M1171.9382,-660.7468C1171.9382,-649.9532 1171.9382,-636.0061 1171.9382,-623.7876"/>
<polygon fill="#000000" stroke="#000000" points="1175.4383,-623.6179 1171.9382,-613.6179 1168.4383,-623.618 1175.4383,-623.6179"/>
</g>
<!-- 6 -->
<g id="node17" class="node">
<title>6</title>
<polygon fill="none" stroke="#000000" points="1658.4876,-613.6 1503.3888,-613.6 1503.3888,-577.6 1658.4876,-577.6 1658.4876,-613.6"/>
<text text-anchor="middle" x="1580.9382" y="-591.4" font-family="Times,serif" font-size="14.00" fill="#000000"> subj.loan.value &lt;= 0.68 </text>
</g>
<!-- 2&#45;&gt;6 -->
<g id="edge16" class="edge">
<title>2&#45;&gt;6</title>
<path fill="none" stroke="#000000" d="M1249.8307,-662.9549C1319.338,-648.8155 1421.0169,-628.1317 1493.3329,-613.4209"/>
<polygon fill="#000000" stroke="#000000" points="1494.2341,-616.8094 1503.3357,-611.3861 1492.8387,-609.9499 1494.2341,-616.8094"/>
</g>
<!-- 7 -->
<g id="node6" class="node">
<title>7</title>
<polygon fill="none" stroke="#000000" points="567.4876,-519.2 412.3888,-519.2 412.3888,-483.2 567.4876,-483.2 567.4876,-519.2"/>
<text text-anchor="middle" x="489.9382" y="-497" font-family="Times,serif" font-size="14.00" fill="#000000"> subj.loan.value &lt;= 0.25 </text>
</g>
<!-- 3&#45;&gt;7 -->
<g id="edge5" class="edge">
<title>3&#45;&gt;7</title>
<path fill="none" stroke="#000000" d="M638.4611,-577.3987C608.8062,-562.1845 566.3589,-540.4071 534.4313,-524.0269"/>
<polygon fill="#000000" stroke="#000000" points="535.8014,-520.7961 525.3063,-519.3454 532.606,-527.0243 535.8014,-520.7961"/>
</g>
<!-- 8 -->
<g id="node7" class="node">
<title>8</title>
<polygon fill="#c1b2ff" stroke="#c1b2ff" points="731.3147,-530.6014 616.5617,-530.6014 616.5617,-471.7986 731.3147,-471.7986 731.3147,-530.6014"/>
<text text-anchor="middle" x="673.9382" y="-513.8" font-family="Times,serif" font-size="14.00" fill="#000000">size = &#160;13 </text>
<text text-anchor="middle" x="673.9382" y="-497" font-family="Times,serif" font-size="14.00" fill="#000000"> avg_Y = &#45;1203.6</text>
<text text-anchor="middle" x="673.9382" y="-480.2" font-family="Times,serif" font-size="14.00" fill="#000000">avg_W = 0.62 </text>
</g>
<!-- 3&#45;&gt;8 -->
<g id="edge6" class="edge">
<title>3&#45;&gt;8</title>
<path fill="none" stroke="#000000" d="M673.9382,-577.3987C673.9382,-566.9143 673.9382,-553.3133 673.9382,-540.5095"/>
<polygon fill="#000000" stroke="#000000" points="677.4383,-540.4867 673.9382,-530.4868 670.4383,-540.4868 677.4383,-540.4867"/>
</g>
<!-- 13 -->
<g id="node8" class="node">
<title>13</title>
<polygon fill="none" stroke="#000000" points="395.9336,-424.8 245.9428,-424.8 245.9428,-388.8 395.9336,-388.8 395.9336,-424.8"/>
<text text-anchor="middle" x="320.9382" y="-402.6" font-family="Times,serif" font-size="14.00" fill="#000000"> more.high.school &lt;= 0 </text>
</g>
<!-- 7&#45;&gt;13 -->
<g id="edge7" class="edge">
<title>7&#45;&gt;13</title>
<path fill="none" stroke="#000000" d="M457.3533,-482.9987C430.2328,-467.8498 391.4634,-446.194 362.1823,-429.8381"/>
<polygon fill="#000000" stroke="#000000" points="363.8602,-426.7664 353.4231,-424.9454 360.4466,-432.8777 363.8602,-426.7664"/>
</g>
<!-- 14 -->
<g id="node9" class="node">
<title>14</title>
<polygon fill="#c1b2ff" stroke="#c1b2ff" points="550.8147,-436.2014 429.0617,-436.2014 429.0617,-377.3986 550.8147,-377.3986 550.8147,-436.2014"/>
<text text-anchor="middle" x="489.9382" y="-419.4" font-family="Times,serif" font-size="14.00" fill="#000000">size = &#160;14 </text>
<text text-anchor="middle" x="489.9382" y="-402.6" font-family="Times,serif" font-size="14.00" fill="#000000"> avg_Y = &#45;4380.18</text>
<text text-anchor="middle" x="489.9382" y="-385.8" font-family="Times,serif" font-size="14.00" fill="#000000">avg_W = 0.29 </text>
</g>
<!-- 7&#45;&gt;14 -->
<g id="edge8" class="edge">
<title>7&#45;&gt;14</title>
<path fill="none" stroke="#000000" d="M489.9382,-482.9987C489.9382,-472.5143 489.9382,-458.9133 489.9382,-446.1095"/>
<polygon fill="#000000" stroke="#000000" points="493.4383,-446.0867 489.9382,-436.0868 486.4383,-446.0868 493.4383,-446.0867"/>
</g>
<!-- 21 -->
<g id="node10" class="node">
<title>21</title>
<polygon fill="#c1b2ff" stroke="#c1b2ff" points="262.8147,-341.8014 141.0617,-341.8014 141.0617,-282.9986 262.8147,-282.9986 262.8147,-341.8014"/>
<text text-anchor="middle" x="201.9382" y="-325" font-family="Times,serif" font-size="14.00" fill="#000000">size = &#160;22 </text>
<text text-anchor="middle" x="201.9382" y="-308.2" font-family="Times,serif" font-size="14.00" fill="#000000"> avg_Y = &#45;1057.41</text>
<text text-anchor="middle" x="201.9382" y="-291.4" font-family="Times,serif" font-size="14.00" fill="#000000">avg_W = 0.55 </text>
</g>
<!-- 13&#45;&gt;21 -->
<g id="edge9" class="edge">
<title>13&#45;&gt;21</title>
<path fill="none" stroke="#000000" d="M297.9938,-388.5987C283.4687,-377.0763 264.1982,-361.7894 246.7316,-347.9336"/>
<polygon fill="#000000" stroke="#000000" points="248.8664,-345.1596 238.8569,-341.6868 244.516,-350.6436 248.8664,-345.1596"/>
</g>
<!-- 22 -->
<g id="node11" class="node">
<title>22</title>
<polygon fill="none" stroke="#000000" points="360.6569,-330.4 281.2195,-330.4 281.2195,-294.4 360.6569,-294.4 360.6569,-330.4"/>
<text text-anchor="middle" x="320.9382" y="-308.2" font-family="Times,serif" font-size="14.00" fill="#000000"> age &lt;= 42 </text>
</g>
<!-- 13&#45;&gt;22 -->
<g id="edge10" class="edge">
<title>13&#45;&gt;22</title>
<path fill="none" stroke="#000000" d="M320.9382,-388.5987C320.9382,-375.0169 320.9382,-356.2048 320.9382,-340.6711"/>
<polygon fill="#000000" stroke="#000000" points="324.4383,-340.5454 320.9382,-330.5454 317.4383,-340.5454 324.4383,-340.5454"/>
</g>
<!-- 29 -->
<g id="node12" class="node">
<title>29</title>
<polygon fill="none" stroke="#000000" points="245.0436,-236 116.8328,-236 116.8328,-200 245.0436,-200 245.0436,-236"/>
<text text-anchor="middle" x="180.9382" y="-213.8" font-family="Times,serif" font-size="14.00" fill="#000000"> income.index &lt;= 0 </text>
</g>
<!-- 22&#45;&gt;29 -->
<g id="edge11" class="edge">
<title>22&#45;&gt;29</title>
<path fill="none" stroke="#000000" d="M293.9448,-294.1987C271.8655,-279.311 240.466,-258.1388 216.3665,-241.8888"/>
<polygon fill="#000000" stroke="#000000" points="218.0967,-238.8342 207.8487,-236.1454 214.1832,-244.638 218.0967,-238.8342"/>
</g>
<!-- 30 -->
<g id="node13" class="node">
<title>30</title>
<polygon fill="#c1b2ff" stroke="#c1b2ff" points="378.3147,-247.4014 263.5617,-247.4014 263.5617,-188.5986 378.3147,-188.5986 378.3147,-247.4014"/>
<text text-anchor="middle" x="320.9382" y="-230.6" font-family="Times,serif" font-size="14.00" fill="#000000">size = &#160;14 </text>
<text text-anchor="middle" x="320.9382" y="-213.8" font-family="Times,serif" font-size="14.00" fill="#000000"> avg_Y = &#45;901.88</text>
<text text-anchor="middle" x="320.9382" y="-197" font-family="Times,serif" font-size="14.00" fill="#000000">avg_W = 0.43 </text>
</g>
<!-- 22&#45;&gt;30 -->
<g id="edge12" class="edge">
<title>22&#45;&gt;30</title>
<path fill="none" stroke="#000000" d="M320.9382,-294.1987C320.9382,-283.7143 320.9382,-270.1133 320.9382,-257.3095"/>
<polygon fill="#000000" stroke="#000000" points="324.4383,-257.2867 320.9382,-247.2868 317.4383,-257.2868 324.4383,-257.2867"/>
</g>
<!-- 39 -->
<g id="node14" class="node">
<title>39</title>
<polygon fill="#c1b2ff" stroke="#c1b2ff" points="121.8147,-153.0014 .0617,-153.0014 .0617,-94.1986 121.8147,-94.1986 121.8147,-153.0014"/>
<text text-anchor="middle" x="60.9382" y="-136.2" font-family="Times,serif" font-size="14.00" fill="#000000">size = &#160;18 </text>
<text text-anchor="middle" x="60.9382" y="-119.4" font-family="Times,serif" font-size="14.00" fill="#000000"> avg_Y = &#45;1156.19</text>
<text text-anchor="middle" x="60.9382" y="-102.6" font-family="Times,serif" font-size="14.00" fill="#000000">avg_W = 0.33 </text>
</g>
<!-- 29&#45;&gt;39 -->
<g id="edge13" class="edge">
<title>29&#45;&gt;39</title>
<path fill="none" stroke="#000000" d="M157.801,-199.7987C143.1538,-188.2763 123.7214,-172.9894 106.108,-159.1336"/>
<polygon fill="#000000" stroke="#000000" points="108.1907,-156.3188 98.1671,-152.8868 103.8627,-161.8205 108.1907,-156.3188"/>
</g>
<!-- 40 -->
<g id="node15" class="node">
<title>40</title>
<polygon fill="#c1b2ff" stroke="#c1b2ff" points="261.8147,-153.0014 140.0617,-153.0014 140.0617,-94.1986 261.8147,-94.1986 261.8147,-153.0014"/>
<text text-anchor="middle" x="200.9382" y="-136.2" font-family="Times,serif" font-size="14.00" fill="#000000">size = &#160;8 </text>
<text text-anchor="middle" x="200.9382" y="-119.4" font-family="Times,serif" font-size="14.00" fill="#000000"> avg_Y = &#45;1500.56</text>
<text text-anchor="middle" x="200.9382" y="-102.6" font-family="Times,serif" font-size="14.00" fill="#000000">avg_W = 0.38 </text>
</g>
<!-- 29&#45;&gt;40 -->
<g id="edge14" class="edge">
<title>29&#45;&gt;40</title>
<path fill="none" stroke="#000000" d="M184.7944,-199.7987C187.0157,-189.3143 189.8973,-175.7133 192.6099,-162.9095"/>
<polygon fill="#000000" stroke="#000000" points="196.0847,-163.3951 194.7334,-152.8868 189.2367,-161.9442 196.0847,-163.3951"/>
</g>
<!-- 9 -->
<g id="node18" class="node">
<title>9</title>
<polygon fill="none" stroke="#000000" points="1137.6485,-519.2 978.2279,-519.2 978.2279,-483.2 1137.6485,-483.2 1137.6485,-519.2"/>
<text text-anchor="middle" x="1057.9382" y="-497" font-family="Times,serif" font-size="14.00" fill="#000000"> subj.loan.value &lt;= &#45;0.45 </text>
</g>
<!-- 5&#45;&gt;9 -->
<g id="edge17" class="edge">
<title>5&#45;&gt;9</title>
<path fill="none" stroke="#000000" d="M1149.9579,-577.3987C1132.2155,-562.7068 1107.0824,-541.8948 1087.5646,-525.7328"/>
<polygon fill="#000000" stroke="#000000" points="1089.7855,-523.0276 1079.8511,-519.3454 1085.3209,-528.4191 1089.7855,-523.0276"/>
</g>
<!-- 10 -->
<g id="node19" class="node">
<title>10</title>
<polygon fill="none" stroke="#000000" points="1328.7774,-519.2 1243.099,-519.2 1243.099,-483.2 1328.7774,-483.2 1328.7774,-519.2"/>
<text text-anchor="middle" x="1285.9382" y="-497" font-family="Times,serif" font-size="14.00" fill="#000000"> p.bias &lt;= 0 </text>
</g>
<!-- 5&#45;&gt;10 -->
<g id="edge18" class="edge">
<title>5&#45;&gt;10</title>
<path fill="none" stroke="#000000" d="M1193.9185,-577.3987C1211.6609,-562.7068 1236.794,-541.8948 1256.3118,-525.7328"/>
<polygon fill="#000000" stroke="#000000" points="1258.5555,-528.4191 1264.0253,-519.3454 1254.0909,-523.0276 1258.5555,-528.4191"/>
</g>
<!-- 11 -->
<g id="node46" class="node">
<title>11</title>
<polygon fill="none" stroke="#000000" points="1658.4876,-519.2 1503.3888,-519.2 1503.3888,-483.2 1658.4876,-483.2 1658.4876,-519.2"/>
<text text-anchor="middle" x="1580.9382" y="-497" font-family="Times,serif" font-size="14.00" fill="#000000"> subj.loan.value &lt;= 0.37 </text>
</g>
<!-- 6&#45;&gt;11 -->
<g id="edge45" class="edge">
<title>6&#45;&gt;11</title>
<path fill="none" stroke="#000000" d="M1580.9382,-577.3987C1580.9382,-563.8169 1580.9382,-545.0048 1580.9382,-529.4711"/>
<polygon fill="#000000" stroke="#000000" points="1584.4383,-529.3454 1580.9382,-519.3454 1577.4383,-529.3454 1584.4383,-529.3454"/>
</g>
<!-- 12 -->
<g id="node47" class="node">
<title>12</title>
<polygon fill="#c1b2ff" stroke="#c1b2ff" points="1797.8147,-530.6014 1676.0617,-530.6014 1676.0617,-471.7986 1797.8147,-471.7986 1797.8147,-530.6014"/>
<text text-anchor="middle" x="1736.9382" y="-513.8" font-family="Times,serif" font-size="14.00" fill="#000000">size = &#160;17 </text>
<text text-anchor="middle" x="1736.9382" y="-497" font-family="Times,serif" font-size="14.00" fill="#000000"> avg_Y = &#45;3247.09</text>
<text text-anchor="middle" x="1736.9382" y="-480.2" font-family="Times,serif" font-size="14.00" fill="#000000">avg_W = 0.47 </text>
</g>
<!-- 6&#45;&gt;12 -->
<g id="edge46" class="edge">
<title>6&#45;&gt;12</title>
<path fill="none" stroke="#000000" d="M1611.0166,-577.3987C1630.4868,-565.6168 1656.4612,-549.8989 1679.7609,-535.7996"/>
<polygon fill="#000000" stroke="#000000" points="1681.7971,-538.6584 1688.5406,-530.4868 1678.173,-532.6696 1681.7971,-538.6584"/>
</g>
<!-- 15 -->
<g id="node20" class="node">
<title>15</title>
<polygon fill="none" stroke="#000000" points="907.4568,-424.8 766.4196,-424.8 766.4196,-388.8 907.4568,-388.8 907.4568,-424.8"/>
<text text-anchor="middle" x="836.9382" y="-402.6" font-family="Times,serif" font-size="14.00" fill="#000000"> sure.confidence &lt;= 0 </text>
</g>
<!-- 9&#45;&gt;15 -->
<g id="edge19" class="edge">
<title>9&#45;&gt;15</title>
<path fill="none" stroke="#000000" d="M1015.5887,-483.1104C979.4239,-467.6627 927.2808,-445.3898 888.6553,-428.8909"/>
<polygon fill="#000000" stroke="#000000" points="889.7155,-425.5379 879.1445,-424.8284 886.9658,-431.9752 889.7155,-425.5379"/>
</g>
<!-- 16 -->
<g id="node21" class="node">
<title>16</title>
<polygon fill="none" stroke="#000000" points="1137.6485,-424.8 978.2279,-424.8 978.2279,-388.8 1137.6485,-388.8 1137.6485,-424.8"/>
<text text-anchor="middle" x="1057.9382" y="-402.6" font-family="Times,serif" font-size="14.00" fill="#000000"> subj.loan.value &lt;= &#45;0.31 </text>
</g>
<!-- 9&#45;&gt;16 -->
<g id="edge20" class="edge">
<title>9&#45;&gt;16</title>
<path fill="none" stroke="#000000" d="M1057.9382,-482.9987C1057.9382,-469.4169 1057.9382,-450.6048 1057.9382,-435.0711"/>
<polygon fill="#000000" stroke="#000000" points="1061.4383,-434.9454 1057.9382,-424.9454 1054.4383,-434.9454 1061.4383,-434.9454"/>
</g>
<!-- 17 -->
<g id="node40" class="node">
<title>17</title>
<polygon fill="none" stroke="#000000" points="1365.6485,-424.8 1206.2279,-424.8 1206.2279,-388.8 1365.6485,-388.8 1365.6485,-424.8"/>
<text text-anchor="middle" x="1285.9382" y="-402.6" font-family="Times,serif" font-size="14.00" fill="#000000"> subj.loan.value &lt;= &#45;0.01 </text>
</g>
<!-- 10&#45;&gt;17 -->
<g id="edge39" class="edge">
<title>10&#45;&gt;17</title>
<path fill="none" stroke="#000000" d="M1285.9382,-482.9987C1285.9382,-469.4169 1285.9382,-450.6048 1285.9382,-435.0711"/>
<polygon fill="#000000" stroke="#000000" points="1289.4383,-434.9454 1285.9382,-424.9454 1282.4383,-434.9454 1289.4383,-434.9454"/>
</g>
<!-- 18 -->
<g id="node41" class="node">
<title>18</title>
<polygon fill="#c1b2ff" stroke="#c1b2ff" points="1505.8147,-436.2014 1384.0617,-436.2014 1384.0617,-377.3986 1505.8147,-377.3986 1505.8147,-436.2014"/>
<text text-anchor="middle" x="1444.9382" y="-419.4" font-family="Times,serif" font-size="14.00" fill="#000000">size = &#160;13 </text>
<text text-anchor="middle" x="1444.9382" y="-402.6" font-family="Times,serif" font-size="14.00" fill="#000000"> avg_Y = &#45;2009.71</text>
<text text-anchor="middle" x="1444.9382" y="-385.8" font-family="Times,serif" font-size="14.00" fill="#000000">avg_W = 0.69 </text>
</g>
<!-- 10&#45;&gt;18 -->
<g id="edge40" class="edge">
<title>10&#45;&gt;18</title>
<path fill="none" stroke="#000000" d="M1316.595,-482.9987C1336.527,-471.1649 1363.1469,-455.3604 1386.975,-441.2134"/>
<polygon fill="#000000" stroke="#000000" points="1388.798,-444.2015 1395.6099,-436.0868 1385.2243,-438.1824 1388.798,-444.2015"/>
</g>
<!-- 23 -->
<g id="node22" class="node">
<title>23</title>
<polygon fill="none" stroke="#000000" points="710.6485,-330.4 551.2279,-330.4 551.2279,-294.4 710.6485,-294.4 710.6485,-330.4"/>
<text text-anchor="middle" x="630.9382" y="-308.2" font-family="Times,serif" font-size="14.00" fill="#000000"> subj.loan.value &lt;= &#45;0.57 </text>
</g>
<!-- 15&#45;&gt;23 -->
<g id="edge21" class="edge">
<title>15&#45;&gt;23</title>
<path fill="none" stroke="#000000" d="M797.2193,-388.5987C763.7337,-373.2539 715.6793,-351.2328 679.8333,-334.8063"/>
<polygon fill="#000000" stroke="#000000" points="681.0842,-331.5296 670.5351,-330.5454 678.168,-337.8932 681.0842,-331.5296"/>
</g>
<!-- 24 -->
<g id="node23" class="node">
<title>24</title>
<polygon fill="none" stroke="#000000" points="916.6485,-330.4 757.2279,-330.4 757.2279,-294.4 916.6485,-294.4 916.6485,-330.4"/>
<text text-anchor="middle" x="836.9382" y="-308.2" font-family="Times,serif" font-size="14.00" fill="#000000"> subj.loan.value &lt;= &#45;0.61 </text>
</g>
<!-- 15&#45;&gt;24 -->
<g id="edge22" class="edge">
<title>15&#45;&gt;24</title>
<path fill="none" stroke="#000000" d="M836.9382,-388.5987C836.9382,-375.0169 836.9382,-356.2048 836.9382,-340.6711"/>
<polygon fill="#000000" stroke="#000000" points="840.4383,-340.5454 836.9382,-330.5454 833.4383,-340.5454 840.4383,-340.5454"/>
</g>
<!-- 25 -->
<g id="node36" class="node">
<title>25</title>
<polygon fill="none" stroke="#000000" points="1072.6569,-330.4 993.2195,-330.4 993.2195,-294.4 1072.6569,-294.4 1072.6569,-330.4"/>
<text text-anchor="middle" x="1032.9382" y="-308.2" font-family="Times,serif" font-size="14.00" fill="#000000"> age &lt;= 41 </text>
</g>
<!-- 16&#45;&gt;25 -->
<g id="edge35" class="edge">
<title>16&#45;&gt;25</title>
<path fill="none" stroke="#000000" d="M1053.1179,-388.5987C1049.4865,-374.8863 1044.4431,-355.8426 1040.3068,-340.224"/>
<polygon fill="#000000" stroke="#000000" points="1043.6871,-339.3161 1037.7437,-330.5454 1036.9204,-341.1082 1043.6871,-339.3161"/>
</g>
<!-- 26 -->
<g id="node37" class="node">
<title>26</title>
<polygon fill="#c1b2ff" stroke="#c1b2ff" points="1212.8147,-341.8014 1091.0617,-341.8014 1091.0617,-282.9986 1212.8147,-282.9986 1212.8147,-341.8014"/>
<text text-anchor="middle" x="1151.9382" y="-325" font-family="Times,serif" font-size="14.00" fill="#000000">size = &#160;15 </text>
<text text-anchor="middle" x="1151.9382" y="-308.2" font-family="Times,serif" font-size="14.00" fill="#000000"> avg_Y = &#45;1330.58</text>
<text text-anchor="middle" x="1151.9382" y="-291.4" font-family="Times,serif" font-size="14.00" fill="#000000">avg_W = 0.47 </text>
</g>
<!-- 16&#45;&gt;26 -->
<g id="edge36" class="edge">
<title>16&#45;&gt;26</title>
<path fill="none" stroke="#000000" d="M1076.0623,-388.5987C1087.2259,-377.3877 1101.938,-362.613 1115.4335,-349.0601"/>
<polygon fill="#000000" stroke="#000000" points="1118.1996,-351.2425 1122.7755,-341.6868 1113.2393,-346.3032 1118.1996,-351.2425"/>
</g>
<!-- 31 -->
<g id="node24" class="node">
<title>31</title>
<polygon fill="none" stroke="#000000" points="555.6485,-236 396.2279,-236 396.2279,-200 555.6485,-200 555.6485,-236"/>
<text text-anchor="middle" x="475.9382" y="-213.8" font-family="Times,serif" font-size="14.00" fill="#000000"> subj.loan.value &lt;= &#45;0.63 </text>
</g>
<!-- 23&#45;&gt;31 -->
<g id="edge23" class="edge">
<title>23&#45;&gt;31</title>
<path fill="none" stroke="#000000" d="M601.0526,-294.1987C576.3932,-279.1804 541.2333,-257.7668 514.4621,-241.4623"/>
<polygon fill="#000000" stroke="#000000" points="516.0933,-238.3578 505.732,-236.1454 512.4522,-244.3363 516.0933,-238.3578"/>
</g>
<!-- 32 -->
<g id="node25" class="node">
<title>32</title>
<polygon fill="#c1b2ff" stroke="#c1b2ff" points="688.3147,-247.4014 573.5617,-247.4014 573.5617,-188.5986 688.3147,-188.5986 688.3147,-247.4014"/>
<text text-anchor="middle" x="630.9382" y="-230.6" font-family="Times,serif" font-size="14.00" fill="#000000">size = &#160;22 </text>
<text text-anchor="middle" x="630.9382" y="-213.8" font-family="Times,serif" font-size="14.00" fill="#000000"> avg_Y = &#45;703.21</text>
<text text-anchor="middle" x="630.9382" y="-197" font-family="Times,serif" font-size="14.00" fill="#000000">avg_W = 0.41 </text>
</g>
<!-- 23&#45;&gt;32 -->
<g id="edge24" class="edge">
<title>23&#45;&gt;32</title>
<path fill="none" stroke="#000000" d="M630.9382,-294.1987C630.9382,-283.7143 630.9382,-270.1133 630.9382,-257.3095"/>
<polygon fill="#000000" stroke="#000000" points="634.4383,-257.2867 630.9382,-247.2868 627.4383,-257.2868 634.4383,-257.2867"/>
</g>
<!-- 33 -->
<g id="node28" class="node">
<title>33</title>
<polygon fill="none" stroke="#000000" points="807.4378,-236 706.4386,-236 706.4386,-200 807.4378,-200 807.4378,-236"/>
<text text-anchor="middle" x="756.9382" y="-213.8" font-family="Times,serif" font-size="14.00" fill="#000000"> thurdsay &lt;= 0 </text>
</g>
<!-- 24&#45;&gt;33 -->
<g id="edge27" class="edge">
<title>24&#45;&gt;33</title>
<path fill="none" stroke="#000000" d="M821.5134,-294.1987C809.45,-279.9639 792.5178,-259.9839 779.0182,-244.0544"/>
<polygon fill="#000000" stroke="#000000" points="781.451,-241.5115 772.3157,-236.1454 776.1108,-246.0372 781.451,-241.5115"/>
</g>
<!-- 34 -->
<g id="node29" class="node">
<title>34</title>
<polygon fill="none" stroke="#000000" points="954.0436,-236 825.8328,-236 825.8328,-200 954.0436,-200 954.0436,-236"/>
<text text-anchor="middle" x="889.9382" y="-213.8" font-family="Times,serif" font-size="14.00" fill="#000000"> income.index &lt;= 0 </text>
</g>
<!-- 24&#45;&gt;34 -->
<g id="edge28" class="edge">
<title>24&#45;&gt;34</title>
<path fill="none" stroke="#000000" d="M847.1571,-294.1987C855.0025,-280.2251 865.9562,-260.7152 874.8156,-244.9353"/>
<polygon fill="#000000" stroke="#000000" points="877.9069,-246.5786 879.7506,-236.1454 871.8031,-243.1516 877.9069,-246.5786"/>
</g>
<!-- 41 -->
<g id="node26" class="node">
<title>41</title>
<polygon fill="#c1b2ff" stroke="#c1b2ff" points="432.3147,-153.0014 317.5617,-153.0014 317.5617,-94.1986 432.3147,-94.1986 432.3147,-153.0014"/>
<text text-anchor="middle" x="374.9382" y="-136.2" font-family="Times,serif" font-size="14.00" fill="#000000">size = &#160;17 </text>
<text text-anchor="middle" x="374.9382" y="-119.4" font-family="Times,serif" font-size="14.00" fill="#000000"> avg_Y = &#45;280.11</text>
<text text-anchor="middle" x="374.9382" y="-102.6" font-family="Times,serif" font-size="14.00" fill="#000000">avg_W = 0.41 </text>
</g>
<!-- 31&#45;&gt;41 -->
<g id="edge25" class="edge">
<title>31&#45;&gt;41</title>
<path fill="none" stroke="#000000" d="M456.4644,-199.7987C444.3585,-188.4839 428.3688,-173.5391 413.7589,-159.8839"/>
<polygon fill="#000000" stroke="#000000" points="415.9682,-157.1581 406.2726,-152.8868 411.1884,-162.2721 415.9682,-157.1581"/>
</g>
<!-- 42 -->
<g id="node27" class="node">
<title>42</title>
<polygon fill="#c1b2ff" stroke="#c1b2ff" points="565.3147,-153.0014 450.5617,-153.0014 450.5617,-94.1986 565.3147,-94.1986 565.3147,-153.0014"/>
<text text-anchor="middle" x="507.9382" y="-136.2" font-family="Times,serif" font-size="14.00" fill="#000000">size = &#160;4 </text>
<text text-anchor="middle" x="507.9382" y="-119.4" font-family="Times,serif" font-size="14.00" fill="#000000"> avg_Y = &#45;358.48</text>
<text text-anchor="middle" x="507.9382" y="-102.6" font-family="Times,serif" font-size="14.00" fill="#000000">avg_W = 0.5 </text>
</g>
<!-- 31&#45;&gt;42 -->
<g id="edge26" class="edge">
<title>31&#45;&gt;42</title>
<path fill="none" stroke="#000000" d="M482.1081,-199.7987C485.6973,-189.2105 490.3641,-175.4436 494.7418,-162.5294"/>
<polygon fill="#000000" stroke="#000000" points="498.1148,-163.4811 498.0105,-152.8868 491.4853,-161.2338 498.1148,-163.4811"/>
</g>
<!-- 43 -->
<g id="node30" class="node">
<title>43</title>
<polygon fill="none" stroke="#000000" points="681.6569,-141.6 602.2195,-141.6 602.2195,-105.6 681.6569,-105.6 681.6569,-141.6"/>
<text text-anchor="middle" x="641.9382" y="-119.4" font-family="Times,serif" font-size="14.00" fill="#000000"> age &lt;= 36 </text>
</g>
<!-- 33&#45;&gt;43 -->
<g id="edge29" class="edge">
<title>33&#45;&gt;43</title>
<path fill="none" stroke="#000000" d="M734.765,-199.7987C716.8671,-185.1068 691.5135,-164.2948 671.8245,-148.1328"/>
<polygon fill="#000000" stroke="#000000" points="673.9934,-145.385 664.0433,-141.7454 669.552,-150.7955 673.9934,-145.385"/>
</g>
<!-- 44 -->
<g id="node31" class="node">
<title>44</title>
<polygon fill="#c1b2ff" stroke="#c1b2ff" points="814.3147,-153.0014 699.5617,-153.0014 699.5617,-94.1986 814.3147,-94.1986 814.3147,-153.0014"/>
<text text-anchor="middle" x="756.9382" y="-136.2" font-family="Times,serif" font-size="14.00" fill="#000000">size = &#160;7 </text>
<text text-anchor="middle" x="756.9382" y="-119.4" font-family="Times,serif" font-size="14.00" fill="#000000"> avg_Y = &#45;361.33</text>
<text text-anchor="middle" x="756.9382" y="-102.6" font-family="Times,serif" font-size="14.00" fill="#000000">avg_W = 0.71 </text>
</g>
<!-- 33&#45;&gt;44 -->
<g id="edge30" class="edge">
<title>33&#45;&gt;44</title>
<path fill="none" stroke="#000000" d="M756.9382,-199.7987C756.9382,-189.3143 756.9382,-175.7133 756.9382,-162.9095"/>
<polygon fill="#000000" stroke="#000000" points="760.4383,-162.8867 756.9382,-152.8868 753.4383,-162.8868 760.4383,-162.8867"/>
</g>
<!-- 45 -->
<g id="node34" class="node">
<title>45</title>
<polygon fill="#c1b2ff" stroke="#c1b2ff" points="947.3147,-153.0014 832.5617,-153.0014 832.5617,-94.1986 947.3147,-94.1986 947.3147,-153.0014"/>
<text text-anchor="middle" x="889.9382" y="-136.2" font-family="Times,serif" font-size="14.00" fill="#000000">size = &#160;28 </text>
<text text-anchor="middle" x="889.9382" y="-119.4" font-family="Times,serif" font-size="14.00" fill="#000000"> avg_Y = &#45;695.72</text>
<text text-anchor="middle" x="889.9382" y="-102.6" font-family="Times,serif" font-size="14.00" fill="#000000">avg_W = 0.36 </text>
</g>
<!-- 34&#45;&gt;45 -->
<g id="edge33" class="edge">
<title>34&#45;&gt;45</title>
<path fill="none" stroke="#000000" d="M889.9382,-199.7987C889.9382,-189.3143 889.9382,-175.7133 889.9382,-162.9095"/>
<polygon fill="#000000" stroke="#000000" points="893.4383,-162.8867 889.9382,-152.8868 886.4383,-162.8868 893.4383,-162.8867"/>
</g>
<!-- 46 -->
<g id="node35" class="node">
<title>46</title>
<polygon fill="#c1b2ff" stroke="#c1b2ff" points="1080.3147,-153.0014 965.5617,-153.0014 965.5617,-94.1986 1080.3147,-94.1986 1080.3147,-153.0014"/>
<text text-anchor="middle" x="1022.9382" y="-136.2" font-family="Times,serif" font-size="14.00" fill="#000000">size = &#160;24 </text>
<text text-anchor="middle" x="1022.9382" y="-119.4" font-family="Times,serif" font-size="14.00" fill="#000000"> avg_Y = &#45;686.08</text>
<text text-anchor="middle" x="1022.9382" y="-102.6" font-family="Times,serif" font-size="14.00" fill="#000000">avg_W = 0.54 </text>
</g>
<!-- 34&#45;&gt;46 -->
<g id="edge34" class="edge">
<title>34&#45;&gt;46</title>
<path fill="none" stroke="#000000" d="M915.5819,-199.7987C931.9622,-188.1725 953.742,-172.7137 973.4021,-158.7595"/>
<polygon fill="#000000" stroke="#000000" points="975.5472,-161.5289 981.6761,-152.8868 971.4956,-155.8206 975.5472,-161.5289"/>
</g>
<!-- 47 -->
<g id="node32" class="node">
<title>47</title>
<polygon fill="#c1b2ff" stroke="#c1b2ff" points="632.3147,-58.6014 517.5617,-58.6014 517.5617,.2014 632.3147,.2014 632.3147,-58.6014"/>
<text text-anchor="middle" x="574.9382" y="-41.8" font-family="Times,serif" font-size="14.00" fill="#000000">size = &#160;9 </text>
<text text-anchor="middle" x="574.9382" y="-25" font-family="Times,serif" font-size="14.00" fill="#000000"> avg_Y = &#45;262.59</text>
<text text-anchor="middle" x="574.9382" y="-8.2" font-family="Times,serif" font-size="14.00" fill="#000000">avg_W = 0.22 </text>
</g>
<!-- 43&#45;&gt;47 -->
<g id="edge31" class="edge">
<title>43&#45;&gt;47</title>
<path fill="none" stroke="#000000" d="M629.0199,-105.3987C621.284,-94.4991 611.1573,-80.2311 601.7611,-66.9922"/>
<polygon fill="#000000" stroke="#000000" points="604.3664,-64.6158 595.7244,-58.4868 598.658,-68.6673 604.3664,-64.6158"/>
</g>
<!-- 48 -->
<g id="node33" class="node">
<title>48</title>
<polygon fill="#c1b2ff" stroke="#c1b2ff" points="765.3147,-58.6014 650.5617,-58.6014 650.5617,.2014 765.3147,.2014 765.3147,-58.6014"/>
<text text-anchor="middle" x="707.9382" y="-41.8" font-family="Times,serif" font-size="14.00" fill="#000000">size = &#160;25 </text>
<text text-anchor="middle" x="707.9382" y="-25" font-family="Times,serif" font-size="14.00" fill="#000000"> avg_Y = &#45;297.19</text>
<text text-anchor="middle" x="707.9382" y="-8.2" font-family="Times,serif" font-size="14.00" fill="#000000">avg_W = 0.4 </text>
</g>
<!-- 43&#45;&gt;48 -->
<g id="edge32" class="edge">
<title>43&#45;&gt;48</title>
<path fill="none" stroke="#000000" d="M654.6637,-105.3987C662.2842,-94.4991 672.2597,-80.2311 681.5157,-66.9922"/>
<polygon fill="#000000" stroke="#000000" points="684.6007,-68.6879 687.4623,-58.4868 678.8638,-64.6769 684.6007,-68.6879"/>
</g>
<!-- 35 -->
<g id="node38" class="node">
<title>35</title>
<polygon fill="#c1b2ff" stroke="#c1b2ff" points="1093.8147,-247.4014 972.0617,-247.4014 972.0617,-188.5986 1093.8147,-188.5986 1093.8147,-247.4014"/>
<text text-anchor="middle" x="1032.9382" y="-230.6" font-family="Times,serif" font-size="14.00" fill="#000000">size = &#160;18 </text>
<text text-anchor="middle" x="1032.9382" y="-213.8" font-family="Times,serif" font-size="14.00" fill="#000000"> avg_Y = &#45;1236.48</text>
<text text-anchor="middle" x="1032.9382" y="-197" font-family="Times,serif" font-size="14.00" fill="#000000">avg_W = 0.44 </text>
</g>
<!-- 25&#45;&gt;35 -->
<g id="edge37" class="edge">
<title>25&#45;&gt;35</title>
<path fill="none" stroke="#000000" d="M1032.9382,-294.1987C1032.9382,-283.7143 1032.9382,-270.1133 1032.9382,-257.3095"/>
<polygon fill="#000000" stroke="#000000" points="1036.4383,-257.2867 1032.9382,-247.2868 1029.4383,-257.2868 1036.4383,-257.2867"/>
</g>
<!-- 36 -->
<g id="node39" class="node">
<title>36</title>
<polygon fill="#c1b2ff" stroke="#c1b2ff" points="1233.8147,-247.4014 1112.0617,-247.4014 1112.0617,-188.5986 1233.8147,-188.5986 1233.8147,-247.4014"/>
<text text-anchor="middle" x="1172.9382" y="-230.6" font-family="Times,serif" font-size="14.00" fill="#000000">size = &#160;23 </text>
<text text-anchor="middle" x="1172.9382" y="-213.8" font-family="Times,serif" font-size="14.00" fill="#000000"> avg_Y = &#45;1008.87</text>
<text text-anchor="middle" x="1172.9382" y="-197" font-family="Times,serif" font-size="14.00" fill="#000000">avg_W = 0.43 </text>
</g>
<!-- 25&#45;&gt;36 -->
<g id="edge38" class="edge">
<title>25&#45;&gt;36</title>
<path fill="none" stroke="#000000" d="M1059.9316,-294.1987C1077.2509,-282.5206 1100.3049,-266.9756 1121.072,-252.9727"/>
<polygon fill="#000000" stroke="#000000" points="1123.1699,-255.7794 1129.5044,-247.2868 1119.2565,-249.9755 1123.1699,-255.7794"/>
</g>
<!-- 27 -->
<g id="node42" class="node">
<title>27</title>
<polygon fill="none" stroke="#000000" points="1391.6485,-330.4 1232.2279,-330.4 1232.2279,-294.4 1391.6485,-294.4 1391.6485,-330.4"/>
<text text-anchor="middle" x="1311.9382" y="-308.2" font-family="Times,serif" font-size="14.00" fill="#000000"> subj.loan.value &lt;= &#45;0.16 </text>
</g>
<!-- 17&#45;&gt;27 -->
<g id="edge41" class="edge">
<title>17&#45;&gt;27</title>
<path fill="none" stroke="#000000" d="M1290.9513,-388.5987C1294.728,-374.8863 1299.9731,-355.8426 1304.2748,-340.224"/>
<polygon fill="#000000" stroke="#000000" points="1307.6594,-341.1158 1306.9405,-330.5454 1300.9107,-339.257 1307.6594,-341.1158"/>
</g>
<!-- 28 -->
<g id="node43" class="node">
<title>28</title>
<polygon fill="#c1b2ff" stroke="#c1b2ff" points="1531.8147,-341.8014 1410.0617,-341.8014 1410.0617,-282.9986 1531.8147,-282.9986 1531.8147,-341.8014"/>
<text text-anchor="middle" x="1470.9382" y="-325" font-family="Times,serif" font-size="14.00" fill="#000000">size = &#160;14 </text>
<text text-anchor="middle" x="1470.9382" y="-308.2" font-family="Times,serif" font-size="14.00" fill="#000000"> avg_Y = &#45;1994.08</text>
<text text-anchor="middle" x="1470.9382" y="-291.4" font-family="Times,serif" font-size="14.00" fill="#000000">avg_W = 0.43 </text>
</g>
<!-- 17&#45;&gt;28 -->
<g id="edge42" class="edge">
<title>17&#45;&gt;28</title>
<path fill="none" stroke="#000000" d="M1321.6081,-388.5987C1345.1046,-376.6092 1376.5887,-360.5438 1404.5894,-346.2558"/>
<polygon fill="#000000" stroke="#000000" points="1406.227,-349.3496 1413.5436,-341.6868 1403.0454,-343.1144 1406.227,-349.3496"/>
</g>
<!-- 37 -->
<g id="node44" class="node">
<title>37</title>
<polygon fill="#c1b2ff" stroke="#c1b2ff" points="1373.8147,-247.4014 1252.0617,-247.4014 1252.0617,-188.5986 1373.8147,-188.5986 1373.8147,-247.4014"/>
<text text-anchor="middle" x="1312.9382" y="-230.6" font-family="Times,serif" font-size="14.00" fill="#000000">size = &#160;17 </text>
<text text-anchor="middle" x="1312.9382" y="-213.8" font-family="Times,serif" font-size="14.00" fill="#000000"> avg_Y = &#45;1411.92</text>
<text text-anchor="middle" x="1312.9382" y="-197" font-family="Times,serif" font-size="14.00" fill="#000000">avg_W = 0.35 </text>
</g>
<!-- 27&#45;&gt;37 -->
<g id="edge43" class="edge">
<title>27&#45;&gt;37</title>
<path fill="none" stroke="#000000" d="M1312.131,-294.1987C1312.2421,-283.7143 1312.3862,-270.1133 1312.5218,-257.3095"/>
<polygon fill="#000000" stroke="#000000" points="1316.0217,-257.3233 1312.628,-247.2868 1309.0221,-257.2491 1316.0217,-257.3233"/>
</g>
<!-- 38 -->
<g id="node45" class="node">
<title>38</title>
<polygon fill="#c1b2ff" stroke="#c1b2ff" points="1513.8147,-247.4014 1392.0617,-247.4014 1392.0617,-188.5986 1513.8147,-188.5986 1513.8147,-247.4014"/>
<text text-anchor="middle" x="1452.9382" y="-230.6" font-family="Times,serif" font-size="14.00" fill="#000000">size = &#160;12 </text>
<text text-anchor="middle" x="1452.9382" y="-213.8" font-family="Times,serif" font-size="14.00" fill="#000000"> avg_Y = &#45;2177.81</text>
<text text-anchor="middle" x="1452.9382" y="-197" font-family="Times,serif" font-size="14.00" fill="#000000">avg_W = 0.58 </text>
</g>
<!-- 27&#45;&gt;38 -->
<g id="edge44" class="edge">
<title>27&#45;&gt;38</title>
<path fill="none" stroke="#000000" d="M1339.1244,-294.1987C1356.5674,-282.5206 1379.7861,-266.9756 1400.7015,-252.9727"/>
<polygon fill="#000000" stroke="#000000" points="1402.8318,-255.7585 1409.1942,-247.2868 1398.9374,-249.9417 1402.8318,-255.7585"/>
</g>
<!-- 19 -->
<g id="node48" class="node">
<title>19</title>
<polygon fill="#c1b2ff" stroke="#c1b2ff" points="1638.3147,-436.2014 1523.5617,-436.2014 1523.5617,-377.3986 1638.3147,-377.3986 1638.3147,-436.2014"/>
<text text-anchor="middle" x="1580.9382" y="-419.4" font-family="Times,serif" font-size="14.00" fill="#000000">size = &#160;19 </text>
<text text-anchor="middle" x="1580.9382" y="-402.6" font-family="Times,serif" font-size="14.00" fill="#000000"> avg_Y = &#45;2091.5</text>
<text text-anchor="middle" x="1580.9382" y="-385.8" font-family="Times,serif" font-size="14.00" fill="#000000">avg_W = 0.37 </text>
</g>
<!-- 11&#45;&gt;19 -->
<g id="edge47" class="edge">
<title>11&#45;&gt;19</title>
<path fill="none" stroke="#000000" d="M1580.9382,-482.9987C1580.9382,-472.5143 1580.9382,-458.9133 1580.9382,-446.1095"/>
<polygon fill="#000000" stroke="#000000" points="1584.4383,-446.0867 1580.9382,-436.0868 1577.4383,-446.0868 1584.4383,-446.0867"/>
</g>
<!-- 20 -->
<g id="node49" class="node">
<title>20</title>
<polygon fill="#c1b2ff" stroke="#c1b2ff" points="1771.3147,-436.2014 1656.5617,-436.2014 1656.5617,-377.3986 1771.3147,-377.3986 1771.3147,-436.2014"/>
<text text-anchor="middle" x="1713.9382" y="-419.4" font-family="Times,serif" font-size="14.00" fill="#000000">size = &#160;13 </text>
<text text-anchor="middle" x="1713.9382" y="-402.6" font-family="Times,serif" font-size="14.00" fill="#000000"> avg_Y = &#45;2425.1</text>
<text text-anchor="middle" x="1713.9382" y="-385.8" font-family="Times,serif" font-size="14.00" fill="#000000">avg_W = 0.77 </text>
</g>
<!-- 11&#45;&gt;20 -->
<g id="edge48" class="edge">
<title>11&#45;&gt;20</title>
<path fill="none" stroke="#000000" d="M1606.5819,-482.9987C1622.9622,-471.3725 1644.742,-455.9137 1664.4021,-441.9595"/>
<polygon fill="#000000" stroke="#000000" points="1666.5472,-444.7289 1672.6761,-436.0868 1662.4956,-439.0206 1666.5472,-444.7289"/>
</g>
</g>
</svg>
