<?xml version="1.0" encoding="UTF-8" standalone="no"?>
<!DOCTYPE svg PUBLIC "-//W3C//DTD SVG 1.1//EN"
 "http://www.w3.org/Graphics/SVG/1.1/DTD/svg11.dtd">
<!-- Generated by graphviz version 2.40.1 (20161225.0304)
 -->
<!-- Title: nodes Pages: 1 -->
<svg width="1524pt" height="943pt"
 viewBox="0.00 0.00 1523.88 943.20" xmlns="http://www.w3.org/2000/svg" xmlns:xlink="http://www.w3.org/1999/xlink">
<g id="graph0" class="graph" transform="scale(1 1) rotate(0) translate(4 939.2)">
<title>nodes</title>
<polygon fill="#ffffff" stroke="transparent" points="-4,4 -4,-939.2 1519.8764,-939.2 1519.8764,4 -4,4"/>
<!-- 0 -->
<g id="node1" class="node">
<title>0</title>
<polygon fill="none" stroke="#000000" points="1141.0971,-935.2 1017.7793,-935.2 1017.7793,-899.2 1141.0971,-899.2 1141.0971,-935.2"/>
<text text-anchor="middle" x="1079.4382" y="-913" font-family="Times,serif" font-size="14.00" fill="#000000"> loan.size &lt;= 3940 </text>
</g>
<!-- 1 -->
<g id="node2" class="node">
<title>1</title>
<polygon fill="none" stroke="#000000" points="1063.3754,-863.2 925.501,-863.2 925.501,-827.2 1063.3754,-827.2 1063.3754,-863.2"/>
<text text-anchor="middle" x="994.4382" y="-841" font-family="Times,serif" font-size="14.00" fill="#000000"> transport.time &lt;= 10 </text>
</g>
<!-- 0&#45;&gt;1 -->
<g id="edge1" class="edge">
<title>0&#45;&gt;1</title>
<path fill="none" stroke="#000000" d="M1057.9891,-899.0314C1047.6204,-890.2485 1035.0153,-879.5712 1023.7736,-870.0489"/>
<polygon fill="#000000" stroke="#000000" points="1025.7731,-867.1556 1015.8804,-863.3628 1021.2487,-872.497 1025.7731,-867.1556"/>
<text text-anchor="middle" x="1017.9434" y="-884.0776" font-family="Times,serif" font-size="14.00" fill="#000000">True</text>
</g>
<!-- 2 -->
<g id="node3" class="node">
<title>2</title>
<polygon fill="none" stroke="#000000" points="1302.6485,-863.2 1136.2279,-863.2 1136.2279,-827.2 1302.6485,-827.2 1302.6485,-863.2"/>
<text text-anchor="middle" x="1219.4382" y="-841" font-family="Times,serif" font-size="14.00" fill="#000000"> na.more.high.school &lt;= 0 </text>
</g>
<!-- 0&#45;&gt;2 -->
<g id="edge2" class="edge">
<title>0&#45;&gt;2</title>
<path fill="none" stroke="#000000" d="M1114.7661,-899.0314C1133.0875,-889.6089 1155.6484,-878.0062 1175.1277,-867.9883"/>
<polygon fill="#000000" stroke="#000000" points="1176.8294,-871.0489 1184.1216,-863.3628 1173.628,-864.8239 1176.8294,-871.0489"/>
<text text-anchor="middle" x="1176.4859" y="-882.9682" font-family="Times,serif" font-size="14.00" fill="#000000">False</text>
</g>
<!-- 3 -->
<g id="node4" class="node">
<title>3</title>
<polygon fill="none" stroke="#000000" points="847.6526,-780 747.2238,-780 747.2238,-744 847.6526,-744 847.6526,-780"/>
<text text-anchor="middle" x="797.4382" y="-757.8" font-family="Times,serif" font-size="14.00" fill="#000000"> saturday &lt;= 0 </text>
</g>
<!-- 1&#45;&gt;3 -->
<g id="edge3" class="edge">
<title>1&#45;&gt;3</title>
<path fill="none" stroke="#000000" d="M951.6921,-827.1468C921.7465,-814.4997 881.5496,-797.5232 849.6975,-784.0709"/>
<polygon fill="#000000" stroke="#000000" points="850.6747,-780.6843 840.1008,-780.0179 847.9512,-787.1328 850.6747,-780.6843"/>
</g>
<!-- 4 -->
<g id="node5" class="node">
<title>4</title>
<polygon fill="none" stroke="#000000" points="1043.0417,-780 945.8347,-780 945.8347,-744 1043.0417,-744 1043.0417,-780"/>
<text text-anchor="middle" x="994.4382" y="-757.8" font-family="Times,serif" font-size="14.00" fill="#000000"> stressed &lt;= 0 </text>
</g>
<!-- 1&#45;&gt;4 -->
<g id="edge4" class="edge">
<title>1&#45;&gt;4</title>
<path fill="none" stroke="#000000" d="M994.4382,-827.1468C994.4382,-816.3532 994.4382,-802.4061 994.4382,-790.1876"/>
<polygon fill="#000000" stroke="#000000" points="997.9383,-790.0179 994.4382,-780.0179 990.9383,-790.018 997.9383,-790.0179"/>
</g>
<!-- 5 -->
<g id="node52" class="node">
<title>5</title>
<polygon fill="none" stroke="#000000" points="1284.5971,-780 1154.2793,-780 1154.2793,-744 1284.5971,-744 1284.5971,-780"/>
<text text-anchor="middle" x="1219.4382" y="-757.8" font-family="Times,serif" font-size="14.00" fill="#000000"> makes.budget &lt;= 0 </text>
</g>
<!-- 2&#45;&gt;5 -->
<g id="edge51" class="edge">
<title>2&#45;&gt;5</title>
<path fill="none" stroke="#000000" d="M1219.4382,-827.1468C1219.4382,-816.3532 1219.4382,-802.4061 1219.4382,-790.1876"/>
<polygon fill="#000000" stroke="#000000" points="1222.9383,-790.0179 1219.4382,-780.0179 1215.9383,-790.018 1222.9383,-790.0179"/>
</g>
<!-- 6 -->
<g id="node53" class="node">
<title>6</title>
<polygon fill="#c1b2ff" stroke="#c1b2ff" points="1403.8147,-791.4014 1303.0617,-791.4014 1303.0617,-732.5986 1403.8147,-732.5986 1403.8147,-791.4014"/>
<text text-anchor="middle" x="1353.4382" y="-774.6" font-family="Times,serif" font-size="14.00" fill="#000000">size = &#160;21 </text>
<text text-anchor="middle" x="1353.4382" y="-757.8" font-family="Times,serif" font-size="14.00" fill="#000000"> avg_Y = &#45;0.45</text>
<text text-anchor="middle" x="1353.4382" y="-741" font-family="Times,serif" font-size="14.00" fill="#000000">avg_W = 0.33 </text>
</g>
<!-- 2&#45;&gt;6 -->
<g id="edge52" class="edge">
<title>2&#45;&gt;6</title>
<path fill="none" stroke="#000000" d="M1248.5142,-827.1468C1262.8692,-818.2339 1280.6873,-807.1707 1297.5412,-796.7062"/>
<polygon fill="#000000" stroke="#000000" points="1299.594,-799.5514 1306.2434,-791.303 1295.9015,-793.6045 1299.594,-799.5514"/>
</g>
<!-- 7 -->
<g id="node6" class="node">
<title>7</title>
<polygon fill="none" stroke="#000000" points="633.3179,-685.6 531.5585,-685.6 531.5585,-649.6 633.3179,-649.6 633.3179,-685.6"/>
<text text-anchor="middle" x="582.4382" y="-663.4" font-family="Times,serif" font-size="14.00" fill="#000000"> branch.5 &lt;= 0 </text>
</g>
<!-- 3&#45;&gt;7 -->
<g id="edge5" class="edge">
<title>3&#45;&gt;7</title>
<path fill="none" stroke="#000000" d="M756.2384,-743.9104C721.0555,-728.4627 670.328,-706.1898 632.7512,-689.6909"/>
<polygon fill="#000000" stroke="#000000" points="634.062,-686.444 623.4986,-685.6284 631.2478,-692.8534 634.062,-686.444"/>
</g>
<!-- 8 -->
<g id="node7" class="node">
<title>8</title>
<polygon fill="#c1b2ff" stroke="#c1b2ff" points="847.2625,-697.0014 747.6139,-697.0014 747.6139,-638.1986 847.2625,-638.1986 847.2625,-697.0014"/>
<text text-anchor="middle" x="797.4382" y="-680.2" font-family="Times,serif" font-size="14.00" fill="#000000">size = &#160;19 </text>
<text text-anchor="middle" x="797.4382" y="-663.4" font-family="Times,serif" font-size="14.00" fill="#000000"> avg_Y = &#45;0.5</text>
<text text-anchor="middle" x="797.4382" y="-646.6" font-family="Times,serif" font-size="14.00" fill="#000000">avg_W = 0.42 </text>
</g>
<!-- 3&#45;&gt;8 -->
<g id="edge6" class="edge">
<title>3&#45;&gt;8</title>
<path fill="none" stroke="#000000" d="M797.4382,-743.7987C797.4382,-733.3143 797.4382,-719.7133 797.4382,-706.9095"/>
<polygon fill="#000000" stroke="#000000" points="800.9383,-706.8867 797.4382,-696.8868 793.9383,-706.8868 800.9383,-706.8867"/>
</g>
<!-- 9 -->
<g id="node20" class="node">
<title>9</title>
<polygon fill="none" stroke="#000000" points="1008.9568,-685.6 867.9196,-685.6 867.9196,-649.6 1008.9568,-649.6 1008.9568,-685.6"/>
<text text-anchor="middle" x="938.4382" y="-663.4" font-family="Times,serif" font-size="14.00" fill="#000000"> sure.confidence &lt;= 0 </text>
</g>
<!-- 4&#45;&gt;9 -->
<g id="edge19" class="edge">
<title>4&#45;&gt;9</title>
<path fill="none" stroke="#000000" d="M983.6408,-743.7987C975.3514,-729.8251 963.7777,-710.3152 954.4168,-694.5353"/>
<polygon fill="#000000" stroke="#000000" points="957.3147,-692.5602 949.2024,-685.7454 951.2943,-696.1317 957.3147,-692.5602"/>
</g>
<!-- 10 -->
<g id="node21" class="node">
<title>10</title>
<polygon fill="none" stroke="#000000" points="1150.0971,-685.6 1026.7793,-685.6 1026.7793,-649.6 1150.0971,-649.6 1150.0971,-685.6"/>
<text text-anchor="middle" x="1088.4382" y="-663.4" font-family="Times,serif" font-size="14.00" fill="#000000"> loan.size &lt;= 1010 </text>
</g>
<!-- 4&#45;&gt;10 -->
<g id="edge20" class="edge">
<title>4&#45;&gt;10</title>
<path fill="none" stroke="#000000" d="M1012.5623,-743.7987C1026.8669,-729.4333 1046.9977,-709.2168 1062.9298,-693.217"/>
<polygon fill="#000000" stroke="#000000" points="1065.7938,-695.3011 1070.3697,-685.7454 1060.8335,-690.3619 1065.7938,-695.3011"/>
</g>
<!-- 13 -->
<g id="node8" class="node">
<title>13</title>
<polygon fill="none" stroke="#000000" points="490.1569,-591.2 410.7195,-591.2 410.7195,-555.2 490.1569,-555.2 490.1569,-591.2"/>
<text text-anchor="middle" x="450.4382" y="-569" font-family="Times,serif" font-size="14.00" fill="#000000"> age &lt;= 42 </text>
</g>
<!-- 7&#45;&gt;13 -->
<g id="edge7" class="edge">
<title>7&#45;&gt;13</title>
<path fill="none" stroke="#000000" d="M556.9873,-649.3987C536.2609,-634.5763 506.824,-613.5244 484.1414,-597.3029"/>
<polygon fill="#000000" stroke="#000000" points="485.981,-594.3156 475.811,-591.3454 481.909,-600.0094 485.981,-594.3156"/>
</g>
<!-- 14 -->
<g id="node9" class="node">
<title>14</title>
<polygon fill="#c1b2ff" stroke="#c1b2ff" points="632.8147,-602.6014 532.0617,-602.6014 532.0617,-543.7986 632.8147,-543.7986 632.8147,-602.6014"/>
<text text-anchor="middle" x="582.4382" y="-585.8" font-family="Times,serif" font-size="14.00" fill="#000000">size = &#160;19 </text>
<text text-anchor="middle" x="582.4382" y="-569" font-family="Times,serif" font-size="14.00" fill="#000000"> avg_Y = &#45;0.43</text>
<text text-anchor="middle" x="582.4382" y="-552.2" font-family="Times,serif" font-size="14.00" fill="#000000">avg_W = 0.47 </text>
</g>
<!-- 7&#45;&gt;14 -->
<g id="edge8" class="edge">
<title>7&#45;&gt;14</title>
<path fill="none" stroke="#000000" d="M582.4382,-649.3987C582.4382,-638.9143 582.4382,-625.3133 582.4382,-612.5095"/>
<polygon fill="#000000" stroke="#000000" points="585.9383,-612.4867 582.4382,-602.4868 578.9383,-612.4868 585.9383,-612.4867"/>
</g>
<!-- 21 -->
<g id="node10" class="node">
<title>21</title>
<polygon fill="none" stroke="#000000" points="320.0971,-496.8 196.7793,-496.8 196.7793,-460.8 320.0971,-460.8 320.0971,-496.8"/>
<text text-anchor="middle" x="258.4382" y="-474.6" font-family="Times,serif" font-size="14.00" fill="#000000"> loan.size &lt;= 1160 </text>
</g>
<!-- 13&#45;&gt;21 -->
<g id="edge9" class="edge">
<title>13&#45;&gt;21</title>
<path fill="none" stroke="#000000" d="M413.4187,-554.9987C382.3416,-539.7192 337.8011,-517.8201 304.4375,-501.4163"/>
<polygon fill="#000000" stroke="#000000" points="305.8624,-498.2168 295.3441,-496.9454 302.7738,-504.4986 305.8624,-498.2168"/>
</g>
<!-- 22 -->
<g id="node11" class="node">
<title>22</title>
<polygon fill="none" stroke="#000000" points="514.5394,-496.8 386.337,-496.8 386.337,-460.8 514.5394,-460.8 514.5394,-496.8"/>
<text text-anchor="middle" x="450.4382" y="-474.6" font-family="Times,serif" font-size="14.00" fill="#000000"> transport.cost &lt;= 0 </text>
</g>
<!-- 13&#45;&gt;22 -->
<g id="edge10" class="edge">
<title>13&#45;&gt;22</title>
<path fill="none" stroke="#000000" d="M450.4382,-554.9987C450.4382,-541.4169 450.4382,-522.6048 450.4382,-507.0711"/>
<polygon fill="#000000" stroke="#000000" points="453.9383,-506.9454 450.4382,-496.9454 446.9383,-506.9454 453.9383,-506.9454"/>
</g>
<!-- 29 -->
<g id="node12" class="node">
<title>29</title>
<polygon fill="none" stroke="#000000" points="190.1057,-402.4 28.7707,-402.4 28.7707,-366.4 190.1057,-366.4 190.1057,-402.4"/>
<text text-anchor="middle" x="109.4382" y="-380.2" font-family="Times,serif" font-size="14.00" fill="#000000"> trouble.paying.bills &lt;= 0 </text>
</g>
<!-- 21&#45;&gt;29 -->
<g id="edge11" class="edge">
<title>21&#45;&gt;29</title>
<path fill="none" stroke="#000000" d="M229.7095,-460.5987C206.1077,-445.6457 172.4995,-424.3529 146.807,-408.0752"/>
<polygon fill="#000000" stroke="#000000" points="148.3992,-404.9407 138.0787,-402.5454 144.6529,-410.8539 148.3992,-404.9407"/>
</g>
<!-- 30 -->
<g id="node13" class="node">
<title>30</title>
<polygon fill="#c1b2ff" stroke="#c1b2ff" points="308.8147,-413.8014 208.0617,-413.8014 208.0617,-354.9986 308.8147,-354.9986 308.8147,-413.8014"/>
<text text-anchor="middle" x="258.4382" y="-397" font-family="Times,serif" font-size="14.00" fill="#000000">size = &#160;18 </text>
<text text-anchor="middle" x="258.4382" y="-380.2" font-family="Times,serif" font-size="14.00" fill="#000000"> avg_Y = &#45;0.56</text>
<text text-anchor="middle" x="258.4382" y="-363.4" font-family="Times,serif" font-size="14.00" fill="#000000">avg_W = 0.67 </text>
</g>
<!-- 21&#45;&gt;30 -->
<g id="edge12" class="edge">
<title>21&#45;&gt;30</title>
<path fill="none" stroke="#000000" d="M258.4382,-460.5987C258.4382,-450.1143 258.4382,-436.5133 258.4382,-423.7095"/>
<polygon fill="#000000" stroke="#000000" points="261.9383,-423.6867 258.4382,-413.6868 254.9383,-423.6868 261.9383,-423.6867"/>
</g>
<!-- 31 -->
<g id="node16" class="node">
<title>31</title>
<polygon fill="none" stroke="#000000" points="449.9926,-402.4 326.8838,-402.4 326.8838,-366.4 449.9926,-366.4 449.9926,-402.4"/>
<text text-anchor="middle" x="388.4382" y="-380.2" font-family="Times,serif" font-size="14.00" fill="#000000"> suc_x_dia &lt;= 320 </text>
</g>
<!-- 22&#45;&gt;31 -->
<g id="edge15" class="edge">
<title>22&#45;&gt;31</title>
<path fill="none" stroke="#000000" d="M438.484,-460.5987C429.3064,-446.6251 416.4927,-427.1152 406.1287,-411.3353"/>
<polygon fill="#000000" stroke="#000000" points="408.7709,-408.9825 400.3557,-402.5454 402.92,-412.8253 408.7709,-408.9825"/>
</g>
<!-- 32 -->
<g id="node17" class="node">
<title>32</title>
<polygon fill="#c1b2ff" stroke="#c1b2ff" points="568.8147,-413.8014 468.0617,-413.8014 468.0617,-354.9986 568.8147,-354.9986 568.8147,-413.8014"/>
<text text-anchor="middle" x="518.4382" y="-397" font-family="Times,serif" font-size="14.00" fill="#000000">size = &#160;14 </text>
<text text-anchor="middle" x="518.4382" y="-380.2" font-family="Times,serif" font-size="14.00" fill="#000000"> avg_Y = &#45;0.54</text>
<text text-anchor="middle" x="518.4382" y="-363.4" font-family="Times,serif" font-size="14.00" fill="#000000">avg_W = 0.29 </text>
</g>
<!-- 22&#45;&gt;32 -->
<g id="edge16" class="edge">
<title>22&#45;&gt;32</title>
<path fill="none" stroke="#000000" d="M463.5493,-460.5987C471.4755,-449.5953 481.8745,-435.159 491.4873,-421.8142"/>
<polygon fill="#000000" stroke="#000000" points="494.3368,-423.8465 497.3418,-413.6868 488.657,-419.7551 494.3368,-423.8465"/>
</g>
<!-- 39 -->
<g id="node14" class="node">
<title>39</title>
<polygon fill="#c1b2ff" stroke="#c1b2ff" points="100.8147,-319.4014 .0617,-319.4014 .0617,-260.5986 100.8147,-260.5986 100.8147,-319.4014"/>
<text text-anchor="middle" x="50.4382" y="-302.6" font-family="Times,serif" font-size="14.00" fill="#000000">size = &#160;9 </text>
<text text-anchor="middle" x="50.4382" y="-285.8" font-family="Times,serif" font-size="14.00" fill="#000000"> avg_Y = &#45;0.39</text>
<text text-anchor="middle" x="50.4382" y="-269" font-family="Times,serif" font-size="14.00" fill="#000000">avg_W = 0.78 </text>
</g>
<!-- 29&#45;&gt;39 -->
<g id="edge13" class="edge">
<title>29&#45;&gt;39</title>
<path fill="none" stroke="#000000" d="M98.0624,-366.1987C91.2501,-355.2991 82.3326,-341.0311 74.0583,-327.7922"/>
<polygon fill="#000000" stroke="#000000" points="77.0105,-325.9117 68.7424,-319.2868 71.0745,-329.6218 77.0105,-325.9117"/>
</g>
<!-- 40 -->
<g id="node15" class="node">
<title>40</title>
<polygon fill="#c1b2ff" stroke="#c1b2ff" points="219.8147,-319.4014 119.0617,-319.4014 119.0617,-260.5986 219.8147,-260.5986 219.8147,-319.4014"/>
<text text-anchor="middle" x="169.4382" y="-302.6" font-family="Times,serif" font-size="14.00" fill="#000000">size = &#160;14 </text>
<text text-anchor="middle" x="169.4382" y="-285.8" font-family="Times,serif" font-size="14.00" fill="#000000"> avg_Y = &#45;0.56</text>
<text text-anchor="middle" x="169.4382" y="-269" font-family="Times,serif" font-size="14.00" fill="#000000">avg_W = 0.79 </text>
</g>
<!-- 29&#45;&gt;40 -->
<g id="edge14" class="edge">
<title>29&#45;&gt;40</title>
<path fill="none" stroke="#000000" d="M121.0068,-366.1987C127.9345,-355.2991 137.0032,-341.0311 145.4177,-327.7922"/>
<polygon fill="#000000" stroke="#000000" points="148.4134,-329.6038 150.8237,-319.2868 142.5057,-325.8489 148.4134,-329.6038"/>
</g>
<!-- 41 -->
<g id="node18" class="node">
<title>41</title>
<polygon fill="#c1b2ff" stroke="#c1b2ff" points="388.8147,-319.4014 288.0617,-319.4014 288.0617,-260.5986 388.8147,-260.5986 388.8147,-319.4014"/>
<text text-anchor="middle" x="338.4382" y="-302.6" font-family="Times,serif" font-size="14.00" fill="#000000">size = &#160;13 </text>
<text text-anchor="middle" x="338.4382" y="-285.8" font-family="Times,serif" font-size="14.00" fill="#000000"> avg_Y = &#45;0.43</text>
<text text-anchor="middle" x="338.4382" y="-269" font-family="Times,serif" font-size="14.00" fill="#000000">avg_W = 0.69 </text>
</g>
<!-- 31&#45;&gt;41 -->
<g id="edge17" class="edge">
<title>31&#45;&gt;41</title>
<path fill="none" stroke="#000000" d="M378.7977,-366.1987C373.0796,-355.4029 365.6111,-341.3025 358.6558,-328.1707"/>
<polygon fill="#000000" stroke="#000000" points="361.7238,-326.4855 353.9503,-319.2868 355.538,-329.762 361.7238,-326.4855"/>
</g>
<!-- 42 -->
<g id="node19" class="node">
<title>42</title>
<polygon fill="#c1b2ff" stroke="#c1b2ff" points="507.8147,-319.4014 407.0617,-319.4014 407.0617,-260.5986 507.8147,-260.5986 507.8147,-319.4014"/>
<text text-anchor="middle" x="457.4382" y="-302.6" font-family="Times,serif" font-size="14.00" fill="#000000">size = &#160;20 </text>
<text text-anchor="middle" x="457.4382" y="-285.8" font-family="Times,serif" font-size="14.00" fill="#000000"> avg_Y = &#45;0.52</text>
<text text-anchor="middle" x="457.4382" y="-269" font-family="Times,serif" font-size="14.00" fill="#000000">avg_W = 0.7 </text>
</g>
<!-- 31&#45;&gt;42 -->
<g id="edge18" class="edge">
<title>31&#45;&gt;42</title>
<path fill="none" stroke="#000000" d="M401.7421,-366.1987C409.7849,-355.1953 420.3368,-340.759 430.0909,-327.4142"/>
<polygon fill="#000000" stroke="#000000" points="432.9562,-329.4254 436.0316,-319.2868 427.3048,-325.2947 432.9562,-329.4254"/>
</g>
<!-- 15 -->
<g id="node22" class="node">
<title>15</title>
<polygon fill="none" stroke="#000000" points="908.1057,-591.2 746.7707,-591.2 746.7707,-555.2 908.1057,-555.2 908.1057,-591.2"/>
<text text-anchor="middle" x="827.4382" y="-569" font-family="Times,serif" font-size="14.00" fill="#000000"> trouble.paying.bills &lt;= 0 </text>
</g>
<!-- 9&#45;&gt;15 -->
<g id="edge21" class="edge">
<title>9&#45;&gt;15</title>
<path fill="none" stroke="#000000" d="M917.0363,-649.3987C899.8377,-634.7721 875.5065,-614.0797 856.5387,-597.9485"/>
<polygon fill="#000000" stroke="#000000" points="858.6596,-595.1577 848.7744,-591.3454 854.1247,-600.4901 858.6596,-595.1577"/>
</g>
<!-- 16 -->
<g id="node23" class="node">
<title>16</title>
<polygon fill="none" stroke="#000000" points="1005.1569,-591.2 925.7195,-591.2 925.7195,-555.2 1005.1569,-555.2 1005.1569,-591.2"/>
<text text-anchor="middle" x="965.4382" y="-569" font-family="Times,serif" font-size="14.00" fill="#000000"> age &lt;= 46 </text>
</g>
<!-- 9&#45;&gt;16 -->
<g id="edge22" class="edge">
<title>9&#45;&gt;16</title>
<path fill="none" stroke="#000000" d="M943.6441,-649.3987C947.5661,-635.6863 953.0129,-616.6426 957.4801,-601.024"/>
<polygon fill="#000000" stroke="#000000" points="960.8634,-601.9224 960.2483,-591.3454 954.1333,-599.9974 960.8634,-601.9224"/>
</g>
<!-- 17 -->
<g id="node50" class="node">
<title>17</title>
<polygon fill="#c1b2ff" stroke="#c1b2ff" points="1123.8147,-602.6014 1023.0617,-602.6014 1023.0617,-543.7986 1123.8147,-543.7986 1123.8147,-602.6014"/>
<text text-anchor="middle" x="1073.4382" y="-585.8" font-family="Times,serif" font-size="14.00" fill="#000000">size = &#160;17 </text>
<text text-anchor="middle" x="1073.4382" y="-569" font-family="Times,serif" font-size="14.00" fill="#000000"> avg_Y = &#45;0.49</text>
<text text-anchor="middle" x="1073.4382" y="-552.2" font-family="Times,serif" font-size="14.00" fill="#000000">avg_W = 0.35 </text>
</g>
<!-- 10&#45;&gt;17 -->
<g id="edge49" class="edge">
<title>10&#45;&gt;17</title>
<path fill="none" stroke="#000000" d="M1085.546,-649.3987C1083.8801,-638.9143 1081.7189,-625.3133 1079.6844,-612.5095"/>
<polygon fill="#000000" stroke="#000000" points="1083.1178,-611.8136 1078.0918,-602.4868 1076.2046,-612.9121 1083.1178,-611.8136"/>
</g>
<!-- 18 -->
<g id="node51" class="node">
<title>18</title>
<polygon fill="#c1b2ff" stroke="#c1b2ff" points="1241.2625,-602.6014 1141.6139,-602.6014 1141.6139,-543.7986 1241.2625,-543.7986 1241.2625,-602.6014"/>
<text text-anchor="middle" x="1191.4382" y="-585.8" font-family="Times,serif" font-size="14.00" fill="#000000">size = &#160;49 </text>
<text text-anchor="middle" x="1191.4382" y="-569" font-family="Times,serif" font-size="14.00" fill="#000000"> avg_Y = &#45;0.6</text>
<text text-anchor="middle" x="1191.4382" y="-552.2" font-family="Times,serif" font-size="14.00" fill="#000000">avg_W = 0.33 </text>
</g>
<!-- 10&#45;&gt;18 -->
<g id="edge50" class="edge">
<title>10&#45;&gt;18</title>
<path fill="none" stroke="#000000" d="M1108.2976,-649.3987C1120.6433,-638.0839 1136.9496,-623.1391 1151.8488,-609.4839"/>
<polygon fill="#000000" stroke="#000000" points="1154.476,-611.8236 1159.4834,-602.4868 1149.7464,-606.6631 1154.476,-611.8236"/>
</g>
<!-- 23 -->
<g id="node24" class="node">
<title>23</title>
<polygon fill="none" stroke="#000000" points="775.9926,-496.8 652.8838,-496.8 652.8838,-460.8 775.9926,-460.8 775.9926,-496.8"/>
<text text-anchor="middle" x="714.4382" y="-474.6" font-family="Times,serif" font-size="14.00" fill="#000000"> suc_x_dia &lt;= 350 </text>
</g>
<!-- 15&#45;&gt;23 -->
<g id="edge23" class="edge">
<title>15&#45;&gt;23</title>
<path fill="none" stroke="#000000" d="M805.6507,-554.9987C788.1421,-540.3721 763.3726,-519.6797 744.063,-503.5485"/>
<polygon fill="#000000" stroke="#000000" points="746.0772,-500.6706 736.1588,-496.9454 741.5894,-506.0427 746.0772,-500.6706"/>
</g>
<!-- 24 -->
<g id="node25" class="node">
<title>24</title>
<polygon fill="#c1b2ff" stroke="#c1b2ff" points="893.2625,-508.2014 793.6139,-508.2014 793.6139,-449.3986 893.2625,-449.3986 893.2625,-508.2014"/>
<text text-anchor="middle" x="843.4382" y="-491.4" font-family="Times,serif" font-size="14.00" fill="#000000">size = &#160;16 </text>
<text text-anchor="middle" x="843.4382" y="-474.6" font-family="Times,serif" font-size="14.00" fill="#000000"> avg_Y = &#45;0.5</text>
<text text-anchor="middle" x="843.4382" y="-457.8" font-family="Times,serif" font-size="14.00" fill="#000000">avg_W = 0.25 </text>
</g>
<!-- 15&#45;&gt;24 -->
<g id="edge24" class="edge">
<title>15&#45;&gt;24</title>
<path fill="none" stroke="#000000" d="M830.5232,-554.9987C832.3002,-544.5143 834.6054,-530.9133 836.7756,-518.1095"/>
<polygon fill="#000000" stroke="#000000" points="840.254,-518.5311 838.4743,-508.0868 833.3524,-517.3612 840.254,-518.5311"/>
</g>
<!-- 25 -->
<g id="node28" class="node">
<title>25</title>
<polygon fill="none" stroke="#000000" points="1005.1569,-496.8 925.7195,-496.8 925.7195,-460.8 1005.1569,-460.8 1005.1569,-496.8"/>
<text text-anchor="middle" x="965.4382" y="-474.6" font-family="Times,serif" font-size="14.00" fill="#000000"> age &lt;= 39 </text>
</g>
<!-- 16&#45;&gt;25 -->
<g id="edge27" class="edge">
<title>16&#45;&gt;25</title>
<path fill="none" stroke="#000000" d="M965.4382,-554.9987C965.4382,-541.4169 965.4382,-522.6048 965.4382,-507.0711"/>
<polygon fill="#000000" stroke="#000000" points="968.9383,-506.9454 965.4382,-496.9454 961.9383,-506.9454 968.9383,-506.9454"/>
</g>
<!-- 26 -->
<g id="node29" class="node">
<title>26</title>
<polygon fill="none" stroke="#000000" points="1165.1569,-496.8 1085.7195,-496.8 1085.7195,-460.8 1165.1569,-460.8 1165.1569,-496.8"/>
<text text-anchor="middle" x="1125.4382" y="-474.6" font-family="Times,serif" font-size="14.00" fill="#000000"> age &lt;= 51 </text>
</g>
<!-- 16&#45;&gt;26 -->
<g id="edge28" class="edge">
<title>16&#45;&gt;26</title>
<path fill="none" stroke="#000000" d="M995.7412,-555.1014C1001.9232,-551.4206 1008.3869,-547.5802 1014.4382,-544 1038.001,-530.0592 1064.43,-514.5308 1085.5867,-502.1264"/>
<polygon fill="#000000" stroke="#000000" points="1087.4498,-505.0914 1094.3074,-497.0152 1083.9102,-499.0522 1087.4498,-505.0914"/>
</g>
<!-- 33 -->
<g id="node26" class="node">
<title>33</title>
<polygon fill="#c1b2ff" stroke="#c1b2ff" points="687.8147,-413.8014 587.0617,-413.8014 587.0617,-354.9986 687.8147,-354.9986 687.8147,-413.8014"/>
<text text-anchor="middle" x="637.4382" y="-397" font-family="Times,serif" font-size="14.00" fill="#000000">size = &#160;26 </text>
<text text-anchor="middle" x="637.4382" y="-380.2" font-family="Times,serif" font-size="14.00" fill="#000000"> avg_Y = &#45;0.51</text>
<text text-anchor="middle" x="637.4382" y="-363.4" font-family="Times,serif" font-size="14.00" fill="#000000">avg_W = 0.46 </text>
</g>
<!-- 23&#45;&gt;33 -->
<g id="edge25" class="edge">
<title>23&#45;&gt;33</title>
<path fill="none" stroke="#000000" d="M699.5918,-460.5987C690.5319,-449.4915 678.6188,-434.8863 667.6483,-421.4369"/>
<polygon fill="#000000" stroke="#000000" points="670.3597,-419.2236 661.3268,-413.6868 664.9354,-423.6481 670.3597,-419.2236"/>
</g>
<!-- 34 -->
<g id="node27" class="node">
<title>34</title>
<polygon fill="#c1b2ff" stroke="#c1b2ff" points="806.8147,-413.8014 706.0617,-413.8014 706.0617,-354.9986 806.8147,-354.9986 806.8147,-413.8014"/>
<text text-anchor="middle" x="756.4382" y="-397" font-family="Times,serif" font-size="14.00" fill="#000000">size = &#160;40 </text>
<text text-anchor="middle" x="756.4382" y="-380.2" font-family="Times,serif" font-size="14.00" fill="#000000"> avg_Y = &#45;0.49</text>
<text text-anchor="middle" x="756.4382" y="-363.4" font-family="Times,serif" font-size="14.00" fill="#000000">avg_W = 0.52 </text>
</g>
<!-- 23&#45;&gt;34 -->
<g id="edge26" class="edge">
<title>23&#45;&gt;34</title>
<path fill="none" stroke="#000000" d="M722.5362,-460.5987C727.2933,-449.9067 733.4924,-435.9734 739.2868,-422.9498"/>
<polygon fill="#000000" stroke="#000000" points="742.5408,-424.246 743.4081,-413.6868 736.1453,-421.4005 742.5408,-424.246"/>
</g>
<!-- 35 -->
<g id="node30" class="node">
<title>35</title>
<polygon fill="none" stroke="#000000" points="904.1569,-402.4 824.7195,-402.4 824.7195,-366.4 904.1569,-366.4 904.1569,-402.4"/>
<text text-anchor="middle" x="864.4382" y="-380.2" font-family="Times,serif" font-size="14.00" fill="#000000"> age &lt;= 34 </text>
</g>
<!-- 25&#45;&gt;35 -->
<g id="edge29" class="edge">
<title>25&#45;&gt;35</title>
<path fill="none" stroke="#000000" d="M945.9644,-460.5987C930.4549,-446.1027 908.5709,-425.6487 891.3805,-409.5817"/>
<polygon fill="#000000" stroke="#000000" points="893.5479,-406.8167 883.8522,-402.5454 888.7681,-411.9308 893.5479,-406.8167"/>
</g>
<!-- 36 -->
<g id="node31" class="node">
<title>36</title>
<polygon fill="none" stroke="#000000" points="1057.0394,-402.4 921.837,-402.4 921.837,-366.4 1057.0394,-366.4 1057.0394,-402.4"/>
<text text-anchor="middle" x="989.4382" y="-380.2" font-family="Times,serif" font-size="14.00" fill="#000000"> transport.cost &lt;= 10 </text>
</g>
<!-- 25&#45;&gt;36 -->
<g id="edge30" class="edge">
<title>25&#45;&gt;36</title>
<path fill="none" stroke="#000000" d="M970.0656,-460.5987C973.5186,-447.0169 978.3014,-428.2048 982.2506,-412.6711"/>
<polygon fill="#000000" stroke="#000000" points="985.753,-413.0995 984.825,-402.5454 978.9688,-411.3747 985.753,-413.0995"/>
</g>
<!-- 37 -->
<g id="node46" class="node">
<title>37</title>
<polygon fill="#c1b2ff" stroke="#c1b2ff" points="1175.8147,-413.8014 1075.0617,-413.8014 1075.0617,-354.9986 1175.8147,-354.9986 1175.8147,-413.8014"/>
<text text-anchor="middle" x="1125.4382" y="-397" font-family="Times,serif" font-size="14.00" fill="#000000">size = &#160;12 </text>
<text text-anchor="middle" x="1125.4382" y="-380.2" font-family="Times,serif" font-size="14.00" fill="#000000"> avg_Y = &#45;0.48</text>
<text text-anchor="middle" x="1125.4382" y="-363.4" font-family="Times,serif" font-size="14.00" fill="#000000">avg_W = 0.33 </text>
</g>
<!-- 26&#45;&gt;37 -->
<g id="edge45" class="edge">
<title>26&#45;&gt;37</title>
<path fill="none" stroke="#000000" d="M1125.4382,-460.5987C1125.4382,-450.1143 1125.4382,-436.5133 1125.4382,-423.7095"/>
<polygon fill="#000000" stroke="#000000" points="1128.9383,-423.6867 1125.4382,-413.6868 1121.9383,-423.6868 1128.9383,-423.6867"/>
</g>
<!-- 38 -->
<g id="node47" class="node">
<title>38</title>
<polygon fill="none" stroke="#000000" points="1343.4336,-402.4 1193.4428,-402.4 1193.4428,-366.4 1343.4336,-366.4 1343.4336,-402.4"/>
<text text-anchor="middle" x="1268.4382" y="-380.2" font-family="Times,serif" font-size="14.00" fill="#000000"> more.high.school &lt;= 0 </text>
</g>
<!-- 26&#45;&gt;38 -->
<g id="edge46" class="edge">
<title>26&#45;&gt;38</title>
<path fill="none" stroke="#000000" d="M1153.01,-460.5987C1175.6614,-445.6457 1207.9163,-424.3529 1232.5742,-408.0752"/>
<polygon fill="#000000" stroke="#000000" points="1234.5337,-410.9756 1240.951,-402.5454 1230.6772,-405.1337 1234.5337,-410.9756"/>
</g>
<!-- 43 -->
<g id="node32" class="node">
<title>43</title>
<polygon fill="none" stroke="#000000" points="798.3754,-308 660.501,-308 660.501,-272 798.3754,-272 798.3754,-308"/>
<text text-anchor="middle" x="729.4382" y="-285.8" font-family="Times,serif" font-size="14.00" fill="#000000"> transport.time &lt;= 20 </text>
</g>
<!-- 35&#45;&gt;43 -->
<g id="edge31" class="edge">
<title>35&#45;&gt;43</title>
<path fill="none" stroke="#000000" d="M838.4088,-366.1987C817.1181,-351.311 786.84,-330.1388 763.6012,-313.8888"/>
<polygon fill="#000000" stroke="#000000" points="765.5885,-311.0077 755.3876,-308.1454 761.5771,-316.7443 765.5885,-311.0077"/>
</g>
<!-- 44 -->
<g id="node33" class="node">
<title>44</title>
<polygon fill="#c1b2ff" stroke="#c1b2ff" points="916.2625,-319.4014 816.6139,-319.4014 816.6139,-260.5986 916.2625,-260.5986 916.2625,-319.4014"/>
<text text-anchor="middle" x="866.4382" y="-302.6" font-family="Times,serif" font-size="14.00" fill="#000000">size = &#160;15 </text>
<text text-anchor="middle" x="866.4382" y="-285.8" font-family="Times,serif" font-size="14.00" fill="#000000"> avg_Y = &#45;0.6</text>
<text text-anchor="middle" x="866.4382" y="-269" font-family="Times,serif" font-size="14.00" fill="#000000">avg_W = 0.53 </text>
</g>
<!-- 35&#45;&gt;44 -->
<g id="edge32" class="edge">
<title>35&#45;&gt;44</title>
<path fill="none" stroke="#000000" d="M864.8238,-366.1987C865.0459,-355.7143 865.3341,-342.1133 865.6054,-329.3095"/>
<polygon fill="#000000" stroke="#000000" points="869.105,-329.3587 865.8177,-319.2868 862.1066,-329.2103 869.105,-329.3587"/>
</g>
<!-- 45 -->
<g id="node36" class="node">
<title>45</title>
<polygon fill="#c1b2ff" stroke="#c1b2ff" points="1037.8147,-319.4014 937.0617,-319.4014 937.0617,-260.5986 1037.8147,-260.5986 1037.8147,-319.4014"/>
<text text-anchor="middle" x="987.4382" y="-302.6" font-family="Times,serif" font-size="14.00" fill="#000000">size = &#160;19 </text>
<text text-anchor="middle" x="987.4382" y="-285.8" font-family="Times,serif" font-size="14.00" fill="#000000"> avg_Y = &#45;0.54</text>
<text text-anchor="middle" x="987.4382" y="-269" font-family="Times,serif" font-size="14.00" fill="#000000">avg_W = 0.37 </text>
</g>
<!-- 36&#45;&gt;45 -->
<g id="edge35" class="edge">
<title>36&#45;&gt;45</title>
<path fill="none" stroke="#000000" d="M989.0526,-366.1987C988.8305,-355.7143 988.5423,-342.1133 988.271,-329.3095"/>
<polygon fill="#000000" stroke="#000000" points="991.7698,-329.2103 988.0587,-319.2868 984.7714,-329.3587 991.7698,-329.2103"/>
</g>
<!-- 46 -->
<g id="node37" class="node">
<title>46</title>
<polygon fill="none" stroke="#000000" points="1157.3179,-308 1055.5585,-308 1055.5585,-272 1157.3179,-272 1157.3179,-308"/>
<text text-anchor="middle" x="1106.4382" y="-285.8" font-family="Times,serif" font-size="14.00" fill="#000000"> branch.4 &lt;= 0 </text>
</g>
<!-- 36&#45;&gt;46 -->
<g id="edge36" class="edge">
<title>36&#45;&gt;46</title>
<path fill="none" stroke="#000000" d="M1011.997,-366.1987C1030.2062,-351.5068 1056.0007,-330.6948 1076.0321,-314.5328"/>
<polygon fill="#000000" stroke="#000000" points="1078.3638,-317.1487 1083.9487,-308.1454 1073.9682,-311.7008 1078.3638,-317.1487"/>
</g>
<!-- 49 -->
<g id="node34" class="node">
<title>49</title>
<polygon fill="#c1b2ff" stroke="#c1b2ff" points="720.2625,-225.0014 620.6139,-225.0014 620.6139,-166.1986 720.2625,-166.1986 720.2625,-225.0014"/>
<text text-anchor="middle" x="670.4382" y="-208.2" font-family="Times,serif" font-size="14.00" fill="#000000">size = &#160;17 </text>
<text text-anchor="middle" x="670.4382" y="-191.4" font-family="Times,serif" font-size="14.00" fill="#000000"> avg_Y = &#45;0.6</text>
<text text-anchor="middle" x="670.4382" y="-174.6" font-family="Times,serif" font-size="14.00" fill="#000000">avg_W = 0.47 </text>
</g>
<!-- 43&#45;&gt;49 -->
<g id="edge33" class="edge">
<title>43&#45;&gt;49</title>
<path fill="none" stroke="#000000" d="M718.0624,-271.7987C711.2501,-260.8991 702.3326,-246.6311 694.0583,-233.3922"/>
<polygon fill="#000000" stroke="#000000" points="697.0105,-231.5117 688.7424,-224.8868 691.0745,-235.2218 697.0105,-231.5117"/>
</g>
<!-- 50 -->
<g id="node35" class="node">
<title>50</title>
<polygon fill="#c1b2ff" stroke="#c1b2ff" points="838.8147,-225.0014 738.0617,-225.0014 738.0617,-166.1986 838.8147,-166.1986 838.8147,-225.0014"/>
<text text-anchor="middle" x="788.4382" y="-208.2" font-family="Times,serif" font-size="14.00" fill="#000000">size = &#160;25 </text>
<text text-anchor="middle" x="788.4382" y="-191.4" font-family="Times,serif" font-size="14.00" fill="#000000"> avg_Y = &#45;0.45</text>
<text text-anchor="middle" x="788.4382" y="-174.6" font-family="Times,serif" font-size="14.00" fill="#000000">avg_W = 0.4 </text>
</g>
<!-- 43&#45;&gt;50 -->
<g id="edge34" class="edge">
<title>43&#45;&gt;50</title>
<path fill="none" stroke="#000000" d="M740.814,-271.7987C747.6263,-260.8991 756.5438,-246.6311 764.8181,-233.3922"/>
<polygon fill="#000000" stroke="#000000" points="767.8019,-235.2218 770.134,-224.8868 761.8659,-231.5117 767.8019,-235.2218"/>
</g>
<!-- 51 -->
<g id="node38" class="node">
<title>51</title>
<polygon fill="none" stroke="#000000" points="1100.5971,-213.6 984.2793,-213.6 984.2793,-177.6 1100.5971,-177.6 1100.5971,-213.6"/>
<text text-anchor="middle" x="1042.4382" y="-191.4" font-family="Times,serif" font-size="14.00" fill="#000000"> loan.size &lt;= 930 </text>
</g>
<!-- 46&#45;&gt;51 -->
<g id="edge37" class="edge">
<title>46&#45;&gt;51</title>
<path fill="none" stroke="#000000" d="M1094.0984,-271.7987C1084.5362,-257.6945 1071.1501,-237.95 1060.4001,-222.0938"/>
<polygon fill="#000000" stroke="#000000" points="1063.2488,-220.0584 1054.7402,-213.7454 1057.4548,-223.9866 1063.2488,-220.0584"/>
</g>
<!-- 52 -->
<g id="node39" class="node">
<title>52</title>
<polygon fill="#c1b2ff" stroke="#c1b2ff" points="1219.8147,-225.0014 1119.0617,-225.0014 1119.0617,-166.1986 1219.8147,-166.1986 1219.8147,-225.0014"/>
<text text-anchor="middle" x="1169.4382" y="-208.2" font-family="Times,serif" font-size="14.00" fill="#000000">size = &#160;36 </text>
<text text-anchor="middle" x="1169.4382" y="-191.4" font-family="Times,serif" font-size="14.00" fill="#000000"> avg_Y = &#45;0.46</text>
<text text-anchor="middle" x="1169.4382" y="-174.6" font-family="Times,serif" font-size="14.00" fill="#000000">avg_W = 0.5 </text>
</g>
<!-- 46&#45;&gt;52 -->
<g id="edge38" class="edge">
<title>46&#45;&gt;52</title>
<path fill="none" stroke="#000000" d="M1118.5852,-271.7987C1125.8593,-260.8991 1135.3815,-246.6311 1144.2167,-233.3922"/>
<polygon fill="#000000" stroke="#000000" points="1147.2531,-235.1475 1149.893,-224.8868 1141.4307,-231.2617 1147.2531,-235.1475"/>
</g>
<!-- 53 -->
<g id="node40" class="node">
<title>53</title>
<polygon fill="none" stroke="#000000" points="1037.5971,-130.4 921.2793,-130.4 921.2793,-94.4 1037.5971,-94.4 1037.5971,-130.4"/>
<text text-anchor="middle" x="979.4382" y="-108.2" font-family="Times,serif" font-size="14.00" fill="#000000"> loan.size &lt;= 650 </text>
</g>
<!-- 51&#45;&gt;53 -->
<g id="edge39" class="edge">
<title>51&#45;&gt;53</title>
<path fill="none" stroke="#000000" d="M1028.7681,-177.5468C1020.1823,-166.2081 1008.9613,-151.3892 999.3909,-138.7502"/>
<polygon fill="#000000" stroke="#000000" points="1001.9087,-136.2774 993.0816,-130.4179 996.328,-140.5031 1001.9087,-136.2774"/>
</g>
<!-- 54 -->
<g id="node41" class="node">
<title>54</title>
<polygon fill="none" stroke="#000000" points="1157.3179,-130.4 1055.5585,-130.4 1055.5585,-94.4 1157.3179,-94.4 1157.3179,-130.4"/>
<text text-anchor="middle" x="1106.4382" y="-108.2" font-family="Times,serif" font-size="14.00" fill="#000000"> branch.5 &lt;= 0 </text>
</g>
<!-- 51&#45;&gt;54 -->
<g id="edge40" class="edge">
<title>51&#45;&gt;54</title>
<path fill="none" stroke="#000000" d="M1056.3252,-177.5468C1065.1313,-166.099 1076.6659,-151.1039 1086.4488,-138.3862"/>
<polygon fill="#000000" stroke="#000000" points="1089.2553,-140.4782 1092.5783,-130.4179 1083.7069,-136.2102 1089.2553,-140.4782"/>
</g>
<!-- 55 -->
<g id="node42" class="node">
<title>55</title>
<polygon fill="#c1b2ff" stroke="#c1b2ff" points="912.8147,-58.6014 812.0617,-58.6014 812.0617,.2014 912.8147,.2014 912.8147,-58.6014"/>
<text text-anchor="middle" x="862.4382" y="-41.8" font-family="Times,serif" font-size="14.00" fill="#000000">size = &#160;13 </text>
<text text-anchor="middle" x="862.4382" y="-25" font-family="Times,serif" font-size="14.00" fill="#000000"> avg_Y = &#45;0.35</text>
<text text-anchor="middle" x="862.4382" y="-8.2" font-family="Times,serif" font-size="14.00" fill="#000000">avg_W = 0.38 </text>
</g>
<!-- 53&#45;&gt;55 -->
<g id="edge41" class="edge">
<title>53&#45;&gt;55</title>
<path fill="none" stroke="#000000" d="M954.0509,-94.3468C941.8033,-85.6374 926.6683,-74.8748 912.253,-64.6238"/>
<polygon fill="#000000" stroke="#000000" points="914.0538,-61.6097 903.8758,-58.6668 909.9971,-67.3144 914.0538,-61.6097"/>
</g>
<!-- 56 -->
<g id="node43" class="node">
<title>56</title>
<polygon fill="#c1b2ff" stroke="#c1b2ff" points="1031.8147,-58.6014 931.0617,-58.6014 931.0617,.2014 1031.8147,.2014 1031.8147,-58.6014"/>
<text text-anchor="middle" x="981.4382" y="-41.8" font-family="Times,serif" font-size="14.00" fill="#000000">size = &#160;11 </text>
<text text-anchor="middle" x="981.4382" y="-25" font-family="Times,serif" font-size="14.00" fill="#000000"> avg_Y = &#45;0.45</text>
<text text-anchor="middle" x="981.4382" y="-8.2" font-family="Times,serif" font-size="14.00" fill="#000000">avg_W = 0.36 </text>
</g>
<!-- 53&#45;&gt;56 -->
<g id="edge42" class="edge">
<title>53&#45;&gt;56</title>
<path fill="none" stroke="#000000" d="M979.8722,-94.3468C980.0541,-86.7769 980.2734,-77.656 980.4894,-68.6681"/>
<polygon fill="#000000" stroke="#000000" points="983.9884,-68.748 980.7299,-58.6668 976.9905,-68.5797 983.9884,-68.748"/>
</g>
<!-- 57 -->
<g id="node44" class="node">
<title>57</title>
<polygon fill="#c1b2ff" stroke="#c1b2ff" points="1154.8147,-58.6014 1054.0617,-58.6014 1054.0617,.2014 1154.8147,.2014 1154.8147,-58.6014"/>
<text text-anchor="middle" x="1104.4382" y="-41.8" font-family="Times,serif" font-size="14.00" fill="#000000">size = &#160;22 </text>
<text text-anchor="middle" x="1104.4382" y="-25" font-family="Times,serif" font-size="14.00" fill="#000000"> avg_Y = &#45;0.45</text>
<text text-anchor="middle" x="1104.4382" y="-8.2" font-family="Times,serif" font-size="14.00" fill="#000000">avg_W = 0.32 </text>
</g>
<!-- 54&#45;&gt;57 -->
<g id="edge43" class="edge">
<title>54&#45;&gt;57</title>
<path fill="none" stroke="#000000" d="M1106.0042,-94.3468C1105.8223,-86.7769 1105.603,-77.656 1105.387,-68.6681"/>
<polygon fill="#000000" stroke="#000000" points="1108.8859,-68.5797 1105.1465,-58.6668 1101.888,-68.748 1108.8859,-68.5797"/>
</g>
<!-- 58 -->
<g id="node45" class="node">
<title>58</title>
<polygon fill="#c1b2ff" stroke="#c1b2ff" points="1273.8147,-58.6014 1173.0617,-58.6014 1173.0617,.2014 1273.8147,.2014 1273.8147,-58.6014"/>
<text text-anchor="middle" x="1223.4382" y="-41.8" font-family="Times,serif" font-size="14.00" fill="#000000">size = &#160;31 </text>
<text text-anchor="middle" x="1223.4382" y="-25" font-family="Times,serif" font-size="14.00" fill="#000000"> avg_Y = &#45;0.43</text>
<text text-anchor="middle" x="1223.4382" y="-8.2" font-family="Times,serif" font-size="14.00" fill="#000000">avg_W = 0.45 </text>
</g>
<!-- 54&#45;&gt;58 -->
<g id="edge44" class="edge">
<title>54&#45;&gt;58</title>
<path fill="none" stroke="#000000" d="M1131.8255,-94.3468C1144.0731,-85.6374 1159.2081,-74.8748 1173.6234,-64.6238"/>
<polygon fill="#000000" stroke="#000000" points="1175.8793,-67.3144 1182.0006,-58.6668 1171.8226,-61.6097 1175.8793,-67.3144"/>
</g>
<!-- 47 -->
<g id="node48" class="node">
<title>47</title>
<polygon fill="#c1b2ff" stroke="#c1b2ff" points="1297.2625,-319.4014 1197.6139,-319.4014 1197.6139,-260.5986 1297.2625,-260.5986 1297.2625,-319.4014"/>
<text text-anchor="middle" x="1247.4382" y="-302.6" font-family="Times,serif" font-size="14.00" fill="#000000">size = &#160;16 </text>
<text text-anchor="middle" x="1247.4382" y="-285.8" font-family="Times,serif" font-size="14.00" fill="#000000"> avg_Y = &#45;0.5</text>
<text text-anchor="middle" x="1247.4382" y="-269" font-family="Times,serif" font-size="14.00" fill="#000000">avg_W = 0.56 </text>
</g>
<!-- 38&#45;&gt;47 -->
<g id="edge47" class="edge">
<title>38&#45;&gt;47</title>
<path fill="none" stroke="#000000" d="M1264.3892,-366.1987C1262.0569,-355.7143 1259.0312,-342.1133 1256.1829,-329.3095"/>
<polygon fill="#000000" stroke="#000000" points="1259.5413,-328.2881 1253.9533,-319.2868 1252.7083,-329.8082 1259.5413,-328.2881"/>
</g>
<!-- 48 -->
<g id="node49" class="node">
<title>48</title>
<polygon fill="#c1b2ff" stroke="#c1b2ff" points="1415.8147,-319.4014 1315.0617,-319.4014 1315.0617,-260.5986 1415.8147,-260.5986 1415.8147,-319.4014"/>
<text text-anchor="middle" x="1365.4382" y="-302.6" font-family="Times,serif" font-size="14.00" fill="#000000">size = &#160;19 </text>
<text text-anchor="middle" x="1365.4382" y="-285.8" font-family="Times,serif" font-size="14.00" fill="#000000"> avg_Y = &#45;0.51</text>
<text text-anchor="middle" x="1365.4382" y="-269" font-family="Times,serif" font-size="14.00" fill="#000000">avg_W = 0.47 </text>
</g>
<!-- 38&#45;&gt;48 -->
<g id="edge48" class="edge">
<title>38&#45;&gt;48</title>
<path fill="none" stroke="#000000" d="M1287.1408,-366.1987C1298.7673,-354.8839 1314.1237,-339.9391 1328.1549,-326.2839"/>
<polygon fill="#000000" stroke="#000000" points="1330.6194,-328.7694 1335.3448,-319.2868 1325.7373,-323.7529 1330.6194,-328.7694"/>
</g>
<!-- 11 -->
<g id="node54" class="node">
<title>11</title>
<polygon fill="#c1b2ff" stroke="#c1b2ff" points="1269.8147,-697.0014 1169.0617,-697.0014 1169.0617,-638.1986 1269.8147,-638.1986 1269.8147,-697.0014"/>
<text text-anchor="middle" x="1219.4382" y="-680.2" font-family="Times,serif" font-size="14.00" fill="#000000">size = &#160;12 </text>
<text text-anchor="middle" x="1219.4382" y="-663.4" font-family="Times,serif" font-size="14.00" fill="#000000"> avg_Y = &#45;0.44</text>
<text text-anchor="middle" x="1219.4382" y="-646.6" font-family="Times,serif" font-size="14.00" fill="#000000">avg_W = 0.67 </text>
</g>
<!-- 5&#45;&gt;11 -->
<g id="edge53" class="edge">
<title>5&#45;&gt;11</title>
<path fill="none" stroke="#000000" d="M1219.4382,-743.7987C1219.4382,-733.3143 1219.4382,-719.7133 1219.4382,-706.9095"/>
<polygon fill="#000000" stroke="#000000" points="1222.9383,-706.8867 1219.4382,-696.8868 1215.9383,-706.8868 1222.9383,-706.8867"/>
</g>
<!-- 12 -->
<g id="node55" class="node">
<title>12</title>
<polygon fill="none" stroke="#000000" points="1368.1569,-685.6 1288.7195,-685.6 1288.7195,-649.6 1368.1569,-649.6 1368.1569,-685.6"/>
<text text-anchor="middle" x="1328.4382" y="-663.4" font-family="Times,serif" font-size="14.00" fill="#000000"> age &lt;= 54 </text>
</g>
<!-- 5&#45;&gt;12 -->
<g id="edge54" class="edge">
<title>5&#45;&gt;12</title>
<path fill="none" stroke="#000000" d="M1240.4545,-743.7987C1257.3432,-729.1721 1281.236,-708.4797 1299.862,-692.3485"/>
<polygon fill="#000000" stroke="#000000" points="1302.2186,-694.9378 1307.4864,-685.7454 1297.6359,-689.6464 1302.2186,-694.9378"/>
</g>
<!-- 19 -->
<g id="node56" class="node">
<title>19</title>
<polygon fill="none" stroke="#000000" points="1397.3754,-591.2 1259.501,-591.2 1259.501,-555.2 1397.3754,-555.2 1397.3754,-591.2"/>
<text text-anchor="middle" x="1328.4382" y="-569" font-family="Times,serif" font-size="14.00" fill="#000000"> transport.time &lt;= 15 </text>
</g>
<!-- 12&#45;&gt;19 -->
<g id="edge55" class="edge">
<title>12&#45;&gt;19</title>
<path fill="none" stroke="#000000" d="M1328.4382,-649.3987C1328.4382,-635.8169 1328.4382,-617.0048 1328.4382,-601.4711"/>
<polygon fill="#000000" stroke="#000000" points="1331.9383,-601.3454 1328.4382,-591.3454 1324.9383,-601.3454 1331.9383,-601.3454"/>
</g>
<!-- 20 -->
<g id="node57" class="node">
<title>20</title>
<polygon fill="#c1b2ff" stroke="#c1b2ff" points="1515.8147,-602.6014 1415.0617,-602.6014 1415.0617,-543.7986 1515.8147,-543.7986 1515.8147,-602.6014"/>
<text text-anchor="middle" x="1465.4382" y="-585.8" font-family="Times,serif" font-size="14.00" fill="#000000">size = &#160;5 </text>
<text text-anchor="middle" x="1465.4382" y="-569" font-family="Times,serif" font-size="14.00" fill="#000000"> avg_Y = &#45;0.77</text>
<text text-anchor="middle" x="1465.4382" y="-552.2" font-family="Times,serif" font-size="14.00" fill="#000000">avg_W = 0.4 </text>
</g>
<!-- 12&#45;&gt;20 -->
<g id="edge56" class="edge">
<title>12&#45;&gt;20</title>
<path fill="none" stroke="#000000" d="M1354.8532,-649.3987C1371.8014,-637.7206 1394.3613,-622.1756 1414.6834,-608.1727"/>
<polygon fill="#000000" stroke="#000000" points="1416.6866,-611.0428 1422.9352,-602.4868 1412.7148,-605.2787 1416.6866,-611.0428"/>
</g>
<!-- 27 -->
<g id="node58" class="node">
<title>27</title>
<polygon fill="#c1b2ff" stroke="#c1b2ff" points="1342.8147,-508.2014 1242.0617,-508.2014 1242.0617,-449.3986 1342.8147,-449.3986 1342.8147,-508.2014"/>
<text text-anchor="middle" x="1292.4382" y="-491.4" font-family="Times,serif" font-size="14.00" fill="#000000">size = &#160;21 </text>
<text text-anchor="middle" x="1292.4382" y="-474.6" font-family="Times,serif" font-size="14.00" fill="#000000"> avg_Y = &#45;0.48</text>
<text text-anchor="middle" x="1292.4382" y="-457.8" font-family="Times,serif" font-size="14.00" fill="#000000">avg_W = 0.48 </text>
</g>
<!-- 19&#45;&gt;27 -->
<g id="edge57" class="edge">
<title>19&#45;&gt;27</title>
<path fill="none" stroke="#000000" d="M1321.497,-554.9987C1317.4592,-544.4105 1312.2091,-530.6436 1307.2842,-517.7294"/>
<polygon fill="#000000" stroke="#000000" points="1310.4405,-516.1832 1303.6069,-508.0868 1303.8999,-518.6775 1310.4405,-516.1832"/>
</g>
<!-- 28 -->
<g id="node59" class="node">
<title>28</title>
<polygon fill="#c1b2ff" stroke="#c1b2ff" points="1461.8147,-508.2014 1361.0617,-508.2014 1361.0617,-449.3986 1461.8147,-449.3986 1461.8147,-508.2014"/>
<text text-anchor="middle" x="1411.4382" y="-491.4" font-family="Times,serif" font-size="14.00" fill="#000000">size = &#160;10 </text>
<text text-anchor="middle" x="1411.4382" y="-474.6" font-family="Times,serif" font-size="14.00" fill="#000000"> avg_Y = &#45;0.44</text>
<text text-anchor="middle" x="1411.4382" y="-457.8" font-family="Times,serif" font-size="14.00" fill="#000000">avg_W = 0.7 </text>
</g>
<!-- 19&#45;&gt;28 -->
<g id="edge58" class="edge">
<title>19&#45;&gt;28</title>
<path fill="none" stroke="#000000" d="M1344.4414,-554.9987C1354.2073,-543.8915 1367.0488,-529.2863 1378.874,-515.8369"/>
<polygon fill="#000000" stroke="#000000" points="1381.7136,-517.9078 1385.6882,-508.0868 1376.4566,-513.2857 1381.7136,-517.9078"/>
</g>
</g>
</svg>
