<?xml version="1.0" encoding="UTF-8" standalone="no"?>
<!DOCTYPE svg PUBLIC "-//W3C//DTD SVG 1.1//EN"
 "http://www.w3.org/Graphics/SVG/1.1/DTD/svg11.dtd">
<!-- Generated by graphviz version 2.40.1 (20161225.0304)
 -->
<!-- Title: nodes Pages: 1 -->
<svg width="1156pt" height="682pt"
 viewBox="0.00 0.00 1156.32 682.40" xmlns="http://www.w3.org/2000/svg" xmlns:xlink="http://www.w3.org/1999/xlink">
<g id="graph0" class="graph" transform="scale(1 1) rotate(0) translate(4 678.4)">
<title>nodes</title>
<polygon fill="#ffffff" stroke="transparent" points="-4,4 -4,-678.4 1152.3238,-678.4 1152.3238,4 -4,4"/>
<!-- 0 -->
<g id="node1" class="node">
<title>0</title>
<polygon fill="none" stroke="#000000" points="878.3292,-674.4 698.9946,-674.4 698.9946,-638.4 878.3292,-638.4 878.3292,-674.4"/>
<text text-anchor="middle" x="788.6619" y="-652.2" font-family="Times,serif" font-size="14.00" fill="#000000"> trouble.paying.bills &lt;= 0.14 </text>
</g>
<!-- 1 -->
<g id="node2" class="node">
<title>1</title>
<polygon fill="none" stroke="#000000" points="779.2163,-602.4 656.1075,-602.4 656.1075,-566.4 779.2163,-566.4 779.2163,-602.4"/>
<text text-anchor="middle" x="717.6619" y="-580.2" font-family="Times,serif" font-size="14.00" fill="#000000"> suc_x_dia &lt;= 504 </text>
</g>
<!-- 0&#45;&gt;1 -->
<g id="edge1" class="edge">
<title>0&#45;&gt;1</title>
<path fill="none" stroke="#000000" d="M770.7456,-638.2314C762.3177,-629.6848 752.1209,-619.3443 742.9259,-610.0198"/>
<polygon fill="#000000" stroke="#000000" points="745.333,-607.4761 735.8194,-602.8133 740.3488,-612.3912 745.333,-607.4761"/>
<text text-anchor="middle" x="735.6446" y="-623.6127" font-family="Times,serif" font-size="14.00" fill="#000000">True</text>
</g>
<!-- 2 -->
<g id="node3" class="node">
<title>2</title>
<polygon fill="none" stroke="#000000" points="921.2163,-602.4 798.1075,-602.4 798.1075,-566.4 921.2163,-566.4 921.2163,-602.4"/>
<text text-anchor="middle" x="859.6619" y="-580.2" font-family="Times,serif" font-size="14.00" fill="#000000"> suc_x_dia &lt;= 329 </text>
</g>
<!-- 0&#45;&gt;2 -->
<g id="edge2" class="edge">
<title>0&#45;&gt;2</title>
<path fill="none" stroke="#000000" d="M806.5782,-638.2314C815.0061,-629.6848 825.2029,-619.3443 834.3979,-610.0198"/>
<polygon fill="#000000" stroke="#000000" points="836.975,-612.3912 841.5044,-602.8133 831.9908,-607.4761 836.975,-612.3912"/>
<text text-anchor="middle" x="841.6792" y="-623.6127" font-family="Times,serif" font-size="14.00" fill="#000000">False</text>
</g>
<!-- 3 -->
<g id="node4" class="node">
<title>3</title>
<polygon fill="none" stroke="#000000" points="654.2631,-519.2 519.0607,-519.2 519.0607,-483.2 654.2631,-483.2 654.2631,-519.2"/>
<text text-anchor="middle" x="586.6619" y="-497" font-family="Times,serif" font-size="14.00" fill="#000000"> transport.cost &lt;= 14 </text>
</g>
<!-- 1&#45;&gt;3 -->
<g id="edge3" class="edge">
<title>1&#45;&gt;3</title>
<path fill="none" stroke="#000000" d="M689.2369,-566.3468C670.0104,-554.1358 644.4292,-537.8888 623.6234,-524.6748"/>
<polygon fill="#000000" stroke="#000000" points="625.3493,-521.6247 615.0315,-519.2179 621.5964,-527.5337 625.3493,-521.6247"/>
</g>
<!-- 4 -->
<g id="node5" class="node">
<title>4</title>
<polygon fill="#c1b2ff" stroke="#c1b2ff" points="771.4862,-530.6014 671.8376,-530.6014 671.8376,-471.7986 771.4862,-471.7986 771.4862,-530.6014"/>
<text text-anchor="middle" x="721.6619" y="-513.8" font-family="Times,serif" font-size="14.00" fill="#000000">size = &#160;22 </text>
<text text-anchor="middle" x="721.6619" y="-497" font-family="Times,serif" font-size="14.00" fill="#000000"> avg_Y = 0.41</text>
<text text-anchor="middle" x="721.6619" y="-480.2" font-family="Times,serif" font-size="14.00" fill="#000000">avg_W = 0.45 </text>
</g>
<!-- 1&#45;&gt;4 -->
<g id="edge4" class="edge">
<title>1&#45;&gt;4</title>
<path fill="none" stroke="#000000" d="M718.5298,-566.3468C718.8938,-558.7769 719.3323,-549.656 719.7644,-540.6681"/>
<polygon fill="#000000" stroke="#000000" points="723.2609,-540.8233 720.2452,-530.6668 716.269,-540.4871 723.2609,-540.8233"/>
</g>
<!-- 5 -->
<g id="node28" class="node">
<title>5</title>
<polygon fill="none" stroke="#000000" points="892.3806,-519.2 812.9432,-519.2 812.9432,-483.2 892.3806,-483.2 892.3806,-519.2"/>
<text text-anchor="middle" x="852.6619" y="-497" font-family="Times,serif" font-size="14.00" fill="#000000"> age &lt;= 37 </text>
</g>
<!-- 2&#45;&gt;5 -->
<g id="edge27" class="edge">
<title>2&#45;&gt;5</title>
<path fill="none" stroke="#000000" d="M858.143,-566.3468C857.2349,-555.5532 856.0615,-541.6061 855.0335,-529.3876"/>
<polygon fill="#000000" stroke="#000000" points="858.504,-528.8893 854.1778,-519.2179 851.5286,-529.4762 858.504,-528.8893"/>
</g>
<!-- 6 -->
<g id="node29" class="node">
<title>6</title>
<polygon fill="none" stroke="#000000" points="1022.9861,-519.2 940.3377,-519.2 940.3377,-483.2 1022.9861,-483.2 1022.9861,-519.2"/>
<text text-anchor="middle" x="981.6619" y="-497" font-family="Times,serif" font-size="14.00" fill="#000000"> rosca &lt;= 0 </text>
</g>
<!-- 2&#45;&gt;6 -->
<g id="edge28" class="edge">
<title>2&#45;&gt;6</title>
<path fill="none" stroke="#000000" d="M886.1341,-566.3468C903.8798,-554.2449 927.4384,-538.1786 946.7197,-525.0295"/>
<polygon fill="#000000" stroke="#000000" points="948.9517,-527.7438 955.2414,-519.2179 945.0077,-521.9606 948.9517,-527.7438"/>
</g>
<!-- 7 -->
<g id="node6" class="node">
<title>7</title>
<polygon fill="none" stroke="#000000" points="521.2625,-424.8 382.0613,-424.8 382.0613,-388.8 521.2625,-388.8 521.2625,-424.8"/>
<text text-anchor="middle" x="451.6619" y="-402.6" font-family="Times,serif" font-size="14.00" fill="#000000"> transport.cost &lt;= 2.5 </text>
</g>
<!-- 3&#45;&gt;7 -->
<g id="edge5" class="edge">
<title>3&#45;&gt;7</title>
<path fill="none" stroke="#000000" d="M560.6325,-482.9987C539.3418,-468.111 509.0637,-446.9388 485.8249,-430.6888"/>
<polygon fill="#000000" stroke="#000000" points="487.8122,-427.8077 477.6113,-424.9454 483.8008,-433.5443 487.8122,-427.8077"/>
</g>
<!-- 8 -->
<g id="node7" class="node">
<title>8</title>
<polygon fill="none" stroke="#000000" points="641.8208,-424.8 539.503,-424.8 539.503,-388.8 641.8208,-388.8 641.8208,-424.8"/>
<text text-anchor="middle" x="590.6619" y="-402.6" font-family="Times,serif" font-size="14.00" fill="#000000"> fam.asks &lt;= 0 </text>
</g>
<!-- 3&#45;&gt;8 -->
<g id="edge6" class="edge">
<title>3&#45;&gt;8</title>
<path fill="none" stroke="#000000" d="M587.4331,-482.9987C588.0086,-469.4169 588.8058,-450.6048 589.464,-435.0711"/>
<polygon fill="#000000" stroke="#000000" points="592.9664,-435.0846 589.893,-424.9454 585.9727,-434.7882 592.9664,-435.0846"/>
</g>
<!-- 13 -->
<g id="node8" class="node">
<title>13</title>
<polygon fill="none" stroke="#000000" points="345.3208,-330.4 222.003,-330.4 222.003,-294.4 345.3208,-294.4 345.3208,-330.4"/>
<text text-anchor="middle" x="283.6619" y="-308.2" font-family="Times,serif" font-size="14.00" fill="#000000"> loan.size &lt;= 1010 </text>
</g>
<!-- 7&#45;&gt;13 -->
<g id="edge7" class="edge">
<title>7&#45;&gt;13</title>
<path fill="none" stroke="#000000" d="M419.2698,-388.5987C392.426,-373.5151 354.1018,-351.9805 325.0389,-335.6499"/>
<polygon fill="#000000" stroke="#000000" points="326.3871,-332.3928 315.9545,-330.5454 322.958,-338.4954 326.3871,-332.3928"/>
</g>
<!-- 14 -->
<g id="node9" class="node">
<title>14</title>
<polygon fill="none" stroke="#000000" points="516.2163,-330.4 393.1075,-330.4 393.1075,-294.4 516.2163,-294.4 516.2163,-330.4"/>
<text text-anchor="middle" x="454.6619" y="-308.2" font-family="Times,serif" font-size="14.00" fill="#000000"> suc_x_dia &lt;= 415 </text>
</g>
<!-- 7&#45;&gt;14 -->
<g id="edge8" class="edge">
<title>7&#45;&gt;14</title>
<path fill="none" stroke="#000000" d="M452.2403,-388.5987C452.672,-375.0169 453.2698,-356.2048 453.7635,-340.6711"/>
<polygon fill="#000000" stroke="#000000" points="457.2657,-340.6516 454.0852,-330.5454 450.2693,-340.4291 457.2657,-340.6516"/>
</g>
<!-- 15 -->
<g id="node26" class="node">
<title>15</title>
<polygon fill="#c1b2ff" stroke="#c1b2ff" points="638.4862,-341.8014 538.8376,-341.8014 538.8376,-282.9986 638.4862,-282.9986 638.4862,-341.8014"/>
<text text-anchor="middle" x="588.6619" y="-325" font-family="Times,serif" font-size="14.00" fill="#000000">size = &#160;22 </text>
<text text-anchor="middle" x="588.6619" y="-308.2" font-family="Times,serif" font-size="14.00" fill="#000000"> avg_Y = 0.64</text>
<text text-anchor="middle" x="588.6619" y="-291.4" font-family="Times,serif" font-size="14.00" fill="#000000">avg_W = 0.23 </text>
</g>
<!-- 8&#45;&gt;15 -->
<g id="edge25" class="edge">
<title>8&#45;&gt;15</title>
<path fill="none" stroke="#000000" d="M590.2763,-388.5987C590.0542,-378.1143 589.766,-364.5133 589.4947,-351.7095"/>
<polygon fill="#000000" stroke="#000000" points="592.9935,-351.6103 589.2824,-341.6868 585.9951,-351.7587 592.9935,-351.6103"/>
</g>
<!-- 16 -->
<g id="node27" class="node">
<title>16</title>
<polygon fill="#c1b2ff" stroke="#c1b2ff" points="755.4862,-341.8014 655.8376,-341.8014 655.8376,-282.9986 755.4862,-282.9986 755.4862,-341.8014"/>
<text text-anchor="middle" x="705.6619" y="-325" font-family="Times,serif" font-size="14.00" fill="#000000">size = &#160;22 </text>
<text text-anchor="middle" x="705.6619" y="-308.2" font-family="Times,serif" font-size="14.00" fill="#000000"> avg_Y = 0.36</text>
<text text-anchor="middle" x="705.6619" y="-291.4" font-family="Times,serif" font-size="14.00" fill="#000000">avg_W = 0.73 </text>
</g>
<!-- 8&#45;&gt;16 -->
<g id="edge26" class="edge">
<title>8&#45;&gt;16</title>
<path fill="none" stroke="#000000" d="M612.8351,-388.5987C626.7455,-377.1801 645.1595,-362.0646 661.9175,-348.3084"/>
<polygon fill="#000000" stroke="#000000" points="664.4755,-350.7369 669.9842,-341.6868 660.0341,-345.3263 664.4755,-350.7369"/>
</g>
<!-- 19 -->
<g id="node10" class="node">
<title>19</title>
<polygon fill="#c1b2ff" stroke="#c1b2ff" points="214.9863,-247.4014 122.3375,-247.4014 122.3375,-188.5986 214.9863,-188.5986 214.9863,-247.4014"/>
<text text-anchor="middle" x="168.6619" y="-230.6" font-family="Times,serif" font-size="14.00" fill="#000000">size = &#160;24 </text>
<text text-anchor="middle" x="168.6619" y="-213.8" font-family="Times,serif" font-size="14.00" fill="#000000"> avg_Y = 0.5</text>
<text text-anchor="middle" x="168.6619" y="-197" font-family="Times,serif" font-size="14.00" fill="#000000">avg_W = 0.5 </text>
</g>
<!-- 13&#45;&gt;19 -->
<g id="edge9" class="edge">
<title>13&#45;&gt;19</title>
<path fill="none" stroke="#000000" d="M261.4887,-294.1987C247.5783,-282.7801 229.1643,-267.6646 212.4063,-253.9084"/>
<polygon fill="#000000" stroke="#000000" points="214.2897,-250.9263 204.3396,-247.2868 209.8483,-256.3369 214.2897,-250.9263"/>
</g>
<!-- 20 -->
<g id="node11" class="node">
<title>20</title>
<polygon fill="none" stroke="#000000" points="334.5416,-236 232.7822,-236 232.7822,-200 334.5416,-200 334.5416,-236"/>
<text text-anchor="middle" x="283.6619" y="-213.8" font-family="Times,serif" font-size="14.00" fill="#000000"> branch.4 &lt;= 0 </text>
</g>
<!-- 13&#45;&gt;20 -->
<g id="edge10" class="edge">
<title>13&#45;&gt;20</title>
<path fill="none" stroke="#000000" d="M283.6619,-294.1987C283.6619,-280.6169 283.6619,-261.8048 283.6619,-246.2711"/>
<polygon fill="#000000" stroke="#000000" points="287.162,-246.1454 283.6619,-236.1454 280.162,-246.1454 287.162,-246.1454"/>
</g>
<!-- 21 -->
<g id="node16" class="node">
<title>21</title>
<polygon fill="none" stroke="#000000" points="516.3208,-236 393.003,-236 393.003,-200 516.3208,-200 516.3208,-236"/>
<text text-anchor="middle" x="454.6619" y="-213.8" font-family="Times,serif" font-size="14.00" fill="#000000"> loan.size &lt;= 1310 </text>
</g>
<!-- 14&#45;&gt;21 -->
<g id="edge15" class="edge">
<title>14&#45;&gt;21</title>
<path fill="none" stroke="#000000" d="M454.6619,-294.1987C454.6619,-280.6169 454.6619,-261.8048 454.6619,-246.2711"/>
<polygon fill="#000000" stroke="#000000" points="458.162,-246.1454 454.6619,-236.1454 451.162,-246.1454 458.162,-246.1454"/>
</g>
<!-- 22 -->
<g id="node17" class="node">
<title>22</title>
<polygon fill="none" stroke="#000000" points="687.2163,-236 564.1075,-236 564.1075,-200 687.2163,-200 687.2163,-236"/>
<text text-anchor="middle" x="625.6619" y="-213.8" font-family="Times,serif" font-size="14.00" fill="#000000"> suc_x_dia &lt;= 431 </text>
</g>
<!-- 14&#45;&gt;22 -->
<g id="edge16" class="edge">
<title>14&#45;&gt;22</title>
<path fill="none" stroke="#000000" d="M487.6324,-294.1987C515.0739,-279.0498 554.3021,-257.394 583.9297,-241.0381"/>
<polygon fill="#000000" stroke="#000000" points="585.7296,-244.0425 592.7926,-236.1454 582.3465,-237.9143 585.7296,-244.0425"/>
</g>
<!-- 23 -->
<g id="node12" class="node">
<title>23</title>
<polygon fill="none" stroke="#000000" points="206.3806,-141.6 126.9432,-141.6 126.9432,-105.6 206.3806,-105.6 206.3806,-141.6"/>
<text text-anchor="middle" x="166.6619" y="-119.4" font-family="Times,serif" font-size="14.00" fill="#000000"> age &lt;= 39 </text>
</g>
<!-- 20&#45;&gt;23 -->
<g id="edge11" class="edge">
<title>20&#45;&gt;23</title>
<path fill="none" stroke="#000000" d="M261.1031,-199.7987C242.8939,-185.1068 217.0994,-164.2948 197.068,-148.1328"/>
<polygon fill="#000000" stroke="#000000" points="199.1319,-145.3008 189.1514,-141.7454 194.7363,-150.7487 199.1319,-145.3008"/>
</g>
<!-- 24 -->
<g id="node13" class="node">
<title>24</title>
<polygon fill="#c1b2ff" stroke="#c1b2ff" points="333.4862,-153.0014 233.8376,-153.0014 233.8376,-94.1986 333.4862,-94.1986 333.4862,-153.0014"/>
<text text-anchor="middle" x="283.6619" y="-136.2" font-family="Times,serif" font-size="14.00" fill="#000000">size = &#160;13 </text>
<text text-anchor="middle" x="283.6619" y="-119.4" font-family="Times,serif" font-size="14.00" fill="#000000"> avg_Y = 0.69</text>
<text text-anchor="middle" x="283.6619" y="-102.6" font-family="Times,serif" font-size="14.00" fill="#000000">avg_W = 0.54 </text>
</g>
<!-- 20&#45;&gt;24 -->
<g id="edge12" class="edge">
<title>20&#45;&gt;24</title>
<path fill="none" stroke="#000000" d="M283.6619,-199.7987C283.6619,-189.3143 283.6619,-175.7133 283.6619,-162.9095"/>
<polygon fill="#000000" stroke="#000000" points="287.162,-162.8867 283.6619,-152.8868 280.162,-162.8868 287.162,-162.8867"/>
</g>
<!-- 29 -->
<g id="node14" class="node">
<title>29</title>
<polygon fill="#c1b2ff" stroke="#c1b2ff" points="99.4862,-58.6014 -.1624,-58.6014 -.1624,.2014 99.4862,.2014 99.4862,-58.6014"/>
<text text-anchor="middle" x="49.6619" y="-41.8" font-family="Times,serif" font-size="14.00" fill="#000000">size = &#160;6 </text>
<text text-anchor="middle" x="49.6619" y="-25" font-family="Times,serif" font-size="14.00" fill="#000000"> avg_Y = 0.5</text>
<text text-anchor="middle" x="49.6619" y="-8.2" font-family="Times,serif" font-size="14.00" fill="#000000">avg_W = 0.67 </text>
</g>
<!-- 23&#45;&gt;29 -->
<g id="edge13" class="edge">
<title>23&#45;&gt;29</title>
<path fill="none" stroke="#000000" d="M144.1031,-105.3987C129.9508,-93.9801 111.2165,-78.8646 94.167,-65.1084"/>
<polygon fill="#000000" stroke="#000000" points="95.9406,-62.0422 85.9601,-58.4868 91.545,-67.4901 95.9406,-62.0422"/>
</g>
<!-- 30 -->
<g id="node15" class="node">
<title>30</title>
<polygon fill="#c1b2ff" stroke="#c1b2ff" points="216.4862,-58.6014 116.8376,-58.6014 116.8376,.2014 216.4862,.2014 216.4862,-58.6014"/>
<text text-anchor="middle" x="166.6619" y="-41.8" font-family="Times,serif" font-size="14.00" fill="#000000">size = &#160;17 </text>
<text text-anchor="middle" x="166.6619" y="-25" font-family="Times,serif" font-size="14.00" fill="#000000"> avg_Y = 0.76</text>
<text text-anchor="middle" x="166.6619" y="-8.2" font-family="Times,serif" font-size="14.00" fill="#000000">avg_W = 0.76 </text>
</g>
<!-- 23&#45;&gt;30 -->
<g id="edge14" class="edge">
<title>23&#45;&gt;30</title>
<path fill="none" stroke="#000000" d="M166.6619,-105.3987C166.6619,-94.9143 166.6619,-81.3133 166.6619,-68.5095"/>
<polygon fill="#000000" stroke="#000000" points="170.162,-68.4867 166.6619,-58.4868 163.162,-68.4868 170.162,-68.4867"/>
</g>
<!-- 25 -->
<g id="node18" class="node">
<title>25</title>
<polygon fill="none" stroke="#000000" points="440.3806,-141.6 360.9432,-141.6 360.9432,-105.6 440.3806,-105.6 440.3806,-141.6"/>
<text text-anchor="middle" x="400.6619" y="-119.4" font-family="Times,serif" font-size="14.00" fill="#000000"> age &lt;= 41 </text>
</g>
<!-- 21&#45;&gt;25 -->
<g id="edge17" class="edge">
<title>21&#45;&gt;25</title>
<path fill="none" stroke="#000000" d="M444.2502,-199.7987C436.2568,-185.8251 425.0964,-166.3152 416.0698,-150.5353"/>
<polygon fill="#000000" stroke="#000000" points="419.0451,-148.6877 411.0417,-141.7454 412.969,-152.1635 419.0451,-148.6877"/>
</g>
<!-- 26 -->
<g id="node19" class="node">
<title>26</title>
<polygon fill="none" stroke="#000000" points="557.9457,-141.6 463.3781,-141.6 463.3781,-105.6 557.9457,-105.6 557.9457,-141.6"/>
<text text-anchor="middle" x="510.6619" y="-119.4" font-family="Times,serif" font-size="14.00" fill="#000000"> savings &lt;= 0 </text>
</g>
<!-- 21&#45;&gt;26 -->
<g id="edge18" class="edge">
<title>21&#45;&gt;26</title>
<path fill="none" stroke="#000000" d="M465.4593,-199.7987C473.7487,-185.8251 485.3224,-166.3152 494.6833,-150.5353"/>
<polygon fill="#000000" stroke="#000000" points="497.8058,-152.1317 499.8977,-141.7454 491.7854,-148.5602 497.8058,-152.1317"/>
</g>
<!-- 27 -->
<g id="node24" class="node">
<title>27</title>
<polygon fill="#c1b2ff" stroke="#c1b2ff" points="675.4862,-153.0014 575.8376,-153.0014 575.8376,-94.1986 675.4862,-94.1986 675.4862,-153.0014"/>
<text text-anchor="middle" x="625.6619" y="-136.2" font-family="Times,serif" font-size="14.00" fill="#000000">size = &#160;11 </text>
<text text-anchor="middle" x="625.6619" y="-119.4" font-family="Times,serif" font-size="14.00" fill="#000000"> avg_Y = 0.36</text>
<text text-anchor="middle" x="625.6619" y="-102.6" font-family="Times,serif" font-size="14.00" fill="#000000">avg_W = 0.64 </text>
</g>
<!-- 22&#45;&gt;27 -->
<g id="edge23" class="edge">
<title>22&#45;&gt;27</title>
<path fill="none" stroke="#000000" d="M625.6619,-199.7987C625.6619,-189.3143 625.6619,-175.7133 625.6619,-162.9095"/>
<polygon fill="#000000" stroke="#000000" points="629.162,-162.8867 625.6619,-152.8868 622.162,-162.8868 629.162,-162.8867"/>
</g>
<!-- 28 -->
<g id="node25" class="node">
<title>28</title>
<polygon fill="#c1b2ff" stroke="#c1b2ff" points="792.4862,-153.0014 692.8376,-153.0014 692.8376,-94.1986 792.4862,-94.1986 792.4862,-153.0014"/>
<text text-anchor="middle" x="742.6619" y="-136.2" font-family="Times,serif" font-size="14.00" fill="#000000">size = &#160;9 </text>
<text text-anchor="middle" x="742.6619" y="-119.4" font-family="Times,serif" font-size="14.00" fill="#000000"> avg_Y = 0.22</text>
<text text-anchor="middle" x="742.6619" y="-102.6" font-family="Times,serif" font-size="14.00" fill="#000000">avg_W = 0.33 </text>
</g>
<!-- 22&#45;&gt;28 -->
<g id="edge24" class="edge">
<title>22&#45;&gt;28</title>
<path fill="none" stroke="#000000" d="M648.2207,-199.7987C662.373,-188.3801 681.1073,-173.2646 698.1568,-159.5084"/>
<polygon fill="#000000" stroke="#000000" points="700.7788,-161.8901 706.3637,-152.8868 696.3832,-156.4422 700.7788,-161.8901"/>
</g>
<!-- 31 -->
<g id="node20" class="node">
<title>31</title>
<polygon fill="#c1b2ff" stroke="#c1b2ff" points="333.4862,-58.6014 233.8376,-58.6014 233.8376,.2014 333.4862,.2014 333.4862,-58.6014"/>
<text text-anchor="middle" x="283.6619" y="-41.8" font-family="Times,serif" font-size="14.00" fill="#000000">size = &#160;15 </text>
<text text-anchor="middle" x="283.6619" y="-25" font-family="Times,serif" font-size="14.00" fill="#000000"> avg_Y = 0.47</text>
<text text-anchor="middle" x="283.6619" y="-8.2" font-family="Times,serif" font-size="14.00" fill="#000000">avg_W = 0.53 </text>
</g>
<!-- 25&#45;&gt;31 -->
<g id="edge19" class="edge">
<title>25&#45;&gt;31</title>
<path fill="none" stroke="#000000" d="M378.1031,-105.3987C363.9508,-93.9801 345.2165,-78.8646 328.167,-65.1084"/>
<polygon fill="#000000" stroke="#000000" points="329.9406,-62.0422 319.9601,-58.4868 325.545,-67.4901 329.9406,-62.0422"/>
</g>
<!-- 32 -->
<g id="node21" class="node">
<title>32</title>
<polygon fill="#c1b2ff" stroke="#c1b2ff" points="450.4862,-58.6014 350.8376,-58.6014 350.8376,.2014 450.4862,.2014 450.4862,-58.6014"/>
<text text-anchor="middle" x="400.6619" y="-41.8" font-family="Times,serif" font-size="14.00" fill="#000000">size = &#160;11 </text>
<text text-anchor="middle" x="400.6619" y="-25" font-family="Times,serif" font-size="14.00" fill="#000000"> avg_Y = 0.55</text>
<text text-anchor="middle" x="400.6619" y="-8.2" font-family="Times,serif" font-size="14.00" fill="#000000">avg_W = 0.73 </text>
</g>
<!-- 25&#45;&gt;32 -->
<g id="edge20" class="edge">
<title>25&#45;&gt;32</title>
<path fill="none" stroke="#000000" d="M400.6619,-105.3987C400.6619,-94.9143 400.6619,-81.3133 400.6619,-68.5095"/>
<polygon fill="#000000" stroke="#000000" points="404.162,-68.4867 400.6619,-58.4868 397.162,-68.4868 404.162,-68.4867"/>
</g>
<!-- 33 -->
<g id="node22" class="node">
<title>33</title>
<polygon fill="#c1b2ff" stroke="#c1b2ff" points="564.8779,-58.6014 468.4459,-58.6014 468.4459,.2014 564.8779,.2014 564.8779,-58.6014"/>
<text text-anchor="middle" x="516.6619" y="-41.8" font-family="Times,serif" font-size="14.00" fill="#000000">size = &#160;20 </text>
<text text-anchor="middle" x="516.6619" y="-25" font-family="Times,serif" font-size="14.00" fill="#000000"> avg_Y = 0.55</text>
<text text-anchor="middle" x="516.6619" y="-8.2" font-family="Times,serif" font-size="14.00" fill="#000000">avg_W = 0.4 </text>
</g>
<!-- 26&#45;&gt;33 -->
<g id="edge21" class="edge">
<title>26&#45;&gt;33</title>
<path fill="none" stroke="#000000" d="M511.8188,-105.3987C512.4851,-94.9143 513.3496,-81.3133 514.1634,-68.5095"/>
<polygon fill="#000000" stroke="#000000" points="517.659,-68.6887 514.8005,-58.4868 510.6731,-68.2446 517.659,-68.6887"/>
</g>
<!-- 34 -->
<g id="node23" class="node">
<title>34</title>
<polygon fill="#c1b2ff" stroke="#c1b2ff" points="682.4862,-58.6014 582.8376,-58.6014 582.8376,.2014 682.4862,.2014 682.4862,-58.6014"/>
<text text-anchor="middle" x="632.6619" y="-41.8" font-family="Times,serif" font-size="14.00" fill="#000000">size = &#160;11 </text>
<text text-anchor="middle" x="632.6619" y="-25" font-family="Times,serif" font-size="14.00" fill="#000000"> avg_Y = 0.64</text>
<text text-anchor="middle" x="632.6619" y="-8.2" font-family="Times,serif" font-size="14.00" fill="#000000">avg_W = 0.55 </text>
</g>
<!-- 26&#45;&gt;34 -->
<g id="edge22" class="edge">
<title>26&#45;&gt;34</title>
<path fill="none" stroke="#000000" d="M534.1847,-105.3987C549.076,-93.8763 568.8323,-78.5894 586.7392,-64.7336"/>
<polygon fill="#000000" stroke="#000000" points="589.0455,-67.3745 594.8125,-58.4868 584.7617,-61.8383 589.0455,-67.3745"/>
</g>
<!-- 9 -->
<g id="node30" class="node">
<title>9</title>
<polygon fill="#c1b2ff" stroke="#c1b2ff" points="773.4862,-436.2014 673.8376,-436.2014 673.8376,-377.3986 773.4862,-377.3986 773.4862,-436.2014"/>
<text text-anchor="middle" x="723.6619" y="-419.4" font-family="Times,serif" font-size="14.00" fill="#000000">size = &#160;12 </text>
<text text-anchor="middle" x="723.6619" y="-402.6" font-family="Times,serif" font-size="14.00" fill="#000000"> avg_Y = 0.5</text>
<text text-anchor="middle" x="723.6619" y="-385.8" font-family="Times,serif" font-size="14.00" fill="#000000">avg_W = 0.25 </text>
</g>
<!-- 5&#45;&gt;9 -->
<g id="edge29" class="edge">
<title>5&#45;&gt;9</title>
<path fill="none" stroke="#000000" d="M827.7894,-482.9987C811.9728,-471.4244 790.9655,-456.0516 771.9637,-442.1464"/>
<polygon fill="#000000" stroke="#000000" points="773.82,-439.1678 763.683,-436.0868 769.6861,-444.8168 773.82,-439.1678"/>
</g>
<!-- 10 -->
<g id="node31" class="node">
<title>10</title>
<polygon fill="none" stroke="#000000" points="914.3208,-424.8 791.003,-424.8 791.003,-388.8 914.3208,-388.8 914.3208,-424.8"/>
<text text-anchor="middle" x="852.6619" y="-402.6" font-family="Times,serif" font-size="14.00" fill="#000000"> loan.size &lt;= 1430 </text>
</g>
<!-- 5&#45;&gt;10 -->
<g id="edge30" class="edge">
<title>5&#45;&gt;10</title>
<path fill="none" stroke="#000000" d="M852.6619,-482.9987C852.6619,-469.4169 852.6619,-450.6048 852.6619,-435.0711"/>
<polygon fill="#000000" stroke="#000000" points="856.162,-434.9454 852.6619,-424.9454 849.162,-434.9454 856.162,-434.9454"/>
</g>
<!-- 11 -->
<g id="node34" class="node">
<title>11</title>
<polygon fill="#c1b2ff" stroke="#c1b2ff" points="1031.4862,-436.2014 931.8376,-436.2014 931.8376,-377.3986 1031.4862,-377.3986 1031.4862,-436.2014"/>
<text text-anchor="middle" x="981.6619" y="-419.4" font-family="Times,serif" font-size="14.00" fill="#000000">size = &#160;19 </text>
<text text-anchor="middle" x="981.6619" y="-402.6" font-family="Times,serif" font-size="14.00" fill="#000000"> avg_Y = 0.21</text>
<text text-anchor="middle" x="981.6619" y="-385.8" font-family="Times,serif" font-size="14.00" fill="#000000">avg_W = 0.47 </text>
</g>
<!-- 6&#45;&gt;11 -->
<g id="edge33" class="edge">
<title>6&#45;&gt;11</title>
<path fill="none" stroke="#000000" d="M981.6619,-482.9987C981.6619,-472.5143 981.6619,-458.9133 981.6619,-446.1095"/>
<polygon fill="#000000" stroke="#000000" points="985.162,-446.0867 981.6619,-436.0868 978.162,-446.0868 985.162,-446.0867"/>
</g>
<!-- 12 -->
<g id="node35" class="node">
<title>12</title>
<polygon fill="#c1b2ff" stroke="#c1b2ff" points="1148.4862,-436.2014 1048.8376,-436.2014 1048.8376,-377.3986 1148.4862,-377.3986 1148.4862,-436.2014"/>
<text text-anchor="middle" x="1098.6619" y="-419.4" font-family="Times,serif" font-size="14.00" fill="#000000">size = &#160;16 </text>
<text text-anchor="middle" x="1098.6619" y="-402.6" font-family="Times,serif" font-size="14.00" fill="#000000"> avg_Y = 0.19</text>
<text text-anchor="middle" x="1098.6619" y="-385.8" font-family="Times,serif" font-size="14.00" fill="#000000">avg_W = 0.25 </text>
</g>
<!-- 6&#45;&gt;12 -->
<g id="edge34" class="edge">
<title>6&#45;&gt;12</title>
<path fill="none" stroke="#000000" d="M1004.2207,-482.9987C1018.373,-471.5801 1037.1073,-456.4646 1054.1568,-442.7084"/>
<polygon fill="#000000" stroke="#000000" points="1056.7788,-445.0901 1062.3637,-436.0868 1052.3832,-439.6422 1056.7788,-445.0901"/>
</g>
<!-- 17 -->
<g id="node32" class="node">
<title>17</title>
<polygon fill="#c1b2ff" stroke="#c1b2ff" points="887.4862,-341.8014 787.8376,-341.8014 787.8376,-282.9986 887.4862,-282.9986 887.4862,-341.8014"/>
<text text-anchor="middle" x="837.6619" y="-325" font-family="Times,serif" font-size="14.00" fill="#000000">size = &#160;7 </text>
<text text-anchor="middle" x="837.6619" y="-308.2" font-family="Times,serif" font-size="14.00" fill="#000000"> avg_Y = 0.71</text>
<text text-anchor="middle" x="837.6619" y="-291.4" font-family="Times,serif" font-size="14.00" fill="#000000">avg_W = 0.71 </text>
</g>
<!-- 10&#45;&gt;17 -->
<g id="edge31" class="edge">
<title>10&#45;&gt;17</title>
<path fill="none" stroke="#000000" d="M849.7697,-388.5987C848.1038,-378.1143 845.9426,-364.5133 843.9081,-351.7095"/>
<polygon fill="#000000" stroke="#000000" points="847.3415,-351.0136 842.3155,-341.6868 840.4283,-352.1121 847.3415,-351.0136"/>
</g>
<!-- 18 -->
<g id="node33" class="node">
<title>18</title>
<polygon fill="#c1b2ff" stroke="#c1b2ff" points="997.9863,-341.8014 905.3375,-341.8014 905.3375,-282.9986 997.9863,-282.9986 997.9863,-341.8014"/>
<text text-anchor="middle" x="951.6619" y="-325" font-family="Times,serif" font-size="14.00" fill="#000000">size = &#160;10 </text>
<text text-anchor="middle" x="951.6619" y="-308.2" font-family="Times,serif" font-size="14.00" fill="#000000"> avg_Y = 0.3</text>
<text text-anchor="middle" x="951.6619" y="-291.4" font-family="Times,serif" font-size="14.00" fill="#000000">avg_W = 0.4 </text>
</g>
<!-- 10&#45;&gt;18 -->
<g id="edge32" class="edge">
<title>10&#45;&gt;18</title>
<path fill="none" stroke="#000000" d="M871.7501,-388.5987C883.6163,-377.2839 899.2893,-362.3391 913.6099,-348.6839"/>
<polygon fill="#000000" stroke="#000000" points="916.1261,-351.1208 920.948,-341.6868 911.2955,-346.0547 916.1261,-351.1208"/>
</g>
</g>
</svg>
