<?xml version="1.0" encoding="UTF-8" standalone="no"?>
<!DOCTYPE svg PUBLIC "-//W3C//DTD SVG 1.1//EN"
 "http://www.w3.org/Graphics/SVG/1.1/DTD/svg11.dtd">
<!-- Generated by graphviz version 2.40.1 (20161225.0304)
 -->
<!-- Title: nodes Pages: 1 -->
<svg width="883pt" height="814pt"
 viewBox="0.00 0.00 882.69 814.40" xmlns="http://www.w3.org/2000/svg" xmlns:xlink="http://www.w3.org/1999/xlink">
<g id="graph0" class="graph" transform="scale(1 1) rotate(0) translate(4 810.4)">
<title>nodes</title>
<polygon fill="#ffffff" stroke="transparent" points="-4,4 -4,-810.4 878.695,-810.4 878.695,4 -4,4"/>
<!-- 0 -->
<g id="node1" class="node">
<title>0</title>
<polygon fill="none" stroke="#000000" points="735.7989,-806.4 670.8961,-806.4 670.8961,-770.4 735.7989,-770.4 735.7989,-806.4"/>
<text text-anchor="middle" x="703.3475" y="-784.2" font-family="Times,serif" font-size="14.00" fill="#000000"> fb &lt;= 0 </text>
</g>
<!-- 1 -->
<g id="node2" class="node">
<title>1</title>
<polygon fill="none" stroke="#000000" points="700.242,-731.6 602.453,-731.6 602.453,-695.6 700.242,-695.6 700.242,-731.6"/>
<text text-anchor="middle" x="651.3475" y="-709.4" font-family="Times,serif" font-size="14.00" fill="#000000"> loan &lt;= 5170 </text>
</g>
<!-- 0&#45;&gt;1 -->
<g id="edge1" class="edge">
<title>0&#45;&gt;1</title>
<path fill="none" stroke="#000000" d="M690.7598,-770.293C684.4829,-761.2639 676.7698,-750.169 669.8363,-740.1954"/>
<polygon fill="#000000" stroke="#000000" points="672.5815,-738.0125 663.9996,-731.7995 666.8339,-742.0082 672.5815,-738.0125"/>
<text text-anchor="middle" x="659.5752" y="-752.2049" font-family="Times,serif" font-size="14.00" fill="#000000">True</text>
</g>
<!-- 2 -->
<g id="node3" class="node">
<title>2</title>
<polygon fill="#c1b2ff" stroke="#c1b2ff" points="792.5431,-734.2019 718.1519,-734.2019 718.1519,-692.9981 792.5431,-692.9981 792.5431,-734.2019"/>
<text text-anchor="middle" x="755.3475" y="-717.8" font-family="Times,serif" font-size="14.00" fill="#000000">leaf node &#160;</text>
<text text-anchor="middle" x="755.3475" y="-701" font-family="Times,serif" font-size="14.00" fill="#000000">size = &#160;22 </text>
</g>
<!-- 0&#45;&gt;2 -->
<g id="edge2" class="edge">
<title>0&#45;&gt;2</title>
<path fill="none" stroke="#000000" d="M715.9352,-770.293C721.6885,-762.0172 728.6483,-752.0058 735.1084,-742.7132"/>
<polygon fill="#000000" stroke="#000000" points="738.0175,-744.6602 740.8518,-734.4515 732.2699,-740.6645 738.0175,-744.6602"/>
<text text-anchor="middle" x="745.2761" y="-754.8569" font-family="Times,serif" font-size="14.00" fill="#000000">False</text>
</g>
<!-- 3 -->
<g id="node4" class="node">
<title>3</title>
<polygon fill="none" stroke="#000000" points="648.242,-654 550.453,-654 550.453,-618 648.242,-618 648.242,-654"/>
<text text-anchor="middle" x="599.3475" y="-631.8" font-family="Times,serif" font-size="14.00" fill="#000000"> loan &lt;= 2190 </text>
</g>
<!-- 1&#45;&gt;3 -->
<g id="edge3" class="edge">
<title>1&#45;&gt;3</title>
<path fill="none" stroke="#000000" d="M639.0242,-695.2099C632.5483,-685.5458 624.4898,-673.5201 617.3303,-662.8359"/>
<polygon fill="#000000" stroke="#000000" points="620.0567,-660.6171 611.5823,-654.2581 614.2415,-664.5138 620.0567,-660.6171"/>
</g>
<!-- 4 -->
<g id="node5" class="node">
<title>4</title>
<polygon fill="#c1b2ff" stroke="#c1b2ff" points="740.5431,-656.6019 666.1519,-656.6019 666.1519,-615.3981 740.5431,-615.3981 740.5431,-656.6019"/>
<text text-anchor="middle" x="703.3475" y="-640.2" font-family="Times,serif" font-size="14.00" fill="#000000">leaf node &#160;</text>
<text text-anchor="middle" x="703.3475" y="-623.4" font-family="Times,serif" font-size="14.00" fill="#000000">size = &#160;15 </text>
</g>
<!-- 1&#45;&gt;4 -->
<g id="edge4" class="edge">
<title>1&#45;&gt;4</title>
<path fill="none" stroke="#000000" d="M663.6708,-695.2099C669.6638,-686.2664 677.0122,-675.3003 683.7491,-665.2468"/>
<polygon fill="#000000" stroke="#000000" points="686.8034,-666.9762 689.4626,-656.7205 680.9883,-663.0794 686.8034,-666.9762"/>
</g>
<!-- 5 -->
<g id="node6" class="node">
<title>5</title>
<polygon fill="none" stroke="#000000" points="588.242,-579.2 490.453,-579.2 490.453,-543.2 588.242,-543.2 588.242,-579.2"/>
<text text-anchor="middle" x="539.3475" y="-557" font-family="Times,serif" font-size="14.00" fill="#000000"> loan &lt;= 1770 </text>
</g>
<!-- 3&#45;&gt;5 -->
<g id="edge5" class="edge">
<title>3&#45;&gt;5</title>
<path fill="none" stroke="#000000" d="M584.8232,-617.893C577.5074,-608.7727 568.5009,-597.5446 560.4385,-587.4935"/>
<polygon fill="#000000" stroke="#000000" points="562.9334,-585.0101 553.946,-579.3995 557.473,-589.3901 562.9334,-585.0101"/>
</g>
<!-- 6 -->
<g id="node7" class="node">
<title>6</title>
<polygon fill="none" stroke="#000000" points="736.242,-579.2 638.453,-579.2 638.453,-543.2 736.242,-543.2 736.242,-579.2"/>
<text text-anchor="middle" x="687.3475" y="-557" font-family="Times,serif" font-size="14.00" fill="#000000"> loan &lt;= 3980 </text>
</g>
<!-- 3&#45;&gt;6 -->
<g id="edge6" class="edge">
<title>3&#45;&gt;6</title>
<path fill="none" stroke="#000000" d="M620.6498,-617.893C631.9161,-608.3167 645.9163,-596.4165 658.1768,-585.9951"/>
<polygon fill="#000000" stroke="#000000" points="660.5837,-588.5428 665.9363,-579.3995 656.0501,-583.2092 660.5837,-588.5428"/>
</g>
<!-- 7 -->
<g id="node8" class="node">
<title>7</title>
<polygon fill="none" stroke="#000000" points="441.5064,-504.4 311.1886,-504.4 311.1886,-468.4 441.5064,-468.4 441.5064,-504.4"/>
<text text-anchor="middle" x="376.3475" y="-482.2" font-family="Times,serif" font-size="14.00" fill="#000000"> makes.budget &lt;= 0 </text>
</g>
<!-- 5&#45;&gt;7 -->
<g id="edge7" class="edge">
<title>5&#45;&gt;7</title>
<path fill="none" stroke="#000000" d="M499.8897,-543.093C477.3485,-532.7489 448.8986,-519.6934 424.9836,-508.7189"/>
<polygon fill="#000000" stroke="#000000" points="426.2726,-505.4595 415.7241,-504.4697 423.353,-511.8216 426.2726,-505.4595"/>
</g>
<!-- 8 -->
<g id="node9" class="node">
<title>8</title>
<polygon fill="none" stroke="#000000" points="591.1688,-504.4 487.5262,-504.4 487.5262,-468.4 591.1688,-468.4 591.1688,-504.4"/>
<text text-anchor="middle" x="539.3475" y="-482.2" font-family="Times,serif" font-size="14.00" fill="#000000"> reminder &lt;= 0 </text>
</g>
<!-- 5&#45;&gt;8 -->
<g id="edge8" class="edge">
<title>5&#45;&gt;8</title>
<path fill="none" stroke="#000000" d="M539.3475,-543.093C539.3475,-534.6112 539.3475,-524.3062 539.3475,-514.8204"/>
<polygon fill="#000000" stroke="#000000" points="542.8476,-514.5995 539.3475,-504.5995 535.8476,-514.5995 542.8476,-514.5995"/>
</g>
<!-- 9 -->
<g id="node30" class="node">
<title>9</title>
<polygon fill="none" stroke="#000000" points="737.1838,-504.4 637.5112,-504.4 637.5112,-468.4 737.1838,-468.4 737.1838,-504.4"/>
<text text-anchor="middle" x="687.3475" y="-482.2" font-family="Times,serif" font-size="14.00" fill="#000000"> low.cost &lt;= 0 </text>
</g>
<!-- 6&#45;&gt;9 -->
<g id="edge29" class="edge">
<title>6&#45;&gt;9</title>
<path fill="none" stroke="#000000" d="M687.3475,-543.093C687.3475,-534.6112 687.3475,-524.3062 687.3475,-514.8204"/>
<polygon fill="#000000" stroke="#000000" points="690.8476,-514.5995 687.3475,-504.5995 683.8476,-514.5995 690.8476,-514.5995"/>
</g>
<!-- 10 -->
<g id="node31" class="node">
<title>10</title>
<polygon fill="#c1b2ff" stroke="#c1b2ff" points="829.5431,-507.0019 755.1519,-507.0019 755.1519,-465.7981 829.5431,-465.7981 829.5431,-507.0019"/>
<text text-anchor="middle" x="792.3475" y="-490.6" font-family="Times,serif" font-size="14.00" fill="#000000">leaf node &#160;</text>
<text text-anchor="middle" x="792.3475" y="-473.8" font-family="Times,serif" font-size="14.00" fill="#000000">size = &#160;15 </text>
</g>
<!-- 6&#45;&gt;10 -->
<g id="edge30" class="edge">
<title>6&#45;&gt;10</title>
<path fill="none" stroke="#000000" d="M712.7651,-543.093C725.3305,-534.1416 740.7462,-523.1598 754.6526,-513.2531"/>
<polygon fill="#000000" stroke="#000000" points="756.9634,-515.9043 763.0773,-507.2515 752.9019,-510.203 756.9634,-515.9043"/>
</g>
<!-- 11 -->
<g id="node10" class="node">
<title>11</title>
<polygon fill="none" stroke="#000000" points="288.951,-426.8 191.744,-426.8 191.744,-390.8 288.951,-390.8 288.951,-426.8"/>
<text text-anchor="middle" x="240.3475" y="-404.6" font-family="Times,serif" font-size="14.00" fill="#000000"> stressed &lt;= 0 </text>
</g>
<!-- 7&#45;&gt;11 -->
<g id="edge9" class="edge">
<title>7&#45;&gt;11</title>
<path fill="none" stroke="#000000" d="M344.4615,-468.2062C325.4491,-457.3579 301.1305,-443.482 280.7783,-431.8693"/>
<polygon fill="#000000" stroke="#000000" points="282.4539,-428.7957 272.0337,-426.8798 278.9847,-434.8757 282.4539,-428.7957"/>
</g>
<!-- 12 -->
<g id="node11" class="node">
<title>12</title>
<polygon fill="none" stroke="#000000" points="445.6799,-426.8 307.0151,-426.8 307.0151,-390.8 445.6799,-390.8 445.6799,-426.8"/>
<text text-anchor="middle" x="376.3475" y="-404.6" font-family="Times,serif" font-size="14.00" fill="#000000"> number.of.visit &lt;= 1 </text>
</g>
<!-- 7&#45;&gt;12 -->
<g id="edge10" class="edge">
<title>7&#45;&gt;12</title>
<path fill="none" stroke="#000000" d="M376.3475,-468.0099C376.3475,-458.829 376.3475,-447.5167 376.3475,-437.2482"/>
<polygon fill="#000000" stroke="#000000" points="379.8476,-437.0581 376.3475,-427.0581 372.8476,-437.0581 379.8476,-437.0581"/>
</g>
<!-- 13 -->
<g id="node28" class="node">
<title>13</title>
<polygon fill="#c1b2ff" stroke="#c1b2ff" points="538.5431,-429.4019 464.1519,-429.4019 464.1519,-388.1981 538.5431,-388.1981 538.5431,-429.4019"/>
<text text-anchor="middle" x="501.3475" y="-413" font-family="Times,serif" font-size="14.00" fill="#000000">leaf node &#160;</text>
<text text-anchor="middle" x="501.3475" y="-396.2" font-family="Times,serif" font-size="14.00" fill="#000000">size = &#160;14 </text>
</g>
<!-- 8&#45;&gt;13 -->
<g id="edge27" class="edge">
<title>8&#45;&gt;13</title>
<path fill="none" stroke="#000000" d="M530.342,-468.0099C526.051,-459.2471 520.8091,-448.5426 515.9683,-438.6572"/>
<polygon fill="#000000" stroke="#000000" points="519.0355,-436.9622 511.4941,-429.5205 512.7488,-440.0408 519.0355,-436.9622"/>
</g>
<!-- 14 -->
<g id="node29" class="node">
<title>14</title>
<polygon fill="#c1b2ff" stroke="#c1b2ff" points="631.5431,-429.4019 557.1519,-429.4019 557.1519,-388.1981 631.5431,-388.1981 631.5431,-429.4019"/>
<text text-anchor="middle" x="594.3475" y="-413" font-family="Times,serif" font-size="14.00" fill="#000000">leaf node &#160;</text>
<text text-anchor="middle" x="594.3475" y="-396.2" font-family="Times,serif" font-size="14.00" fill="#000000">size = &#160;6 </text>
</g>
<!-- 8&#45;&gt;14 -->
<g id="edge28" class="edge">
<title>8&#45;&gt;14</title>
<path fill="none" stroke="#000000" d="M552.3817,-468.0099C558.7846,-458.976 566.65,-447.8786 573.8342,-437.7424"/>
<polygon fill="#000000" stroke="#000000" points="576.7345,-439.703 579.6616,-429.5205 571.0235,-435.6552 576.7345,-439.703"/>
</g>
<!-- 17 -->
<g id="node12" class="node">
<title>17</title>
<polygon fill="none" stroke="#000000" points="206.5204,-349.2 104.1746,-349.2 104.1746,-313.2 206.5204,-313.2 206.5204,-349.2"/>
<text text-anchor="middle" x="155.3475" y="-327" font-family="Times,serif" font-size="14.00" fill="#000000"> low.time &lt;= 0 </text>
</g>
<!-- 11&#45;&gt;17 -->
<g id="edge11" class="edge">
<title>11&#45;&gt;17</title>
<path fill="none" stroke="#000000" d="M220.2037,-390.4099C209.0887,-380.2626 195.1218,-367.5116 182.9986,-356.4438"/>
<polygon fill="#000000" stroke="#000000" points="185.0918,-353.6156 175.3467,-349.4581 180.3722,-358.7853 185.0918,-353.6156"/>
</g>
<!-- 18 -->
<g id="node13" class="node">
<title>18</title>
<polygon fill="#c1b2ff" stroke="#c1b2ff" points="298.5431,-351.8019 224.1519,-351.8019 224.1519,-310.5981 298.5431,-310.5981 298.5431,-351.8019"/>
<text text-anchor="middle" x="261.3475" y="-335.4" font-family="Times,serif" font-size="14.00" fill="#000000">leaf node &#160;</text>
<text text-anchor="middle" x="261.3475" y="-318.6" font-family="Times,serif" font-size="14.00" fill="#000000">size = &#160;21 </text>
</g>
<!-- 11&#45;&gt;18 -->
<g id="edge12" class="edge">
<title>11&#45;&gt;18</title>
<path fill="none" stroke="#000000" d="M245.3242,-390.4099C247.6467,-381.8277 250.4732,-371.3832 253.1018,-361.6697"/>
<polygon fill="#000000" stroke="#000000" points="256.5063,-362.4876 255.7401,-351.9205 249.7494,-360.659 256.5063,-362.4876"/>
</g>
<!-- 19 -->
<g id="node18" class="node">
<title>19</title>
<polygon fill="none" stroke="#000000" points="388.637,-349.2 322.058,-349.2 322.058,-313.2 388.637,-313.2 388.637,-349.2"/>
<text text-anchor="middle" x="355.3475" y="-327" font-family="Times,serif" font-size="14.00" fill="#000000"> pb &lt;= 0 </text>
</g>
<!-- 12&#45;&gt;19 -->
<g id="edge17" class="edge">
<title>12&#45;&gt;19</title>
<path fill="none" stroke="#000000" d="M371.3708,-390.4099C368.8601,-381.1323 365.7605,-369.6783 362.9584,-359.3242"/>
<polygon fill="#000000" stroke="#000000" points="366.2793,-358.1966 360.2885,-349.4581 359.5223,-360.0252 366.2793,-358.1966"/>
</g>
<!-- 20 -->
<g id="node19" class="node">
<title>20</title>
<polygon fill="#c1b2ff" stroke="#c1b2ff" points="481.5431,-351.8019 407.1519,-351.8019 407.1519,-310.5981 481.5431,-310.5981 481.5431,-351.8019"/>
<text text-anchor="middle" x="444.3475" y="-335.4" font-family="Times,serif" font-size="14.00" fill="#000000">leaf node &#160;</text>
<text text-anchor="middle" x="444.3475" y="-318.6" font-family="Times,serif" font-size="14.00" fill="#000000">size = &#160;17 </text>
</g>
<!-- 12&#45;&gt;20 -->
<g id="edge18" class="edge">
<title>12&#45;&gt;20</title>
<path fill="none" stroke="#000000" d="M392.4626,-390.4099C400.5371,-381.1954 410.4931,-369.8339 419.5175,-359.5354"/>
<polygon fill="#000000" stroke="#000000" points="422.2321,-361.7482 426.1904,-351.9205 416.9674,-357.1348 422.2321,-361.7482"/>
</g>
<!-- 23 -->
<g id="node14" class="node">
<title>23</title>
<polygon fill="none" stroke="#000000" points="128.742,-271.6 37.953,-271.6 37.953,-235.6 128.742,-235.6 128.742,-271.6"/>
<text text-anchor="middle" x="83.3475" y="-249.4" font-family="Times,serif" font-size="14.00" fill="#000000"> loan &lt;= 990 </text>
</g>
<!-- 17&#45;&gt;23 -->
<g id="edge13" class="edge">
<title>17&#45;&gt;23</title>
<path fill="none" stroke="#000000" d="M138.2845,-312.8099C129.0488,-302.8558 117.4885,-290.3964 107.3581,-279.4781"/>
<polygon fill="#000000" stroke="#000000" points="109.6554,-276.8082 100.288,-271.8581 104.5239,-281.5693 109.6554,-276.8082"/>
</g>
<!-- 24 -->
<g id="node15" class="node">
<title>24</title>
<polygon fill="#c1b2ff" stroke="#c1b2ff" points="221.5431,-274.2019 147.1519,-274.2019 147.1519,-232.9981 221.5431,-232.9981 221.5431,-274.2019"/>
<text text-anchor="middle" x="184.3475" y="-257.8" font-family="Times,serif" font-size="14.00" fill="#000000">leaf node &#160;</text>
<text text-anchor="middle" x="184.3475" y="-241" font-family="Times,serif" font-size="14.00" fill="#000000">size = &#160;20 </text>
</g>
<!-- 17&#45;&gt;24 -->
<g id="edge14" class="edge">
<title>17&#45;&gt;24</title>
<path fill="none" stroke="#000000" d="M162.2201,-312.8099C165.4611,-304.1374 169.4128,-293.5631 173.0752,-283.7632"/>
<polygon fill="#000000" stroke="#000000" points="176.3818,-284.913 176.604,-274.3205 169.8248,-282.4625 176.3818,-284.913"/>
</g>
<!-- 27 -->
<g id="node16" class="node">
<title>27</title>
<polygon fill="#c1b2ff" stroke="#c1b2ff" points="74.5431,-196.6019 .1519,-196.6019 .1519,-155.3981 74.5431,-155.3981 74.5431,-196.6019"/>
<text text-anchor="middle" x="37.3475" y="-180.2" font-family="Times,serif" font-size="14.00" fill="#000000">leaf node &#160;</text>
<text text-anchor="middle" x="37.3475" y="-163.4" font-family="Times,serif" font-size="14.00" fill="#000000">size = &#160;21 </text>
</g>
<!-- 23&#45;&gt;27 -->
<g id="edge15" class="edge">
<title>23&#45;&gt;27</title>
<path fill="none" stroke="#000000" d="M72.4461,-235.2099C67.1981,-226.3567 60.7753,-215.5217 54.8653,-205.5517"/>
<polygon fill="#000000" stroke="#000000" points="57.7403,-203.538 49.6303,-196.7205 51.7188,-207.1075 57.7403,-203.538"/>
</g>
<!-- 28 -->
<g id="node17" class="node">
<title>28</title>
<polygon fill="#c1b2ff" stroke="#c1b2ff" points="167.5431,-196.6019 93.1519,-196.6019 93.1519,-155.3981 167.5431,-155.3981 167.5431,-196.6019"/>
<text text-anchor="middle" x="130.3475" y="-180.2" font-family="Times,serif" font-size="14.00" fill="#000000">leaf node &#160;</text>
<text text-anchor="middle" x="130.3475" y="-163.4" font-family="Times,serif" font-size="14.00" fill="#000000">size = &#160;8 </text>
</g>
<!-- 23&#45;&gt;28 -->
<g id="edge16" class="edge">
<title>23&#45;&gt;28</title>
<path fill="none" stroke="#000000" d="M94.4858,-235.2099C99.8479,-226.3567 106.4104,-215.5217 112.4489,-205.5517"/>
<polygon fill="#000000" stroke="#000000" points="115.6108,-207.0872 117.7977,-196.7205 109.6234,-203.4608 115.6108,-207.0872"/>
</g>
<!-- 25 -->
<g id="node20" class="node">
<title>25</title>
<polygon fill="none" stroke="#000000" points="375.242,-271.6 277.453,-271.6 277.453,-235.6 375.242,-235.6 375.242,-271.6"/>
<text text-anchor="middle" x="326.3475" y="-249.4" font-family="Times,serif" font-size="14.00" fill="#000000"> loan &lt;= 1490 </text>
</g>
<!-- 19&#45;&gt;25 -->
<g id="edge19" class="edge">
<title>19&#45;&gt;25</title>
<path fill="none" stroke="#000000" d="M348.4749,-312.8099C344.9717,-303.4357 340.638,-291.8395 336.7371,-281.401"/>
<polygon fill="#000000" stroke="#000000" points="339.95,-280.0001 333.1708,-271.8581 333.3929,-282.4506 339.95,-280.0001"/>
</g>
<!-- 26 -->
<g id="node21" class="node">
<title>26</title>
<polygon fill="#c1b2ff" stroke="#c1b2ff" points="467.5431,-274.2019 393.1519,-274.2019 393.1519,-232.9981 467.5431,-232.9981 467.5431,-274.2019"/>
<text text-anchor="middle" x="430.3475" y="-257.8" font-family="Times,serif" font-size="14.00" fill="#000000">leaf node &#160;</text>
<text text-anchor="middle" x="430.3475" y="-241" font-family="Times,serif" font-size="14.00" fill="#000000">size = &#160;15 </text>
</g>
<!-- 19&#45;&gt;26 -->
<g id="edge20" class="edge">
<title>19&#45;&gt;26</title>
<path fill="none" stroke="#000000" d="M373.1215,-312.8099C382.1146,-303.505 393.2236,-292.0109 403.2539,-281.6328"/>
<polygon fill="#000000" stroke="#000000" points="405.8883,-283.9434 410.3212,-274.3205 400.8549,-279.0787 405.8883,-283.9434"/>
</g>
<!-- 29 -->
<g id="node22" class="node">
<title>29</title>
<polygon fill="none" stroke="#000000" points="310.6329,-194 212.0621,-194 212.0621,-158 310.6329,-158 310.6329,-194"/>
<text text-anchor="middle" x="261.3475" y="-171.8" font-family="Times,serif" font-size="14.00" fill="#000000"> subj.pr &lt;= 80 </text>
</g>
<!-- 25&#45;&gt;29 -->
<g id="edge21" class="edge">
<title>25&#45;&gt;29</title>
<path fill="none" stroke="#000000" d="M310.9434,-235.2099C302.6866,-225.3525 292.3717,-213.0381 283.2905,-202.1965"/>
<polygon fill="#000000" stroke="#000000" points="285.7454,-199.6767 276.641,-194.2581 280.3792,-204.1716 285.7454,-199.6767"/>
</g>
<!-- 30 -->
<g id="node23" class="node">
<title>30</title>
<polygon fill="#c1b2ff" stroke="#c1b2ff" points="402.5431,-196.6019 328.1519,-196.6019 328.1519,-155.3981 402.5431,-155.3981 402.5431,-196.6019"/>
<text text-anchor="middle" x="365.3475" y="-180.2" font-family="Times,serif" font-size="14.00" fill="#000000">leaf node &#160;</text>
<text text-anchor="middle" x="365.3475" y="-163.4" font-family="Times,serif" font-size="14.00" fill="#000000">size = &#160;8 </text>
</g>
<!-- 25&#45;&gt;30 -->
<g id="edge22" class="edge">
<title>25&#45;&gt;30</title>
<path fill="none" stroke="#000000" d="M335.59,-235.2099C339.994,-226.4471 345.3738,-215.7426 350.342,-205.8572"/>
<polygon fill="#000000" stroke="#000000" points="353.5705,-207.2273 354.9338,-196.7205 347.316,-204.0838 353.5705,-207.2273"/>
</g>
<!-- 31 -->
<g id="node24" class="node">
<title>31</title>
<polygon fill="#c1b2ff" stroke="#c1b2ff" points="248.5431,-119.0019 174.1519,-119.0019 174.1519,-77.7981 248.5431,-77.7981 248.5431,-119.0019"/>
<text text-anchor="middle" x="211.3475" y="-102.6" font-family="Times,serif" font-size="14.00" fill="#000000">leaf node &#160;</text>
<text text-anchor="middle" x="211.3475" y="-85.8" font-family="Times,serif" font-size="14.00" fill="#000000">size = &#160;13 </text>
</g>
<!-- 29&#45;&gt;31 -->
<g id="edge23" class="edge">
<title>29&#45;&gt;31</title>
<path fill="none" stroke="#000000" d="M249.4982,-157.6099C243.7356,-148.6664 236.6699,-137.7003 230.1921,-127.6468"/>
<polygon fill="#000000" stroke="#000000" points="233.0569,-125.6309 224.6983,-119.1205 227.1726,-129.4224 233.0569,-125.6309"/>
</g>
<!-- 32 -->
<g id="node25" class="node">
<title>32</title>
<polygon fill="none" stroke="#000000" points="357.742,-116.4 266.953,-116.4 266.953,-80.4 357.742,-80.4 357.742,-116.4"/>
<text text-anchor="middle" x="312.3475" y="-94.2" font-family="Times,serif" font-size="14.00" fill="#000000"> loan &lt;= 880 </text>
</g>
<!-- 29&#45;&gt;32 -->
<g id="edge24" class="edge">
<title>29&#45;&gt;32</title>
<path fill="none" stroke="#000000" d="M273.4338,-157.6099C279.7852,-147.9458 287.6887,-135.9201 294.7105,-125.2359"/>
<polygon fill="#000000" stroke="#000000" points="297.7806,-126.9372 300.348,-116.6581 291.9308,-123.0926 297.7806,-126.9372"/>
</g>
<!-- 33 -->
<g id="node26" class="node">
<title>33</title>
<polygon fill="#c1b2ff" stroke="#c1b2ff" points="302.5431,-41.4019 228.1519,-41.4019 228.1519,-.1981 302.5431,-.1981 302.5431,-41.4019"/>
<text text-anchor="middle" x="265.3475" y="-25" font-family="Times,serif" font-size="14.00" fill="#000000">leaf node &#160;</text>
<text text-anchor="middle" x="265.3475" y="-8.2" font-family="Times,serif" font-size="14.00" fill="#000000">size = &#160;33 </text>
</g>
<!-- 32&#45;&gt;33 -->
<g id="edge25" class="edge">
<title>32&#45;&gt;33</title>
<path fill="none" stroke="#000000" d="M301.2092,-80.0099C295.8471,-71.1567 289.2846,-60.3217 283.2461,-50.3517"/>
<polygon fill="#000000" stroke="#000000" points="286.0716,-48.2608 277.8973,-41.5205 280.0842,-51.8872 286.0716,-48.2608"/>
</g>
<!-- 34 -->
<g id="node27" class="node">
<title>34</title>
<polygon fill="#c1b2ff" stroke="#c1b2ff" points="395.5431,-41.4019 321.1519,-41.4019 321.1519,-.1981 395.5431,-.1981 395.5431,-41.4019"/>
<text text-anchor="middle" x="358.3475" y="-25" font-family="Times,serif" font-size="14.00" fill="#000000">leaf node &#160;</text>
<text text-anchor="middle" x="358.3475" y="-8.2" font-family="Times,serif" font-size="14.00" fill="#000000">size = &#160;28 </text>
</g>
<!-- 32&#45;&gt;34 -->
<g id="edge26" class="edge">
<title>32&#45;&gt;34</title>
<path fill="none" stroke="#000000" d="M323.2489,-80.0099C328.4969,-71.1567 334.9197,-60.3217 340.8297,-50.3517"/>
<polygon fill="#000000" stroke="#000000" points="343.9762,-51.9075 346.0647,-41.5205 337.9547,-48.338 343.9762,-51.9075"/>
</g>
<!-- 15 -->
<g id="node32" class="node">
<title>15</title>
<polygon fill="#c1b2ff" stroke="#c1b2ff" points="724.5431,-429.4019 650.1519,-429.4019 650.1519,-388.1981 724.5431,-388.1981 724.5431,-429.4019"/>
<text text-anchor="middle" x="687.3475" y="-413" font-family="Times,serif" font-size="14.00" fill="#000000">leaf node &#160;</text>
<text text-anchor="middle" x="687.3475" y="-396.2" font-family="Times,serif" font-size="14.00" fill="#000000">size = &#160;31 </text>
</g>
<!-- 9&#45;&gt;15 -->
<g id="edge31" class="edge">
<title>9&#45;&gt;15</title>
<path fill="none" stroke="#000000" d="M687.3475,-468.0099C687.3475,-459.5181 687.3475,-449.2029 687.3475,-439.5766"/>
<polygon fill="#000000" stroke="#000000" points="690.8476,-439.5205 687.3475,-429.5205 683.8476,-439.5205 690.8476,-439.5205"/>
</g>
<!-- 16 -->
<g id="node33" class="node">
<title>16</title>
<polygon fill="none" stroke="#000000" points="840.242,-426.8 742.453,-426.8 742.453,-390.8 840.242,-390.8 840.242,-426.8"/>
<text text-anchor="middle" x="791.3475" y="-404.6" font-family="Times,serif" font-size="14.00" fill="#000000"> loan &lt;= 2910 </text>
</g>
<!-- 9&#45;&gt;16 -->
<g id="edge32" class="edge">
<title>9&#45;&gt;16</title>
<path fill="none" stroke="#000000" d="M711.7309,-468.2062C725.8135,-457.6985 743.7029,-444.3502 758.9555,-432.9694"/>
<polygon fill="#000000" stroke="#000000" points="761.1952,-435.6652 767.1169,-426.8798 757.009,-430.0549 761.1952,-435.6652"/>
</g>
<!-- 21 -->
<g id="node34" class="node">
<title>21</title>
<polygon fill="#c1b2ff" stroke="#c1b2ff" points="781.5431,-351.8019 707.1519,-351.8019 707.1519,-310.5981 781.5431,-310.5981 781.5431,-351.8019"/>
<text text-anchor="middle" x="744.3475" y="-335.4" font-family="Times,serif" font-size="14.00" fill="#000000">leaf node &#160;</text>
<text text-anchor="middle" x="744.3475" y="-318.6" font-family="Times,serif" font-size="14.00" fill="#000000">size = &#160;19 </text>
</g>
<!-- 16&#45;&gt;21 -->
<g id="edge33" class="edge">
<title>16&#45;&gt;21</title>
<path fill="none" stroke="#000000" d="M780.2092,-390.4099C774.8471,-381.5567 768.2846,-370.7217 762.2461,-360.7517"/>
<polygon fill="#000000" stroke="#000000" points="765.0716,-358.6608 756.8973,-351.9205 759.0842,-362.2872 765.0716,-358.6608"/>
</g>
<!-- 22 -->
<g id="node35" class="node">
<title>22</title>
<polygon fill="#c1b2ff" stroke="#c1b2ff" points="874.5431,-351.8019 800.1519,-351.8019 800.1519,-310.5981 874.5431,-310.5981 874.5431,-351.8019"/>
<text text-anchor="middle" x="837.3475" y="-335.4" font-family="Times,serif" font-size="14.00" fill="#000000">leaf node &#160;</text>
<text text-anchor="middle" x="837.3475" y="-318.6" font-family="Times,serif" font-size="14.00" fill="#000000">size = &#160;10 </text>
</g>
<!-- 16&#45;&gt;22 -->
<g id="edge34" class="edge">
<title>16&#45;&gt;22</title>
<path fill="none" stroke="#000000" d="M802.2489,-390.4099C807.4969,-381.5567 813.9197,-370.7217 819.8297,-360.7517"/>
<polygon fill="#000000" stroke="#000000" points="822.9762,-362.3075 825.0647,-351.9205 816.9547,-358.738 822.9762,-362.3075"/>
</g>
</g>
</svg>
