<?xml version="1.0" encoding="UTF-8" standalone="no"?>
<!DOCTYPE svg PUBLIC "-//W3C//DTD SVG 1.1//EN"
 "http://www.w3.org/Graphics/SVG/1.1/DTD/svg11.dtd">
<!-- Generated by graphviz version 2.40.1 (20161225.0304)
 -->
<!-- Title: nodes Pages: 1 -->
<svg width="655pt" height="814pt"
 viewBox="0.00 0.00 654.69 814.40" xmlns="http://www.w3.org/2000/svg" xmlns:xlink="http://www.w3.org/1999/xlink">
<g id="graph0" class="graph" transform="scale(1 1) rotate(0) translate(4 810.4)">
<title>nodes</title>
<polygon fill="#ffffff" stroke="transparent" points="-4,4 -4,-810.4 650.695,-810.4 650.695,4 -4,4"/>
<!-- 0 -->
<g id="node1" class="node">
<title>0</title>
<polygon fill="none" stroke="#000000" points="546.9523,-806.4 421.7427,-806.4 421.7427,-770.4 546.9523,-770.4 546.9523,-806.4"/>
<text text-anchor="middle" x="484.3475" y="-784.2" font-family="Times,serif" font-size="14.00" fill="#000000"> prestamo &lt;= 4850 </text>
</g>
<!-- 1 -->
<g id="node2" class="node">
<title>1</title>
<polygon fill="none" stroke="#000000" points="490.0249,-731.6 356.6701,-731.6 356.6701,-695.6 490.0249,-695.6 490.0249,-731.6"/>
<text text-anchor="middle" x="423.3475" y="-709.4" font-family="Times,serif" font-size="14.00" fill="#000000"> dummy_dow3 &lt;= 0 </text>
</g>
<!-- 0&#45;&gt;1 -->
<g id="edge1" class="edge">
<title>0&#45;&gt;1</title>
<path fill="none" stroke="#000000" d="M469.5811,-770.293C462.0691,-761.0815 452.8035,-749.7199 444.5445,-739.5923"/>
<polygon fill="#000000" stroke="#000000" points="447.2217,-737.3372 438.1893,-731.7995 441.7969,-741.7612 447.2217,-737.3372"/>
<text text-anchor="middle" x="435.6619" y="-752.4714" font-family="Times,serif" font-size="14.00" fill="#000000">True</text>
</g>
<!-- 2 -->
<g id="node3" class="node">
<title>2</title>
<polygon fill="#c1b2ff" stroke="#c1b2ff" points="582.5431,-734.2019 508.1519,-734.2019 508.1519,-692.9981 582.5431,-692.9981 582.5431,-734.2019"/>
<text text-anchor="middle" x="545.3475" y="-717.8" font-family="Times,serif" font-size="14.00" fill="#000000">leaf node &#160;</text>
<text text-anchor="middle" x="545.3475" y="-701" font-family="Times,serif" font-size="14.00" fill="#000000">size = &#160;28 </text>
</g>
<!-- 0&#45;&gt;2 -->
<g id="edge2" class="edge">
<title>0&#45;&gt;2</title>
<path fill="none" stroke="#000000" d="M499.1139,-770.293C505.9318,-761.9328 514.194,-751.8013 521.8373,-742.4289"/>
<polygon fill="#000000" stroke="#000000" points="524.7353,-744.4132 528.3429,-734.4515 519.3105,-739.9892 524.7353,-744.4132"/>
<text text-anchor="middle" x="530.8704" y="-755.1234" font-family="Times,serif" font-size="14.00" fill="#000000">False</text>
</g>
<!-- 3 -->
<g id="node4" class="node">
<title>3</title>
<polygon fill="none" stroke="#000000" points="359.7266,-656.8 268.9684,-656.8 268.9684,-620.8 359.7266,-620.8 359.7266,-656.8"/>
<text text-anchor="middle" x="314.3475" y="-634.6" font-family="Times,serif" font-size="14.00" fill="#000000"> genero &lt;= 0 </text>
</g>
<!-- 1&#45;&gt;3 -->
<g id="edge3" class="edge">
<title>1&#45;&gt;3</title>
<path fill="none" stroke="#000000" d="M396.9616,-695.493C382.6082,-685.6431 364.672,-673.3346 349.1831,-662.7055"/>
<polygon fill="#000000" stroke="#000000" points="351.0938,-659.7719 340.8682,-656.9995 347.1331,-665.5436 351.0938,-659.7719"/>
</g>
<!-- 4 -->
<g id="node5" class="node">
<title>4</title>
<polygon fill="none" stroke="#000000" points="547.2378,-656.8 435.4572,-656.8 435.4572,-620.8 547.2378,-620.8 547.2378,-656.8"/>
<text text-anchor="middle" x="491.3475" y="-634.6" font-family="Times,serif" font-size="14.00" fill="#000000"> num_arms &lt;= 1 </text>
</g>
<!-- 1&#45;&gt;4 -->
<g id="edge4" class="edge">
<title>1&#45;&gt;4</title>
<path fill="none" stroke="#000000" d="M439.8084,-695.493C448.2654,-686.1903 458.716,-674.6947 467.9912,-664.4919"/>
<polygon fill="#000000" stroke="#000000" points="470.6655,-666.7533 474.8025,-656.9995 465.4859,-662.0446 470.6655,-666.7533"/>
</g>
<!-- 5 -->
<g id="node6" class="node">
<title>5</title>
<polygon fill="none" stroke="#000000" points="198.5662,-582 112.1288,-582 112.1288,-546 198.5662,-546 198.5662,-582"/>
<text text-anchor="middle" x="155.3475" y="-559.8" font-family="Times,serif" font-size="14.00" fill="#000000"> edad &lt;= 30 </text>
</g>
<!-- 3&#45;&gt;5 -->
<g id="edge5" class="edge">
<title>3&#45;&gt;5</title>
<path fill="none" stroke="#000000" d="M275.858,-620.693C253.9672,-610.3947 226.3637,-597.4089 203.1,-586.4647"/>
<polygon fill="#000000" stroke="#000000" points="204.2964,-583.1596 193.7578,-582.0697 201.3165,-589.4937 204.2964,-583.1596"/>
</g>
<!-- 6 -->
<g id="node7" class="node">
<title>6</title>
<polygon fill="none" stroke="#000000" points="368.8881,-582 259.8069,-582 259.8069,-546 368.8881,-546 368.8881,-582"/>
<text text-anchor="middle" x="314.3475" y="-559.8" font-family="Times,serif" font-size="14.00" fill="#000000"> pr_recup &lt;= 50 </text>
</g>
<!-- 3&#45;&gt;6 -->
<g id="edge6" class="edge">
<title>3&#45;&gt;6</title>
<path fill="none" stroke="#000000" d="M314.3475,-620.693C314.3475,-612.2112 314.3475,-601.9062 314.3475,-592.4204"/>
<polygon fill="#000000" stroke="#000000" points="317.8476,-592.1995 314.3475,-582.1995 310.8476,-592.1995 317.8476,-592.1995"/>
</g>
<!-- 7 -->
<g id="node28" class="node">
<title>7</title>
<polygon fill="none" stroke="#000000" points="553.9523,-582 428.7427,-582 428.7427,-546 553.9523,-546 553.9523,-582"/>
<text text-anchor="middle" x="491.3475" y="-559.8" font-family="Times,serif" font-size="14.00" fill="#000000"> prestamo &lt;= 1460 </text>
</g>
<!-- 4&#45;&gt;7 -->
<g id="edge27" class="edge">
<title>4&#45;&gt;7</title>
<path fill="none" stroke="#000000" d="M491.3475,-620.693C491.3475,-612.2112 491.3475,-601.9062 491.3475,-592.4204"/>
<polygon fill="#000000" stroke="#000000" points="494.8476,-592.1995 491.3475,-582.1995 487.8476,-592.1995 494.8476,-592.1995"/>
</g>
<!-- 8 -->
<g id="node29" class="node">
<title>8</title>
<polygon fill="#c1b2ff" stroke="#c1b2ff" points="646.5431,-584.6019 572.1519,-584.6019 572.1519,-543.3981 646.5431,-543.3981 646.5431,-584.6019"/>
<text text-anchor="middle" x="609.3475" y="-568.2" font-family="Times,serif" font-size="14.00" fill="#000000">leaf node &#160;</text>
<text text-anchor="middle" x="609.3475" y="-551.4" font-family="Times,serif" font-size="14.00" fill="#000000">size = &#160;11 </text>
</g>
<!-- 4&#45;&gt;8 -->
<g id="edge28" class="edge">
<title>4&#45;&gt;8</title>
<path fill="none" stroke="#000000" d="M519.912,-620.693C534.2996,-611.5727 552.0124,-600.3446 567.8684,-590.2935"/>
<polygon fill="#000000" stroke="#000000" points="569.8813,-593.1616 576.4534,-584.8515 566.1335,-587.2494 569.8813,-593.1616"/>
</g>
<!-- 9 -->
<g id="node8" class="node">
<title>9</title>
<polygon fill="#c1b2ff" stroke="#c1b2ff" points="74.5431,-507.0019 .1519,-507.0019 .1519,-465.7981 74.5431,-465.7981 74.5431,-507.0019"/>
<text text-anchor="middle" x="37.3475" y="-490.6" font-family="Times,serif" font-size="14.00" fill="#000000">leaf node &#160;</text>
<text text-anchor="middle" x="37.3475" y="-473.8" font-family="Times,serif" font-size="14.00" fill="#000000">size = &#160;9 </text>
</g>
<!-- 5&#45;&gt;9 -->
<g id="edge7" class="edge">
<title>5&#45;&gt;9</title>
<path fill="none" stroke="#000000" d="M127.6817,-545.8062C112.7156,-535.9641 93.9601,-523.63 77.4231,-512.7548"/>
<polygon fill="#000000" stroke="#000000" points="79.2877,-509.792 69.0093,-507.2217 75.4414,-515.6407 79.2877,-509.792"/>
</g>
<!-- 10 -->
<g id="node9" class="node">
<title>10</title>
<polygon fill="none" stroke="#000000" points="217.9523,-504.4 92.7427,-504.4 92.7427,-468.4 217.9523,-468.4 217.9523,-504.4"/>
<text text-anchor="middle" x="155.3475" y="-482.2" font-family="Times,serif" font-size="14.00" fill="#000000"> prestamo &lt;= 1600 </text>
</g>
<!-- 5&#45;&gt;10 -->
<g id="edge8" class="edge">
<title>5&#45;&gt;10</title>
<path fill="none" stroke="#000000" d="M155.3475,-545.6099C155.3475,-536.429 155.3475,-525.1167 155.3475,-514.8482"/>
<polygon fill="#000000" stroke="#000000" points="158.8476,-514.6581 155.3475,-504.6581 151.8476,-514.6581 158.8476,-514.6581"/>
</g>
<!-- 11 -->
<g id="node12" class="node">
<title>11</title>
<polygon fill="#c1b2ff" stroke="#c1b2ff" points="310.5431,-507.0019 236.1519,-507.0019 236.1519,-465.7981 310.5431,-465.7981 310.5431,-507.0019"/>
<text text-anchor="middle" x="273.3475" y="-490.6" font-family="Times,serif" font-size="14.00" fill="#000000">leaf node &#160;</text>
<text text-anchor="middle" x="273.3475" y="-473.8" font-family="Times,serif" font-size="14.00" fill="#000000">size = &#160;8 </text>
</g>
<!-- 6&#45;&gt;11 -->
<g id="edge11" class="edge">
<title>6&#45;&gt;11</title>
<path fill="none" stroke="#000000" d="M304.6311,-545.6099C300.0012,-536.8471 294.3455,-526.1426 289.1226,-516.2572"/>
<polygon fill="#000000" stroke="#000000" points="292.0614,-514.3272 284.2952,-507.1205 285.8722,-517.5973 292.0614,-514.3272"/>
</g>
<!-- 12 -->
<g id="node13" class="node">
<title>12</title>
<polygon fill="none" stroke="#000000" points="435.7772,-504.4 328.9178,-504.4 328.9178,-468.4 435.7772,-468.4 435.7772,-504.4"/>
<text text-anchor="middle" x="382.3475" y="-482.2" font-family="Times,serif" font-size="14.00" fill="#000000"> cta_tanda &lt;= 0 </text>
</g>
<!-- 6&#45;&gt;12 -->
<g id="edge12" class="edge">
<title>6&#45;&gt;12</title>
<path fill="none" stroke="#000000" d="M330.4626,-545.6099C339.1852,-535.6558 350.1032,-523.1964 359.6708,-512.2781"/>
<polygon fill="#000000" stroke="#000000" points="362.3899,-514.4858 366.3481,-504.6581 357.1252,-509.8724 362.3899,-514.4858"/>
</g>
<!-- 15 -->
<g id="node10" class="node">
<title>15</title>
<polygon fill="#c1b2ff" stroke="#c1b2ff" points="146.5431,-429.4019 72.1519,-429.4019 72.1519,-388.1981 146.5431,-388.1981 146.5431,-429.4019"/>
<text text-anchor="middle" x="109.3475" y="-413" font-family="Times,serif" font-size="14.00" fill="#000000">leaf node &#160;</text>
<text text-anchor="middle" x="109.3475" y="-396.2" font-family="Times,serif" font-size="14.00" fill="#000000">size = &#160;17 </text>
</g>
<!-- 10&#45;&gt;15 -->
<g id="edge9" class="edge">
<title>10&#45;&gt;15</title>
<path fill="none" stroke="#000000" d="M144.4461,-468.0099C139.1981,-459.1567 132.7753,-448.3217 126.8653,-438.3517"/>
<polygon fill="#000000" stroke="#000000" points="129.7403,-436.338 121.6303,-429.5205 123.7188,-439.9075 129.7403,-436.338"/>
</g>
<!-- 16 -->
<g id="node11" class="node">
<title>16</title>
<polygon fill="#c1b2ff" stroke="#c1b2ff" points="239.5431,-429.4019 165.1519,-429.4019 165.1519,-388.1981 239.5431,-388.1981 239.5431,-429.4019"/>
<text text-anchor="middle" x="202.3475" y="-413" font-family="Times,serif" font-size="14.00" fill="#000000">leaf node &#160;</text>
<text text-anchor="middle" x="202.3475" y="-396.2" font-family="Times,serif" font-size="14.00" fill="#000000">size = &#160;16 </text>
</g>
<!-- 10&#45;&gt;16 -->
<g id="edge10" class="edge">
<title>10&#45;&gt;16</title>
<path fill="none" stroke="#000000" d="M166.4858,-468.0099C171.8479,-459.1567 178.4104,-448.3217 184.4489,-438.3517"/>
<polygon fill="#000000" stroke="#000000" points="187.6108,-439.8872 189.7977,-429.5205 181.6234,-436.2608 187.6108,-439.8872"/>
</g>
<!-- 17 -->
<g id="node14" class="node">
<title>17</title>
<polygon fill="none" stroke="#000000" points="372.4531,-426.8 272.2419,-426.8 272.2419,-390.8 372.4531,-390.8 372.4531,-426.8"/>
<text text-anchor="middle" x="322.3475" y="-404.6" font-family="Times,serif" font-size="14.00" fill="#000000"> faltas &lt;= 0.14 </text>
</g>
<!-- 12&#45;&gt;17 -->
<g id="edge13" class="edge">
<title>12&#45;&gt;17</title>
<path fill="none" stroke="#000000" d="M368.1283,-468.0099C360.5066,-458.1525 350.9852,-445.8381 342.6026,-434.9965"/>
<polygon fill="#000000" stroke="#000000" points="345.3503,-432.8283 336.4646,-427.0581 339.8126,-437.1101 345.3503,-432.8283"/>
</g>
<!-- 18 -->
<g id="node15" class="node">
<title>18</title>
<polygon fill="none" stroke="#000000" points="515.9523,-426.8 390.7427,-426.8 390.7427,-390.8 515.9523,-390.8 515.9523,-426.8"/>
<text text-anchor="middle" x="453.3475" y="-404.6" font-family="Times,serif" font-size="14.00" fill="#000000"> prestamo &lt;= 2310 </text>
</g>
<!-- 12&#45;&gt;18 -->
<g id="edge14" class="edge">
<title>12&#45;&gt;18</title>
<path fill="none" stroke="#000000" d="M399.1735,-468.0099C408.2809,-458.0558 419.6807,-445.5964 429.6704,-434.6781"/>
<polygon fill="#000000" stroke="#000000" points="432.4741,-436.7986 436.6423,-427.0581 427.3096,-432.0734 432.4741,-436.7986"/>
</g>
<!-- 19 -->
<g id="node16" class="node">
<title>19</title>
<polygon fill="none" stroke="#000000" points="275.9523,-349.2 150.7427,-349.2 150.7427,-313.2 275.9523,-313.2 275.9523,-349.2"/>
<text text-anchor="middle" x="213.3475" y="-327" font-family="Times,serif" font-size="14.00" fill="#000000"> prestamo &lt;= 1900 </text>
</g>
<!-- 17&#45;&gt;19 -->
<g id="edge15" class="edge">
<title>17&#45;&gt;19</title>
<path fill="none" stroke="#000000" d="M296.7918,-390.6062C282.0322,-380.0985 263.2827,-366.7502 247.2969,-355.3694"/>
<polygon fill="#000000" stroke="#000000" points="248.9194,-352.2282 238.743,-349.2798 244.8596,-357.9307 248.9194,-352.2282"/>
</g>
<!-- 20 -->
<g id="node17" class="node">
<title>20</title>
<polygon fill="#c1b2ff" stroke="#c1b2ff" points="368.5431,-351.8019 294.1519,-351.8019 294.1519,-310.5981 368.5431,-310.5981 368.5431,-351.8019"/>
<text text-anchor="middle" x="331.3475" y="-335.4" font-family="Times,serif" font-size="14.00" fill="#000000">leaf node &#160;</text>
<text text-anchor="middle" x="331.3475" y="-318.6" font-family="Times,serif" font-size="14.00" fill="#000000">size = &#160;14 </text>
</g>
<!-- 17&#45;&gt;20 -->
<g id="edge16" class="edge">
<title>17&#45;&gt;20</title>
<path fill="none" stroke="#000000" d="M324.4804,-390.4099C325.4652,-381.9181 326.6616,-371.6029 327.778,-361.9766"/>
<polygon fill="#000000" stroke="#000000" points="331.2689,-362.2572 328.9443,-351.9205 324.3155,-361.4507 331.2689,-362.2572"/>
</g>
<!-- 21 -->
<g id="node26" class="node">
<title>21</title>
<polygon fill="#c1b2ff" stroke="#c1b2ff" points="480.5431,-351.8019 406.1519,-351.8019 406.1519,-310.5981 480.5431,-310.5981 480.5431,-351.8019"/>
<text text-anchor="middle" x="443.3475" y="-335.4" font-family="Times,serif" font-size="14.00" fill="#000000">leaf node &#160;</text>
<text text-anchor="middle" x="443.3475" y="-318.6" font-family="Times,serif" font-size="14.00" fill="#000000">size = &#160;53 </text>
</g>
<!-- 18&#45;&gt;21 -->
<g id="edge25" class="edge">
<title>18&#45;&gt;21</title>
<path fill="none" stroke="#000000" d="M450.9776,-390.4099C449.8833,-381.9181 448.5541,-371.6029 447.3136,-361.9766"/>
<polygon fill="#000000" stroke="#000000" points="450.7671,-361.3911 446.0177,-351.9205 443.8245,-362.2859 450.7671,-361.3911"/>
</g>
<!-- 22 -->
<g id="node27" class="node">
<title>22</title>
<polygon fill="#c1b2ff" stroke="#c1b2ff" points="573.5431,-351.8019 499.1519,-351.8019 499.1519,-310.5981 573.5431,-310.5981 573.5431,-351.8019"/>
<text text-anchor="middle" x="536.3475" y="-335.4" font-family="Times,serif" font-size="14.00" fill="#000000">leaf node &#160;</text>
<text text-anchor="middle" x="536.3475" y="-318.6" font-family="Times,serif" font-size="14.00" fill="#000000">size = &#160;18 </text>
</g>
<!-- 18&#45;&gt;22 -->
<g id="edge26" class="edge">
<title>18&#45;&gt;22</title>
<path fill="none" stroke="#000000" d="M473.0173,-390.4099C483.0663,-381.0147 495.5026,-369.3875 506.6869,-358.9309"/>
<polygon fill="#000000" stroke="#000000" points="509.2707,-361.3066 514.1851,-351.9205 504.4901,-356.1933 509.2707,-361.3066"/>
</g>
<!-- 23 -->
<g id="node18" class="node">
<title>23</title>
<polygon fill="none" stroke="#000000" points="214.2378,-271.6 102.4572,-271.6 102.4572,-235.6 214.2378,-235.6 214.2378,-271.6"/>
<text text-anchor="middle" x="158.3475" y="-249.4" font-family="Times,serif" font-size="14.00" fill="#000000"> num_arms &lt;= 1 </text>
</g>
<!-- 19&#45;&gt;23 -->
<g id="edge17" class="edge">
<title>19&#45;&gt;23</title>
<path fill="none" stroke="#000000" d="M200.3133,-312.8099C193.3952,-303.0491 184.7697,-290.8793 177.1409,-280.1158"/>
<polygon fill="#000000" stroke="#000000" points="179.9262,-277.9928 171.2882,-271.8581 174.2152,-282.0406 179.9262,-277.9928"/>
</g>
<!-- 24 -->
<g id="node19" class="node">
<title>24</title>
<polygon fill="#c1b2ff" stroke="#c1b2ff" points="306.5431,-274.2019 232.1519,-274.2019 232.1519,-232.9981 306.5431,-232.9981 306.5431,-274.2019"/>
<text text-anchor="middle" x="269.3475" y="-257.8" font-family="Times,serif" font-size="14.00" fill="#000000">leaf node &#160;</text>
<text text-anchor="middle" x="269.3475" y="-241" font-family="Times,serif" font-size="14.00" fill="#000000">size = &#160;16 </text>
</g>
<!-- 19&#45;&gt;24 -->
<g id="edge18" class="edge">
<title>19&#45;&gt;24</title>
<path fill="none" stroke="#000000" d="M226.6187,-312.8099C233.138,-303.776 241.1465,-292.6786 248.4612,-282.5424"/>
<polygon fill="#000000" stroke="#000000" points="251.3808,-284.4777 254.3946,-274.3205 245.7045,-280.3814 251.3808,-284.4777"/>
</g>
<!-- 25 -->
<g id="node20" class="node">
<title>25</title>
<polygon fill="none" stroke="#000000" points="159.221,-194 47.474,-194 47.474,-158 159.221,-158 159.221,-194"/>
<text text-anchor="middle" x="103.3475" y="-171.8" font-family="Times,serif" font-size="14.00" fill="#000000"> pres_antes &lt;= 0 </text>
</g>
<!-- 23&#45;&gt;25 -->
<g id="edge19" class="edge">
<title>23&#45;&gt;25</title>
<path fill="none" stroke="#000000" d="M145.3133,-235.2099C138.3952,-225.4491 129.7697,-213.2793 122.1409,-202.5158"/>
<polygon fill="#000000" stroke="#000000" points="124.9262,-200.3928 116.2882,-194.2581 119.2152,-204.4406 124.9262,-200.3928"/>
</g>
<!-- 26 -->
<g id="node21" class="node">
<title>26</title>
<polygon fill="#c1b2ff" stroke="#c1b2ff" points="251.5431,-196.6019 177.1519,-196.6019 177.1519,-155.3981 251.5431,-155.3981 251.5431,-196.6019"/>
<text text-anchor="middle" x="214.3475" y="-180.2" font-family="Times,serif" font-size="14.00" fill="#000000">leaf node &#160;</text>
<text text-anchor="middle" x="214.3475" y="-163.4" font-family="Times,serif" font-size="14.00" fill="#000000">size = &#160;10 </text>
</g>
<!-- 23&#45;&gt;26 -->
<g id="edge20" class="edge">
<title>23&#45;&gt;26</title>
<path fill="none" stroke="#000000" d="M171.6187,-235.2099C178.138,-226.176 186.1465,-215.0786 193.4612,-204.9424"/>
<polygon fill="#000000" stroke="#000000" points="196.3808,-206.8777 199.3946,-196.7205 190.7045,-202.7814 196.3808,-206.8777"/>
</g>
<!-- 27 -->
<g id="node22" class="node">
<title>27</title>
<polygon fill="#c1b2ff" stroke="#c1b2ff" points="89.5431,-119.0019 15.1519,-119.0019 15.1519,-77.7981 89.5431,-77.7981 89.5431,-119.0019"/>
<text text-anchor="middle" x="52.3475" y="-102.6" font-family="Times,serif" font-size="14.00" fill="#000000">leaf node &#160;</text>
<text text-anchor="middle" x="52.3475" y="-85.8" font-family="Times,serif" font-size="14.00" fill="#000000">size = &#160;7 </text>
</g>
<!-- 25&#45;&gt;27 -->
<g id="edge21" class="edge">
<title>25&#45;&gt;27</title>
<path fill="none" stroke="#000000" d="M91.2612,-157.6099C85.3834,-148.6664 78.1763,-137.7003 71.569,-127.6468"/>
<polygon fill="#000000" stroke="#000000" points="74.3825,-125.555 65.9654,-119.1205 68.5327,-129.3996 74.3825,-125.555"/>
</g>
<!-- 28 -->
<g id="node23" class="node">
<title>28</title>
<polygon fill="none" stroke="#000000" points="201.3471,-116.4 107.3479,-116.4 107.3479,-80.4 201.3471,-80.4 201.3471,-116.4"/>
<text text-anchor="middle" x="154.3475" y="-94.2" font-family="Times,serif" font-size="14.00" fill="#000000"> tentado &lt;= 0 </text>
</g>
<!-- 25&#45;&gt;28 -->
<g id="edge22" class="edge">
<title>25&#45;&gt;28</title>
<path fill="none" stroke="#000000" d="M115.4338,-157.6099C121.7852,-147.9458 129.6887,-135.9201 136.7105,-125.2359"/>
<polygon fill="#000000" stroke="#000000" points="139.7806,-126.9372 142.348,-116.6581 133.9308,-123.0926 139.7806,-126.9372"/>
</g>
<!-- 29 -->
<g id="node24" class="node">
<title>29</title>
<polygon fill="#c1b2ff" stroke="#c1b2ff" points="144.5431,-41.4019 70.1519,-41.4019 70.1519,-.1981 144.5431,-.1981 144.5431,-41.4019"/>
<text text-anchor="middle" x="107.3475" y="-25" font-family="Times,serif" font-size="14.00" fill="#000000">leaf node &#160;</text>
<text text-anchor="middle" x="107.3475" y="-8.2" font-family="Times,serif" font-size="14.00" fill="#000000">size = &#160;10 </text>
</g>
<!-- 28&#45;&gt;29 -->
<g id="edge23" class="edge">
<title>28&#45;&gt;29</title>
<path fill="none" stroke="#000000" d="M143.2092,-80.0099C137.8471,-71.1567 131.2846,-60.3217 125.2461,-50.3517"/>
<polygon fill="#000000" stroke="#000000" points="128.0716,-48.2608 119.8973,-41.5205 122.0842,-51.8872 128.0716,-48.2608"/>
</g>
<!-- 30 -->
<g id="node25" class="node">
<title>30</title>
<polygon fill="#c1b2ff" stroke="#c1b2ff" points="237.5431,-41.4019 163.1519,-41.4019 163.1519,-.1981 237.5431,-.1981 237.5431,-41.4019"/>
<text text-anchor="middle" x="200.3475" y="-25" font-family="Times,serif" font-size="14.00" fill="#000000">leaf node &#160;</text>
<text text-anchor="middle" x="200.3475" y="-8.2" font-family="Times,serif" font-size="14.00" fill="#000000">size = &#160;16 </text>
</g>
<!-- 28&#45;&gt;30 -->
<g id="edge24" class="edge">
<title>28&#45;&gt;30</title>
<path fill="none" stroke="#000000" d="M165.2489,-80.0099C170.4969,-71.1567 176.9197,-60.3217 182.8297,-50.3517"/>
<polygon fill="#000000" stroke="#000000" points="185.9762,-51.9075 188.0647,-41.5205 179.9547,-48.338 185.9762,-51.9075"/>
</g>
<!-- 13 -->
<g id="node30" class="node">
<title>13</title>
<polygon fill="#c1b2ff" stroke="#c1b2ff" points="528.5431,-507.0019 454.1519,-507.0019 454.1519,-465.7981 528.5431,-465.7981 528.5431,-507.0019"/>
<text text-anchor="middle" x="491.3475" y="-490.6" font-family="Times,serif" font-size="14.00" fill="#000000">leaf node &#160;</text>
<text text-anchor="middle" x="491.3475" y="-473.8" font-family="Times,serif" font-size="14.00" fill="#000000">size = &#160;17 </text>
</g>
<!-- 7&#45;&gt;13 -->
<g id="edge29" class="edge">
<title>7&#45;&gt;13</title>
<path fill="none" stroke="#000000" d="M491.3475,-545.6099C491.3475,-537.1181 491.3475,-526.8029 491.3475,-517.1766"/>
<polygon fill="#000000" stroke="#000000" points="494.8476,-517.1205 491.3475,-507.1205 487.8476,-517.1205 494.8476,-517.1205"/>
</g>
<!-- 14 -->
<g id="node31" class="node">
<title>14</title>
<polygon fill="#c1b2ff" stroke="#c1b2ff" points="621.5431,-507.0019 547.1519,-507.0019 547.1519,-465.7981 621.5431,-465.7981 621.5431,-507.0019"/>
<text text-anchor="middle" x="584.3475" y="-490.6" font-family="Times,serif" font-size="14.00" fill="#000000">leaf node &#160;</text>
<text text-anchor="middle" x="584.3475" y="-473.8" font-family="Times,serif" font-size="14.00" fill="#000000">size = &#160;11 </text>
</g>
<!-- 7&#45;&gt;14 -->
<g id="edge30" class="edge">
<title>7&#45;&gt;14</title>
<path fill="none" stroke="#000000" d="M513.3872,-545.6099C524.8634,-536.034 539.1185,-524.1395 551.8347,-513.5289"/>
<polygon fill="#000000" stroke="#000000" points="554.0791,-516.2146 559.5149,-507.1205 549.5944,-510.8399 554.0791,-516.2146"/>
</g>
</g>
</svg>
