<?xml version="1.0" encoding="UTF-8" standalone="no"?>
<!DOCTYPE svg PUBLIC "-//W3C//DTD SVG 1.1//EN"
 "http://www.w3.org/Graphics/SVG/1.1/DTD/svg11.dtd">
<!-- Generated by graphviz version 2.40.1 (20161225.0304)
 -->
<!-- Title: nodes Pages: 1 -->
<svg width="1277pt" height="654pt"
 viewBox="0.00 0.00 1276.70 653.60" xmlns="http://www.w3.org/2000/svg" xmlns:xlink="http://www.w3.org/1999/xlink">
<g id="graph0" class="graph" transform="scale(1 1) rotate(0) translate(4 649.6)">
<title>nodes</title>
<polygon fill="#ffffff" stroke="transparent" points="-4,4 -4,-649.6 1272.695,-649.6 1272.695,4 -4,4"/>
<!-- 0 -->
<g id="node1" class="node">
<title>0</title>
<polygon fill="none" stroke="#000000" points="952.0249,-645.6 818.6701,-645.6 818.6701,-609.6 952.0249,-609.6 952.0249,-645.6"/>
<text text-anchor="middle" x="885.3475" y="-623.4" font-family="Times,serif" font-size="14.00" fill="#000000"> dummy_dow4 &lt;= 0 </text>
</g>
<!-- 1 -->
<g id="node2" class="node">
<title>1</title>
<polygon fill="none" stroke="#000000" points="849.9523,-573.6 724.7427,-573.6 724.7427,-537.6 849.9523,-537.6 849.9523,-573.6"/>
<text text-anchor="middle" x="787.3475" y="-551.4" font-family="Times,serif" font-size="14.00" fill="#000000"> prestamo &lt;= 2230 </text>
</g>
<!-- 0&#45;&gt;1 -->
<g id="edge1" class="edge">
<title>0&#45;&gt;1</title>
<path fill="none" stroke="#000000" d="M860.618,-609.4314C848.4313,-600.4779 833.5652,-589.5558 820.4163,-579.8955"/>
<polygon fill="#000000" stroke="#000000" points="822.2002,-576.863 812.0691,-573.7628 818.0557,-582.5042 822.2002,-576.863"/>
<text text-anchor="middle" x="815.8487" y="-594.2755" font-family="Times,serif" font-size="14.00" fill="#000000">True</text>
</g>
<!-- 2 -->
<g id="node3" class="node">
<title>2</title>
<polygon fill="none" stroke="#000000" points="1035.0208,-573.6 929.6742,-573.6 929.6742,-537.6 1035.0208,-537.6 1035.0208,-573.6"/>
<text text-anchor="middle" x="982.3475" y="-551.4" font-family="Times,serif" font-size="14.00" fill="#000000"> low_time &lt;= 0 </text>
</g>
<!-- 0&#45;&gt;2 -->
<g id="edge2" class="edge">
<title>0&#45;&gt;2</title>
<path fill="none" stroke="#000000" d="M909.8247,-609.4314C921.887,-600.4779 936.6015,-589.5558 949.6161,-579.8955"/>
<polygon fill="#000000" stroke="#000000" points="951.9345,-582.5335 957.8781,-573.7628 947.7623,-576.9127 951.9345,-582.5335"/>
<text text-anchor="middle" x="954.2197" y="-594.2937" font-family="Times,serif" font-size="14.00" fill="#000000">False</text>
</g>
<!-- 3 -->
<g id="node4" class="node">
<title>3</title>
<polygon fill="none" stroke="#000000" points="654.5083,-501.6 556.1867,-501.6 556.1867,-465.6 654.5083,-465.6 654.5083,-501.6"/>
<text text-anchor="middle" x="605.3475" y="-479.4" font-family="Times,serif" font-size="14.00" fill="#000000"> telefono &lt;= 0 </text>
</g>
<!-- 1&#45;&gt;3 -->
<g id="edge3" class="edge">
<title>1&#45;&gt;3</title>
<path fill="none" stroke="#000000" d="M741.4212,-537.4314C716.7552,-527.6734 686.1784,-515.577 660.2615,-505.3242"/>
<polygon fill="#000000" stroke="#000000" points="661.5299,-502.0621 650.9435,-501.638 658.9548,-508.5713 661.5299,-502.0621"/>
</g>
<!-- 4 -->
<g id="node5" class="node">
<title>4</title>
<polygon fill="none" stroke="#000000" points="830.5662,-501.6 744.1288,-501.6 744.1288,-465.6 830.5662,-465.6 830.5662,-501.6"/>
<text text-anchor="middle" x="787.3475" y="-479.4" font-family="Times,serif" font-size="14.00" fill="#000000"> edad &lt;= 52 </text>
</g>
<!-- 1&#45;&gt;4 -->
<g id="edge4" class="edge">
<title>1&#45;&gt;4</title>
<path fill="none" stroke="#000000" d="M787.3475,-537.4314C787.3475,-529.731 787.3475,-520.5743 787.3475,-512.0166"/>
<polygon fill="#000000" stroke="#000000" points="790.8476,-512.0132 787.3475,-502.0133 783.8476,-512.0133 790.8476,-512.0132"/>
</g>
<!-- 5 -->
<g id="node34" class="node">
<title>5</title>
<polygon fill="none" stroke="#000000" points="1035.0082,-501.6 929.6868,-501.6 929.6868,-465.6 1035.0082,-465.6 1035.0082,-501.6"/>
<text text-anchor="middle" x="982.3475" y="-479.4" font-family="Times,serif" font-size="14.00" fill="#000000"> fam_pide &lt;= 0 </text>
</g>
<!-- 2&#45;&gt;5 -->
<g id="edge33" class="edge">
<title>2&#45;&gt;5</title>
<path fill="none" stroke="#000000" d="M982.3475,-537.4314C982.3475,-529.731 982.3475,-520.5743 982.3475,-512.0166"/>
<polygon fill="#000000" stroke="#000000" points="985.8476,-512.0132 982.3475,-502.0133 978.8476,-512.0133 985.8476,-512.0132"/>
</g>
<!-- 6 -->
<g id="node35" class="node">
<title>6</title>
<polygon fill="none" stroke="#000000" points="1192.8881,-501.6 1083.8069,-501.6 1083.8069,-465.6 1192.8881,-465.6 1192.8881,-501.6"/>
<text text-anchor="middle" x="1138.3475" y="-479.4" font-family="Times,serif" font-size="14.00" fill="#000000"> pr_recup &lt;= 90 </text>
</g>
<!-- 2&#45;&gt;6 -->
<g id="edge34" class="edge">
<title>2&#45;&gt;6</title>
<path fill="none" stroke="#000000" d="M1021.7129,-537.4314C1042.4842,-527.8446 1068.1458,-516.0008 1090.1056,-505.8655"/>
<polygon fill="#000000" stroke="#000000" points="1091.6523,-509.0065 1099.2652,-501.638 1088.7189,-502.6508 1091.6523,-509.0065"/>
</g>
<!-- 7 -->
<g id="node6" class="node">
<title>7</title>
<polygon fill="none" stroke="#000000" points="501.0249,-426.8 367.6701,-426.8 367.6701,-390.8 501.0249,-390.8 501.0249,-426.8"/>
<text text-anchor="middle" x="434.3475" y="-404.6" font-family="Times,serif" font-size="14.00" fill="#000000"> dummy_dow1 &lt;= 0 </text>
</g>
<!-- 3&#45;&gt;7 -->
<g id="edge5" class="edge">
<title>3&#45;&gt;7</title>
<path fill="none" stroke="#000000" d="M563.9532,-465.493C540.201,-455.1032 510.1951,-441.9778 485.0379,-430.9733"/>
<polygon fill="#000000" stroke="#000000" points="486.2212,-427.6708 475.6566,-426.8697 483.4158,-434.0841 486.2212,-427.6708"/>
</g>
<!-- 8 -->
<g id="node7" class="node">
<title>8</title>
<polygon fill="none" stroke="#000000" points="658.0208,-426.8 552.6742,-426.8 552.6742,-390.8 658.0208,-390.8 658.0208,-426.8"/>
<text text-anchor="middle" x="605.3475" y="-404.6" font-family="Times,serif" font-size="14.00" fill="#000000"> low_time &lt;= 0 </text>
</g>
<!-- 3&#45;&gt;8 -->
<g id="edge6" class="edge">
<title>3&#45;&gt;8</title>
<path fill="none" stroke="#000000" d="M605.3475,-465.493C605.3475,-457.0112 605.3475,-446.7062 605.3475,-437.2204"/>
<polygon fill="#000000" stroke="#000000" points="608.8476,-436.9995 605.3475,-426.9995 601.8476,-436.9995 608.8476,-436.9995"/>
</g>
<!-- 9 -->
<g id="node26" class="node">
<title>9</title>
<polygon fill="none" stroke="#000000" points="803.6174,-426.8 709.0776,-426.8 709.0776,-390.8 803.6174,-390.8 803.6174,-426.8"/>
<text text-anchor="middle" x="756.3475" y="-404.6" font-family="Times,serif" font-size="14.00" fill="#000000"> ahorros &lt;= 0 </text>
</g>
<!-- 4&#45;&gt;9 -->
<g id="edge25" class="edge">
<title>4&#45;&gt;9</title>
<path fill="none" stroke="#000000" d="M779.8433,-465.493C776.2147,-456.7375 771.781,-446.0395 767.7467,-436.3051"/>
<polygon fill="#000000" stroke="#000000" points="770.9521,-434.8975 763.8901,-426.9995 764.4854,-437.5776 770.9521,-434.8975"/>
</g>
<!-- 10 -->
<g id="node27" class="node">
<title>10</title>
<polygon fill="#c1b2ff" stroke="#c1b2ff" points="896.5431,-429.4019 822.1519,-429.4019 822.1519,-388.1981 896.5431,-388.1981 896.5431,-429.4019"/>
<text text-anchor="middle" x="859.3475" y="-413" font-family="Times,serif" font-size="14.00" fill="#000000">leaf node &#160;</text>
<text text-anchor="middle" x="859.3475" y="-396.2" font-family="Times,serif" font-size="14.00" fill="#000000">size = &#160;22 </text>
</g>
<!-- 4&#45;&gt;10 -->
<g id="edge26" class="edge">
<title>4&#45;&gt;10</title>
<path fill="none" stroke="#000000" d="M804.7767,-465.493C812.9866,-456.9639 822.9709,-446.5913 832.1436,-437.0618"/>
<polygon fill="#000000" stroke="#000000" points="834.8632,-439.2834 839.2765,-429.6515 829.8199,-434.4289 834.8632,-439.2834"/>
</g>
<!-- 15 -->
<g id="node8" class="node">
<title>15</title>
<polygon fill="none" stroke="#000000" points="378.7772,-349.2 271.9178,-349.2 271.9178,-313.2 378.7772,-313.2 378.7772,-349.2"/>
<text text-anchor="middle" x="325.3475" y="-327" font-family="Times,serif" font-size="14.00" fill="#000000"> cta_tanda &lt;= 0 </text>
</g>
<!-- 7&#45;&gt;15 -->
<g id="edge7" class="edge">
<title>7&#45;&gt;15</title>
<path fill="none" stroke="#000000" d="M408.7918,-390.6062C394.0322,-380.0985 375.2827,-366.7502 359.2969,-355.3694"/>
<polygon fill="#000000" stroke="#000000" points="360.9194,-352.2282 350.743,-349.2798 356.8596,-357.9307 360.9194,-352.2282"/>
</g>
<!-- 16 -->
<g id="node9" class="node">
<title>16</title>
<polygon fill="#c1b2ff" stroke="#c1b2ff" points="471.5431,-351.8019 397.1519,-351.8019 397.1519,-310.5981 471.5431,-310.5981 471.5431,-351.8019"/>
<text text-anchor="middle" x="434.3475" y="-335.4" font-family="Times,serif" font-size="14.00" fill="#000000">leaf node &#160;</text>
<text text-anchor="middle" x="434.3475" y="-318.6" font-family="Times,serif" font-size="14.00" fill="#000000">size = &#160;25 </text>
</g>
<!-- 7&#45;&gt;16 -->
<g id="edge8" class="edge">
<title>7&#45;&gt;16</title>
<path fill="none" stroke="#000000" d="M434.3475,-390.4099C434.3475,-381.9181 434.3475,-371.6029 434.3475,-361.9766"/>
<polygon fill="#000000" stroke="#000000" points="437.8476,-361.9205 434.3475,-351.9205 430.8476,-361.9205 437.8476,-361.9205"/>
</g>
<!-- 17 -->
<g id="node22" class="node">
<title>17</title>
<polygon fill="none" stroke="#000000" points="583.0465,-349.2 489.6485,-349.2 489.6485,-313.2 583.0465,-313.2 583.0465,-349.2"/>
<text text-anchor="middle" x="536.3475" y="-327" font-family="Times,serif" font-size="14.00" fill="#000000"> rec_cel &lt;= 0 </text>
</g>
<!-- 8&#45;&gt;17 -->
<g id="edge21" class="edge">
<title>8&#45;&gt;17</title>
<path fill="none" stroke="#000000" d="M588.9955,-390.4099C580.1446,-380.4558 569.0659,-367.9964 559.3577,-357.0781"/>
<polygon fill="#000000" stroke="#000000" points="561.8426,-354.6055 552.5822,-349.4581 556.6115,-359.2569 561.8426,-354.6055"/>
</g>
<!-- 18 -->
<g id="node23" class="node">
<title>18</title>
<polygon fill="#c1b2ff" stroke="#c1b2ff" points="675.5431,-351.8019 601.1519,-351.8019 601.1519,-310.5981 675.5431,-310.5981 675.5431,-351.8019"/>
<text text-anchor="middle" x="638.3475" y="-335.4" font-family="Times,serif" font-size="14.00" fill="#000000">leaf node &#160;</text>
<text text-anchor="middle" x="638.3475" y="-318.6" font-family="Times,serif" font-size="14.00" fill="#000000">size = &#160;14 </text>
</g>
<!-- 8&#45;&gt;18 -->
<g id="edge22" class="edge">
<title>8&#45;&gt;18</title>
<path fill="none" stroke="#000000" d="M613.168,-390.4099C616.8561,-381.7374 621.3529,-371.1631 625.5204,-361.3632"/>
<polygon fill="#000000" stroke="#000000" points="628.8433,-362.4927 629.5359,-351.9205 622.4016,-359.7532 628.8433,-362.4927"/>
</g>
<!-- 21 -->
<g id="node10" class="node">
<title>21</title>
<polygon fill="none" stroke="#000000" points="269.9524,-271.6 186.7426,-271.6 186.7426,-235.6 269.9524,-235.6 269.9524,-271.6"/>
<text text-anchor="middle" x="228.3475" y="-249.4" font-family="Times,serif" font-size="14.00" fill="#000000"> faltas &lt;= 0 </text>
</g>
<!-- 15&#45;&gt;21 -->
<g id="edge9" class="edge">
<title>15&#45;&gt;21</title>
<path fill="none" stroke="#000000" d="M302.3599,-312.8099C289.4341,-302.4693 273.1286,-289.4249 259.1141,-278.2133"/>
<polygon fill="#000000" stroke="#000000" points="261.1653,-275.3721 251.1701,-271.8581 256.7924,-280.8381 261.1653,-275.3721"/>
</g>
<!-- 22 -->
<g id="node11" class="node">
<title>22</title>
<polygon fill="none" stroke="#000000" points="374.5662,-271.6 288.1288,-271.6 288.1288,-235.6 374.5662,-235.6 374.5662,-271.6"/>
<text text-anchor="middle" x="331.3475" y="-249.4" font-family="Times,serif" font-size="14.00" fill="#000000"> edad &lt;= 49 </text>
</g>
<!-- 15&#45;&gt;22 -->
<g id="edge10" class="edge">
<title>15&#45;&gt;22</title>
<path fill="none" stroke="#000000" d="M326.7694,-312.8099C327.4793,-303.629 328.3539,-292.3167 329.1479,-282.0482"/>
<polygon fill="#000000" stroke="#000000" points="332.6544,-282.0982 329.9358,-271.8581 325.6752,-281.5585 332.6544,-282.0982"/>
</g>
<!-- 29 -->
<g id="node12" class="node">
<title>29</title>
<polygon fill="none" stroke="#000000" points="175.0082,-194 69.6868,-194 69.6868,-158 175.0082,-158 175.0082,-194"/>
<text text-anchor="middle" x="122.3475" y="-171.8" font-family="Times,serif" font-size="14.00" fill="#000000"> fam_pide &lt;= 0 </text>
</g>
<!-- 21&#45;&gt;29 -->
<g id="edge11" class="edge">
<title>21&#45;&gt;29</title>
<path fill="none" stroke="#000000" d="M203.4952,-235.4062C189.1418,-224.8985 170.9083,-211.5502 155.3625,-200.1694"/>
<polygon fill="#000000" stroke="#000000" points="157.1805,-197.1627 147.0441,-194.0798 153.0455,-202.811 157.1805,-197.1627"/>
</g>
<!-- 30 -->
<g id="node13" class="node">
<title>30</title>
<polygon fill="#c1b2ff" stroke="#c1b2ff" points="267.5431,-196.6019 193.1519,-196.6019 193.1519,-155.3981 267.5431,-155.3981 267.5431,-196.6019"/>
<text text-anchor="middle" x="230.3475" y="-180.2" font-family="Times,serif" font-size="14.00" fill="#000000">leaf node &#160;</text>
<text text-anchor="middle" x="230.3475" y="-163.4" font-family="Times,serif" font-size="14.00" fill="#000000">size = &#160;15 </text>
</g>
<!-- 21&#45;&gt;30 -->
<g id="edge12" class="edge">
<title>21&#45;&gt;30</title>
<path fill="none" stroke="#000000" d="M228.8215,-235.2099C229.0403,-226.7181 229.3062,-216.4029 229.5543,-206.7766"/>
<polygon fill="#000000" stroke="#000000" points="233.0546,-206.8074 229.8135,-196.7205 226.0569,-206.627 233.0546,-206.8074"/>
</g>
<!-- 31 -->
<g id="node18" class="node">
<title>31</title>
<polygon fill="none" stroke="#000000" points="373.5662,-194 287.1288,-194 287.1288,-158 373.5662,-158 373.5662,-194"/>
<text text-anchor="middle" x="330.3475" y="-171.8" font-family="Times,serif" font-size="14.00" fill="#000000"> edad &lt;= 34 </text>
</g>
<!-- 22&#45;&gt;31 -->
<g id="edge17" class="edge">
<title>22&#45;&gt;31</title>
<path fill="none" stroke="#000000" d="M331.1105,-235.2099C330.9922,-226.029 330.8464,-214.7167 330.7141,-204.4482"/>
<polygon fill="#000000" stroke="#000000" points="334.2114,-204.2121 330.5828,-194.2581 327.212,-204.3024 334.2114,-204.2121"/>
</g>
<!-- 32 -->
<g id="node19" class="node">
<title>32</title>
<polygon fill="#c1b2ff" stroke="#c1b2ff" points="465.5431,-196.6019 391.1519,-196.6019 391.1519,-155.3981 465.5431,-155.3981 465.5431,-196.6019"/>
<text text-anchor="middle" x="428.3475" y="-180.2" font-family="Times,serif" font-size="14.00" fill="#000000">leaf node &#160;</text>
<text text-anchor="middle" x="428.3475" y="-163.4" font-family="Times,serif" font-size="14.00" fill="#000000">size = &#160;17 </text>
</g>
<!-- 22&#45;&gt;32 -->
<g id="edge18" class="edge">
<title>22&#45;&gt;32</title>
<path fill="none" stroke="#000000" d="M354.3351,-235.2099C366.305,-225.634 381.1732,-213.7395 394.4363,-203.1289"/>
<polygon fill="#000000" stroke="#000000" points="396.8246,-205.7005 402.4469,-196.7205 392.4517,-200.2344 396.8246,-205.7005"/>
</g>
<!-- 33 -->
<g id="node14" class="node">
<title>33</title>
<polygon fill="none" stroke="#000000" points="126.5662,-116.4 40.1288,-116.4 40.1288,-80.4 126.5662,-80.4 126.5662,-116.4"/>
<text text-anchor="middle" x="83.3475" y="-94.2" font-family="Times,serif" font-size="14.00" fill="#000000"> edad &lt;= 38 </text>
</g>
<!-- 29&#45;&gt;33 -->
<g id="edge13" class="edge">
<title>29&#45;&gt;33</title>
<path fill="none" stroke="#000000" d="M113.105,-157.6099C108.3452,-148.1391 102.4455,-136.4001 97.1576,-125.8786"/>
<polygon fill="#000000" stroke="#000000" points="100.1415,-124.0215 92.5236,-116.6581 93.8869,-127.1649 100.1415,-124.0215"/>
</g>
<!-- 34 -->
<g id="node15" class="node">
<title>34</title>
<polygon fill="#c1b2ff" stroke="#c1b2ff" points="218.5431,-119.0019 144.1519,-119.0019 144.1519,-77.7981 218.5431,-77.7981 218.5431,-119.0019"/>
<text text-anchor="middle" x="181.3475" y="-102.6" font-family="Times,serif" font-size="14.00" fill="#000000">leaf node &#160;</text>
<text text-anchor="middle" x="181.3475" y="-85.8" font-family="Times,serif" font-size="14.00" fill="#000000">size = &#160;10 </text>
</g>
<!-- 29&#45;&gt;34 -->
<g id="edge14" class="edge">
<title>29&#45;&gt;34</title>
<path fill="none" stroke="#000000" d="M136.3297,-157.6099C143.1982,-148.576 151.6357,-137.4786 159.3423,-127.3424"/>
<polygon fill="#000000" stroke="#000000" points="162.3272,-129.1993 165.5935,-119.1205 156.7549,-124.9626 162.3272,-129.1993"/>
</g>
<!-- 37 -->
<g id="node16" class="node">
<title>37</title>
<polygon fill="#c1b2ff" stroke="#c1b2ff" points="74.5431,-41.4019 .1519,-41.4019 .1519,-.1981 74.5431,-.1981 74.5431,-41.4019"/>
<text text-anchor="middle" x="37.3475" y="-25" font-family="Times,serif" font-size="14.00" fill="#000000">leaf node &#160;</text>
<text text-anchor="middle" x="37.3475" y="-8.2" font-family="Times,serif" font-size="14.00" fill="#000000">size = &#160;12 </text>
</g>
<!-- 33&#45;&gt;37 -->
<g id="edge15" class="edge">
<title>33&#45;&gt;37</title>
<path fill="none" stroke="#000000" d="M72.4461,-80.0099C67.1981,-71.1567 60.7753,-60.3217 54.8653,-50.3517"/>
<polygon fill="#000000" stroke="#000000" points="57.7403,-48.338 49.6303,-41.5205 51.7188,-51.9075 57.7403,-48.338"/>
</g>
<!-- 38 -->
<g id="node17" class="node">
<title>38</title>
<polygon fill="#c1b2ff" stroke="#c1b2ff" points="167.5431,-41.4019 93.1519,-41.4019 93.1519,-.1981 167.5431,-.1981 167.5431,-41.4019"/>
<text text-anchor="middle" x="130.3475" y="-25" font-family="Times,serif" font-size="14.00" fill="#000000">leaf node &#160;</text>
<text text-anchor="middle" x="130.3475" y="-8.2" font-family="Times,serif" font-size="14.00" fill="#000000">size = &#160;21 </text>
</g>
<!-- 33&#45;&gt;38 -->
<g id="edge16" class="edge">
<title>33&#45;&gt;38</title>
<path fill="none" stroke="#000000" d="M94.4858,-80.0099C99.8479,-71.1567 106.4104,-60.3217 112.4489,-50.3517"/>
<polygon fill="#000000" stroke="#000000" points="115.6108,-51.8872 117.7977,-41.5205 109.6234,-48.2608 115.6108,-51.8872"/>
</g>
<!-- 35 -->
<g id="node20" class="node">
<title>35</title>
<polygon fill="#c1b2ff" stroke="#c1b2ff" points="339.5431,-119.0019 265.1519,-119.0019 265.1519,-77.7981 339.5431,-77.7981 339.5431,-119.0019"/>
<text text-anchor="middle" x="302.3475" y="-102.6" font-family="Times,serif" font-size="14.00" fill="#000000">leaf node &#160;</text>
<text text-anchor="middle" x="302.3475" y="-85.8" font-family="Times,serif" font-size="14.00" fill="#000000">size = &#160;13 </text>
</g>
<!-- 31&#45;&gt;35 -->
<g id="edge19" class="edge">
<title>31&#45;&gt;35</title>
<path fill="none" stroke="#000000" d="M323.7119,-157.6099C320.5826,-148.9374 316.7672,-138.3631 313.2311,-128.5632"/>
<polygon fill="#000000" stroke="#000000" points="316.5103,-127.339 309.824,-119.1205 309.9259,-129.7149 316.5103,-127.339"/>
</g>
<!-- 36 -->
<g id="node21" class="node">
<title>36</title>
<polygon fill="#c1b2ff" stroke="#c1b2ff" points="432.5431,-119.0019 358.1519,-119.0019 358.1519,-77.7981 432.5431,-77.7981 432.5431,-119.0019"/>
<text text-anchor="middle" x="395.3475" y="-102.6" font-family="Times,serif" font-size="14.00" fill="#000000">leaf node &#160;</text>
<text text-anchor="middle" x="395.3475" y="-85.8" font-family="Times,serif" font-size="14.00" fill="#000000">size = &#160;16 </text>
</g>
<!-- 31&#45;&gt;36 -->
<g id="edge20" class="edge">
<title>31&#45;&gt;36</title>
<path fill="none" stroke="#000000" d="M345.7516,-157.6099C353.3943,-148.4857 362.8002,-137.2564 371.359,-127.0386"/>
<polygon fill="#000000" stroke="#000000" points="374.2532,-129.034 377.9914,-119.1205 368.887,-124.5391 374.2532,-129.034"/>
</g>
<!-- 23 -->
<g id="node24" class="node">
<title>23</title>
<polygon fill="#c1b2ff" stroke="#c1b2ff" points="508.5431,-274.2019 434.1519,-274.2019 434.1519,-232.9981 508.5431,-232.9981 508.5431,-274.2019"/>
<text text-anchor="middle" x="471.3475" y="-257.8" font-family="Times,serif" font-size="14.00" fill="#000000">leaf node &#160;</text>
<text text-anchor="middle" x="471.3475" y="-241" font-family="Times,serif" font-size="14.00" fill="#000000">size = &#160;16 </text>
</g>
<!-- 17&#45;&gt;23 -->
<g id="edge23" class="edge">
<title>17&#45;&gt;23</title>
<path fill="none" stroke="#000000" d="M520.9434,-312.8099C513.3007,-303.6857 503.8948,-292.4564 495.336,-282.2386"/>
<polygon fill="#000000" stroke="#000000" points="497.808,-279.7391 488.7036,-274.3205 492.4418,-284.234 497.808,-279.7391"/>
</g>
<!-- 24 -->
<g id="node25" class="node">
<title>24</title>
<polygon fill="#c1b2ff" stroke="#c1b2ff" points="601.5431,-274.2019 527.1519,-274.2019 527.1519,-232.9981 601.5431,-232.9981 601.5431,-274.2019"/>
<text text-anchor="middle" x="564.3475" y="-257.8" font-family="Times,serif" font-size="14.00" fill="#000000">leaf node &#160;</text>
<text text-anchor="middle" x="564.3475" y="-241" font-family="Times,serif" font-size="14.00" fill="#000000">size = &#160;4 </text>
</g>
<!-- 17&#45;&gt;24 -->
<g id="edge24" class="edge">
<title>17&#45;&gt;24</title>
<path fill="none" stroke="#000000" d="M542.9831,-312.8099C546.1124,-304.1374 549.9278,-293.5631 553.4639,-283.7632"/>
<polygon fill="#000000" stroke="#000000" points="556.7691,-284.9149 556.871,-274.3205 550.1847,-282.539 556.7691,-284.9149"/>
</g>
<!-- 19 -->
<g id="node28" class="node">
<title>19</title>
<polygon fill="none" stroke="#000000" points="818.9523,-349.2 693.7427,-349.2 693.7427,-313.2 818.9523,-313.2 818.9523,-349.2"/>
<text text-anchor="middle" x="756.3475" y="-327" font-family="Times,serif" font-size="14.00" fill="#000000"> prestamo &lt;= 3070 </text>
</g>
<!-- 9&#45;&gt;19 -->
<g id="edge27" class="edge">
<title>9&#45;&gt;19</title>
<path fill="none" stroke="#000000" d="M756.3475,-390.4099C756.3475,-381.229 756.3475,-369.9167 756.3475,-359.6482"/>
<polygon fill="#000000" stroke="#000000" points="759.8476,-359.4581 756.3475,-349.4581 752.8476,-359.4581 759.8476,-359.4581"/>
</g>
<!-- 20 -->
<g id="node29" class="node">
<title>20</title>
<polygon fill="none" stroke="#000000" points="923.5662,-349.2 837.1288,-349.2 837.1288,-313.2 923.5662,-313.2 923.5662,-349.2"/>
<text text-anchor="middle" x="880.3475" y="-327" font-family="Times,serif" font-size="14.00" fill="#000000"> edad &lt;= 37 </text>
</g>
<!-- 9&#45;&gt;20 -->
<g id="edge28" class="edge">
<title>9&#45;&gt;20</title>
<path fill="none" stroke="#000000" d="M785.42,-390.6062C802.5217,-379.9039 824.332,-366.2548 842.7333,-354.7392"/>
<polygon fill="#000000" stroke="#000000" points="844.837,-357.5516 851.4572,-349.2798 841.1235,-351.6178 844.837,-357.5516"/>
</g>
<!-- 25 -->
<g id="node30" class="node">
<title>25</title>
<polygon fill="#c1b2ff" stroke="#c1b2ff" points="715.5431,-274.2019 641.1519,-274.2019 641.1519,-232.9981 715.5431,-232.9981 715.5431,-274.2019"/>
<text text-anchor="middle" x="678.3475" y="-257.8" font-family="Times,serif" font-size="14.00" fill="#000000">leaf node &#160;</text>
<text text-anchor="middle" x="678.3475" y="-241" font-family="Times,serif" font-size="14.00" fill="#000000">size = &#160;12 </text>
</g>
<!-- 19&#45;&gt;25 -->
<g id="edge29" class="edge">
<title>19&#45;&gt;25</title>
<path fill="none" stroke="#000000" d="M737.8626,-312.8099C728.5098,-303.505 716.9564,-292.0109 706.5248,-281.6328"/>
<polygon fill="#000000" stroke="#000000" points="708.7326,-278.8922 699.1748,-274.3205 703.7955,-283.8546 708.7326,-278.8922"/>
</g>
<!-- 26 -->
<g id="node31" class="node">
<title>26</title>
<polygon fill="#c1b2ff" stroke="#c1b2ff" points="808.5431,-274.2019 734.1519,-274.2019 734.1519,-232.9981 808.5431,-232.9981 808.5431,-274.2019"/>
<text text-anchor="middle" x="771.3475" y="-257.8" font-family="Times,serif" font-size="14.00" fill="#000000">leaf node &#160;</text>
<text text-anchor="middle" x="771.3475" y="-241" font-family="Times,serif" font-size="14.00" fill="#000000">size = &#160;19 </text>
</g>
<!-- 19&#45;&gt;26 -->
<g id="edge30" class="edge">
<title>19&#45;&gt;26</title>
<path fill="none" stroke="#000000" d="M759.9023,-312.8099C761.5437,-304.3181 763.5377,-294.0029 765.3984,-284.3766"/>
<polygon fill="#000000" stroke="#000000" points="768.8807,-284.803 767.3422,-274.3205 762.0079,-283.4745 768.8807,-284.803"/>
</g>
<!-- 27 -->
<g id="node32" class="node">
<title>27</title>
<polygon fill="#c1b2ff" stroke="#c1b2ff" points="912.5431,-274.2019 838.1519,-274.2019 838.1519,-232.9981 912.5431,-232.9981 912.5431,-274.2019"/>
<text text-anchor="middle" x="875.3475" y="-257.8" font-family="Times,serif" font-size="14.00" fill="#000000">leaf node &#160;</text>
<text text-anchor="middle" x="875.3475" y="-241" font-family="Times,serif" font-size="14.00" fill="#000000">size = &#160;13 </text>
</g>
<!-- 20&#45;&gt;27 -->
<g id="edge31" class="edge">
<title>20&#45;&gt;27</title>
<path fill="none" stroke="#000000" d="M879.1626,-312.8099C878.6154,-304.3181 877.9508,-294.0029 877.3305,-284.3766"/>
<polygon fill="#000000" stroke="#000000" points="880.8184,-284.0747 876.6826,-274.3205 873.8329,-284.5249 880.8184,-284.0747"/>
</g>
<!-- 28 -->
<g id="node33" class="node">
<title>28</title>
<polygon fill="#c1b2ff" stroke="#c1b2ff" points="1005.5431,-274.2019 931.1519,-274.2019 931.1519,-232.9981 1005.5431,-232.9981 1005.5431,-274.2019"/>
<text text-anchor="middle" x="968.3475" y="-257.8" font-family="Times,serif" font-size="14.00" fill="#000000">leaf node &#160;</text>
<text text-anchor="middle" x="968.3475" y="-241" font-family="Times,serif" font-size="14.00" fill="#000000">size = &#160;11 </text>
</g>
<!-- 20&#45;&gt;28 -->
<g id="edge32" class="edge">
<title>20&#45;&gt;28</title>
<path fill="none" stroke="#000000" d="M901.2023,-312.8099C911.9591,-303.3243 925.2959,-291.5637 937.2418,-281.0296"/>
<polygon fill="#000000" stroke="#000000" points="939.6645,-283.5596 944.85,-274.3205 935.0347,-278.3094 939.6645,-283.5596"/>
</g>
<!-- 11 -->
<g id="node36" class="node">
<title>11</title>
<polygon fill="#c1b2ff" stroke="#c1b2ff" points="989.5431,-429.4019 915.1519,-429.4019 915.1519,-388.1981 989.5431,-388.1981 989.5431,-429.4019"/>
<text text-anchor="middle" x="952.3475" y="-413" font-family="Times,serif" font-size="14.00" fill="#000000">leaf node &#160;</text>
<text text-anchor="middle" x="952.3475" y="-396.2" font-family="Times,serif" font-size="14.00" fill="#000000">size = &#160;19 </text>
</g>
<!-- 5&#45;&gt;11 -->
<g id="edge35" class="edge">
<title>5&#45;&gt;11</title>
<path fill="none" stroke="#000000" d="M975.0853,-465.493C971.9016,-457.555 968.0775,-448.0202 964.4816,-439.0545"/>
<polygon fill="#000000" stroke="#000000" points="967.6814,-437.63 960.7104,-429.6515 961.1845,-440.2357 967.6814,-437.63"/>
</g>
<!-- 12 -->
<g id="node37" class="node">
<title>12</title>
<polygon fill="#c1b2ff" stroke="#c1b2ff" points="1082.5431,-429.4019 1008.1519,-429.4019 1008.1519,-388.1981 1082.5431,-388.1981 1082.5431,-429.4019"/>
<text text-anchor="middle" x="1045.3475" y="-413" font-family="Times,serif" font-size="14.00" fill="#000000">leaf node &#160;</text>
<text text-anchor="middle" x="1045.3475" y="-396.2" font-family="Times,serif" font-size="14.00" fill="#000000">size = &#160;9 </text>
</g>
<!-- 5&#45;&gt;12 -->
<g id="edge36" class="edge">
<title>5&#45;&gt;12</title>
<path fill="none" stroke="#000000" d="M997.598,-465.493C1004.7106,-457.0483 1013.3451,-446.7965 1021.3055,-437.3451"/>
<polygon fill="#000000" stroke="#000000" points="1024.0204,-439.5548 1027.7854,-429.6515 1018.6664,-435.0454 1024.0204,-439.5548"/>
</g>
<!-- 13 -->
<g id="node38" class="node">
<title>13</title>
<polygon fill="#c1b2ff" stroke="#c1b2ff" points="1175.5431,-429.4019 1101.1519,-429.4019 1101.1519,-388.1981 1175.5431,-388.1981 1175.5431,-429.4019"/>
<text text-anchor="middle" x="1138.3475" y="-413" font-family="Times,serif" font-size="14.00" fill="#000000">leaf node &#160;</text>
<text text-anchor="middle" x="1138.3475" y="-396.2" font-family="Times,serif" font-size="14.00" fill="#000000">size = &#160;11 </text>
</g>
<!-- 6&#45;&gt;13 -->
<g id="edge37" class="edge">
<title>6&#45;&gt;13</title>
<path fill="none" stroke="#000000" d="M1138.3475,-465.493C1138.3475,-457.8083 1138.3475,-448.6272 1138.3475,-439.9145"/>
<polygon fill="#000000" stroke="#000000" points="1141.8476,-439.6515 1138.3475,-429.6515 1134.8476,-439.6515 1141.8476,-439.6515"/>
</g>
<!-- 14 -->
<g id="node39" class="node">
<title>14</title>
<polygon fill="#c1b2ff" stroke="#c1b2ff" points="1268.5431,-429.4019 1194.1519,-429.4019 1194.1519,-388.1981 1268.5431,-388.1981 1268.5431,-429.4019"/>
<text text-anchor="middle" x="1231.3475" y="-413" font-family="Times,serif" font-size="14.00" fill="#000000">leaf node &#160;</text>
<text text-anchor="middle" x="1231.3475" y="-396.2" font-family="Times,serif" font-size="14.00" fill="#000000">size = &#160;25 </text>
</g>
<!-- 6&#45;&gt;14 -->
<g id="edge38" class="edge">
<title>6&#45;&gt;14</title>
<path fill="none" stroke="#000000" d="M1160.8602,-465.493C1171.8846,-456.6261 1185.3861,-445.7668 1197.6117,-435.9338"/>
<polygon fill="#000000" stroke="#000000" points="1199.8238,-438.6462 1205.4225,-429.6515 1195.4366,-433.1916 1199.8238,-438.6462"/>
</g>
</g>
</svg>
