<?xml version="1.0" encoding="UTF-8" standalone="no"?>
<!DOCTYPE svg PUBLIC "-//W3C//DTD SVG 1.1//EN"
 "http://www.w3.org/Graphics/SVG/1.1/DTD/svg11.dtd">
<!-- Generated by graphviz version 2.40.1 (20161225.0304)
 -->
<!-- Title: nodes Pages: 1 -->
<svg width="979pt" height="737pt"
 viewBox="0.00 0.00 978.69 736.80" xmlns="http://www.w3.org/2000/svg" xmlns:xlink="http://www.w3.org/1999/xlink">
<g id="graph0" class="graph" transform="scale(1 1) rotate(0) translate(4 732.8)">
<title>nodes</title>
<polygon fill="#ffffff" stroke="transparent" points="-4,4 -4,-732.8 974.695,-732.8 974.695,4 -4,4"/>
<!-- 0 -->
<g id="node1" class="node">
<title>0</title>
<polygon fill="none" stroke="#000000" points="528.9524,-728.8 445.7426,-728.8 445.7426,-692.8 528.9524,-692.8 528.9524,-728.8"/>
<text text-anchor="middle" x="487.3475" y="-706.6" font-family="Times,serif" font-size="14.00" fill="#000000"> faltas &lt;= 0 </text>
</g>
<!-- 1 -->
<g id="node2" class="node">
<title>1</title>
<polygon fill="none" stroke="#000000" points="471.9523,-656.8 346.7427,-656.8 346.7427,-620.8 471.9523,-620.8 471.9523,-656.8"/>
<text text-anchor="middle" x="409.3475" y="-634.6" font-family="Times,serif" font-size="14.00" fill="#000000"> prestamo &lt;= 4590 </text>
</g>
<!-- 0&#45;&gt;1 -->
<g id="edge1" class="edge">
<title>0&#45;&gt;1</title>
<path fill="none" stroke="#000000" d="M467.6648,-692.6314C458.2424,-683.9337 446.8074,-673.3783 436.5679,-663.9265"/>
<polygon fill="#000000" stroke="#000000" points="438.7459,-661.1738 429.0239,-656.9628 433.998,-666.3175 438.7459,-661.1738"/>
<text text-anchor="middle" x="430.0231" y="-677.7429" font-family="Times,serif" font-size="14.00" fill="#000000">True</text>
</g>
<!-- 2 -->
<g id="node3" class="node">
<title>2</title>
<polygon fill="none" stroke="#000000" points="642.6504,-656.8 490.0446,-656.8 490.0446,-620.8 642.6504,-620.8 642.6504,-656.8"/>
<text text-anchor="middle" x="566.3475" y="-634.6" font-family="Times,serif" font-size="14.00" fill="#000000"> hace_presupuesto &lt;= 0 </text>
</g>
<!-- 0&#45;&gt;2 -->
<g id="edge2" class="edge">
<title>0&#45;&gt;2</title>
<path fill="none" stroke="#000000" d="M507.2825,-692.6314C516.8258,-683.9337 528.4074,-673.3783 538.7781,-663.9265"/>
<polygon fill="#000000" stroke="#000000" points="541.3855,-666.2857 546.4188,-656.9628 536.6703,-661.1121 541.3855,-666.2857"/>
<text text-anchor="middle" x="545.2611" y="-677.736" font-family="Times,serif" font-size="14.00" fill="#000000">False</text>
</g>
<!-- 3 -->
<g id="node4" class="node">
<title>3</title>
<polygon fill="none" stroke="#000000" points="366.0249,-582 232.6701,-582 232.6701,-546 366.0249,-546 366.0249,-582"/>
<text text-anchor="middle" x="299.3475" y="-559.8" font-family="Times,serif" font-size="14.00" fill="#000000"> dummy_dow6 &lt;= 0 </text>
</g>
<!-- 1&#45;&gt;3 -->
<g id="edge3" class="edge">
<title>1&#45;&gt;3</title>
<path fill="none" stroke="#000000" d="M382.7196,-620.693C368.2344,-610.8431 350.1337,-598.5346 334.5027,-587.9055"/>
<polygon fill="#000000" stroke="#000000" points="336.3489,-584.9284 326.1115,-582.1995 332.4127,-590.7169 336.3489,-584.9284"/>
</g>
<!-- 4 -->
<g id="node5" class="node">
<title>4</title>
<polygon fill="#c1b2ff" stroke="#c1b2ff" points="458.5431,-584.6019 384.1519,-584.6019 384.1519,-543.3981 458.5431,-543.3981 458.5431,-584.6019"/>
<text text-anchor="middle" x="421.3475" y="-568.2" font-family="Times,serif" font-size="14.00" fill="#000000">leaf node &#160;</text>
<text text-anchor="middle" x="421.3475" y="-551.4" font-family="Times,serif" font-size="14.00" fill="#000000">size = &#160;19 </text>
</g>
<!-- 1&#45;&gt;4 -->
<g id="edge4" class="edge">
<title>1&#45;&gt;4</title>
<path fill="none" stroke="#000000" d="M412.2524,-620.693C413.4987,-612.9239 414.9905,-603.6252 416.4019,-594.8275"/>
<polygon fill="#000000" stroke="#000000" points="419.874,-595.2797 418.0023,-584.8515 412.9624,-594.1708 419.874,-595.2797"/>
</g>
<!-- 5 -->
<g id="node22" class="node">
<title>5</title>
<polygon fill="none" stroke="#000000" points="608.8881,-582 499.8069,-582 499.8069,-546 608.8881,-546 608.8881,-582"/>
<text text-anchor="middle" x="554.3475" y="-559.8" font-family="Times,serif" font-size="14.00" fill="#000000"> pr_recup &lt;= 90 </text>
</g>
<!-- 2&#45;&gt;5 -->
<g id="edge21" class="edge">
<title>2&#45;&gt;5</title>
<path fill="none" stroke="#000000" d="M563.4426,-620.693C562.0673,-612.1199 560.3931,-601.6844 558.8579,-592.1147"/>
<polygon fill="#000000" stroke="#000000" points="562.3071,-591.5188 557.2672,-582.1995 555.3955,-592.6277 562.3071,-591.5188"/>
</g>
<!-- 6 -->
<g id="node23" class="node">
<title>6</title>
<polygon fill="none" stroke="#000000" points="736.8881,-582 627.8069,-582 627.8069,-546 736.8881,-546 736.8881,-582"/>
<text text-anchor="middle" x="682.3475" y="-559.8" font-family="Times,serif" font-size="14.00" fill="#000000"> pr_recup &lt;= 75 </text>
</g>
<!-- 2&#45;&gt;6 -->
<g id="edge22" class="edge">
<title>2&#45;&gt;6</title>
<path fill="none" stroke="#000000" d="M594.4279,-620.693C609.7031,-610.8431 628.7911,-598.5346 645.2748,-587.9055"/>
<polygon fill="#000000" stroke="#000000" points="647.6162,-590.5603 654.1237,-582.1995 643.8226,-584.6773 647.6162,-590.5603"/>
</g>
<!-- 7 -->
<g id="node6" class="node">
<title>7</title>
<polygon fill="none" stroke="#000000" points="292.9523,-504.4 167.7427,-504.4 167.7427,-468.4 292.9523,-468.4 292.9523,-504.4"/>
<text text-anchor="middle" x="230.3475" y="-482.2" font-family="Times,serif" font-size="14.00" fill="#000000"> prestamo &lt;= 2890 </text>
</g>
<!-- 3&#45;&gt;7 -->
<g id="edge5" class="edge">
<title>3&#45;&gt;7</title>
<path fill="none" stroke="#000000" d="M282.9955,-545.6099C274.1446,-535.6558 263.0659,-523.1964 253.3577,-512.2781"/>
<polygon fill="#000000" stroke="#000000" points="255.8426,-509.8055 246.5822,-504.6581 250.6115,-514.4569 255.8426,-509.8055"/>
</g>
<!-- 8 -->
<g id="node7" class="node">
<title>8</title>
<polygon fill="#c1b2ff" stroke="#c1b2ff" points="385.5431,-507.0019 311.1519,-507.0019 311.1519,-465.7981 385.5431,-465.7981 385.5431,-507.0019"/>
<text text-anchor="middle" x="348.3475" y="-490.6" font-family="Times,serif" font-size="14.00" fill="#000000">leaf node &#160;</text>
<text text-anchor="middle" x="348.3475" y="-473.8" font-family="Times,serif" font-size="14.00" fill="#000000">size = &#160;28 </text>
</g>
<!-- 3&#45;&gt;8 -->
<g id="edge6" class="edge">
<title>3&#45;&gt;8</title>
<path fill="none" stroke="#000000" d="M310.9598,-545.6099C316.6071,-536.6664 323.5316,-525.7003 329.8798,-515.6468"/>
<polygon fill="#000000" stroke="#000000" points="332.8839,-517.4446 335.2637,-507.1205 326.9651,-513.7072 332.8839,-517.4446"/>
</g>
<!-- 13 -->
<g id="node8" class="node">
<title>13</title>
<polygon fill="none" stroke="#000000" points="255.6504,-426.8 103.0446,-426.8 103.0446,-390.8 255.6504,-390.8 255.6504,-426.8"/>
<text text-anchor="middle" x="179.3475" y="-404.6" font-family="Times,serif" font-size="14.00" fill="#000000"> hace_presupuesto &lt;= 0 </text>
</g>
<!-- 7&#45;&gt;13 -->
<g id="edge7" class="edge">
<title>7&#45;&gt;13</title>
<path fill="none" stroke="#000000" d="M218.2612,-468.0099C211.9098,-458.3458 204.0063,-446.3201 196.9845,-435.6359"/>
<polygon fill="#000000" stroke="#000000" points="199.7642,-433.4926 191.347,-427.0581 193.9144,-437.3372 199.7642,-433.4926"/>
</g>
<!-- 14 -->
<g id="node9" class="node">
<title>14</title>
<polygon fill="#c1b2ff" stroke="#c1b2ff" points="347.5431,-429.4019 273.1519,-429.4019 273.1519,-388.1981 347.5431,-388.1981 347.5431,-429.4019"/>
<text text-anchor="middle" x="310.3475" y="-413" font-family="Times,serif" font-size="14.00" fill="#000000">leaf node &#160;</text>
<text text-anchor="middle" x="310.3475" y="-396.2" font-family="Times,serif" font-size="14.00" fill="#000000">size = &#160;12 </text>
</g>
<!-- 7&#45;&gt;14 -->
<g id="edge8" class="edge">
<title>7&#45;&gt;14</title>
<path fill="none" stroke="#000000" d="M249.3064,-468.0099C258.9922,-458.6147 270.979,-446.9875 281.759,-436.5309"/>
<polygon fill="#000000" stroke="#000000" points="284.2451,-438.9954 288.9862,-429.5205 279.3713,-433.9708 284.2451,-438.9954"/>
</g>
<!-- 19 -->
<g id="node10" class="node">
<title>19</title>
<polygon fill="none" stroke="#000000" points="179.0082,-349.2 59.6868,-349.2 59.6868,-313.2 179.0082,-313.2 179.0082,-349.2"/>
<text text-anchor="middle" x="119.3475" y="-327" font-family="Times,serif" font-size="14.00" fill="#000000"> fam_comun &lt;= 0 </text>
</g>
<!-- 13&#45;&gt;19 -->
<g id="edge9" class="edge">
<title>13&#45;&gt;19</title>
<path fill="none" stroke="#000000" d="M165.1283,-390.4099C157.5066,-380.5525 147.9852,-368.2381 139.6026,-357.3965"/>
<polygon fill="#000000" stroke="#000000" points="142.3503,-355.2283 133.4646,-349.4581 136.8126,-359.5101 142.3503,-355.2283"/>
</g>
<!-- 20 -->
<g id="node11" class="node">
<title>20</title>
<polygon fill="none" stroke="#000000" points="321.9523,-349.2 196.7427,-349.2 196.7427,-313.2 321.9523,-313.2 321.9523,-349.2"/>
<text text-anchor="middle" x="259.3475" y="-327" font-family="Times,serif" font-size="14.00" fill="#000000"> prestamo &lt;= 2010 </text>
</g>
<!-- 13&#45;&gt;20 -->
<g id="edge10" class="edge">
<title>13&#45;&gt;20</title>
<path fill="none" stroke="#000000" d="M198.3064,-390.4099C208.7675,-380.2626 221.9129,-367.5116 233.3229,-356.4438"/>
<polygon fill="#000000" stroke="#000000" points="235.7837,-358.933 240.5247,-349.4581 230.9098,-353.9084 235.7837,-358.933"/>
</g>
<!-- 27 -->
<g id="node12" class="node">
<title>27</title>
<polygon fill="#c1b2ff" stroke="#c1b2ff" points="74.5431,-274.2019 .1519,-274.2019 .1519,-232.9981 74.5431,-232.9981 74.5431,-274.2019"/>
<text text-anchor="middle" x="37.3475" y="-257.8" font-family="Times,serif" font-size="14.00" fill="#000000">leaf node &#160;</text>
<text text-anchor="middle" x="37.3475" y="-241" font-family="Times,serif" font-size="14.00" fill="#000000">size = &#160;26 </text>
</g>
<!-- 19&#45;&gt;27 -->
<g id="edge11" class="edge">
<title>19&#45;&gt;27</title>
<path fill="none" stroke="#000000" d="M99.9146,-312.8099C89.9867,-303.4147 77.7003,-291.7875 66.6507,-281.3309"/>
<polygon fill="#000000" stroke="#000000" points="68.9119,-278.6519 59.2429,-274.3205 64.1004,-283.7362 68.9119,-278.6519"/>
</g>
<!-- 28 -->
<g id="node13" class="node">
<title>28</title>
<polygon fill="#c1b2ff" stroke="#c1b2ff" points="167.5431,-274.2019 93.1519,-274.2019 93.1519,-232.9981 167.5431,-232.9981 167.5431,-274.2019"/>
<text text-anchor="middle" x="130.3475" y="-257.8" font-family="Times,serif" font-size="14.00" fill="#000000">leaf node &#160;</text>
<text text-anchor="middle" x="130.3475" y="-241" font-family="Times,serif" font-size="14.00" fill="#000000">size = &#160;15 </text>
</g>
<!-- 19&#45;&gt;28 -->
<g id="edge12" class="edge">
<title>19&#45;&gt;28</title>
<path fill="none" stroke="#000000" d="M121.9543,-312.8099C123.1581,-304.3181 124.6203,-294.0029 125.9848,-284.3766"/>
<polygon fill="#000000" stroke="#000000" points="129.4721,-284.7128 127.4103,-274.3205 122.5414,-283.7303 129.4721,-284.7128"/>
</g>
<!-- 29 -->
<g id="node14" class="node">
<title>29</title>
<polygon fill="none" stroke="#000000" points="292.5662,-271.6 206.1288,-271.6 206.1288,-235.6 292.5662,-235.6 292.5662,-271.6"/>
<text text-anchor="middle" x="249.3475" y="-249.4" font-family="Times,serif" font-size="14.00" fill="#000000"> edad &lt;= 47 </text>
</g>
<!-- 20&#45;&gt;29 -->
<g id="edge13" class="edge">
<title>20&#45;&gt;29</title>
<path fill="none" stroke="#000000" d="M256.9776,-312.8099C255.7945,-303.629 254.3368,-292.3167 253.0135,-282.0482"/>
<polygon fill="#000000" stroke="#000000" points="256.4498,-281.3287 251.7003,-271.8581 249.5072,-282.2235 256.4498,-281.3287"/>
</g>
<!-- 30 -->
<g id="node15" class="node">
<title>30</title>
<polygon fill="#c1b2ff" stroke="#c1b2ff" points="384.5431,-274.2019 310.1519,-274.2019 310.1519,-232.9981 384.5431,-232.9981 384.5431,-274.2019"/>
<text text-anchor="middle" x="347.3475" y="-257.8" font-family="Times,serif" font-size="14.00" fill="#000000">leaf node &#160;</text>
<text text-anchor="middle" x="347.3475" y="-241" font-family="Times,serif" font-size="14.00" fill="#000000">size = &#160;18 </text>
</g>
<!-- 20&#45;&gt;30 -->
<g id="edge14" class="edge">
<title>20&#45;&gt;30</title>
<path fill="none" stroke="#000000" d="M280.2023,-312.8099C290.9591,-303.3243 304.2959,-291.5637 316.2418,-281.0296"/>
<polygon fill="#000000" stroke="#000000" points="318.6645,-283.5596 323.85,-274.3205 314.0347,-278.3094 318.6645,-283.5596"/>
</g>
<!-- 35 -->
<g id="node16" class="node">
<title>35</title>
<polygon fill="none" stroke="#000000" points="248.7772,-194 141.9178,-194 141.9178,-158 248.7772,-158 248.7772,-194"/>
<text text-anchor="middle" x="195.3475" y="-171.8" font-family="Times,serif" font-size="14.00" fill="#000000"> cta_tanda &lt;= 0 </text>
</g>
<!-- 29&#45;&gt;35 -->
<g id="edge15" class="edge">
<title>29&#45;&gt;35</title>
<path fill="none" stroke="#000000" d="M236.5503,-235.2099C229.758,-225.4491 221.2893,-213.2793 213.7992,-202.5158"/>
<polygon fill="#000000" stroke="#000000" points="216.6377,-200.4671 208.0529,-194.2581 210.8919,-204.4655 216.6377,-200.4671"/>
</g>
<!-- 36 -->
<g id="node17" class="node">
<title>36</title>
<polygon fill="#c1b2ff" stroke="#c1b2ff" points="341.5431,-196.6019 267.1519,-196.6019 267.1519,-155.3981 341.5431,-155.3981 341.5431,-196.6019"/>
<text text-anchor="middle" x="304.3475" y="-180.2" font-family="Times,serif" font-size="14.00" fill="#000000">leaf node &#160;</text>
<text text-anchor="middle" x="304.3475" y="-163.4" font-family="Times,serif" font-size="14.00" fill="#000000">size = &#160;20 </text>
</g>
<!-- 29&#45;&gt;36 -->
<g id="edge16" class="edge">
<title>29&#45;&gt;36</title>
<path fill="none" stroke="#000000" d="M262.3817,-235.2099C268.7846,-226.176 276.65,-215.0786 283.8342,-204.9424"/>
<polygon fill="#000000" stroke="#000000" points="286.7345,-206.903 289.6616,-196.7205 281.0235,-202.8552 286.7345,-206.903"/>
</g>
<!-- 37 -->
<g id="node18" class="node">
<title>37</title>
<polygon fill="none" stroke="#000000" points="198.9523,-116.4 73.7427,-116.4 73.7427,-80.4 198.9523,-80.4 198.9523,-116.4"/>
<text text-anchor="middle" x="136.3475" y="-94.2" font-family="Times,serif" font-size="14.00" fill="#000000"> prestamo &lt;= 1000 </text>
</g>
<!-- 35&#45;&gt;37 -->
<g id="edge17" class="edge">
<title>35&#45;&gt;37</title>
<path fill="none" stroke="#000000" d="M181.3653,-157.6099C173.9441,-147.8491 164.6913,-135.6793 156.5077,-124.9158"/>
<polygon fill="#000000" stroke="#000000" points="159.0679,-122.5002 150.2293,-116.6581 153.4956,-126.7369 159.0679,-122.5002"/>
</g>
<!-- 38 -->
<g id="node19" class="node">
<title>38</title>
<polygon fill="#c1b2ff" stroke="#c1b2ff" points="291.5431,-119.0019 217.1519,-119.0019 217.1519,-77.7981 291.5431,-77.7981 291.5431,-119.0019"/>
<text text-anchor="middle" x="254.3475" y="-102.6" font-family="Times,serif" font-size="14.00" fill="#000000">leaf node &#160;</text>
<text text-anchor="middle" x="254.3475" y="-85.8" font-family="Times,serif" font-size="14.00" fill="#000000">size = &#160;18 </text>
</g>
<!-- 35&#45;&gt;38 -->
<g id="edge18" class="edge">
<title>35&#45;&gt;38</title>
<path fill="none" stroke="#000000" d="M209.3297,-157.6099C216.1982,-148.576 224.6357,-137.4786 232.3423,-127.3424"/>
<polygon fill="#000000" stroke="#000000" points="235.3272,-129.1993 238.5935,-119.1205 229.7549,-124.9626 235.3272,-129.1993"/>
</g>
<!-- 39 -->
<g id="node20" class="node">
<title>39</title>
<polygon fill="#c1b2ff" stroke="#c1b2ff" points="127.5431,-41.4019 53.1519,-41.4019 53.1519,-.1981 127.5431,-.1981 127.5431,-41.4019"/>
<text text-anchor="middle" x="90.3475" y="-25" font-family="Times,serif" font-size="14.00" fill="#000000">leaf node &#160;</text>
<text text-anchor="middle" x="90.3475" y="-8.2" font-family="Times,serif" font-size="14.00" fill="#000000">size = &#160;5 </text>
</g>
<!-- 37&#45;&gt;39 -->
<g id="edge19" class="edge">
<title>37&#45;&gt;39</title>
<path fill="none" stroke="#000000" d="M125.4461,-80.0099C120.1981,-71.1567 113.7753,-60.3217 107.8653,-50.3517"/>
<polygon fill="#000000" stroke="#000000" points="110.7403,-48.338 102.6303,-41.5205 104.7188,-51.9075 110.7403,-48.338"/>
</g>
<!-- 40 -->
<g id="node21" class="node">
<title>40</title>
<polygon fill="#c1b2ff" stroke="#c1b2ff" points="220.5431,-41.4019 146.1519,-41.4019 146.1519,-.1981 220.5431,-.1981 220.5431,-41.4019"/>
<text text-anchor="middle" x="183.3475" y="-25" font-family="Times,serif" font-size="14.00" fill="#000000">leaf node &#160;</text>
<text text-anchor="middle" x="183.3475" y="-8.2" font-family="Times,serif" font-size="14.00" fill="#000000">size = &#160;18 </text>
</g>
<!-- 37&#45;&gt;40 -->
<g id="edge20" class="edge">
<title>37&#45;&gt;40</title>
<path fill="none" stroke="#000000" d="M147.4858,-80.0099C152.8479,-71.1567 159.4104,-60.3217 165.4489,-50.3517"/>
<polygon fill="#000000" stroke="#000000" points="168.6108,-51.8872 170.7977,-41.5205 162.6234,-48.2608 168.6108,-51.8872"/>
</g>
<!-- 9 -->
<g id="node24" class="node">
<title>9</title>
<polygon fill="#c1b2ff" stroke="#c1b2ff" points="482.5431,-507.0019 408.1519,-507.0019 408.1519,-465.7981 482.5431,-465.7981 482.5431,-507.0019"/>
<text text-anchor="middle" x="445.3475" y="-490.6" font-family="Times,serif" font-size="14.00" fill="#000000">leaf node &#160;</text>
<text text-anchor="middle" x="445.3475" y="-473.8" font-family="Times,serif" font-size="14.00" fill="#000000">size = &#160;25 </text>
</g>
<!-- 5&#45;&gt;9 -->
<g id="edge23" class="edge">
<title>5&#45;&gt;9</title>
<path fill="none" stroke="#000000" d="M528.7918,-545.8062C515.0941,-536.0544 497.9598,-523.8561 482.7874,-513.0545"/>
<polygon fill="#000000" stroke="#000000" points="484.7708,-510.1701 474.5944,-507.2217 480.711,-515.8726 484.7708,-510.1701"/>
</g>
<!-- 10 -->
<g id="node25" class="node">
<title>10</title>
<polygon fill="none" stroke="#000000" points="620.0082,-504.4 500.6868,-504.4 500.6868,-468.4 620.0082,-468.4 620.0082,-504.4"/>
<text text-anchor="middle" x="560.3475" y="-482.2" font-family="Times,serif" font-size="14.00" fill="#000000"> fam_comun &lt;= 0 </text>
</g>
<!-- 5&#45;&gt;10 -->
<g id="edge24" class="edge">
<title>5&#45;&gt;10</title>
<path fill="none" stroke="#000000" d="M555.7694,-545.6099C556.4793,-536.429 557.3539,-525.1167 558.1479,-514.8482"/>
<polygon fill="#000000" stroke="#000000" points="561.6544,-514.8982 558.9358,-504.6581 554.6752,-514.3585 561.6544,-514.8982"/>
</g>
<!-- 11 -->
<g id="node30" class="node">
<title>11</title>
<polygon fill="#c1b2ff" stroke="#c1b2ff" points="716.5431,-507.0019 642.1519,-507.0019 642.1519,-465.7981 716.5431,-465.7981 716.5431,-507.0019"/>
<text text-anchor="middle" x="679.3475" y="-490.6" font-family="Times,serif" font-size="14.00" fill="#000000">leaf node &#160;</text>
<text text-anchor="middle" x="679.3475" y="-473.8" font-family="Times,serif" font-size="14.00" fill="#000000">size = &#160;9 </text>
</g>
<!-- 6&#45;&gt;11 -->
<g id="edge29" class="edge">
<title>6&#45;&gt;11</title>
<path fill="none" stroke="#000000" d="M681.6365,-545.6099C681.3083,-537.1181 680.9095,-526.8029 680.5373,-517.1766"/>
<polygon fill="#000000" stroke="#000000" points="684.0323,-516.9778 680.1486,-507.1205 677.0376,-517.2483 684.0323,-516.9778"/>
</g>
<!-- 12 -->
<g id="node31" class="node">
<title>12</title>
<polygon fill="none" stroke="#000000" points="859.9523,-504.4 734.7427,-504.4 734.7427,-468.4 859.9523,-468.4 859.9523,-504.4"/>
<text text-anchor="middle" x="797.3475" y="-482.2" font-family="Times,serif" font-size="14.00" fill="#000000"> prestamo &lt;= 1900 </text>
</g>
<!-- 6&#45;&gt;12 -->
<g id="edge30" class="edge">
<title>6&#45;&gt;12</title>
<path fill="none" stroke="#000000" d="M709.3099,-545.8062C725.0262,-535.2012 745.0303,-521.7028 761.9971,-510.2538"/>
<polygon fill="#000000" stroke="#000000" points="764.2224,-512.9746 770.554,-504.4798 760.307,-507.172 764.2224,-512.9746"/>
</g>
<!-- 15 -->
<g id="node26" class="node">
<title>15</title>
<polygon fill="none" stroke="#000000" points="511.5083,-426.8 413.1867,-426.8 413.1867,-390.8 511.5083,-390.8 511.5083,-426.8"/>
<text text-anchor="middle" x="462.3475" y="-404.6" font-family="Times,serif" font-size="14.00" fill="#000000"> telefono &lt;= 0 </text>
</g>
<!-- 10&#45;&gt;15 -->
<g id="edge25" class="edge">
<title>10&#45;&gt;15</title>
<path fill="none" stroke="#000000" d="M537.1229,-468.0099C524.0639,-457.6693 507.5903,-444.6249 493.4313,-433.4133"/>
<polygon fill="#000000" stroke="#000000" points="495.418,-430.5221 485.4054,-427.0581 491.0725,-436.0099 495.418,-430.5221"/>
</g>
<!-- 16 -->
<g id="node27" class="node">
<title>16</title>
<polygon fill="#c1b2ff" stroke="#c1b2ff" points="604.5431,-429.4019 530.1519,-429.4019 530.1519,-388.1981 604.5431,-388.1981 604.5431,-429.4019"/>
<text text-anchor="middle" x="567.3475" y="-413" font-family="Times,serif" font-size="14.00" fill="#000000">leaf node &#160;</text>
<text text-anchor="middle" x="567.3475" y="-396.2" font-family="Times,serif" font-size="14.00" fill="#000000">size = &#160;14 </text>
</g>
<!-- 10&#45;&gt;16 -->
<g id="edge26" class="edge">
<title>10&#45;&gt;16</title>
<path fill="none" stroke="#000000" d="M562.0064,-468.0099C562.7724,-459.5181 563.7029,-449.2029 564.5713,-439.5766"/>
<polygon fill="#000000" stroke="#000000" points="568.0657,-439.7945 565.4784,-429.5205 561.094,-439.1656 568.0657,-439.7945"/>
</g>
<!-- 21 -->
<g id="node28" class="node">
<title>21</title>
<polygon fill="#c1b2ff" stroke="#c1b2ff" points="455.5431,-351.8019 381.1519,-351.8019 381.1519,-310.5981 455.5431,-310.5981 455.5431,-351.8019"/>
<text text-anchor="middle" x="418.3475" y="-335.4" font-family="Times,serif" font-size="14.00" fill="#000000">leaf node &#160;</text>
<text text-anchor="middle" x="418.3475" y="-318.6" font-family="Times,serif" font-size="14.00" fill="#000000">size = &#160;10 </text>
</g>
<!-- 15&#45;&gt;21 -->
<g id="edge27" class="edge">
<title>15&#45;&gt;21</title>
<path fill="none" stroke="#000000" d="M451.9201,-390.4099C446.9003,-381.5567 440.7567,-370.7217 435.1036,-360.7517"/>
<polygon fill="#000000" stroke="#000000" points="438.0733,-358.8931 430.0962,-351.9205 431.984,-362.3458 438.0733,-358.8931"/>
</g>
<!-- 22 -->
<g id="node29" class="node">
<title>22</title>
<polygon fill="#c1b2ff" stroke="#c1b2ff" points="548.5431,-351.8019 474.1519,-351.8019 474.1519,-310.5981 548.5431,-310.5981 548.5431,-351.8019"/>
<text text-anchor="middle" x="511.3475" y="-335.4" font-family="Times,serif" font-size="14.00" fill="#000000">leaf node &#160;</text>
<text text-anchor="middle" x="511.3475" y="-318.6" font-family="Times,serif" font-size="14.00" fill="#000000">size = &#160;12 </text>
</g>
<!-- 15&#45;&gt;22 -->
<g id="edge28" class="edge">
<title>15&#45;&gt;22</title>
<path fill="none" stroke="#000000" d="M473.9598,-390.4099C479.6071,-381.4664 486.5316,-370.5003 492.8798,-360.4468"/>
<polygon fill="#000000" stroke="#000000" points="495.8839,-362.2446 498.2637,-351.9205 489.9651,-358.5072 495.8839,-362.2446"/>
</g>
<!-- 17 -->
<g id="node32" class="node">
<title>17</title>
<polygon fill="none" stroke="#000000" points="781.4531,-426.8 681.2419,-426.8 681.2419,-390.8 781.4531,-390.8 781.4531,-426.8"/>
<text text-anchor="middle" x="731.3475" y="-404.6" font-family="Times,serif" font-size="14.00" fill="#000000"> faltas &lt;= 0.14 </text>
</g>
<!-- 12&#45;&gt;17 -->
<g id="edge31" class="edge">
<title>12&#45;&gt;17</title>
<path fill="none" stroke="#000000" d="M781.7064,-468.0099C773.2404,-458.0558 762.6434,-445.5964 753.3572,-434.6781"/>
<polygon fill="#000000" stroke="#000000" points="756.0212,-432.408 746.8763,-427.0581 750.689,-436.9432 756.0212,-432.408"/>
</g>
<!-- 18 -->
<g id="node33" class="node">
<title>18</title>
<polygon fill="none" stroke="#000000" points="880.6174,-426.8 800.0776,-426.8 800.0776,-390.8 880.6174,-390.8 880.6174,-426.8"/>
<text text-anchor="middle" x="840.3475" y="-404.6" font-family="Times,serif" font-size="14.00" fill="#000000"> renta &lt;= 0 </text>
</g>
<!-- 12&#45;&gt;18 -->
<g id="edge32" class="edge">
<title>12&#45;&gt;18</title>
<path fill="none" stroke="#000000" d="M807.5379,-468.0099C812.8395,-458.4424 819.4236,-446.5603 825.2992,-435.9569"/>
<polygon fill="#000000" stroke="#000000" points="828.4448,-437.5014 830.2302,-427.0581 822.3219,-434.1086 828.4448,-437.5014"/>
</g>
<!-- 23 -->
<g id="node34" class="node">
<title>23</title>
<polygon fill="none" stroke="#000000" points="662.5662,-349.2 576.1288,-349.2 576.1288,-313.2 662.5662,-313.2 662.5662,-349.2"/>
<text text-anchor="middle" x="619.3475" y="-327" font-family="Times,serif" font-size="14.00" fill="#000000"> edad &lt;= 40 </text>
</g>
<!-- 17&#45;&gt;23 -->
<g id="edge33" class="edge">
<title>17&#45;&gt;23</title>
<path fill="none" stroke="#000000" d="M705.0885,-390.6062C689.7822,-380.0012 670.2999,-366.5028 653.7757,-355.0538"/>
<polygon fill="#000000" stroke="#000000" points="655.6551,-352.098 645.442,-349.2798 651.6685,-357.8519 655.6551,-352.098"/>
</g>
<!-- 24 -->
<g id="node35" class="node">
<title>24</title>
<polygon fill="none" stroke="#000000" points="784.4524,-349.2 680.2426,-349.2 680.2426,-313.2 784.4524,-313.2 784.4524,-349.2"/>
<text text-anchor="middle" x="732.3475" y="-327" font-family="Times,serif" font-size="14.00" fill="#000000"> medicina &lt;= 0 </text>
</g>
<!-- 17&#45;&gt;24 -->
<g id="edge34" class="edge">
<title>17&#45;&gt;24</title>
<path fill="none" stroke="#000000" d="M731.5845,-390.4099C731.7028,-381.229 731.8486,-369.9167 731.9809,-359.6482"/>
<polygon fill="#000000" stroke="#000000" points="735.483,-359.5024 732.1122,-349.4581 728.4836,-359.4121 735.483,-359.5024"/>
</g>
<!-- 25 -->
<g id="node40" class="node">
<title>25</title>
<polygon fill="#c1b2ff" stroke="#c1b2ff" points="877.5431,-351.8019 803.1519,-351.8019 803.1519,-310.5981 877.5431,-310.5981 877.5431,-351.8019"/>
<text text-anchor="middle" x="840.3475" y="-335.4" font-family="Times,serif" font-size="14.00" fill="#000000">leaf node &#160;</text>
<text text-anchor="middle" x="840.3475" y="-318.6" font-family="Times,serif" font-size="14.00" fill="#000000">size = &#160;23 </text>
</g>
<!-- 18&#45;&gt;25 -->
<g id="edge39" class="edge">
<title>18&#45;&gt;25</title>
<path fill="none" stroke="#000000" d="M840.3475,-390.4099C840.3475,-381.9181 840.3475,-371.6029 840.3475,-361.9766"/>
<polygon fill="#000000" stroke="#000000" points="843.8476,-361.9205 840.3475,-351.9205 836.8476,-361.9205 843.8476,-361.9205"/>
</g>
<!-- 26 -->
<g id="node41" class="node">
<title>26</title>
<polygon fill="#c1b2ff" stroke="#c1b2ff" points="970.5431,-351.8019 896.1519,-351.8019 896.1519,-310.5981 970.5431,-310.5981 970.5431,-351.8019"/>
<text text-anchor="middle" x="933.3475" y="-335.4" font-family="Times,serif" font-size="14.00" fill="#000000">leaf node &#160;</text>
<text text-anchor="middle" x="933.3475" y="-318.6" font-family="Times,serif" font-size="14.00" fill="#000000">size = &#160;9 </text>
</g>
<!-- 18&#45;&gt;26 -->
<g id="edge40" class="edge">
<title>18&#45;&gt;26</title>
<path fill="none" stroke="#000000" d="M862.3872,-390.4099C873.8634,-380.834 888.1185,-368.9395 900.8347,-358.3289"/>
<polygon fill="#000000" stroke="#000000" points="903.0791,-361.0146 908.5149,-351.9205 898.5944,-355.6399 903.0791,-361.0146"/>
</g>
<!-- 31 -->
<g id="node36" class="node">
<title>31</title>
<polygon fill="#c1b2ff" stroke="#c1b2ff" points="568.5431,-274.2019 494.1519,-274.2019 494.1519,-232.9981 568.5431,-232.9981 568.5431,-274.2019"/>
<text text-anchor="middle" x="531.3475" y="-257.8" font-family="Times,serif" font-size="14.00" fill="#000000">leaf node &#160;</text>
<text text-anchor="middle" x="531.3475" y="-241" font-family="Times,serif" font-size="14.00" fill="#000000">size = &#160;10 </text>
</g>
<!-- 23&#45;&gt;31 -->
<g id="edge35" class="edge">
<title>23&#45;&gt;31</title>
<path fill="none" stroke="#000000" d="M598.4927,-312.8099C587.7359,-303.3243 574.3991,-291.5637 562.4532,-281.0296"/>
<polygon fill="#000000" stroke="#000000" points="564.6603,-278.3094 554.845,-274.3205 560.0305,-283.5596 564.6603,-278.3094"/>
</g>
<!-- 32 -->
<g id="node37" class="node">
<title>32</title>
<polygon fill="#c1b2ff" stroke="#c1b2ff" points="661.5431,-274.2019 587.1519,-274.2019 587.1519,-232.9981 661.5431,-232.9981 661.5431,-274.2019"/>
<text text-anchor="middle" x="624.3475" y="-257.8" font-family="Times,serif" font-size="14.00" fill="#000000">leaf node &#160;</text>
<text text-anchor="middle" x="624.3475" y="-241" font-family="Times,serif" font-size="14.00" fill="#000000">size = &#160;7 </text>
</g>
<!-- 23&#45;&gt;32 -->
<g id="edge36" class="edge">
<title>23&#45;&gt;32</title>
<path fill="none" stroke="#000000" d="M620.5324,-312.8099C621.0796,-304.3181 621.7442,-294.0029 622.3645,-284.3766"/>
<polygon fill="#000000" stroke="#000000" points="625.8621,-284.5249 623.0124,-274.3205 618.8766,-284.0747 625.8621,-284.5249"/>
</g>
<!-- 33 -->
<g id="node38" class="node">
<title>33</title>
<polygon fill="#c1b2ff" stroke="#c1b2ff" points="764.5431,-274.2019 690.1519,-274.2019 690.1519,-232.9981 764.5431,-232.9981 764.5431,-274.2019"/>
<text text-anchor="middle" x="727.3475" y="-257.8" font-family="Times,serif" font-size="14.00" fill="#000000">leaf node &#160;</text>
<text text-anchor="middle" x="727.3475" y="-241" font-family="Times,serif" font-size="14.00" fill="#000000">size = &#160;16 </text>
</g>
<!-- 24&#45;&gt;33 -->
<g id="edge37" class="edge">
<title>24&#45;&gt;33</title>
<path fill="none" stroke="#000000" d="M731.1626,-312.8099C730.6154,-304.3181 729.9508,-294.0029 729.3305,-284.3766"/>
<polygon fill="#000000" stroke="#000000" points="732.8184,-284.0747 728.6826,-274.3205 725.8329,-284.5249 732.8184,-284.0747"/>
</g>
<!-- 34 -->
<g id="node39" class="node">
<title>34</title>
<polygon fill="#c1b2ff" stroke="#c1b2ff" points="857.5431,-274.2019 783.1519,-274.2019 783.1519,-232.9981 857.5431,-232.9981 857.5431,-274.2019"/>
<text text-anchor="middle" x="820.3475" y="-257.8" font-family="Times,serif" font-size="14.00" fill="#000000">leaf node &#160;</text>
<text text-anchor="middle" x="820.3475" y="-241" font-family="Times,serif" font-size="14.00" fill="#000000">size = &#160;15 </text>
</g>
<!-- 24&#45;&gt;34 -->
<g id="edge38" class="edge">
<title>24&#45;&gt;34</title>
<path fill="none" stroke="#000000" d="M753.2023,-312.8099C763.9591,-303.3243 777.2959,-291.5637 789.2418,-281.0296"/>
<polygon fill="#000000" stroke="#000000" points="791.6645,-283.5596 796.85,-274.3205 787.0347,-278.3094 791.6645,-283.5596"/>
</g>
</g>
</svg>
