<?xml version="1.0" encoding="UTF-8" standalone="no"?>
<!DOCTYPE svg PUBLIC "-//W3C//DTD SVG 1.1//EN"
 "http://www.w3.org/Graphics/SVG/1.1/DTD/svg11.dtd">
<!-- Generated by graphviz version 2.40.1 (20161225.0304)
 -->
<!-- Title: nodes Pages: 1 -->
<svg width="1493pt" height="660pt"
 viewBox="0.00 0.00 1493.32 660.00" xmlns="http://www.w3.org/2000/svg" xmlns:xlink="http://www.w3.org/1999/xlink">
<g id="graph0" class="graph" transform="scale(1 1) rotate(0) translate(4 656)">
<title>nodes</title>
<polygon fill="#ffffff" stroke="transparent" points="-4,4 -4,-656 1489.3238,-656 1489.3238,4 -4,4"/>
<!-- 0 -->
<g id="node1" class="node">
<title>0</title>
<polygon fill="none" stroke="#000000" points="1083.7113,-652 935.6125,-652 935.6125,-616 1083.7113,-616 1083.7113,-652"/>
<text text-anchor="middle" x="1009.6619" y="-629.8" font-family="Times,serif" font-size="14.00" fill="#000000"> subj.loan.value &lt;= 0.6 </text>
</g>
<!-- 1 -->
<g id="node2" class="node">
<title>1</title>
<polygon fill="none" stroke="#000000" points="917.3806,-580 837.9432,-580 837.9432,-544 917.3806,-544 917.3806,-580"/>
<text text-anchor="middle" x="877.6619" y="-557.8" font-family="Times,serif" font-size="14.00" fill="#000000"> age &lt;= 39 </text>
</g>
<!-- 0&#45;&gt;1 -->
<g id="edge1" class="edge">
<title>0&#45;&gt;1</title>
<path fill="none" stroke="#000000" d="M976.3527,-615.8314C959.2346,-606.4942 938.1913,-595.016 919.9397,-585.0606"/>
<polygon fill="#000000" stroke="#000000" points="921.4154,-581.8788 910.9604,-580.1628 918.0634,-588.024 921.4154,-581.8788"/>
<text text-anchor="middle" x="918.0146" y="-599.947" font-family="Times,serif" font-size="14.00" fill="#000000">True</text>
</g>
<!-- 2 -->
<g id="node3" class="node">
<title>2</title>
<polygon fill="none" stroke="#000000" points="1181.7673,-580 1053.5565,-580 1053.5565,-544 1181.7673,-544 1181.7673,-580"/>
<text text-anchor="middle" x="1117.6619" y="-557.8" font-family="Times,serif" font-size="14.00" fill="#000000"> income.index &lt;= 0 </text>
</g>
<!-- 0&#45;&gt;2 -->
<g id="edge2" class="edge">
<title>0&#45;&gt;2</title>
<path fill="none" stroke="#000000" d="M1036.9149,-615.8314C1050.6008,-606.7074 1067.3534,-595.539 1082.0446,-585.7449"/>
<polygon fill="#000000" stroke="#000000" points="1084.0386,-588.6221 1090.4177,-580.1628 1080.1557,-582.7977 1084.0386,-588.6221"/>
<text text-anchor="middle" x="1085.5148" y="-600.4773" font-family="Times,serif" font-size="14.00" fill="#000000">False</text>
</g>
<!-- 3 -->
<g id="node4" class="node">
<title>3</title>
<polygon fill="none" stroke="#000000" points="507.3806,-508 427.9432,-508 427.9432,-472 507.3806,-472 507.3806,-508"/>
<text text-anchor="middle" x="467.6619" y="-485.8" font-family="Times,serif" font-size="14.00" fill="#000000"> age &lt;= 35 </text>
</g>
<!-- 1&#45;&gt;3 -->
<g id="edge3" class="edge">
<title>1&#45;&gt;3</title>
<path fill="none" stroke="#000000" d="M837.9768,-555.0309C762.7385,-541.8183 599.5306,-513.1574 517.2321,-498.705"/>
<polygon fill="#000000" stroke="#000000" points="517.8235,-495.2554 507.3688,-496.9729 516.6127,-502.1499 517.8235,-495.2554"/>
</g>
<!-- 4 -->
<g id="node5" class="node">
<title>4</title>
<polygon fill="none" stroke="#000000" points="928.5416,-508 826.7822,-508 826.7822,-472 928.5416,-472 928.5416,-508"/>
<text text-anchor="middle" x="877.6619" y="-485.8" font-family="Times,serif" font-size="14.00" fill="#000000"> branch.5 &lt;= 0 </text>
</g>
<!-- 1&#45;&gt;4 -->
<g id="edge4" class="edge">
<title>1&#45;&gt;4</title>
<path fill="none" stroke="#000000" d="M877.6619,-543.8314C877.6619,-536.131 877.6619,-526.9743 877.6619,-518.4166"/>
<polygon fill="#000000" stroke="#000000" points="881.162,-518.4132 877.6619,-508.4133 874.162,-518.4133 881.162,-518.4132"/>
</g>
<!-- 5 -->
<g id="node36" class="node">
<title>5</title>
<polygon fill="none" stroke="#000000" points="1195.2113,-508 1040.1125,-508 1040.1125,-472 1195.2113,-472 1195.2113,-508"/>
<text text-anchor="middle" x="1117.6619" y="-485.8" font-family="Times,serif" font-size="14.00" fill="#000000"> subj.loan.value &lt;= 1.07 </text>
</g>
<!-- 2&#45;&gt;5 -->
<g id="edge35" class="edge">
<title>2&#45;&gt;5</title>
<path fill="none" stroke="#000000" d="M1117.6619,-543.8314C1117.6619,-536.131 1117.6619,-526.9743 1117.6619,-518.4166"/>
<polygon fill="#000000" stroke="#000000" points="1121.162,-518.4132 1117.6619,-508.4133 1114.162,-518.4133 1121.162,-518.4132"/>
</g>
<!-- 6 -->
<g id="node37" class="node">
<title>6</title>
<polygon fill="none" stroke="#000000" points="1394.6573,-508 1244.6665,-508 1244.6665,-472 1394.6573,-472 1394.6573,-508"/>
<text text-anchor="middle" x="1319.6619" y="-485.8" font-family="Times,serif" font-size="14.00" fill="#000000"> more.high.school &lt;= 0 </text>
</g>
<!-- 2&#45;&gt;6 -->
<g id="edge36" class="edge">
<title>2&#45;&gt;6</title>
<path fill="none" stroke="#000000" d="M1168.3743,-543.9243C1195.9889,-534.0815 1230.3369,-521.8386 1259.322,-511.5073"/>
<polygon fill="#000000" stroke="#000000" points="1260.6842,-514.7375 1268.9286,-508.0831 1258.334,-508.1438 1260.6842,-514.7375"/>
</g>
<!-- 7 -->
<g id="node6" class="node">
<title>7</title>
<polygon fill="none" stroke="#000000" points="361.3722,-424.8 201.9516,-424.8 201.9516,-388.8 361.3722,-388.8 361.3722,-424.8"/>
<text text-anchor="middle" x="281.6619" y="-402.6" font-family="Times,serif" font-size="14.00" fill="#000000"> subj.loan.value &lt;= &#45;0.43 </text>
</g>
<!-- 3&#45;&gt;7 -->
<g id="edge5" class="edge">
<title>3&#45;&gt;7</title>
<path fill="none" stroke="#000000" d="M427.7602,-472.1515C399.6349,-459.5707 361.7657,-442.6314 331.6298,-429.1513"/>
<polygon fill="#000000" stroke="#000000" points="332.6969,-425.7944 322.1394,-424.9061 329.8386,-432.1843 332.6969,-425.7944"/>
</g>
<!-- 8 -->
<g id="node7" class="node">
<title>8</title>
<polygon fill="none" stroke="#000000" points="518.1615,-424.8 417.1623,-424.8 417.1623,-388.8 518.1615,-388.8 518.1615,-424.8"/>
<text text-anchor="middle" x="467.6619" y="-402.6" font-family="Times,serif" font-size="14.00" fill="#000000"> thurdsay &lt;= 0 </text>
</g>
<!-- 3&#45;&gt;8 -->
<g id="edge6" class="edge">
<title>3&#45;&gt;8</title>
<path fill="none" stroke="#000000" d="M467.6619,-471.9468C467.6619,-461.1532 467.6619,-447.2061 467.6619,-434.9876"/>
<polygon fill="#000000" stroke="#000000" points="471.162,-434.8179 467.6619,-424.8179 464.162,-434.818 471.162,-434.8179"/>
</g>
<!-- 9 -->
<g id="node20" class="node">
<title>9</title>
<polygon fill="none" stroke="#000000" points="865.5416,-424.8 763.7822,-424.8 763.7822,-388.8 865.5416,-388.8 865.5416,-424.8"/>
<text text-anchor="middle" x="814.6619" y="-402.6" font-family="Times,serif" font-size="14.00" fill="#000000"> branch.3 &lt;= 0 </text>
</g>
<!-- 4&#45;&gt;9 -->
<g id="edge19" class="edge">
<title>4&#45;&gt;9</title>
<path fill="none" stroke="#000000" d="M863.9918,-471.9468C855.406,-460.6081 844.185,-445.7892 834.6146,-433.1502"/>
<polygon fill="#000000" stroke="#000000" points="837.1324,-430.6774 828.3053,-424.8179 831.5517,-434.9031 837.1324,-430.6774"/>
</g>
<!-- 10 -->
<g id="node21" class="node">
<title>10</title>
<polygon fill="none" stroke="#000000" points="1018.7673,-424.8 890.5565,-424.8 890.5565,-388.8 1018.7673,-388.8 1018.7673,-424.8"/>
<text text-anchor="middle" x="954.6619" y="-402.6" font-family="Times,serif" font-size="14.00" fill="#000000"> income.index &lt;= 0 </text>
</g>
<!-- 4&#45;&gt;10 -->
<g id="edge20" class="edge">
<title>4&#45;&gt;10</title>
<path fill="none" stroke="#000000" d="M894.3698,-471.9468C905.0654,-460.39 919.1068,-445.218 930.9478,-432.4235"/>
<polygon fill="#000000" stroke="#000000" points="933.763,-434.5345 937.9867,-424.8179 928.6256,-429.7799 933.763,-434.5345"/>
</g>
<!-- 15 -->
<g id="node8" class="node">
<title>15</title>
<polygon fill="none" stroke="#000000" points="211.0368,-330.4 120.287,-330.4 120.287,-294.4 211.0368,-294.4 211.0368,-330.4"/>
<text text-anchor="middle" x="165.6619" y="-308.2" font-family="Times,serif" font-size="14.00" fill="#000000"> female &lt;= 0 </text>
</g>
<!-- 7&#45;&gt;15 -->
<g id="edge7" class="edge">
<title>7&#45;&gt;15</title>
<path fill="none" stroke="#000000" d="M259.2959,-388.5987C241.2423,-373.9068 215.6683,-353.0948 195.8081,-336.9328"/>
<polygon fill="#000000" stroke="#000000" points="197.9247,-334.1427 187.9592,-330.5454 193.5063,-339.5721 197.9247,-334.1427"/>
</g>
<!-- 16 -->
<g id="node9" class="node">
<title>16</title>
<polygon fill="none" stroke="#000000" points="321.3806,-330.4 241.9432,-330.4 241.9432,-294.4 321.3806,-294.4 321.3806,-330.4"/>
<text text-anchor="middle" x="281.6619" y="-308.2" font-family="Times,serif" font-size="14.00" fill="#000000"> age &lt;= 31 </text>
</g>
<!-- 7&#45;&gt;16 -->
<g id="edge8" class="edge">
<title>7&#45;&gt;16</title>
<path fill="none" stroke="#000000" d="M281.6619,-388.5987C281.6619,-375.0169 281.6619,-356.2048 281.6619,-340.6711"/>
<polygon fill="#000000" stroke="#000000" points="285.162,-340.5454 281.6619,-330.5454 278.162,-340.5454 285.162,-340.5454"/>
</g>
<!-- 17 -->
<g id="node18" class="node">
<title>17</title>
<polygon fill="#c1b2ff" stroke="#c1b2ff" points="438.4862,-341.8014 338.8376,-341.8014 338.8376,-282.9986 438.4862,-282.9986 438.4862,-341.8014"/>
<text text-anchor="middle" x="388.6619" y="-325" font-family="Times,serif" font-size="14.00" fill="#000000">size = &#160;16 </text>
<text text-anchor="middle" x="388.6619" y="-308.2" font-family="Times,serif" font-size="14.00" fill="#000000"> avg_Y = 1.91</text>
<text text-anchor="middle" x="388.6619" y="-291.4" font-family="Times,serif" font-size="14.00" fill="#000000">avg_W = 0.31 </text>
</g>
<!-- 8&#45;&gt;17 -->
<g id="edge17" class="edge">
<title>8&#45;&gt;17</title>
<path fill="none" stroke="#000000" d="M452.4299,-388.5987C443.1347,-377.4915 430.9121,-362.8863 419.6567,-349.4369"/>
<polygon fill="#000000" stroke="#000000" points="422.2729,-347.1094 413.1709,-341.6868 416.9047,-351.6019 422.2729,-347.1094"/>
</g>
<!-- 18 -->
<g id="node19" class="node">
<title>18</title>
<polygon fill="#c1b2ff" stroke="#c1b2ff" points="552.8779,-341.8014 456.4459,-341.8014 456.4459,-282.9986 552.8779,-282.9986 552.8779,-341.8014"/>
<text text-anchor="middle" x="504.6619" y="-325" font-family="Times,serif" font-size="14.00" fill="#000000">size = &#160;5 </text>
<text text-anchor="middle" x="504.6619" y="-308.2" font-family="Times,serif" font-size="14.00" fill="#000000"> avg_Y = 2.02</text>
<text text-anchor="middle" x="504.6619" y="-291.4" font-family="Times,serif" font-size="14.00" fill="#000000">avg_W = 0.6 </text>
</g>
<!-- 8&#45;&gt;18 -->
<g id="edge18" class="edge">
<title>8&#45;&gt;18</title>
<path fill="none" stroke="#000000" d="M474.7959,-388.5987C478.9459,-378.0105 484.3418,-364.2436 489.4036,-351.3294"/>
<polygon fill="#000000" stroke="#000000" points="492.7924,-352.2744 493.183,-341.6868 486.2751,-349.7199 492.7924,-352.2744"/>
</g>
<!-- 23 -->
<g id="node10" class="node">
<title>23</title>
<polygon fill="#c1b2ff" stroke="#c1b2ff" points="108.4862,-247.4014 8.8376,-247.4014 8.8376,-188.5986 108.4862,-188.5986 108.4862,-247.4014"/>
<text text-anchor="middle" x="58.6619" y="-230.6" font-family="Times,serif" font-size="14.00" fill="#000000">size = &#160;14 </text>
<text text-anchor="middle" x="58.6619" y="-213.8" font-family="Times,serif" font-size="14.00" fill="#000000"> avg_Y = 2.04</text>
<text text-anchor="middle" x="58.6619" y="-197" font-family="Times,serif" font-size="14.00" fill="#000000">avg_W = 0.64 </text>
</g>
<!-- 15&#45;&gt;23 -->
<g id="edge9" class="edge">
<title>15&#45;&gt;23</title>
<path fill="none" stroke="#000000" d="M145.0312,-294.1987C132.0885,-282.7801 114.9554,-267.6646 99.3632,-253.9084"/>
<polygon fill="#000000" stroke="#000000" points="101.672,-251.278 91.8577,-247.2868 97.041,-256.5271 101.672,-251.278"/>
</g>
<!-- 24 -->
<g id="node11" class="node">
<title>24</title>
<polygon fill="none" stroke="#000000" points="205.3806,-236 125.9432,-236 125.9432,-200 205.3806,-200 205.3806,-236"/>
<text text-anchor="middle" x="165.6619" y="-213.8" font-family="Times,serif" font-size="14.00" fill="#000000"> age &lt;= 28 </text>
</g>
<!-- 15&#45;&gt;24 -->
<g id="edge10" class="edge">
<title>15&#45;&gt;24</title>
<path fill="none" stroke="#000000" d="M165.6619,-294.1987C165.6619,-280.6169 165.6619,-261.8048 165.6619,-246.2711"/>
<polygon fill="#000000" stroke="#000000" points="169.162,-246.1454 165.6619,-236.1454 162.162,-246.1454 169.162,-246.1454"/>
</g>
<!-- 25 -->
<g id="node14" class="node">
<title>25</title>
<polygon fill="none" stroke="#000000" points="321.3806,-236 241.9432,-236 241.9432,-200 321.3806,-200 321.3806,-236"/>
<text text-anchor="middle" x="281.6619" y="-213.8" font-family="Times,serif" font-size="14.00" fill="#000000"> age &lt;= 27 </text>
</g>
<!-- 16&#45;&gt;25 -->
<g id="edge13" class="edge">
<title>16&#45;&gt;25</title>
<path fill="none" stroke="#000000" d="M281.6619,-294.1987C281.6619,-280.6169 281.6619,-261.8048 281.6619,-246.2711"/>
<polygon fill="#000000" stroke="#000000" points="285.162,-246.1454 281.6619,-236.1454 278.162,-246.1454 285.162,-246.1454"/>
</g>
<!-- 26 -->
<g id="node15" class="node">
<title>26</title>
<polygon fill="#c1b2ff" stroke="#c1b2ff" points="438.4862,-247.4014 338.8376,-247.4014 338.8376,-188.5986 438.4862,-188.5986 438.4862,-247.4014"/>
<text text-anchor="middle" x="388.6619" y="-230.6" font-family="Times,serif" font-size="14.00" fill="#000000">size = &#160;11 </text>
<text text-anchor="middle" x="388.6619" y="-213.8" font-family="Times,serif" font-size="14.00" fill="#000000"> avg_Y = 1.93</text>
<text text-anchor="middle" x="388.6619" y="-197" font-family="Times,serif" font-size="14.00" fill="#000000">avg_W = 0.27 </text>
</g>
<!-- 16&#45;&gt;26 -->
<g id="edge14" class="edge">
<title>16&#45;&gt;26</title>
<path fill="none" stroke="#000000" d="M302.2926,-294.1987C315.2353,-282.7801 332.3684,-267.6646 347.9606,-253.9084"/>
<polygon fill="#000000" stroke="#000000" points="350.2828,-256.5271 355.4661,-247.2868 345.6518,-251.278 350.2828,-256.5271"/>
</g>
<!-- 31 -->
<g id="node12" class="node">
<title>31</title>
<polygon fill="#c1b2ff" stroke="#c1b2ff" points="99.4862,-153.0014 -.1624,-153.0014 -.1624,-94.1986 99.4862,-94.1986 99.4862,-153.0014"/>
<text text-anchor="middle" x="49.6619" y="-136.2" font-family="Times,serif" font-size="14.00" fill="#000000">size = &#160;18 </text>
<text text-anchor="middle" x="49.6619" y="-119.4" font-family="Times,serif" font-size="14.00" fill="#000000"> avg_Y = 1.9</text>
<text text-anchor="middle" x="49.6619" y="-102.6" font-family="Times,serif" font-size="14.00" fill="#000000">avg_W = 0.67 </text>
</g>
<!-- 24&#45;&gt;31 -->
<g id="edge11" class="edge">
<title>24&#45;&gt;31</title>
<path fill="none" stroke="#000000" d="M143.2959,-199.7987C129.2645,-188.3801 110.6904,-173.2646 93.7867,-159.5084"/>
<polygon fill="#000000" stroke="#000000" points="95.6153,-156.4841 85.6499,-152.8868 91.1969,-161.9134 95.6153,-156.4841"/>
</g>
<!-- 32 -->
<g id="node13" class="node">
<title>32</title>
<polygon fill="#c1b2ff" stroke="#c1b2ff" points="213.8779,-153.0014 117.4459,-153.0014 117.4459,-94.1986 213.8779,-94.1986 213.8779,-153.0014"/>
<text text-anchor="middle" x="165.6619" y="-136.2" font-family="Times,serif" font-size="14.00" fill="#000000">size = &#160;18 </text>
<text text-anchor="middle" x="165.6619" y="-119.4" font-family="Times,serif" font-size="14.00" fill="#000000"> avg_Y = 2.74</text>
<text text-anchor="middle" x="165.6619" y="-102.6" font-family="Times,serif" font-size="14.00" fill="#000000">avg_W = 0.5 </text>
</g>
<!-- 24&#45;&gt;32 -->
<g id="edge12" class="edge">
<title>24&#45;&gt;32</title>
<path fill="none" stroke="#000000" d="M165.6619,-199.7987C165.6619,-189.3143 165.6619,-175.7133 165.6619,-162.9095"/>
<polygon fill="#000000" stroke="#000000" points="169.162,-162.8867 165.6619,-152.8868 162.162,-162.8868 169.162,-162.8867"/>
</g>
<!-- 33 -->
<g id="node16" class="node">
<title>33</title>
<polygon fill="#c1b2ff" stroke="#c1b2ff" points="331.4862,-153.0014 231.8376,-153.0014 231.8376,-94.1986 331.4862,-94.1986 331.4862,-153.0014"/>
<text text-anchor="middle" x="281.6619" y="-136.2" font-family="Times,serif" font-size="14.00" fill="#000000">size = &#160;26 </text>
<text text-anchor="middle" x="281.6619" y="-119.4" font-family="Times,serif" font-size="14.00" fill="#000000"> avg_Y = 1.98</text>
<text text-anchor="middle" x="281.6619" y="-102.6" font-family="Times,serif" font-size="14.00" fill="#000000">avg_W = 0.77 </text>
</g>
<!-- 25&#45;&gt;33 -->
<g id="edge15" class="edge">
<title>25&#45;&gt;33</title>
<path fill="none" stroke="#000000" d="M281.6619,-199.7987C281.6619,-189.3143 281.6619,-175.7133 281.6619,-162.9095"/>
<polygon fill="#000000" stroke="#000000" points="285.162,-162.8867 281.6619,-152.8868 278.162,-162.8868 285.162,-162.8867"/>
</g>
<!-- 34 -->
<g id="node17" class="node">
<title>34</title>
<polygon fill="#c1b2ff" stroke="#c1b2ff" points="448.4862,-153.0014 348.8376,-153.0014 348.8376,-94.1986 448.4862,-94.1986 448.4862,-153.0014"/>
<text text-anchor="middle" x="398.6619" y="-136.2" font-family="Times,serif" font-size="14.00" fill="#000000">size = &#160;9 </text>
<text text-anchor="middle" x="398.6619" y="-119.4" font-family="Times,serif" font-size="14.00" fill="#000000"> avg_Y = 1.51</text>
<text text-anchor="middle" x="398.6619" y="-102.6" font-family="Times,serif" font-size="14.00" fill="#000000">avg_W = 0.33 </text>
</g>
<!-- 25&#45;&gt;34 -->
<g id="edge16" class="edge">
<title>25&#45;&gt;34</title>
<path fill="none" stroke="#000000" d="M304.2207,-199.7987C318.373,-188.3801 337.1073,-173.2646 354.1568,-159.5084"/>
<polygon fill="#000000" stroke="#000000" points="356.7788,-161.8901 362.3637,-152.8868 352.3832,-156.4422 356.7788,-161.8901"/>
</g>
<!-- 19 -->
<g id="node22" class="node">
<title>19</title>
<polygon fill="none" stroke="#000000" points="716.7667,-330.4 570.5571,-330.4 570.5571,-294.4 716.7667,-294.4 716.7667,-330.4"/>
<text text-anchor="middle" x="643.6619" y="-308.2" font-family="Times,serif" font-size="14.00" fill="#000000"> income.index &lt;= 0.14 </text>
</g>
<!-- 9&#45;&gt;19 -->
<g id="edge21" class="edge">
<title>9&#45;&gt;19</title>
<path fill="none" stroke="#000000" d="M781.6914,-388.5987C754.2499,-373.4498 715.0217,-351.794 685.3941,-335.4381"/>
<polygon fill="#000000" stroke="#000000" points="686.9773,-332.3143 676.5312,-330.5454 683.5942,-338.4425 686.9773,-332.3143"/>
</g>
<!-- 20 -->
<g id="node23" class="node">
<title>20</title>
<polygon fill="none" stroke="#000000" points="894.3722,-330.4 734.9516,-330.4 734.9516,-294.4 894.3722,-294.4 894.3722,-330.4"/>
<text text-anchor="middle" x="814.6619" y="-308.2" font-family="Times,serif" font-size="14.00" fill="#000000"> subj.loan.value &lt;= &#45;0.45 </text>
</g>
<!-- 9&#45;&gt;20 -->
<g id="edge22" class="edge">
<title>9&#45;&gt;20</title>
<path fill="none" stroke="#000000" d="M814.6619,-388.5987C814.6619,-375.0169 814.6619,-356.2048 814.6619,-340.6711"/>
<polygon fill="#000000" stroke="#000000" points="818.162,-340.5454 814.6619,-330.5454 811.162,-340.5454 818.162,-340.5454"/>
</g>
<!-- 21 -->
<g id="node34" class="node">
<title>21</title>
<polygon fill="#c1b2ff" stroke="#c1b2ff" points="1012.4862,-341.8014 912.8376,-341.8014 912.8376,-282.9986 1012.4862,-282.9986 1012.4862,-341.8014"/>
<text text-anchor="middle" x="962.6619" y="-325" font-family="Times,serif" font-size="14.00" fill="#000000">size = &#160;12 </text>
<text text-anchor="middle" x="962.6619" y="-308.2" font-family="Times,serif" font-size="14.00" fill="#000000"> avg_Y = 1.97</text>
<text text-anchor="middle" x="962.6619" y="-291.4" font-family="Times,serif" font-size="14.00" fill="#000000">avg_W = 0.58 </text>
</g>
<!-- 10&#45;&gt;21 -->
<g id="edge33" class="edge">
<title>10&#45;&gt;21</title>
<path fill="none" stroke="#000000" d="M956.2044,-388.5987C957.0929,-378.1143 958.2455,-364.5133 959.3306,-351.7095"/>
<polygon fill="#000000" stroke="#000000" points="962.8229,-351.9466 960.18,-341.6868 955.848,-351.3555 962.8229,-351.9466"/>
</g>
<!-- 22 -->
<g id="node35" class="node">
<title>22</title>
<polygon fill="#c1b2ff" stroke="#c1b2ff" points="1126.8779,-341.8014 1030.4459,-341.8014 1030.4459,-282.9986 1126.8779,-282.9986 1126.8779,-341.8014"/>
<text text-anchor="middle" x="1078.6619" y="-325" font-family="Times,serif" font-size="14.00" fill="#000000">size = &#160;18 </text>
<text text-anchor="middle" x="1078.6619" y="-308.2" font-family="Times,serif" font-size="14.00" fill="#000000"> avg_Y = 1.72</text>
<text text-anchor="middle" x="1078.6619" y="-291.4" font-family="Times,serif" font-size="14.00" fill="#000000">avg_W = 0.5 </text>
</g>
<!-- 10&#45;&gt;22 -->
<g id="edge34" class="edge">
<title>10&#45;&gt;22</title>
<path fill="none" stroke="#000000" d="M978.5703,-388.5987C993.7058,-377.0763 1013.786,-361.7894 1031.9864,-347.9336"/>
<polygon fill="#000000" stroke="#000000" points="1034.3554,-350.529 1040.192,-341.6868 1030.1152,-344.9593 1034.3554,-350.529"/>
</g>
<!-- 27 -->
<g id="node24" class="node">
<title>27</title>
<polygon fill="none" stroke="#000000" points="620.3722,-236 460.9516,-236 460.9516,-200 620.3722,-200 620.3722,-236"/>
<text text-anchor="middle" x="540.6619" y="-213.8" font-family="Times,serif" font-size="14.00" fill="#000000"> subj.loan.value &lt;= &#45;0.21 </text>
</g>
<!-- 19&#45;&gt;27 -->
<g id="edge23" class="edge">
<title>19&#45;&gt;27</title>
<path fill="none" stroke="#000000" d="M623.8025,-294.1987C607.9859,-279.7027 585.6685,-259.2487 568.1377,-243.1817"/>
<polygon fill="#000000" stroke="#000000" points="570.1973,-240.3218 560.4604,-236.1454 565.4677,-245.4823 570.1973,-240.3218"/>
</g>
<!-- 28 -->
<g id="node25" class="node">
<title>28</title>
<polygon fill="#c1b2ff" stroke="#c1b2ff" points="734.8779,-247.4014 638.4459,-247.4014 638.4459,-188.5986 734.8779,-188.5986 734.8779,-247.4014"/>
<text text-anchor="middle" x="686.6619" y="-230.6" font-family="Times,serif" font-size="14.00" fill="#000000">size = &#160;27 </text>
<text text-anchor="middle" x="686.6619" y="-213.8" font-family="Times,serif" font-size="14.00" fill="#000000"> avg_Y = 1.12</text>
<text text-anchor="middle" x="686.6619" y="-197" font-family="Times,serif" font-size="14.00" fill="#000000">avg_W = 0.7 </text>
</g>
<!-- 19&#45;&gt;28 -->
<g id="edge24" class="edge">
<title>19&#45;&gt;28</title>
<path fill="none" stroke="#000000" d="M651.9527,-294.1987C656.823,-283.5067 663.1698,-269.5734 669.1021,-256.5498"/>
<polygon fill="#000000" stroke="#000000" points="672.3613,-257.838 673.3215,-247.2868 665.9911,-254.9363 672.3613,-257.838"/>
</g>
<!-- 29 -->
<g id="node32" class="node">
<title>29</title>
<polygon fill="#c1b2ff" stroke="#c1b2ff" points="860.4862,-247.4014 760.8376,-247.4014 760.8376,-188.5986 860.4862,-188.5986 860.4862,-247.4014"/>
<text text-anchor="middle" x="810.6619" y="-230.6" font-family="Times,serif" font-size="14.00" fill="#000000">size = &#160;6 </text>
<text text-anchor="middle" x="810.6619" y="-213.8" font-family="Times,serif" font-size="14.00" fill="#000000"> avg_Y = 0.83</text>
<text text-anchor="middle" x="810.6619" y="-197" font-family="Times,serif" font-size="14.00" fill="#000000">avg_W = 0.33 </text>
</g>
<!-- 20&#45;&gt;29 -->
<g id="edge31" class="edge">
<title>20&#45;&gt;29</title>
<path fill="none" stroke="#000000" d="M813.8907,-294.1987C813.4464,-283.7143 812.8701,-270.1133 812.3276,-257.3095"/>
<polygon fill="#000000" stroke="#000000" points="815.8232,-257.1296 811.9029,-247.2868 808.8294,-257.426 815.8232,-257.1296"/>
</g>
<!-- 30 -->
<g id="node33" class="node">
<title>30</title>
<polygon fill="#c1b2ff" stroke="#c1b2ff" points="977.4862,-247.4014 877.8376,-247.4014 877.8376,-188.5986 977.4862,-188.5986 977.4862,-247.4014"/>
<text text-anchor="middle" x="927.6619" y="-230.6" font-family="Times,serif" font-size="14.00" fill="#000000">size = &#160;21 </text>
<text text-anchor="middle" x="927.6619" y="-213.8" font-family="Times,serif" font-size="14.00" fill="#000000"> avg_Y = 1.55</text>
<text text-anchor="middle" x="927.6619" y="-197" font-family="Times,serif" font-size="14.00" fill="#000000">avg_W = 0.29 </text>
</g>
<!-- 20&#45;&gt;30 -->
<g id="edge32" class="edge">
<title>20&#45;&gt;30</title>
<path fill="none" stroke="#000000" d="M836.4494,-294.1987C850.1179,-282.7801 868.2117,-267.6646 884.6783,-253.9084"/>
<polygon fill="#000000" stroke="#000000" points="887.1741,-256.384 892.6047,-247.2868 882.6863,-251.0119 887.1741,-256.384"/>
</g>
<!-- 35 -->
<g id="node26" class="node">
<title>35</title>
<polygon fill="none" stroke="#000000" points="561.3806,-141.6 481.9432,-141.6 481.9432,-105.6 561.3806,-105.6 561.3806,-141.6"/>
<text text-anchor="middle" x="521.6619" y="-119.4" font-family="Times,serif" font-size="14.00" fill="#000000"> age &lt;= 50 </text>
</g>
<!-- 27&#45;&gt;35 -->
<g id="edge25" class="edge">
<title>27&#45;&gt;35</title>
<path fill="none" stroke="#000000" d="M536.9985,-199.7987C534.2649,-186.2169 530.4786,-167.4048 527.3521,-151.8711"/>
<polygon fill="#000000" stroke="#000000" points="530.7185,-150.8582 525.314,-141.7454 523.8561,-152.2394 530.7185,-150.8582"/>
</g>
<!-- 36 -->
<g id="node27" class="node">
<title>36</title>
<polygon fill="none" stroke="#000000" points="734.2113,-141.6 579.1125,-141.6 579.1125,-105.6 734.2113,-105.6 734.2113,-141.6"/>
<text text-anchor="middle" x="656.6619" y="-119.4" font-family="Times,serif" font-size="14.00" fill="#000000"> subj.loan.value &lt;= 0.11 </text>
</g>
<!-- 27&#45;&gt;36 -->
<g id="edge26" class="edge">
<title>27&#45;&gt;36</title>
<path fill="none" stroke="#000000" d="M563.0279,-199.7987C581.0815,-185.1068 606.6555,-164.2948 626.5157,-148.1328"/>
<polygon fill="#000000" stroke="#000000" points="628.8175,-150.7721 634.3646,-141.7454 624.3991,-145.3427 628.8175,-150.7721"/>
</g>
<!-- 37 -->
<g id="node28" class="node">
<title>37</title>
<polygon fill="#c1b2ff" stroke="#c1b2ff" points="459.4862,-58.6014 359.8376,-58.6014 359.8376,.2014 459.4862,.2014 459.4862,-58.6014"/>
<text text-anchor="middle" x="409.6619" y="-41.8" font-family="Times,serif" font-size="14.00" fill="#000000">size = &#160;34 </text>
<text text-anchor="middle" x="409.6619" y="-25" font-family="Times,serif" font-size="14.00" fill="#000000"> avg_Y = 1.61</text>
<text text-anchor="middle" x="409.6619" y="-8.2" font-family="Times,serif" font-size="14.00" fill="#000000">avg_W = 0.35 </text>
</g>
<!-- 35&#45;&gt;37 -->
<g id="edge27" class="edge">
<title>35&#45;&gt;37</title>
<path fill="none" stroke="#000000" d="M500.0672,-105.3987C486.5196,-93.9801 468.586,-78.8646 452.2651,-65.1084"/>
<polygon fill="#000000" stroke="#000000" points="454.3109,-62.2553 444.4089,-58.4868 449.7995,-67.6077 454.3109,-62.2553"/>
</g>
<!-- 38 -->
<g id="node29" class="node">
<title>38</title>
<polygon fill="#c1b2ff" stroke="#c1b2ff" points="576.4862,-58.6014 476.8376,-58.6014 476.8376,.2014 576.4862,.2014 576.4862,-58.6014"/>
<text text-anchor="middle" x="526.6619" y="-41.8" font-family="Times,serif" font-size="14.00" fill="#000000">size = &#160;17 </text>
<text text-anchor="middle" x="526.6619" y="-25" font-family="Times,serif" font-size="14.00" fill="#000000"> avg_Y = 0.97</text>
<text text-anchor="middle" x="526.6619" y="-8.2" font-family="Times,serif" font-size="14.00" fill="#000000">avg_W = 0.41 </text>
</g>
<!-- 35&#45;&gt;38 -->
<g id="edge28" class="edge">
<title>35&#45;&gt;38</title>
<path fill="none" stroke="#000000" d="M522.626,-105.3987C523.1813,-94.9143 523.9017,-81.3133 524.5798,-68.5095"/>
<polygon fill="#000000" stroke="#000000" points="528.0768,-68.6579 525.1107,-58.4868 521.0866,-68.2876 528.0768,-68.6579"/>
</g>
<!-- 39 -->
<g id="node30" class="node">
<title>39</title>
<polygon fill="#c1b2ff" stroke="#c1b2ff" points="696.9863,-58.6014 604.3375,-58.6014 604.3375,.2014 696.9863,.2014 696.9863,-58.6014"/>
<text text-anchor="middle" x="650.6619" y="-41.8" font-family="Times,serif" font-size="14.00" fill="#000000">size = &#160;18 </text>
<text text-anchor="middle" x="650.6619" y="-25" font-family="Times,serif" font-size="14.00" fill="#000000"> avg_Y = 1.2</text>
<text text-anchor="middle" x="650.6619" y="-8.2" font-family="Times,serif" font-size="14.00" fill="#000000">avg_W = 0.5 </text>
</g>
<!-- 36&#45;&gt;39 -->
<g id="edge29" class="edge">
<title>36&#45;&gt;39</title>
<path fill="none" stroke="#000000" d="M655.505,-105.3987C654.8387,-94.9143 653.9742,-81.3133 653.1604,-68.5095"/>
<polygon fill="#000000" stroke="#000000" points="656.6507,-68.2446 652.5233,-58.4868 649.6648,-68.6887 656.6507,-68.2446"/>
</g>
<!-- 40 -->
<g id="node31" class="node">
<title>40</title>
<polygon fill="#c1b2ff" stroke="#c1b2ff" points="814.4862,-58.6014 714.8376,-58.6014 714.8376,.2014 814.4862,.2014 814.4862,-58.6014"/>
<text text-anchor="middle" x="764.6619" y="-41.8" font-family="Times,serif" font-size="14.00" fill="#000000">size = &#160;13 </text>
<text text-anchor="middle" x="764.6619" y="-25" font-family="Times,serif" font-size="14.00" fill="#000000"> avg_Y = 0.62</text>
<text text-anchor="middle" x="764.6619" y="-8.2" font-family="Times,serif" font-size="14.00" fill="#000000">avg_W = 0.46 </text>
</g>
<!-- 36&#45;&gt;40 -->
<g id="edge30" class="edge">
<title>36&#45;&gt;40</title>
<path fill="none" stroke="#000000" d="M677.4854,-105.3987C690.5491,-93.9801 707.8423,-78.8646 723.5802,-65.1084"/>
<polygon fill="#000000" stroke="#000000" points="725.93,-67.7031 731.1559,-58.4868 721.3232,-62.4327 725.93,-67.7031"/>
</g>
<!-- 11 -->
<g id="node38" class="node">
<title>11</title>
<polygon fill="#c1b2ff" stroke="#c1b2ff" points="1136.4862,-436.2014 1036.8376,-436.2014 1036.8376,-377.3986 1136.4862,-377.3986 1136.4862,-436.2014"/>
<text text-anchor="middle" x="1086.6619" y="-419.4" font-family="Times,serif" font-size="14.00" fill="#000000">size = &#160;8 </text>
<text text-anchor="middle" x="1086.6619" y="-402.6" font-family="Times,serif" font-size="14.00" fill="#000000"> avg_Y = 1.58</text>
<text text-anchor="middle" x="1086.6619" y="-385.8" font-family="Times,serif" font-size="14.00" fill="#000000">avg_W = 0.75 </text>
</g>
<!-- 5&#45;&gt;11 -->
<g id="edge37" class="edge">
<title>5&#45;&gt;11</title>
<path fill="none" stroke="#000000" d="M1110.9354,-471.9468C1108.0542,-464.2142 1104.57,-454.863 1101.1516,-445.6884"/>
<polygon fill="#000000" stroke="#000000" points="1104.4124,-444.4154 1097.6411,-436.2668 1097.8529,-446.8595 1104.4124,-444.4154"/>
</g>
<!-- 12 -->
<g id="node39" class="node">
<title>12</title>
<polygon fill="#c1b2ff" stroke="#c1b2ff" points="1253.4862,-436.2014 1153.8376,-436.2014 1153.8376,-377.3986 1253.4862,-377.3986 1253.4862,-436.2014"/>
<text text-anchor="middle" x="1203.6619" y="-419.4" font-family="Times,serif" font-size="14.00" fill="#000000">size = &#160;9 </text>
<text text-anchor="middle" x="1203.6619" y="-402.6" font-family="Times,serif" font-size="14.00" fill="#000000"> avg_Y = 0.64</text>
<text text-anchor="middle" x="1203.6619" y="-385.8" font-family="Times,serif" font-size="14.00" fill="#000000">avg_W = 0.56 </text>
</g>
<!-- 5&#45;&gt;12 -->
<g id="edge38" class="edge">
<title>5&#45;&gt;12</title>
<path fill="none" stroke="#000000" d="M1136.3226,-471.9468C1144.9886,-463.563 1155.6212,-453.2766 1165.8555,-443.3755"/>
<polygon fill="#000000" stroke="#000000" points="1168.4499,-445.7354 1173.2035,-436.2668 1163.5827,-440.7044 1168.4499,-445.7354"/>
</g>
<!-- 13 -->
<g id="node40" class="node">
<title>13</title>
<polygon fill="#c1b2ff" stroke="#c1b2ff" points="1367.8779,-436.2014 1271.4459,-436.2014 1271.4459,-377.3986 1367.8779,-377.3986 1367.8779,-436.2014"/>
<text text-anchor="middle" x="1319.6619" y="-419.4" font-family="Times,serif" font-size="14.00" fill="#000000">size = &#160;2 </text>
<text text-anchor="middle" x="1319.6619" y="-402.6" font-family="Times,serif" font-size="14.00" fill="#000000"> avg_Y = 0.19</text>
<text text-anchor="middle" x="1319.6619" y="-385.8" font-family="Times,serif" font-size="14.00" fill="#000000">avg_W = 0 </text>
</g>
<!-- 6&#45;&gt;13 -->
<g id="edge39" class="edge">
<title>6&#45;&gt;13</title>
<path fill="none" stroke="#000000" d="M1319.6619,-471.9468C1319.6619,-464.3769 1319.6619,-455.256 1319.6619,-446.2681"/>
<polygon fill="#000000" stroke="#000000" points="1323.162,-446.2667 1319.6619,-436.2668 1316.162,-446.2668 1323.162,-446.2667"/>
</g>
<!-- 14 -->
<g id="node41" class="node">
<title>14</title>
<polygon fill="#c1b2ff" stroke="#c1b2ff" points="1485.4862,-436.2014 1385.8376,-436.2014 1385.8376,-377.3986 1485.4862,-377.3986 1485.4862,-436.2014"/>
<text text-anchor="middle" x="1435.6619" y="-419.4" font-family="Times,serif" font-size="14.00" fill="#000000">size = &#160;8 </text>
<text text-anchor="middle" x="1435.6619" y="-402.6" font-family="Times,serif" font-size="14.00" fill="#000000"> avg_Y = 1.84</text>
<text text-anchor="middle" x="1435.6619" y="-385.8" font-family="Times,serif" font-size="14.00" fill="#000000">avg_W = 0.62 </text>
</g>
<!-- 6&#45;&gt;14 -->
<g id="edge40" class="edge">
<title>6&#45;&gt;14</title>
<path fill="none" stroke="#000000" d="M1344.8322,-471.9468C1356.9752,-463.2374 1371.9808,-452.4748 1386.2729,-442.2238"/>
<polygon fill="#000000" stroke="#000000" points="1388.4924,-444.9392 1394.5784,-436.2668 1384.4125,-439.251 1388.4924,-444.9392"/>
</g>
</g>
</svg>
