<?xml version="1.0" encoding="UTF-8" standalone="no"?>
<!DOCTYPE svg PUBLIC "-//W3C//DTD SVG 1.1//EN"
 "http://www.w3.org/Graphics/SVG/1.1/DTD/svg11.dtd">
<!-- Generated by graphviz version 2.40.1 (20161225.0304)
 -->
<!-- Title: nodes Pages: 1 -->
<svg width="1085pt" height="737pt"
 viewBox="0.00 0.00 1084.69 736.80" xmlns="http://www.w3.org/2000/svg" xmlns:xlink="http://www.w3.org/1999/xlink">
<g id="graph0" class="graph" transform="scale(1 1) rotate(0) translate(4 732.8)">
<title>nodes</title>
<polygon fill="#ffffff" stroke="transparent" points="-4,4 -4,-732.8 1080.695,-732.8 1080.695,4 -4,4"/>
<!-- 0 -->
<g id="node1" class="node">
<title>0</title>
<polygon fill="none" stroke="#000000" points="951.9523,-728.8 826.7427,-728.8 826.7427,-692.8 951.9523,-692.8 951.9523,-728.8"/>
<text text-anchor="middle" x="889.3475" y="-706.6" font-family="Times,serif" font-size="14.00" fill="#000000"> prestamo &lt;= 4630 </text>
</g>
<!-- 1 -->
<g id="node2" class="node">
<title>1</title>
<polygon fill="none" stroke="#000000" points="889.9523,-656.8 764.7427,-656.8 764.7427,-620.8 889.9523,-620.8 889.9523,-656.8"/>
<text text-anchor="middle" x="827.3475" y="-634.6" font-family="Times,serif" font-size="14.00" fill="#000000"> prestamo &lt;= 2710 </text>
</g>
<!-- 0&#45;&gt;1 -->
<g id="edge1" class="edge">
<title>0&#45;&gt;1</title>
<path fill="none" stroke="#000000" d="M873.7023,-692.6314C866.4884,-684.254 857.7905,-674.1531 849.887,-664.9749"/>
<polygon fill="#000000" stroke="#000000" points="852.3808,-662.5071 843.2034,-657.2133 847.0764,-667.0748 852.3808,-662.5071"/>
<text text-anchor="middle" x="841.3429" y="-677.9439" font-family="Times,serif" font-size="14.00" fill="#000000">True</text>
</g>
<!-- 2 -->
<g id="node3" class="node">
<title>2</title>
<polygon fill="none" stroke="#000000" points="994.5662,-656.8 908.1288,-656.8 908.1288,-620.8 994.5662,-620.8 994.5662,-656.8"/>
<text text-anchor="middle" x="951.3475" y="-634.6" font-family="Times,serif" font-size="14.00" fill="#000000"> edad &lt;= 37 </text>
</g>
<!-- 0&#45;&gt;2 -->
<g id="edge2" class="edge">
<title>0&#45;&gt;2</title>
<path fill="none" stroke="#000000" d="M904.9927,-692.6314C912.2066,-684.254 920.9045,-674.1531 928.808,-664.9749"/>
<polygon fill="#000000" stroke="#000000" points="931.6186,-667.0748 935.4916,-657.2133 926.3142,-662.5071 931.6186,-667.0748"/>
<text text-anchor="middle" x="937.3521" y="-677.9439" font-family="Times,serif" font-size="14.00" fill="#000000">False</text>
</g>
<!-- 3 -->
<g id="node4" class="node">
<title>3</title>
<polygon fill="none" stroke="#000000" points="727.4531,-582 627.2419,-582 627.2419,-546 727.4531,-546 727.4531,-582"/>
<text text-anchor="middle" x="677.3475" y="-559.8" font-family="Times,serif" font-size="14.00" fill="#000000"> faltas &lt;= 0.14 </text>
</g>
<!-- 1&#45;&gt;3 -->
<g id="edge3" class="edge">
<title>1&#45;&gt;3</title>
<path fill="none" stroke="#000000" d="M791.0367,-620.693C770.4768,-610.4405 744.5753,-597.5242 722.6899,-586.6107"/>
<polygon fill="#000000" stroke="#000000" points="724.0946,-583.4002 713.5836,-582.0697 720.9707,-589.6645 724.0946,-583.4002"/>
</g>
<!-- 4 -->
<g id="node5" class="node">
<title>4</title>
<polygon fill="none" stroke="#000000" points="881.5083,-582 783.1867,-582 783.1867,-546 881.5083,-546 881.5083,-582"/>
<text text-anchor="middle" x="832.3475" y="-559.8" font-family="Times,serif" font-size="14.00" fill="#000000"> telefono &lt;= 0 </text>
</g>
<!-- 1&#45;&gt;4 -->
<g id="edge4" class="edge">
<title>1&#45;&gt;4</title>
<path fill="none" stroke="#000000" d="M828.5579,-620.693C829.1248,-612.2112 829.8137,-601.9062 830.4477,-592.4204"/>
<polygon fill="#000000" stroke="#000000" points="833.9561,-592.4107 831.131,-582.1995 826.9717,-591.9438 833.9561,-592.4107"/>
</g>
<!-- 5 -->
<g id="node38" class="node">
<title>5</title>
<polygon fill="#c1b2ff" stroke="#c1b2ff" points="983.5431,-584.6019 909.1519,-584.6019 909.1519,-543.3981 983.5431,-543.3981 983.5431,-584.6019"/>
<text text-anchor="middle" x="946.3475" y="-568.2" font-family="Times,serif" font-size="14.00" fill="#000000">leaf node &#160;</text>
<text text-anchor="middle" x="946.3475" y="-551.4" font-family="Times,serif" font-size="14.00" fill="#000000">size = &#160;8 </text>
</g>
<!-- 2&#45;&gt;5 -->
<g id="edge37" class="edge">
<title>2&#45;&gt;5</title>
<path fill="none" stroke="#000000" d="M950.1371,-620.693C949.6235,-613.0083 949.0097,-603.8272 948.4273,-595.1145"/>
<polygon fill="#000000" stroke="#000000" points="951.9006,-594.5958 947.7413,-584.8515 944.9162,-595.0627 951.9006,-594.5958"/>
</g>
<!-- 6 -->
<g id="node39" class="node">
<title>6</title>
<polygon fill="#c1b2ff" stroke="#c1b2ff" points="1076.5431,-584.6019 1002.1519,-584.6019 1002.1519,-543.3981 1076.5431,-543.3981 1076.5431,-584.6019"/>
<text text-anchor="middle" x="1039.3475" y="-568.2" font-family="Times,serif" font-size="14.00" fill="#000000">leaf node &#160;</text>
<text text-anchor="middle" x="1039.3475" y="-551.4" font-family="Times,serif" font-size="14.00" fill="#000000">size = &#160;17 </text>
</g>
<!-- 2&#45;&gt;6 -->
<g id="edge38" class="edge">
<title>2&#45;&gt;6</title>
<path fill="none" stroke="#000000" d="M972.6498,-620.693C982.9822,-611.9105 995.614,-601.1734 1007.0946,-591.415"/>
<polygon fill="#000000" stroke="#000000" points="1009.4637,-593.9948 1014.8163,-584.8515 1004.9301,-588.6612 1009.4637,-593.9948"/>
</g>
<!-- 7 -->
<g id="node6" class="node">
<title>7</title>
<polygon fill="none" stroke="#000000" points="557.5193,-504.4 431.1757,-504.4 431.1757,-468.4 557.5193,-468.4 557.5193,-504.4"/>
<text text-anchor="middle" x="494.3475" y="-482.2" font-family="Times,serif" font-size="14.00" fill="#000000"> visit_number &lt;= 1 </text>
</g>
<!-- 3&#45;&gt;7 -->
<g id="edge5" class="edge">
<title>3&#45;&gt;7</title>
<path fill="none" stroke="#000000" d="M634.4421,-545.8062C608.1708,-534.6661 574.3703,-520.3332 546.5521,-508.537"/>
<polygon fill="#000000" stroke="#000000" points="547.5569,-505.1615 536.9841,-504.4798 544.8241,-511.606 547.5569,-505.1615"/>
</g>
<!-- 8 -->
<g id="node7" class="node">
<title>8</title>
<polygon fill="none" stroke="#000000" points="733.2378,-504.4 621.4572,-504.4 621.4572,-468.4 733.2378,-468.4 733.2378,-504.4"/>
<text text-anchor="middle" x="677.3475" y="-482.2" font-family="Times,serif" font-size="14.00" fill="#000000"> num_arms &lt;= 1 </text>
</g>
<!-- 3&#45;&gt;8 -->
<g id="edge6" class="edge">
<title>3&#45;&gt;8</title>
<path fill="none" stroke="#000000" d="M677.3475,-545.6099C677.3475,-536.429 677.3475,-525.1167 677.3475,-514.8482"/>
<polygon fill="#000000" stroke="#000000" points="680.8476,-514.6581 677.3475,-504.6581 673.8476,-514.6581 680.8476,-514.6581"/>
</g>
<!-- 9 -->
<g id="node32" class="node">
<title>9</title>
<polygon fill="none" stroke="#000000" points="873.9524,-504.4 790.7426,-504.4 790.7426,-468.4 873.9524,-468.4 873.9524,-504.4"/>
<text text-anchor="middle" x="832.3475" y="-482.2" font-family="Times,serif" font-size="14.00" fill="#000000"> faltas &lt;= 0 </text>
</g>
<!-- 4&#45;&gt;9 -->
<g id="edge31" class="edge">
<title>4&#45;&gt;9</title>
<path fill="none" stroke="#000000" d="M832.3475,-545.6099C832.3475,-536.429 832.3475,-525.1167 832.3475,-514.8482"/>
<polygon fill="#000000" stroke="#000000" points="835.8476,-514.6581 832.3475,-504.6581 828.8476,-514.6581 835.8476,-514.6581"/>
</g>
<!-- 10 -->
<g id="node33" class="node">
<title>10</title>
<polygon fill="#c1b2ff" stroke="#c1b2ff" points="966.5431,-507.0019 892.1519,-507.0019 892.1519,-465.7981 966.5431,-465.7981 966.5431,-507.0019"/>
<text text-anchor="middle" x="929.3475" y="-490.6" font-family="Times,serif" font-size="14.00" fill="#000000">leaf node &#160;</text>
<text text-anchor="middle" x="929.3475" y="-473.8" font-family="Times,serif" font-size="14.00" fill="#000000">size = &#160;14 </text>
</g>
<!-- 4&#45;&gt;10 -->
<g id="edge32" class="edge">
<title>4&#45;&gt;10</title>
<path fill="none" stroke="#000000" d="M855.3351,-545.6099C867.305,-536.034 882.1732,-524.1395 895.4363,-513.5289"/>
<polygon fill="#000000" stroke="#000000" points="897.8246,-516.1005 903.4469,-507.1205 893.4517,-510.6344 897.8246,-516.1005"/>
</g>
<!-- 11 -->
<g id="node8" class="node">
<title>11</title>
<polygon fill="none" stroke="#000000" points="433.1842,-426.8 329.5108,-426.8 329.5108,-390.8 433.1842,-390.8 433.1842,-426.8"/>
<text text-anchor="middle" x="381.3475" y="-404.6" font-family="Times,serif" font-size="14.00" fill="#000000"> low_cost &lt;= 0 </text>
</g>
<!-- 7&#45;&gt;11 -->
<g id="edge7" class="edge">
<title>7&#45;&gt;11</title>
<path fill="none" stroke="#000000" d="M467.854,-468.2062C452.4111,-457.6012 432.7549,-444.1028 416.0831,-432.6538"/>
<polygon fill="#000000" stroke="#000000" points="417.8998,-429.6556 407.675,-426.8798 413.9371,-435.426 417.8998,-429.6556"/>
</g>
<!-- 12 -->
<g id="node9" class="node">
<title>12</title>
<polygon fill="#c1b2ff" stroke="#c1b2ff" points="531.5431,-429.4019 457.1519,-429.4019 457.1519,-388.1981 531.5431,-388.1981 531.5431,-429.4019"/>
<text text-anchor="middle" x="494.3475" y="-413" font-family="Times,serif" font-size="14.00" fill="#000000">leaf node &#160;</text>
<text text-anchor="middle" x="494.3475" y="-396.2" font-family="Times,serif" font-size="14.00" fill="#000000">size = &#160;21 </text>
</g>
<!-- 7&#45;&gt;12 -->
<g id="edge8" class="edge">
<title>7&#45;&gt;12</title>
<path fill="none" stroke="#000000" d="M494.3475,-468.0099C494.3475,-459.5181 494.3475,-449.2029 494.3475,-439.5766"/>
<polygon fill="#000000" stroke="#000000" points="497.8476,-439.5205 494.3475,-429.5205 490.8476,-439.5205 497.8476,-439.5205"/>
</g>
<!-- 13 -->
<g id="node26" class="node">
<title>13</title>
<polygon fill="none" stroke="#000000" points="678.9523,-426.8 553.7427,-426.8 553.7427,-390.8 678.9523,-390.8 678.9523,-426.8"/>
<text text-anchor="middle" x="616.3475" y="-404.6" font-family="Times,serif" font-size="14.00" fill="#000000"> prestamo &lt;= 2000 </text>
</g>
<!-- 8&#45;&gt;13 -->
<g id="edge25" class="edge">
<title>8&#45;&gt;13</title>
<path fill="none" stroke="#000000" d="M662.8914,-468.0099C655.1426,-458.1525 645.4625,-445.8381 636.9401,-434.9965"/>
<polygon fill="#000000" stroke="#000000" points="639.6316,-432.7569 630.6999,-427.0581 634.1283,-437.0829 639.6316,-432.7569"/>
</g>
<!-- 14 -->
<g id="node27" class="node">
<title>14</title>
<polygon fill="#c1b2ff" stroke="#c1b2ff" points="771.5431,-429.4019 697.1519,-429.4019 697.1519,-388.1981 771.5431,-388.1981 771.5431,-429.4019"/>
<text text-anchor="middle" x="734.3475" y="-413" font-family="Times,serif" font-size="14.00" fill="#000000">leaf node &#160;</text>
<text text-anchor="middle" x="734.3475" y="-396.2" font-family="Times,serif" font-size="14.00" fill="#000000">size = &#160;28 </text>
</g>
<!-- 8&#45;&gt;14 -->
<g id="edge26" class="edge">
<title>8&#45;&gt;14</title>
<path fill="none" stroke="#000000" d="M690.8557,-468.0099C697.4914,-458.976 705.6429,-447.8786 713.0883,-437.7424"/>
<polygon fill="#000000" stroke="#000000" points="716.0284,-439.6519 719.1275,-429.5205 710.3868,-435.508 716.0284,-439.6519"/>
</g>
<!-- 17 -->
<g id="node10" class="node">
<title>17</title>
<polygon fill="none" stroke="#000000" points="303.5662,-349.2 217.1288,-349.2 217.1288,-313.2 303.5662,-313.2 303.5662,-349.2"/>
<text text-anchor="middle" x="260.3475" y="-327" font-family="Times,serif" font-size="14.00" fill="#000000"> edad &lt;= 47 </text>
</g>
<!-- 11&#45;&gt;17 -->
<g id="edge9" class="edge">
<title>11&#45;&gt;17</title>
<path fill="none" stroke="#000000" d="M352.9784,-390.6062C336.2904,-379.9039 315.0078,-366.2548 297.0517,-354.7392"/>
<polygon fill="#000000" stroke="#000000" points="298.846,-351.7321 288.5389,-349.2798 295.0671,-357.6244 298.846,-351.7321"/>
</g>
<!-- 18 -->
<g id="node11" class="node">
<title>18</title>
<polygon fill="none" stroke="#000000" points="437.221,-349.2 325.474,-349.2 325.474,-313.2 437.221,-313.2 437.221,-349.2"/>
<text text-anchor="middle" x="381.3475" y="-327" font-family="Times,serif" font-size="14.00" fill="#000000"> pres_antes &lt;= 0 </text>
</g>
<!-- 11&#45;&gt;18 -->
<g id="edge10" class="edge">
<title>11&#45;&gt;18</title>
<path fill="none" stroke="#000000" d="M381.3475,-390.4099C381.3475,-381.229 381.3475,-369.9167 381.3475,-359.6482"/>
<polygon fill="#000000" stroke="#000000" points="384.8476,-359.4581 381.3475,-349.4581 377.8476,-359.4581 384.8476,-359.4581"/>
</g>
<!-- 23 -->
<g id="node12" class="node">
<title>23</title>
<polygon fill="none" stroke="#000000" points="179.9523,-271.6 54.7427,-271.6 54.7427,-235.6 179.9523,-235.6 179.9523,-271.6"/>
<text text-anchor="middle" x="117.3475" y="-249.4" font-family="Times,serif" font-size="14.00" fill="#000000"> prestamo &lt;= 1100 </text>
</g>
<!-- 17&#45;&gt;23 -->
<g id="edge11" class="edge">
<title>17&#45;&gt;23</title>
<path fill="none" stroke="#000000" d="M226.8204,-313.0062C206.7396,-302.1093 181.0296,-288.1575 159.5717,-276.5133"/>
<polygon fill="#000000" stroke="#000000" points="161.1232,-273.3731 150.6646,-271.6798 157.7845,-279.5256 161.1232,-273.3731"/>
</g>
<!-- 24 -->
<g id="node13" class="node">
<title>24</title>
<polygon fill="none" stroke="#000000" points="322.9523,-271.6 197.7427,-271.6 197.7427,-235.6 322.9523,-235.6 322.9523,-271.6"/>
<text text-anchor="middle" x="260.3475" y="-249.4" font-family="Times,serif" font-size="14.00" fill="#000000"> prestamo &lt;= 1060 </text>
</g>
<!-- 17&#45;&gt;24 -->
<g id="edge12" class="edge">
<title>17&#45;&gt;24</title>
<path fill="none" stroke="#000000" d="M260.3475,-312.8099C260.3475,-303.629 260.3475,-292.3167 260.3475,-282.0482"/>
<polygon fill="#000000" stroke="#000000" points="263.8476,-281.8581 260.3475,-271.8581 256.8476,-281.8581 263.8476,-281.8581"/>
</g>
<!-- 25 -->
<g id="node18" class="node">
<title>25</title>
<polygon fill="#c1b2ff" stroke="#c1b2ff" points="415.5431,-274.2019 341.1519,-274.2019 341.1519,-232.9981 415.5431,-232.9981 415.5431,-274.2019"/>
<text text-anchor="middle" x="378.3475" y="-257.8" font-family="Times,serif" font-size="14.00" fill="#000000">leaf node &#160;</text>
<text text-anchor="middle" x="378.3475" y="-241" font-family="Times,serif" font-size="14.00" fill="#000000">size = &#160;16 </text>
</g>
<!-- 18&#45;&gt;25 -->
<g id="edge17" class="edge">
<title>18&#45;&gt;25</title>
<path fill="none" stroke="#000000" d="M380.6365,-312.8099C380.3083,-304.3181 379.9095,-294.0029 379.5373,-284.3766"/>
<polygon fill="#000000" stroke="#000000" points="383.0323,-284.1778 379.1486,-274.3205 376.0376,-284.4483 383.0323,-284.1778"/>
</g>
<!-- 26 -->
<g id="node19" class="node">
<title>26</title>
<polygon fill="none" stroke="#000000" points="561.5773,-271.6 433.1177,-271.6 433.1177,-235.6 561.5773,-235.6 561.5773,-271.6"/>
<text text-anchor="middle" x="497.3475" y="-249.4" font-family="Times,serif" font-size="14.00" fill="#000000"> dummy_suc5 &lt;= 0 </text>
</g>
<!-- 18&#45;&gt;26 -->
<g id="edge18" class="edge">
<title>18&#45;&gt;26</title>
<path fill="none" stroke="#000000" d="M408.5443,-313.0062C424.3973,-302.4012 444.5753,-288.9028 461.6897,-277.4538"/>
<polygon fill="#000000" stroke="#000000" points="463.9555,-280.1491 470.321,-271.6798 460.0633,-274.3309 463.9555,-280.1491"/>
</g>
<!-- 29 -->
<g id="node14" class="node">
<title>29</title>
<polygon fill="#c1b2ff" stroke="#c1b2ff" points="74.5431,-196.6019 .1519,-196.6019 .1519,-155.3981 74.5431,-155.3981 74.5431,-196.6019"/>
<text text-anchor="middle" x="37.3475" y="-180.2" font-family="Times,serif" font-size="14.00" fill="#000000">leaf node &#160;</text>
<text text-anchor="middle" x="37.3475" y="-163.4" font-family="Times,serif" font-size="14.00" fill="#000000">size = &#160;29 </text>
</g>
<!-- 23&#45;&gt;29 -->
<g id="edge13" class="edge">
<title>23&#45;&gt;29</title>
<path fill="none" stroke="#000000" d="M98.3886,-235.2099C88.7028,-225.8147 76.716,-214.1875 65.936,-203.7309"/>
<polygon fill="#000000" stroke="#000000" points="68.3237,-201.1708 58.7088,-196.7205 63.4499,-206.1954 68.3237,-201.1708"/>
</g>
<!-- 30 -->
<g id="node15" class="node">
<title>30</title>
<polygon fill="#c1b2ff" stroke="#c1b2ff" points="167.5431,-196.6019 93.1519,-196.6019 93.1519,-155.3981 167.5431,-155.3981 167.5431,-196.6019"/>
<text text-anchor="middle" x="130.3475" y="-180.2" font-family="Times,serif" font-size="14.00" fill="#000000">leaf node &#160;</text>
<text text-anchor="middle" x="130.3475" y="-163.4" font-family="Times,serif" font-size="14.00" fill="#000000">size = &#160;25 </text>
</g>
<!-- 23&#45;&gt;30 -->
<g id="edge14" class="edge">
<title>23&#45;&gt;30</title>
<path fill="none" stroke="#000000" d="M120.4283,-235.2099C121.8509,-226.7181 123.579,-216.4029 125.1916,-206.7766"/>
<polygon fill="#000000" stroke="#000000" points="128.6759,-207.1614 126.8763,-196.7205 121.7721,-206.0048 128.6759,-207.1614"/>
</g>
<!-- 31 -->
<g id="node16" class="node">
<title>31</title>
<polygon fill="#c1b2ff" stroke="#c1b2ff" points="285.5431,-196.6019 211.1519,-196.6019 211.1519,-155.3981 285.5431,-155.3981 285.5431,-196.6019"/>
<text text-anchor="middle" x="248.3475" y="-180.2" font-family="Times,serif" font-size="14.00" fill="#000000">leaf node &#160;</text>
<text text-anchor="middle" x="248.3475" y="-163.4" font-family="Times,serif" font-size="14.00" fill="#000000">size = &#160;8 </text>
</g>
<!-- 24&#45;&gt;31 -->
<g id="edge15" class="edge">
<title>24&#45;&gt;31</title>
<path fill="none" stroke="#000000" d="M257.5037,-235.2099C256.1905,-226.7181 254.5954,-216.4029 253.1068,-206.7766"/>
<polygon fill="#000000" stroke="#000000" points="256.5389,-206.0681 251.5517,-196.7205 249.6211,-207.1379 256.5389,-206.0681"/>
</g>
<!-- 32 -->
<g id="node17" class="node">
<title>32</title>
<polygon fill="#c1b2ff" stroke="#c1b2ff" points="378.5431,-196.6019 304.1519,-196.6019 304.1519,-155.3981 378.5431,-155.3981 378.5431,-196.6019"/>
<text text-anchor="middle" x="341.3475" y="-180.2" font-family="Times,serif" font-size="14.00" fill="#000000">leaf node &#160;</text>
<text text-anchor="middle" x="341.3475" y="-163.4" font-family="Times,serif" font-size="14.00" fill="#000000">size = &#160;11 </text>
</g>
<!-- 24&#45;&gt;32 -->
<g id="edge16" class="edge">
<title>24&#45;&gt;32</title>
<path fill="none" stroke="#000000" d="M279.5434,-235.2099C289.3502,-225.8147 301.4868,-214.1875 312.4016,-203.7309"/>
<polygon fill="#000000" stroke="#000000" points="314.9194,-206.1658 319.7191,-196.7205 310.0768,-201.1111 314.9194,-206.1658"/>
</g>
<!-- 33 -->
<g id="node20" class="node">
<title>33</title>
<polygon fill="none" stroke="#000000" points="505.5662,-194 419.1288,-194 419.1288,-158 505.5662,-158 505.5662,-194"/>
<text text-anchor="middle" x="462.3475" y="-171.8" font-family="Times,serif" font-size="14.00" fill="#000000"> edad &lt;= 33 </text>
</g>
<!-- 26&#45;&gt;33 -->
<g id="edge19" class="edge">
<title>26&#45;&gt;33</title>
<path fill="none" stroke="#000000" d="M489.053,-235.2099C484.7814,-225.7391 479.4867,-214.0001 474.7412,-203.4786"/>
<polygon fill="#000000" stroke="#000000" points="477.8845,-201.9348 470.5825,-194.2581 471.5035,-204.8128 477.8845,-201.9348"/>
</g>
<!-- 34 -->
<g id="node21" class="node">
<title>34</title>
<polygon fill="#c1b2ff" stroke="#c1b2ff" points="597.5431,-196.6019 523.1519,-196.6019 523.1519,-155.3981 597.5431,-155.3981 597.5431,-196.6019"/>
<text text-anchor="middle" x="560.3475" y="-180.2" font-family="Times,serif" font-size="14.00" fill="#000000">leaf node &#160;</text>
<text text-anchor="middle" x="560.3475" y="-163.4" font-family="Times,serif" font-size="14.00" fill="#000000">size = &#160;14 </text>
</g>
<!-- 26&#45;&gt;34 -->
<g id="edge20" class="edge">
<title>26&#45;&gt;34</title>
<path fill="none" stroke="#000000" d="M512.2776,-235.2099C519.6851,-226.0857 528.8017,-214.8564 537.0971,-204.6386"/>
<polygon fill="#000000" stroke="#000000" points="539.9398,-206.6901 543.5254,-196.7205 534.5052,-202.2781 539.9398,-206.6901"/>
</g>
<!-- 35 -->
<g id="node22" class="node">
<title>35</title>
<polygon fill="#c1b2ff" stroke="#c1b2ff" points="448.5431,-119.0019 374.1519,-119.0019 374.1519,-77.7981 448.5431,-77.7981 448.5431,-119.0019"/>
<text text-anchor="middle" x="411.3475" y="-102.6" font-family="Times,serif" font-size="14.00" fill="#000000">leaf node &#160;</text>
<text text-anchor="middle" x="411.3475" y="-85.8" font-family="Times,serif" font-size="14.00" fill="#000000">size = &#160;16 </text>
</g>
<!-- 33&#45;&gt;35 -->
<g id="edge21" class="edge">
<title>33&#45;&gt;35</title>
<path fill="none" stroke="#000000" d="M450.2612,-157.6099C444.3834,-148.6664 437.1763,-137.7003 430.569,-127.6468"/>
<polygon fill="#000000" stroke="#000000" points="433.3825,-125.555 424.9654,-119.1205 427.5327,-129.3996 433.3825,-125.555"/>
</g>
<!-- 36 -->
<g id="node23" class="node">
<title>36</title>
<polygon fill="none" stroke="#000000" points="560.3471,-116.4 466.3479,-116.4 466.3479,-80.4 560.3471,-80.4 560.3471,-116.4"/>
<text text-anchor="middle" x="513.3475" y="-94.2" font-family="Times,serif" font-size="14.00" fill="#000000"> tentado &lt;= 0 </text>
</g>
<!-- 33&#45;&gt;36 -->
<g id="edge22" class="edge">
<title>33&#45;&gt;36</title>
<path fill="none" stroke="#000000" d="M474.4338,-157.6099C480.7852,-147.9458 488.6887,-135.9201 495.7105,-125.2359"/>
<polygon fill="#000000" stroke="#000000" points="498.7806,-126.9372 501.348,-116.6581 492.9308,-123.0926 498.7806,-126.9372"/>
</g>
<!-- 37 -->
<g id="node24" class="node">
<title>37</title>
<polygon fill="#c1b2ff" stroke="#c1b2ff" points="504.5431,-41.4019 430.1519,-41.4019 430.1519,-.1981 504.5431,-.1981 504.5431,-41.4019"/>
<text text-anchor="middle" x="467.3475" y="-25" font-family="Times,serif" font-size="14.00" fill="#000000">leaf node &#160;</text>
<text text-anchor="middle" x="467.3475" y="-8.2" font-family="Times,serif" font-size="14.00" fill="#000000">size = &#160;16 </text>
</g>
<!-- 36&#45;&gt;37 -->
<g id="edge23" class="edge">
<title>36&#45;&gt;37</title>
<path fill="none" stroke="#000000" d="M502.4461,-80.0099C497.1981,-71.1567 490.7753,-60.3217 484.8653,-50.3517"/>
<polygon fill="#000000" stroke="#000000" points="487.7403,-48.338 479.6303,-41.5205 481.7188,-51.9075 487.7403,-48.338"/>
</g>
<!-- 38 -->
<g id="node25" class="node">
<title>38</title>
<polygon fill="#c1b2ff" stroke="#c1b2ff" points="597.5431,-41.4019 523.1519,-41.4019 523.1519,-.1981 597.5431,-.1981 597.5431,-41.4019"/>
<text text-anchor="middle" x="560.3475" y="-25" font-family="Times,serif" font-size="14.00" fill="#000000">leaf node &#160;</text>
<text text-anchor="middle" x="560.3475" y="-8.2" font-family="Times,serif" font-size="14.00" fill="#000000">size = &#160;27 </text>
</g>
<!-- 36&#45;&gt;38 -->
<g id="edge24" class="edge">
<title>36&#45;&gt;38</title>
<path fill="none" stroke="#000000" d="M524.4858,-80.0099C529.8479,-71.1567 536.4104,-60.3217 542.4489,-50.3517"/>
<polygon fill="#000000" stroke="#000000" points="545.6108,-51.8872 547.7977,-41.5205 539.6234,-48.2608 545.6108,-51.8872"/>
</g>
<!-- 19 -->
<g id="node28" class="node">
<title>19</title>
<polygon fill="none" stroke="#000000" points="663.0465,-349.2 569.6485,-349.2 569.6485,-313.2 663.0465,-313.2 663.0465,-349.2"/>
<text text-anchor="middle" x="616.3475" y="-327" font-family="Times,serif" font-size="14.00" fill="#000000"> rec_cel &lt;= 0 </text>
</g>
<!-- 13&#45;&gt;19 -->
<g id="edge27" class="edge">
<title>13&#45;&gt;19</title>
<path fill="none" stroke="#000000" d="M616.3475,-390.4099C616.3475,-381.229 616.3475,-369.9167 616.3475,-359.6482"/>
<polygon fill="#000000" stroke="#000000" points="619.8476,-359.4581 616.3475,-349.4581 612.8476,-359.4581 619.8476,-359.4581"/>
</g>
<!-- 20 -->
<g id="node29" class="node">
<title>20</title>
<polygon fill="#c1b2ff" stroke="#c1b2ff" points="755.5431,-351.8019 681.1519,-351.8019 681.1519,-310.5981 755.5431,-310.5981 755.5431,-351.8019"/>
<text text-anchor="middle" x="718.3475" y="-335.4" font-family="Times,serif" font-size="14.00" fill="#000000">leaf node &#160;</text>
<text text-anchor="middle" x="718.3475" y="-318.6" font-family="Times,serif" font-size="14.00" fill="#000000">size = &#160;12 </text>
</g>
<!-- 13&#45;&gt;20 -->
<g id="edge28" class="edge">
<title>13&#45;&gt;20</title>
<path fill="none" stroke="#000000" d="M640.262,-390.6062C652.9614,-380.9447 668.8173,-368.8818 682.9171,-358.1549"/>
<polygon fill="#000000" stroke="#000000" points="685.1394,-360.862 690.9788,-352.0217 680.901,-355.291 685.1394,-360.862"/>
</g>
<!-- 27 -->
<g id="node30" class="node">
<title>27</title>
<polygon fill="#c1b2ff" stroke="#c1b2ff" points="653.5431,-274.2019 579.1519,-274.2019 579.1519,-232.9981 653.5431,-232.9981 653.5431,-274.2019"/>
<text text-anchor="middle" x="616.3475" y="-257.8" font-family="Times,serif" font-size="14.00" fill="#000000">leaf node &#160;</text>
<text text-anchor="middle" x="616.3475" y="-241" font-family="Times,serif" font-size="14.00" fill="#000000">size = &#160;18 </text>
</g>
<!-- 19&#45;&gt;27 -->
<g id="edge29" class="edge">
<title>19&#45;&gt;27</title>
<path fill="none" stroke="#000000" d="M616.3475,-312.8099C616.3475,-304.3181 616.3475,-294.0029 616.3475,-284.3766"/>
<polygon fill="#000000" stroke="#000000" points="619.8476,-284.3205 616.3475,-274.3205 612.8476,-284.3205 619.8476,-284.3205"/>
</g>
<!-- 28 -->
<g id="node31" class="node">
<title>28</title>
<polygon fill="#c1b2ff" stroke="#c1b2ff" points="746.5431,-274.2019 672.1519,-274.2019 672.1519,-232.9981 746.5431,-232.9981 746.5431,-274.2019"/>
<text text-anchor="middle" x="709.3475" y="-257.8" font-family="Times,serif" font-size="14.00" fill="#000000">leaf node &#160;</text>
<text text-anchor="middle" x="709.3475" y="-241" font-family="Times,serif" font-size="14.00" fill="#000000">size = &#160;15 </text>
</g>
<!-- 19&#45;&gt;28 -->
<g id="edge30" class="edge">
<title>19&#45;&gt;28</title>
<path fill="none" stroke="#000000" d="M638.3872,-312.8099C649.8634,-303.234 664.1185,-291.3395 676.8347,-280.7289"/>
<polygon fill="#000000" stroke="#000000" points="679.0791,-283.4146 684.5149,-274.3205 674.5944,-278.0399 679.0791,-283.4146"/>
</g>
<!-- 15 -->
<g id="node34" class="node">
<title>15</title>
<polygon fill="none" stroke="#000000" points="875.5662,-426.8 789.1288,-426.8 789.1288,-390.8 875.5662,-390.8 875.5662,-426.8"/>
<text text-anchor="middle" x="832.3475" y="-404.6" font-family="Times,serif" font-size="14.00" fill="#000000"> edad &lt;= 43 </text>
</g>
<!-- 9&#45;&gt;15 -->
<g id="edge33" class="edge">
<title>9&#45;&gt;15</title>
<path fill="none" stroke="#000000" d="M832.3475,-468.0099C832.3475,-458.829 832.3475,-447.5167 832.3475,-437.2482"/>
<polygon fill="#000000" stroke="#000000" points="835.8476,-437.0581 832.3475,-427.0581 828.8476,-437.0581 835.8476,-437.0581"/>
</g>
<!-- 16 -->
<g id="node35" class="node">
<title>16</title>
<polygon fill="#c1b2ff" stroke="#c1b2ff" points="967.5431,-429.4019 893.1519,-429.4019 893.1519,-388.1981 967.5431,-388.1981 967.5431,-429.4019"/>
<text text-anchor="middle" x="930.3475" y="-413" font-family="Times,serif" font-size="14.00" fill="#000000">leaf node &#160;</text>
<text text-anchor="middle" x="930.3475" y="-396.2" font-family="Times,serif" font-size="14.00" fill="#000000">size = &#160;11 </text>
</g>
<!-- 9&#45;&gt;16 -->
<g id="edge34" class="edge">
<title>9&#45;&gt;16</title>
<path fill="none" stroke="#000000" d="M855.5721,-468.0099C867.6654,-458.434 882.6868,-446.5395 896.0867,-435.9289"/>
<polygon fill="#000000" stroke="#000000" points="898.5128,-438.4723 904.1799,-429.5205 894.1673,-432.9844 898.5128,-438.4723"/>
</g>
<!-- 21 -->
<g id="node36" class="node">
<title>21</title>
<polygon fill="#c1b2ff" stroke="#c1b2ff" points="858.5431,-351.8019 784.1519,-351.8019 784.1519,-310.5981 858.5431,-310.5981 858.5431,-351.8019"/>
<text text-anchor="middle" x="821.3475" y="-335.4" font-family="Times,serif" font-size="14.00" fill="#000000">leaf node &#160;</text>
<text text-anchor="middle" x="821.3475" y="-318.6" font-family="Times,serif" font-size="14.00" fill="#000000">size = &#160;10 </text>
</g>
<!-- 15&#45;&gt;21 -->
<g id="edge35" class="edge">
<title>15&#45;&gt;21</title>
<path fill="none" stroke="#000000" d="M829.7407,-390.4099C828.5369,-381.9181 827.0747,-371.6029 825.7102,-361.9766"/>
<polygon fill="#000000" stroke="#000000" points="829.1536,-361.3303 824.2847,-351.9205 822.2229,-362.3128 829.1536,-361.3303"/>
</g>
<!-- 22 -->
<g id="node37" class="node">
<title>22</title>
<polygon fill="#c1b2ff" stroke="#c1b2ff" points="951.5431,-351.8019 877.1519,-351.8019 877.1519,-310.5981 951.5431,-310.5981 951.5431,-351.8019"/>
<text text-anchor="middle" x="914.3475" y="-335.4" font-family="Times,serif" font-size="14.00" fill="#000000">leaf node &#160;</text>
<text text-anchor="middle" x="914.3475" y="-318.6" font-family="Times,serif" font-size="14.00" fill="#000000">size = &#160;11 </text>
</g>
<!-- 15&#45;&gt;22 -->
<g id="edge36" class="edge">
<title>15&#45;&gt;22</title>
<path fill="none" stroke="#000000" d="M851.7804,-390.4099C861.7083,-381.0147 873.9947,-369.3875 885.0443,-358.9309"/>
<polygon fill="#000000" stroke="#000000" points="887.5946,-361.3362 892.4521,-351.9205 882.7831,-356.2519 887.5946,-361.3362"/>
</g>
</g>
</svg>
